<?xml version="1.0" encoding="UTF-8" standalone="no"?>
<!DOCTYPE svg PUBLIC "-//W3C//DTD SVG 1.1//EN"
 "http://www.w3.org/Graphics/SVG/1.1/DTD/svg11.dtd">
<!-- Generated by graphviz version 2.43.0 (0)
 -->
<!-- Title: Tree Pages: 1 -->
<svg width="803pt" height="1067pt"
 viewBox="0.00 0.00 803.00 1067.00" xmlns="http://www.w3.org/2000/svg" xmlns:xlink="http://www.w3.org/1999/xlink">
<g id="graph0" class="graph" transform="scale(1 1) rotate(0) translate(4 1063)">
<title>Tree</title>
<polygon fill="#fffeec" stroke="transparent" points="-4,4 -4,-1063 799,-1063 799,4 -4,4"/>
<!-- node0x62a30ed1fc60 -->
<g id="node1" class="node">
<title>node0x62a30ed1fc60</title>
<path fill="#ffcfd2" stroke="#5f5b6a" d="M100,-1022.5C100,-1022.5 130,-1022.5 130,-1022.5 136,-1022.5 142,-1028.5 142,-1034.5 142,-1034.5 142,-1046.5 142,-1046.5 142,-1052.5 136,-1058.5 130,-1058.5 130,-1058.5 100,-1058.5 100,-1058.5 94,-1058.5 88,-1052.5 88,-1046.5 88,-1046.5 88,-1034.5 88,-1034.5 88,-1028.5 94,-1022.5 100,-1022.5"/>
<text text-anchor="middle" x="115" y="-1036.8" font-family="Times,serif" font-size="14.00">;</text>
</g>
<!-- node0x62a30ed1fc90 -->
<g id="node2" class="node">
<title>node0x62a30ed1fc90</title>
<path fill="#a3c4f3" stroke="#5f5b6a" d="M64,-949.5C64,-949.5 94,-949.5 94,-949.5 100,-949.5 106,-955.5 106,-961.5 106,-961.5 106,-973.5 106,-973.5 106,-979.5 100,-985.5 94,-985.5 94,-985.5 64,-985.5 64,-985.5 58,-985.5 52,-979.5 52,-973.5 52,-973.5 52,-961.5 52,-961.5 52,-955.5 58,-949.5 64,-949.5"/>
<text text-anchor="middle" x="79" y="-963.8" font-family="Times,serif" font-size="14.00">input</text>
</g>
<!-- node0x62a30ed1fc60&#45;&gt;node0x62a30ed1fc90 -->
<g id="edge1" class="edge">
<title>node0x62a30ed1fc60&#45;&gt;node0x62a30ed1fc90</title>
<path fill="none" stroke="#5f5b6a" d="M106.29,-1022.31C102.08,-1014.03 96.95,-1003.91 92.28,-994.69"/>
<polygon fill="#5f5b6a" stroke="#5f5b6a" points="95.28,-992.87 87.63,-985.53 89.04,-996.03 95.28,-992.87"/>
</g>
<!-- node0x62a30ed1fcf0 -->
<g id="node4" class="node">
<title>node0x62a30ed1fcf0</title>
<path fill="#ffcfd2" stroke="#5f5b6a" d="M136,-949.5C136,-949.5 166,-949.5 166,-949.5 172,-949.5 178,-955.5 178,-961.5 178,-961.5 178,-973.5 178,-973.5 178,-979.5 172,-985.5 166,-985.5 166,-985.5 136,-985.5 136,-985.5 130,-985.5 124,-979.5 124,-973.5 124,-973.5 124,-961.5 124,-961.5 124,-955.5 130,-949.5 136,-949.5"/>
<text text-anchor="middle" x="151" y="-963.8" font-family="Times,serif" font-size="14.00">;</text>
</g>
<!-- node0x62a30ed1fc60&#45;&gt;node0x62a30ed1fcf0 -->
<g id="edge3" class="edge">
<title>node0x62a30ed1fc60&#45;&gt;node0x62a30ed1fcf0</title>
<path fill="none" stroke="#5f5b6a" d="M123.71,-1022.31C127.92,-1014.03 133.05,-1003.91 137.72,-994.69"/>
<polygon fill="#5f5b6a" stroke="#5f5b6a" points="140.96,-996.03 142.37,-985.53 134.72,-992.87 140.96,-996.03"/>
</g>
<!-- node0x62a30ed1fcc0 -->
<g id="node3" class="node">
<title>node0x62a30ed1fcc0</title>
<path fill="#89fbc0" stroke="#5f5b6a" d="M64,-876.5C64,-876.5 94,-876.5 94,-876.5 100,-876.5 106,-882.5 106,-888.5 106,-888.5 106,-900.5 106,-900.5 106,-906.5 100,-912.5 94,-912.5 94,-912.5 64,-912.5 64,-912.5 58,-912.5 52,-906.5 52,-900.5 52,-900.5 52,-888.5 52,-888.5 52,-882.5 58,-876.5 64,-876.5"/>
<text text-anchor="middle" x="79" y="-890.8" font-family="Times,serif" font-size="14.00">0</text>
</g>
<!-- node0x62a30ed1fc90&#45;&gt;node0x62a30ed1fcc0 -->
<g id="edge2" class="edge">
<title>node0x62a30ed1fc90&#45;&gt;node0x62a30ed1fcc0</title>
<path fill="none" stroke="#5f5b6a" d="M79,-949.31C79,-941.29 79,-931.55 79,-922.57"/>
<polygon fill="#5f5b6a" stroke="#5f5b6a" points="82.5,-922.53 79,-912.53 75.5,-922.53 82.5,-922.53"/>
</g>
<!-- node0x62a30ed1fd20 -->
<g id="node5" class="node">
<title>node0x62a30ed1fd20</title>
<path fill="#cfbaf0" stroke="#5f5b6a" d="M136,-876.5C136,-876.5 166,-876.5 166,-876.5 172,-876.5 178,-882.5 178,-888.5 178,-888.5 178,-900.5 178,-900.5 178,-906.5 172,-912.5 166,-912.5 166,-912.5 136,-912.5 136,-912.5 130,-912.5 124,-906.5 124,-900.5 124,-900.5 124,-888.5 124,-888.5 124,-882.5 130,-876.5 136,-876.5"/>
<text text-anchor="middle" x="151" y="-890.8" font-family="Times,serif" font-size="14.00">=</text>
</g>
<!-- node0x62a30ed1fcf0&#45;&gt;node0x62a30ed1fd20 -->
<g id="edge4" class="edge">
<title>node0x62a30ed1fcf0&#45;&gt;node0x62a30ed1fd20</title>
<path fill="none" stroke="#5f5b6a" d="M151,-949.31C151,-941.29 151,-931.55 151,-922.57"/>
<polygon fill="#5f5b6a" stroke="#5f5b6a" points="154.5,-922.53 151,-912.53 147.5,-922.53 154.5,-922.53"/>
</g>
<!-- node0x62a30ed1fdb0 -->
<g id="node8" class="node">
<title>node0x62a30ed1fdb0</title>
<path fill="#ffcfd2" stroke="#5f5b6a" d="M209,-876.5C209,-876.5 239,-876.5 239,-876.5 245,-876.5 251,-882.5 251,-888.5 251,-888.5 251,-900.5 251,-900.5 251,-906.5 245,-912.5 239,-912.5 239,-912.5 209,-912.5 209,-912.5 203,-912.5 197,-906.5 197,-900.5 197,-900.5 197,-888.5 197,-888.5 197,-882.5 203,-876.5 209,-876.5"/>
<text text-anchor="middle" x="224" y="-890.8" font-family="Times,serif" font-size="14.00">;</text>
</g>
<!-- node0x62a30ed1fcf0&#45;&gt;node0x62a30ed1fdb0 -->
<g id="edge7" class="edge">
<title>node0x62a30ed1fcf0&#45;&gt;node0x62a30ed1fdb0</title>
<path fill="none" stroke="#5f5b6a" d="M168.67,-949.31C177.82,-940.42 189.14,-929.41 199.15,-919.67"/>
<polygon fill="#5f5b6a" stroke="#5f5b6a" points="201.76,-922.01 206.49,-912.53 196.88,-916.99 201.76,-922.01"/>
</g>
<!-- node0x62a30ed1fd50 -->
<g id="node6" class="node">
<title>node0x62a30ed1fd50</title>
<path fill="#98f5e1" stroke="#5f5b6a" d="M64,-803.5C64,-803.5 94,-803.5 94,-803.5 100,-803.5 106,-809.5 106,-815.5 106,-815.5 106,-827.5 106,-827.5 106,-833.5 100,-839.5 94,-839.5 94,-839.5 64,-839.5 64,-839.5 58,-839.5 52,-833.5 52,-827.5 52,-827.5 52,-815.5 52,-815.5 52,-809.5 58,-803.5 64,-803.5"/>
<text text-anchor="middle" x="79" y="-817.8" font-family="Times,serif" font-size="14.00">1</text>
</g>
<!-- node0x62a30ed1fd20&#45;&gt;node0x62a30ed1fd50 -->
<g id="edge5" class="edge">
<title>node0x62a30ed1fd20&#45;&gt;node0x62a30ed1fd50</title>
<path fill="none" stroke="#5f5b6a" d="M133.57,-876.31C124.55,-867.42 113.39,-856.41 103.51,-846.67"/>
<polygon fill="#5f5b6a" stroke="#5f5b6a" points="105.85,-844.06 96.27,-839.53 100.93,-849.04 105.85,-844.06"/>
</g>
<!-- node0x62a30ed1fd80 -->
<g id="node7" class="node">
<title>node0x62a30ed1fd80</title>
<path fill="#8eecf5" stroke="#5f5b6a" d="M136,-803.5C136,-803.5 166,-803.5 166,-803.5 172,-803.5 178,-809.5 178,-815.5 178,-815.5 178,-827.5 178,-827.5 178,-833.5 172,-839.5 166,-839.5 166,-839.5 136,-839.5 136,-839.5 130,-839.5 124,-833.5 124,-827.5 124,-827.5 124,-815.5 124,-815.5 124,-809.5 130,-803.5 136,-803.5"/>
<text text-anchor="middle" x="151" y="-817.8" font-family="Times,serif" font-size="14.00">1.00</text>
</g>
<!-- node0x62a30ed1fd20&#45;&gt;node0x62a30ed1fd80 -->
<g id="edge6" class="edge">
<title>node0x62a30ed1fd20&#45;&gt;node0x62a30ed1fd80</title>
<path fill="none" stroke="#5f5b6a" d="M151,-876.31C151,-868.29 151,-858.55 151,-849.57"/>
<polygon fill="#5f5b6a" stroke="#5f5b6a" points="154.5,-849.53 151,-839.53 147.5,-849.53 154.5,-849.53"/>
</g>
<!-- node0x62a30ed1fde0 -->
<g id="node9" class="node">
<title>node0x62a30ed1fde0</title>
<path fill="#f1c0e8" stroke="#5f5b6a" d="M208.5,-803.5C208.5,-803.5 239.5,-803.5 239.5,-803.5 245.5,-803.5 251.5,-809.5 251.5,-815.5 251.5,-815.5 251.5,-827.5 251.5,-827.5 251.5,-833.5 245.5,-839.5 239.5,-839.5 239.5,-839.5 208.5,-839.5 208.5,-839.5 202.5,-839.5 196.5,-833.5 196.5,-827.5 196.5,-827.5 196.5,-815.5 196.5,-815.5 196.5,-809.5 202.5,-803.5 208.5,-803.5"/>
<text text-anchor="middle" x="224" y="-817.8" font-family="Times,serif" font-size="14.00">while</text>
</g>
<!-- node0x62a30ed1fdb0&#45;&gt;node0x62a30ed1fde0 -->
<g id="edge8" class="edge">
<title>node0x62a30ed1fdb0&#45;&gt;node0x62a30ed1fde0</title>
<path fill="none" stroke="#5f5b6a" d="M224,-876.31C224,-868.29 224,-858.55 224,-849.57"/>
<polygon fill="#5f5b6a" stroke="#5f5b6a" points="227.5,-849.53 224,-839.53 220.5,-849.53 227.5,-849.53"/>
</g>
<!-- node0x62a30ed207d0 -->
<g id="node62" class="node">
<title>node0x62a30ed207d0</title>
<path fill="#ffcfd2" stroke="#5f5b6a" d="M389,-803.5C389,-803.5 419,-803.5 419,-803.5 425,-803.5 431,-809.5 431,-815.5 431,-815.5 431,-827.5 431,-827.5 431,-833.5 425,-839.5 419,-839.5 419,-839.5 389,-839.5 389,-839.5 383,-839.5 377,-833.5 377,-827.5 377,-827.5 377,-815.5 377,-815.5 377,-809.5 383,-803.5 389,-803.5"/>
<text text-anchor="middle" x="404" y="-817.8" font-family="Times,serif" font-size="14.00">;</text>
</g>
<!-- node0x62a30ed1fdb0&#45;&gt;node0x62a30ed207d0 -->
<g id="edge61" class="edge">
<title>node0x62a30ed1fdb0&#45;&gt;node0x62a30ed207d0</title>
<path fill="none" stroke="#5f5b6a" d="M251.34,-882.72C282.31,-870.5 332.93,-850.53 367.32,-836.97"/>
<polygon fill="#5f5b6a" stroke="#5f5b6a" points="368.98,-840.08 376.99,-833.15 366.41,-833.57 368.98,-840.08"/>
</g>
<!-- node0x62a30ed1fe10 -->
<g id="node10" class="node">
<title>node0x62a30ed1fe10</title>
<path fill="#cfbaf0" stroke="#5f5b6a" d="M101,-730.5C101,-730.5 131,-730.5 131,-730.5 137,-730.5 143,-736.5 143,-742.5 143,-742.5 143,-754.5 143,-754.5 143,-760.5 137,-766.5 131,-766.5 131,-766.5 101,-766.5 101,-766.5 95,-766.5 89,-760.5 89,-754.5 89,-754.5 89,-742.5 89,-742.5 89,-736.5 95,-730.5 101,-730.5"/>
<text text-anchor="middle" x="116" y="-744.8" font-family="Times,serif" font-size="14.00">&lt;=</text>
</g>
<!-- node0x62a30ed1fde0&#45;&gt;node0x62a30ed1fe10 -->
<g id="edge9" class="edge">
<title>node0x62a30ed1fde0&#45;&gt;node0x62a30ed1fe10</title>
<path fill="none" stroke="#5f5b6a" d="M198.13,-803.49C183.94,-794.17 166.16,-782.47 150.77,-772.36"/>
<polygon fill="#5f5b6a" stroke="#5f5b6a" points="152.31,-769.18 142.03,-766.61 148.47,-775.03 152.31,-769.18"/>
</g>
<!-- node0x62a30ed1fea0 -->
<g id="node13" class="node">
<title>node0x62a30ed1fea0</title>
<path fill="#ffcfd2" stroke="#5f5b6a" d="M209,-730.5C209,-730.5 239,-730.5 239,-730.5 245,-730.5 251,-736.5 251,-742.5 251,-742.5 251,-754.5 251,-754.5 251,-760.5 245,-766.5 239,-766.5 239,-766.5 209,-766.5 209,-766.5 203,-766.5 197,-760.5 197,-754.5 197,-754.5 197,-742.5 197,-742.5 197,-736.5 203,-730.5 209,-730.5"/>
<text text-anchor="middle" x="224" y="-744.8" font-family="Times,serif" font-size="14.00">;</text>
</g>
<!-- node0x62a30ed1fde0&#45;&gt;node0x62a30ed1fea0 -->
<g id="edge12" class="edge">
<title>node0x62a30ed1fde0&#45;&gt;node0x62a30ed1fea0</title>
<path fill="none" stroke="#5f5b6a" d="M224,-803.31C224,-795.29 224,-785.55 224,-776.57"/>
<polygon fill="#5f5b6a" stroke="#5f5b6a" points="227.5,-776.53 224,-766.53 220.5,-776.53 227.5,-776.53"/>
</g>
<!-- node0x62a30ed1fe40 -->
<g id="node11" class="node">
<title>node0x62a30ed1fe40</title>
<path fill="#98f5e1" stroke="#5f5b6a" d="M29,-657.5C29,-657.5 59,-657.5 59,-657.5 65,-657.5 71,-663.5 71,-669.5 71,-669.5 71,-681.5 71,-681.5 71,-687.5 65,-693.5 59,-693.5 59,-693.5 29,-693.5 29,-693.5 23,-693.5 17,-687.5 17,-681.5 17,-681.5 17,-669.5 17,-669.5 17,-663.5 23,-657.5 29,-657.5"/>
<text text-anchor="middle" x="44" y="-671.8" font-family="Times,serif" font-size="14.00">1</text>
</g>
<!-- node0x62a30ed1fe10&#45;&gt;node0x62a30ed1fe40 -->
<g id="edge10" class="edge">
<title>node0x62a30ed1fe10&#45;&gt;node0x62a30ed1fe40</title>
<path fill="none" stroke="#5f5b6a" d="M98.57,-730.31C89.55,-721.42 78.39,-710.41 68.51,-700.67"/>
<polygon fill="#5f5b6a" stroke="#5f5b6a" points="70.85,-698.06 61.27,-693.53 65.93,-703.04 70.85,-698.06"/>
</g>
<!-- node0x62a30ed1fe70 -->
<g id="node12" class="node">
<title>node0x62a30ed1fe70</title>
<path fill="#98f5e1" stroke="#5f5b6a" d="M101,-657.5C101,-657.5 131,-657.5 131,-657.5 137,-657.5 143,-663.5 143,-669.5 143,-669.5 143,-681.5 143,-681.5 143,-687.5 137,-693.5 131,-693.5 131,-693.5 101,-693.5 101,-693.5 95,-693.5 89,-687.5 89,-681.5 89,-681.5 89,-669.5 89,-669.5 89,-663.5 95,-657.5 101,-657.5"/>
<text text-anchor="middle" x="116" y="-671.8" font-family="Times,serif" font-size="14.00">0</text>
</g>
<!-- node0x62a30ed1fe10&#45;&gt;node0x62a30ed1fe70 -->
<g id="edge11" class="edge">
<title>node0x62a30ed1fe10&#45;&gt;node0x62a30ed1fe70</title>
<path fill="none" stroke="#5f5b6a" d="M116,-730.31C116,-722.29 116,-712.55 116,-703.57"/>
<polygon fill="#5f5b6a" stroke="#5f5b6a" points="119.5,-703.53 116,-693.53 112.5,-703.53 119.5,-703.53"/>
</g>
<!-- node0x62a30ed1fed0 -->
<g id="node14" class="node">
<title>node0x62a30ed1fed0</title>
<path fill="#cfbaf0" stroke="#5f5b6a" d="M173,-657.5C173,-657.5 203,-657.5 203,-657.5 209,-657.5 215,-663.5 215,-669.5 215,-669.5 215,-681.5 215,-681.5 215,-687.5 209,-693.5 203,-693.5 203,-693.5 173,-693.5 173,-693.5 167,-693.5 161,-687.5 161,-681.5 161,-681.5 161,-669.5 161,-669.5 161,-663.5 167,-657.5 173,-657.5"/>
<text text-anchor="middle" x="188" y="-671.8" font-family="Times,serif" font-size="14.00">=</text>
</g>
<!-- node0x62a30ed1fea0&#45;&gt;node0x62a30ed1fed0 -->
<g id="edge13" class="edge">
<title>node0x62a30ed1fea0&#45;&gt;node0x62a30ed1fed0</title>
<path fill="none" stroke="#5f5b6a" d="M215.29,-730.31C211.08,-722.03 205.95,-711.91 201.28,-702.69"/>
<polygon fill="#5f5b6a" stroke="#5f5b6a" points="204.28,-700.87 196.63,-693.53 198.04,-704.03 204.28,-700.87"/>
</g>
<!-- node0x62a30ed1ff60 -->
<g id="node17" class="node">
<title>node0x62a30ed1ff60</title>
<path fill="#ffcfd2" stroke="#5f5b6a" d="M245,-657.5C245,-657.5 275,-657.5 275,-657.5 281,-657.5 287,-663.5 287,-669.5 287,-669.5 287,-681.5 287,-681.5 287,-687.5 281,-693.5 275,-693.5 275,-693.5 245,-693.5 245,-693.5 239,-693.5 233,-687.5 233,-681.5 233,-681.5 233,-669.5 233,-669.5 233,-663.5 239,-657.5 245,-657.5"/>
<text text-anchor="middle" x="260" y="-671.8" font-family="Times,serif" font-size="14.00">;</text>
</g>
<!-- node0x62a30ed1fea0&#45;&gt;node0x62a30ed1ff60 -->
<g id="edge16" class="edge">
<title>node0x62a30ed1fea0&#45;&gt;node0x62a30ed1ff60</title>
<path fill="none" stroke="#5f5b6a" d="M232.71,-730.31C236.92,-722.03 242.05,-711.91 246.72,-702.69"/>
<polygon fill="#5f5b6a" stroke="#5f5b6a" points="249.96,-704.03 251.37,-693.53 243.72,-700.87 249.96,-704.03"/>
</g>
<!-- node0x62a30ed1ff00 -->
<g id="node15" class="node">
<title>node0x62a30ed1ff00</title>
<path fill="#98f5e1" stroke="#5f5b6a" d="M101,-584.5C101,-584.5 131,-584.5 131,-584.5 137,-584.5 143,-590.5 143,-596.5 143,-596.5 143,-608.5 143,-608.5 143,-614.5 137,-620.5 131,-620.5 131,-620.5 101,-620.5 101,-620.5 95,-620.5 89,-614.5 89,-608.5 89,-608.5 89,-596.5 89,-596.5 89,-590.5 95,-584.5 101,-584.5"/>
<text text-anchor="middle" x="116" y="-598.8" font-family="Times,serif" font-size="14.00">2</text>
</g>
<!-- node0x62a30ed1fed0&#45;&gt;node0x62a30ed1ff00 -->
<g id="edge14" class="edge">
<title>node0x62a30ed1fed0&#45;&gt;node0x62a30ed1ff00</title>
<path fill="none" stroke="#5f5b6a" d="M170.57,-657.31C161.55,-648.42 150.39,-637.41 140.51,-627.67"/>
<polygon fill="#5f5b6a" stroke="#5f5b6a" points="142.85,-625.06 133.27,-620.53 137.93,-630.04 142.85,-625.06"/>
</g>
<!-- node0x62a30ed1ff30 -->
<g id="node16" class="node">
<title>node0x62a30ed1ff30</title>
<path fill="#8eecf5" stroke="#5f5b6a" d="M173,-584.5C173,-584.5 203,-584.5 203,-584.5 209,-584.5 215,-590.5 215,-596.5 215,-596.5 215,-608.5 215,-608.5 215,-614.5 209,-620.5 203,-620.5 203,-620.5 173,-620.5 173,-620.5 167,-620.5 161,-614.5 161,-608.5 161,-608.5 161,-596.5 161,-596.5 161,-590.5 167,-584.5 173,-584.5"/>
<text text-anchor="middle" x="188" y="-598.8" font-family="Times,serif" font-size="14.00">1.00</text>
</g>
<!-- node0x62a30ed1fed0&#45;&gt;node0x62a30ed1ff30 -->
<g id="edge15" class="edge">
<title>node0x62a30ed1fed0&#45;&gt;node0x62a30ed1ff30</title>
<path fill="none" stroke="#5f5b6a" d="M188,-657.31C188,-649.29 188,-639.55 188,-630.57"/>
<polygon fill="#5f5b6a" stroke="#5f5b6a" points="191.5,-630.53 188,-620.53 184.5,-630.53 191.5,-630.53"/>
</g>
<!-- node0x62a30ed1ff90 -->
<g id="node18" class="node">
<title>node0x62a30ed1ff90</title>
<path fill="#cfbaf0" stroke="#5f5b6a" d="M245,-584.5C245,-584.5 275,-584.5 275,-584.5 281,-584.5 287,-590.5 287,-596.5 287,-596.5 287,-608.5 287,-608.5 287,-614.5 281,-620.5 275,-620.5 275,-620.5 245,-620.5 245,-620.5 239,-620.5 233,-614.5 233,-608.5 233,-608.5 233,-596.5 233,-596.5 233,-590.5 239,-584.5 245,-584.5"/>
<text text-anchor="middle" x="260" y="-598.8" font-family="Times,serif" font-size="14.00">=</text>
</g>
<!-- node0x62a30ed1ff60&#45;&gt;node0x62a30ed1ff90 -->
<g id="edge17" class="edge">
<title>node0x62a30ed1ff60&#45;&gt;node0x62a30ed1ff90</title>
<path fill="none" stroke="#5f5b6a" d="M260,-657.31C260,-649.29 260,-639.55 260,-630.57"/>
<polygon fill="#5f5b6a" stroke="#5f5b6a" points="263.5,-630.53 260,-620.53 256.5,-630.53 263.5,-630.53"/>
</g>
<!-- node0x62a30ed20020 -->
<g id="node21" class="node">
<title>node0x62a30ed20020</title>
<path fill="#ffcfd2" stroke="#5f5b6a" d="M317,-584.5C317,-584.5 347,-584.5 347,-584.5 353,-584.5 359,-590.5 359,-596.5 359,-596.5 359,-608.5 359,-608.5 359,-614.5 353,-620.5 347,-620.5 347,-620.5 317,-620.5 317,-620.5 311,-620.5 305,-614.5 305,-608.5 305,-608.5 305,-596.5 305,-596.5 305,-590.5 311,-584.5 317,-584.5"/>
<text text-anchor="middle" x="332" y="-598.8" font-family="Times,serif" font-size="14.00">;</text>
</g>
<!-- node0x62a30ed1ff60&#45;&gt;node0x62a30ed20020 -->
<g id="edge20" class="edge">
<title>node0x62a30ed1ff60&#45;&gt;node0x62a30ed20020</title>
<path fill="none" stroke="#5f5b6a" d="M277.43,-657.31C286.45,-648.42 297.61,-637.41 307.49,-627.67"/>
<polygon fill="#5f5b6a" stroke="#5f5b6a" points="310.07,-630.04 314.73,-620.53 305.15,-625.06 310.07,-630.04"/>
</g>
<!-- node0x62a30ed1ffc0 -->
<g id="node19" class="node">
<title>node0x62a30ed1ffc0</title>
<path fill="#98f5e1" stroke="#5f5b6a" d="M172,-511.5C172,-511.5 202,-511.5 202,-511.5 208,-511.5 214,-517.5 214,-523.5 214,-523.5 214,-535.5 214,-535.5 214,-541.5 208,-547.5 202,-547.5 202,-547.5 172,-547.5 172,-547.5 166,-547.5 160,-541.5 160,-535.5 160,-535.5 160,-523.5 160,-523.5 160,-517.5 166,-511.5 172,-511.5"/>
<text text-anchor="middle" x="187" y="-525.8" font-family="Times,serif" font-size="14.00">3</text>
</g>
<!-- node0x62a30ed1ff90&#45;&gt;node0x62a30ed1ffc0 -->
<g id="edge18" class="edge">
<title>node0x62a30ed1ff90&#45;&gt;node0x62a30ed1ffc0</title>
<path fill="none" stroke="#5f5b6a" d="M242.33,-584.31C233.18,-575.42 221.86,-564.41 211.85,-554.67"/>
<polygon fill="#5f5b6a" stroke="#5f5b6a" points="214.12,-551.99 204.51,-547.53 209.24,-557.01 214.12,-551.99"/>
</g>
<!-- node0x62a30ed1fff0 -->
<g id="node20" class="node">
<title>node0x62a30ed1fff0</title>
<path fill="#98f5e1" stroke="#5f5b6a" d="M244,-511.5C244,-511.5 274,-511.5 274,-511.5 280,-511.5 286,-517.5 286,-523.5 286,-523.5 286,-535.5 286,-535.5 286,-541.5 280,-547.5 274,-547.5 274,-547.5 244,-547.5 244,-547.5 238,-547.5 232,-541.5 232,-535.5 232,-535.5 232,-523.5 232,-523.5 232,-517.5 238,-511.5 244,-511.5"/>
<text text-anchor="middle" x="259" y="-525.8" font-family="Times,serif" font-size="14.00">1</text>
</g>
<!-- node0x62a30ed1ff90&#45;&gt;node0x62a30ed1fff0 -->
<g id="edge19" class="edge">
<title>node0x62a30ed1ff90&#45;&gt;node0x62a30ed1fff0</title>
<path fill="none" stroke="#5f5b6a" d="M259.76,-584.31C259.64,-576.29 259.51,-566.55 259.38,-557.57"/>
<polygon fill="#5f5b6a" stroke="#5f5b6a" points="262.88,-557.48 259.24,-547.53 255.88,-557.58 262.88,-557.48"/>
</g>
<!-- node0x62a30ed20050 -->
<g id="node22" class="node">
<title>node0x62a30ed20050</title>
<path fill="#f1c0e8" stroke="#5f5b6a" d="M316.5,-511.5C316.5,-511.5 347.5,-511.5 347.5,-511.5 353.5,-511.5 359.5,-517.5 359.5,-523.5 359.5,-523.5 359.5,-535.5 359.5,-535.5 359.5,-541.5 353.5,-547.5 347.5,-547.5 347.5,-547.5 316.5,-547.5 316.5,-547.5 310.5,-547.5 304.5,-541.5 304.5,-535.5 304.5,-535.5 304.5,-523.5 304.5,-523.5 304.5,-517.5 310.5,-511.5 316.5,-511.5"/>
<text text-anchor="middle" x="332" y="-525.8" font-family="Times,serif" font-size="14.00">while</text>
</g>
<!-- node0x62a30ed20020&#45;&gt;node0x62a30ed20050 -->
<g id="edge21" class="edge">
<title>node0x62a30ed20020&#45;&gt;node0x62a30ed20050</title>
<path fill="none" stroke="#5f5b6a" d="M332,-584.31C332,-576.29 332,-566.55 332,-557.57"/>
<polygon fill="#5f5b6a" stroke="#5f5b6a" points="335.5,-557.53 332,-547.53 328.5,-557.53 335.5,-557.53"/>
</g>
<!-- node0x62a30ed20350 -->
<g id="node38" class="node">
<title>node0x62a30ed20350</title>
<path fill="#ffcfd2" stroke="#5f5b6a" d="M424,-511.5C424,-511.5 454,-511.5 454,-511.5 460,-511.5 466,-517.5 466,-523.5 466,-523.5 466,-535.5 466,-535.5 466,-541.5 460,-547.5 454,-547.5 454,-547.5 424,-547.5 424,-547.5 418,-547.5 412,-541.5 412,-535.5 412,-535.5 412,-523.5 412,-523.5 412,-517.5 418,-511.5 424,-511.5"/>
<text text-anchor="middle" x="439" y="-525.8" font-family="Times,serif" font-size="14.00">;</text>
</g>
<!-- node0x62a30ed20020&#45;&gt;node0x62a30ed20350 -->
<g id="edge37" class="edge">
<title>node0x62a30ed20020&#45;&gt;node0x62a30ed20350</title>
<path fill="none" stroke="#5f5b6a" d="M357.63,-584.49C371.69,-575.17 389.31,-563.47 404.55,-553.36"/>
<polygon fill="#5f5b6a" stroke="#5f5b6a" points="406.81,-556.06 413.21,-547.61 402.94,-550.23 406.81,-556.06"/>
</g>
<!-- node0x62a30ed20080 -->
<g id="node23" class="node">
<title>node0x62a30ed20080</title>
<path fill="#cfbaf0" stroke="#5f5b6a" d="M84,-438.5C84,-438.5 114,-438.5 114,-438.5 120,-438.5 126,-444.5 126,-450.5 126,-450.5 126,-462.5 126,-462.5 126,-468.5 120,-474.5 114,-474.5 114,-474.5 84,-474.5 84,-474.5 78,-474.5 72,-468.5 72,-462.5 72,-462.5 72,-450.5 72,-450.5 72,-444.5 78,-438.5 84,-438.5"/>
<text text-anchor="middle" x="99" y="-452.8" font-family="Times,serif" font-size="14.00">&gt;=</text>
</g>
<!-- node0x62a30ed20050&#45;&gt;node0x62a30ed20080 -->
<g id="edge22" class="edge">
<title>node0x62a30ed20050&#45;&gt;node0x62a30ed20080</title>
<path fill="none" stroke="#5f5b6a" d="M304.34,-514.78C301.22,-513.42 298.07,-512.13 295,-511 240.83,-490.97 175.77,-474.68 135.91,-465.53"/>
<polygon fill="#5f5b6a" stroke="#5f5b6a" points="136.62,-462.11 126.1,-463.31 135.08,-468.93 136.62,-462.11"/>
</g>
<!-- node0x62a30ed20110 -->
<g id="node26" class="node">
<title>node0x62a30ed20110</title>
<path fill="#ffcfd2" stroke="#5f5b6a" d="M264,-438.5C264,-438.5 294,-438.5 294,-438.5 300,-438.5 306,-444.5 306,-450.5 306,-450.5 306,-462.5 306,-462.5 306,-468.5 300,-474.5 294,-474.5 294,-474.5 264,-474.5 264,-474.5 258,-474.5 252,-468.5 252,-462.5 252,-462.5 252,-450.5 252,-450.5 252,-444.5 258,-438.5 264,-438.5"/>
<text text-anchor="middle" x="279" y="-452.8" font-family="Times,serif" font-size="14.00">;</text>
</g>
<!-- node0x62a30ed20050&#45;&gt;node0x62a30ed20110 -->
<g id="edge25" class="edge">
<title>node0x62a30ed20050&#45;&gt;node0x62a30ed20110</title>
<path fill="none" stroke="#5f5b6a" d="M319.17,-511.31C312.79,-502.77 304.95,-492.27 297.9,-482.82"/>
<polygon fill="#5f5b6a" stroke="#5f5b6a" points="300.5,-480.45 291.71,-474.53 294.89,-484.64 300.5,-480.45"/>
</g>
<!-- node0x62a30ed200b0 -->
<g id="node24" class="node">
<title>node0x62a30ed200b0</title>
<path fill="#98f5e1" stroke="#5f5b6a" d="M12,-365.5C12,-365.5 42,-365.5 42,-365.5 48,-365.5 54,-371.5 54,-377.5 54,-377.5 54,-389.5 54,-389.5 54,-395.5 48,-401.5 42,-401.5 42,-401.5 12,-401.5 12,-401.5 6,-401.5 0,-395.5 0,-389.5 0,-389.5 0,-377.5 0,-377.5 0,-371.5 6,-365.5 12,-365.5"/>
<text text-anchor="middle" x="27" y="-379.8" font-family="Times,serif" font-size="14.00">3</text>
</g>
<!-- node0x62a30ed20080&#45;&gt;node0x62a30ed200b0 -->
<g id="edge23" class="edge">
<title>node0x62a30ed20080&#45;&gt;node0x62a30ed200b0</title>
<path fill="none" stroke="#5f5b6a" d="M81.57,-438.31C72.55,-429.42 61.39,-418.41 51.51,-408.67"/>
<polygon fill="#5f5b6a" stroke="#5f5b6a" points="53.85,-406.06 44.27,-401.53 48.93,-411.04 53.85,-406.06"/>
</g>
<!-- node0x62a30ed200e0 -->
<g id="node25" class="node">
<title>node0x62a30ed200e0</title>
<path fill="#8eecf5" stroke="#5f5b6a" d="M84,-365.5C84,-365.5 114,-365.5 114,-365.5 120,-365.5 126,-371.5 126,-377.5 126,-377.5 126,-389.5 126,-389.5 126,-395.5 120,-401.5 114,-401.5 114,-401.5 84,-401.5 84,-401.5 78,-401.5 72,-395.5 72,-389.5 72,-389.5 72,-377.5 72,-377.5 72,-371.5 78,-365.5 84,-365.5"/>
<text text-anchor="middle" x="99" y="-379.8" font-family="Times,serif" font-size="14.00">1.00</text>
</g>
<!-- node0x62a30ed20080&#45;&gt;node0x62a30ed200e0 -->
<g id="edge24" class="edge">
<title>node0x62a30ed20080&#45;&gt;node0x62a30ed200e0</title>
<path fill="none" stroke="#5f5b6a" d="M99,-438.31C99,-430.29 99,-420.55 99,-411.57"/>
<polygon fill="#5f5b6a" stroke="#5f5b6a" points="102.5,-411.53 99,-401.53 95.5,-411.53 102.5,-411.53"/>
</g>
<!-- node0x62a30ed20140 -->
<g id="node27" class="node">
<title>node0x62a30ed20140</title>
<path fill="#cfbaf0" stroke="#5f5b6a" d="M156,-365.5C156,-365.5 186,-365.5 186,-365.5 192,-365.5 198,-371.5 198,-377.5 198,-377.5 198,-389.5 198,-389.5 198,-395.5 192,-401.5 186,-401.5 186,-401.5 156,-401.5 156,-401.5 150,-401.5 144,-395.5 144,-389.5 144,-389.5 144,-377.5 144,-377.5 144,-371.5 150,-365.5 156,-365.5"/>
<text text-anchor="middle" x="171" y="-379.8" font-family="Times,serif" font-size="14.00">=</text>
</g>
<!-- node0x62a30ed20110&#45;&gt;node0x62a30ed20140 -->
<g id="edge26" class="edge">
<title>node0x62a30ed20110&#45;&gt;node0x62a30ed20140</title>
<path fill="none" stroke="#5f5b6a" d="M253.13,-438.49C238.94,-429.17 221.16,-417.47 205.77,-407.36"/>
<polygon fill="#5f5b6a" stroke="#5f5b6a" points="207.31,-404.18 197.03,-401.61 203.47,-410.03 207.31,-404.18"/>
</g>
<!-- node0x62a30ed20230 -->
<g id="node32" class="node">
<title>node0x62a30ed20230</title>
<path fill="#ffcfd2" stroke="#5f5b6a" d="M264,-365.5C264,-365.5 294,-365.5 294,-365.5 300,-365.5 306,-371.5 306,-377.5 306,-377.5 306,-389.5 306,-389.5 306,-395.5 300,-401.5 294,-401.5 294,-401.5 264,-401.5 264,-401.5 258,-401.5 252,-395.5 252,-389.5 252,-389.5 252,-377.5 252,-377.5 252,-371.5 258,-365.5 264,-365.5"/>
<text text-anchor="middle" x="279" y="-379.8" font-family="Times,serif" font-size="14.00">;</text>
</g>
<!-- node0x62a30ed20110&#45;&gt;node0x62a30ed20230 -->
<g id="edge31" class="edge">
<title>node0x62a30ed20110&#45;&gt;node0x62a30ed20230</title>
<path fill="none" stroke="#5f5b6a" d="M279,-438.31C279,-430.29 279,-420.55 279,-411.57"/>
<polygon fill="#5f5b6a" stroke="#5f5b6a" points="282.5,-411.53 279,-401.53 275.5,-411.53 282.5,-411.53"/>
</g>
<!-- node0x62a30ed20170 -->
<g id="node28" class="node">
<title>node0x62a30ed20170</title>
<path fill="#98f5e1" stroke="#5f5b6a" d="M75,-292.5C75,-292.5 105,-292.5 105,-292.5 111,-292.5 117,-298.5 117,-304.5 117,-304.5 117,-316.5 117,-316.5 117,-322.5 111,-328.5 105,-328.5 105,-328.5 75,-328.5 75,-328.5 69,-328.5 63,-322.5 63,-316.5 63,-316.5 63,-304.5 63,-304.5 63,-298.5 69,-292.5 75,-292.5"/>
<text text-anchor="middle" x="90" y="-306.8" font-family="Times,serif" font-size="14.00">2</text>
</g>
<!-- node0x62a30ed20140&#45;&gt;node0x62a30ed20170 -->
<g id="edge27" class="edge">
<title>node0x62a30ed20140&#45;&gt;node0x62a30ed20170</title>
<path fill="none" stroke="#5f5b6a" d="M151.39,-365.31C141.14,-356.33 128.44,-345.19 117.25,-335.39"/>
<polygon fill="#5f5b6a" stroke="#5f5b6a" points="119.25,-332.49 109.43,-328.53 114.64,-337.75 119.25,-332.49"/>
</g>
<!-- node0x62a30ed201a0 -->
<g id="node29" class="node">
<title>node0x62a30ed201a0</title>
<path fill="#cfbaf0" stroke="#5f5b6a" d="M147,-292.5C147,-292.5 177,-292.5 177,-292.5 183,-292.5 189,-298.5 189,-304.5 189,-304.5 189,-316.5 189,-316.5 189,-322.5 183,-328.5 177,-328.5 177,-328.5 147,-328.5 147,-328.5 141,-328.5 135,-322.5 135,-316.5 135,-316.5 135,-304.5 135,-304.5 135,-298.5 141,-292.5 147,-292.5"/>
<text text-anchor="middle" x="162" y="-306.8" font-family="Times,serif" font-size="14.00">*</text>
</g>
<!-- node0x62a30ed20140&#45;&gt;node0x62a30ed201a0 -->
<g id="edge28" class="edge">
<title>node0x62a30ed20140&#45;&gt;node0x62a30ed201a0</title>
<path fill="none" stroke="#5f5b6a" d="M168.82,-365.31C167.8,-357.29 166.57,-347.55 165.43,-338.57"/>
<polygon fill="#5f5b6a" stroke="#5f5b6a" points="168.89,-338.01 164.16,-328.53 161.94,-338.89 168.89,-338.01"/>
</g>
<!-- node0x62a30ed201d0 -->
<g id="node30" class="node">
<title>node0x62a30ed201d0</title>
<path fill="#98f5e1" stroke="#5f5b6a" d="M66,-219.5C66,-219.5 96,-219.5 96,-219.5 102,-219.5 108,-225.5 108,-231.5 108,-231.5 108,-243.5 108,-243.5 108,-249.5 102,-255.5 96,-255.5 96,-255.5 66,-255.5 66,-255.5 60,-255.5 54,-249.5 54,-243.5 54,-243.5 54,-231.5 54,-231.5 54,-225.5 60,-219.5 66,-219.5"/>
<text text-anchor="middle" x="81" y="-233.8" font-family="Times,serif" font-size="14.00">3</text>
</g>
<!-- node0x62a30ed201a0&#45;&gt;node0x62a30ed201d0 -->
<g id="edge29" class="edge">
<title>node0x62a30ed201a0&#45;&gt;node0x62a30ed201d0</title>
<path fill="none" stroke="#5f5b6a" d="M142.39,-292.31C132.14,-283.33 119.44,-272.19 108.25,-262.39"/>
<polygon fill="#5f5b6a" stroke="#5f5b6a" points="110.25,-259.49 100.43,-255.53 105.64,-264.75 110.25,-259.49"/>
</g>
<!-- node0x62a30ed20200 -->
<g id="node31" class="node">
<title>node0x62a30ed20200</title>
<path fill="#98f5e1" stroke="#5f5b6a" d="M138,-219.5C138,-219.5 168,-219.5 168,-219.5 174,-219.5 180,-225.5 180,-231.5 180,-231.5 180,-243.5 180,-243.5 180,-249.5 174,-255.5 168,-255.5 168,-255.5 138,-255.5 138,-255.5 132,-255.5 126,-249.5 126,-243.5 126,-243.5 126,-231.5 126,-231.5 126,-225.5 132,-219.5 138,-219.5"/>
<text text-anchor="middle" x="153" y="-233.8" font-family="Times,serif" font-size="14.00">2</text>
</g>
<!-- node0x62a30ed201a0&#45;&gt;node0x62a30ed20200 -->
<g id="edge30" class="edge">
<title>node0x62a30ed201a0&#45;&gt;node0x62a30ed20200</title>
<path fill="none" stroke="#5f5b6a" d="M159.82,-292.31C158.8,-284.29 157.57,-274.55 156.43,-265.57"/>
<polygon fill="#5f5b6a" stroke="#5f5b6a" points="159.89,-265.01 155.16,-255.53 152.94,-265.89 159.89,-265.01"/>
</g>
<!-- node0x62a30ed20260 -->
<g id="node33" class="node">
<title>node0x62a30ed20260</title>
<path fill="#cfbaf0" stroke="#5f5b6a" d="M264,-292.5C264,-292.5 294,-292.5 294,-292.5 300,-292.5 306,-298.5 306,-304.5 306,-304.5 306,-316.5 306,-316.5 306,-322.5 300,-328.5 294,-328.5 294,-328.5 264,-328.5 264,-328.5 258,-328.5 252,-322.5 252,-316.5 252,-316.5 252,-304.5 252,-304.5 252,-298.5 258,-292.5 264,-292.5"/>
<text text-anchor="middle" x="279" y="-306.8" font-family="Times,serif" font-size="14.00">=</text>
</g>
<!-- node0x62a30ed20230&#45;&gt;node0x62a30ed20260 -->
<g id="edge32" class="edge">
<title>node0x62a30ed20230&#45;&gt;node0x62a30ed20260</title>
<path fill="none" stroke="#5f5b6a" d="M279,-365.31C279,-357.29 279,-347.55 279,-338.57"/>
<polygon fill="#5f5b6a" stroke="#5f5b6a" points="282.5,-338.53 279,-328.53 275.5,-338.53 282.5,-338.53"/>
</g>
<!-- node0x62a30ed20290 -->
<g id="node34" class="node">
<title>node0x62a30ed20290</title>
<path fill="#98f5e1" stroke="#5f5b6a" d="M210,-219.5C210,-219.5 240,-219.5 240,-219.5 246,-219.5 252,-225.5 252,-231.5 252,-231.5 252,-243.5 252,-243.5 252,-249.5 246,-255.5 240,-255.5 240,-255.5 210,-255.5 210,-255.5 204,-255.5 198,-249.5 198,-243.5 198,-243.5 198,-231.5 198,-231.5 198,-225.5 204,-219.5 210,-219.5"/>
<text text-anchor="middle" x="225" y="-233.8" font-family="Times,serif" font-size="14.00">3</text>
</g>
<!-- node0x62a30ed20260&#45;&gt;node0x62a30ed20290 -->
<g id="edge33" class="edge">
<title>node0x62a30ed20260&#45;&gt;node0x62a30ed20290</title>
<path fill="none" stroke="#5f5b6a" d="M265.93,-292.31C259.36,-283.68 251.28,-273.06 244.04,-263.53"/>
<polygon fill="#5f5b6a" stroke="#5f5b6a" points="246.79,-261.37 237.95,-255.53 241.22,-265.61 246.79,-261.37"/>
</g>
<!-- node0x62a30ed202c0 -->
<g id="node35" class="node">
<title>node0x62a30ed202c0</title>
<path fill="#cfbaf0" stroke="#5f5b6a" d="M282,-219.5C282,-219.5 312,-219.5 312,-219.5 318,-219.5 324,-225.5 324,-231.5 324,-231.5 324,-243.5 324,-243.5 324,-249.5 318,-255.5 312,-255.5 312,-255.5 282,-255.5 282,-255.5 276,-255.5 270,-249.5 270,-243.5 270,-243.5 270,-231.5 270,-231.5 270,-225.5 276,-219.5 282,-219.5"/>
<text text-anchor="middle" x="297" y="-233.8" font-family="Times,serif" font-size="14.00">&#45;</text>
</g>
<!-- node0x62a30ed20260&#45;&gt;node0x62a30ed202c0 -->
<g id="edge34" class="edge">
<title>node0x62a30ed20260&#45;&gt;node0x62a30ed202c0</title>
<path fill="none" stroke="#5f5b6a" d="M283.36,-292.31C285.41,-284.2 287.91,-274.34 290.21,-265.28"/>
<polygon fill="#5f5b6a" stroke="#5f5b6a" points="293.62,-266.08 292.68,-255.53 286.83,-264.36 293.62,-266.08"/>
</g>
<!-- node0x62a30ed202f0 -->
<g id="node36" class="node">
<title>node0x62a30ed202f0</title>
<path fill="#98f5e1" stroke="#5f5b6a" d="M246,-146.5C246,-146.5 276,-146.5 276,-146.5 282,-146.5 288,-152.5 288,-158.5 288,-158.5 288,-170.5 288,-170.5 288,-176.5 282,-182.5 276,-182.5 276,-182.5 246,-182.5 246,-182.5 240,-182.5 234,-176.5 234,-170.5 234,-170.5 234,-158.5 234,-158.5 234,-152.5 240,-146.5 246,-146.5"/>
<text text-anchor="middle" x="261" y="-160.8" font-family="Times,serif" font-size="14.00">3</text>
</g>
<!-- node0x62a30ed202c0&#45;&gt;node0x62a30ed202f0 -->
<g id="edge35" class="edge">
<title>node0x62a30ed202c0&#45;&gt;node0x62a30ed202f0</title>
<path fill="none" stroke="#5f5b6a" d="M288.29,-219.31C284.08,-211.03 278.95,-200.91 274.28,-191.69"/>
<polygon fill="#5f5b6a" stroke="#5f5b6a" points="277.28,-189.87 269.63,-182.53 271.04,-193.03 277.28,-189.87"/>
</g>
<!-- node0x62a30ed20320 -->
<g id="node37" class="node">
<title>node0x62a30ed20320</title>
<path fill="#8eecf5" stroke="#5f5b6a" d="M318,-146.5C318,-146.5 348,-146.5 348,-146.5 354,-146.5 360,-152.5 360,-158.5 360,-158.5 360,-170.5 360,-170.5 360,-176.5 354,-182.5 348,-182.5 348,-182.5 318,-182.5 318,-182.5 312,-182.5 306,-176.5 306,-170.5 306,-170.5 306,-158.5 306,-158.5 306,-152.5 312,-146.5 318,-146.5"/>
<text text-anchor="middle" x="333" y="-160.8" font-family="Times,serif" font-size="14.00">1.00</text>
</g>
<!-- node0x62a30ed202c0&#45;&gt;node0x62a30ed20320 -->
<g id="edge36" class="edge">
<title>node0x62a30ed202c0&#45;&gt;node0x62a30ed20320</title>
<path fill="none" stroke="#5f5b6a" d="M305.71,-219.31C309.92,-211.03 315.05,-200.91 319.72,-191.69"/>
<polygon fill="#5f5b6a" stroke="#5f5b6a" points="322.96,-193.03 324.37,-182.53 316.72,-189.87 322.96,-193.03"/>
</g>
<!-- node0x62a30ed20380 -->
<g id="node39" class="node">
<title>node0x62a30ed20380</title>
<path fill="#f1c0e8" stroke="#5f5b6a" d="M428,-438.5C428,-438.5 458,-438.5 458,-438.5 464,-438.5 470,-444.5 470,-450.5 470,-450.5 470,-462.5 470,-462.5 470,-468.5 464,-474.5 458,-474.5 458,-474.5 428,-474.5 428,-474.5 422,-474.5 416,-468.5 416,-462.5 416,-462.5 416,-450.5 416,-450.5 416,-444.5 422,-438.5 428,-438.5"/>
<text text-anchor="middle" x="443" y="-452.8" font-family="Times,serif" font-size="14.00">if</text>
</g>
<!-- node0x62a30ed20350&#45;&gt;node0x62a30ed20380 -->
<g id="edge38" class="edge">
<title>node0x62a30ed20350&#45;&gt;node0x62a30ed20380</title>
<path fill="none" stroke="#5f5b6a" d="M439.97,-511.31C440.42,-503.29 440.97,-493.55 441.47,-484.57"/>
<polygon fill="#5f5b6a" stroke="#5f5b6a" points="444.97,-484.71 442.04,-474.53 437.98,-484.32 444.97,-484.71"/>
</g>
<!-- node0x62a30ed206b0 -->
<g id="node56" class="node">
<title>node0x62a30ed206b0</title>
<path fill="#ffcfd2" stroke="#5f5b6a" d="M508,-438.5C508,-438.5 538,-438.5 538,-438.5 544,-438.5 550,-444.5 550,-450.5 550,-450.5 550,-462.5 550,-462.5 550,-468.5 544,-474.5 538,-474.5 538,-474.5 508,-474.5 508,-474.5 502,-474.5 496,-468.5 496,-462.5 496,-462.5 496,-450.5 496,-450.5 496,-444.5 502,-438.5 508,-438.5"/>
<text text-anchor="middle" x="523" y="-452.8" font-family="Times,serif" font-size="14.00">;</text>
</g>
<!-- node0x62a30ed20350&#45;&gt;node0x62a30ed206b0 -->
<g id="edge55" class="edge">
<title>node0x62a30ed20350&#45;&gt;node0x62a30ed206b0</title>
<path fill="none" stroke="#5f5b6a" d="M459.33,-511.31C470.06,-502.24 483.39,-490.98 495.08,-481.1"/>
<polygon fill="#5f5b6a" stroke="#5f5b6a" points="497.48,-483.66 502.85,-474.53 492.96,-478.31 497.48,-483.66"/>
</g>
<!-- node0x62a30ed203b0 -->
<g id="node40" class="node">
<title>node0x62a30ed203b0</title>
<path fill="#ffcfd2" stroke="#5f5b6a" d="M427,-365.5C427,-365.5 459,-365.5 459,-365.5 465,-365.5 471,-371.5 471,-377.5 471,-377.5 471,-389.5 471,-389.5 471,-395.5 465,-401.5 459,-401.5 459,-401.5 427,-401.5 427,-401.5 421,-401.5 415,-395.5 415,-389.5 415,-389.5 415,-377.5 415,-377.5 415,-371.5 421,-365.5 427,-365.5"/>
<text text-anchor="middle" x="443" y="-379.8" font-family="Times,serif" font-size="14.00">no op</text>
</g>
<!-- node0x62a30ed20380&#45;&gt;node0x62a30ed203b0 -->
<g id="edge39" class="edge">
<title>node0x62a30ed20380&#45;&gt;node0x62a30ed203b0</title>
<path fill="none" stroke="#5f5b6a" d="M443,-438.31C443,-430.29 443,-420.55 443,-411.57"/>
<polygon fill="#5f5b6a" stroke="#5f5b6a" points="446.5,-411.53 443,-401.53 439.5,-411.53 446.5,-411.53"/>
</g>
<!-- node0x62a30ed20500 -->
<g id="node47" class="node">
<title>node0x62a30ed20500</title>
<path fill="#ffcfd2" stroke="#5f5b6a" d="M519,-365.5C519,-365.5 551,-365.5 551,-365.5 557,-365.5 563,-371.5 563,-377.5 563,-377.5 563,-389.5 563,-389.5 563,-395.5 557,-401.5 551,-401.5 551,-401.5 519,-401.5 519,-401.5 513,-401.5 507,-395.5 507,-389.5 507,-389.5 507,-377.5 507,-377.5 507,-371.5 513,-365.5 519,-365.5"/>
<text text-anchor="middle" x="535" y="-379.8" font-family="Times,serif" font-size="14.00">no op</text>
</g>
<!-- node0x62a30ed20380&#45;&gt;node0x62a30ed20500 -->
<g id="edge46" class="edge">
<title>node0x62a30ed20380&#45;&gt;node0x62a30ed20500</title>
<path fill="none" stroke="#5f5b6a" d="M465.27,-438.31C477.14,-429.16 491.9,-417.76 504.79,-407.82"/>
<polygon fill="#5f5b6a" stroke="#5f5b6a" points="507.16,-410.41 512.93,-401.53 502.88,-404.87 507.16,-410.41"/>
</g>
<!-- node0x62a30ed203e0 -->
<g id="node41" class="node">
<title>node0x62a30ed203e0</title>
<path fill="#cfbaf0" stroke="#5f5b6a" d="M411,-292.5C411,-292.5 441,-292.5 441,-292.5 447,-292.5 453,-298.5 453,-304.5 453,-304.5 453,-316.5 453,-316.5 453,-322.5 447,-328.5 441,-328.5 441,-328.5 411,-328.5 411,-328.5 405,-328.5 399,-322.5 399,-316.5 399,-316.5 399,-304.5 399,-304.5 399,-298.5 405,-292.5 411,-292.5"/>
<text text-anchor="middle" x="426" y="-306.8" font-family="Times,serif" font-size="14.00">!=</text>
</g>
<!-- node0x62a30ed203b0&#45;&gt;node0x62a30ed203e0 -->
<g id="edge40" class="edge">
<title>node0x62a30ed203b0&#45;&gt;node0x62a30ed203e0</title>
<path fill="none" stroke="#5f5b6a" d="M438.88,-365.31C436.94,-357.2 434.58,-347.34 432.41,-338.28"/>
<polygon fill="#5f5b6a" stroke="#5f5b6a" points="435.81,-337.44 430.08,-328.53 429,-339.07 435.81,-337.44"/>
</g>
<!-- node0x62a30ed20470 -->
<g id="node44" class="node">
<title>node0x62a30ed20470</title>
<path fill="#ffcfd2" stroke="#5f5b6a" d="M483,-292.5C483,-292.5 513,-292.5 513,-292.5 519,-292.5 525,-298.5 525,-304.5 525,-304.5 525,-316.5 525,-316.5 525,-322.5 519,-328.5 513,-328.5 513,-328.5 483,-328.5 483,-328.5 477,-328.5 471,-322.5 471,-316.5 471,-316.5 471,-304.5 471,-304.5 471,-298.5 477,-292.5 483,-292.5"/>
<text text-anchor="middle" x="498" y="-306.8" font-family="Times,serif" font-size="14.00">;</text>
</g>
<!-- node0x62a30ed203b0&#45;&gt;node0x62a30ed20470 -->
<g id="edge43" class="edge">
<title>node0x62a30ed203b0&#45;&gt;node0x62a30ed20470</title>
<path fill="none" stroke="#5f5b6a" d="M456.31,-365.31C463,-356.68 471.23,-346.06 478.61,-336.53"/>
<polygon fill="#5f5b6a" stroke="#5f5b6a" points="481.45,-338.58 484.81,-328.53 475.92,-334.29 481.45,-338.58"/>
</g>
<!-- node0x62a30ed20410 -->
<g id="node42" class="node">
<title>node0x62a30ed20410</title>
<path fill="#98f5e1" stroke="#5f5b6a" d="M354,-219.5C354,-219.5 384,-219.5 384,-219.5 390,-219.5 396,-225.5 396,-231.5 396,-231.5 396,-243.5 396,-243.5 396,-249.5 390,-255.5 384,-255.5 384,-255.5 354,-255.5 354,-255.5 348,-255.5 342,-249.5 342,-243.5 342,-243.5 342,-231.5 342,-231.5 342,-225.5 348,-219.5 354,-219.5"/>
<text text-anchor="middle" x="369" y="-233.8" font-family="Times,serif" font-size="14.00">2</text>
</g>
<!-- node0x62a30ed203e0&#45;&gt;node0x62a30ed20410 -->
<g id="edge41" class="edge">
<title>node0x62a30ed203e0&#45;&gt;node0x62a30ed20410</title>
<path fill="none" stroke="#5f5b6a" d="M412.2,-292.31C405.27,-283.68 396.74,-273.06 389.1,-263.53"/>
<polygon fill="#5f5b6a" stroke="#5f5b6a" points="391.66,-261.14 382.67,-255.53 386.2,-265.52 391.66,-261.14"/>
</g>
<!-- node0x62a30ed20440 -->
<g id="node43" class="node">
<title>node0x62a30ed20440</title>
<path fill="#8eecf5" stroke="#5f5b6a" d="M426.5,-219.5C426.5,-219.5 459.5,-219.5 459.5,-219.5 465.5,-219.5 471.5,-225.5 471.5,-231.5 471.5,-231.5 471.5,-243.5 471.5,-243.5 471.5,-249.5 465.5,-255.5 459.5,-255.5 459.5,-255.5 426.5,-255.5 426.5,-255.5 420.5,-255.5 414.5,-249.5 414.5,-243.5 414.5,-243.5 414.5,-231.5 414.5,-231.5 414.5,-225.5 420.5,-219.5 426.5,-219.5"/>
<text text-anchor="middle" x="443" y="-233.8" font-family="Times,serif" font-size="14.00">24.00</text>
</g>
<!-- node0x62a30ed203e0&#45;&gt;node0x62a30ed20440 -->
<g id="edge42" class="edge">
<title>node0x62a30ed203e0&#45;&gt;node0x62a30ed20440</title>
<path fill="none" stroke="#5f5b6a" d="M430.12,-292.31C432.06,-284.2 434.42,-274.34 436.59,-265.28"/>
<polygon fill="#5f5b6a" stroke="#5f5b6a" points="440,-266.07 438.92,-255.53 433.19,-264.44 440,-266.07"/>
</g>
<!-- node0x62a30ed204a0 -->
<g id="node45" class="node">
<title>node0x62a30ed204a0</title>
<path fill="#a3c4f3" stroke="#5f5b6a" d="M502,-219.5C502,-219.5 532,-219.5 532,-219.5 538,-219.5 544,-225.5 544,-231.5 544,-231.5 544,-243.5 544,-243.5 544,-249.5 538,-255.5 532,-255.5 532,-255.5 502,-255.5 502,-255.5 496,-255.5 490,-249.5 490,-243.5 490,-243.5 490,-231.5 490,-231.5 490,-225.5 496,-219.5 502,-219.5"/>
<text text-anchor="middle" x="517" y="-233.8" font-family="Times,serif" font-size="14.00">print</text>
</g>
<!-- node0x62a30ed20470&#45;&gt;node0x62a30ed204a0 -->
<g id="edge44" class="edge">
<title>node0x62a30ed20470&#45;&gt;node0x62a30ed204a0</title>
<path fill="none" stroke="#5f5b6a" d="M502.6,-292.31C504.77,-284.2 507.41,-274.34 509.83,-265.28"/>
<polygon fill="#5f5b6a" stroke="#5f5b6a" points="513.24,-266.09 512.44,-255.53 506.48,-264.28 513.24,-266.09"/>
</g>
<!-- node0x62a30ed204d0 -->
<g id="node46" class="node">
<title>node0x62a30ed204d0</title>
<path fill="#89fbc0" stroke="#5f5b6a" d="M502,-146.5C502,-146.5 532,-146.5 532,-146.5 538,-146.5 544,-152.5 544,-158.5 544,-158.5 544,-170.5 544,-170.5 544,-176.5 538,-182.5 532,-182.5 532,-182.5 502,-182.5 502,-182.5 496,-182.5 490,-176.5 490,-170.5 490,-170.5 490,-158.5 490,-158.5 490,-152.5 496,-146.5 502,-146.5"/>
<text text-anchor="middle" x="517" y="-160.8" font-family="Times,serif" font-size="14.00">2</text>
</g>
<!-- node0x62a30ed204a0&#45;&gt;node0x62a30ed204d0 -->
<g id="edge45" class="edge">
<title>node0x62a30ed204a0&#45;&gt;node0x62a30ed204d0</title>
<path fill="none" stroke="#5f5b6a" d="M517,-219.31C517,-211.29 517,-201.55 517,-192.57"/>
<polygon fill="#5f5b6a" stroke="#5f5b6a" points="520.5,-192.53 517,-182.53 513.5,-192.53 520.5,-192.53"/>
</g>
<!-- node0x62a30ed20530 -->
<g id="node48" class="node">
<title>node0x62a30ed20530</title>
<path fill="#f1c0e8" stroke="#5f5b6a" d="M555,-292.5C555,-292.5 585,-292.5 585,-292.5 591,-292.5 597,-298.5 597,-304.5 597,-304.5 597,-316.5 597,-316.5 597,-322.5 591,-328.5 585,-328.5 585,-328.5 555,-328.5 555,-328.5 549,-328.5 543,-322.5 543,-316.5 543,-316.5 543,-304.5 543,-304.5 543,-298.5 549,-292.5 555,-292.5"/>
<text text-anchor="middle" x="570" y="-306.8" font-family="Times,serif" font-size="14.00">else</text>
</g>
<!-- node0x62a30ed20500&#45;&gt;node0x62a30ed20530 -->
<g id="edge47" class="edge">
<title>node0x62a30ed20500&#45;&gt;node0x62a30ed20530</title>
<path fill="none" stroke="#5f5b6a" d="M543.47,-365.31C547.56,-357.03 552.54,-346.91 557.09,-337.69"/>
<polygon fill="#5f5b6a" stroke="#5f5b6a" points="560.32,-339.05 561.61,-328.53 554.04,-335.95 560.32,-339.05"/>
</g>
<!-- node0x62a30ed20560 -->
<g id="node49" class="node">
<title>node0x62a30ed20560</title>
<path fill="#ffcfd2" stroke="#5f5b6a" d="M574,-219.5C574,-219.5 604,-219.5 604,-219.5 610,-219.5 616,-225.5 616,-231.5 616,-231.5 616,-243.5 616,-243.5 616,-249.5 610,-255.5 604,-255.5 604,-255.5 574,-255.5 574,-255.5 568,-255.5 562,-249.5 562,-243.5 562,-243.5 562,-231.5 562,-231.5 562,-225.5 568,-219.5 574,-219.5"/>
<text text-anchor="middle" x="589" y="-233.8" font-family="Times,serif" font-size="14.00">;</text>
</g>
<!-- node0x62a30ed20530&#45;&gt;node0x62a30ed20560 -->
<g id="edge48" class="edge">
<title>node0x62a30ed20530&#45;&gt;node0x62a30ed20560</title>
<path fill="none" stroke="#5f5b6a" d="M574.6,-292.31C576.77,-284.2 579.41,-274.34 581.83,-265.28"/>
<polygon fill="#5f5b6a" stroke="#5f5b6a" points="585.24,-266.09 584.44,-255.53 578.48,-264.28 585.24,-266.09"/>
</g>
<!-- node0x62a30ed20590 -->
<g id="node50" class="node">
<title>node0x62a30ed20590</title>
<path fill="#cfbaf0" stroke="#5f5b6a" d="M574,-146.5C574,-146.5 604,-146.5 604,-146.5 610,-146.5 616,-152.5 616,-158.5 616,-158.5 616,-170.5 616,-170.5 616,-176.5 610,-182.5 604,-182.5 604,-182.5 574,-182.5 574,-182.5 568,-182.5 562,-176.5 562,-170.5 562,-170.5 562,-158.5 562,-158.5 562,-152.5 568,-146.5 574,-146.5"/>
<text text-anchor="middle" x="589" y="-160.8" font-family="Times,serif" font-size="14.00">=</text>
</g>
<!-- node0x62a30ed20560&#45;&gt;node0x62a30ed20590 -->
<g id="edge49" class="edge">
<title>node0x62a30ed20560&#45;&gt;node0x62a30ed20590</title>
<path fill="none" stroke="#5f5b6a" d="M589,-219.31C589,-211.29 589,-201.55 589,-192.57"/>
<polygon fill="#5f5b6a" stroke="#5f5b6a" points="592.5,-192.53 589,-182.53 585.5,-192.53 592.5,-192.53"/>
</g>
<!-- node0x62a30ed20620 -->
<g id="node53" class="node">
<title>node0x62a30ed20620</title>
<path fill="#ffcfd2" stroke="#5f5b6a" d="M647,-146.5C647,-146.5 677,-146.5 677,-146.5 683,-146.5 689,-152.5 689,-158.5 689,-158.5 689,-170.5 689,-170.5 689,-176.5 683,-182.5 677,-182.5 677,-182.5 647,-182.5 647,-182.5 641,-182.5 635,-176.5 635,-170.5 635,-170.5 635,-158.5 635,-158.5 635,-152.5 641,-146.5 647,-146.5"/>
<text text-anchor="middle" x="662" y="-160.8" font-family="Times,serif" font-size="14.00">;</text>
</g>
<!-- node0x62a30ed20560&#45;&gt;node0x62a30ed20620 -->
<g id="edge52" class="edge">
<title>node0x62a30ed20560&#45;&gt;node0x62a30ed20620</title>
<path fill="none" stroke="#5f5b6a" d="M606.67,-219.31C615.82,-210.42 627.14,-199.41 637.15,-189.67"/>
<polygon fill="#5f5b6a" stroke="#5f5b6a" points="639.76,-192.01 644.49,-182.53 634.88,-186.99 639.76,-192.01"/>
</g>
<!-- node0x62a30ed205c0 -->
<g id="node51" class="node">
<title>node0x62a30ed205c0</title>
<path fill="#98f5e1" stroke="#5f5b6a" d="M500,-73.5C500,-73.5 530,-73.5 530,-73.5 536,-73.5 542,-79.5 542,-85.5 542,-85.5 542,-97.5 542,-97.5 542,-103.5 536,-109.5 530,-109.5 530,-109.5 500,-109.5 500,-109.5 494,-109.5 488,-103.5 488,-97.5 488,-97.5 488,-85.5 488,-85.5 488,-79.5 494,-73.5 500,-73.5"/>
<text text-anchor="middle" x="515" y="-87.8" font-family="Times,serif" font-size="14.00">4</text>
</g>
<!-- node0x62a30ed20590&#45;&gt;node0x62a30ed205c0 -->
<g id="edge50" class="edge">
<title>node0x62a30ed20590&#45;&gt;node0x62a30ed205c0</title>
<path fill="none" stroke="#5f5b6a" d="M571.09,-146.31C561.82,-137.42 550.34,-126.41 540.19,-116.67"/>
<polygon fill="#5f5b6a" stroke="#5f5b6a" points="542.39,-113.93 532.75,-109.53 537.54,-118.98 542.39,-113.93"/>
</g>
<!-- node0x62a30ed205f0 -->
<g id="node52" class="node">
<title>node0x62a30ed205f0</title>
<path fill="#8eecf5" stroke="#5f5b6a" d="M572.5,-73.5C572.5,-73.5 605.5,-73.5 605.5,-73.5 611.5,-73.5 617.5,-79.5 617.5,-85.5 617.5,-85.5 617.5,-97.5 617.5,-97.5 617.5,-103.5 611.5,-109.5 605.5,-109.5 605.5,-109.5 572.5,-109.5 572.5,-109.5 566.5,-109.5 560.5,-103.5 560.5,-97.5 560.5,-97.5 560.5,-85.5 560.5,-85.5 560.5,-79.5 566.5,-73.5 572.5,-73.5"/>
<text text-anchor="middle" x="589" y="-87.8" font-family="Times,serif" font-size="14.00">78.00</text>
</g>
<!-- node0x62a30ed20590&#45;&gt;node0x62a30ed205f0 -->
<g id="edge51" class="edge">
<title>node0x62a30ed20590&#45;&gt;node0x62a30ed205f0</title>
<path fill="none" stroke="#5f5b6a" d="M589,-146.31C589,-138.29 589,-128.55 589,-119.57"/>
<polygon fill="#5f5b6a" stroke="#5f5b6a" points="592.5,-119.53 589,-109.53 585.5,-119.53 592.5,-119.53"/>
</g>
<!-- node0x62a30ed20650 -->
<g id="node54" class="node">
<title>node0x62a30ed20650</title>
<path fill="#a3c4f3" stroke="#5f5b6a" d="M648,-73.5C648,-73.5 678,-73.5 678,-73.5 684,-73.5 690,-79.5 690,-85.5 690,-85.5 690,-97.5 690,-97.5 690,-103.5 684,-109.5 678,-109.5 678,-109.5 648,-109.5 648,-109.5 642,-109.5 636,-103.5 636,-97.5 636,-97.5 636,-85.5 636,-85.5 636,-79.5 642,-73.5 648,-73.5"/>
<text text-anchor="middle" x="663" y="-87.8" font-family="Times,serif" font-size="14.00">print</text>
</g>
<!-- node0x62a30ed20620&#45;&gt;node0x62a30ed20650 -->
<g id="edge53" class="edge">
<title>node0x62a30ed20620&#45;&gt;node0x62a30ed20650</title>
<path fill="none" stroke="#5f5b6a" d="M662.24,-146.31C662.36,-138.29 662.49,-128.55 662.62,-119.57"/>
<polygon fill="#5f5b6a" stroke="#5f5b6a" points="666.12,-119.58 662.76,-109.53 659.12,-119.48 666.12,-119.58"/>
</g>
<!-- node0x62a30ed20680 -->
<g id="node55" class="node">
<title>node0x62a30ed20680</title>
<path fill="#89fbc0" stroke="#5f5b6a" d="M648,-0.5C648,-0.5 678,-0.5 678,-0.5 684,-0.5 690,-6.5 690,-12.5 690,-12.5 690,-24.5 690,-24.5 690,-30.5 684,-36.5 678,-36.5 678,-36.5 648,-36.5 648,-36.5 642,-36.5 636,-30.5 636,-24.5 636,-24.5 636,-12.5 636,-12.5 636,-6.5 642,-0.5 648,-0.5"/>
<text text-anchor="middle" x="663" y="-14.8" font-family="Times,serif" font-size="14.00">4</text>
</g>
<!-- node0x62a30ed20650&#45;&gt;node0x62a30ed20680 -->
<g id="edge54" class="edge">
<title>node0x62a30ed20650&#45;&gt;node0x62a30ed20680</title>
<path fill="none" stroke="#5f5b6a" d="M663,-73.31C663,-65.29 663,-55.55 663,-46.57"/>
<polygon fill="#5f5b6a" stroke="#5f5b6a" points="666.5,-46.53 663,-36.53 659.5,-46.53 666.5,-46.53"/>
</g>
<!-- node0x62a30ed206e0 -->
<g id="node57" class="node">
<title>node0x62a30ed206e0</title>
<path fill="#cfbaf0" stroke="#5f5b6a" d="M627,-365.5C627,-365.5 657,-365.5 657,-365.5 663,-365.5 669,-371.5 669,-377.5 669,-377.5 669,-389.5 669,-389.5 669,-395.5 663,-401.5 657,-401.5 657,-401.5 627,-401.5 627,-401.5 621,-401.5 615,-395.5 615,-389.5 615,-389.5 615,-377.5 615,-377.5 615,-371.5 621,-365.5 627,-365.5"/>
<text text-anchor="middle" x="642" y="-379.8" font-family="Times,serif" font-size="14.00">=</text>
</g>
<!-- node0x62a30ed206b0&#45;&gt;node0x62a30ed206e0 -->
<g id="edge56" class="edge">
<title>node0x62a30ed206b0&#45;&gt;node0x62a30ed206e0</title>
<path fill="none" stroke="#5f5b6a" d="M550,-439.39C566.47,-429.56 587.73,-416.88 605.66,-406.18"/>
<polygon fill="#5f5b6a" stroke="#5f5b6a" points="607.9,-408.92 614.69,-400.79 604.31,-402.91 607.9,-408.92"/>
</g>
<!-- node0x62a30ed20710 -->
<g id="node58" class="node">
<title>node0x62a30ed20710</title>
<path fill="#98f5e1" stroke="#5f5b6a" d="M627,-292.5C627,-292.5 657,-292.5 657,-292.5 663,-292.5 669,-298.5 669,-304.5 669,-304.5 669,-316.5 669,-316.5 669,-322.5 663,-328.5 657,-328.5 657,-328.5 627,-328.5 627,-328.5 621,-328.5 615,-322.5 615,-316.5 615,-316.5 615,-304.5 615,-304.5 615,-298.5 621,-292.5 627,-292.5"/>
<text text-anchor="middle" x="642" y="-306.8" font-family="Times,serif" font-size="14.00">1</text>
</g>
<!-- node0x62a30ed206e0&#45;&gt;node0x62a30ed20710 -->
<g id="edge57" class="edge">
<title>node0x62a30ed206e0&#45;&gt;node0x62a30ed20710</title>
<path fill="none" stroke="#5f5b6a" d="M642,-365.31C642,-357.29 642,-347.55 642,-338.57"/>
<polygon fill="#5f5b6a" stroke="#5f5b6a" points="645.5,-338.53 642,-328.53 638.5,-338.53 645.5,-338.53"/>
</g>
<!-- node0x62a30ed20740 -->
<g id="node59" class="node">
<title>node0x62a30ed20740</title>
<path fill="#cfbaf0" stroke="#5f5b6a" d="M699,-292.5C699,-292.5 729,-292.5 729,-292.5 735,-292.5 741,-298.5 741,-304.5 741,-304.5 741,-316.5 741,-316.5 741,-322.5 735,-328.5 729,-328.5 729,-328.5 699,-328.5 699,-328.5 693,-328.5 687,-322.5 687,-316.5 687,-316.5 687,-304.5 687,-304.5 687,-298.5 693,-292.5 699,-292.5"/>
<text text-anchor="middle" x="714" y="-306.8" font-family="Times,serif" font-size="14.00">+</text>
</g>
<!-- node0x62a30ed206e0&#45;&gt;node0x62a30ed20740 -->
<g id="edge58" class="edge">
<title>node0x62a30ed206e0&#45;&gt;node0x62a30ed20740</title>
<path fill="none" stroke="#5f5b6a" d="M659.43,-365.31C668.45,-356.42 679.61,-345.41 689.49,-335.67"/>
<polygon fill="#5f5b6a" stroke="#5f5b6a" points="692.07,-338.04 696.73,-328.53 687.15,-333.06 692.07,-338.04"/>
</g>
<!-- node0x62a30ed20770 -->
<g id="node60" class="node">
<title>node0x62a30ed20770</title>
<path fill="#98f5e1" stroke="#5f5b6a" d="M681,-219.5C681,-219.5 711,-219.5 711,-219.5 717,-219.5 723,-225.5 723,-231.5 723,-231.5 723,-243.5 723,-243.5 723,-249.5 717,-255.5 711,-255.5 711,-255.5 681,-255.5 681,-255.5 675,-255.5 669,-249.5 669,-243.5 669,-243.5 669,-231.5 669,-231.5 669,-225.5 675,-219.5 681,-219.5"/>
<text text-anchor="middle" x="696" y="-233.8" font-family="Times,serif" font-size="14.00">1</text>
</g>
<!-- node0x62a30ed20740&#45;&gt;node0x62a30ed20770 -->
<g id="edge59" class="edge">
<title>node0x62a30ed20740&#45;&gt;node0x62a30ed20770</title>
<path fill="none" stroke="#5f5b6a" d="M709.64,-292.31C707.59,-284.2 705.09,-274.34 702.79,-265.28"/>
<polygon fill="#5f5b6a" stroke="#5f5b6a" points="706.17,-264.36 700.32,-255.53 699.38,-266.08 706.17,-264.36"/>
</g>
<!-- node0x62a30ed207a0 -->
<g id="node61" class="node">
<title>node0x62a30ed207a0</title>
<path fill="#8eecf5" stroke="#5f5b6a" d="M753,-219.5C753,-219.5 783,-219.5 783,-219.5 789,-219.5 795,-225.5 795,-231.5 795,-231.5 795,-243.5 795,-243.5 795,-249.5 789,-255.5 783,-255.5 783,-255.5 753,-255.5 753,-255.5 747,-255.5 741,-249.5 741,-243.5 741,-243.5 741,-231.5 741,-231.5 741,-225.5 747,-219.5 753,-219.5"/>
<text text-anchor="middle" x="768" y="-233.8" font-family="Times,serif" font-size="14.00">1.00</text>
</g>
<!-- node0x62a30ed20740&#45;&gt;node0x62a30ed207a0 -->
<g id="edge60" class="edge">
<title>node0x62a30ed20740&#45;&gt;node0x62a30ed207a0</title>
<path fill="none" stroke="#5f5b6a" d="M727.07,-292.31C733.64,-283.68 741.72,-273.06 748.96,-263.53"/>
<polygon fill="#5f5b6a" stroke="#5f5b6a" points="751.78,-265.61 755.05,-255.53 746.21,-261.37 751.78,-265.61"/>
</g>
<!-- node0x62a30ed20800 -->
<g id="node63" class="node">
<title>node0x62a30ed20800</title>
<path fill="#f1c0e8" stroke="#5f5b6a" d="M442,-730.5C442,-730.5 472,-730.5 472,-730.5 478,-730.5 484,-736.5 484,-742.5 484,-742.5 484,-754.5 484,-754.5 484,-760.5 478,-766.5 472,-766.5 472,-766.5 442,-766.5 442,-766.5 436,-766.5 430,-760.5 430,-754.5 430,-754.5 430,-742.5 430,-742.5 430,-736.5 436,-730.5 442,-730.5"/>
<text text-anchor="middle" x="457" y="-744.8" font-family="Times,serif" font-size="14.00">if</text>
</g>
<!-- node0x62a30ed207d0&#45;&gt;node0x62a30ed20800 -->
<g id="edge62" class="edge">
<title>node0x62a30ed207d0&#45;&gt;node0x62a30ed20800</title>
<path fill="none" stroke="#5f5b6a" d="M416.83,-803.31C423.21,-794.77 431.05,-784.27 438.1,-774.82"/>
<polygon fill="#5f5b6a" stroke="#5f5b6a" points="441.11,-776.64 444.29,-766.53 435.5,-772.45 441.11,-776.64"/>
</g>
<!-- node0x62a30ed20830 -->
<g id="node64" class="node">
<title>node0x62a30ed20830</title>
<path fill="#ffcfd2" stroke="#5f5b6a" d="M536,-657.5C536,-657.5 568,-657.5 568,-657.5 574,-657.5 580,-663.5 580,-669.5 580,-669.5 580,-681.5 580,-681.5 580,-687.5 574,-693.5 568,-693.5 568,-693.5 536,-693.5 536,-693.5 530,-693.5 524,-687.5 524,-681.5 524,-681.5 524,-669.5 524,-669.5 524,-663.5 530,-657.5 536,-657.5"/>
<text text-anchor="middle" x="552" y="-671.8" font-family="Times,serif" font-size="14.00">no op</text>
</g>
<!-- node0x62a30ed20800&#45;&gt;node0x62a30ed20830 -->
<g id="edge63" class="edge">
<title>node0x62a30ed20800&#45;&gt;node0x62a30ed20830</title>
<path fill="none" stroke="#5f5b6a" d="M480,-730.31C492.37,-721.07 507.79,-709.54 521.18,-699.53"/>
<polygon fill="#5f5b6a" stroke="#5f5b6a" points="523.3,-702.32 529.21,-693.53 519.11,-696.71 523.3,-702.32"/>
</g>
<!-- node0x62a30ed20860 -->
<g id="node65" class="node">
<title>node0x62a30ed20860</title>
<path fill="#cfbaf0" stroke="#5f5b6a" d="M537,-584.5C537,-584.5 567,-584.5 567,-584.5 573,-584.5 579,-590.5 579,-596.5 579,-596.5 579,-608.5 579,-608.5 579,-614.5 573,-620.5 567,-620.5 567,-620.5 537,-620.5 537,-620.5 531,-620.5 525,-614.5 525,-608.5 525,-608.5 525,-596.5 525,-596.5 525,-590.5 531,-584.5 537,-584.5"/>
<text text-anchor="middle" x="552" y="-598.8" font-family="Times,serif" font-size="14.00">==</text>
</g>
<!-- node0x62a30ed20830&#45;&gt;node0x62a30ed20860 -->
<g id="edge64" class="edge">
<title>node0x62a30ed20830&#45;&gt;node0x62a30ed20860</title>
<path fill="none" stroke="#5f5b6a" d="M552,-657.31C552,-649.29 552,-639.55 552,-630.57"/>
<polygon fill="#5f5b6a" stroke="#5f5b6a" points="555.5,-630.53 552,-620.53 548.5,-630.53 555.5,-630.53"/>
</g>
<!-- node0x62a30ed208f0 -->
<g id="node68" class="node">
<title>node0x62a30ed208f0</title>
<path fill="#ffcfd2" stroke="#5f5b6a" d="M662,-584.5C662,-584.5 692,-584.5 692,-584.5 698,-584.5 704,-590.5 704,-596.5 704,-596.5 704,-608.5 704,-608.5 704,-614.5 698,-620.5 692,-620.5 692,-620.5 662,-620.5 662,-620.5 656,-620.5 650,-614.5 650,-608.5 650,-608.5 650,-596.5 650,-596.5 650,-590.5 656,-584.5 662,-584.5"/>
<text text-anchor="middle" x="677" y="-598.8" font-family="Times,serif" font-size="14.00">;</text>
</g>
<!-- node0x62a30ed20830&#45;&gt;node0x62a30ed208f0 -->
<g id="edge67" class="edge">
<title>node0x62a30ed20830&#45;&gt;node0x62a30ed208f0</title>
<path fill="none" stroke="#5f5b6a" d="M580.05,-658.57C598.07,-648.33 621.65,-634.94 641.04,-623.92"/>
<polygon fill="#5f5b6a" stroke="#5f5b6a" points="642.93,-626.88 649.9,-618.89 639.48,-620.79 642.93,-626.88"/>
</g>
<!-- node0x62a30ed20890 -->
<g id="node66" class="node">
<title>node0x62a30ed20890</title>
<path fill="#98f5e1" stroke="#5f5b6a" d="M496,-511.5C496,-511.5 526,-511.5 526,-511.5 532,-511.5 538,-517.5 538,-523.5 538,-523.5 538,-535.5 538,-535.5 538,-541.5 532,-547.5 526,-547.5 526,-547.5 496,-547.5 496,-547.5 490,-547.5 484,-541.5 484,-535.5 484,-535.5 484,-523.5 484,-523.5 484,-517.5 490,-511.5 496,-511.5"/>
<text text-anchor="middle" x="511" y="-525.8" font-family="Times,serif" font-size="14.00">2</text>
</g>
<!-- node0x62a30ed20860&#45;&gt;node0x62a30ed20890 -->
<g id="edge65" class="edge">
<title>node0x62a30ed20860&#45;&gt;node0x62a30ed20890</title>
<path fill="none" stroke="#5f5b6a" d="M542.08,-584.31C537.24,-575.94 531.33,-565.7 525.96,-556.4"/>
<polygon fill="#5f5b6a" stroke="#5f5b6a" points="528.87,-554.44 520.83,-547.53 522.8,-557.94 528.87,-554.44"/>
</g>
<!-- node0x62a30ed208c0 -->
<g id="node67" class="node">
<title>node0x62a30ed208c0</title>
<path fill="#8eecf5" stroke="#5f5b6a" d="M568.5,-511.5C568.5,-511.5 619.5,-511.5 619.5,-511.5 625.5,-511.5 631.5,-517.5 631.5,-523.5 631.5,-523.5 631.5,-535.5 631.5,-535.5 631.5,-541.5 625.5,-547.5 619.5,-547.5 619.5,-547.5 568.5,-547.5 568.5,-547.5 562.5,-547.5 556.5,-541.5 556.5,-535.5 556.5,-535.5 556.5,-523.5 556.5,-523.5 556.5,-517.5 562.5,-511.5 568.5,-511.5"/>
<text text-anchor="middle" x="594" y="-525.8" font-family="Times,serif" font-size="14.00">5040.00</text>
</g>
<!-- node0x62a30ed20860&#45;&gt;node0x62a30ed208c0 -->
<g id="edge66" class="edge">
<title>node0x62a30ed20860&#45;&gt;node0x62a30ed208c0</title>
<path fill="none" stroke="#5f5b6a" d="M562.17,-584.31C567.12,-575.94 573.18,-565.7 578.68,-556.4"/>
<polygon fill="#5f5b6a" stroke="#5f5b6a" points="581.85,-557.92 583.93,-547.53 575.82,-554.35 581.85,-557.92"/>
</g>
<!-- node0x62a30ed20920 -->
<g id="node69" class="node">
<title>node0x62a30ed20920</title>
<path fill="#cfbaf0" stroke="#5f5b6a" d="M662,-511.5C662,-511.5 692,-511.5 692,-511.5 698,-511.5 704,-517.5 704,-523.5 704,-523.5 704,-535.5 704,-535.5 704,-541.5 698,-547.5 692,-547.5 692,-547.5 662,-547.5 662,-547.5 656,-547.5 650,-541.5 650,-535.5 650,-535.5 650,-523.5 650,-523.5 650,-517.5 656,-511.5 662,-511.5"/>
<text text-anchor="middle" x="677" y="-525.8" font-family="Times,serif" font-size="14.00">=</text>
</g>
<!-- node0x62a30ed208f0&#45;&gt;node0x62a30ed20920 -->
<g id="edge68" class="edge">
<title>node0x62a30ed208f0&#45;&gt;node0x62a30ed20920</title>
<path fill="none" stroke="#5f5b6a" d="M677,-584.31C677,-576.29 677,-566.55 677,-557.57"/>
<polygon fill="#5f5b6a" stroke="#5f5b6a" points="680.5,-557.53 677,-547.53 673.5,-557.53 680.5,-557.53"/>
</g>
<!-- node0x62a30ed209b0 -->
<g id="node72" class="node">
<title>node0x62a30ed209b0</title>
<path fill="#ffcfd2" stroke="#5f5b6a" d="M737,-511.5C737,-511.5 767,-511.5 767,-511.5 773,-511.5 779,-517.5 779,-523.5 779,-523.5 779,-535.5 779,-535.5 779,-541.5 773,-547.5 767,-547.5 767,-547.5 737,-547.5 737,-547.5 731,-547.5 725,-541.5 725,-535.5 725,-535.5 725,-523.5 725,-523.5 725,-517.5 731,-511.5 737,-511.5"/>
<text text-anchor="middle" x="752" y="-525.8" font-family="Times,serif" font-size="14.00">;</text>
</g>
<!-- node0x62a30ed208f0&#45;&gt;node0x62a30ed209b0 -->
<g id="edge71" class="edge">
<title>node0x62a30ed208f0&#45;&gt;node0x62a30ed209b0</title>
<path fill="none" stroke="#5f5b6a" d="M695.16,-584.31C704.55,-575.42 716.18,-564.41 726.47,-554.67"/>
<polygon fill="#5f5b6a" stroke="#5f5b6a" points="729.16,-556.95 734.01,-547.53 724.34,-551.86 729.16,-556.95"/>
</g>
<!-- node0x62a30ed20950 -->
<g id="node70" class="node">
<title>node0x62a30ed20950</title>
<path fill="#98f5e1" stroke="#5f5b6a" d="M584,-438.5C584,-438.5 614,-438.5 614,-438.5 620,-438.5 626,-444.5 626,-450.5 626,-450.5 626,-462.5 626,-462.5 626,-468.5 620,-474.5 614,-474.5 614,-474.5 584,-474.5 584,-474.5 578,-474.5 572,-468.5 572,-462.5 572,-462.5 572,-450.5 572,-450.5 572,-444.5 578,-438.5 584,-438.5"/>
<text text-anchor="middle" x="599" y="-452.8" font-family="Times,serif" font-size="14.00">4</text>
</g>
<!-- node0x62a30ed20920&#45;&gt;node0x62a30ed20950 -->
<g id="edge69" class="edge">
<title>node0x62a30ed20920&#45;&gt;node0x62a30ed20950</title>
<path fill="none" stroke="#5f5b6a" d="M658.12,-511.31C648.25,-502.33 636.02,-491.19 625.24,-481.39"/>
<polygon fill="#5f5b6a" stroke="#5f5b6a" points="627.46,-478.67 617.71,-474.53 622.75,-483.85 627.46,-478.67"/>
</g>
<!-- node0x62a30ed20980 -->
<g id="node71" class="node">
<title>node0x62a30ed20980</title>
<path fill="#8eecf5" stroke="#5f5b6a" d="M656,-438.5C656,-438.5 698,-438.5 698,-438.5 704,-438.5 710,-444.5 710,-450.5 710,-450.5 710,-462.5 710,-462.5 710,-468.5 704,-474.5 698,-474.5 698,-474.5 656,-474.5 656,-474.5 650,-474.5 644,-468.5 644,-462.5 644,-462.5 644,-450.5 644,-450.5 644,-444.5 650,-438.5 656,-438.5"/>
<text text-anchor="middle" x="677" y="-452.8" font-family="Times,serif" font-size="14.00">111.00</text>
</g>
<!-- node0x62a30ed20920&#45;&gt;node0x62a30ed20980 -->
<g id="edge70" class="edge">
<title>node0x62a30ed20920&#45;&gt;node0x62a30ed20980</title>
<path fill="none" stroke="#5f5b6a" d="M677,-511.31C677,-503.29 677,-493.55 677,-484.57"/>
<polygon fill="#5f5b6a" stroke="#5f5b6a" points="680.5,-484.53 677,-474.53 673.5,-484.53 680.5,-484.53"/>
</g>
<!-- node0x62a30ed209e0 -->
<g id="node73" class="node">
<title>node0x62a30ed209e0</title>
<path fill="#a3c4f3" stroke="#5f5b6a" d="M740,-438.5C740,-438.5 770,-438.5 770,-438.5 776,-438.5 782,-444.5 782,-450.5 782,-450.5 782,-462.5 782,-462.5 782,-468.5 776,-474.5 770,-474.5 770,-474.5 740,-474.5 740,-474.5 734,-474.5 728,-468.5 728,-462.5 728,-462.5 728,-450.5 728,-450.5 728,-444.5 734,-438.5 740,-438.5"/>
<text text-anchor="middle" x="755" y="-452.8" font-family="Times,serif" font-size="14.00">print</text>
</g>
<!-- node0x62a30ed209b0&#45;&gt;node0x62a30ed209e0 -->
<g id="edge72" class="edge">
<title>node0x62a30ed209b0&#45;&gt;node0x62a30ed209e0</title>
<path fill="none" stroke="#5f5b6a" d="M752.73,-511.31C753.07,-503.29 753.48,-493.55 753.86,-484.57"/>
<polygon fill="#5f5b6a" stroke="#5f5b6a" points="757.36,-484.67 754.28,-474.53 750.36,-484.37 757.36,-484.67"/>
</g>
<!-- node0x62a30ed20a10 -->
<g id="node74" class="node">
<title>node0x62a30ed20a10</title>
<path fill="#89fbc0" stroke="#5f5b6a" d="M740,-365.5C740,-365.5 770,-365.5 770,-365.5 776,-365.5 782,-371.5 782,-377.5 782,-377.5 782,-389.5 782,-389.5 782,-395.5 776,-401.5 770,-401.5 770,-401.5 740,-401.5 740,-401.5 734,-401.5 728,-395.5 728,-389.5 728,-389.5 728,-377.5 728,-377.5 728,-371.5 734,-365.5 740,-365.5"/>
<text text-anchor="middle" x="755" y="-379.8" font-family="Times,serif" font-size="14.00">4</text>
</g>
<!-- node0x62a30ed209e0&#45;&gt;node0x62a30ed20a10 -->
<g id="edge73" class="edge">
<title>node0x62a30ed209e0&#45;&gt;node0x62a30ed20a10</title>
<path fill="none" stroke="#5f5b6a" d="M755,-438.31C755,-430.29 755,-420.55 755,-411.57"/>
<polygon fill="#5f5b6a" stroke="#5f5b6a" points="758.5,-411.53 755,-401.53 751.5,-411.53 758.5,-411.53"/>
</g>
</g>
</svg>
