<?xml version="1.0" encoding="UTF-8" standalone="no"?>
<!DOCTYPE svg PUBLIC "-//W3C//DTD SVG 1.1//EN"
 "http://www.w3.org/Graphics/SVG/1.1/DTD/svg11.dtd">
<!-- Generated by graphviz version 2.43.0 (0)
 -->
<!-- Title: Tree Pages: 1 -->
<svg width="782pt" height="1359pt"
 viewBox="0.00 0.00 782.00 1359.00" xmlns="http://www.w3.org/2000/svg" xmlns:xlink="http://www.w3.org/1999/xlink">
<g id="graph0" class="graph" transform="scale(1 1) rotate(0) translate(4 1355)">
<title>Tree</title>
<polygon fill="#fffeec" stroke="transparent" points="-4,4 -4,-1355 778,-1355 778,4 -4,4"/>
<!-- node0x55b1719d59b0 -->
<g id="node1" class="node">
<title>node0x55b1719d59b0</title>
<path fill="#ffcfd2" stroke="#5f5b6a" d="M48,-1314.5C48,-1314.5 78,-1314.5 78,-1314.5 84,-1314.5 90,-1320.5 90,-1326.5 90,-1326.5 90,-1338.5 90,-1338.5 90,-1344.5 84,-1350.5 78,-1350.5 78,-1350.5 48,-1350.5 48,-1350.5 42,-1350.5 36,-1344.5 36,-1338.5 36,-1338.5 36,-1326.5 36,-1326.5 36,-1320.5 42,-1314.5 48,-1314.5"/>
<text text-anchor="middle" x="63" y="-1328.8" font-family="Times,serif" font-size="14.00">;</text>
</g>
<!-- node0x55b1719d59e0 -->
<g id="node2" class="node">
<title>node0x55b1719d59e0</title>
<path fill="#a3c4f3" stroke="#5f5b6a" d="M12,-1241.5C12,-1241.5 42,-1241.5 42,-1241.5 48,-1241.5 54,-1247.5 54,-1253.5 54,-1253.5 54,-1265.5 54,-1265.5 54,-1271.5 48,-1277.5 42,-1277.5 42,-1277.5 12,-1277.5 12,-1277.5 6,-1277.5 0,-1271.5 0,-1265.5 0,-1265.5 0,-1253.5 0,-1253.5 0,-1247.5 6,-1241.5 12,-1241.5"/>
<text text-anchor="middle" x="27" y="-1255.8" font-family="Times,serif" font-size="14.00">input</text>
</g>
<!-- node0x55b1719d59b0&#45;&gt;node0x55b1719d59e0 -->
<g id="edge1" class="edge">
<title>node0x55b1719d59b0&#45;&gt;node0x55b1719d59e0</title>
<path fill="none" stroke="#5f5b6a" d="M54.29,-1314.31C50.08,-1306.03 44.95,-1295.91 40.28,-1286.69"/>
<polygon fill="#5f5b6a" stroke="#5f5b6a" points="43.28,-1284.87 35.63,-1277.53 37.04,-1288.03 43.28,-1284.87"/>
</g>
<!-- node0x55b1719d5a40 -->
<g id="node4" class="node">
<title>node0x55b1719d5a40</title>
<path fill="#ffcfd2" stroke="#5f5b6a" d="M84,-1241.5C84,-1241.5 114,-1241.5 114,-1241.5 120,-1241.5 126,-1247.5 126,-1253.5 126,-1253.5 126,-1265.5 126,-1265.5 126,-1271.5 120,-1277.5 114,-1277.5 114,-1277.5 84,-1277.5 84,-1277.5 78,-1277.5 72,-1271.5 72,-1265.5 72,-1265.5 72,-1253.5 72,-1253.5 72,-1247.5 78,-1241.5 84,-1241.5"/>
<text text-anchor="middle" x="99" y="-1255.8" font-family="Times,serif" font-size="14.00">;</text>
</g>
<!-- node0x55b1719d59b0&#45;&gt;node0x55b1719d5a40 -->
<g id="edge3" class="edge">
<title>node0x55b1719d59b0&#45;&gt;node0x55b1719d5a40</title>
<path fill="none" stroke="#5f5b6a" d="M71.71,-1314.31C75.92,-1306.03 81.05,-1295.91 85.72,-1286.69"/>
<polygon fill="#5f5b6a" stroke="#5f5b6a" points="88.96,-1288.03 90.37,-1277.53 82.72,-1284.87 88.96,-1288.03"/>
</g>
<!-- node0x55b1719d5a10 -->
<g id="node3" class="node">
<title>node0x55b1719d5a10</title>
<path fill="#89fbc0" stroke="#5f5b6a" d="M12,-1168.5C12,-1168.5 42,-1168.5 42,-1168.5 48,-1168.5 54,-1174.5 54,-1180.5 54,-1180.5 54,-1192.5 54,-1192.5 54,-1198.5 48,-1204.5 42,-1204.5 42,-1204.5 12,-1204.5 12,-1204.5 6,-1204.5 0,-1198.5 0,-1192.5 0,-1192.5 0,-1180.5 0,-1180.5 0,-1174.5 6,-1168.5 12,-1168.5"/>
<text text-anchor="middle" x="27" y="-1182.8" font-family="Times,serif" font-size="14.00">0</text>
</g>
<!-- node0x55b1719d59e0&#45;&gt;node0x55b1719d5a10 -->
<g id="edge2" class="edge">
<title>node0x55b1719d59e0&#45;&gt;node0x55b1719d5a10</title>
<path fill="none" stroke="#5f5b6a" d="M27,-1241.31C27,-1233.29 27,-1223.55 27,-1214.57"/>
<polygon fill="#5f5b6a" stroke="#5f5b6a" points="30.5,-1214.53 27,-1204.53 23.5,-1214.53 30.5,-1214.53"/>
</g>
<!-- node0x55b1719d5a70 -->
<g id="node5" class="node">
<title>node0x55b1719d5a70</title>
<path fill="#a3c4f3" stroke="#5f5b6a" d="M84,-1168.5C84,-1168.5 114,-1168.5 114,-1168.5 120,-1168.5 126,-1174.5 126,-1180.5 126,-1180.5 126,-1192.5 126,-1192.5 126,-1198.5 120,-1204.5 114,-1204.5 114,-1204.5 84,-1204.5 84,-1204.5 78,-1204.5 72,-1198.5 72,-1192.5 72,-1192.5 72,-1180.5 72,-1180.5 72,-1174.5 78,-1168.5 84,-1168.5"/>
<text text-anchor="middle" x="99" y="-1182.8" font-family="Times,serif" font-size="14.00">input</text>
</g>
<!-- node0x55b1719d5a40&#45;&gt;node0x55b1719d5a70 -->
<g id="edge4" class="edge">
<title>node0x55b1719d5a40&#45;&gt;node0x55b1719d5a70</title>
<path fill="none" stroke="#5f5b6a" d="M99,-1241.31C99,-1233.29 99,-1223.55 99,-1214.57"/>
<polygon fill="#5f5b6a" stroke="#5f5b6a" points="102.5,-1214.53 99,-1204.53 95.5,-1214.53 102.5,-1214.53"/>
</g>
<!-- node0x55b1719d5ad0 -->
<g id="node7" class="node">
<title>node0x55b1719d5ad0</title>
<path fill="#ffcfd2" stroke="#5f5b6a" d="M156,-1168.5C156,-1168.5 186,-1168.5 186,-1168.5 192,-1168.5 198,-1174.5 198,-1180.5 198,-1180.5 198,-1192.5 198,-1192.5 198,-1198.5 192,-1204.5 186,-1204.5 186,-1204.5 156,-1204.5 156,-1204.5 150,-1204.5 144,-1198.5 144,-1192.5 144,-1192.5 144,-1180.5 144,-1180.5 144,-1174.5 150,-1168.5 156,-1168.5"/>
<text text-anchor="middle" x="171" y="-1182.8" font-family="Times,serif" font-size="14.00">;</text>
</g>
<!-- node0x55b1719d5a40&#45;&gt;node0x55b1719d5ad0 -->
<g id="edge6" class="edge">
<title>node0x55b1719d5a40&#45;&gt;node0x55b1719d5ad0</title>
<path fill="none" stroke="#5f5b6a" d="M116.43,-1241.31C125.45,-1232.42 136.61,-1221.41 146.49,-1211.67"/>
<polygon fill="#5f5b6a" stroke="#5f5b6a" points="149.07,-1214.04 153.73,-1204.53 144.15,-1209.06 149.07,-1214.04"/>
</g>
<!-- node0x55b1719d5aa0 -->
<g id="node6" class="node">
<title>node0x55b1719d5aa0</title>
<path fill="#89fbc0" stroke="#5f5b6a" d="M84,-1095.5C84,-1095.5 114,-1095.5 114,-1095.5 120,-1095.5 126,-1101.5 126,-1107.5 126,-1107.5 126,-1119.5 126,-1119.5 126,-1125.5 120,-1131.5 114,-1131.5 114,-1131.5 84,-1131.5 84,-1131.5 78,-1131.5 72,-1125.5 72,-1119.5 72,-1119.5 72,-1107.5 72,-1107.5 72,-1101.5 78,-1095.5 84,-1095.5"/>
<text text-anchor="middle" x="99" y="-1109.8" font-family="Times,serif" font-size="14.00">1</text>
</g>
<!-- node0x55b1719d5a70&#45;&gt;node0x55b1719d5aa0 -->
<g id="edge5" class="edge">
<title>node0x55b1719d5a70&#45;&gt;node0x55b1719d5aa0</title>
<path fill="none" stroke="#5f5b6a" d="M99,-1168.31C99,-1160.29 99,-1150.55 99,-1141.57"/>
<polygon fill="#5f5b6a" stroke="#5f5b6a" points="102.5,-1141.53 99,-1131.53 95.5,-1141.53 102.5,-1141.53"/>
</g>
<!-- node0x55b1719d5b00 -->
<g id="node8" class="node">
<title>node0x55b1719d5b00</title>
<path fill="#a3c4f3" stroke="#5f5b6a" d="M156,-1095.5C156,-1095.5 186,-1095.5 186,-1095.5 192,-1095.5 198,-1101.5 198,-1107.5 198,-1107.5 198,-1119.5 198,-1119.5 198,-1125.5 192,-1131.5 186,-1131.5 186,-1131.5 156,-1131.5 156,-1131.5 150,-1131.5 144,-1125.5 144,-1119.5 144,-1119.5 144,-1107.5 144,-1107.5 144,-1101.5 150,-1095.5 156,-1095.5"/>
<text text-anchor="middle" x="171" y="-1109.8" font-family="Times,serif" font-size="14.00">input</text>
</g>
<!-- node0x55b1719d5ad0&#45;&gt;node0x55b1719d5b00 -->
<g id="edge7" class="edge">
<title>node0x55b1719d5ad0&#45;&gt;node0x55b1719d5b00</title>
<path fill="none" stroke="#5f5b6a" d="M171,-1168.31C171,-1160.29 171,-1150.55 171,-1141.57"/>
<polygon fill="#5f5b6a" stroke="#5f5b6a" points="174.5,-1141.53 171,-1131.53 167.5,-1141.53 174.5,-1141.53"/>
</g>
<!-- node0x55b1719d5b60 -->
<g id="node10" class="node">
<title>node0x55b1719d5b60</title>
<path fill="#ffcfd2" stroke="#5f5b6a" d="M228,-1095.5C228,-1095.5 258,-1095.5 258,-1095.5 264,-1095.5 270,-1101.5 270,-1107.5 270,-1107.5 270,-1119.5 270,-1119.5 270,-1125.5 264,-1131.5 258,-1131.5 258,-1131.5 228,-1131.5 228,-1131.5 222,-1131.5 216,-1125.5 216,-1119.5 216,-1119.5 216,-1107.5 216,-1107.5 216,-1101.5 222,-1095.5 228,-1095.5"/>
<text text-anchor="middle" x="243" y="-1109.8" font-family="Times,serif" font-size="14.00">;</text>
</g>
<!-- node0x55b1719d5ad0&#45;&gt;node0x55b1719d5b60 -->
<g id="edge9" class="edge">
<title>node0x55b1719d5ad0&#45;&gt;node0x55b1719d5b60</title>
<path fill="none" stroke="#5f5b6a" d="M188.43,-1168.31C197.45,-1159.42 208.61,-1148.41 218.49,-1138.67"/>
<polygon fill="#5f5b6a" stroke="#5f5b6a" points="221.07,-1141.04 225.73,-1131.53 216.15,-1136.06 221.07,-1141.04"/>
</g>
<!-- node0x55b1719d5b30 -->
<g id="node9" class="node">
<title>node0x55b1719d5b30</title>
<path fill="#89fbc0" stroke="#5f5b6a" d="M156,-1022.5C156,-1022.5 186,-1022.5 186,-1022.5 192,-1022.5 198,-1028.5 198,-1034.5 198,-1034.5 198,-1046.5 198,-1046.5 198,-1052.5 192,-1058.5 186,-1058.5 186,-1058.5 156,-1058.5 156,-1058.5 150,-1058.5 144,-1052.5 144,-1046.5 144,-1046.5 144,-1034.5 144,-1034.5 144,-1028.5 150,-1022.5 156,-1022.5"/>
<text text-anchor="middle" x="171" y="-1036.8" font-family="Times,serif" font-size="14.00">2</text>
</g>
<!-- node0x55b1719d5b00&#45;&gt;node0x55b1719d5b30 -->
<g id="edge8" class="edge">
<title>node0x55b1719d5b00&#45;&gt;node0x55b1719d5b30</title>
<path fill="none" stroke="#5f5b6a" d="M171,-1095.31C171,-1087.29 171,-1077.55 171,-1068.57"/>
<polygon fill="#5f5b6a" stroke="#5f5b6a" points="174.5,-1068.53 171,-1058.53 167.5,-1068.53 174.5,-1068.53"/>
</g>
<!-- node0x55b1719d5b90 -->
<g id="node11" class="node">
<title>node0x55b1719d5b90</title>
<path fill="#cfbaf0" stroke="#5f5b6a" d="M228,-1022.5C228,-1022.5 258,-1022.5 258,-1022.5 264,-1022.5 270,-1028.5 270,-1034.5 270,-1034.5 270,-1046.5 270,-1046.5 270,-1052.5 264,-1058.5 258,-1058.5 258,-1058.5 228,-1058.5 228,-1058.5 222,-1058.5 216,-1052.5 216,-1046.5 216,-1046.5 216,-1034.5 216,-1034.5 216,-1028.5 222,-1022.5 228,-1022.5"/>
<text text-anchor="middle" x="243" y="-1036.8" font-family="Times,serif" font-size="14.00">=</text>
</g>
<!-- node0x55b1719d5b60&#45;&gt;node0x55b1719d5b90 -->
<g id="edge10" class="edge">
<title>node0x55b1719d5b60&#45;&gt;node0x55b1719d5b90</title>
<path fill="none" stroke="#5f5b6a" d="M243,-1095.31C243,-1087.29 243,-1077.55 243,-1068.57"/>
<polygon fill="#5f5b6a" stroke="#5f5b6a" points="246.5,-1068.53 243,-1058.53 239.5,-1068.53 246.5,-1068.53"/>
</g>
<!-- node0x55b1719d5c20 -->
<g id="node14" class="node">
<title>node0x55b1719d5c20</title>
<path fill="#ffcfd2" stroke="#5f5b6a" d="M300,-1022.5C300,-1022.5 330,-1022.5 330,-1022.5 336,-1022.5 342,-1028.5 342,-1034.5 342,-1034.5 342,-1046.5 342,-1046.5 342,-1052.5 336,-1058.5 330,-1058.5 330,-1058.5 300,-1058.5 300,-1058.5 294,-1058.5 288,-1052.5 288,-1046.5 288,-1046.5 288,-1034.5 288,-1034.5 288,-1028.5 294,-1022.5 300,-1022.5"/>
<text text-anchor="middle" x="315" y="-1036.8" font-family="Times,serif" font-size="14.00">;</text>
</g>
<!-- node0x55b1719d5b60&#45;&gt;node0x55b1719d5c20 -->
<g id="edge13" class="edge">
<title>node0x55b1719d5b60&#45;&gt;node0x55b1719d5c20</title>
<path fill="none" stroke="#5f5b6a" d="M260.43,-1095.31C269.45,-1086.42 280.61,-1075.41 290.49,-1065.67"/>
<polygon fill="#5f5b6a" stroke="#5f5b6a" points="293.07,-1068.04 297.73,-1058.53 288.15,-1063.06 293.07,-1068.04"/>
</g>
<!-- node0x55b1719d5bc0 -->
<g id="node12" class="node">
<title>node0x55b1719d5bc0</title>
<path fill="#98f5e1" stroke="#5f5b6a" d="M156,-949.5C156,-949.5 186,-949.5 186,-949.5 192,-949.5 198,-955.5 198,-961.5 198,-961.5 198,-973.5 198,-973.5 198,-979.5 192,-985.5 186,-985.5 186,-985.5 156,-985.5 156,-985.5 150,-985.5 144,-979.5 144,-973.5 144,-973.5 144,-961.5 144,-961.5 144,-955.5 150,-949.5 156,-949.5"/>
<text text-anchor="middle" x="171" y="-963.8" font-family="Times,serif" font-size="14.00">3</text>
</g>
<!-- node0x55b1719d5b90&#45;&gt;node0x55b1719d5bc0 -->
<g id="edge11" class="edge">
<title>node0x55b1719d5b90&#45;&gt;node0x55b1719d5bc0</title>
<path fill="none" stroke="#5f5b6a" d="M225.57,-1022.31C216.55,-1013.42 205.39,-1002.41 195.51,-992.67"/>
<polygon fill="#5f5b6a" stroke="#5f5b6a" points="197.85,-990.06 188.27,-985.53 192.93,-995.04 197.85,-990.06"/>
</g>
<!-- node0x55b1719d5bf0 -->
<g id="node13" class="node">
<title>node0x55b1719d5bf0</title>
<path fill="#8eecf5" stroke="#5f5b6a" d="M228,-949.5C228,-949.5 258,-949.5 258,-949.5 264,-949.5 270,-955.5 270,-961.5 270,-961.5 270,-973.5 270,-973.5 270,-979.5 264,-985.5 258,-985.5 258,-985.5 228,-985.5 228,-985.5 222,-985.5 216,-979.5 216,-973.5 216,-973.5 216,-961.5 216,-961.5 216,-955.5 222,-949.5 228,-949.5"/>
<text text-anchor="middle" x="243" y="-963.8" font-family="Times,serif" font-size="14.00">3.00</text>
</g>
<!-- node0x55b1719d5b90&#45;&gt;node0x55b1719d5bf0 -->
<g id="edge12" class="edge">
<title>node0x55b1719d5b90&#45;&gt;node0x55b1719d5bf0</title>
<path fill="none" stroke="#5f5b6a" d="M243,-1022.31C243,-1014.29 243,-1004.55 243,-995.57"/>
<polygon fill="#5f5b6a" stroke="#5f5b6a" points="246.5,-995.53 243,-985.53 239.5,-995.53 246.5,-995.53"/>
</g>
<!-- node0x55b1719d5c50 -->
<g id="node15" class="node">
<title>node0x55b1719d5c50</title>
<path fill="#cfbaf0" stroke="#5f5b6a" d="M300,-949.5C300,-949.5 330,-949.5 330,-949.5 336,-949.5 342,-955.5 342,-961.5 342,-961.5 342,-973.5 342,-973.5 342,-979.5 336,-985.5 330,-985.5 330,-985.5 300,-985.5 300,-985.5 294,-985.5 288,-979.5 288,-973.5 288,-973.5 288,-961.5 288,-961.5 288,-955.5 294,-949.5 300,-949.5"/>
<text text-anchor="middle" x="315" y="-963.8" font-family="Times,serif" font-size="14.00">=</text>
</g>
<!-- node0x55b1719d5c20&#45;&gt;node0x55b1719d5c50 -->
<g id="edge14" class="edge">
<title>node0x55b1719d5c20&#45;&gt;node0x55b1719d5c50</title>
<path fill="none" stroke="#5f5b6a" d="M315,-1022.31C315,-1014.29 315,-1004.55 315,-995.57"/>
<polygon fill="#5f5b6a" stroke="#5f5b6a" points="318.5,-995.53 315,-985.53 311.5,-995.53 318.5,-995.53"/>
</g>
<!-- node0x55b1719d5ce0 -->
<g id="node18" class="node">
<title>node0x55b1719d5ce0</title>
<path fill="#ffcfd2" stroke="#5f5b6a" d="M372,-949.5C372,-949.5 402,-949.5 402,-949.5 408,-949.5 414,-955.5 414,-961.5 414,-961.5 414,-973.5 414,-973.5 414,-979.5 408,-985.5 402,-985.5 402,-985.5 372,-985.5 372,-985.5 366,-985.5 360,-979.5 360,-973.5 360,-973.5 360,-961.5 360,-961.5 360,-955.5 366,-949.5 372,-949.5"/>
<text text-anchor="middle" x="387" y="-963.8" font-family="Times,serif" font-size="14.00">;</text>
</g>
<!-- node0x55b1719d5c20&#45;&gt;node0x55b1719d5ce0 -->
<g id="edge17" class="edge">
<title>node0x55b1719d5c20&#45;&gt;node0x55b1719d5ce0</title>
<path fill="none" stroke="#5f5b6a" d="M332.43,-1022.31C341.45,-1013.42 352.61,-1002.41 362.49,-992.67"/>
<polygon fill="#5f5b6a" stroke="#5f5b6a" points="365.07,-995.04 369.73,-985.53 360.15,-990.06 365.07,-995.04"/>
</g>
<!-- node0x55b1719d5c80 -->
<g id="node16" class="node">
<title>node0x55b1719d5c80</title>
<path fill="#98f5e1" stroke="#5f5b6a" d="M228,-876.5C228,-876.5 258,-876.5 258,-876.5 264,-876.5 270,-882.5 270,-888.5 270,-888.5 270,-900.5 270,-900.5 270,-906.5 264,-912.5 258,-912.5 258,-912.5 228,-912.5 228,-912.5 222,-912.5 216,-906.5 216,-900.5 216,-900.5 216,-888.5 216,-888.5 216,-882.5 222,-876.5 228,-876.5"/>
<text text-anchor="middle" x="243" y="-890.8" font-family="Times,serif" font-size="14.00">4</text>
</g>
<!-- node0x55b1719d5c50&#45;&gt;node0x55b1719d5c80 -->
<g id="edge15" class="edge">
<title>node0x55b1719d5c50&#45;&gt;node0x55b1719d5c80</title>
<path fill="none" stroke="#5f5b6a" d="M297.57,-949.31C288.55,-940.42 277.39,-929.41 267.51,-919.67"/>
<polygon fill="#5f5b6a" stroke="#5f5b6a" points="269.85,-917.06 260.27,-912.53 264.93,-922.04 269.85,-917.06"/>
</g>
<!-- node0x55b1719d5cb0 -->
<g id="node17" class="node">
<title>node0x55b1719d5cb0</title>
<path fill="#8eecf5" stroke="#5f5b6a" d="M300,-876.5C300,-876.5 330,-876.5 330,-876.5 336,-876.5 342,-882.5 342,-888.5 342,-888.5 342,-900.5 342,-900.5 342,-906.5 336,-912.5 330,-912.5 330,-912.5 300,-912.5 300,-912.5 294,-912.5 288,-906.5 288,-900.5 288,-900.5 288,-888.5 288,-888.5 288,-882.5 294,-876.5 300,-876.5"/>
<text text-anchor="middle" x="315" y="-890.8" font-family="Times,serif" font-size="14.00">2.00</text>
</g>
<!-- node0x55b1719d5c50&#45;&gt;node0x55b1719d5cb0 -->
<g id="edge16" class="edge">
<title>node0x55b1719d5c50&#45;&gt;node0x55b1719d5cb0</title>
<path fill="none" stroke="#5f5b6a" d="M315,-949.31C315,-941.29 315,-931.55 315,-922.57"/>
<polygon fill="#5f5b6a" stroke="#5f5b6a" points="318.5,-922.53 315,-912.53 311.5,-922.53 318.5,-922.53"/>
</g>
<!-- node0x55b1719d5d10 -->
<g id="node19" class="node">
<title>node0x55b1719d5d10</title>
<path fill="#cfbaf0" stroke="#5f5b6a" d="M372,-876.5C372,-876.5 402,-876.5 402,-876.5 408,-876.5 414,-882.5 414,-888.5 414,-888.5 414,-900.5 414,-900.5 414,-906.5 408,-912.5 402,-912.5 402,-912.5 372,-912.5 372,-912.5 366,-912.5 360,-906.5 360,-900.5 360,-900.5 360,-888.5 360,-888.5 360,-882.5 366,-876.5 372,-876.5"/>
<text text-anchor="middle" x="387" y="-890.8" font-family="Times,serif" font-size="14.00">=</text>
</g>
<!-- node0x55b1719d5ce0&#45;&gt;node0x55b1719d5d10 -->
<g id="edge18" class="edge">
<title>node0x55b1719d5ce0&#45;&gt;node0x55b1719d5d10</title>
<path fill="none" stroke="#5f5b6a" d="M387,-949.31C387,-941.29 387,-931.55 387,-922.57"/>
<polygon fill="#5f5b6a" stroke="#5f5b6a" points="390.5,-922.53 387,-912.53 383.5,-922.53 390.5,-922.53"/>
</g>
<!-- node0x55b1719d5da0 -->
<g id="node22" class="node">
<title>node0x55b1719d5da0</title>
<path fill="#ffcfd2" stroke="#5f5b6a" d="M444,-876.5C444,-876.5 474,-876.5 474,-876.5 480,-876.5 486,-882.5 486,-888.5 486,-888.5 486,-900.5 486,-900.5 486,-906.5 480,-912.5 474,-912.5 474,-912.5 444,-912.5 444,-912.5 438,-912.5 432,-906.5 432,-900.5 432,-900.5 432,-888.5 432,-888.5 432,-882.5 438,-876.5 444,-876.5"/>
<text text-anchor="middle" x="459" y="-890.8" font-family="Times,serif" font-size="14.00">;</text>
</g>
<!-- node0x55b1719d5ce0&#45;&gt;node0x55b1719d5da0 -->
<g id="edge21" class="edge">
<title>node0x55b1719d5ce0&#45;&gt;node0x55b1719d5da0</title>
<path fill="none" stroke="#5f5b6a" d="M404.43,-949.31C413.45,-940.42 424.61,-929.41 434.49,-919.67"/>
<polygon fill="#5f5b6a" stroke="#5f5b6a" points="437.07,-922.04 441.73,-912.53 432.15,-917.06 437.07,-922.04"/>
</g>
<!-- node0x55b1719d5d40 -->
<g id="node20" class="node">
<title>node0x55b1719d5d40</title>
<path fill="#98f5e1" stroke="#5f5b6a" d="M300,-803.5C300,-803.5 330,-803.5 330,-803.5 336,-803.5 342,-809.5 342,-815.5 342,-815.5 342,-827.5 342,-827.5 342,-833.5 336,-839.5 330,-839.5 330,-839.5 300,-839.5 300,-839.5 294,-839.5 288,-833.5 288,-827.5 288,-827.5 288,-815.5 288,-815.5 288,-809.5 294,-803.5 300,-803.5"/>
<text text-anchor="middle" x="315" y="-817.8" font-family="Times,serif" font-size="14.00">5</text>
</g>
<!-- node0x55b1719d5d10&#45;&gt;node0x55b1719d5d40 -->
<g id="edge19" class="edge">
<title>node0x55b1719d5d10&#45;&gt;node0x55b1719d5d40</title>
<path fill="none" stroke="#5f5b6a" d="M369.57,-876.31C360.55,-867.42 349.39,-856.41 339.51,-846.67"/>
<polygon fill="#5f5b6a" stroke="#5f5b6a" points="341.85,-844.06 332.27,-839.53 336.93,-849.04 341.85,-844.06"/>
</g>
<!-- node0x55b1719d5d70 -->
<g id="node21" class="node">
<title>node0x55b1719d5d70</title>
<path fill="#8eecf5" stroke="#5f5b6a" d="M372,-803.5C372,-803.5 402,-803.5 402,-803.5 408,-803.5 414,-809.5 414,-815.5 414,-815.5 414,-827.5 414,-827.5 414,-833.5 408,-839.5 402,-839.5 402,-839.5 372,-839.5 372,-839.5 366,-839.5 360,-833.5 360,-827.5 360,-827.5 360,-815.5 360,-815.5 360,-809.5 366,-803.5 372,-803.5"/>
<text text-anchor="middle" x="387" y="-817.8" font-family="Times,serif" font-size="14.00">1.00</text>
</g>
<!-- node0x55b1719d5d10&#45;&gt;node0x55b1719d5d70 -->
<g id="edge20" class="edge">
<title>node0x55b1719d5d10&#45;&gt;node0x55b1719d5d70</title>
<path fill="none" stroke="#5f5b6a" d="M387,-876.31C387,-868.29 387,-858.55 387,-849.57"/>
<polygon fill="#5f5b6a" stroke="#5f5b6a" points="390.5,-849.53 387,-839.53 383.5,-849.53 390.5,-849.53"/>
</g>
<!-- node0x55b1719d5dd0 -->
<g id="node23" class="node">
<title>node0x55b1719d5dd0</title>
<path fill="#cfbaf0" stroke="#5f5b6a" d="M444,-803.5C444,-803.5 474,-803.5 474,-803.5 480,-803.5 486,-809.5 486,-815.5 486,-815.5 486,-827.5 486,-827.5 486,-833.5 480,-839.5 474,-839.5 474,-839.5 444,-839.5 444,-839.5 438,-839.5 432,-833.5 432,-827.5 432,-827.5 432,-815.5 432,-815.5 432,-809.5 438,-803.5 444,-803.5"/>
<text text-anchor="middle" x="459" y="-817.8" font-family="Times,serif" font-size="14.00">=</text>
</g>
<!-- node0x55b1719d5da0&#45;&gt;node0x55b1719d5dd0 -->
<g id="edge22" class="edge">
<title>node0x55b1719d5da0&#45;&gt;node0x55b1719d5dd0</title>
<path fill="none" stroke="#5f5b6a" d="M459,-876.31C459,-868.29 459,-858.55 459,-849.57"/>
<polygon fill="#5f5b6a" stroke="#5f5b6a" points="462.5,-849.53 459,-839.53 455.5,-849.53 462.5,-849.53"/>
</g>
<!-- node0x55b1719d5e60 -->
<g id="node26" class="node">
<title>node0x55b1719d5e60</title>
<path fill="#ffcfd2" stroke="#5f5b6a" d="M516,-803.5C516,-803.5 546,-803.5 546,-803.5 552,-803.5 558,-809.5 558,-815.5 558,-815.5 558,-827.5 558,-827.5 558,-833.5 552,-839.5 546,-839.5 546,-839.5 516,-839.5 516,-839.5 510,-839.5 504,-833.5 504,-827.5 504,-827.5 504,-815.5 504,-815.5 504,-809.5 510,-803.5 516,-803.5"/>
<text text-anchor="middle" x="531" y="-817.8" font-family="Times,serif" font-size="14.00">;</text>
</g>
<!-- node0x55b1719d5da0&#45;&gt;node0x55b1719d5e60 -->
<g id="edge25" class="edge">
<title>node0x55b1719d5da0&#45;&gt;node0x55b1719d5e60</title>
<path fill="none" stroke="#5f5b6a" d="M476.43,-876.31C485.45,-867.42 496.61,-856.41 506.49,-846.67"/>
<polygon fill="#5f5b6a" stroke="#5f5b6a" points="509.07,-849.04 513.73,-839.53 504.15,-844.06 509.07,-849.04"/>
</g>
<!-- node0x55b1719d5e00 -->
<g id="node24" class="node">
<title>node0x55b1719d5e00</title>
<path fill="#98f5e1" stroke="#5f5b6a" d="M372,-730.5C372,-730.5 402,-730.5 402,-730.5 408,-730.5 414,-736.5 414,-742.5 414,-742.5 414,-754.5 414,-754.5 414,-760.5 408,-766.5 402,-766.5 402,-766.5 372,-766.5 372,-766.5 366,-766.5 360,-760.5 360,-754.5 360,-754.5 360,-742.5 360,-742.5 360,-736.5 366,-730.5 372,-730.5"/>
<text text-anchor="middle" x="387" y="-744.8" font-family="Times,serif" font-size="14.00">6</text>
</g>
<!-- node0x55b1719d5dd0&#45;&gt;node0x55b1719d5e00 -->
<g id="edge23" class="edge">
<title>node0x55b1719d5dd0&#45;&gt;node0x55b1719d5e00</title>
<path fill="none" stroke="#5f5b6a" d="M441.57,-803.31C432.55,-794.42 421.39,-783.41 411.51,-773.67"/>
<polygon fill="#5f5b6a" stroke="#5f5b6a" points="413.85,-771.06 404.27,-766.53 408.93,-776.04 413.85,-771.06"/>
</g>
<!-- node0x55b1719d5e30 -->
<g id="node25" class="node">
<title>node0x55b1719d5e30</title>
<path fill="#8eecf5" stroke="#5f5b6a" d="M444,-730.5C444,-730.5 474,-730.5 474,-730.5 480,-730.5 486,-736.5 486,-742.5 486,-742.5 486,-754.5 486,-754.5 486,-760.5 480,-766.5 474,-766.5 474,-766.5 444,-766.5 444,-766.5 438,-766.5 432,-760.5 432,-754.5 432,-754.5 432,-742.5 432,-742.5 432,-736.5 438,-730.5 444,-730.5"/>
<text text-anchor="middle" x="459" y="-744.8" font-family="Times,serif" font-size="14.00">0.00</text>
</g>
<!-- node0x55b1719d5dd0&#45;&gt;node0x55b1719d5e30 -->
<g id="edge24" class="edge">
<title>node0x55b1719d5dd0&#45;&gt;node0x55b1719d5e30</title>
<path fill="none" stroke="#5f5b6a" d="M459,-803.31C459,-795.29 459,-785.55 459,-776.57"/>
<polygon fill="#5f5b6a" stroke="#5f5b6a" points="462.5,-776.53 459,-766.53 455.5,-776.53 462.5,-776.53"/>
</g>
<!-- node0x55b1719d5e90 -->
<g id="node27" class="node">
<title>node0x55b1719d5e90</title>
<path fill="#f1c0e8" stroke="#5f5b6a" d="M516,-730.5C516,-730.5 546,-730.5 546,-730.5 552,-730.5 558,-736.5 558,-742.5 558,-742.5 558,-754.5 558,-754.5 558,-760.5 552,-766.5 546,-766.5 546,-766.5 516,-766.5 516,-766.5 510,-766.5 504,-760.5 504,-754.5 504,-754.5 504,-742.5 504,-742.5 504,-736.5 510,-730.5 516,-730.5"/>
<text text-anchor="middle" x="531" y="-744.8" font-family="Times,serif" font-size="14.00">if</text>
</g>
<!-- node0x55b1719d5e60&#45;&gt;node0x55b1719d5e90 -->
<g id="edge26" class="edge">
<title>node0x55b1719d5e60&#45;&gt;node0x55b1719d5e90</title>
<path fill="none" stroke="#5f5b6a" d="M531,-803.31C531,-795.29 531,-785.55 531,-776.57"/>
<polygon fill="#5f5b6a" stroke="#5f5b6a" points="534.5,-776.53 531,-766.53 527.5,-776.53 534.5,-776.53"/>
</g>
<!-- node0x55b1719d5ec0 -->
<g id="node28" class="node">
<title>node0x55b1719d5ec0</title>
<path fill="#ffcfd2" stroke="#5f5b6a" d="M515,-657.5C515,-657.5 547,-657.5 547,-657.5 553,-657.5 559,-663.5 559,-669.5 559,-669.5 559,-681.5 559,-681.5 559,-687.5 553,-693.5 547,-693.5 547,-693.5 515,-693.5 515,-693.5 509,-693.5 503,-687.5 503,-681.5 503,-681.5 503,-669.5 503,-669.5 503,-663.5 509,-657.5 515,-657.5"/>
<text text-anchor="middle" x="531" y="-671.8" font-family="Times,serif" font-size="14.00">no op</text>
</g>
<!-- node0x55b1719d5e90&#45;&gt;node0x55b1719d5ec0 -->
<g id="edge27" class="edge">
<title>node0x55b1719d5e90&#45;&gt;node0x55b1719d5ec0</title>
<path fill="none" stroke="#5f5b6a" d="M531,-730.31C531,-722.29 531,-712.55 531,-703.57"/>
<polygon fill="#5f5b6a" stroke="#5f5b6a" points="534.5,-703.53 531,-693.53 527.5,-703.53 534.5,-703.53"/>
</g>
<!-- node0x55b1719d5ef0 -->
<g id="node29" class="node">
<title>node0x55b1719d5ef0</title>
<path fill="#cfbaf0" stroke="#5f5b6a" d="M480,-584.5C480,-584.5 510,-584.5 510,-584.5 516,-584.5 522,-590.5 522,-596.5 522,-596.5 522,-608.5 522,-608.5 522,-614.5 516,-620.5 510,-620.5 510,-620.5 480,-620.5 480,-620.5 474,-620.5 468,-614.5 468,-608.5 468,-608.5 468,-596.5 468,-596.5 468,-590.5 474,-584.5 480,-584.5"/>
<text text-anchor="middle" x="495" y="-598.8" font-family="Times,serif" font-size="14.00">==</text>
</g>
<!-- node0x55b1719d5ec0&#45;&gt;node0x55b1719d5ef0 -->
<g id="edge28" class="edge">
<title>node0x55b1719d5ec0&#45;&gt;node0x55b1719d5ef0</title>
<path fill="none" stroke="#5f5b6a" d="M522.29,-657.31C518.08,-649.03 512.95,-638.91 508.28,-629.69"/>
<polygon fill="#5f5b6a" stroke="#5f5b6a" points="511.28,-627.87 503.63,-620.53 505.04,-631.03 511.28,-627.87"/>
</g>
<!-- node0x55b1719d5f80 -->
<g id="node32" class="node">
<title>node0x55b1719d5f80</title>
<path fill="#ffcfd2" stroke="#5f5b6a" d="M552,-584.5C552,-584.5 582,-584.5 582,-584.5 588,-584.5 594,-590.5 594,-596.5 594,-596.5 594,-608.5 594,-608.5 594,-614.5 588,-620.5 582,-620.5 582,-620.5 552,-620.5 552,-620.5 546,-620.5 540,-614.5 540,-608.5 540,-608.5 540,-596.5 540,-596.5 540,-590.5 546,-584.5 552,-584.5"/>
<text text-anchor="middle" x="567" y="-598.8" font-family="Times,serif" font-size="14.00">;</text>
</g>
<!-- node0x55b1719d5ec0&#45;&gt;node0x55b1719d5f80 -->
<g id="edge31" class="edge">
<title>node0x55b1719d5ec0&#45;&gt;node0x55b1719d5f80</title>
<path fill="none" stroke="#5f5b6a" d="M539.71,-657.31C543.92,-649.03 549.05,-638.91 553.72,-629.69"/>
<polygon fill="#5f5b6a" stroke="#5f5b6a" points="556.96,-631.03 558.37,-620.53 550.72,-627.87 556.96,-631.03"/>
</g>
<!-- node0x55b1719d5f20 -->
<g id="node30" class="node">
<title>node0x55b1719d5f20</title>
<path fill="#98f5e1" stroke="#5f5b6a" d="M408,-511.5C408,-511.5 438,-511.5 438,-511.5 444,-511.5 450,-517.5 450,-523.5 450,-523.5 450,-535.5 450,-535.5 450,-541.5 444,-547.5 438,-547.5 438,-547.5 408,-547.5 408,-547.5 402,-547.5 396,-541.5 396,-535.5 396,-535.5 396,-523.5 396,-523.5 396,-517.5 402,-511.5 408,-511.5"/>
<text text-anchor="middle" x="423" y="-525.8" font-family="Times,serif" font-size="14.00">0</text>
</g>
<!-- node0x55b1719d5ef0&#45;&gt;node0x55b1719d5f20 -->
<g id="edge29" class="edge">
<title>node0x55b1719d5ef0&#45;&gt;node0x55b1719d5f20</title>
<path fill="none" stroke="#5f5b6a" d="M477.57,-584.31C468.55,-575.42 457.39,-564.41 447.51,-554.67"/>
<polygon fill="#5f5b6a" stroke="#5f5b6a" points="449.85,-552.06 440.27,-547.53 444.93,-557.04 449.85,-552.06"/>
</g>
<!-- node0x55b1719d5f50 -->
<g id="node31" class="node">
<title>node0x55b1719d5f50</title>
<path fill="#8eecf5" stroke="#5f5b6a" d="M480,-511.5C480,-511.5 510,-511.5 510,-511.5 516,-511.5 522,-517.5 522,-523.5 522,-523.5 522,-535.5 522,-535.5 522,-541.5 516,-547.5 510,-547.5 510,-547.5 480,-547.5 480,-547.5 474,-547.5 468,-541.5 468,-535.5 468,-535.5 468,-523.5 468,-523.5 468,-517.5 474,-511.5 480,-511.5"/>
<text text-anchor="middle" x="495" y="-525.8" font-family="Times,serif" font-size="14.00">0.00</text>
</g>
<!-- node0x55b1719d5ef0&#45;&gt;node0x55b1719d5f50 -->
<g id="edge30" class="edge">
<title>node0x55b1719d5ef0&#45;&gt;node0x55b1719d5f50</title>
<path fill="none" stroke="#5f5b6a" d="M495,-584.31C495,-576.29 495,-566.55 495,-557.57"/>
<polygon fill="#5f5b6a" stroke="#5f5b6a" points="498.5,-557.53 495,-547.53 491.5,-557.53 498.5,-557.53"/>
</g>
<!-- node0x55b1719d5fb0 -->
<g id="node33" class="node">
<title>node0x55b1719d5fb0</title>
<path fill="#f1c0e8" stroke="#5f5b6a" d="M552,-511.5C552,-511.5 582,-511.5 582,-511.5 588,-511.5 594,-517.5 594,-523.5 594,-523.5 594,-535.5 594,-535.5 594,-541.5 588,-547.5 582,-547.5 582,-547.5 552,-547.5 552,-547.5 546,-547.5 540,-541.5 540,-535.5 540,-535.5 540,-523.5 540,-523.5 540,-517.5 546,-511.5 552,-511.5"/>
<text text-anchor="middle" x="567" y="-525.8" font-family="Times,serif" font-size="14.00">if</text>
</g>
<!-- node0x55b1719d5f80&#45;&gt;node0x55b1719d5fb0 -->
<g id="edge32" class="edge">
<title>node0x55b1719d5f80&#45;&gt;node0x55b1719d5fb0</title>
<path fill="none" stroke="#5f5b6a" d="M567,-584.31C567,-576.29 567,-566.55 567,-557.57"/>
<polygon fill="#5f5b6a" stroke="#5f5b6a" points="570.5,-557.53 567,-547.53 563.5,-557.53 570.5,-557.53"/>
</g>
<!-- node0x55b1719d5fe0 -->
<g id="node34" class="node">
<title>node0x55b1719d5fe0</title>
<path fill="#ffcfd2" stroke="#5f5b6a" d="M514,-438.5C514,-438.5 546,-438.5 546,-438.5 552,-438.5 558,-444.5 558,-450.5 558,-450.5 558,-462.5 558,-462.5 558,-468.5 552,-474.5 546,-474.5 546,-474.5 514,-474.5 514,-474.5 508,-474.5 502,-468.5 502,-462.5 502,-462.5 502,-450.5 502,-450.5 502,-444.5 508,-438.5 514,-438.5"/>
<text text-anchor="middle" x="530" y="-452.8" font-family="Times,serif" font-size="14.00">no op</text>
</g>
<!-- node0x55b1719d5fb0&#45;&gt;node0x55b1719d5fe0 -->
<g id="edge33" class="edge">
<title>node0x55b1719d5fb0&#45;&gt;node0x55b1719d5fe0</title>
<path fill="none" stroke="#5f5b6a" d="M558.04,-511.31C553.68,-502.94 548.34,-492.7 543.5,-483.4"/>
<polygon fill="#5f5b6a" stroke="#5f5b6a" points="546.6,-481.78 538.87,-474.53 540.39,-485.01 546.6,-481.78"/>
</g>
<!-- node0x55b1719d6310 -->
<g id="node51" class="node">
<title>node0x55b1719d6310</title>
<path fill="#f1c0e8" stroke="#5f5b6a" d="M588,-438.5C588,-438.5 618,-438.5 618,-438.5 624,-438.5 630,-444.5 630,-450.5 630,-450.5 630,-462.5 630,-462.5 630,-468.5 624,-474.5 618,-474.5 618,-474.5 588,-474.5 588,-474.5 582,-474.5 576,-468.5 576,-462.5 576,-462.5 576,-450.5 576,-450.5 576,-444.5 582,-438.5 588,-438.5"/>
<text text-anchor="middle" x="603" y="-452.8" font-family="Times,serif" font-size="14.00">else</text>
</g>
<!-- node0x55b1719d5fb0&#45;&gt;node0x55b1719d6310 -->
<g id="edge50" class="edge">
<title>node0x55b1719d5fb0&#45;&gt;node0x55b1719d6310</title>
<path fill="none" stroke="#5f5b6a" d="M575.71,-511.31C579.92,-503.03 585.05,-492.91 589.72,-483.69"/>
<polygon fill="#5f5b6a" stroke="#5f5b6a" points="592.96,-485.03 594.37,-474.53 586.72,-481.87 592.96,-485.03"/>
</g>
<!-- node0x55b1719d6010 -->
<g id="node35" class="node">
<title>node0x55b1719d6010</title>
<path fill="#cfbaf0" stroke="#5f5b6a" d="M444,-365.5C444,-365.5 474,-365.5 474,-365.5 480,-365.5 486,-371.5 486,-377.5 486,-377.5 486,-389.5 486,-389.5 486,-395.5 480,-401.5 474,-401.5 474,-401.5 444,-401.5 444,-401.5 438,-401.5 432,-395.5 432,-389.5 432,-389.5 432,-377.5 432,-377.5 432,-371.5 438,-365.5 444,-365.5"/>
<text text-anchor="middle" x="459" y="-379.8" font-family="Times,serif" font-size="14.00">==</text>
</g>
<!-- node0x55b1719d5fe0&#45;&gt;node0x55b1719d6010 -->
<g id="edge34" class="edge">
<title>node0x55b1719d5fe0&#45;&gt;node0x55b1719d6010</title>
<path fill="none" stroke="#5f5b6a" d="M512.81,-438.31C503.92,-429.42 492.91,-418.41 483.17,-408.67"/>
<polygon fill="#5f5b6a" stroke="#5f5b6a" points="485.57,-406.13 476.03,-401.53 480.63,-411.07 485.57,-406.13"/>
</g>
<!-- node0x55b1719d60a0 -->
<g id="node38" class="node">
<title>node0x55b1719d60a0</title>
<path fill="#ffcfd2" stroke="#5f5b6a" d="M516,-365.5C516,-365.5 546,-365.5 546,-365.5 552,-365.5 558,-371.5 558,-377.5 558,-377.5 558,-389.5 558,-389.5 558,-395.5 552,-401.5 546,-401.5 546,-401.5 516,-401.5 516,-401.5 510,-401.5 504,-395.5 504,-389.5 504,-389.5 504,-377.5 504,-377.5 504,-371.5 510,-365.5 516,-365.5"/>
<text text-anchor="middle" x="531" y="-379.8" font-family="Times,serif" font-size="14.00">;</text>
</g>
<!-- node0x55b1719d5fe0&#45;&gt;node0x55b1719d60a0 -->
<g id="edge37" class="edge">
<title>node0x55b1719d5fe0&#45;&gt;node0x55b1719d60a0</title>
<path fill="none" stroke="#5f5b6a" d="M530.24,-438.31C530.36,-430.29 530.49,-420.55 530.62,-411.57"/>
<polygon fill="#5f5b6a" stroke="#5f5b6a" points="534.12,-411.58 530.76,-401.53 527.12,-411.48 534.12,-411.58"/>
</g>
<!-- node0x55b1719d6040 -->
<g id="node36" class="node">
<title>node0x55b1719d6040</title>
<path fill="#98f5e1" stroke="#5f5b6a" d="M372,-292.5C372,-292.5 402,-292.5 402,-292.5 408,-292.5 414,-298.5 414,-304.5 414,-304.5 414,-316.5 414,-316.5 414,-322.5 408,-328.5 402,-328.5 402,-328.5 372,-328.5 372,-328.5 366,-328.5 360,-322.5 360,-316.5 360,-316.5 360,-304.5 360,-304.5 360,-298.5 366,-292.5 372,-292.5"/>
<text text-anchor="middle" x="387" y="-306.8" font-family="Times,serif" font-size="14.00">1</text>
</g>
<!-- node0x55b1719d6010&#45;&gt;node0x55b1719d6040 -->
<g id="edge35" class="edge">
<title>node0x55b1719d6010&#45;&gt;node0x55b1719d6040</title>
<path fill="none" stroke="#5f5b6a" d="M441.57,-365.31C432.55,-356.42 421.39,-345.41 411.51,-335.67"/>
<polygon fill="#5f5b6a" stroke="#5f5b6a" points="413.85,-333.06 404.27,-328.53 408.93,-338.04 413.85,-333.06"/>
</g>
<!-- node0x55b1719d6070 -->
<g id="node37" class="node">
<title>node0x55b1719d6070</title>
<path fill="#8eecf5" stroke="#5f5b6a" d="M444,-292.5C444,-292.5 474,-292.5 474,-292.5 480,-292.5 486,-298.5 486,-304.5 486,-304.5 486,-316.5 486,-316.5 486,-322.5 480,-328.5 474,-328.5 474,-328.5 444,-328.5 444,-328.5 438,-328.5 432,-322.5 432,-316.5 432,-316.5 432,-304.5 432,-304.5 432,-298.5 438,-292.5 444,-292.5"/>
<text text-anchor="middle" x="459" y="-306.8" font-family="Times,serif" font-size="14.00">0.00</text>
</g>
<!-- node0x55b1719d6010&#45;&gt;node0x55b1719d6070 -->
<g id="edge36" class="edge">
<title>node0x55b1719d6010&#45;&gt;node0x55b1719d6070</title>
<path fill="none" stroke="#5f5b6a" d="M459,-365.31C459,-357.29 459,-347.55 459,-338.57"/>
<polygon fill="#5f5b6a" stroke="#5f5b6a" points="462.5,-338.53 459,-328.53 455.5,-338.53 462.5,-338.53"/>
</g>
<!-- node0x55b1719d60d0 -->
<g id="node39" class="node">
<title>node0x55b1719d60d0</title>
<path fill="#f1c0e8" stroke="#5f5b6a" d="M516,-292.5C516,-292.5 546,-292.5 546,-292.5 552,-292.5 558,-298.5 558,-304.5 558,-304.5 558,-316.5 558,-316.5 558,-322.5 552,-328.5 546,-328.5 546,-328.5 516,-328.5 516,-328.5 510,-328.5 504,-322.5 504,-316.5 504,-316.5 504,-304.5 504,-304.5 504,-298.5 510,-292.5 516,-292.5"/>
<text text-anchor="middle" x="531" y="-306.8" font-family="Times,serif" font-size="14.00">if</text>
</g>
<!-- node0x55b1719d60a0&#45;&gt;node0x55b1719d60d0 -->
<g id="edge38" class="edge">
<title>node0x55b1719d60a0&#45;&gt;node0x55b1719d60d0</title>
<path fill="none" stroke="#5f5b6a" d="M531,-365.31C531,-357.29 531,-347.55 531,-338.57"/>
<polygon fill="#5f5b6a" stroke="#5f5b6a" points="534.5,-338.53 531,-328.53 527.5,-338.53 534.5,-338.53"/>
</g>
<!-- node0x55b1719d6100 -->
<g id="node40" class="node">
<title>node0x55b1719d6100</title>
<path fill="#ffcfd2" stroke="#5f5b6a" d="M442,-219.5C442,-219.5 474,-219.5 474,-219.5 480,-219.5 486,-225.5 486,-231.5 486,-231.5 486,-243.5 486,-243.5 486,-249.5 480,-255.5 474,-255.5 474,-255.5 442,-255.5 442,-255.5 436,-255.5 430,-249.5 430,-243.5 430,-243.5 430,-231.5 430,-231.5 430,-225.5 436,-219.5 442,-219.5"/>
<text text-anchor="middle" x="458" y="-233.8" font-family="Times,serif" font-size="14.00">no op</text>
</g>
<!-- node0x55b1719d60d0&#45;&gt;node0x55b1719d6100 -->
<g id="edge39" class="edge">
<title>node0x55b1719d60d0&#45;&gt;node0x55b1719d6100</title>
<path fill="none" stroke="#5f5b6a" d="M513.33,-292.31C504.18,-283.42 492.86,-272.41 482.85,-262.67"/>
<polygon fill="#5f5b6a" stroke="#5f5b6a" points="485.12,-259.99 475.51,-255.53 480.24,-265.01 485.12,-259.99"/>
</g>
<!-- node0x55b1719d6250 -->
<g id="node47" class="node">
<title>node0x55b1719d6250</title>
<path fill="#f1c0e8" stroke="#5f5b6a" d="M516,-219.5C516,-219.5 546,-219.5 546,-219.5 552,-219.5 558,-225.5 558,-231.5 558,-231.5 558,-243.5 558,-243.5 558,-249.5 552,-255.5 546,-255.5 546,-255.5 516,-255.5 516,-255.5 510,-255.5 504,-249.5 504,-243.5 504,-243.5 504,-231.5 504,-231.5 504,-225.5 510,-219.5 516,-219.5"/>
<text text-anchor="middle" x="531" y="-233.8" font-family="Times,serif" font-size="14.00">else</text>
</g>
<!-- node0x55b1719d60d0&#45;&gt;node0x55b1719d6250 -->
<g id="edge46" class="edge">
<title>node0x55b1719d60d0&#45;&gt;node0x55b1719d6250</title>
<path fill="none" stroke="#5f5b6a" d="M531,-292.31C531,-284.29 531,-274.55 531,-265.57"/>
<polygon fill="#5f5b6a" stroke="#5f5b6a" points="534.5,-265.53 531,-255.53 527.5,-265.53 534.5,-265.53"/>
</g>
<!-- node0x55b1719d6130 -->
<g id="node41" class="node">
<title>node0x55b1719d6130</title>
<path fill="#cfbaf0" stroke="#5f5b6a" d="M372,-146.5C372,-146.5 402,-146.5 402,-146.5 408,-146.5 414,-152.5 414,-158.5 414,-158.5 414,-170.5 414,-170.5 414,-176.5 408,-182.5 402,-182.5 402,-182.5 372,-182.5 372,-182.5 366,-182.5 360,-176.5 360,-170.5 360,-170.5 360,-158.5 360,-158.5 360,-152.5 366,-146.5 372,-146.5"/>
<text text-anchor="middle" x="387" y="-160.8" font-family="Times,serif" font-size="14.00">==</text>
</g>
<!-- node0x55b1719d6100&#45;&gt;node0x55b1719d6130 -->
<g id="edge40" class="edge">
<title>node0x55b1719d6100&#45;&gt;node0x55b1719d6130</title>
<path fill="none" stroke="#5f5b6a" d="M440.81,-219.31C431.92,-210.42 420.91,-199.41 411.17,-189.67"/>
<polygon fill="#5f5b6a" stroke="#5f5b6a" points="413.57,-187.13 404.03,-182.53 408.63,-192.07 413.57,-187.13"/>
</g>
<!-- node0x55b1719d61c0 -->
<g id="node44" class="node">
<title>node0x55b1719d61c0</title>
<path fill="#ffcfd2" stroke="#5f5b6a" d="M444,-146.5C444,-146.5 474,-146.5 474,-146.5 480,-146.5 486,-152.5 486,-158.5 486,-158.5 486,-170.5 486,-170.5 486,-176.5 480,-182.5 474,-182.5 474,-182.5 444,-182.5 444,-182.5 438,-182.5 432,-176.5 432,-170.5 432,-170.5 432,-158.5 432,-158.5 432,-152.5 438,-146.5 444,-146.5"/>
<text text-anchor="middle" x="459" y="-160.8" font-family="Times,serif" font-size="14.00">;</text>
</g>
<!-- node0x55b1719d6100&#45;&gt;node0x55b1719d61c0 -->
<g id="edge43" class="edge">
<title>node0x55b1719d6100&#45;&gt;node0x55b1719d61c0</title>
<path fill="none" stroke="#5f5b6a" d="M458.24,-219.31C458.36,-211.29 458.49,-201.55 458.62,-192.57"/>
<polygon fill="#5f5b6a" stroke="#5f5b6a" points="462.12,-192.58 458.76,-182.53 455.12,-192.48 462.12,-192.58"/>
</g>
<!-- node0x55b1719d6160 -->
<g id="node42" class="node">
<title>node0x55b1719d6160</title>
<path fill="#98f5e1" stroke="#5f5b6a" d="M300,-73.5C300,-73.5 330,-73.5 330,-73.5 336,-73.5 342,-79.5 342,-85.5 342,-85.5 342,-97.5 342,-97.5 342,-103.5 336,-109.5 330,-109.5 330,-109.5 300,-109.5 300,-109.5 294,-109.5 288,-103.5 288,-97.5 288,-97.5 288,-85.5 288,-85.5 288,-79.5 294,-73.5 300,-73.5"/>
<text text-anchor="middle" x="315" y="-87.8" font-family="Times,serif" font-size="14.00">2</text>
</g>
<!-- node0x55b1719d6130&#45;&gt;node0x55b1719d6160 -->
<g id="edge41" class="edge">
<title>node0x55b1719d6130&#45;&gt;node0x55b1719d6160</title>
<path fill="none" stroke="#5f5b6a" d="M369.57,-146.31C360.55,-137.42 349.39,-126.41 339.51,-116.67"/>
<polygon fill="#5f5b6a" stroke="#5f5b6a" points="341.85,-114.06 332.27,-109.53 336.93,-119.04 341.85,-114.06"/>
</g>
<!-- node0x55b1719d6190 -->
<g id="node43" class="node">
<title>node0x55b1719d6190</title>
<path fill="#8eecf5" stroke="#5f5b6a" d="M372,-73.5C372,-73.5 402,-73.5 402,-73.5 408,-73.5 414,-79.5 414,-85.5 414,-85.5 414,-97.5 414,-97.5 414,-103.5 408,-109.5 402,-109.5 402,-109.5 372,-109.5 372,-109.5 366,-109.5 360,-103.5 360,-97.5 360,-97.5 360,-85.5 360,-85.5 360,-79.5 366,-73.5 372,-73.5"/>
<text text-anchor="middle" x="387" y="-87.8" font-family="Times,serif" font-size="14.00">0.00</text>
</g>
<!-- node0x55b1719d6130&#45;&gt;node0x55b1719d6190 -->
<g id="edge42" class="edge">
<title>node0x55b1719d6130&#45;&gt;node0x55b1719d6190</title>
<path fill="none" stroke="#5f5b6a" d="M387,-146.31C387,-138.29 387,-128.55 387,-119.57"/>
<polygon fill="#5f5b6a" stroke="#5f5b6a" points="390.5,-119.53 387,-109.53 383.5,-119.53 390.5,-119.53"/>
</g>
<!-- node0x55b1719d61f0 -->
<g id="node45" class="node">
<title>node0x55b1719d61f0</title>
<path fill="#a3c4f3" stroke="#5f5b6a" d="M444,-73.5C444,-73.5 474,-73.5 474,-73.5 480,-73.5 486,-79.5 486,-85.5 486,-85.5 486,-97.5 486,-97.5 486,-103.5 480,-109.5 474,-109.5 474,-109.5 444,-109.5 444,-109.5 438,-109.5 432,-103.5 432,-97.5 432,-97.5 432,-85.5 432,-85.5 432,-79.5 438,-73.5 444,-73.5"/>
<text text-anchor="middle" x="459" y="-87.8" font-family="Times,serif" font-size="14.00">print</text>
</g>
<!-- node0x55b1719d61c0&#45;&gt;node0x55b1719d61f0 -->
<g id="edge44" class="edge">
<title>node0x55b1719d61c0&#45;&gt;node0x55b1719d61f0</title>
<path fill="none" stroke="#5f5b6a" d="M459,-146.31C459,-138.29 459,-128.55 459,-119.57"/>
<polygon fill="#5f5b6a" stroke="#5f5b6a" points="462.5,-119.53 459,-109.53 455.5,-119.53 462.5,-119.53"/>
</g>
<!-- node0x55b1719d6220 -->
<g id="node46" class="node">
<title>node0x55b1719d6220</title>
<path fill="#89fbc0" stroke="#5f5b6a" d="M444,-0.5C444,-0.5 474,-0.5 474,-0.5 480,-0.5 486,-6.5 486,-12.5 486,-12.5 486,-24.5 486,-24.5 486,-30.5 480,-36.5 474,-36.5 474,-36.5 444,-36.5 444,-36.5 438,-36.5 432,-30.5 432,-24.5 432,-24.5 432,-12.5 432,-12.5 432,-6.5 438,-0.5 444,-0.5"/>
<text text-anchor="middle" x="459" y="-14.8" font-family="Times,serif" font-size="14.00">3</text>
</g>
<!-- node0x55b1719d61f0&#45;&gt;node0x55b1719d6220 -->
<g id="edge45" class="edge">
<title>node0x55b1719d61f0&#45;&gt;node0x55b1719d6220</title>
<path fill="none" stroke="#5f5b6a" d="M459,-73.31C459,-65.29 459,-55.55 459,-46.57"/>
<polygon fill="#5f5b6a" stroke="#5f5b6a" points="462.5,-46.53 459,-36.53 455.5,-46.53 462.5,-46.53"/>
</g>
<!-- node0x55b1719d6280 -->
<g id="node48" class="node">
<title>node0x55b1719d6280</title>
<path fill="#ffcfd2" stroke="#5f5b6a" d="M516,-146.5C516,-146.5 546,-146.5 546,-146.5 552,-146.5 558,-152.5 558,-158.5 558,-158.5 558,-170.5 558,-170.5 558,-176.5 552,-182.5 546,-182.5 546,-182.5 516,-182.5 516,-182.5 510,-182.5 504,-176.5 504,-170.5 504,-170.5 504,-158.5 504,-158.5 504,-152.5 510,-146.5 516,-146.5"/>
<text text-anchor="middle" x="531" y="-160.8" font-family="Times,serif" font-size="14.00">;</text>
</g>
<!-- node0x55b1719d6250&#45;&gt;node0x55b1719d6280 -->
<g id="edge47" class="edge">
<title>node0x55b1719d6250&#45;&gt;node0x55b1719d6280</title>
<path fill="none" stroke="#5f5b6a" d="M531,-219.31C531,-211.29 531,-201.55 531,-192.57"/>
<polygon fill="#5f5b6a" stroke="#5f5b6a" points="534.5,-192.53 531,-182.53 527.5,-192.53 534.5,-192.53"/>
</g>
<!-- node0x55b1719d62b0 -->
<g id="node49" class="node">
<title>node0x55b1719d62b0</title>
<path fill="#a3c4f3" stroke="#5f5b6a" d="M516,-73.5C516,-73.5 546,-73.5 546,-73.5 552,-73.5 558,-79.5 558,-85.5 558,-85.5 558,-97.5 558,-97.5 558,-103.5 552,-109.5 546,-109.5 546,-109.5 516,-109.5 516,-109.5 510,-109.5 504,-103.5 504,-97.5 504,-97.5 504,-85.5 504,-85.5 504,-79.5 510,-73.5 516,-73.5"/>
<text text-anchor="middle" x="531" y="-87.8" font-family="Times,serif" font-size="14.00">print</text>
</g>
<!-- node0x55b1719d6280&#45;&gt;node0x55b1719d62b0 -->
<g id="edge48" class="edge">
<title>node0x55b1719d6280&#45;&gt;node0x55b1719d62b0</title>
<path fill="none" stroke="#5f5b6a" d="M531,-146.31C531,-138.29 531,-128.55 531,-119.57"/>
<polygon fill="#5f5b6a" stroke="#5f5b6a" points="534.5,-119.53 531,-109.53 527.5,-119.53 534.5,-119.53"/>
</g>
<!-- node0x55b1719d62e0 -->
<g id="node50" class="node">
<title>node0x55b1719d62e0</title>
<path fill="#89fbc0" stroke="#5f5b6a" d="M516,-0.5C516,-0.5 546,-0.5 546,-0.5 552,-0.5 558,-6.5 558,-12.5 558,-12.5 558,-24.5 558,-24.5 558,-30.5 552,-36.5 546,-36.5 546,-36.5 516,-36.5 516,-36.5 510,-36.5 504,-30.5 504,-24.5 504,-24.5 504,-12.5 504,-12.5 504,-6.5 510,-0.5 516,-0.5"/>
<text text-anchor="middle" x="531" y="-14.8" font-family="Times,serif" font-size="14.00">6</text>
</g>
<!-- node0x55b1719d62b0&#45;&gt;node0x55b1719d62e0 -->
<g id="edge49" class="edge">
<title>node0x55b1719d62b0&#45;&gt;node0x55b1719d62e0</title>
<path fill="none" stroke="#5f5b6a" d="M531,-73.31C531,-65.29 531,-55.55 531,-46.57"/>
<polygon fill="#5f5b6a" stroke="#5f5b6a" points="534.5,-46.53 531,-36.53 527.5,-46.53 534.5,-46.53"/>
</g>
<!-- node0x55b1719d6340 -->
<g id="node52" class="node">
<title>node0x55b1719d6340</title>
<path fill="#ffcfd2" stroke="#5f5b6a" d="M588,-365.5C588,-365.5 618,-365.5 618,-365.5 624,-365.5 630,-371.5 630,-377.5 630,-377.5 630,-389.5 630,-389.5 630,-395.5 624,-401.5 618,-401.5 618,-401.5 588,-401.5 588,-401.5 582,-401.5 576,-395.5 576,-389.5 576,-389.5 576,-377.5 576,-377.5 576,-371.5 582,-365.5 588,-365.5"/>
<text text-anchor="middle" x="603" y="-379.8" font-family="Times,serif" font-size="14.00">;</text>
</g>
<!-- node0x55b1719d6310&#45;&gt;node0x55b1719d6340 -->
<g id="edge51" class="edge">
<title>node0x55b1719d6310&#45;&gt;node0x55b1719d6340</title>
<path fill="none" stroke="#5f5b6a" d="M603,-438.31C603,-430.29 603,-420.55 603,-411.57"/>
<polygon fill="#5f5b6a" stroke="#5f5b6a" points="606.5,-411.53 603,-401.53 599.5,-411.53 606.5,-411.53"/>
</g>
<!-- node0x55b1719d6370 -->
<g id="node53" class="node">
<title>node0x55b1719d6370</title>
<path fill="#a3c4f3" stroke="#5f5b6a" d="M588,-292.5C588,-292.5 618,-292.5 618,-292.5 624,-292.5 630,-298.5 630,-304.5 630,-304.5 630,-316.5 630,-316.5 630,-322.5 624,-328.5 618,-328.5 618,-328.5 588,-328.5 588,-328.5 582,-328.5 576,-322.5 576,-316.5 576,-316.5 576,-304.5 576,-304.5 576,-298.5 582,-292.5 588,-292.5"/>
<text text-anchor="middle" x="603" y="-306.8" font-family="Times,serif" font-size="14.00">print</text>
</g>
<!-- node0x55b1719d6340&#45;&gt;node0x55b1719d6370 -->
<g id="edge52" class="edge">
<title>node0x55b1719d6340&#45;&gt;node0x55b1719d6370</title>
<path fill="none" stroke="#5f5b6a" d="M603,-365.31C603,-357.29 603,-347.55 603,-338.57"/>
<polygon fill="#5f5b6a" stroke="#5f5b6a" points="606.5,-338.53 603,-328.53 599.5,-338.53 606.5,-338.53"/>
</g>
<!-- node0x55b1719d63d0 -->
<g id="node55" class="node">
<title>node0x55b1719d63d0</title>
<path fill="#ffcfd2" stroke="#5f5b6a" d="M660,-292.5C660,-292.5 690,-292.5 690,-292.5 696,-292.5 702,-298.5 702,-304.5 702,-304.5 702,-316.5 702,-316.5 702,-322.5 696,-328.5 690,-328.5 690,-328.5 660,-328.5 660,-328.5 654,-328.5 648,-322.5 648,-316.5 648,-316.5 648,-304.5 648,-304.5 648,-298.5 654,-292.5 660,-292.5"/>
<text text-anchor="middle" x="675" y="-306.8" font-family="Times,serif" font-size="14.00">;</text>
</g>
<!-- node0x55b1719d6340&#45;&gt;node0x55b1719d63d0 -->
<g id="edge54" class="edge">
<title>node0x55b1719d6340&#45;&gt;node0x55b1719d63d0</title>
<path fill="none" stroke="#5f5b6a" d="M620.43,-365.31C629.45,-356.42 640.61,-345.41 650.49,-335.67"/>
<polygon fill="#5f5b6a" stroke="#5f5b6a" points="653.07,-338.04 657.73,-328.53 648.15,-333.06 653.07,-338.04"/>
</g>
<!-- node0x55b1719d63a0 -->
<g id="node54" class="node">
<title>node0x55b1719d63a0</title>
<path fill="#89fbc0" stroke="#5f5b6a" d="M588,-219.5C588,-219.5 618,-219.5 618,-219.5 624,-219.5 630,-225.5 630,-231.5 630,-231.5 630,-243.5 630,-243.5 630,-249.5 624,-255.5 618,-255.5 618,-255.5 588,-255.5 588,-255.5 582,-255.5 576,-249.5 576,-243.5 576,-243.5 576,-231.5 576,-231.5 576,-225.5 582,-219.5 588,-219.5"/>
<text text-anchor="middle" x="603" y="-233.8" font-family="Times,serif" font-size="14.00">5</text>
</g>
<!-- node0x55b1719d6370&#45;&gt;node0x55b1719d63a0 -->
<g id="edge53" class="edge">
<title>node0x55b1719d6370&#45;&gt;node0x55b1719d63a0</title>
<path fill="none" stroke="#5f5b6a" d="M603,-292.31C603,-284.29 603,-274.55 603,-265.57"/>
<polygon fill="#5f5b6a" stroke="#5f5b6a" points="606.5,-265.53 603,-255.53 599.5,-265.53 606.5,-265.53"/>
</g>
<!-- node0x55b1719d6400 -->
<g id="node56" class="node">
<title>node0x55b1719d6400</title>
<path fill="#cfbaf0" stroke="#5f5b6a" d="M660,-219.5C660,-219.5 690,-219.5 690,-219.5 696,-219.5 702,-225.5 702,-231.5 702,-231.5 702,-243.5 702,-243.5 702,-249.5 696,-255.5 690,-255.5 690,-255.5 660,-255.5 660,-255.5 654,-255.5 648,-249.5 648,-243.5 648,-243.5 648,-231.5 648,-231.5 648,-225.5 654,-219.5 660,-219.5"/>
<text text-anchor="middle" x="675" y="-233.8" font-family="Times,serif" font-size="14.00">=</text>
</g>
<!-- node0x55b1719d63d0&#45;&gt;node0x55b1719d6400 -->
<g id="edge55" class="edge">
<title>node0x55b1719d63d0&#45;&gt;node0x55b1719d6400</title>
<path fill="none" stroke="#5f5b6a" d="M675,-292.31C675,-284.29 675,-274.55 675,-265.57"/>
<polygon fill="#5f5b6a" stroke="#5f5b6a" points="678.5,-265.53 675,-255.53 671.5,-265.53 678.5,-265.53"/>
</g>
<!-- node0x55b1719d6550 -->
<g id="node63" class="node">
<title>node0x55b1719d6550</title>
<path fill="#ffcfd2" stroke="#5f5b6a" d="M732,-219.5C732,-219.5 762,-219.5 762,-219.5 768,-219.5 774,-225.5 774,-231.5 774,-231.5 774,-243.5 774,-243.5 774,-249.5 768,-255.5 762,-255.5 762,-255.5 732,-255.5 732,-255.5 726,-255.5 720,-249.5 720,-243.5 720,-243.5 720,-231.5 720,-231.5 720,-225.5 726,-219.5 732,-219.5"/>
<text text-anchor="middle" x="747" y="-233.8" font-family="Times,serif" font-size="14.00">;</text>
</g>
<!-- node0x55b1719d63d0&#45;&gt;node0x55b1719d6550 -->
<g id="edge62" class="edge">
<title>node0x55b1719d63d0&#45;&gt;node0x55b1719d6550</title>
<path fill="none" stroke="#5f5b6a" d="M692.43,-292.31C701.45,-283.42 712.61,-272.41 722.49,-262.67"/>
<polygon fill="#5f5b6a" stroke="#5f5b6a" points="725.07,-265.04 729.73,-255.53 720.15,-260.06 725.07,-265.04"/>
</g>
<!-- node0x55b1719d6430 -->
<g id="node57" class="node">
<title>node0x55b1719d6430</title>
<path fill="#98f5e1" stroke="#5f5b6a" d="M588,-146.5C588,-146.5 618,-146.5 618,-146.5 624,-146.5 630,-152.5 630,-158.5 630,-158.5 630,-170.5 630,-170.5 630,-176.5 624,-182.5 618,-182.5 618,-182.5 588,-182.5 588,-182.5 582,-182.5 576,-176.5 576,-170.5 576,-170.5 576,-158.5 576,-158.5 576,-152.5 582,-146.5 588,-146.5"/>
<text text-anchor="middle" x="603" y="-160.8" font-family="Times,serif" font-size="14.00">7</text>
</g>
<!-- node0x55b1719d6400&#45;&gt;node0x55b1719d6430 -->
<g id="edge56" class="edge">
<title>node0x55b1719d6400&#45;&gt;node0x55b1719d6430</title>
<path fill="none" stroke="#5f5b6a" d="M657.57,-219.31C648.55,-210.42 637.39,-199.41 627.51,-189.67"/>
<polygon fill="#5f5b6a" stroke="#5f5b6a" points="629.85,-187.06 620.27,-182.53 624.93,-192.04 629.85,-187.06"/>
</g>
<!-- node0x55b1719d6460 -->
<g id="node58" class="node">
<title>node0x55b1719d6460</title>
<path fill="#cfbaf0" stroke="#5f5b6a" d="M660,-146.5C660,-146.5 690,-146.5 690,-146.5 696,-146.5 702,-152.5 702,-158.5 702,-158.5 702,-170.5 702,-170.5 702,-176.5 696,-182.5 690,-182.5 690,-182.5 660,-182.5 660,-182.5 654,-182.5 648,-176.5 648,-170.5 648,-170.5 648,-158.5 648,-158.5 648,-152.5 654,-146.5 660,-146.5"/>
<text text-anchor="middle" x="675" y="-160.8" font-family="Times,serif" font-size="14.00">/</text>
</g>
<!-- node0x55b1719d6400&#45;&gt;node0x55b1719d6460 -->
<g id="edge57" class="edge">
<title>node0x55b1719d6400&#45;&gt;node0x55b1719d6460</title>
<path fill="none" stroke="#5f5b6a" d="M675,-219.31C675,-211.29 675,-201.55 675,-192.57"/>
<polygon fill="#5f5b6a" stroke="#5f5b6a" points="678.5,-192.53 675,-182.53 671.5,-192.53 678.5,-192.53"/>
</g>
<!-- node0x55b1719d6490 -->
<g id="node59" class="node">
<title>node0x55b1719d6490</title>
<path fill="#cfbaf0" stroke="#5f5b6a" d="M588,-73.5C588,-73.5 618,-73.5 618,-73.5 624,-73.5 630,-79.5 630,-85.5 630,-85.5 630,-97.5 630,-97.5 630,-103.5 624,-109.5 618,-109.5 618,-109.5 588,-109.5 588,-109.5 582,-109.5 576,-103.5 576,-97.5 576,-97.5 576,-85.5 576,-85.5 576,-79.5 582,-73.5 588,-73.5"/>
<text text-anchor="middle" x="603" y="-87.8" font-family="Times,serif" font-size="14.00">&#45;</text>
</g>
<!-- node0x55b1719d6460&#45;&gt;node0x55b1719d6490 -->
<g id="edge58" class="edge">
<title>node0x55b1719d6460&#45;&gt;node0x55b1719d6490</title>
<path fill="none" stroke="#5f5b6a" d="M657.57,-146.31C648.55,-137.42 637.39,-126.41 627.51,-116.67"/>
<polygon fill="#5f5b6a" stroke="#5f5b6a" points="629.85,-114.06 620.27,-109.53 624.93,-119.04 629.85,-114.06"/>
</g>
<!-- node0x55b1719d6520 -->
<g id="node62" class="node">
<title>node0x55b1719d6520</title>
<path fill="#98f5e1" stroke="#5f5b6a" d="M660,-73.5C660,-73.5 690,-73.5 690,-73.5 696,-73.5 702,-79.5 702,-85.5 702,-85.5 702,-97.5 702,-97.5 702,-103.5 696,-109.5 690,-109.5 690,-109.5 660,-109.5 660,-109.5 654,-109.5 648,-103.5 648,-97.5 648,-97.5 648,-85.5 648,-85.5 648,-79.5 654,-73.5 660,-73.5"/>
<text text-anchor="middle" x="675" y="-87.8" font-family="Times,serif" font-size="14.00">1</text>
</g>
<!-- node0x55b1719d6460&#45;&gt;node0x55b1719d6520 -->
<g id="edge61" class="edge">
<title>node0x55b1719d6460&#45;&gt;node0x55b1719d6520</title>
<path fill="none" stroke="#5f5b6a" d="M675,-146.31C675,-138.29 675,-128.55 675,-119.57"/>
<polygon fill="#5f5b6a" stroke="#5f5b6a" points="678.5,-119.53 675,-109.53 671.5,-119.53 678.5,-119.53"/>
</g>
<!-- node0x55b1719d64c0 -->
<g id="node60" class="node">
<title>node0x55b1719d64c0</title>
<path fill="#8eecf5" stroke="#5f5b6a" d="M588,-0.5C588,-0.5 618,-0.5 618,-0.5 624,-0.5 630,-6.5 630,-12.5 630,-12.5 630,-24.5 630,-24.5 630,-30.5 624,-36.5 618,-36.5 618,-36.5 588,-36.5 588,-36.5 582,-36.5 576,-30.5 576,-24.5 576,-24.5 576,-12.5 576,-12.5 576,-6.5 582,-0.5 588,-0.5"/>
<text text-anchor="middle" x="603" y="-14.8" font-family="Times,serif" font-size="14.00">0.00</text>
</g>
<!-- node0x55b1719d6490&#45;&gt;node0x55b1719d64c0 -->
<g id="edge59" class="edge">
<title>node0x55b1719d6490&#45;&gt;node0x55b1719d64c0</title>
<path fill="none" stroke="#5f5b6a" d="M603,-73.31C603,-65.29 603,-55.55 603,-46.57"/>
<polygon fill="#5f5b6a" stroke="#5f5b6a" points="606.5,-46.53 603,-36.53 599.5,-46.53 606.5,-46.53"/>
</g>
<!-- node0x55b1719d64f0 -->
<g id="node61" class="node">
<title>node0x55b1719d64f0</title>
<path fill="#98f5e1" stroke="#5f5b6a" d="M660,-0.5C660,-0.5 690,-0.5 690,-0.5 696,-0.5 702,-6.5 702,-12.5 702,-12.5 702,-24.5 702,-24.5 702,-30.5 696,-36.5 690,-36.5 690,-36.5 660,-36.5 660,-36.5 654,-36.5 648,-30.5 648,-24.5 648,-24.5 648,-12.5 648,-12.5 648,-6.5 654,-0.5 660,-0.5"/>
<text text-anchor="middle" x="675" y="-14.8" font-family="Times,serif" font-size="14.00">2</text>
</g>
<!-- node0x55b1719d6490&#45;&gt;node0x55b1719d64f0 -->
<g id="edge60" class="edge">
<title>node0x55b1719d6490&#45;&gt;node0x55b1719d64f0</title>
<path fill="none" stroke="#5f5b6a" d="M620.43,-73.31C629.45,-64.42 640.61,-53.41 650.49,-43.67"/>
<polygon fill="#5f5b6a" stroke="#5f5b6a" points="653.07,-46.04 657.73,-36.53 648.15,-41.06 653.07,-46.04"/>
</g>
<!-- node0x55b1719d6580 -->
<g id="node64" class="node">
<title>node0x55b1719d6580</title>
<path fill="#a3c4f3" stroke="#5f5b6a" d="M732,-146.5C732,-146.5 762,-146.5 762,-146.5 768,-146.5 774,-152.5 774,-158.5 774,-158.5 774,-170.5 774,-170.5 774,-176.5 768,-182.5 762,-182.5 762,-182.5 732,-182.5 732,-182.5 726,-182.5 720,-176.5 720,-170.5 720,-170.5 720,-158.5 720,-158.5 720,-152.5 726,-146.5 732,-146.5"/>
<text text-anchor="middle" x="747" y="-160.8" font-family="Times,serif" font-size="14.00">print</text>
</g>
<!-- node0x55b1719d6550&#45;&gt;node0x55b1719d6580 -->
<g id="edge63" class="edge">
<title>node0x55b1719d6550&#45;&gt;node0x55b1719d6580</title>
<path fill="none" stroke="#5f5b6a" d="M747,-219.31C747,-211.29 747,-201.55 747,-192.57"/>
<polygon fill="#5f5b6a" stroke="#5f5b6a" points="750.5,-192.53 747,-182.53 743.5,-192.53 750.5,-192.53"/>
</g>
<!-- node0x55b1719d65b0 -->
<g id="node65" class="node">
<title>node0x55b1719d65b0</title>
<path fill="#89fbc0" stroke="#5f5b6a" d="M732,-73.5C732,-73.5 762,-73.5 762,-73.5 768,-73.5 774,-79.5 774,-85.5 774,-85.5 774,-97.5 774,-97.5 774,-103.5 768,-109.5 762,-109.5 762,-109.5 732,-109.5 732,-109.5 726,-109.5 720,-103.5 720,-97.5 720,-97.5 720,-85.5 720,-85.5 720,-79.5 726,-73.5 732,-73.5"/>
<text text-anchor="middle" x="747" y="-87.8" font-family="Times,serif" font-size="14.00">7</text>
</g>
<!-- node0x55b1719d6580&#45;&gt;node0x55b1719d65b0 -->
<g id="edge64" class="edge">
<title>node0x55b1719d6580&#45;&gt;node0x55b1719d65b0</title>
<path fill="none" stroke="#5f5b6a" d="M747,-146.31C747,-138.29 747,-128.55 747,-119.57"/>
<polygon fill="#5f5b6a" stroke="#5f5b6a" points="750.5,-119.53 747,-109.53 743.5,-119.53 750.5,-119.53"/>
</g>
</g>
</svg>
