<?xml version="1.0" encoding="UTF-8" standalone="no"?>
<!DOCTYPE svg PUBLIC "-//W3C//DTD SVG 1.1//EN"
 "http://www.w3.org/Graphics/SVG/1.1/DTD/svg11.dtd">
<!-- Generated by graphviz version 2.43.0 (0)
 -->
<!-- Title: Tree Pages: 1 -->
<svg width="170pt" height="337pt"
 viewBox="0.00 0.00 170.00 337.00" xmlns="http://www.w3.org/2000/svg" xmlns:xlink="http://www.w3.org/1999/xlink">
<g id="graph0" class="graph" transform="scale(1 1) rotate(0) translate(4 333)">
<title>Tree</title>
<polygon fill="#fffeec" stroke="transparent" points="-4,4 -4,-333 166,-333 166,4 -4,4"/>
<!-- node0x5ef0ca051780 -->
<g id="node1" class="node">
<title>node0x5ef0ca051780</title>
<path fill="#ffcfd2" stroke="#5f5b6a" d="M84,-292.5C84,-292.5 114,-292.5 114,-292.5 120,-292.5 126,-298.5 126,-304.5 126,-304.5 126,-316.5 126,-316.5 126,-322.5 120,-328.5 114,-328.5 114,-328.5 84,-328.5 84,-328.5 78,-328.5 72,-322.5 72,-316.5 72,-316.5 72,-304.5 72,-304.5 72,-298.5 78,-292.5 84,-292.5"/>
<text text-anchor="middle" x="99" y="-306.8" font-family="Times,serif" font-size="14.00">;</text>
</g>
<!-- node0x5ef0ca0517b0 -->
<g id="node2" class="node">
<title>node0x5ef0ca0517b0</title>
<path fill="#cfbaf0" stroke="#5f5b6a" d="M84,-219.5C84,-219.5 114,-219.5 114,-219.5 120,-219.5 126,-225.5 126,-231.5 126,-231.5 126,-243.5 126,-243.5 126,-249.5 120,-255.5 114,-255.5 114,-255.5 84,-255.5 84,-255.5 78,-255.5 72,-249.5 72,-243.5 72,-243.5 72,-231.5 72,-231.5 72,-225.5 78,-219.5 84,-219.5"/>
<text text-anchor="middle" x="99" y="-233.8" font-family="Times,serif" font-size="14.00">&#45;</text>
</g>
<!-- node0x5ef0ca051780&#45;&gt;node0x5ef0ca0517b0 -->
<g id="edge1" class="edge">
<title>node0x5ef0ca051780&#45;&gt;node0x5ef0ca0517b0</title>
<path fill="none" stroke="#5f5b6a" d="M99,-292.31C99,-284.29 99,-274.55 99,-265.57"/>
<polygon fill="#5f5b6a" stroke="#5f5b6a" points="102.5,-265.53 99,-255.53 95.5,-265.53 102.5,-265.53"/>
</g>
<!-- node0x5ef0ca0517e0 -->
<g id="node3" class="node">
<title>node0x5ef0ca0517e0</title>
<path fill="#cfbaf0" stroke="#5f5b6a" d="M48,-146.5C48,-146.5 78,-146.5 78,-146.5 84,-146.5 90,-152.5 90,-158.5 90,-158.5 90,-170.5 90,-170.5 90,-176.5 84,-182.5 78,-182.5 78,-182.5 48,-182.5 48,-182.5 42,-182.5 36,-176.5 36,-170.5 36,-170.5 36,-158.5 36,-158.5 36,-152.5 42,-146.5 48,-146.5"/>
<text text-anchor="middle" x="63" y="-160.8" font-family="Times,serif" font-size="14.00">+</text>
</g>
<!-- node0x5ef0ca0517b0&#45;&gt;node0x5ef0ca0517e0 -->
<g id="edge2" class="edge">
<title>node0x5ef0ca0517b0&#45;&gt;node0x5ef0ca0517e0</title>
<path fill="none" stroke="#5f5b6a" d="M90.29,-219.31C86.08,-211.03 80.95,-200.91 76.28,-191.69"/>
<polygon fill="#5f5b6a" stroke="#5f5b6a" points="79.28,-189.87 71.63,-182.53 73.04,-193.03 79.28,-189.87"/>
</g>
<!-- node0x5ef0ca0518d0 -->
<g id="node8" class="node">
<title>node0x5ef0ca0518d0</title>
<path fill="#8eecf5" stroke="#5f5b6a" d="M120,-146.5C120,-146.5 150,-146.5 150,-146.5 156,-146.5 162,-152.5 162,-158.5 162,-158.5 162,-170.5 162,-170.5 162,-176.5 156,-182.5 150,-182.5 150,-182.5 120,-182.5 120,-182.5 114,-182.5 108,-176.5 108,-170.5 108,-170.5 108,-158.5 108,-158.5 108,-152.5 114,-146.5 120,-146.5"/>
<text text-anchor="middle" x="135" y="-160.8" font-family="Times,serif" font-size="14.00">9.00</text>
</g>
<!-- node0x5ef0ca0517b0&#45;&gt;node0x5ef0ca0518d0 -->
<g id="edge7" class="edge">
<title>node0x5ef0ca0517b0&#45;&gt;node0x5ef0ca0518d0</title>
<path fill="none" stroke="#5f5b6a" d="M107.71,-219.31C111.92,-211.03 117.05,-200.91 121.72,-191.69"/>
<polygon fill="#5f5b6a" stroke="#5f5b6a" points="124.96,-193.03 126.37,-182.53 118.72,-189.87 124.96,-193.03"/>
</g>
<!-- node0x5ef0ca051810 -->
<g id="node4" class="node">
<title>node0x5ef0ca051810</title>
<path fill="#8eecf5" stroke="#5f5b6a" d="M12,-73.5C12,-73.5 42,-73.5 42,-73.5 48,-73.5 54,-79.5 54,-85.5 54,-85.5 54,-97.5 54,-97.5 54,-103.5 48,-109.5 42,-109.5 42,-109.5 12,-109.5 12,-109.5 6,-109.5 0,-103.5 0,-97.5 0,-97.5 0,-85.5 0,-85.5 0,-79.5 6,-73.5 12,-73.5"/>
<text text-anchor="middle" x="27" y="-87.8" font-family="Times,serif" font-size="14.00">5.00</text>
</g>
<!-- node0x5ef0ca0517e0&#45;&gt;node0x5ef0ca051810 -->
<g id="edge3" class="edge">
<title>node0x5ef0ca0517e0&#45;&gt;node0x5ef0ca051810</title>
<path fill="none" stroke="#5f5b6a" d="M54.29,-146.31C50.08,-138.03 44.95,-127.91 40.28,-118.69"/>
<polygon fill="#5f5b6a" stroke="#5f5b6a" points="43.28,-116.87 35.63,-109.53 37.04,-120.03 43.28,-116.87"/>
</g>
<!-- node0x5ef0ca051840 -->
<g id="node5" class="node">
<title>node0x5ef0ca051840</title>
<path fill="#cfbaf0" stroke="#5f5b6a" d="M84,-73.5C84,-73.5 114,-73.5 114,-73.5 120,-73.5 126,-79.5 126,-85.5 126,-85.5 126,-97.5 126,-97.5 126,-103.5 120,-109.5 114,-109.5 114,-109.5 84,-109.5 84,-109.5 78,-109.5 72,-103.5 72,-97.5 72,-97.5 72,-85.5 72,-85.5 72,-79.5 78,-73.5 84,-73.5"/>
<text text-anchor="middle" x="99" y="-87.8" font-family="Times,serif" font-size="14.00">*</text>
</g>
<!-- node0x5ef0ca0517e0&#45;&gt;node0x5ef0ca051840 -->
<g id="edge4" class="edge">
<title>node0x5ef0ca0517e0&#45;&gt;node0x5ef0ca051840</title>
<path fill="none" stroke="#5f5b6a" d="M71.71,-146.31C75.92,-138.03 81.05,-127.91 85.72,-118.69"/>
<polygon fill="#5f5b6a" stroke="#5f5b6a" points="88.96,-120.03 90.37,-109.53 82.72,-116.87 88.96,-120.03"/>
</g>
<!-- node0x5ef0ca051870 -->
<g id="node6" class="node">
<title>node0x5ef0ca051870</title>
<path fill="#8eecf5" stroke="#5f5b6a" d="M48,-0.5C48,-0.5 78,-0.5 78,-0.5 84,-0.5 90,-6.5 90,-12.5 90,-12.5 90,-24.5 90,-24.5 90,-30.5 84,-36.5 78,-36.5 78,-36.5 48,-36.5 48,-36.5 42,-36.5 36,-30.5 36,-24.5 36,-24.5 36,-12.5 36,-12.5 36,-6.5 42,-0.5 48,-0.5"/>
<text text-anchor="middle" x="63" y="-14.8" font-family="Times,serif" font-size="14.00">7.00</text>
</g>
<!-- node0x5ef0ca051840&#45;&gt;node0x5ef0ca051870 -->
<g id="edge5" class="edge">
<title>node0x5ef0ca051840&#45;&gt;node0x5ef0ca051870</title>
<path fill="none" stroke="#5f5b6a" d="M90.29,-73.31C86.08,-65.03 80.95,-54.91 76.28,-45.69"/>
<polygon fill="#5f5b6a" stroke="#5f5b6a" points="79.28,-43.87 71.63,-36.53 73.04,-47.03 79.28,-43.87"/>
</g>
<!-- node0x5ef0ca0518a0 -->
<g id="node7" class="node">
<title>node0x5ef0ca0518a0</title>
<path fill="#8eecf5" stroke="#5f5b6a" d="M120,-0.5C120,-0.5 150,-0.5 150,-0.5 156,-0.5 162,-6.5 162,-12.5 162,-12.5 162,-24.5 162,-24.5 162,-30.5 156,-36.5 150,-36.5 150,-36.5 120,-36.5 120,-36.5 114,-36.5 108,-30.5 108,-24.5 108,-24.5 108,-12.5 108,-12.5 108,-6.5 114,-0.5 120,-0.5"/>
<text text-anchor="middle" x="135" y="-14.8" font-family="Times,serif" font-size="14.00">8.00</text>
</g>
<!-- node0x5ef0ca051840&#45;&gt;node0x5ef0ca0518a0 -->
<g id="edge6" class="edge">
<title>node0x5ef0ca051840&#45;&gt;node0x5ef0ca0518a0</title>
<path fill="none" stroke="#5f5b6a" d="M107.71,-73.31C111.92,-65.03 117.05,-54.91 121.72,-45.69"/>
<polygon fill="#5f5b6a" stroke="#5f5b6a" points="124.96,-47.03 126.37,-36.53 118.72,-43.87 124.96,-47.03"/>
</g>
</g>
</svg>
