<?xml version="1.0" encoding="UTF-8" standalone="no"?>
<!DOCTYPE svg PUBLIC "-//W3C//DTD SVG 1.1//EN"
 "http://www.w3.org/Graphics/SVG/1.1/DTD/svg11.dtd">
<!-- Generated by graphviz version 2.43.0 (0)
 -->
<!-- Title: Tree Pages: 1 -->
<svg width="206pt" height="483pt"
 viewBox="0.00 0.00 206.00 483.00" xmlns="http://www.w3.org/2000/svg" xmlns:xlink="http://www.w3.org/1999/xlink">
<g id="graph0" class="graph" transform="scale(1 1) rotate(0) translate(4 479)">
<title>Tree</title>
<polygon fill="#fffeec" stroke="transparent" points="-4,4 -4,-479 202,-479 202,4 -4,4"/>
<!-- node0x5d2efc75bbd0 -->
<g id="node1" class="node">
<title>node0x5d2efc75bbd0</title>
<path fill="#ffcfd2" stroke="#5f5b6a" d="M84,-438.5C84,-438.5 114,-438.5 114,-438.5 120,-438.5 126,-444.5 126,-450.5 126,-450.5 126,-462.5 126,-462.5 126,-468.5 120,-474.5 114,-474.5 114,-474.5 84,-474.5 84,-474.5 78,-474.5 72,-468.5 72,-462.5 72,-462.5 72,-450.5 72,-450.5 72,-444.5 78,-438.5 84,-438.5"/>
<text text-anchor="middle" x="99" y="-452.8" font-family="Times,serif" font-size="14.00">;</text>
</g>
<!-- node0x5d2efc75ba80 -->
<g id="node2" class="node">
<title>node0x5d2efc75ba80</title>
<path fill="#a3c4f3" stroke="#5f5b6a" d="M48,-365.5C48,-365.5 78,-365.5 78,-365.5 84,-365.5 90,-371.5 90,-377.5 90,-377.5 90,-389.5 90,-389.5 90,-395.5 84,-401.5 78,-401.5 78,-401.5 48,-401.5 48,-401.5 42,-401.5 36,-395.5 36,-389.5 36,-389.5 36,-377.5 36,-377.5 36,-371.5 42,-365.5 48,-365.5"/>
<text text-anchor="middle" x="63" y="-379.8" font-family="Times,serif" font-size="14.00">input</text>
</g>
<!-- node0x5d2efc75bbd0&#45;&gt;node0x5d2efc75ba80 -->
<g id="edge1" class="edge">
<title>node0x5d2efc75bbd0&#45;&gt;node0x5d2efc75ba80</title>
<path fill="none" stroke="#5f5b6a" d="M90.29,-438.31C86.08,-430.03 80.95,-419.91 76.28,-410.69"/>
<polygon fill="#5f5b6a" stroke="#5f5b6a" points="79.28,-408.87 71.63,-401.53 73.04,-412.03 79.28,-408.87"/>
</g>
<!-- node0x5d2efc75bba0 -->
<g id="node4" class="node">
<title>node0x5d2efc75bba0</title>
<path fill="#ffcfd2" stroke="#5f5b6a" d="M120,-365.5C120,-365.5 150,-365.5 150,-365.5 156,-365.5 162,-371.5 162,-377.5 162,-377.5 162,-389.5 162,-389.5 162,-395.5 156,-401.5 150,-401.5 150,-401.5 120,-401.5 120,-401.5 114,-401.5 108,-395.5 108,-389.5 108,-389.5 108,-377.5 108,-377.5 108,-371.5 114,-365.5 120,-365.5"/>
<text text-anchor="middle" x="135" y="-379.8" font-family="Times,serif" font-size="14.00">;</text>
</g>
<!-- node0x5d2efc75bbd0&#45;&gt;node0x5d2efc75bba0 -->
<g id="edge3" class="edge">
<title>node0x5d2efc75bbd0&#45;&gt;node0x5d2efc75bba0</title>
<path fill="none" stroke="#5f5b6a" d="M107.71,-438.31C111.92,-430.03 117.05,-419.91 121.72,-410.69"/>
<polygon fill="#5f5b6a" stroke="#5f5b6a" points="124.96,-412.03 126.37,-401.53 118.72,-408.87 124.96,-412.03"/>
</g>
<!-- node0x5d2efc75b750 -->
<g id="node3" class="node">
<title>node0x5d2efc75b750</title>
<path fill="#89fbc0" stroke="#5f5b6a" d="M48,-292.5C48,-292.5 78,-292.5 78,-292.5 84,-292.5 90,-298.5 90,-304.5 90,-304.5 90,-316.5 90,-316.5 90,-322.5 84,-328.5 78,-328.5 78,-328.5 48,-328.5 48,-328.5 42,-328.5 36,-322.5 36,-316.5 36,-316.5 36,-304.5 36,-304.5 36,-298.5 42,-292.5 48,-292.5"/>
<text text-anchor="middle" x="63" y="-306.8" font-family="Times,serif" font-size="14.00">0</text>
</g>
<!-- node0x5d2efc75ba80&#45;&gt;node0x5d2efc75b750 -->
<g id="edge2" class="edge">
<title>node0x5d2efc75ba80&#45;&gt;node0x5d2efc75b750</title>
<path fill="none" stroke="#5f5b6a" d="M63,-365.31C63,-357.29 63,-347.55 63,-338.57"/>
<polygon fill="#5f5b6a" stroke="#5f5b6a" points="66.5,-338.53 63,-328.53 59.5,-338.53 66.5,-338.53"/>
</g>
<!-- node0x5d2efc75bb70 -->
<g id="node5" class="node">
<title>node0x5d2efc75bb70</title>
<path fill="#f1c0e8" stroke="#5f5b6a" d="M120,-292.5C120,-292.5 150,-292.5 150,-292.5 156,-292.5 162,-298.5 162,-304.5 162,-304.5 162,-316.5 162,-316.5 162,-322.5 156,-328.5 150,-328.5 150,-328.5 120,-328.5 120,-328.5 114,-328.5 108,-322.5 108,-316.5 108,-316.5 108,-304.5 108,-304.5 108,-298.5 114,-292.5 120,-292.5"/>
<text text-anchor="middle" x="135" y="-306.8" font-family="Times,serif" font-size="14.00">if</text>
</g>
<!-- node0x5d2efc75bba0&#45;&gt;node0x5d2efc75bb70 -->
<g id="edge4" class="edge">
<title>node0x5d2efc75bba0&#45;&gt;node0x5d2efc75bb70</title>
<path fill="none" stroke="#5f5b6a" d="M135,-365.31C135,-357.29 135,-347.55 135,-338.57"/>
<polygon fill="#5f5b6a" stroke="#5f5b6a" points="138.5,-338.53 135,-328.53 131.5,-338.53 138.5,-338.53"/>
</g>
<!-- node0x5d2efc75bb40 -->
<g id="node6" class="node">
<title>node0x5d2efc75bb40</title>
<path fill="#ffcfd2" stroke="#5f5b6a" d="M119,-219.5C119,-219.5 151,-219.5 151,-219.5 157,-219.5 163,-225.5 163,-231.5 163,-231.5 163,-243.5 163,-243.5 163,-249.5 157,-255.5 151,-255.5 151,-255.5 119,-255.5 119,-255.5 113,-255.5 107,-249.5 107,-243.5 107,-243.5 107,-231.5 107,-231.5 107,-225.5 113,-219.5 119,-219.5"/>
<text text-anchor="middle" x="135" y="-233.8" font-family="Times,serif" font-size="14.00">no op</text>
</g>
<!-- node0x5d2efc75bb70&#45;&gt;node0x5d2efc75bb40 -->
<g id="edge5" class="edge">
<title>node0x5d2efc75bb70&#45;&gt;node0x5d2efc75bb40</title>
<path fill="none" stroke="#5f5b6a" d="M135,-292.31C135,-284.29 135,-274.55 135,-265.57"/>
<polygon fill="#5f5b6a" stroke="#5f5b6a" points="138.5,-265.53 135,-255.53 131.5,-265.53 138.5,-265.53"/>
</g>
<!-- node0x5d2efc75bab0 -->
<g id="node7" class="node">
<title>node0x5d2efc75bab0</title>
<path fill="#cfbaf0" stroke="#5f5b6a" d="M84,-146.5C84,-146.5 114,-146.5 114,-146.5 120,-146.5 126,-152.5 126,-158.5 126,-158.5 126,-170.5 126,-170.5 126,-176.5 120,-182.5 114,-182.5 114,-182.5 84,-182.5 84,-182.5 78,-182.5 72,-176.5 72,-170.5 72,-170.5 72,-158.5 72,-158.5 72,-152.5 78,-146.5 84,-146.5"/>
<text text-anchor="middle" x="99" y="-160.8" font-family="Times,serif" font-size="14.00">==</text>
</g>
<!-- node0x5d2efc75bb40&#45;&gt;node0x5d2efc75bab0 -->
<g id="edge6" class="edge">
<title>node0x5d2efc75bb40&#45;&gt;node0x5d2efc75bab0</title>
<path fill="none" stroke="#5f5b6a" d="M126.29,-219.31C122.08,-211.03 116.95,-200.91 112.28,-191.69"/>
<polygon fill="#5f5b6a" stroke="#5f5b6a" points="115.28,-189.87 107.63,-182.53 109.04,-193.03 115.28,-189.87"/>
</g>
<!-- node0x5d2efc75bb10 -->
<g id="node10" class="node">
<title>node0x5d2efc75bb10</title>
<path fill="#ffcfd2" stroke="#5f5b6a" d="M156,-146.5C156,-146.5 186,-146.5 186,-146.5 192,-146.5 198,-152.5 198,-158.5 198,-158.5 198,-170.5 198,-170.5 198,-176.5 192,-182.5 186,-182.5 186,-182.5 156,-182.5 156,-182.5 150,-182.5 144,-176.5 144,-170.5 144,-170.5 144,-158.5 144,-158.5 144,-152.5 150,-146.5 156,-146.5"/>
<text text-anchor="middle" x="171" y="-160.8" font-family="Times,serif" font-size="14.00">;</text>
</g>
<!-- node0x5d2efc75bb40&#45;&gt;node0x5d2efc75bb10 -->
<g id="edge9" class="edge">
<title>node0x5d2efc75bb40&#45;&gt;node0x5d2efc75bb10</title>
<path fill="none" stroke="#5f5b6a" d="M143.71,-219.31C147.92,-211.03 153.05,-200.91 157.72,-191.69"/>
<polygon fill="#5f5b6a" stroke="#5f5b6a" points="160.96,-193.03 162.37,-182.53 154.72,-189.87 160.96,-193.03"/>
</g>
<!-- node0x5d2efc75b840 -->
<g id="node8" class="node">
<title>node0x5d2efc75b840</title>
<path fill="#98f5e1" stroke="#5f5b6a" d="M12,-73.5C12,-73.5 42,-73.5 42,-73.5 48,-73.5 54,-79.5 54,-85.5 54,-85.5 54,-97.5 54,-97.5 54,-103.5 48,-109.5 42,-109.5 42,-109.5 12,-109.5 12,-109.5 6,-109.5 0,-103.5 0,-97.5 0,-97.5 0,-85.5 0,-85.5 0,-79.5 6,-73.5 12,-73.5"/>
<text text-anchor="middle" x="27" y="-87.8" font-family="Times,serif" font-size="14.00">1</text>
</g>
<!-- node0x5d2efc75bab0&#45;&gt;node0x5d2efc75b840 -->
<g id="edge7" class="edge">
<title>node0x5d2efc75bab0&#45;&gt;node0x5d2efc75b840</title>
<path fill="none" stroke="#5f5b6a" d="M81.57,-146.31C72.55,-137.42 61.39,-126.41 51.51,-116.67"/>
<polygon fill="#5f5b6a" stroke="#5f5b6a" points="53.85,-114.06 44.27,-109.53 48.93,-119.04 53.85,-114.06"/>
</g>
<!-- node0x5d2efc75b8a0 -->
<g id="node9" class="node">
<title>node0x5d2efc75b8a0</title>
<path fill="#8eecf5" stroke="#5f5b6a" d="M84,-73.5C84,-73.5 114,-73.5 114,-73.5 120,-73.5 126,-79.5 126,-85.5 126,-85.5 126,-97.5 126,-97.5 126,-103.5 120,-109.5 114,-109.5 114,-109.5 84,-109.5 84,-109.5 78,-109.5 72,-103.5 72,-97.5 72,-97.5 72,-85.5 72,-85.5 72,-79.5 78,-73.5 84,-73.5"/>
<text text-anchor="middle" x="99" y="-87.8" font-family="Times,serif" font-size="14.00">9.00</text>
</g>
<!-- node0x5d2efc75bab0&#45;&gt;node0x5d2efc75b8a0 -->
<g id="edge8" class="edge">
<title>node0x5d2efc75bab0&#45;&gt;node0x5d2efc75b8a0</title>
<path fill="none" stroke="#5f5b6a" d="M99,-146.31C99,-138.29 99,-128.55 99,-119.57"/>
<polygon fill="#5f5b6a" stroke="#5f5b6a" points="102.5,-119.53 99,-109.53 95.5,-119.53 102.5,-119.53"/>
</g>
<!-- node0x5d2efc75bae0 -->
<g id="node11" class="node">
<title>node0x5d2efc75bae0</title>
<path fill="#a3c4f3" stroke="#5f5b6a" d="M156,-73.5C156,-73.5 186,-73.5 186,-73.5 192,-73.5 198,-79.5 198,-85.5 198,-85.5 198,-97.5 198,-97.5 198,-103.5 192,-109.5 186,-109.5 186,-109.5 156,-109.5 156,-109.5 150,-109.5 144,-103.5 144,-97.5 144,-97.5 144,-85.5 144,-85.5 144,-79.5 150,-73.5 156,-73.5"/>
<text text-anchor="middle" x="171" y="-87.8" font-family="Times,serif" font-size="14.00">print</text>
</g>
<!-- node0x5d2efc75bb10&#45;&gt;node0x5d2efc75bae0 -->
<g id="edge10" class="edge">
<title>node0x5d2efc75bb10&#45;&gt;node0x5d2efc75bae0</title>
<path fill="none" stroke="#5f5b6a" d="M171,-146.31C171,-138.29 171,-128.55 171,-119.57"/>
<polygon fill="#5f5b6a" stroke="#5f5b6a" points="174.5,-119.53 171,-109.53 167.5,-119.53 174.5,-119.53"/>
</g>
<!-- node0x5d2efc75b990 -->
<g id="node12" class="node">
<title>node0x5d2efc75b990</title>
<path fill="#89fbc0" stroke="#5f5b6a" d="M156,-0.5C156,-0.5 186,-0.5 186,-0.5 192,-0.5 198,-6.5 198,-12.5 198,-12.5 198,-24.5 198,-24.5 198,-30.5 192,-36.5 186,-36.5 186,-36.5 156,-36.5 156,-36.5 150,-36.5 144,-30.5 144,-24.5 144,-24.5 144,-12.5 144,-12.5 144,-6.5 150,-0.5 156,-0.5"/>
<text text-anchor="middle" x="171" y="-14.8" font-family="Times,serif" font-size="14.00">0</text>
</g>
<!-- node0x5d2efc75bae0&#45;&gt;node0x5d2efc75b990 -->
<g id="edge11" class="edge">
<title>node0x5d2efc75bae0&#45;&gt;node0x5d2efc75b990</title>
<path fill="none" stroke="#5f5b6a" d="M171,-73.31C171,-65.29 171,-55.55 171,-46.57"/>
<polygon fill="#5f5b6a" stroke="#5f5b6a" points="174.5,-46.53 171,-36.53 167.5,-46.53 174.5,-46.53"/>
</g>
</g>
</svg>
