<?xml version="1.0" encoding="UTF-8" standalone="no"?>
<!DOCTYPE svg PUBLIC "-//W3C//DTD SVG 1.1//EN"
 "http://www.w3.org/Graphics/SVG/1.1/DTD/svg11.dtd">
<!-- Generated by graphviz version 2.43.0 (0)
 -->
<!-- Title: Tree Pages: 1 -->
<svg width="536pt" height="702pt"
 viewBox="0.00 0.00 536.00 702.00" xmlns="http://www.w3.org/2000/svg" xmlns:xlink="http://www.w3.org/1999/xlink">
<g id="graph0" class="graph" transform="scale(1 1) rotate(0) translate(4 698)">
<title>Tree</title>
<polygon fill="#fffeec" stroke="transparent" points="-4,4 -4,-698 532,-698 532,4 -4,4"/>
<!-- node0x5e81530fff50 -->
<g id="node1" class="node">
<title>node0x5e81530fff50</title>
<path fill="#ffcfd2" stroke="#5f5b6a" d="M214,-657.5C214,-657.5 244,-657.5 244,-657.5 250,-657.5 256,-663.5 256,-669.5 256,-669.5 256,-681.5 256,-681.5 256,-687.5 250,-693.5 244,-693.5 244,-693.5 214,-693.5 214,-693.5 208,-693.5 202,-687.5 202,-681.5 202,-681.5 202,-669.5 202,-669.5 202,-663.5 208,-657.5 214,-657.5"/>
<text text-anchor="middle" x="229" y="-671.8" font-family="Times,serif" font-size="14.00">;</text>
</g>
<!-- node0x5e81530fff80 -->
<g id="node2" class="node">
<title>node0x5e81530fff80</title>
<path fill="#f1c0e8" stroke="#5f5b6a" d="M178,-584.5C178,-584.5 208,-584.5 208,-584.5 214,-584.5 220,-590.5 220,-596.5 220,-596.5 220,-608.5 220,-608.5 220,-614.5 214,-620.5 208,-620.5 208,-620.5 178,-620.5 178,-620.5 172,-620.5 166,-614.5 166,-608.5 166,-608.5 166,-596.5 166,-596.5 166,-590.5 172,-584.5 178,-584.5"/>
<text text-anchor="middle" x="193" y="-598.8" font-family="Times,serif" font-size="14.00">if</text>
</g>
<!-- node0x5e81530fff50&#45;&gt;node0x5e81530fff80 -->
<g id="edge1" class="edge">
<title>node0x5e81530fff50&#45;&gt;node0x5e81530fff80</title>
<path fill="none" stroke="#5f5b6a" d="M220.29,-657.31C216.08,-649.03 210.95,-638.91 206.28,-629.69"/>
<polygon fill="#5f5b6a" stroke="#5f5b6a" points="209.28,-627.87 201.63,-620.53 203.04,-631.03 209.28,-627.87"/>
</g>
<!-- node0x5e8153100370 -->
<g id="node23" class="node">
<title>node0x5e8153100370</title>
<path fill="#ffcfd2" stroke="#5f5b6a" d="M250,-584.5C250,-584.5 280,-584.5 280,-584.5 286,-584.5 292,-590.5 292,-596.5 292,-596.5 292,-608.5 292,-608.5 292,-614.5 286,-620.5 280,-620.5 280,-620.5 250,-620.5 250,-620.5 244,-620.5 238,-614.5 238,-608.5 238,-608.5 238,-596.5 238,-596.5 238,-590.5 244,-584.5 250,-584.5"/>
<text text-anchor="middle" x="265" y="-598.8" font-family="Times,serif" font-size="14.00">;</text>
</g>
<!-- node0x5e81530fff50&#45;&gt;node0x5e8153100370 -->
<g id="edge22" class="edge">
<title>node0x5e81530fff50&#45;&gt;node0x5e8153100370</title>
<path fill="none" stroke="#5f5b6a" d="M237.71,-657.31C241.92,-649.03 247.05,-638.91 251.72,-629.69"/>
<polygon fill="#5f5b6a" stroke="#5f5b6a" points="254.96,-631.03 256.37,-620.53 248.72,-627.87 254.96,-631.03"/>
</g>
<!-- node0x5e81530fffb0 -->
<g id="node3" class="node">
<title>node0x5e81530fffb0</title>
<path fill="#ffcfd2" stroke="#5f5b6a" d="M177,-511.5C177,-511.5 209,-511.5 209,-511.5 215,-511.5 221,-517.5 221,-523.5 221,-523.5 221,-535.5 221,-535.5 221,-541.5 215,-547.5 209,-547.5 209,-547.5 177,-547.5 177,-547.5 171,-547.5 165,-541.5 165,-535.5 165,-535.5 165,-523.5 165,-523.5 165,-517.5 171,-511.5 177,-511.5"/>
<text text-anchor="middle" x="193" y="-525.8" font-family="Times,serif" font-size="14.00">no op</text>
</g>
<!-- node0x5e81530fff80&#45;&gt;node0x5e81530fffb0 -->
<g id="edge2" class="edge">
<title>node0x5e81530fff80&#45;&gt;node0x5e81530fffb0</title>
<path fill="none" stroke="#5f5b6a" d="M193,-584.31C193,-576.29 193,-566.55 193,-557.57"/>
<polygon fill="#5f5b6a" stroke="#5f5b6a" points="196.5,-557.53 193,-547.53 189.5,-557.53 196.5,-557.53"/>
</g>
<!-- node0x5e81530fffe0 -->
<g id="node4" class="node">
<title>node0x5e81530fffe0</title>
<path fill="#cfbaf0" stroke="#5f5b6a" d="M86,-438.5C86,-438.5 116,-438.5 116,-438.5 122,-438.5 128,-444.5 128,-450.5 128,-450.5 128,-462.5 128,-462.5 128,-468.5 122,-474.5 116,-474.5 116,-474.5 86,-474.5 86,-474.5 80,-474.5 74,-468.5 74,-462.5 74,-462.5 74,-450.5 74,-450.5 74,-444.5 80,-438.5 86,-438.5"/>
<text text-anchor="middle" x="101" y="-452.8" font-family="Times,serif" font-size="14.00">&lt;</text>
</g>
<!-- node0x5e81530fffb0&#45;&gt;node0x5e81530fffe0 -->
<g id="edge3" class="edge">
<title>node0x5e81530fffb0&#45;&gt;node0x5e81530fffe0</title>
<path fill="none" stroke="#5f5b6a" d="M170.73,-511.31C158.86,-502.16 144.1,-490.76 131.21,-480.82"/>
<polygon fill="#5f5b6a" stroke="#5f5b6a" points="133.12,-477.87 123.07,-474.53 128.84,-483.41 133.12,-477.87"/>
</g>
<!-- node0x5e8153100070 -->
<g id="node7" class="node">
<title>node0x5e8153100070</title>
<path fill="#ffcfd2" stroke="#5f5b6a" d="M178,-438.5C178,-438.5 208,-438.5 208,-438.5 214,-438.5 220,-444.5 220,-450.5 220,-450.5 220,-462.5 220,-462.5 220,-468.5 214,-474.5 208,-474.5 208,-474.5 178,-474.5 178,-474.5 172,-474.5 166,-468.5 166,-462.5 166,-462.5 166,-450.5 166,-450.5 166,-444.5 172,-438.5 178,-438.5"/>
<text text-anchor="middle" x="193" y="-452.8" font-family="Times,serif" font-size="14.00">;</text>
</g>
<!-- node0x5e81530fffb0&#45;&gt;node0x5e8153100070 -->
<g id="edge6" class="edge">
<title>node0x5e81530fffb0&#45;&gt;node0x5e8153100070</title>
<path fill="none" stroke="#5f5b6a" d="M193,-511.31C193,-503.29 193,-493.55 193,-484.57"/>
<polygon fill="#5f5b6a" stroke="#5f5b6a" points="196.5,-484.53 193,-474.53 189.5,-484.53 196.5,-484.53"/>
</g>
<!-- node0x5e8153100010 -->
<g id="node5" class="node">
<title>node0x5e8153100010</title>
<path fill="#98f5e1" stroke="#5f5b6a" d="M12,-365.5C12,-365.5 42,-365.5 42,-365.5 48,-365.5 54,-371.5 54,-377.5 54,-377.5 54,-389.5 54,-389.5 54,-395.5 48,-401.5 42,-401.5 42,-401.5 12,-401.5 12,-401.5 6,-401.5 0,-395.5 0,-389.5 0,-389.5 0,-377.5 0,-377.5 0,-371.5 6,-365.5 12,-365.5"/>
<text text-anchor="middle" x="27" y="-379.8" font-family="Times,serif" font-size="14.00">0</text>
</g>
<!-- node0x5e81530fffe0&#45;&gt;node0x5e8153100010 -->
<g id="edge4" class="edge">
<title>node0x5e81530fffe0&#45;&gt;node0x5e8153100010</title>
<path fill="none" stroke="#5f5b6a" d="M83.09,-438.31C73.82,-429.42 62.34,-418.41 52.19,-408.67"/>
<polygon fill="#5f5b6a" stroke="#5f5b6a" points="54.39,-405.93 44.75,-401.53 49.54,-410.98 54.39,-405.93"/>
</g>
<!-- node0x5e8153100040 -->
<g id="node6" class="node">
<title>node0x5e8153100040</title>
<path fill="#8eecf5" stroke="#5f5b6a" d="M84.5,-365.5C84.5,-365.5 117.5,-365.5 117.5,-365.5 123.5,-365.5 129.5,-371.5 129.5,-377.5 129.5,-377.5 129.5,-389.5 129.5,-389.5 129.5,-395.5 123.5,-401.5 117.5,-401.5 117.5,-401.5 84.5,-401.5 84.5,-401.5 78.5,-401.5 72.5,-395.5 72.5,-389.5 72.5,-389.5 72.5,-377.5 72.5,-377.5 72.5,-371.5 78.5,-365.5 84.5,-365.5"/>
<text text-anchor="middle" x="101" y="-379.8" font-family="Times,serif" font-size="14.00">10.00</text>
</g>
<!-- node0x5e81530fffe0&#45;&gt;node0x5e8153100040 -->
<g id="edge5" class="edge">
<title>node0x5e81530fffe0&#45;&gt;node0x5e8153100040</title>
<path fill="none" stroke="#5f5b6a" d="M101,-438.31C101,-430.29 101,-420.55 101,-411.57"/>
<polygon fill="#5f5b6a" stroke="#5f5b6a" points="104.5,-411.53 101,-401.53 97.5,-411.53 104.5,-411.53"/>
</g>
<!-- node0x5e81531000a0 -->
<g id="node8" class="node">
<title>node0x5e81531000a0</title>
<path fill="#f1c0e8" stroke="#5f5b6a" d="M160,-365.5C160,-365.5 190,-365.5 190,-365.5 196,-365.5 202,-371.5 202,-377.5 202,-377.5 202,-389.5 202,-389.5 202,-395.5 196,-401.5 190,-401.5 190,-401.5 160,-401.5 160,-401.5 154,-401.5 148,-395.5 148,-389.5 148,-389.5 148,-377.5 148,-377.5 148,-371.5 154,-365.5 160,-365.5"/>
<text text-anchor="middle" x="175" y="-379.8" font-family="Times,serif" font-size="14.00">if</text>
</g>
<!-- node0x5e8153100070&#45;&gt;node0x5e81531000a0 -->
<g id="edge7" class="edge">
<title>node0x5e8153100070&#45;&gt;node0x5e81531000a0</title>
<path fill="none" stroke="#5f5b6a" d="M188.64,-438.31C186.59,-430.2 184.09,-420.34 181.79,-411.28"/>
<polygon fill="#5f5b6a" stroke="#5f5b6a" points="185.17,-410.36 179.32,-401.53 178.38,-412.08 185.17,-410.36"/>
</g>
<!-- node0x5e81531002b0 -->
<g id="node19" class="node">
<title>node0x5e81531002b0</title>
<path fill="#ffcfd2" stroke="#5f5b6a" d="M232,-365.5C232,-365.5 262,-365.5 262,-365.5 268,-365.5 274,-371.5 274,-377.5 274,-377.5 274,-389.5 274,-389.5 274,-395.5 268,-401.5 262,-401.5 262,-401.5 232,-401.5 232,-401.5 226,-401.5 220,-395.5 220,-389.5 220,-389.5 220,-377.5 220,-377.5 220,-371.5 226,-365.5 232,-365.5"/>
<text text-anchor="middle" x="247" y="-379.8" font-family="Times,serif" font-size="14.00">;</text>
</g>
<!-- node0x5e8153100070&#45;&gt;node0x5e81531002b0 -->
<g id="edge18" class="edge">
<title>node0x5e8153100070&#45;&gt;node0x5e81531002b0</title>
<path fill="none" stroke="#5f5b6a" d="M206.07,-438.31C212.64,-429.68 220.72,-419.06 227.96,-409.53"/>
<polygon fill="#5f5b6a" stroke="#5f5b6a" points="230.78,-411.61 234.05,-401.53 225.21,-407.37 230.78,-411.61"/>
</g>
<!-- node0x5e81531000d0 -->
<g id="node9" class="node">
<title>node0x5e81531000d0</title>
<path fill="#ffcfd2" stroke="#5f5b6a" d="M158,-292.5C158,-292.5 190,-292.5 190,-292.5 196,-292.5 202,-298.5 202,-304.5 202,-304.5 202,-316.5 202,-316.5 202,-322.5 196,-328.5 190,-328.5 190,-328.5 158,-328.5 158,-328.5 152,-328.5 146,-322.5 146,-316.5 146,-316.5 146,-304.5 146,-304.5 146,-298.5 152,-292.5 158,-292.5"/>
<text text-anchor="middle" x="174" y="-306.8" font-family="Times,serif" font-size="14.00">no op</text>
</g>
<!-- node0x5e81531000a0&#45;&gt;node0x5e81531000d0 -->
<g id="edge8" class="edge">
<title>node0x5e81531000a0&#45;&gt;node0x5e81531000d0</title>
<path fill="none" stroke="#5f5b6a" d="M174.76,-365.31C174.64,-357.29 174.51,-347.55 174.38,-338.57"/>
<polygon fill="#5f5b6a" stroke="#5f5b6a" points="177.88,-338.48 174.24,-328.53 170.88,-338.58 177.88,-338.48"/>
</g>
<!-- node0x5e8153100100 -->
<g id="node10" class="node">
<title>node0x5e8153100100</title>
<path fill="#cfbaf0" stroke="#5f5b6a" d="M87,-219.5C87,-219.5 117,-219.5 117,-219.5 123,-219.5 129,-225.5 129,-231.5 129,-231.5 129,-243.5 129,-243.5 129,-249.5 123,-255.5 117,-255.5 117,-255.5 87,-255.5 87,-255.5 81,-255.5 75,-249.5 75,-243.5 75,-243.5 75,-231.5 75,-231.5 75,-225.5 81,-219.5 87,-219.5"/>
<text text-anchor="middle" x="102" y="-233.8" font-family="Times,serif" font-size="14.00">==</text>
</g>
<!-- node0x5e81531000d0&#45;&gt;node0x5e8153100100 -->
<g id="edge9" class="edge">
<title>node0x5e81531000d0&#45;&gt;node0x5e8153100100</title>
<path fill="none" stroke="#5f5b6a" d="M156.57,-292.31C147.55,-283.42 136.39,-272.41 126.51,-262.67"/>
<polygon fill="#5f5b6a" stroke="#5f5b6a" points="128.85,-260.06 119.27,-255.53 123.93,-265.04 128.85,-260.06"/>
</g>
<!-- node0x5e8153100190 -->
<g id="node13" class="node">
<title>node0x5e8153100190</title>
<path fill="#ffcfd2" stroke="#5f5b6a" d="M160,-219.5C160,-219.5 190,-219.5 190,-219.5 196,-219.5 202,-225.5 202,-231.5 202,-231.5 202,-243.5 202,-243.5 202,-249.5 196,-255.5 190,-255.5 190,-255.5 160,-255.5 160,-255.5 154,-255.5 148,-249.5 148,-243.5 148,-243.5 148,-231.5 148,-231.5 148,-225.5 154,-219.5 160,-219.5"/>
<text text-anchor="middle" x="175" y="-233.8" font-family="Times,serif" font-size="14.00">;</text>
</g>
<!-- node0x5e81531000d0&#45;&gt;node0x5e8153100190 -->
<g id="edge12" class="edge">
<title>node0x5e81531000d0&#45;&gt;node0x5e8153100190</title>
<path fill="none" stroke="#5f5b6a" d="M174.24,-292.31C174.36,-284.29 174.49,-274.55 174.62,-265.57"/>
<polygon fill="#5f5b6a" stroke="#5f5b6a" points="178.12,-265.58 174.76,-255.53 171.12,-265.48 178.12,-265.58"/>
</g>
<!-- node0x5e8153100130 -->
<g id="node11" class="node">
<title>node0x5e8153100130</title>
<path fill="#98f5e1" stroke="#5f5b6a" d="M13,-146.5C13,-146.5 43,-146.5 43,-146.5 49,-146.5 55,-152.5 55,-158.5 55,-158.5 55,-170.5 55,-170.5 55,-176.5 49,-182.5 43,-182.5 43,-182.5 13,-182.5 13,-182.5 7,-182.5 1,-176.5 1,-170.5 1,-170.5 1,-158.5 1,-158.5 1,-152.5 7,-146.5 13,-146.5"/>
<text text-anchor="middle" x="28" y="-160.8" font-family="Times,serif" font-size="14.00">1</text>
</g>
<!-- node0x5e8153100100&#45;&gt;node0x5e8153100130 -->
<g id="edge10" class="edge">
<title>node0x5e8153100100&#45;&gt;node0x5e8153100130</title>
<path fill="none" stroke="#5f5b6a" d="M84.09,-219.31C74.82,-210.42 63.34,-199.41 53.19,-189.67"/>
<polygon fill="#5f5b6a" stroke="#5f5b6a" points="55.39,-186.93 45.75,-182.53 50.54,-191.98 55.39,-186.93"/>
</g>
<!-- node0x5e8153100160 -->
<g id="node12" class="node">
<title>node0x5e8153100160</title>
<path fill="#8eecf5" stroke="#5f5b6a" d="M85.5,-146.5C85.5,-146.5 118.5,-146.5 118.5,-146.5 124.5,-146.5 130.5,-152.5 130.5,-158.5 130.5,-158.5 130.5,-170.5 130.5,-170.5 130.5,-176.5 124.5,-182.5 118.5,-182.5 118.5,-182.5 85.5,-182.5 85.5,-182.5 79.5,-182.5 73.5,-176.5 73.5,-170.5 73.5,-170.5 73.5,-158.5 73.5,-158.5 73.5,-152.5 79.5,-146.5 85.5,-146.5"/>
<text text-anchor="middle" x="102" y="-160.8" font-family="Times,serif" font-size="14.00">10.00</text>
</g>
<!-- node0x5e8153100100&#45;&gt;node0x5e8153100160 -->
<g id="edge11" class="edge">
<title>node0x5e8153100100&#45;&gt;node0x5e8153100160</title>
<path fill="none" stroke="#5f5b6a" d="M102,-219.31C102,-211.29 102,-201.55 102,-192.57"/>
<polygon fill="#5f5b6a" stroke="#5f5b6a" points="105.5,-192.53 102,-182.53 98.5,-192.53 105.5,-192.53"/>
</g>
<!-- node0x5e81531001c0 -->
<g id="node14" class="node">
<title>node0x5e81531001c0</title>
<path fill="#cfbaf0" stroke="#5f5b6a" d="M161,-146.5C161,-146.5 191,-146.5 191,-146.5 197,-146.5 203,-152.5 203,-158.5 203,-158.5 203,-170.5 203,-170.5 203,-176.5 197,-182.5 191,-182.5 191,-182.5 161,-182.5 161,-182.5 155,-182.5 149,-176.5 149,-170.5 149,-170.5 149,-158.5 149,-158.5 149,-152.5 155,-146.5 161,-146.5"/>
<text text-anchor="middle" x="176" y="-160.8" font-family="Times,serif" font-size="14.00">=</text>
</g>
<!-- node0x5e8153100190&#45;&gt;node0x5e81531001c0 -->
<g id="edge13" class="edge">
<title>node0x5e8153100190&#45;&gt;node0x5e81531001c0</title>
<path fill="none" stroke="#5f5b6a" d="M175.24,-219.31C175.36,-211.29 175.49,-201.55 175.62,-192.57"/>
<polygon fill="#5f5b6a" stroke="#5f5b6a" points="179.12,-192.58 175.76,-182.53 172.12,-192.48 179.12,-192.58"/>
</g>
<!-- node0x5e81531001f0 -->
<g id="node15" class="node">
<title>node0x5e81531001f0</title>
<path fill="#98f5e1" stroke="#5f5b6a" d="M125,-73.5C125,-73.5 155,-73.5 155,-73.5 161,-73.5 167,-79.5 167,-85.5 167,-85.5 167,-97.5 167,-97.5 167,-103.5 161,-109.5 155,-109.5 155,-109.5 125,-109.5 125,-109.5 119,-109.5 113,-103.5 113,-97.5 113,-97.5 113,-85.5 113,-85.5 113,-79.5 119,-73.5 125,-73.5"/>
<text text-anchor="middle" x="140" y="-87.8" font-family="Times,serif" font-size="14.00">1</text>
</g>
<!-- node0x5e81531001c0&#45;&gt;node0x5e81531001f0 -->
<g id="edge14" class="edge">
<title>node0x5e81531001c0&#45;&gt;node0x5e81531001f0</title>
<path fill="none" stroke="#5f5b6a" d="M167.29,-146.31C163.08,-138.03 157.95,-127.91 153.28,-118.69"/>
<polygon fill="#5f5b6a" stroke="#5f5b6a" points="156.28,-116.87 148.63,-109.53 150.04,-120.03 156.28,-116.87"/>
</g>
<!-- node0x5e8153100220 -->
<g id="node16" class="node">
<title>node0x5e8153100220</title>
<path fill="#cfbaf0" stroke="#5f5b6a" d="M197,-73.5C197,-73.5 227,-73.5 227,-73.5 233,-73.5 239,-79.5 239,-85.5 239,-85.5 239,-97.5 239,-97.5 239,-103.5 233,-109.5 227,-109.5 227,-109.5 197,-109.5 197,-109.5 191,-109.5 185,-103.5 185,-97.5 185,-97.5 185,-85.5 185,-85.5 185,-79.5 191,-73.5 197,-73.5"/>
<text text-anchor="middle" x="212" y="-87.8" font-family="Times,serif" font-size="14.00">&#45;</text>
</g>
<!-- node0x5e81531001c0&#45;&gt;node0x5e8153100220 -->
<g id="edge15" class="edge">
<title>node0x5e81531001c0&#45;&gt;node0x5e8153100220</title>
<path fill="none" stroke="#5f5b6a" d="M184.71,-146.31C188.92,-138.03 194.05,-127.91 198.72,-118.69"/>
<polygon fill="#5f5b6a" stroke="#5f5b6a" points="201.96,-120.03 203.37,-109.53 195.72,-116.87 201.96,-120.03"/>
</g>
<!-- node0x5e8153100250 -->
<g id="node17" class="node">
<title>node0x5e8153100250</title>
<path fill="#8eecf5" stroke="#5f5b6a" d="M161,-0.5C161,-0.5 191,-0.5 191,-0.5 197,-0.5 203,-6.5 203,-12.5 203,-12.5 203,-24.5 203,-24.5 203,-30.5 197,-36.5 191,-36.5 191,-36.5 161,-36.5 161,-36.5 155,-36.5 149,-30.5 149,-24.5 149,-24.5 149,-12.5 149,-12.5 149,-6.5 155,-0.5 161,-0.5"/>
<text text-anchor="middle" x="176" y="-14.8" font-family="Times,serif" font-size="14.00">9.00</text>
</g>
<!-- node0x5e8153100220&#45;&gt;node0x5e8153100250 -->
<g id="edge16" class="edge">
<title>node0x5e8153100220&#45;&gt;node0x5e8153100250</title>
<path fill="none" stroke="#5f5b6a" d="M203.29,-73.31C199.08,-65.03 193.95,-54.91 189.28,-45.69"/>
<polygon fill="#5f5b6a" stroke="#5f5b6a" points="192.28,-43.87 184.63,-36.53 186.04,-47.03 192.28,-43.87"/>
</g>
<!-- node0x5e8153100280 -->
<g id="node18" class="node">
<title>node0x5e8153100280</title>
<path fill="#98f5e1" stroke="#5f5b6a" d="M233,-0.5C233,-0.5 263,-0.5 263,-0.5 269,-0.5 275,-6.5 275,-12.5 275,-12.5 275,-24.5 275,-24.5 275,-30.5 269,-36.5 263,-36.5 263,-36.5 233,-36.5 233,-36.5 227,-36.5 221,-30.5 221,-24.5 221,-24.5 221,-12.5 221,-12.5 221,-6.5 227,-0.5 233,-0.5"/>
<text text-anchor="middle" x="248" y="-14.8" font-family="Times,serif" font-size="14.00">0</text>
</g>
<!-- node0x5e8153100220&#45;&gt;node0x5e8153100280 -->
<g id="edge17" class="edge">
<title>node0x5e8153100220&#45;&gt;node0x5e8153100280</title>
<path fill="none" stroke="#5f5b6a" d="M220.71,-73.31C224.92,-65.03 230.05,-54.91 234.72,-45.69"/>
<polygon fill="#5f5b6a" stroke="#5f5b6a" points="237.96,-47.03 239.37,-36.53 231.72,-43.87 237.96,-47.03"/>
</g>
<!-- node0x5e81531002e0 -->
<g id="node20" class="node">
<title>node0x5e81531002e0</title>
<path fill="#cfbaf0" stroke="#5f5b6a" d="M232,-292.5C232,-292.5 262,-292.5 262,-292.5 268,-292.5 274,-298.5 274,-304.5 274,-304.5 274,-316.5 274,-316.5 274,-322.5 268,-328.5 262,-328.5 262,-328.5 232,-328.5 232,-328.5 226,-328.5 220,-322.5 220,-316.5 220,-316.5 220,-304.5 220,-304.5 220,-298.5 226,-292.5 232,-292.5"/>
<text text-anchor="middle" x="247" y="-306.8" font-family="Times,serif" font-size="14.00">=</text>
</g>
<!-- node0x5e81531002b0&#45;&gt;node0x5e81531002e0 -->
<g id="edge19" class="edge">
<title>node0x5e81531002b0&#45;&gt;node0x5e81531002e0</title>
<path fill="none" stroke="#5f5b6a" d="M247,-365.31C247,-357.29 247,-347.55 247,-338.57"/>
<polygon fill="#5f5b6a" stroke="#5f5b6a" points="250.5,-338.53 247,-328.53 243.5,-338.53 250.5,-338.53"/>
</g>
<!-- node0x5e8153100310 -->
<g id="node21" class="node">
<title>node0x5e8153100310</title>
<path fill="#98f5e1" stroke="#5f5b6a" d="M232,-219.5C232,-219.5 262,-219.5 262,-219.5 268,-219.5 274,-225.5 274,-231.5 274,-231.5 274,-243.5 274,-243.5 274,-249.5 268,-255.5 262,-255.5 262,-255.5 232,-255.5 232,-255.5 226,-255.5 220,-249.5 220,-243.5 220,-243.5 220,-231.5 220,-231.5 220,-225.5 226,-219.5 232,-219.5"/>
<text text-anchor="middle" x="247" y="-233.8" font-family="Times,serif" font-size="14.00">0</text>
</g>
<!-- node0x5e81531002e0&#45;&gt;node0x5e8153100310 -->
<g id="edge20" class="edge">
<title>node0x5e81531002e0&#45;&gt;node0x5e8153100310</title>
<path fill="none" stroke="#5f5b6a" d="M247,-292.31C247,-284.29 247,-274.55 247,-265.57"/>
<polygon fill="#5f5b6a" stroke="#5f5b6a" points="250.5,-265.53 247,-255.53 243.5,-265.53 250.5,-265.53"/>
</g>
<!-- node0x5e8153100340 -->
<g id="node22" class="node">
<title>node0x5e8153100340</title>
<path fill="#8eecf5" stroke="#5f5b6a" d="M304.5,-219.5C304.5,-219.5 337.5,-219.5 337.5,-219.5 343.5,-219.5 349.5,-225.5 349.5,-231.5 349.5,-231.5 349.5,-243.5 349.5,-243.5 349.5,-249.5 343.5,-255.5 337.5,-255.5 337.5,-255.5 304.5,-255.5 304.5,-255.5 298.5,-255.5 292.5,-249.5 292.5,-243.5 292.5,-243.5 292.5,-231.5 292.5,-231.5 292.5,-225.5 298.5,-219.5 304.5,-219.5"/>
<text text-anchor="middle" x="321" y="-233.8" font-family="Times,serif" font-size="14.00">10.00</text>
</g>
<!-- node0x5e81531002e0&#45;&gt;node0x5e8153100340 -->
<g id="edge21" class="edge">
<title>node0x5e81531002e0&#45;&gt;node0x5e8153100340</title>
<path fill="none" stroke="#5f5b6a" d="M264.91,-292.31C274.18,-283.42 285.66,-272.41 295.81,-262.67"/>
<polygon fill="#5f5b6a" stroke="#5f5b6a" points="298.46,-264.98 303.25,-255.53 293.61,-259.93 298.46,-264.98"/>
</g>
<!-- node0x5e81531003a0 -->
<g id="node24" class="node">
<title>node0x5e81531003a0</title>
<path fill="#f1c0e8" stroke="#5f5b6a" d="M286,-511.5C286,-511.5 316,-511.5 316,-511.5 322,-511.5 328,-517.5 328,-523.5 328,-523.5 328,-535.5 328,-535.5 328,-541.5 322,-547.5 316,-547.5 316,-547.5 286,-547.5 286,-547.5 280,-547.5 274,-541.5 274,-535.5 274,-535.5 274,-523.5 274,-523.5 274,-517.5 280,-511.5 286,-511.5"/>
<text text-anchor="middle" x="301" y="-525.8" font-family="Times,serif" font-size="14.00">if</text>
</g>
<!-- node0x5e8153100370&#45;&gt;node0x5e81531003a0 -->
<g id="edge23" class="edge">
<title>node0x5e8153100370&#45;&gt;node0x5e81531003a0</title>
<path fill="none" stroke="#5f5b6a" d="M273.71,-584.31C277.92,-576.03 283.05,-565.91 287.72,-556.69"/>
<polygon fill="#5f5b6a" stroke="#5f5b6a" points="290.96,-558.03 292.37,-547.53 284.72,-554.87 290.96,-558.03"/>
</g>
<!-- node0x5e81531003d0 -->
<g id="node25" class="node">
<title>node0x5e81531003d0</title>
<path fill="#ffcfd2" stroke="#5f5b6a" d="M321,-438.5C321,-438.5 353,-438.5 353,-438.5 359,-438.5 365,-444.5 365,-450.5 365,-450.5 365,-462.5 365,-462.5 365,-468.5 359,-474.5 353,-474.5 353,-474.5 321,-474.5 321,-474.5 315,-474.5 309,-468.5 309,-462.5 309,-462.5 309,-450.5 309,-450.5 309,-444.5 315,-438.5 321,-438.5"/>
<text text-anchor="middle" x="337" y="-452.8" font-family="Times,serif" font-size="14.00">no op</text>
</g>
<!-- node0x5e81531003a0&#45;&gt;node0x5e81531003d0 -->
<g id="edge24" class="edge">
<title>node0x5e81531003a0&#45;&gt;node0x5e81531003d0</title>
<path fill="none" stroke="#5f5b6a" d="M309.71,-511.31C313.92,-503.03 319.05,-492.91 323.72,-483.69"/>
<polygon fill="#5f5b6a" stroke="#5f5b6a" points="326.96,-485.03 328.37,-474.53 320.72,-481.87 326.96,-485.03"/>
</g>
<!-- node0x5e8153100400 -->
<g id="node26" class="node">
<title>node0x5e8153100400</title>
<path fill="#cfbaf0" stroke="#5f5b6a" d="M322,-365.5C322,-365.5 352,-365.5 352,-365.5 358,-365.5 364,-371.5 364,-377.5 364,-377.5 364,-389.5 364,-389.5 364,-395.5 358,-401.5 352,-401.5 352,-401.5 322,-401.5 322,-401.5 316,-401.5 310,-395.5 310,-389.5 310,-389.5 310,-377.5 310,-377.5 310,-371.5 316,-365.5 322,-365.5"/>
<text text-anchor="middle" x="337" y="-379.8" font-family="Times,serif" font-size="14.00">&lt;</text>
</g>
<!-- node0x5e81531003d0&#45;&gt;node0x5e8153100400 -->
<g id="edge25" class="edge">
<title>node0x5e81531003d0&#45;&gt;node0x5e8153100400</title>
<path fill="none" stroke="#5f5b6a" d="M337,-438.31C337,-430.29 337,-420.55 337,-411.57"/>
<polygon fill="#5f5b6a" stroke="#5f5b6a" points="340.5,-411.53 337,-401.53 333.5,-411.53 340.5,-411.53"/>
</g>
<!-- node0x5e8153100490 -->
<g id="node29" class="node">
<title>node0x5e8153100490</title>
<path fill="#ffcfd2" stroke="#5f5b6a" d="M430,-365.5C430,-365.5 460,-365.5 460,-365.5 466,-365.5 472,-371.5 472,-377.5 472,-377.5 472,-389.5 472,-389.5 472,-395.5 466,-401.5 460,-401.5 460,-401.5 430,-401.5 430,-401.5 424,-401.5 418,-395.5 418,-389.5 418,-389.5 418,-377.5 418,-377.5 418,-371.5 424,-365.5 430,-365.5"/>
<text text-anchor="middle" x="445" y="-379.8" font-family="Times,serif" font-size="14.00">;</text>
</g>
<!-- node0x5e81531003d0&#45;&gt;node0x5e8153100490 -->
<g id="edge28" class="edge">
<title>node0x5e81531003d0&#45;&gt;node0x5e8153100490</title>
<path fill="none" stroke="#5f5b6a" d="M362.87,-438.49C377.06,-429.17 394.84,-417.47 410.23,-407.36"/>
<polygon fill="#5f5b6a" stroke="#5f5b6a" points="412.53,-410.03 418.97,-401.61 408.69,-404.18 412.53,-410.03"/>
</g>
<!-- node0x5e8153100430 -->
<g id="node27" class="node">
<title>node0x5e8153100430</title>
<path fill="#98f5e1" stroke="#5f5b6a" d="M304,-292.5C304,-292.5 334,-292.5 334,-292.5 340,-292.5 346,-298.5 346,-304.5 346,-304.5 346,-316.5 346,-316.5 346,-322.5 340,-328.5 334,-328.5 334,-328.5 304,-328.5 304,-328.5 298,-328.5 292,-322.5 292,-316.5 292,-316.5 292,-304.5 292,-304.5 292,-298.5 298,-292.5 304,-292.5"/>
<text text-anchor="middle" x="319" y="-306.8" font-family="Times,serif" font-size="14.00">0</text>
</g>
<!-- node0x5e8153100400&#45;&gt;node0x5e8153100430 -->
<g id="edge26" class="edge">
<title>node0x5e8153100400&#45;&gt;node0x5e8153100430</title>
<path fill="none" stroke="#5f5b6a" d="M332.64,-365.31C330.59,-357.2 328.09,-347.34 325.79,-338.28"/>
<polygon fill="#5f5b6a" stroke="#5f5b6a" points="329.17,-337.36 323.32,-328.53 322.38,-339.08 329.17,-337.36"/>
</g>
<!-- node0x5e8153100460 -->
<g id="node28" class="node">
<title>node0x5e8153100460</title>
<path fill="#8eecf5" stroke="#5f5b6a" d="M376,-292.5C376,-292.5 406,-292.5 406,-292.5 412,-292.5 418,-298.5 418,-304.5 418,-304.5 418,-316.5 418,-316.5 418,-322.5 412,-328.5 406,-328.5 406,-328.5 376,-328.5 376,-328.5 370,-328.5 364,-322.5 364,-316.5 364,-316.5 364,-304.5 364,-304.5 364,-298.5 370,-292.5 376,-292.5"/>
<text text-anchor="middle" x="391" y="-306.8" font-family="Times,serif" font-size="14.00">8.00</text>
</g>
<!-- node0x5e8153100400&#45;&gt;node0x5e8153100460 -->
<g id="edge27" class="edge">
<title>node0x5e8153100400&#45;&gt;node0x5e8153100460</title>
<path fill="none" stroke="#5f5b6a" d="M350.07,-365.31C356.64,-356.68 364.72,-346.06 371.96,-336.53"/>
<polygon fill="#5f5b6a" stroke="#5f5b6a" points="374.78,-338.61 378.05,-328.53 369.21,-334.37 374.78,-338.61"/>
</g>
<!-- node0x5e81531004c0 -->
<g id="node30" class="node">
<title>node0x5e81531004c0</title>
<path fill="#cfbaf0" stroke="#5f5b6a" d="M448,-292.5C448,-292.5 478,-292.5 478,-292.5 484,-292.5 490,-298.5 490,-304.5 490,-304.5 490,-316.5 490,-316.5 490,-322.5 484,-328.5 478,-328.5 478,-328.5 448,-328.5 448,-328.5 442,-328.5 436,-322.5 436,-316.5 436,-316.5 436,-304.5 436,-304.5 436,-298.5 442,-292.5 448,-292.5"/>
<text text-anchor="middle" x="463" y="-306.8" font-family="Times,serif" font-size="14.00">=</text>
</g>
<!-- node0x5e8153100490&#45;&gt;node0x5e81531004c0 -->
<g id="edge29" class="edge">
<title>node0x5e8153100490&#45;&gt;node0x5e81531004c0</title>
<path fill="none" stroke="#5f5b6a" d="M449.36,-365.31C451.41,-357.2 453.91,-347.34 456.21,-338.28"/>
<polygon fill="#5f5b6a" stroke="#5f5b6a" points="459.62,-339.08 458.68,-328.53 452.83,-337.36 459.62,-339.08"/>
</g>
<!-- node0x5e81531004f0 -->
<g id="node31" class="node">
<title>node0x5e81531004f0</title>
<path fill="#98f5e1" stroke="#5f5b6a" d="M414,-219.5C414,-219.5 444,-219.5 444,-219.5 450,-219.5 456,-225.5 456,-231.5 456,-231.5 456,-243.5 456,-243.5 456,-249.5 450,-255.5 444,-255.5 444,-255.5 414,-255.5 414,-255.5 408,-255.5 402,-249.5 402,-243.5 402,-243.5 402,-231.5 402,-231.5 402,-225.5 408,-219.5 414,-219.5"/>
<text text-anchor="middle" x="429" y="-233.8" font-family="Times,serif" font-size="14.00">0</text>
</g>
<!-- node0x5e81531004c0&#45;&gt;node0x5e81531004f0 -->
<g id="edge30" class="edge">
<title>node0x5e81531004c0&#45;&gt;node0x5e81531004f0</title>
<path fill="none" stroke="#5f5b6a" d="M454.77,-292.31C450.8,-284.03 445.96,-273.91 441.54,-264.69"/>
<polygon fill="#5f5b6a" stroke="#5f5b6a" points="444.63,-263.04 437.15,-255.53 438.32,-266.06 444.63,-263.04"/>
</g>
<!-- node0x5e8153100520 -->
<g id="node32" class="node">
<title>node0x5e8153100520</title>
<path fill="#8eecf5" stroke="#5f5b6a" d="M486,-219.5C486,-219.5 516,-219.5 516,-219.5 522,-219.5 528,-225.5 528,-231.5 528,-231.5 528,-243.5 528,-243.5 528,-249.5 522,-255.5 516,-255.5 516,-255.5 486,-255.5 486,-255.5 480,-255.5 474,-249.5 474,-243.5 474,-243.5 474,-231.5 474,-231.5 474,-225.5 480,-219.5 486,-219.5"/>
<text text-anchor="middle" x="501" y="-233.8" font-family="Times,serif" font-size="14.00">9.00</text>
</g>
<!-- node0x5e81531004c0&#45;&gt;node0x5e8153100520 -->
<g id="edge31" class="edge">
<title>node0x5e81531004c0&#45;&gt;node0x5e8153100520</title>
<path fill="none" stroke="#5f5b6a" d="M472.2,-292.31C476.68,-283.94 482.16,-273.7 487.14,-264.4"/>
<polygon fill="#5f5b6a" stroke="#5f5b6a" points="490.25,-266 491.89,-255.53 484.08,-262.69 490.25,-266"/>
</g>
</g>
</svg>
