<?xml version="1.0" encoding="UTF-8" standalone="no"?>
<!DOCTYPE svg PUBLIC "-//W3C//DTD SVG 1.1//EN"
 "http://www.w3.org/Graphics/SVG/1.1/DTD/svg11.dtd">
<!-- Generated by graphviz version 2.43.0 (0)
 -->
<!-- Title: Tree Pages: 1 -->
<svg width="206pt" height="337pt"
 viewBox="0.00 0.00 206.00 337.00" xmlns="http://www.w3.org/2000/svg" xmlns:xlink="http://www.w3.org/1999/xlink">
<g id="graph0" class="graph" transform="scale(1 1) rotate(0) translate(4 333)">
<title>Tree</title>
<polygon fill="#fffeec" stroke="transparent" points="-4,4 -4,-333 202,-333 202,4 -4,4"/>
<!-- node0x5e495266f750 -->
<g id="node1" class="node">
<title>node0x5e495266f750</title>
<path fill="#ffcfd2" stroke="#5f5b6a" d="M48,-292.5C48,-292.5 78,-292.5 78,-292.5 84,-292.5 90,-298.5 90,-304.5 90,-304.5 90,-316.5 90,-316.5 90,-322.5 84,-328.5 78,-328.5 78,-328.5 48,-328.5 48,-328.5 42,-328.5 36,-322.5 36,-316.5 36,-316.5 36,-304.5 36,-304.5 36,-298.5 42,-292.5 48,-292.5"/>
<text text-anchor="middle" x="63" y="-306.8" font-family="Times,serif" font-size="14.00">;</text>
</g>
<!-- node0x5e495266f780 -->
<g id="node2" class="node">
<title>node0x5e495266f780</title>
<path fill="#cfbaf0" stroke="#5f5b6a" d="M48,-219.5C48,-219.5 78,-219.5 78,-219.5 84,-219.5 90,-225.5 90,-231.5 90,-231.5 90,-243.5 90,-243.5 90,-249.5 84,-255.5 78,-255.5 78,-255.5 48,-255.5 48,-255.5 42,-255.5 36,-249.5 36,-243.5 36,-243.5 36,-231.5 36,-231.5 36,-225.5 42,-219.5 48,-219.5"/>
<text text-anchor="middle" x="63" y="-233.8" font-family="Times,serif" font-size="14.00">=</text>
</g>
<!-- node0x5e495266f750&#45;&gt;node0x5e495266f780 -->
<g id="edge1" class="edge">
<title>node0x5e495266f750&#45;&gt;node0x5e495266f780</title>
<path fill="none" stroke="#5f5b6a" d="M63,-292.31C63,-284.29 63,-274.55 63,-265.57"/>
<polygon fill="#5f5b6a" stroke="#5f5b6a" points="66.5,-265.53 63,-255.53 59.5,-265.53 66.5,-265.53"/>
</g>
<!-- node0x5e495266f7b0 -->
<g id="node3" class="node">
<title>node0x5e495266f7b0</title>
<path fill="#98f5e1" stroke="#5f5b6a" d="M12,-146.5C12,-146.5 42,-146.5 42,-146.5 48,-146.5 54,-152.5 54,-158.5 54,-158.5 54,-170.5 54,-170.5 54,-176.5 48,-182.5 42,-182.5 42,-182.5 12,-182.5 12,-182.5 6,-182.5 0,-176.5 0,-170.5 0,-170.5 0,-158.5 0,-158.5 0,-152.5 6,-146.5 12,-146.5"/>
<text text-anchor="middle" x="27" y="-160.8" font-family="Times,serif" font-size="14.00">0</text>
</g>
<!-- node0x5e495266f780&#45;&gt;node0x5e495266f7b0 -->
<g id="edge2" class="edge">
<title>node0x5e495266f780&#45;&gt;node0x5e495266f7b0</title>
<path fill="none" stroke="#5f5b6a" d="M54.29,-219.31C50.08,-211.03 44.95,-200.91 40.28,-191.69"/>
<polygon fill="#5f5b6a" stroke="#5f5b6a" points="43.28,-189.87 35.63,-182.53 37.04,-193.03 43.28,-189.87"/>
</g>
<!-- node0x5e495266f7e0 -->
<g id="node4" class="node">
<title>node0x5e495266f7e0</title>
<path fill="#cfbaf0" stroke="#5f5b6a" d="M84,-146.5C84,-146.5 114,-146.5 114,-146.5 120,-146.5 126,-152.5 126,-158.5 126,-158.5 126,-170.5 126,-170.5 126,-176.5 120,-182.5 114,-182.5 114,-182.5 84,-182.5 84,-182.5 78,-182.5 72,-176.5 72,-170.5 72,-170.5 72,-158.5 72,-158.5 72,-152.5 78,-146.5 84,-146.5"/>
<text text-anchor="middle" x="99" y="-160.8" font-family="Times,serif" font-size="14.00">+</text>
</g>
<!-- node0x5e495266f780&#45;&gt;node0x5e495266f7e0 -->
<g id="edge3" class="edge">
<title>node0x5e495266f780&#45;&gt;node0x5e495266f7e0</title>
<path fill="none" stroke="#5f5b6a" d="M71.71,-219.31C75.92,-211.03 81.05,-200.91 85.72,-191.69"/>
<polygon fill="#5f5b6a" stroke="#5f5b6a" points="88.96,-193.03 90.37,-182.53 82.72,-189.87 88.96,-193.03"/>
</g>
<!-- node0x5e495266f810 -->
<g id="node5" class="node">
<title>node0x5e495266f810</title>
<path fill="#98f5e1" stroke="#5f5b6a" d="M48,-73.5C48,-73.5 78,-73.5 78,-73.5 84,-73.5 90,-79.5 90,-85.5 90,-85.5 90,-97.5 90,-97.5 90,-103.5 84,-109.5 78,-109.5 78,-109.5 48,-109.5 48,-109.5 42,-109.5 36,-103.5 36,-97.5 36,-97.5 36,-85.5 36,-85.5 36,-79.5 42,-73.5 48,-73.5"/>
<text text-anchor="middle" x="63" y="-87.8" font-family="Times,serif" font-size="14.00">1</text>
</g>
<!-- node0x5e495266f7e0&#45;&gt;node0x5e495266f810 -->
<g id="edge4" class="edge">
<title>node0x5e495266f7e0&#45;&gt;node0x5e495266f810</title>
<path fill="none" stroke="#5f5b6a" d="M90.29,-146.31C86.08,-138.03 80.95,-127.91 76.28,-118.69"/>
<polygon fill="#5f5b6a" stroke="#5f5b6a" points="79.28,-116.87 71.63,-109.53 73.04,-120.03 79.28,-116.87"/>
</g>
<!-- node0x5e495266f840 -->
<g id="node6" class="node">
<title>node0x5e495266f840</title>
<path fill="#cfbaf0" stroke="#5f5b6a" d="M120,-73.5C120,-73.5 150,-73.5 150,-73.5 156,-73.5 162,-79.5 162,-85.5 162,-85.5 162,-97.5 162,-97.5 162,-103.5 156,-109.5 150,-109.5 150,-109.5 120,-109.5 120,-109.5 114,-109.5 108,-103.5 108,-97.5 108,-97.5 108,-85.5 108,-85.5 108,-79.5 114,-73.5 120,-73.5"/>
<text text-anchor="middle" x="135" y="-87.8" font-family="Times,serif" font-size="14.00">*</text>
</g>
<!-- node0x5e495266f7e0&#45;&gt;node0x5e495266f840 -->
<g id="edge5" class="edge">
<title>node0x5e495266f7e0&#45;&gt;node0x5e495266f840</title>
<path fill="none" stroke="#5f5b6a" d="M107.71,-146.31C111.92,-138.03 117.05,-127.91 121.72,-118.69"/>
<polygon fill="#5f5b6a" stroke="#5f5b6a" points="124.96,-120.03 126.37,-109.53 118.72,-116.87 124.96,-120.03"/>
</g>
<!-- node0x5e495266f870 -->
<g id="node7" class="node">
<title>node0x5e495266f870</title>
<path fill="#8eecf5" stroke="#5f5b6a" d="M84,-0.5C84,-0.5 114,-0.5 114,-0.5 120,-0.5 126,-6.5 126,-12.5 126,-12.5 126,-24.5 126,-24.5 126,-30.5 120,-36.5 114,-36.5 114,-36.5 84,-36.5 84,-36.5 78,-36.5 72,-30.5 72,-24.5 72,-24.5 72,-12.5 72,-12.5 72,-6.5 78,-0.5 84,-0.5"/>
<text text-anchor="middle" x="99" y="-14.8" font-family="Times,serif" font-size="14.00">9.00</text>
</g>
<!-- node0x5e495266f840&#45;&gt;node0x5e495266f870 -->
<g id="edge6" class="edge">
<title>node0x5e495266f840&#45;&gt;node0x5e495266f870</title>
<path fill="none" stroke="#5f5b6a" d="M126.29,-73.31C122.08,-65.03 116.95,-54.91 112.28,-45.69"/>
<polygon fill="#5f5b6a" stroke="#5f5b6a" points="115.28,-43.87 107.63,-36.53 109.04,-47.03 115.28,-43.87"/>
</g>
<!-- node0x5e495266f8a0 -->
<g id="node8" class="node">
<title>node0x5e495266f8a0</title>
<path fill="#8eecf5" stroke="#5f5b6a" d="M156,-0.5C156,-0.5 186,-0.5 186,-0.5 192,-0.5 198,-6.5 198,-12.5 198,-12.5 198,-24.5 198,-24.5 198,-30.5 192,-36.5 186,-36.5 186,-36.5 156,-36.5 156,-36.5 150,-36.5 144,-30.5 144,-24.5 144,-24.5 144,-12.5 144,-12.5 144,-6.5 150,-0.5 156,-0.5"/>
<text text-anchor="middle" x="171" y="-14.8" font-family="Times,serif" font-size="14.00">8.00</text>
</g>
<!-- node0x5e495266f840&#45;&gt;node0x5e495266f8a0 -->
<g id="edge7" class="edge">
<title>node0x5e495266f840&#45;&gt;node0x5e495266f8a0</title>
<path fill="none" stroke="#5f5b6a" d="M143.71,-73.31C147.92,-65.03 153.05,-54.91 157.72,-45.69"/>
<polygon fill="#5f5b6a" stroke="#5f5b6a" points="160.96,-47.03 162.37,-36.53 154.72,-43.87 160.96,-47.03"/>
</g>
</g>
</svg>
