<?xml version="1.0" encoding="UTF-8" standalone="no"?>
<!DOCTYPE svg PUBLIC "-//W3C//DTD SVG 1.1//EN"
 "http://www.w3.org/Graphics/SVG/1.1/DTD/svg11.dtd">
<!-- Generated by graphviz version 2.43.0 (0)
 -->
<!-- Title: Tree Pages: 1 -->
<svg width="676pt" height="921pt"
 viewBox="0.00 0.00 676.00 921.00" xmlns="http://www.w3.org/2000/svg" xmlns:xlink="http://www.w3.org/1999/xlink">
<g id="graph0" class="graph" transform="scale(1 1) rotate(0) translate(4 917)">
<title>Tree</title>
<polygon fill="#fffeec" stroke="transparent" points="-4,4 -4,-917 672,-917 672,4 -4,4"/>
<!-- node0x5aa331320320 -->
<g id="node1" class="node">
<title>node0x5aa331320320</title>
<path fill="#ffcfd2" stroke="#5f5b6a" d="M48,-876.5C48,-876.5 78,-876.5 78,-876.5 84,-876.5 90,-882.5 90,-888.5 90,-888.5 90,-900.5 90,-900.5 90,-906.5 84,-912.5 78,-912.5 78,-912.5 48,-912.5 48,-912.5 42,-912.5 36,-906.5 36,-900.5 36,-900.5 36,-888.5 36,-888.5 36,-882.5 42,-876.5 48,-876.5"/>
<text text-anchor="middle" x="63" y="-890.8" font-family="Times,serif" font-size="14.00">;</text>
</g>
<!-- node0x5aa331320350 -->
<g id="node2" class="node">
<title>node0x5aa331320350</title>
<path fill="#a3c4f3" stroke="#5f5b6a" d="M12,-803.5C12,-803.5 42,-803.5 42,-803.5 48,-803.5 54,-809.5 54,-815.5 54,-815.5 54,-827.5 54,-827.5 54,-833.5 48,-839.5 42,-839.5 42,-839.5 12,-839.5 12,-839.5 6,-839.5 0,-833.5 0,-827.5 0,-827.5 0,-815.5 0,-815.5 0,-809.5 6,-803.5 12,-803.5"/>
<text text-anchor="middle" x="27" y="-817.8" font-family="Times,serif" font-size="14.00">input</text>
</g>
<!-- node0x5aa331320320&#45;&gt;node0x5aa331320350 -->
<g id="edge1" class="edge">
<title>node0x5aa331320320&#45;&gt;node0x5aa331320350</title>
<path fill="none" stroke="#5f5b6a" d="M54.29,-876.31C50.08,-868.03 44.95,-857.91 40.28,-848.69"/>
<polygon fill="#5f5b6a" stroke="#5f5b6a" points="43.28,-846.87 35.63,-839.53 37.04,-850.03 43.28,-846.87"/>
</g>
<!-- node0x5aa3313203b0 -->
<g id="node4" class="node">
<title>node0x5aa3313203b0</title>
<path fill="#ffcfd2" stroke="#5f5b6a" d="M84,-803.5C84,-803.5 114,-803.5 114,-803.5 120,-803.5 126,-809.5 126,-815.5 126,-815.5 126,-827.5 126,-827.5 126,-833.5 120,-839.5 114,-839.5 114,-839.5 84,-839.5 84,-839.5 78,-839.5 72,-833.5 72,-827.5 72,-827.5 72,-815.5 72,-815.5 72,-809.5 78,-803.5 84,-803.5"/>
<text text-anchor="middle" x="99" y="-817.8" font-family="Times,serif" font-size="14.00">;</text>
</g>
<!-- node0x5aa331320320&#45;&gt;node0x5aa3313203b0 -->
<g id="edge3" class="edge">
<title>node0x5aa331320320&#45;&gt;node0x5aa3313203b0</title>
<path fill="none" stroke="#5f5b6a" d="M71.71,-876.31C75.92,-868.03 81.05,-857.91 85.72,-848.69"/>
<polygon fill="#5f5b6a" stroke="#5f5b6a" points="88.96,-850.03 90.37,-839.53 82.72,-846.87 88.96,-850.03"/>
</g>
<!-- node0x5aa331320380 -->
<g id="node3" class="node">
<title>node0x5aa331320380</title>
<path fill="#89fbc0" stroke="#5f5b6a" d="M12,-730.5C12,-730.5 42,-730.5 42,-730.5 48,-730.5 54,-736.5 54,-742.5 54,-742.5 54,-754.5 54,-754.5 54,-760.5 48,-766.5 42,-766.5 42,-766.5 12,-766.5 12,-766.5 6,-766.5 0,-760.5 0,-754.5 0,-754.5 0,-742.5 0,-742.5 0,-736.5 6,-730.5 12,-730.5"/>
<text text-anchor="middle" x="27" y="-744.8" font-family="Times,serif" font-size="14.00">0</text>
</g>
<!-- node0x5aa331320350&#45;&gt;node0x5aa331320380 -->
<g id="edge2" class="edge">
<title>node0x5aa331320350&#45;&gt;node0x5aa331320380</title>
<path fill="none" stroke="#5f5b6a" d="M27,-803.31C27,-795.29 27,-785.55 27,-776.57"/>
<polygon fill="#5f5b6a" stroke="#5f5b6a" points="30.5,-776.53 27,-766.53 23.5,-776.53 30.5,-776.53"/>
</g>
<!-- node0x5aa3313203e0 -->
<g id="node5" class="node">
<title>node0x5aa3313203e0</title>
<path fill="#cfbaf0" stroke="#5f5b6a" d="M84,-730.5C84,-730.5 114,-730.5 114,-730.5 120,-730.5 126,-736.5 126,-742.5 126,-742.5 126,-754.5 126,-754.5 126,-760.5 120,-766.5 114,-766.5 114,-766.5 84,-766.5 84,-766.5 78,-766.5 72,-760.5 72,-754.5 72,-754.5 72,-742.5 72,-742.5 72,-736.5 78,-730.5 84,-730.5"/>
<text text-anchor="middle" x="99" y="-744.8" font-family="Times,serif" font-size="14.00">=</text>
</g>
<!-- node0x5aa3313203b0&#45;&gt;node0x5aa3313203e0 -->
<g id="edge4" class="edge">
<title>node0x5aa3313203b0&#45;&gt;node0x5aa3313203e0</title>
<path fill="none" stroke="#5f5b6a" d="M99,-803.31C99,-795.29 99,-785.55 99,-776.57"/>
<polygon fill="#5f5b6a" stroke="#5f5b6a" points="102.5,-776.53 99,-766.53 95.5,-776.53 102.5,-776.53"/>
</g>
<!-- node0x5aa331320470 -->
<g id="node8" class="node">
<title>node0x5aa331320470</title>
<path fill="#ffcfd2" stroke="#5f5b6a" d="M156,-730.5C156,-730.5 186,-730.5 186,-730.5 192,-730.5 198,-736.5 198,-742.5 198,-742.5 198,-754.5 198,-754.5 198,-760.5 192,-766.5 186,-766.5 186,-766.5 156,-766.5 156,-766.5 150,-766.5 144,-760.5 144,-754.5 144,-754.5 144,-742.5 144,-742.5 144,-736.5 150,-730.5 156,-730.5"/>
<text text-anchor="middle" x="171" y="-744.8" font-family="Times,serif" font-size="14.00">;</text>
</g>
<!-- node0x5aa3313203b0&#45;&gt;node0x5aa331320470 -->
<g id="edge7" class="edge">
<title>node0x5aa3313203b0&#45;&gt;node0x5aa331320470</title>
<path fill="none" stroke="#5f5b6a" d="M116.43,-803.31C125.45,-794.42 136.61,-783.41 146.49,-773.67"/>
<polygon fill="#5f5b6a" stroke="#5f5b6a" points="149.07,-776.04 153.73,-766.53 144.15,-771.06 149.07,-776.04"/>
</g>
<!-- node0x5aa331320410 -->
<g id="node6" class="node">
<title>node0x5aa331320410</title>
<path fill="#98f5e1" stroke="#5f5b6a" d="M12,-657.5C12,-657.5 42,-657.5 42,-657.5 48,-657.5 54,-663.5 54,-669.5 54,-669.5 54,-681.5 54,-681.5 54,-687.5 48,-693.5 42,-693.5 42,-693.5 12,-693.5 12,-693.5 6,-693.5 0,-687.5 0,-681.5 0,-681.5 0,-669.5 0,-669.5 0,-663.5 6,-657.5 12,-657.5"/>
<text text-anchor="middle" x="27" y="-671.8" font-family="Times,serif" font-size="14.00">1</text>
</g>
<!-- node0x5aa3313203e0&#45;&gt;node0x5aa331320410 -->
<g id="edge5" class="edge">
<title>node0x5aa3313203e0&#45;&gt;node0x5aa331320410</title>
<path fill="none" stroke="#5f5b6a" d="M81.57,-730.31C72.55,-721.42 61.39,-710.41 51.51,-700.67"/>
<polygon fill="#5f5b6a" stroke="#5f5b6a" points="53.85,-698.06 44.27,-693.53 48.93,-703.04 53.85,-698.06"/>
</g>
<!-- node0x5aa331320440 -->
<g id="node7" class="node">
<title>node0x5aa331320440</title>
<path fill="#8eecf5" stroke="#5f5b6a" d="M84,-657.5C84,-657.5 114,-657.5 114,-657.5 120,-657.5 126,-663.5 126,-669.5 126,-669.5 126,-681.5 126,-681.5 126,-687.5 120,-693.5 114,-693.5 114,-693.5 84,-693.5 84,-693.5 78,-693.5 72,-687.5 72,-681.5 72,-681.5 72,-669.5 72,-669.5 72,-663.5 78,-657.5 84,-657.5"/>
<text text-anchor="middle" x="99" y="-671.8" font-family="Times,serif" font-size="14.00">1.00</text>
</g>
<!-- node0x5aa3313203e0&#45;&gt;node0x5aa331320440 -->
<g id="edge6" class="edge">
<title>node0x5aa3313203e0&#45;&gt;node0x5aa331320440</title>
<path fill="none" stroke="#5f5b6a" d="M99,-730.31C99,-722.29 99,-712.55 99,-703.57"/>
<polygon fill="#5f5b6a" stroke="#5f5b6a" points="102.5,-703.53 99,-693.53 95.5,-703.53 102.5,-703.53"/>
</g>
<!-- node0x5aa3313204a0 -->
<g id="node9" class="node">
<title>node0x5aa3313204a0</title>
<path fill="#f1c0e8" stroke="#5f5b6a" d="M156.5,-657.5C156.5,-657.5 187.5,-657.5 187.5,-657.5 193.5,-657.5 199.5,-663.5 199.5,-669.5 199.5,-669.5 199.5,-681.5 199.5,-681.5 199.5,-687.5 193.5,-693.5 187.5,-693.5 187.5,-693.5 156.5,-693.5 156.5,-693.5 150.5,-693.5 144.5,-687.5 144.5,-681.5 144.5,-681.5 144.5,-669.5 144.5,-669.5 144.5,-663.5 150.5,-657.5 156.5,-657.5"/>
<text text-anchor="middle" x="172" y="-671.8" font-family="Times,serif" font-size="14.00">while</text>
</g>
<!-- node0x5aa331320470&#45;&gt;node0x5aa3313204a0 -->
<g id="edge8" class="edge">
<title>node0x5aa331320470&#45;&gt;node0x5aa3313204a0</title>
<path fill="none" stroke="#5f5b6a" d="M171.24,-730.31C171.36,-722.29 171.49,-712.55 171.62,-703.57"/>
<polygon fill="#5f5b6a" stroke="#5f5b6a" points="175.12,-703.58 171.76,-693.53 168.12,-703.48 175.12,-703.58"/>
</g>
<!-- node0x5aa3313204d0 -->
<g id="node10" class="node">
<title>node0x5aa3313204d0</title>
<path fill="#cfbaf0" stroke="#5f5b6a" d="M121,-584.5C121,-584.5 151,-584.5 151,-584.5 157,-584.5 163,-590.5 163,-596.5 163,-596.5 163,-608.5 163,-608.5 163,-614.5 157,-620.5 151,-620.5 151,-620.5 121,-620.5 121,-620.5 115,-620.5 109,-614.5 109,-608.5 109,-608.5 109,-596.5 109,-596.5 109,-590.5 115,-584.5 121,-584.5"/>
<text text-anchor="middle" x="136" y="-598.8" font-family="Times,serif" font-size="14.00">&lt;=</text>
</g>
<!-- node0x5aa3313204a0&#45;&gt;node0x5aa3313204d0 -->
<g id="edge9" class="edge">
<title>node0x5aa3313204a0&#45;&gt;node0x5aa3313204d0</title>
<path fill="none" stroke="#5f5b6a" d="M163.29,-657.31C159.08,-649.03 153.95,-638.91 149.28,-629.69"/>
<polygon fill="#5f5b6a" stroke="#5f5b6a" points="152.28,-627.87 144.63,-620.53 146.04,-631.03 152.28,-627.87"/>
</g>
<!-- node0x5aa331320560 -->
<g id="node13" class="node">
<title>node0x5aa331320560</title>
<path fill="#ffcfd2" stroke="#5f5b6a" d="M193,-584.5C193,-584.5 223,-584.5 223,-584.5 229,-584.5 235,-590.5 235,-596.5 235,-596.5 235,-608.5 235,-608.5 235,-614.5 229,-620.5 223,-620.5 223,-620.5 193,-620.5 193,-620.5 187,-620.5 181,-614.5 181,-608.5 181,-608.5 181,-596.5 181,-596.5 181,-590.5 187,-584.5 193,-584.5"/>
<text text-anchor="middle" x="208" y="-598.8" font-family="Times,serif" font-size="14.00">;</text>
</g>
<!-- node0x5aa3313204a0&#45;&gt;node0x5aa331320560 -->
<g id="edge12" class="edge">
<title>node0x5aa3313204a0&#45;&gt;node0x5aa331320560</title>
<path fill="none" stroke="#5f5b6a" d="M180.71,-657.31C184.92,-649.03 190.05,-638.91 194.72,-629.69"/>
<polygon fill="#5f5b6a" stroke="#5f5b6a" points="197.96,-631.03 199.37,-620.53 191.72,-627.87 197.96,-631.03"/>
</g>
<!-- node0x5aa331320500 -->
<g id="node11" class="node">
<title>node0x5aa331320500</title>
<path fill="#98f5e1" stroke="#5f5b6a" d="M49,-511.5C49,-511.5 79,-511.5 79,-511.5 85,-511.5 91,-517.5 91,-523.5 91,-523.5 91,-535.5 91,-535.5 91,-541.5 85,-547.5 79,-547.5 79,-547.5 49,-547.5 49,-547.5 43,-547.5 37,-541.5 37,-535.5 37,-535.5 37,-523.5 37,-523.5 37,-517.5 43,-511.5 49,-511.5"/>
<text text-anchor="middle" x="64" y="-525.8" font-family="Times,serif" font-size="14.00">1</text>
</g>
<!-- node0x5aa3313204d0&#45;&gt;node0x5aa331320500 -->
<g id="edge10" class="edge">
<title>node0x5aa3313204d0&#45;&gt;node0x5aa331320500</title>
<path fill="none" stroke="#5f5b6a" d="M118.57,-584.31C109.55,-575.42 98.39,-564.41 88.51,-554.67"/>
<polygon fill="#5f5b6a" stroke="#5f5b6a" points="90.85,-552.06 81.27,-547.53 85.93,-557.04 90.85,-552.06"/>
</g>
<!-- node0x5aa331320530 -->
<g id="node12" class="node">
<title>node0x5aa331320530</title>
<path fill="#98f5e1" stroke="#5f5b6a" d="M121,-511.5C121,-511.5 151,-511.5 151,-511.5 157,-511.5 163,-517.5 163,-523.5 163,-523.5 163,-535.5 163,-535.5 163,-541.5 157,-547.5 151,-547.5 151,-547.5 121,-547.5 121,-547.5 115,-547.5 109,-541.5 109,-535.5 109,-535.5 109,-523.5 109,-523.5 109,-517.5 115,-511.5 121,-511.5"/>
<text text-anchor="middle" x="136" y="-525.8" font-family="Times,serif" font-size="14.00">0</text>
</g>
<!-- node0x5aa3313204d0&#45;&gt;node0x5aa331320530 -->
<g id="edge11" class="edge">
<title>node0x5aa3313204d0&#45;&gt;node0x5aa331320530</title>
<path fill="none" stroke="#5f5b6a" d="M136,-584.31C136,-576.29 136,-566.55 136,-557.57"/>
<polygon fill="#5f5b6a" stroke="#5f5b6a" points="139.5,-557.53 136,-547.53 132.5,-557.53 139.5,-557.53"/>
</g>
<!-- node0x5aa331320590 -->
<g id="node14" class="node">
<title>node0x5aa331320590</title>
<path fill="#cfbaf0" stroke="#5f5b6a" d="M193,-511.5C193,-511.5 223,-511.5 223,-511.5 229,-511.5 235,-517.5 235,-523.5 235,-523.5 235,-535.5 235,-535.5 235,-541.5 229,-547.5 223,-547.5 223,-547.5 193,-547.5 193,-547.5 187,-547.5 181,-541.5 181,-535.5 181,-535.5 181,-523.5 181,-523.5 181,-517.5 187,-511.5 193,-511.5"/>
<text text-anchor="middle" x="208" y="-525.8" font-family="Times,serif" font-size="14.00">=</text>
</g>
<!-- node0x5aa331320560&#45;&gt;node0x5aa331320590 -->
<g id="edge13" class="edge">
<title>node0x5aa331320560&#45;&gt;node0x5aa331320590</title>
<path fill="none" stroke="#5f5b6a" d="M208,-584.31C208,-576.29 208,-566.55 208,-557.57"/>
<polygon fill="#5f5b6a" stroke="#5f5b6a" points="211.5,-557.53 208,-547.53 204.5,-557.53 211.5,-557.53"/>
</g>
<!-- node0x5aa331320620 -->
<g id="node17" class="node">
<title>node0x5aa331320620</title>
<path fill="#ffcfd2" stroke="#5f5b6a" d="M265,-511.5C265,-511.5 295,-511.5 295,-511.5 301,-511.5 307,-517.5 307,-523.5 307,-523.5 307,-535.5 307,-535.5 307,-541.5 301,-547.5 295,-547.5 295,-547.5 265,-547.5 265,-547.5 259,-547.5 253,-541.5 253,-535.5 253,-535.5 253,-523.5 253,-523.5 253,-517.5 259,-511.5 265,-511.5"/>
<text text-anchor="middle" x="280" y="-525.8" font-family="Times,serif" font-size="14.00">;</text>
</g>
<!-- node0x5aa331320560&#45;&gt;node0x5aa331320620 -->
<g id="edge16" class="edge">
<title>node0x5aa331320560&#45;&gt;node0x5aa331320620</title>
<path fill="none" stroke="#5f5b6a" d="M225.43,-584.31C234.45,-575.42 245.61,-564.41 255.49,-554.67"/>
<polygon fill="#5f5b6a" stroke="#5f5b6a" points="258.07,-557.04 262.73,-547.53 253.15,-552.06 258.07,-557.04"/>
</g>
<!-- node0x5aa3313205c0 -->
<g id="node15" class="node">
<title>node0x5aa3313205c0</title>
<path fill="#98f5e1" stroke="#5f5b6a" d="M121,-438.5C121,-438.5 151,-438.5 151,-438.5 157,-438.5 163,-444.5 163,-450.5 163,-450.5 163,-462.5 163,-462.5 163,-468.5 157,-474.5 151,-474.5 151,-474.5 121,-474.5 121,-474.5 115,-474.5 109,-468.5 109,-462.5 109,-462.5 109,-450.5 109,-450.5 109,-444.5 115,-438.5 121,-438.5"/>
<text text-anchor="middle" x="136" y="-452.8" font-family="Times,serif" font-size="14.00">2</text>
</g>
<!-- node0x5aa331320590&#45;&gt;node0x5aa3313205c0 -->
<g id="edge14" class="edge">
<title>node0x5aa331320590&#45;&gt;node0x5aa3313205c0</title>
<path fill="none" stroke="#5f5b6a" d="M190.57,-511.31C181.55,-502.42 170.39,-491.41 160.51,-481.67"/>
<polygon fill="#5f5b6a" stroke="#5f5b6a" points="162.85,-479.06 153.27,-474.53 157.93,-484.04 162.85,-479.06"/>
</g>
<!-- node0x5aa3313205f0 -->
<g id="node16" class="node">
<title>node0x5aa3313205f0</title>
<path fill="#8eecf5" stroke="#5f5b6a" d="M193,-438.5C193,-438.5 223,-438.5 223,-438.5 229,-438.5 235,-444.5 235,-450.5 235,-450.5 235,-462.5 235,-462.5 235,-468.5 229,-474.5 223,-474.5 223,-474.5 193,-474.5 193,-474.5 187,-474.5 181,-468.5 181,-462.5 181,-462.5 181,-450.5 181,-450.5 181,-444.5 187,-438.5 193,-438.5"/>
<text text-anchor="middle" x="208" y="-452.8" font-family="Times,serif" font-size="14.00">1.00</text>
</g>
<!-- node0x5aa331320590&#45;&gt;node0x5aa3313205f0 -->
<g id="edge15" class="edge">
<title>node0x5aa331320590&#45;&gt;node0x5aa3313205f0</title>
<path fill="none" stroke="#5f5b6a" d="M208,-511.31C208,-503.29 208,-493.55 208,-484.57"/>
<polygon fill="#5f5b6a" stroke="#5f5b6a" points="211.5,-484.53 208,-474.53 204.5,-484.53 211.5,-484.53"/>
</g>
<!-- node0x5aa331320650 -->
<g id="node18" class="node">
<title>node0x5aa331320650</title>
<path fill="#cfbaf0" stroke="#5f5b6a" d="M265,-438.5C265,-438.5 295,-438.5 295,-438.5 301,-438.5 307,-444.5 307,-450.5 307,-450.5 307,-462.5 307,-462.5 307,-468.5 301,-474.5 295,-474.5 295,-474.5 265,-474.5 265,-474.5 259,-474.5 253,-468.5 253,-462.5 253,-462.5 253,-450.5 253,-450.5 253,-444.5 259,-438.5 265,-438.5"/>
<text text-anchor="middle" x="280" y="-452.8" font-family="Times,serif" font-size="14.00">=</text>
</g>
<!-- node0x5aa331320620&#45;&gt;node0x5aa331320650 -->
<g id="edge17" class="edge">
<title>node0x5aa331320620&#45;&gt;node0x5aa331320650</title>
<path fill="none" stroke="#5f5b6a" d="M280,-511.31C280,-503.29 280,-493.55 280,-484.57"/>
<polygon fill="#5f5b6a" stroke="#5f5b6a" points="283.5,-484.53 280,-474.53 276.5,-484.53 283.5,-484.53"/>
</g>
<!-- node0x5aa3313206e0 -->
<g id="node21" class="node">
<title>node0x5aa3313206e0</title>
<path fill="#ffcfd2" stroke="#5f5b6a" d="M338,-438.5C338,-438.5 368,-438.5 368,-438.5 374,-438.5 380,-444.5 380,-450.5 380,-450.5 380,-462.5 380,-462.5 380,-468.5 374,-474.5 368,-474.5 368,-474.5 338,-474.5 338,-474.5 332,-474.5 326,-468.5 326,-462.5 326,-462.5 326,-450.5 326,-450.5 326,-444.5 332,-438.5 338,-438.5"/>
<text text-anchor="middle" x="353" y="-452.8" font-family="Times,serif" font-size="14.00">;</text>
</g>
<!-- node0x5aa331320620&#45;&gt;node0x5aa3313206e0 -->
<g id="edge20" class="edge">
<title>node0x5aa331320620&#45;&gt;node0x5aa3313206e0</title>
<path fill="none" stroke="#5f5b6a" d="M297.67,-511.31C306.82,-502.42 318.14,-491.41 328.15,-481.67"/>
<polygon fill="#5f5b6a" stroke="#5f5b6a" points="330.76,-484.01 335.49,-474.53 325.88,-478.99 330.76,-484.01"/>
</g>
<!-- node0x5aa331320680 -->
<g id="node19" class="node">
<title>node0x5aa331320680</title>
<path fill="#98f5e1" stroke="#5f5b6a" d="M193,-365.5C193,-365.5 223,-365.5 223,-365.5 229,-365.5 235,-371.5 235,-377.5 235,-377.5 235,-389.5 235,-389.5 235,-395.5 229,-401.5 223,-401.5 223,-401.5 193,-401.5 193,-401.5 187,-401.5 181,-395.5 181,-389.5 181,-389.5 181,-377.5 181,-377.5 181,-371.5 187,-365.5 193,-365.5"/>
<text text-anchor="middle" x="208" y="-379.8" font-family="Times,serif" font-size="14.00">3</text>
</g>
<!-- node0x5aa331320650&#45;&gt;node0x5aa331320680 -->
<g id="edge18" class="edge">
<title>node0x5aa331320650&#45;&gt;node0x5aa331320680</title>
<path fill="none" stroke="#5f5b6a" d="M262.57,-438.31C253.55,-429.42 242.39,-418.41 232.51,-408.67"/>
<polygon fill="#5f5b6a" stroke="#5f5b6a" points="234.85,-406.06 225.27,-401.53 229.93,-411.04 234.85,-406.06"/>
</g>
<!-- node0x5aa3313206b0 -->
<g id="node20" class="node">
<title>node0x5aa3313206b0</title>
<path fill="#98f5e1" stroke="#5f5b6a" d="M265,-365.5C265,-365.5 295,-365.5 295,-365.5 301,-365.5 307,-371.5 307,-377.5 307,-377.5 307,-389.5 307,-389.5 307,-395.5 301,-401.5 295,-401.5 295,-401.5 265,-401.5 265,-401.5 259,-401.5 253,-395.5 253,-389.5 253,-389.5 253,-377.5 253,-377.5 253,-371.5 259,-365.5 265,-365.5"/>
<text text-anchor="middle" x="280" y="-379.8" font-family="Times,serif" font-size="14.00">1</text>
</g>
<!-- node0x5aa331320650&#45;&gt;node0x5aa3313206b0 -->
<g id="edge19" class="edge">
<title>node0x5aa331320650&#45;&gt;node0x5aa3313206b0</title>
<path fill="none" stroke="#5f5b6a" d="M280,-438.31C280,-430.29 280,-420.55 280,-411.57"/>
<polygon fill="#5f5b6a" stroke="#5f5b6a" points="283.5,-411.53 280,-401.53 276.5,-411.53 283.5,-411.53"/>
</g>
<!-- node0x5aa331320710 -->
<g id="node22" class="node">
<title>node0x5aa331320710</title>
<path fill="#f1c0e8" stroke="#5f5b6a" d="M337.5,-365.5C337.5,-365.5 368.5,-365.5 368.5,-365.5 374.5,-365.5 380.5,-371.5 380.5,-377.5 380.5,-377.5 380.5,-389.5 380.5,-389.5 380.5,-395.5 374.5,-401.5 368.5,-401.5 368.5,-401.5 337.5,-401.5 337.5,-401.5 331.5,-401.5 325.5,-395.5 325.5,-389.5 325.5,-389.5 325.5,-377.5 325.5,-377.5 325.5,-371.5 331.5,-365.5 337.5,-365.5"/>
<text text-anchor="middle" x="353" y="-379.8" font-family="Times,serif" font-size="14.00">while</text>
</g>
<!-- node0x5aa3313206e0&#45;&gt;node0x5aa331320710 -->
<g id="edge21" class="edge">
<title>node0x5aa3313206e0&#45;&gt;node0x5aa331320710</title>
<path fill="none" stroke="#5f5b6a" d="M353,-438.31C353,-430.29 353,-420.55 353,-411.57"/>
<polygon fill="#5f5b6a" stroke="#5f5b6a" points="356.5,-411.53 353,-401.53 349.5,-411.53 356.5,-411.53"/>
</g>
<!-- node0x5aa331320a10 -->
<g id="node38" class="node">
<title>node0x5aa331320a10</title>
<path fill="#ffcfd2" stroke="#5f5b6a" d="M446,-365.5C446,-365.5 476,-365.5 476,-365.5 482,-365.5 488,-371.5 488,-377.5 488,-377.5 488,-389.5 488,-389.5 488,-395.5 482,-401.5 476,-401.5 476,-401.5 446,-401.5 446,-401.5 440,-401.5 434,-395.5 434,-389.5 434,-389.5 434,-377.5 434,-377.5 434,-371.5 440,-365.5 446,-365.5"/>
<text text-anchor="middle" x="461" y="-379.8" font-family="Times,serif" font-size="14.00">;</text>
</g>
<!-- node0x5aa3313206e0&#45;&gt;node0x5aa331320a10 -->
<g id="edge37" class="edge">
<title>node0x5aa3313206e0&#45;&gt;node0x5aa331320a10</title>
<path fill="none" stroke="#5f5b6a" d="M378.87,-438.49C393.06,-429.17 410.84,-417.47 426.23,-407.36"/>
<polygon fill="#5f5b6a" stroke="#5f5b6a" points="428.53,-410.03 434.97,-401.61 424.69,-404.18 428.53,-410.03"/>
</g>
<!-- node0x5aa331320740 -->
<g id="node23" class="node">
<title>node0x5aa331320740</title>
<path fill="#cfbaf0" stroke="#5f5b6a" d="M230,-292.5C230,-292.5 260,-292.5 260,-292.5 266,-292.5 272,-298.5 272,-304.5 272,-304.5 272,-316.5 272,-316.5 272,-322.5 266,-328.5 260,-328.5 260,-328.5 230,-328.5 230,-328.5 224,-328.5 218,-322.5 218,-316.5 218,-316.5 218,-304.5 218,-304.5 218,-298.5 224,-292.5 230,-292.5"/>
<text text-anchor="middle" x="245" y="-306.8" font-family="Times,serif" font-size="14.00">&gt;=</text>
</g>
<!-- node0x5aa331320710&#45;&gt;node0x5aa331320740 -->
<g id="edge22" class="edge">
<title>node0x5aa331320710&#45;&gt;node0x5aa331320740</title>
<path fill="none" stroke="#5f5b6a" d="M327.13,-365.49C312.94,-356.17 295.16,-344.47 279.77,-334.36"/>
<polygon fill="#5f5b6a" stroke="#5f5b6a" points="281.31,-331.18 271.03,-328.61 277.47,-337.03 281.31,-331.18"/>
</g>
<!-- node0x5aa3313207d0 -->
<g id="node26" class="node">
<title>node0x5aa3313207d0</title>
<path fill="#ffcfd2" stroke="#5f5b6a" d="M338,-292.5C338,-292.5 368,-292.5 368,-292.5 374,-292.5 380,-298.5 380,-304.5 380,-304.5 380,-316.5 380,-316.5 380,-322.5 374,-328.5 368,-328.5 368,-328.5 338,-328.5 338,-328.5 332,-328.5 326,-322.5 326,-316.5 326,-316.5 326,-304.5 326,-304.5 326,-298.5 332,-292.5 338,-292.5"/>
<text text-anchor="middle" x="353" y="-306.8" font-family="Times,serif" font-size="14.00">;</text>
</g>
<!-- node0x5aa331320710&#45;&gt;node0x5aa3313207d0 -->
<g id="edge25" class="edge">
<title>node0x5aa331320710&#45;&gt;node0x5aa3313207d0</title>
<path fill="none" stroke="#5f5b6a" d="M353,-365.31C353,-357.29 353,-347.55 353,-338.57"/>
<polygon fill="#5f5b6a" stroke="#5f5b6a" points="356.5,-338.53 353,-328.53 349.5,-338.53 356.5,-338.53"/>
</g>
<!-- node0x5aa331320770 -->
<g id="node24" class="node">
<title>node0x5aa331320770</title>
<path fill="#98f5e1" stroke="#5f5b6a" d="M158,-219.5C158,-219.5 188,-219.5 188,-219.5 194,-219.5 200,-225.5 200,-231.5 200,-231.5 200,-243.5 200,-243.5 200,-249.5 194,-255.5 188,-255.5 188,-255.5 158,-255.5 158,-255.5 152,-255.5 146,-249.5 146,-243.5 146,-243.5 146,-231.5 146,-231.5 146,-225.5 152,-219.5 158,-219.5"/>
<text text-anchor="middle" x="173" y="-233.8" font-family="Times,serif" font-size="14.00">3</text>
</g>
<!-- node0x5aa331320740&#45;&gt;node0x5aa331320770 -->
<g id="edge23" class="edge">
<title>node0x5aa331320740&#45;&gt;node0x5aa331320770</title>
<path fill="none" stroke="#5f5b6a" d="M227.57,-292.31C218.55,-283.42 207.39,-272.41 197.51,-262.67"/>
<polygon fill="#5f5b6a" stroke="#5f5b6a" points="199.85,-260.06 190.27,-255.53 194.93,-265.04 199.85,-260.06"/>
</g>
<!-- node0x5aa3313207a0 -->
<g id="node25" class="node">
<title>node0x5aa3313207a0</title>
<path fill="#8eecf5" stroke="#5f5b6a" d="M230,-219.5C230,-219.5 260,-219.5 260,-219.5 266,-219.5 272,-225.5 272,-231.5 272,-231.5 272,-243.5 272,-243.5 272,-249.5 266,-255.5 260,-255.5 260,-255.5 230,-255.5 230,-255.5 224,-255.5 218,-249.5 218,-243.5 218,-243.5 218,-231.5 218,-231.5 218,-225.5 224,-219.5 230,-219.5"/>
<text text-anchor="middle" x="245" y="-233.8" font-family="Times,serif" font-size="14.00">1.00</text>
</g>
<!-- node0x5aa331320740&#45;&gt;node0x5aa3313207a0 -->
<g id="edge24" class="edge">
<title>node0x5aa331320740&#45;&gt;node0x5aa3313207a0</title>
<path fill="none" stroke="#5f5b6a" d="M245,-292.31C245,-284.29 245,-274.55 245,-265.57"/>
<polygon fill="#5f5b6a" stroke="#5f5b6a" points="248.5,-265.53 245,-255.53 241.5,-265.53 248.5,-265.53"/>
</g>
<!-- node0x5aa331320800 -->
<g id="node27" class="node">
<title>node0x5aa331320800</title>
<path fill="#cfbaf0" stroke="#5f5b6a" d="M302,-219.5C302,-219.5 332,-219.5 332,-219.5 338,-219.5 344,-225.5 344,-231.5 344,-231.5 344,-243.5 344,-243.5 344,-249.5 338,-255.5 332,-255.5 332,-255.5 302,-255.5 302,-255.5 296,-255.5 290,-249.5 290,-243.5 290,-243.5 290,-231.5 290,-231.5 290,-225.5 296,-219.5 302,-219.5"/>
<text text-anchor="middle" x="317" y="-233.8" font-family="Times,serif" font-size="14.00">=</text>
</g>
<!-- node0x5aa3313207d0&#45;&gt;node0x5aa331320800 -->
<g id="edge26" class="edge">
<title>node0x5aa3313207d0&#45;&gt;node0x5aa331320800</title>
<path fill="none" stroke="#5f5b6a" d="M344.29,-292.31C340.08,-284.03 334.95,-273.91 330.28,-264.69"/>
<polygon fill="#5f5b6a" stroke="#5f5b6a" points="333.28,-262.87 325.63,-255.53 327.04,-266.03 333.28,-262.87"/>
</g>
<!-- node0x5aa3313208f0 -->
<g id="node32" class="node">
<title>node0x5aa3313208f0</title>
<path fill="#ffcfd2" stroke="#5f5b6a" d="M374,-219.5C374,-219.5 404,-219.5 404,-219.5 410,-219.5 416,-225.5 416,-231.5 416,-231.5 416,-243.5 416,-243.5 416,-249.5 410,-255.5 404,-255.5 404,-255.5 374,-255.5 374,-255.5 368,-255.5 362,-249.5 362,-243.5 362,-243.5 362,-231.5 362,-231.5 362,-225.5 368,-219.5 374,-219.5"/>
<text text-anchor="middle" x="389" y="-233.8" font-family="Times,serif" font-size="14.00">;</text>
</g>
<!-- node0x5aa3313207d0&#45;&gt;node0x5aa3313208f0 -->
<g id="edge31" class="edge">
<title>node0x5aa3313207d0&#45;&gt;node0x5aa3313208f0</title>
<path fill="none" stroke="#5f5b6a" d="M361.71,-292.31C365.92,-284.03 371.05,-273.91 375.72,-264.69"/>
<polygon fill="#5f5b6a" stroke="#5f5b6a" points="378.96,-266.03 380.37,-255.53 372.72,-262.87 378.96,-266.03"/>
</g>
<!-- node0x5aa331320830 -->
<g id="node28" class="node">
<title>node0x5aa331320830</title>
<path fill="#98f5e1" stroke="#5f5b6a" d="M230,-146.5C230,-146.5 260,-146.5 260,-146.5 266,-146.5 272,-152.5 272,-158.5 272,-158.5 272,-170.5 272,-170.5 272,-176.5 266,-182.5 260,-182.5 260,-182.5 230,-182.5 230,-182.5 224,-182.5 218,-176.5 218,-170.5 218,-170.5 218,-158.5 218,-158.5 218,-152.5 224,-146.5 230,-146.5"/>
<text text-anchor="middle" x="245" y="-160.8" font-family="Times,serif" font-size="14.00">2</text>
</g>
<!-- node0x5aa331320800&#45;&gt;node0x5aa331320830 -->
<g id="edge27" class="edge">
<title>node0x5aa331320800&#45;&gt;node0x5aa331320830</title>
<path fill="none" stroke="#5f5b6a" d="M299.57,-219.31C290.55,-210.42 279.39,-199.41 269.51,-189.67"/>
<polygon fill="#5f5b6a" stroke="#5f5b6a" points="271.85,-187.06 262.27,-182.53 266.93,-192.04 271.85,-187.06"/>
</g>
<!-- node0x5aa331320860 -->
<g id="node29" class="node">
<title>node0x5aa331320860</title>
<path fill="#cfbaf0" stroke="#5f5b6a" d="M302,-146.5C302,-146.5 332,-146.5 332,-146.5 338,-146.5 344,-152.5 344,-158.5 344,-158.5 344,-170.5 344,-170.5 344,-176.5 338,-182.5 332,-182.5 332,-182.5 302,-182.5 302,-182.5 296,-182.5 290,-176.5 290,-170.5 290,-170.5 290,-158.5 290,-158.5 290,-152.5 296,-146.5 302,-146.5"/>
<text text-anchor="middle" x="317" y="-160.8" font-family="Times,serif" font-size="14.00">*</text>
</g>
<!-- node0x5aa331320800&#45;&gt;node0x5aa331320860 -->
<g id="edge28" class="edge">
<title>node0x5aa331320800&#45;&gt;node0x5aa331320860</title>
<path fill="none" stroke="#5f5b6a" d="M317,-219.31C317,-211.29 317,-201.55 317,-192.57"/>
<polygon fill="#5f5b6a" stroke="#5f5b6a" points="320.5,-192.53 317,-182.53 313.5,-192.53 320.5,-192.53"/>
</g>
<!-- node0x5aa331320890 -->
<g id="node30" class="node">
<title>node0x5aa331320890</title>
<path fill="#98f5e1" stroke="#5f5b6a" d="M230,-73.5C230,-73.5 260,-73.5 260,-73.5 266,-73.5 272,-79.5 272,-85.5 272,-85.5 272,-97.5 272,-97.5 272,-103.5 266,-109.5 260,-109.5 260,-109.5 230,-109.5 230,-109.5 224,-109.5 218,-103.5 218,-97.5 218,-97.5 218,-85.5 218,-85.5 218,-79.5 224,-73.5 230,-73.5"/>
<text text-anchor="middle" x="245" y="-87.8" font-family="Times,serif" font-size="14.00">3</text>
</g>
<!-- node0x5aa331320860&#45;&gt;node0x5aa331320890 -->
<g id="edge29" class="edge">
<title>node0x5aa331320860&#45;&gt;node0x5aa331320890</title>
<path fill="none" stroke="#5f5b6a" d="M299.57,-146.31C290.55,-137.42 279.39,-126.41 269.51,-116.67"/>
<polygon fill="#5f5b6a" stroke="#5f5b6a" points="271.85,-114.06 262.27,-109.53 266.93,-119.04 271.85,-114.06"/>
</g>
<!-- node0x5aa3313208c0 -->
<g id="node31" class="node">
<title>node0x5aa3313208c0</title>
<path fill="#98f5e1" stroke="#5f5b6a" d="M302,-73.5C302,-73.5 332,-73.5 332,-73.5 338,-73.5 344,-79.5 344,-85.5 344,-85.5 344,-97.5 344,-97.5 344,-103.5 338,-109.5 332,-109.5 332,-109.5 302,-109.5 302,-109.5 296,-109.5 290,-103.5 290,-97.5 290,-97.5 290,-85.5 290,-85.5 290,-79.5 296,-73.5 302,-73.5"/>
<text text-anchor="middle" x="317" y="-87.8" font-family="Times,serif" font-size="14.00">2</text>
</g>
<!-- node0x5aa331320860&#45;&gt;node0x5aa3313208c0 -->
<g id="edge30" class="edge">
<title>node0x5aa331320860&#45;&gt;node0x5aa3313208c0</title>
<path fill="none" stroke="#5f5b6a" d="M317,-146.31C317,-138.29 317,-128.55 317,-119.57"/>
<polygon fill="#5f5b6a" stroke="#5f5b6a" points="320.5,-119.53 317,-109.53 313.5,-119.53 320.5,-119.53"/>
</g>
<!-- node0x5aa331320920 -->
<g id="node33" class="node">
<title>node0x5aa331320920</title>
<path fill="#cfbaf0" stroke="#5f5b6a" d="M374,-146.5C374,-146.5 404,-146.5 404,-146.5 410,-146.5 416,-152.5 416,-158.5 416,-158.5 416,-170.5 416,-170.5 416,-176.5 410,-182.5 404,-182.5 404,-182.5 374,-182.5 374,-182.5 368,-182.5 362,-176.5 362,-170.5 362,-170.5 362,-158.5 362,-158.5 362,-152.5 368,-146.5 374,-146.5"/>
<text text-anchor="middle" x="389" y="-160.8" font-family="Times,serif" font-size="14.00">=</text>
</g>
<!-- node0x5aa3313208f0&#45;&gt;node0x5aa331320920 -->
<g id="edge32" class="edge">
<title>node0x5aa3313208f0&#45;&gt;node0x5aa331320920</title>
<path fill="none" stroke="#5f5b6a" d="M389,-219.31C389,-211.29 389,-201.55 389,-192.57"/>
<polygon fill="#5f5b6a" stroke="#5f5b6a" points="392.5,-192.53 389,-182.53 385.5,-192.53 392.5,-192.53"/>
</g>
<!-- node0x5aa331320950 -->
<g id="node34" class="node">
<title>node0x5aa331320950</title>
<path fill="#98f5e1" stroke="#5f5b6a" d="M374,-73.5C374,-73.5 404,-73.5 404,-73.5 410,-73.5 416,-79.5 416,-85.5 416,-85.5 416,-97.5 416,-97.5 416,-103.5 410,-109.5 404,-109.5 404,-109.5 374,-109.5 374,-109.5 368,-109.5 362,-103.5 362,-97.5 362,-97.5 362,-85.5 362,-85.5 362,-79.5 368,-73.5 374,-73.5"/>
<text text-anchor="middle" x="389" y="-87.8" font-family="Times,serif" font-size="14.00">3</text>
</g>
<!-- node0x5aa331320920&#45;&gt;node0x5aa331320950 -->
<g id="edge33" class="edge">
<title>node0x5aa331320920&#45;&gt;node0x5aa331320950</title>
<path fill="none" stroke="#5f5b6a" d="M389,-146.31C389,-138.29 389,-128.55 389,-119.57"/>
<polygon fill="#5f5b6a" stroke="#5f5b6a" points="392.5,-119.53 389,-109.53 385.5,-119.53 392.5,-119.53"/>
</g>
<!-- node0x5aa331320980 -->
<g id="node35" class="node">
<title>node0x5aa331320980</title>
<path fill="#cfbaf0" stroke="#5f5b6a" d="M446,-73.5C446,-73.5 476,-73.5 476,-73.5 482,-73.5 488,-79.5 488,-85.5 488,-85.5 488,-97.5 488,-97.5 488,-103.5 482,-109.5 476,-109.5 476,-109.5 446,-109.5 446,-109.5 440,-109.5 434,-103.5 434,-97.5 434,-97.5 434,-85.5 434,-85.5 434,-79.5 440,-73.5 446,-73.5"/>
<text text-anchor="middle" x="461" y="-87.8" font-family="Times,serif" font-size="14.00">&#45;</text>
</g>
<!-- node0x5aa331320920&#45;&gt;node0x5aa331320980 -->
<g id="edge34" class="edge">
<title>node0x5aa331320920&#45;&gt;node0x5aa331320980</title>
<path fill="none" stroke="#5f5b6a" d="M406.43,-146.31C415.45,-137.42 426.61,-126.41 436.49,-116.67"/>
<polygon fill="#5f5b6a" stroke="#5f5b6a" points="439.07,-119.04 443.73,-109.53 434.15,-114.06 439.07,-119.04"/>
</g>
<!-- node0x5aa3313209b0 -->
<g id="node36" class="node">
<title>node0x5aa3313209b0</title>
<path fill="#98f5e1" stroke="#5f5b6a" d="M410,-0.5C410,-0.5 440,-0.5 440,-0.5 446,-0.5 452,-6.5 452,-12.5 452,-12.5 452,-24.5 452,-24.5 452,-30.5 446,-36.5 440,-36.5 440,-36.5 410,-36.5 410,-36.5 404,-36.5 398,-30.5 398,-24.5 398,-24.5 398,-12.5 398,-12.5 398,-6.5 404,-0.5 410,-0.5"/>
<text text-anchor="middle" x="425" y="-14.8" font-family="Times,serif" font-size="14.00">3</text>
</g>
<!-- node0x5aa331320980&#45;&gt;node0x5aa3313209b0 -->
<g id="edge35" class="edge">
<title>node0x5aa331320980&#45;&gt;node0x5aa3313209b0</title>
<path fill="none" stroke="#5f5b6a" d="M452.29,-73.31C448.08,-65.03 442.95,-54.91 438.28,-45.69"/>
<polygon fill="#5f5b6a" stroke="#5f5b6a" points="441.28,-43.87 433.63,-36.53 435.04,-47.03 441.28,-43.87"/>
</g>
<!-- node0x5aa3313209e0 -->
<g id="node37" class="node">
<title>node0x5aa3313209e0</title>
<path fill="#8eecf5" stroke="#5f5b6a" d="M482,-0.5C482,-0.5 512,-0.5 512,-0.5 518,-0.5 524,-6.5 524,-12.5 524,-12.5 524,-24.5 524,-24.5 524,-30.5 518,-36.5 512,-36.5 512,-36.5 482,-36.5 482,-36.5 476,-36.5 470,-30.5 470,-24.5 470,-24.5 470,-12.5 470,-12.5 470,-6.5 476,-0.5 482,-0.5"/>
<text text-anchor="middle" x="497" y="-14.8" font-family="Times,serif" font-size="14.00">1.00</text>
</g>
<!-- node0x5aa331320980&#45;&gt;node0x5aa3313209e0 -->
<g id="edge36" class="edge">
<title>node0x5aa331320980&#45;&gt;node0x5aa3313209e0</title>
<path fill="none" stroke="#5f5b6a" d="M469.71,-73.31C473.92,-65.03 479.05,-54.91 483.72,-45.69"/>
<polygon fill="#5f5b6a" stroke="#5f5b6a" points="486.96,-47.03 488.37,-36.53 480.72,-43.87 486.96,-47.03"/>
</g>
<!-- node0x5aa331320a40 -->
<g id="node39" class="node">
<title>node0x5aa331320a40</title>
<path fill="#a3c4f3" stroke="#5f5b6a" d="M446,-292.5C446,-292.5 476,-292.5 476,-292.5 482,-292.5 488,-298.5 488,-304.5 488,-304.5 488,-316.5 488,-316.5 488,-322.5 482,-328.5 476,-328.5 476,-328.5 446,-328.5 446,-328.5 440,-328.5 434,-322.5 434,-316.5 434,-316.5 434,-304.5 434,-304.5 434,-298.5 440,-292.5 446,-292.5"/>
<text text-anchor="middle" x="461" y="-306.8" font-family="Times,serif" font-size="14.00">print</text>
</g>
<!-- node0x5aa331320a10&#45;&gt;node0x5aa331320a40 -->
<g id="edge38" class="edge">
<title>node0x5aa331320a10&#45;&gt;node0x5aa331320a40</title>
<path fill="none" stroke="#5f5b6a" d="M461,-365.31C461,-357.29 461,-347.55 461,-338.57"/>
<polygon fill="#5f5b6a" stroke="#5f5b6a" points="464.5,-338.53 461,-328.53 457.5,-338.53 464.5,-338.53"/>
</g>
<!-- node0x5aa331320aa0 -->
<g id="node41" class="node">
<title>node0x5aa331320aa0</title>
<path fill="#ffcfd2" stroke="#5f5b6a" d="M518,-292.5C518,-292.5 548,-292.5 548,-292.5 554,-292.5 560,-298.5 560,-304.5 560,-304.5 560,-316.5 560,-316.5 560,-322.5 554,-328.5 548,-328.5 548,-328.5 518,-328.5 518,-328.5 512,-328.5 506,-322.5 506,-316.5 506,-316.5 506,-304.5 506,-304.5 506,-298.5 512,-292.5 518,-292.5"/>
<text text-anchor="middle" x="533" y="-306.8" font-family="Times,serif" font-size="14.00">;</text>
</g>
<!-- node0x5aa331320a10&#45;&gt;node0x5aa331320aa0 -->
<g id="edge40" class="edge">
<title>node0x5aa331320a10&#45;&gt;node0x5aa331320aa0</title>
<path fill="none" stroke="#5f5b6a" d="M478.43,-365.31C487.45,-356.42 498.61,-345.41 508.49,-335.67"/>
<polygon fill="#5f5b6a" stroke="#5f5b6a" points="511.07,-338.04 515.73,-328.53 506.15,-333.06 511.07,-338.04"/>
</g>
<!-- node0x5aa331320a70 -->
<g id="node40" class="node">
<title>node0x5aa331320a70</title>
<path fill="#89fbc0" stroke="#5f5b6a" d="M446,-219.5C446,-219.5 476,-219.5 476,-219.5 482,-219.5 488,-225.5 488,-231.5 488,-231.5 488,-243.5 488,-243.5 488,-249.5 482,-255.5 476,-255.5 476,-255.5 446,-255.5 446,-255.5 440,-255.5 434,-249.5 434,-243.5 434,-243.5 434,-231.5 434,-231.5 434,-225.5 440,-219.5 446,-219.5"/>
<text text-anchor="middle" x="461" y="-233.8" font-family="Times,serif" font-size="14.00">2</text>
</g>
<!-- node0x5aa331320a40&#45;&gt;node0x5aa331320a70 -->
<g id="edge39" class="edge">
<title>node0x5aa331320a40&#45;&gt;node0x5aa331320a70</title>
<path fill="none" stroke="#5f5b6a" d="M461,-292.31C461,-284.29 461,-274.55 461,-265.57"/>
<polygon fill="#5f5b6a" stroke="#5f5b6a" points="464.5,-265.53 461,-255.53 457.5,-265.53 464.5,-265.53"/>
</g>
<!-- node0x5aa331320ad0 -->
<g id="node42" class="node">
<title>node0x5aa331320ad0</title>
<path fill="#cfbaf0" stroke="#5f5b6a" d="M518,-219.5C518,-219.5 548,-219.5 548,-219.5 554,-219.5 560,-225.5 560,-231.5 560,-231.5 560,-243.5 560,-243.5 560,-249.5 554,-255.5 548,-255.5 548,-255.5 518,-255.5 518,-255.5 512,-255.5 506,-249.5 506,-243.5 506,-243.5 506,-231.5 506,-231.5 506,-225.5 512,-219.5 518,-219.5"/>
<text text-anchor="middle" x="533" y="-233.8" font-family="Times,serif" font-size="14.00">=</text>
</g>
<!-- node0x5aa331320aa0&#45;&gt;node0x5aa331320ad0 -->
<g id="edge41" class="edge">
<title>node0x5aa331320aa0&#45;&gt;node0x5aa331320ad0</title>
<path fill="none" stroke="#5f5b6a" d="M533,-292.31C533,-284.29 533,-274.55 533,-265.57"/>
<polygon fill="#5f5b6a" stroke="#5f5b6a" points="536.5,-265.53 533,-255.53 529.5,-265.53 536.5,-265.53"/>
</g>
<!-- node0x5aa331320b00 -->
<g id="node43" class="node">
<title>node0x5aa331320b00</title>
<path fill="#98f5e1" stroke="#5f5b6a" d="M500,-146.5C500,-146.5 530,-146.5 530,-146.5 536,-146.5 542,-152.5 542,-158.5 542,-158.5 542,-170.5 542,-170.5 542,-176.5 536,-182.5 530,-182.5 530,-182.5 500,-182.5 500,-182.5 494,-182.5 488,-176.5 488,-170.5 488,-170.5 488,-158.5 488,-158.5 488,-152.5 494,-146.5 500,-146.5"/>
<text text-anchor="middle" x="515" y="-160.8" font-family="Times,serif" font-size="14.00">1</text>
</g>
<!-- node0x5aa331320ad0&#45;&gt;node0x5aa331320b00 -->
<g id="edge42" class="edge">
<title>node0x5aa331320ad0&#45;&gt;node0x5aa331320b00</title>
<path fill="none" stroke="#5f5b6a" d="M528.64,-219.31C526.59,-211.2 524.09,-201.34 521.79,-192.28"/>
<polygon fill="#5f5b6a" stroke="#5f5b6a" points="525.17,-191.36 519.32,-182.53 518.38,-193.08 525.17,-191.36"/>
</g>
<!-- node0x5aa331320b30 -->
<g id="node44" class="node">
<title>node0x5aa331320b30</title>
<path fill="#cfbaf0" stroke="#5f5b6a" d="M572,-146.5C572,-146.5 602,-146.5 602,-146.5 608,-146.5 614,-152.5 614,-158.5 614,-158.5 614,-170.5 614,-170.5 614,-176.5 608,-182.5 602,-182.5 602,-182.5 572,-182.5 572,-182.5 566,-182.5 560,-176.5 560,-170.5 560,-170.5 560,-158.5 560,-158.5 560,-152.5 566,-146.5 572,-146.5"/>
<text text-anchor="middle" x="587" y="-160.8" font-family="Times,serif" font-size="14.00">+</text>
</g>
<!-- node0x5aa331320ad0&#45;&gt;node0x5aa331320b30 -->
<g id="edge43" class="edge">
<title>node0x5aa331320ad0&#45;&gt;node0x5aa331320b30</title>
<path fill="none" stroke="#5f5b6a" d="M546.07,-219.31C552.64,-210.68 560.72,-200.06 567.96,-190.53"/>
<polygon fill="#5f5b6a" stroke="#5f5b6a" points="570.78,-192.61 574.05,-182.53 565.21,-188.37 570.78,-192.61"/>
</g>
<!-- node0x5aa331320b60 -->
<g id="node45" class="node">
<title>node0x5aa331320b60</title>
<path fill="#98f5e1" stroke="#5f5b6a" d="M554,-73.5C554,-73.5 584,-73.5 584,-73.5 590,-73.5 596,-79.5 596,-85.5 596,-85.5 596,-97.5 596,-97.5 596,-103.5 590,-109.5 584,-109.5 584,-109.5 554,-109.5 554,-109.5 548,-109.5 542,-103.5 542,-97.5 542,-97.5 542,-85.5 542,-85.5 542,-79.5 548,-73.5 554,-73.5"/>
<text text-anchor="middle" x="569" y="-87.8" font-family="Times,serif" font-size="14.00">1</text>
</g>
<!-- node0x5aa331320b30&#45;&gt;node0x5aa331320b60 -->
<g id="edge44" class="edge">
<title>node0x5aa331320b30&#45;&gt;node0x5aa331320b60</title>
<path fill="none" stroke="#5f5b6a" d="M582.64,-146.31C580.59,-138.2 578.09,-128.34 575.79,-119.28"/>
<polygon fill="#5f5b6a" stroke="#5f5b6a" points="579.17,-118.36 573.32,-109.53 572.38,-120.08 579.17,-118.36"/>
</g>
<!-- node0x5aa331320b90 -->
<g id="node46" class="node">
<title>node0x5aa331320b90</title>
<path fill="#8eecf5" stroke="#5f5b6a" d="M626,-73.5C626,-73.5 656,-73.5 656,-73.5 662,-73.5 668,-79.5 668,-85.5 668,-85.5 668,-97.5 668,-97.5 668,-103.5 662,-109.5 656,-109.5 656,-109.5 626,-109.5 626,-109.5 620,-109.5 614,-103.5 614,-97.5 614,-97.5 614,-85.5 614,-85.5 614,-79.5 620,-73.5 626,-73.5"/>
<text text-anchor="middle" x="641" y="-87.8" font-family="Times,serif" font-size="14.00">1.00</text>
</g>
<!-- node0x5aa331320b30&#45;&gt;node0x5aa331320b90 -->
<g id="edge45" class="edge">
<title>node0x5aa331320b30&#45;&gt;node0x5aa331320b90</title>
<path fill="none" stroke="#5f5b6a" d="M600.07,-146.31C606.64,-137.68 614.72,-127.06 621.96,-117.53"/>
<polygon fill="#5f5b6a" stroke="#5f5b6a" points="624.78,-119.61 628.05,-109.53 619.21,-115.37 624.78,-119.61"/>
</g>
</g>
</svg>
