<?xml version="1.0" encoding="UTF-8" standalone="no"?>
<!DOCTYPE svg PUBLIC "-//W3C//DTD SVG 1.1//EN"
 "http://www.w3.org/Graphics/SVG/1.1/DTD/svg11.dtd">
<!-- Generated by graphviz version 2.43.0 (0)
 -->
<!-- Title: Tree Pages: 1 -->
<svg width="682pt" height="629pt"
 viewBox="0.00 0.00 681.50 629.00" xmlns="http://www.w3.org/2000/svg" xmlns:xlink="http://www.w3.org/1999/xlink">
<g id="graph0" class="graph" transform="scale(1 1) rotate(0) translate(4 625)">
<title>Tree</title>
<polygon fill="#fffeec" stroke="transparent" points="-4,4 -4,-625 677.5,-625 677.5,4 -4,4"/>
<!-- node0x5a853feedb40 -->
<g id="node1" class="node">
<title>node0x5a853feedb40</title>
<path fill="#ffcfd2" stroke="#5f5b6a" d="M466,-584.5C466,-584.5 496,-584.5 496,-584.5 502,-584.5 508,-590.5 508,-596.5 508,-596.5 508,-608.5 508,-608.5 508,-614.5 502,-620.5 496,-620.5 496,-620.5 466,-620.5 466,-620.5 460,-620.5 454,-614.5 454,-608.5 454,-608.5 454,-596.5 454,-596.5 454,-590.5 460,-584.5 466,-584.5"/>
<text text-anchor="middle" x="481" y="-598.8" font-family="Times,serif" font-size="14.00">;</text>
</g>
<!-- node0x5a853feedab0 -->
<g id="node2" class="node">
<title>node0x5a853feedab0</title>
<path fill="#f1c0e8" stroke="#5f5b6a" d="M430,-511.5C430,-511.5 460,-511.5 460,-511.5 466,-511.5 472,-517.5 472,-523.5 472,-523.5 472,-535.5 472,-535.5 472,-541.5 466,-547.5 460,-547.5 460,-547.5 430,-547.5 430,-547.5 424,-547.5 418,-541.5 418,-535.5 418,-535.5 418,-523.5 418,-523.5 418,-517.5 424,-511.5 430,-511.5"/>
<text text-anchor="middle" x="445" y="-525.8" font-family="Times,serif" font-size="14.00">if</text>
</g>
<!-- node0x5a853feedb40&#45;&gt;node0x5a853feedab0 -->
<g id="edge1" class="edge">
<title>node0x5a853feedb40&#45;&gt;node0x5a853feedab0</title>
<path fill="none" stroke="#5f5b6a" d="M472.29,-584.31C468.08,-576.03 462.95,-565.91 458.28,-556.69"/>
<polygon fill="#5f5b6a" stroke="#5f5b6a" points="461.28,-554.87 453.63,-547.53 455.04,-558.03 461.28,-554.87"/>
</g>
<!-- node0x5a853feedb10 -->
<g id="node37" class="node">
<title>node0x5a853feedb10</title>
<path fill="#ffcfd2" stroke="#5f5b6a" d="M538,-511.5C538,-511.5 568,-511.5 568,-511.5 574,-511.5 580,-517.5 580,-523.5 580,-523.5 580,-535.5 580,-535.5 580,-541.5 574,-547.5 568,-547.5 568,-547.5 538,-547.5 538,-547.5 532,-547.5 526,-541.5 526,-535.5 526,-535.5 526,-523.5 526,-523.5 526,-517.5 532,-511.5 538,-511.5"/>
<text text-anchor="middle" x="553" y="-525.8" font-family="Times,serif" font-size="14.00">;</text>
</g>
<!-- node0x5a853feedb40&#45;&gt;node0x5a853feedb10 -->
<g id="edge36" class="edge">
<title>node0x5a853feedb40&#45;&gt;node0x5a853feedb10</title>
<path fill="none" stroke="#5f5b6a" d="M498.43,-584.31C507.45,-575.42 518.61,-564.41 528.49,-554.67"/>
<polygon fill="#5f5b6a" stroke="#5f5b6a" points="531.07,-557.04 535.73,-547.53 526.15,-552.06 531.07,-557.04"/>
</g>
<!-- node0x5a853feed7e0 -->
<g id="node3" class="node">
<title>node0x5a853feed7e0</title>
<path fill="#cfbaf0" stroke="#5f5b6a" d="M229,-438.5C229,-438.5 259,-438.5 259,-438.5 265,-438.5 271,-444.5 271,-450.5 271,-450.5 271,-462.5 271,-462.5 271,-468.5 265,-474.5 259,-474.5 259,-474.5 229,-474.5 229,-474.5 223,-474.5 217,-468.5 217,-462.5 217,-462.5 217,-450.5 217,-450.5 217,-444.5 223,-438.5 229,-438.5"/>
<text text-anchor="middle" x="244" y="-452.8" font-family="Times,serif" font-size="14.00">&amp;&amp;</text>
</g>
<!-- node0x5a853feedab0&#45;&gt;node0x5a853feed7e0 -->
<g id="edge2" class="edge">
<title>node0x5a853feedab0&#45;&gt;node0x5a853feed7e0</title>
<path fill="none" stroke="#5f5b6a" d="M417.89,-518.92C382.53,-506.43 320.5,-484.52 280.88,-470.53"/>
<polygon fill="#5f5b6a" stroke="#5f5b6a" points="281.92,-467.18 271.32,-467.15 279.58,-473.78 281.92,-467.18"/>
</g>
<!-- node0x5a853feeda80 -->
<g id="node12" class="node">
<title>node0x5a853feeda80</title>
<path fill="#ffcfd2" stroke="#5f5b6a" d="M430,-438.5C430,-438.5 460,-438.5 460,-438.5 466,-438.5 472,-444.5 472,-450.5 472,-450.5 472,-462.5 472,-462.5 472,-468.5 466,-474.5 460,-474.5 460,-474.5 430,-474.5 430,-474.5 424,-474.5 418,-468.5 418,-462.5 418,-462.5 418,-450.5 418,-450.5 418,-444.5 424,-438.5 430,-438.5"/>
<text text-anchor="middle" x="445" y="-452.8" font-family="Times,serif" font-size="14.00">;</text>
</g>
<!-- node0x5a853feedab0&#45;&gt;node0x5a853feeda80 -->
<g id="edge11" class="edge">
<title>node0x5a853feedab0&#45;&gt;node0x5a853feeda80</title>
<path fill="none" stroke="#5f5b6a" d="M445,-511.31C445,-503.29 445,-493.55 445,-484.57"/>
<polygon fill="#5f5b6a" stroke="#5f5b6a" points="448.5,-484.53 445,-474.53 441.5,-484.53 448.5,-484.53"/>
</g>
<!-- node0x5a853feed780 -->
<g id="node4" class="node">
<title>node0x5a853feed780</title>
<path fill="#cfbaf0" stroke="#5f5b6a" d="M120,-365.5C120,-365.5 150,-365.5 150,-365.5 156,-365.5 162,-371.5 162,-377.5 162,-377.5 162,-389.5 162,-389.5 162,-395.5 156,-401.5 150,-401.5 150,-401.5 120,-401.5 120,-401.5 114,-401.5 108,-395.5 108,-389.5 108,-389.5 108,-377.5 108,-377.5 108,-371.5 114,-365.5 120,-365.5"/>
<text text-anchor="middle" x="135" y="-379.8" font-family="Times,serif" font-size="14.00">==</text>
</g>
<!-- node0x5a853feed7e0&#45;&gt;node0x5a853feed780 -->
<g id="edge3" class="edge">
<title>node0x5a853feed7e0&#45;&gt;node0x5a853feed780</title>
<path fill="none" stroke="#5f5b6a" d="M217.89,-438.49C203.44,-429.08 185.29,-417.26 169.66,-407.07"/>
<polygon fill="#5f5b6a" stroke="#5f5b6a" points="171.56,-404.14 161.27,-401.61 167.74,-410 171.56,-404.14"/>
</g>
<!-- node0x5a853feed7b0 -->
<g id="node9" class="node">
<title>node0x5a853feed7b0</title>
<path fill="#cfbaf0" stroke="#5f5b6a" d="M229,-365.5C229,-365.5 259,-365.5 259,-365.5 265,-365.5 271,-371.5 271,-377.5 271,-377.5 271,-389.5 271,-389.5 271,-395.5 265,-401.5 259,-401.5 259,-401.5 229,-401.5 229,-401.5 223,-401.5 217,-395.5 217,-389.5 217,-389.5 217,-377.5 217,-377.5 217,-371.5 223,-365.5 229,-365.5"/>
<text text-anchor="middle" x="244" y="-379.8" font-family="Times,serif" font-size="14.00">&lt;</text>
</g>
<!-- node0x5a853feed7e0&#45;&gt;node0x5a853feed7b0 -->
<g id="edge8" class="edge">
<title>node0x5a853feed7e0&#45;&gt;node0x5a853feed7b0</title>
<path fill="none" stroke="#5f5b6a" d="M244,-438.31C244,-430.29 244,-420.55 244,-411.57"/>
<polygon fill="#5f5b6a" stroke="#5f5b6a" points="247.5,-411.53 244,-401.53 240.5,-411.53 247.5,-411.53"/>
</g>
<!-- node0x5a853feed750 -->
<g id="node5" class="node">
<title>node0x5a853feed750</title>
<path fill="#cfbaf0" stroke="#5f5b6a" d="M48,-292.5C48,-292.5 78,-292.5 78,-292.5 84,-292.5 90,-298.5 90,-304.5 90,-304.5 90,-316.5 90,-316.5 90,-322.5 84,-328.5 78,-328.5 78,-328.5 48,-328.5 48,-328.5 42,-328.5 36,-322.5 36,-316.5 36,-316.5 36,-304.5 36,-304.5 36,-298.5 42,-292.5 48,-292.5"/>
<text text-anchor="middle" x="63" y="-306.8" font-family="Times,serif" font-size="14.00">+</text>
</g>
<!-- node0x5a853feed780&#45;&gt;node0x5a853feed750 -->
<g id="edge4" class="edge">
<title>node0x5a853feed780&#45;&gt;node0x5a853feed750</title>
<path fill="none" stroke="#5f5b6a" d="M117.57,-365.31C108.55,-356.42 97.39,-345.41 87.51,-335.67"/>
<polygon fill="#5f5b6a" stroke="#5f5b6a" points="89.85,-333.06 80.27,-328.53 84.93,-338.04 89.85,-333.06"/>
</g>
<!-- node0x5a853feecad0 -->
<g id="node8" class="node">
<title>node0x5a853feecad0</title>
<path fill="#8eecf5" stroke="#5f5b6a" d="M120,-292.5C120,-292.5 150,-292.5 150,-292.5 156,-292.5 162,-298.5 162,-304.5 162,-304.5 162,-316.5 162,-316.5 162,-322.5 156,-328.5 150,-328.5 150,-328.5 120,-328.5 120,-328.5 114,-328.5 108,-322.5 108,-316.5 108,-316.5 108,-304.5 108,-304.5 108,-298.5 114,-292.5 120,-292.5"/>
<text text-anchor="middle" x="135" y="-306.8" font-family="Times,serif" font-size="14.00">8.00</text>
</g>
<!-- node0x5a853feed780&#45;&gt;node0x5a853feecad0 -->
<g id="edge7" class="edge">
<title>node0x5a853feed780&#45;&gt;node0x5a853feecad0</title>
<path fill="none" stroke="#5f5b6a" d="M135,-365.31C135,-357.29 135,-347.55 135,-338.57"/>
<polygon fill="#5f5b6a" stroke="#5f5b6a" points="138.5,-338.53 135,-328.53 131.5,-338.53 138.5,-338.53"/>
</g>
<!-- node0x5a853feeca10 -->
<g id="node6" class="node">
<title>node0x5a853feeca10</title>
<path fill="#8eecf5" stroke="#5f5b6a" d="M12,-219.5C12,-219.5 42,-219.5 42,-219.5 48,-219.5 54,-225.5 54,-231.5 54,-231.5 54,-243.5 54,-243.5 54,-249.5 48,-255.5 42,-255.5 42,-255.5 12,-255.5 12,-255.5 6,-255.5 0,-249.5 0,-243.5 0,-243.5 0,-231.5 0,-231.5 0,-225.5 6,-219.5 12,-219.5"/>
<text text-anchor="middle" x="27" y="-233.8" font-family="Times,serif" font-size="14.00">7.00</text>
</g>
<!-- node0x5a853feed750&#45;&gt;node0x5a853feeca10 -->
<g id="edge5" class="edge">
<title>node0x5a853feed750&#45;&gt;node0x5a853feeca10</title>
<path fill="none" stroke="#5f5b6a" d="M54.29,-292.31C50.08,-284.03 44.95,-273.91 40.28,-264.69"/>
<polygon fill="#5f5b6a" stroke="#5f5b6a" points="43.28,-262.87 35.63,-255.53 37.04,-266.03 43.28,-262.87"/>
</g>
<!-- node0x5a853feeca70 -->
<g id="node7" class="node">
<title>node0x5a853feeca70</title>
<path fill="#8eecf5" stroke="#5f5b6a" d="M84,-219.5C84,-219.5 114,-219.5 114,-219.5 120,-219.5 126,-225.5 126,-231.5 126,-231.5 126,-243.5 126,-243.5 126,-249.5 120,-255.5 114,-255.5 114,-255.5 84,-255.5 84,-255.5 78,-255.5 72,-249.5 72,-243.5 72,-243.5 72,-231.5 72,-231.5 72,-225.5 78,-219.5 84,-219.5"/>
<text text-anchor="middle" x="99" y="-233.8" font-family="Times,serif" font-size="14.00">9.00</text>
</g>
<!-- node0x5a853feed750&#45;&gt;node0x5a853feeca70 -->
<g id="edge6" class="edge">
<title>node0x5a853feed750&#45;&gt;node0x5a853feeca70</title>
<path fill="none" stroke="#5f5b6a" d="M71.71,-292.31C75.92,-284.03 81.05,-273.91 85.72,-264.69"/>
<polygon fill="#5f5b6a" stroke="#5f5b6a" points="88.96,-266.03 90.37,-255.53 82.72,-262.87 88.96,-266.03"/>
</g>
<!-- node0x5a853feecb30 -->
<g id="node10" class="node">
<title>node0x5a853feecb30</title>
<path fill="#98f5e1" stroke="#5f5b6a" d="M192,-292.5C192,-292.5 222,-292.5 222,-292.5 228,-292.5 234,-298.5 234,-304.5 234,-304.5 234,-316.5 234,-316.5 234,-322.5 228,-328.5 222,-328.5 222,-328.5 192,-328.5 192,-328.5 186,-328.5 180,-322.5 180,-316.5 180,-316.5 180,-304.5 180,-304.5 180,-298.5 186,-292.5 192,-292.5"/>
<text text-anchor="middle" x="207" y="-306.8" font-family="Times,serif" font-size="14.00">0</text>
</g>
<!-- node0x5a853feed7b0&#45;&gt;node0x5a853feecb30 -->
<g id="edge9" class="edge">
<title>node0x5a853feed7b0&#45;&gt;node0x5a853feecb30</title>
<path fill="none" stroke="#5f5b6a" d="M235.04,-365.31C230.68,-356.94 225.34,-346.7 220.5,-337.4"/>
<polygon fill="#5f5b6a" stroke="#5f5b6a" points="223.6,-335.78 215.87,-328.53 217.39,-339.01 223.6,-335.78"/>
</g>
<!-- node0x5a853feecb90 -->
<g id="node11" class="node">
<title>node0x5a853feecb90</title>
<path fill="#8eecf5" stroke="#5f5b6a" d="M264.5,-292.5C264.5,-292.5 297.5,-292.5 297.5,-292.5 303.5,-292.5 309.5,-298.5 309.5,-304.5 309.5,-304.5 309.5,-316.5 309.5,-316.5 309.5,-322.5 303.5,-328.5 297.5,-328.5 297.5,-328.5 264.5,-328.5 264.5,-328.5 258.5,-328.5 252.5,-322.5 252.5,-316.5 252.5,-316.5 252.5,-304.5 252.5,-304.5 252.5,-298.5 258.5,-292.5 264.5,-292.5"/>
<text text-anchor="middle" x="281" y="-306.8" font-family="Times,serif" font-size="14.00">10.00</text>
</g>
<!-- node0x5a853feed7b0&#45;&gt;node0x5a853feecb90 -->
<g id="edge10" class="edge">
<title>node0x5a853feed7b0&#45;&gt;node0x5a853feecb90</title>
<path fill="none" stroke="#5f5b6a" d="M252.96,-365.31C257.32,-356.94 262.66,-346.7 267.5,-337.4"/>
<polygon fill="#5f5b6a" stroke="#5f5b6a" points="270.61,-339.01 272.13,-328.53 264.4,-335.78 270.61,-339.01"/>
</g>
<!-- node0x5a853feed840 -->
<g id="node13" class="node">
<title>node0x5a853feed840</title>
<path fill="#cfbaf0" stroke="#5f5b6a" d="M412,-365.5C412,-365.5 442,-365.5 442,-365.5 448,-365.5 454,-371.5 454,-377.5 454,-377.5 454,-389.5 454,-389.5 454,-395.5 448,-401.5 442,-401.5 442,-401.5 412,-401.5 412,-401.5 406,-401.5 400,-395.5 400,-389.5 400,-389.5 400,-377.5 400,-377.5 400,-371.5 406,-365.5 412,-365.5"/>
<text text-anchor="middle" x="427" y="-379.8" font-family="Times,serif" font-size="14.00">=</text>
</g>
<!-- node0x5a853feeda80&#45;&gt;node0x5a853feed840 -->
<g id="edge12" class="edge">
<title>node0x5a853feeda80&#45;&gt;node0x5a853feed840</title>
<path fill="none" stroke="#5f5b6a" d="M440.64,-438.31C438.59,-430.2 436.09,-420.34 433.79,-411.28"/>
<polygon fill="#5f5b6a" stroke="#5f5b6a" points="437.17,-410.36 431.32,-401.53 430.38,-412.08 437.17,-410.36"/>
</g>
<!-- node0x5a853feeda50 -->
<g id="node17" class="node">
<title>node0x5a853feeda50</title>
<path fill="#ffcfd2" stroke="#5f5b6a" d="M484,-365.5C484,-365.5 514,-365.5 514,-365.5 520,-365.5 526,-371.5 526,-377.5 526,-377.5 526,-389.5 526,-389.5 526,-395.5 520,-401.5 514,-401.5 514,-401.5 484,-401.5 484,-401.5 478,-401.5 472,-395.5 472,-389.5 472,-389.5 472,-377.5 472,-377.5 472,-371.5 478,-365.5 484,-365.5"/>
<text text-anchor="middle" x="499" y="-379.8" font-family="Times,serif" font-size="14.00">;</text>
</g>
<!-- node0x5a853feeda80&#45;&gt;node0x5a853feeda50 -->
<g id="edge16" class="edge">
<title>node0x5a853feeda80&#45;&gt;node0x5a853feeda50</title>
<path fill="none" stroke="#5f5b6a" d="M458.07,-438.31C464.64,-429.68 472.72,-419.06 479.96,-409.53"/>
<polygon fill="#5f5b6a" stroke="#5f5b6a" points="482.78,-411.61 486.05,-401.53 477.21,-407.37 482.78,-411.61"/>
</g>
<!-- node0x5a853feecc20 -->
<g id="node14" class="node">
<title>node0x5a853feecc20</title>
<path fill="#98f5e1" stroke="#5f5b6a" d="M340,-292.5C340,-292.5 370,-292.5 370,-292.5 376,-292.5 382,-298.5 382,-304.5 382,-304.5 382,-316.5 382,-316.5 382,-322.5 376,-328.5 370,-328.5 370,-328.5 340,-328.5 340,-328.5 334,-328.5 328,-322.5 328,-316.5 328,-316.5 328,-304.5 328,-304.5 328,-298.5 334,-292.5 340,-292.5"/>
<text text-anchor="middle" x="355" y="-306.8" font-family="Times,serif" font-size="14.00">0</text>
</g>
<!-- node0x5a853feed840&#45;&gt;node0x5a853feecc20 -->
<g id="edge13" class="edge">
<title>node0x5a853feed840&#45;&gt;node0x5a853feecc20</title>
<path fill="none" stroke="#5f5b6a" d="M409.57,-365.31C400.55,-356.42 389.39,-345.41 379.51,-335.67"/>
<polygon fill="#5f5b6a" stroke="#5f5b6a" points="381.85,-333.06 372.27,-328.53 376.93,-338.04 381.85,-333.06"/>
</g>
<!-- node0x5a853feed810 -->
<g id="node15" class="node">
<title>node0x5a853feed810</title>
<path fill="#cfbaf0" stroke="#5f5b6a" d="M412,-292.5C412,-292.5 442,-292.5 442,-292.5 448,-292.5 454,-298.5 454,-304.5 454,-304.5 454,-316.5 454,-316.5 454,-322.5 448,-328.5 442,-328.5 442,-328.5 412,-328.5 412,-328.5 406,-328.5 400,-322.5 400,-316.5 400,-316.5 400,-304.5 400,-304.5 400,-298.5 406,-292.5 412,-292.5"/>
<text text-anchor="middle" x="427" y="-306.8" font-family="Times,serif" font-size="14.00">cos</text>
</g>
<!-- node0x5a853feed840&#45;&gt;node0x5a853feed810 -->
<g id="edge14" class="edge">
<title>node0x5a853feed840&#45;&gt;node0x5a853feed810</title>
<path fill="none" stroke="#5f5b6a" d="M427,-365.31C427,-357.29 427,-347.55 427,-338.57"/>
<polygon fill="#5f5b6a" stroke="#5f5b6a" points="430.5,-338.53 427,-328.53 423.5,-338.53 430.5,-338.53"/>
</g>
<!-- node0x5a853feecce0 -->
<g id="node16" class="node">
<title>node0x5a853feecce0</title>
<path fill="#8eecf5" stroke="#5f5b6a" d="M340,-219.5C340,-219.5 370,-219.5 370,-219.5 376,-219.5 382,-225.5 382,-231.5 382,-231.5 382,-243.5 382,-243.5 382,-249.5 376,-255.5 370,-255.5 370,-255.5 340,-255.5 340,-255.5 334,-255.5 328,-249.5 328,-243.5 328,-243.5 328,-231.5 328,-231.5 328,-225.5 334,-219.5 340,-219.5"/>
<text text-anchor="middle" x="355" y="-233.8" font-family="Times,serif" font-size="14.00">9.00</text>
</g>
<!-- node0x5a853feed810&#45;&gt;node0x5a853feecce0 -->
<g id="edge15" class="edge">
<title>node0x5a853feed810&#45;&gt;node0x5a853feecce0</title>
<path fill="none" stroke="#5f5b6a" d="M409.57,-292.31C400.55,-283.42 389.39,-272.41 379.51,-262.67"/>
<polygon fill="#5f5b6a" stroke="#5f5b6a" points="381.85,-260.06 372.27,-255.53 376.93,-265.04 381.85,-260.06"/>
</g>
<!-- node0x5a853feed9c0 -->
<g id="node18" class="node">
<title>node0x5a853feed9c0</title>
<path fill="#f1c0e8" stroke="#5f5b6a" d="M484.5,-292.5C484.5,-292.5 515.5,-292.5 515.5,-292.5 521.5,-292.5 527.5,-298.5 527.5,-304.5 527.5,-304.5 527.5,-316.5 527.5,-316.5 527.5,-322.5 521.5,-328.5 515.5,-328.5 515.5,-328.5 484.5,-328.5 484.5,-328.5 478.5,-328.5 472.5,-322.5 472.5,-316.5 472.5,-316.5 472.5,-304.5 472.5,-304.5 472.5,-298.5 478.5,-292.5 484.5,-292.5"/>
<text text-anchor="middle" x="500" y="-306.8" font-family="Times,serif" font-size="14.00">while</text>
</g>
<!-- node0x5a853feeda50&#45;&gt;node0x5a853feed9c0 -->
<g id="edge17" class="edge">
<title>node0x5a853feeda50&#45;&gt;node0x5a853feed9c0</title>
<path fill="none" stroke="#5f5b6a" d="M499.24,-365.31C499.36,-357.29 499.49,-347.55 499.62,-338.57"/>
<polygon fill="#5f5b6a" stroke="#5f5b6a" points="503.12,-338.58 499.76,-328.53 496.12,-338.48 503.12,-338.58"/>
</g>
<!-- node0x5a853feeda20 -->
<g id="node33" class="node">
<title>node0x5a853feeda20</title>
<path fill="#ffcfd2" stroke="#5f5b6a" d="M558,-292.5C558,-292.5 588,-292.5 588,-292.5 594,-292.5 600,-298.5 600,-304.5 600,-304.5 600,-316.5 600,-316.5 600,-322.5 594,-328.5 588,-328.5 588,-328.5 558,-328.5 558,-328.5 552,-328.5 546,-322.5 546,-316.5 546,-316.5 546,-304.5 546,-304.5 546,-298.5 552,-292.5 558,-292.5"/>
<text text-anchor="middle" x="573" y="-306.8" font-family="Times,serif" font-size="14.00">;</text>
</g>
<!-- node0x5a853feeda50&#45;&gt;node0x5a853feeda20 -->
<g id="edge32" class="edge">
<title>node0x5a853feeda50&#45;&gt;node0x5a853feeda20</title>
<path fill="none" stroke="#5f5b6a" d="M516.91,-365.31C526.18,-356.42 537.66,-345.41 547.81,-335.67"/>
<polygon fill="#5f5b6a" stroke="#5f5b6a" points="550.46,-337.98 555.25,-328.53 545.61,-332.93 550.46,-337.98"/>
</g>
<!-- node0x5a853feed900 -->
<g id="node19" class="node">
<title>node0x5a853feed900</title>
<path fill="#cfbaf0" stroke="#5f5b6a" d="M412,-219.5C412,-219.5 442,-219.5 442,-219.5 448,-219.5 454,-225.5 454,-231.5 454,-231.5 454,-243.5 454,-243.5 454,-249.5 448,-255.5 442,-255.5 442,-255.5 412,-255.5 412,-255.5 406,-255.5 400,-249.5 400,-243.5 400,-243.5 400,-231.5 400,-231.5 400,-225.5 406,-219.5 412,-219.5"/>
<text text-anchor="middle" x="427" y="-233.8" font-family="Times,serif" font-size="14.00">| |</text>
</g>
<!-- node0x5a853feed9c0&#45;&gt;node0x5a853feed900 -->
<g id="edge18" class="edge">
<title>node0x5a853feed9c0&#45;&gt;node0x5a853feed900</title>
<path fill="none" stroke="#5f5b6a" d="M482.33,-292.31C473.18,-283.42 461.86,-272.41 451.85,-262.67"/>
<polygon fill="#5f5b6a" stroke="#5f5b6a" points="454.12,-259.99 444.51,-255.53 449.24,-265.01 454.12,-259.99"/>
</g>
<!-- node0x5a853feed990 -->
<g id="node28" class="node">
<title>node0x5a853feed990</title>
<path fill="#ffcfd2" stroke="#5f5b6a" d="M485,-219.5C485,-219.5 515,-219.5 515,-219.5 521,-219.5 527,-225.5 527,-231.5 527,-231.5 527,-243.5 527,-243.5 527,-249.5 521,-255.5 515,-255.5 515,-255.5 485,-255.5 485,-255.5 479,-255.5 473,-249.5 473,-243.5 473,-243.5 473,-231.5 473,-231.5 473,-225.5 479,-219.5 485,-219.5"/>
<text text-anchor="middle" x="500" y="-233.8" font-family="Times,serif" font-size="14.00">;</text>
</g>
<!-- node0x5a853feed9c0&#45;&gt;node0x5a853feed990 -->
<g id="edge27" class="edge">
<title>node0x5a853feed9c0&#45;&gt;node0x5a853feed990</title>
<path fill="none" stroke="#5f5b6a" d="M500,-292.31C500,-284.29 500,-274.55 500,-265.57"/>
<polygon fill="#5f5b6a" stroke="#5f5b6a" points="503.5,-265.53 500,-255.53 496.5,-265.53 503.5,-265.53"/>
</g>
<!-- node0x5a853feed8a0 -->
<g id="node20" class="node">
<title>node0x5a853feed8a0</title>
<path fill="#cfbaf0" stroke="#5f5b6a" d="M266,-146.5C266,-146.5 296,-146.5 296,-146.5 302,-146.5 308,-152.5 308,-158.5 308,-158.5 308,-170.5 308,-170.5 308,-176.5 302,-182.5 296,-182.5 296,-182.5 266,-182.5 266,-182.5 260,-182.5 254,-176.5 254,-170.5 254,-170.5 254,-158.5 254,-158.5 254,-152.5 260,-146.5 266,-146.5"/>
<text text-anchor="middle" x="281" y="-160.8" font-family="Times,serif" font-size="14.00">&gt;=</text>
</g>
<!-- node0x5a853feed900&#45;&gt;node0x5a853feed8a0 -->
<g id="edge19" class="edge">
<title>node0x5a853feed900&#45;&gt;node0x5a853feed8a0</title>
<path fill="none" stroke="#5f5b6a" d="M399.88,-223.31C376.67,-212.03 343.06,-195.68 317.49,-183.25"/>
<polygon fill="#5f5b6a" stroke="#5f5b6a" points="318.99,-180.08 308.47,-178.86 315.93,-186.38 318.99,-180.08"/>
</g>
<!-- node0x5a853feed8d0 -->
<g id="node25" class="node">
<title>node0x5a853feed8d0</title>
<path fill="#cfbaf0" stroke="#5f5b6a" d="M412,-146.5C412,-146.5 442,-146.5 442,-146.5 448,-146.5 454,-152.5 454,-158.5 454,-158.5 454,-170.5 454,-170.5 454,-176.5 448,-182.5 442,-182.5 442,-182.5 412,-182.5 412,-182.5 406,-182.5 400,-176.5 400,-170.5 400,-170.5 400,-158.5 400,-158.5 400,-152.5 406,-146.5 412,-146.5"/>
<text text-anchor="middle" x="427" y="-160.8" font-family="Times,serif" font-size="14.00">!=</text>
</g>
<!-- node0x5a853feed900&#45;&gt;node0x5a853feed8d0 -->
<g id="edge24" class="edge">
<title>node0x5a853feed900&#45;&gt;node0x5a853feed8d0</title>
<path fill="none" stroke="#5f5b6a" d="M427,-219.31C427,-211.29 427,-201.55 427,-192.57"/>
<polygon fill="#5f5b6a" stroke="#5f5b6a" points="430.5,-192.53 427,-182.53 423.5,-192.53 430.5,-192.53"/>
</g>
<!-- node0x5a853feecdd0 -->
<g id="node21" class="node">
<title>node0x5a853feecdd0</title>
<path fill="#98f5e1" stroke="#5f5b6a" d="M194,-73.5C194,-73.5 224,-73.5 224,-73.5 230,-73.5 236,-79.5 236,-85.5 236,-85.5 236,-97.5 236,-97.5 236,-103.5 230,-109.5 224,-109.5 224,-109.5 194,-109.5 194,-109.5 188,-109.5 182,-103.5 182,-97.5 182,-97.5 182,-85.5 182,-85.5 182,-79.5 188,-73.5 194,-73.5"/>
<text text-anchor="middle" x="209" y="-87.8" font-family="Times,serif" font-size="14.00">0</text>
</g>
<!-- node0x5a853feed8a0&#45;&gt;node0x5a853feecdd0 -->
<g id="edge20" class="edge">
<title>node0x5a853feed8a0&#45;&gt;node0x5a853feecdd0</title>
<path fill="none" stroke="#5f5b6a" d="M263.57,-146.31C254.55,-137.42 243.39,-126.41 233.51,-116.67"/>
<polygon fill="#5f5b6a" stroke="#5f5b6a" points="235.85,-114.06 226.27,-109.53 230.93,-119.04 235.85,-114.06"/>
</g>
<!-- node0x5a853feed870 -->
<g id="node22" class="node">
<title>node0x5a853feed870</title>
<path fill="#cfbaf0" stroke="#5f5b6a" d="M266,-73.5C266,-73.5 296,-73.5 296,-73.5 302,-73.5 308,-79.5 308,-85.5 308,-85.5 308,-97.5 308,-97.5 308,-103.5 302,-109.5 296,-109.5 296,-109.5 266,-109.5 266,-109.5 260,-109.5 254,-103.5 254,-97.5 254,-97.5 254,-85.5 254,-85.5 254,-79.5 260,-73.5 266,-73.5"/>
<text text-anchor="middle" x="281" y="-87.8" font-family="Times,serif" font-size="14.00">+</text>
</g>
<!-- node0x5a853feed8a0&#45;&gt;node0x5a853feed870 -->
<g id="edge21" class="edge">
<title>node0x5a853feed8a0&#45;&gt;node0x5a853feed870</title>
<path fill="none" stroke="#5f5b6a" d="M281,-146.31C281,-138.29 281,-128.55 281,-119.57"/>
<polygon fill="#5f5b6a" stroke="#5f5b6a" points="284.5,-119.53 281,-109.53 277.5,-119.53 284.5,-119.53"/>
</g>
<!-- node0x5a853feece30 -->
<g id="node23" class="node">
<title>node0x5a853feece30</title>
<path fill="#8eecf5" stroke="#5f5b6a" d="M230,-0.5C230,-0.5 260,-0.5 260,-0.5 266,-0.5 272,-6.5 272,-12.5 272,-12.5 272,-24.5 272,-24.5 272,-30.5 266,-36.5 260,-36.5 260,-36.5 230,-36.5 230,-36.5 224,-36.5 218,-30.5 218,-24.5 218,-24.5 218,-12.5 218,-12.5 218,-6.5 224,-0.5 230,-0.5"/>
<text text-anchor="middle" x="245" y="-14.8" font-family="Times,serif" font-size="14.00">7.00</text>
</g>
<!-- node0x5a853feed870&#45;&gt;node0x5a853feece30 -->
<g id="edge22" class="edge">
<title>node0x5a853feed870&#45;&gt;node0x5a853feece30</title>
<path fill="none" stroke="#5f5b6a" d="M272.29,-73.31C268.08,-65.03 262.95,-54.91 258.28,-45.69"/>
<polygon fill="#5f5b6a" stroke="#5f5b6a" points="261.28,-43.87 253.63,-36.53 255.04,-47.03 261.28,-43.87"/>
</g>
<!-- node0x5a853feece90 -->
<g id="node24" class="node">
<title>node0x5a853feece90</title>
<path fill="#8eecf5" stroke="#5f5b6a" d="M302,-0.5C302,-0.5 332,-0.5 332,-0.5 338,-0.5 344,-6.5 344,-12.5 344,-12.5 344,-24.5 344,-24.5 344,-30.5 338,-36.5 332,-36.5 332,-36.5 302,-36.5 302,-36.5 296,-36.5 290,-30.5 290,-24.5 290,-24.5 290,-12.5 290,-12.5 290,-6.5 296,-0.5 302,-0.5"/>
<text text-anchor="middle" x="317" y="-14.8" font-family="Times,serif" font-size="14.00">8.00</text>
</g>
<!-- node0x5a853feed870&#45;&gt;node0x5a853feece90 -->
<g id="edge23" class="edge">
<title>node0x5a853feed870&#45;&gt;node0x5a853feece90</title>
<path fill="none" stroke="#5f5b6a" d="M289.71,-73.31C293.92,-65.03 299.05,-54.91 303.72,-45.69"/>
<polygon fill="#5f5b6a" stroke="#5f5b6a" points="306.96,-47.03 308.37,-36.53 300.72,-43.87 306.96,-47.03"/>
</g>
<!-- node0x5a853feecef0 -->
<g id="node26" class="node">
<title>node0x5a853feecef0</title>
<path fill="#98f5e1" stroke="#5f5b6a" d="M338,-73.5C338,-73.5 368,-73.5 368,-73.5 374,-73.5 380,-79.5 380,-85.5 380,-85.5 380,-97.5 380,-97.5 380,-103.5 374,-109.5 368,-109.5 368,-109.5 338,-109.5 338,-109.5 332,-109.5 326,-103.5 326,-97.5 326,-97.5 326,-85.5 326,-85.5 326,-79.5 332,-73.5 338,-73.5"/>
<text text-anchor="middle" x="353" y="-87.8" font-family="Times,serif" font-size="14.00">1</text>
</g>
<!-- node0x5a853feed8d0&#45;&gt;node0x5a853feecef0 -->
<g id="edge25" class="edge">
<title>node0x5a853feed8d0&#45;&gt;node0x5a853feecef0</title>
<path fill="none" stroke="#5f5b6a" d="M409.09,-146.31C399.82,-137.42 388.34,-126.41 378.19,-116.67"/>
<polygon fill="#5f5b6a" stroke="#5f5b6a" points="380.39,-113.93 370.75,-109.53 375.54,-118.98 380.39,-113.93"/>
</g>
<!-- node0x5a853feecf50 -->
<g id="node27" class="node">
<title>node0x5a853feecf50</title>
<path fill="#8eecf5" stroke="#5f5b6a" d="M410.5,-73.5C410.5,-73.5 443.5,-73.5 443.5,-73.5 449.5,-73.5 455.5,-79.5 455.5,-85.5 455.5,-85.5 455.5,-97.5 455.5,-97.5 455.5,-103.5 449.5,-109.5 443.5,-109.5 443.5,-109.5 410.5,-109.5 410.5,-109.5 404.5,-109.5 398.5,-103.5 398.5,-97.5 398.5,-97.5 398.5,-85.5 398.5,-85.5 398.5,-79.5 404.5,-73.5 410.5,-73.5"/>
<text text-anchor="middle" x="427" y="-87.8" font-family="Times,serif" font-size="14.00">78.00</text>
</g>
<!-- node0x5a853feed8d0&#45;&gt;node0x5a853feecf50 -->
<g id="edge26" class="edge">
<title>node0x5a853feed8d0&#45;&gt;node0x5a853feecf50</title>
<path fill="none" stroke="#5f5b6a" d="M427,-146.31C427,-138.29 427,-128.55 427,-119.57"/>
<polygon fill="#5f5b6a" stroke="#5f5b6a" points="430.5,-119.53 427,-109.53 423.5,-119.53 430.5,-119.53"/>
</g>
<!-- node0x5a853feed960 -->
<g id="node29" class="node">
<title>node0x5a853feed960</title>
<path fill="#cfbaf0" stroke="#5f5b6a" d="M486,-146.5C486,-146.5 516,-146.5 516,-146.5 522,-146.5 528,-152.5 528,-158.5 528,-158.5 528,-170.5 528,-170.5 528,-176.5 522,-182.5 516,-182.5 516,-182.5 486,-182.5 486,-182.5 480,-182.5 474,-176.5 474,-170.5 474,-170.5 474,-158.5 474,-158.5 474,-152.5 480,-146.5 486,-146.5"/>
<text text-anchor="middle" x="501" y="-160.8" font-family="Times,serif" font-size="14.00">=</text>
</g>
<!-- node0x5a853feed990&#45;&gt;node0x5a853feed960 -->
<g id="edge28" class="edge">
<title>node0x5a853feed990&#45;&gt;node0x5a853feed960</title>
<path fill="none" stroke="#5f5b6a" d="M500.24,-219.31C500.36,-211.29 500.49,-201.55 500.62,-192.57"/>
<polygon fill="#5f5b6a" stroke="#5f5b6a" points="504.12,-192.58 500.76,-182.53 497.12,-192.48 504.12,-192.58"/>
</g>
<!-- node0x5a853feecfe0 -->
<g id="node30" class="node">
<title>node0x5a853feecfe0</title>
<path fill="#98f5e1" stroke="#5f5b6a" d="M486,-73.5C486,-73.5 516,-73.5 516,-73.5 522,-73.5 528,-79.5 528,-85.5 528,-85.5 528,-97.5 528,-97.5 528,-103.5 522,-109.5 516,-109.5 516,-109.5 486,-109.5 486,-109.5 480,-109.5 474,-103.5 474,-97.5 474,-97.5 474,-85.5 474,-85.5 474,-79.5 480,-73.5 486,-73.5"/>
<text text-anchor="middle" x="501" y="-87.8" font-family="Times,serif" font-size="14.00">1</text>
</g>
<!-- node0x5a853feed960&#45;&gt;node0x5a853feecfe0 -->
<g id="edge29" class="edge">
<title>node0x5a853feed960&#45;&gt;node0x5a853feecfe0</title>
<path fill="none" stroke="#5f5b6a" d="M501,-146.31C501,-138.29 501,-128.55 501,-119.57"/>
<polygon fill="#5f5b6a" stroke="#5f5b6a" points="504.5,-119.53 501,-109.53 497.5,-119.53 504.5,-119.53"/>
</g>
<!-- node0x5a853feed930 -->
<g id="node31" class="node">
<title>node0x5a853feed930</title>
<path fill="#cfbaf0" stroke="#5f5b6a" d="M558,-73.5C558,-73.5 588,-73.5 588,-73.5 594,-73.5 600,-79.5 600,-85.5 600,-85.5 600,-97.5 600,-97.5 600,-103.5 594,-109.5 588,-109.5 588,-109.5 558,-109.5 558,-109.5 552,-109.5 546,-103.5 546,-97.5 546,-97.5 546,-85.5 546,-85.5 546,-79.5 552,-73.5 558,-73.5"/>
<text text-anchor="middle" x="573" y="-87.8" font-family="Times,serif" font-size="14.00">ln</text>
</g>
<!-- node0x5a853feed960&#45;&gt;node0x5a853feed930 -->
<g id="edge30" class="edge">
<title>node0x5a853feed960&#45;&gt;node0x5a853feed930</title>
<path fill="none" stroke="#5f5b6a" d="M518.43,-146.31C527.45,-137.42 538.61,-126.41 548.49,-116.67"/>
<polygon fill="#5f5b6a" stroke="#5f5b6a" points="551.07,-119.04 555.73,-109.53 546.15,-114.06 551.07,-119.04"/>
</g>
<!-- node0x5a853feed0a0 -->
<g id="node32" class="node">
<title>node0x5a853feed0a0</title>
<path fill="#8eecf5" stroke="#5f5b6a" d="M556.5,-0.5C556.5,-0.5 589.5,-0.5 589.5,-0.5 595.5,-0.5 601.5,-6.5 601.5,-12.5 601.5,-12.5 601.5,-24.5 601.5,-24.5 601.5,-30.5 595.5,-36.5 589.5,-36.5 589.5,-36.5 556.5,-36.5 556.5,-36.5 550.5,-36.5 544.5,-30.5 544.5,-24.5 544.5,-24.5 544.5,-12.5 544.5,-12.5 544.5,-6.5 550.5,-0.5 556.5,-0.5"/>
<text text-anchor="middle" x="573" y="-14.8" font-family="Times,serif" font-size="14.00">37.00</text>
</g>
<!-- node0x5a853feed930&#45;&gt;node0x5a853feed0a0 -->
<g id="edge31" class="edge">
<title>node0x5a853feed930&#45;&gt;node0x5a853feed0a0</title>
<path fill="none" stroke="#5f5b6a" d="M573,-73.31C573,-65.29 573,-55.55 573,-46.57"/>
<polygon fill="#5f5b6a" stroke="#5f5b6a" points="576.5,-46.53 573,-36.53 569.5,-46.53 576.5,-46.53"/>
</g>
<!-- node0x5a853feed9f0 -->
<g id="node34" class="node">
<title>node0x5a853feed9f0</title>
<path fill="#cfbaf0" stroke="#5f5b6a" d="M558,-219.5C558,-219.5 588,-219.5 588,-219.5 594,-219.5 600,-225.5 600,-231.5 600,-231.5 600,-243.5 600,-243.5 600,-249.5 594,-255.5 588,-255.5 588,-255.5 558,-255.5 558,-255.5 552,-255.5 546,-249.5 546,-243.5 546,-243.5 546,-231.5 546,-231.5 546,-225.5 552,-219.5 558,-219.5"/>
<text text-anchor="middle" x="573" y="-233.8" font-family="Times,serif" font-size="14.00">=</text>
</g>
<!-- node0x5a853feeda20&#45;&gt;node0x5a853feed9f0 -->
<g id="edge33" class="edge">
<title>node0x5a853feeda20&#45;&gt;node0x5a853feed9f0</title>
<path fill="none" stroke="#5f5b6a" d="M573,-292.31C573,-284.29 573,-274.55 573,-265.57"/>
<polygon fill="#5f5b6a" stroke="#5f5b6a" points="576.5,-265.53 573,-255.53 569.5,-265.53 576.5,-265.53"/>
</g>
<!-- node0x5a853feed160 -->
<g id="node35" class="node">
<title>node0x5a853feed160</title>
<path fill="#98f5e1" stroke="#5f5b6a" d="M558,-146.5C558,-146.5 588,-146.5 588,-146.5 594,-146.5 600,-152.5 600,-158.5 600,-158.5 600,-170.5 600,-170.5 600,-176.5 594,-182.5 588,-182.5 588,-182.5 558,-182.5 558,-182.5 552,-182.5 546,-176.5 546,-170.5 546,-170.5 546,-158.5 546,-158.5 546,-152.5 552,-146.5 558,-146.5"/>
<text text-anchor="middle" x="573" y="-160.8" font-family="Times,serif" font-size="14.00">0</text>
</g>
<!-- node0x5a853feed9f0&#45;&gt;node0x5a853feed160 -->
<g id="edge34" class="edge">
<title>node0x5a853feed9f0&#45;&gt;node0x5a853feed160</title>
<path fill="none" stroke="#5f5b6a" d="M573,-219.31C573,-211.29 573,-201.55 573,-192.57"/>
<polygon fill="#5f5b6a" stroke="#5f5b6a" points="576.5,-192.53 573,-182.53 569.5,-192.53 576.5,-192.53"/>
</g>
<!-- node0x5a853feed1c0 -->
<g id="node36" class="node">
<title>node0x5a853feed1c0</title>
<path fill="#98f5e1" stroke="#5f5b6a" d="M630,-146.5C630,-146.5 660,-146.5 660,-146.5 666,-146.5 672,-152.5 672,-158.5 672,-158.5 672,-170.5 672,-170.5 672,-176.5 666,-182.5 660,-182.5 660,-182.5 630,-182.5 630,-182.5 624,-182.5 618,-176.5 618,-170.5 618,-170.5 618,-158.5 618,-158.5 618,-152.5 624,-146.5 630,-146.5"/>
<text text-anchor="middle" x="645" y="-160.8" font-family="Times,serif" font-size="14.00">1</text>
</g>
<!-- node0x5a853feed9f0&#45;&gt;node0x5a853feed1c0 -->
<g id="edge35" class="edge">
<title>node0x5a853feed9f0&#45;&gt;node0x5a853feed1c0</title>
<path fill="none" stroke="#5f5b6a" d="M590.43,-219.31C599.45,-210.42 610.61,-199.41 620.49,-189.67"/>
<polygon fill="#5f5b6a" stroke="#5f5b6a" points="623.07,-192.04 627.73,-182.53 618.15,-187.06 623.07,-192.04"/>
</g>
<!-- node0x5a853feedae0 -->
<g id="node38" class="node">
<title>node0x5a853feedae0</title>
<path fill="#cfbaf0" stroke="#5f5b6a" d="M556,-438.5C556,-438.5 586,-438.5 586,-438.5 592,-438.5 598,-444.5 598,-450.5 598,-450.5 598,-462.5 598,-462.5 598,-468.5 592,-474.5 586,-474.5 586,-474.5 556,-474.5 556,-474.5 550,-474.5 544,-468.5 544,-462.5 544,-462.5 544,-450.5 544,-450.5 544,-444.5 550,-438.5 556,-438.5"/>
<text text-anchor="middle" x="571" y="-452.8" font-family="Times,serif" font-size="14.00">=</text>
</g>
<!-- node0x5a853feedb10&#45;&gt;node0x5a853feedae0 -->
<g id="edge37" class="edge">
<title>node0x5a853feedb10&#45;&gt;node0x5a853feedae0</title>
<path fill="none" stroke="#5f5b6a" d="M557.36,-511.31C559.41,-503.2 561.91,-493.34 564.21,-484.28"/>
<polygon fill="#5f5b6a" stroke="#5f5b6a" points="567.62,-485.08 566.68,-474.53 560.83,-483.36 567.62,-485.08"/>
</g>
<!-- node0x5a853feed250 -->
<g id="node39" class="node">
<title>node0x5a853feed250</title>
<path fill="#98f5e1" stroke="#5f5b6a" d="M556,-365.5C556,-365.5 586,-365.5 586,-365.5 592,-365.5 598,-371.5 598,-377.5 598,-377.5 598,-389.5 598,-389.5 598,-395.5 592,-401.5 586,-401.5 586,-401.5 556,-401.5 556,-401.5 550,-401.5 544,-395.5 544,-389.5 544,-389.5 544,-377.5 544,-377.5 544,-371.5 550,-365.5 556,-365.5"/>
<text text-anchor="middle" x="571" y="-379.8" font-family="Times,serif" font-size="14.00">0</text>
</g>
<!-- node0x5a853feedae0&#45;&gt;node0x5a853feed250 -->
<g id="edge38" class="edge">
<title>node0x5a853feedae0&#45;&gt;node0x5a853feed250</title>
<path fill="none" stroke="#5f5b6a" d="M571,-438.31C571,-430.29 571,-420.55 571,-411.57"/>
<polygon fill="#5f5b6a" stroke="#5f5b6a" points="574.5,-411.53 571,-401.53 567.5,-411.53 574.5,-411.53"/>
</g>
<!-- node0x5a853feed2b0 -->
<g id="node40" class="node">
<title>node0x5a853feed2b0</title>
<path fill="#8eecf5" stroke="#5f5b6a" d="M628.5,-365.5C628.5,-365.5 661.5,-365.5 661.5,-365.5 667.5,-365.5 673.5,-371.5 673.5,-377.5 673.5,-377.5 673.5,-389.5 673.5,-389.5 673.5,-395.5 667.5,-401.5 661.5,-401.5 661.5,-401.5 628.5,-401.5 628.5,-401.5 622.5,-401.5 616.5,-395.5 616.5,-389.5 616.5,-389.5 616.5,-377.5 616.5,-377.5 616.5,-371.5 622.5,-365.5 628.5,-365.5"/>
<text text-anchor="middle" x="645" y="-379.8" font-family="Times,serif" font-size="14.00">10.00</text>
</g>
<!-- node0x5a853feedae0&#45;&gt;node0x5a853feed2b0 -->
<g id="edge39" class="edge">
<title>node0x5a853feedae0&#45;&gt;node0x5a853feed2b0</title>
<path fill="none" stroke="#5f5b6a" d="M588.91,-438.31C598.18,-429.42 609.66,-418.41 619.81,-408.67"/>
<polygon fill="#5f5b6a" stroke="#5f5b6a" points="622.46,-410.98 627.25,-401.53 617.61,-405.93 622.46,-410.98"/>
</g>
</g>
</svg>
