<?xml version="1.0" encoding="UTF-8" standalone="no"?>
<!DOCTYPE svg PUBLIC "-//W3C//DTD SVG 1.1//EN"
 "http://www.w3.org/Graphics/SVG/1.1/DTD/svg11.dtd">
<!-- Generated by graphviz version 2.43.0 (0)
 -->
<!-- Title: Tree Pages: 1 -->
<svg width="548pt" height="629pt"
 viewBox="0.00 0.00 548.00 629.00" xmlns="http://www.w3.org/2000/svg" xmlns:xlink="http://www.w3.org/1999/xlink">
<g id="graph0" class="graph" transform="scale(1 1) rotate(0) translate(4 625)">
<title>Tree</title>
<polygon fill="#fffeec" stroke="transparent" points="-4,4 -4,-625 544,-625 544,4 -4,4"/>
<!-- node0x610ec5f65820 -->
<g id="node1" class="node">
<title>node0x610ec5f65820</title>
<path fill="#ffcfd2" stroke="#5f5b6a" d="M282,-584.5C282,-584.5 312,-584.5 312,-584.5 318,-584.5 324,-590.5 324,-596.5 324,-596.5 324,-608.5 324,-608.5 324,-614.5 318,-620.5 312,-620.5 312,-620.5 282,-620.5 282,-620.5 276,-620.5 270,-614.5 270,-608.5 270,-608.5 270,-596.5 270,-596.5 270,-590.5 276,-584.5 282,-584.5"/>
<text text-anchor="middle" x="297" y="-598.8" font-family="Times,serif" font-size="14.00">;</text>
</g>
<!-- node0x610ec5f65790 -->
<g id="node2" class="node">
<title>node0x610ec5f65790</title>
<path fill="#f1c0e8" stroke="#5f5b6a" d="M246,-511.5C246,-511.5 276,-511.5 276,-511.5 282,-511.5 288,-517.5 288,-523.5 288,-523.5 288,-535.5 288,-535.5 288,-541.5 282,-547.5 276,-547.5 276,-547.5 246,-547.5 246,-547.5 240,-547.5 234,-541.5 234,-535.5 234,-535.5 234,-523.5 234,-523.5 234,-517.5 240,-511.5 246,-511.5"/>
<text text-anchor="middle" x="261" y="-525.8" font-family="Times,serif" font-size="14.00">if</text>
</g>
<!-- node0x610ec5f65820&#45;&gt;node0x610ec5f65790 -->
<g id="edge1" class="edge">
<title>node0x610ec5f65820&#45;&gt;node0x610ec5f65790</title>
<path fill="none" stroke="#5f5b6a" d="M288.29,-584.31C284.08,-576.03 278.95,-565.91 274.28,-556.69"/>
<polygon fill="#5f5b6a" stroke="#5f5b6a" points="277.28,-554.87 269.63,-547.53 271.04,-558.03 277.28,-554.87"/>
</g>
<!-- node0x610ec5f657f0 -->
<g id="node29" class="node">
<title>node0x610ec5f657f0</title>
<path fill="#ffcfd2" stroke="#5f5b6a" d="M354,-511.5C354,-511.5 384,-511.5 384,-511.5 390,-511.5 396,-517.5 396,-523.5 396,-523.5 396,-535.5 396,-535.5 396,-541.5 390,-547.5 384,-547.5 384,-547.5 354,-547.5 354,-547.5 348,-547.5 342,-541.5 342,-535.5 342,-535.5 342,-523.5 342,-523.5 342,-517.5 348,-511.5 354,-511.5"/>
<text text-anchor="middle" x="369" y="-525.8" font-family="Times,serif" font-size="14.00">;</text>
</g>
<!-- node0x610ec5f65820&#45;&gt;node0x610ec5f657f0 -->
<g id="edge28" class="edge">
<title>node0x610ec5f65820&#45;&gt;node0x610ec5f657f0</title>
<path fill="none" stroke="#5f5b6a" d="M314.43,-584.31C323.45,-575.42 334.61,-564.41 344.49,-554.67"/>
<polygon fill="#5f5b6a" stroke="#5f5b6a" points="347.07,-557.04 351.73,-547.53 342.15,-552.06 347.07,-557.04"/>
</g>
<!-- node0x610ec5f65520 -->
<g id="node3" class="node">
<title>node0x610ec5f65520</title>
<path fill="#cfbaf0" stroke="#5f5b6a" d="M156,-438.5C156,-438.5 186,-438.5 186,-438.5 192,-438.5 198,-444.5 198,-450.5 198,-450.5 198,-462.5 198,-462.5 198,-468.5 192,-474.5 186,-474.5 186,-474.5 156,-474.5 156,-474.5 150,-474.5 144,-468.5 144,-462.5 144,-462.5 144,-450.5 144,-450.5 144,-444.5 150,-438.5 156,-438.5"/>
<text text-anchor="middle" x="171" y="-452.8" font-family="Times,serif" font-size="14.00">==</text>
</g>
<!-- node0x610ec5f65790&#45;&gt;node0x610ec5f65520 -->
<g id="edge2" class="edge">
<title>node0x610ec5f65790&#45;&gt;node0x610ec5f65520</title>
<path fill="none" stroke="#5f5b6a" d="M239.21,-511.31C227.61,-502.16 213.16,-490.76 200.56,-480.82"/>
<polygon fill="#5f5b6a" stroke="#5f5b6a" points="202.6,-477.97 192.59,-474.53 198.27,-483.47 202.6,-477.97"/>
</g>
<!-- node0x610ec5f65760 -->
<g id="node8" class="node">
<title>node0x610ec5f65760</title>
<path fill="#ffcfd2" stroke="#5f5b6a" d="M246,-438.5C246,-438.5 276,-438.5 276,-438.5 282,-438.5 288,-444.5 288,-450.5 288,-450.5 288,-462.5 288,-462.5 288,-468.5 282,-474.5 276,-474.5 276,-474.5 246,-474.5 246,-474.5 240,-474.5 234,-468.5 234,-462.5 234,-462.5 234,-450.5 234,-450.5 234,-444.5 240,-438.5 246,-438.5"/>
<text text-anchor="middle" x="261" y="-452.8" font-family="Times,serif" font-size="14.00">;</text>
</g>
<!-- node0x610ec5f65790&#45;&gt;node0x610ec5f65760 -->
<g id="edge7" class="edge">
<title>node0x610ec5f65790&#45;&gt;node0x610ec5f65760</title>
<path fill="none" stroke="#5f5b6a" d="M261,-511.31C261,-503.29 261,-493.55 261,-484.57"/>
<polygon fill="#5f5b6a" stroke="#5f5b6a" points="264.5,-484.53 261,-474.53 257.5,-484.53 264.5,-484.53"/>
</g>
<!-- node0x610ec5f654f0 -->
<g id="node4" class="node">
<title>node0x610ec5f654f0</title>
<path fill="#cfbaf0" stroke="#5f5b6a" d="M84,-365.5C84,-365.5 114,-365.5 114,-365.5 120,-365.5 126,-371.5 126,-377.5 126,-377.5 126,-389.5 126,-389.5 126,-395.5 120,-401.5 114,-401.5 114,-401.5 84,-401.5 84,-401.5 78,-401.5 72,-395.5 72,-389.5 72,-389.5 72,-377.5 72,-377.5 72,-371.5 78,-365.5 84,-365.5"/>
<text text-anchor="middle" x="99" y="-379.8" font-family="Times,serif" font-size="14.00">+</text>
</g>
<!-- node0x610ec5f65520&#45;&gt;node0x610ec5f654f0 -->
<g id="edge3" class="edge">
<title>node0x610ec5f65520&#45;&gt;node0x610ec5f654f0</title>
<path fill="none" stroke="#5f5b6a" d="M153.57,-438.31C144.55,-429.42 133.39,-418.41 123.51,-408.67"/>
<polygon fill="#5f5b6a" stroke="#5f5b6a" points="125.85,-406.06 116.27,-401.53 120.93,-411.04 125.85,-406.06"/>
</g>
<!-- node0x610ec5f649f0 -->
<g id="node7" class="node">
<title>node0x610ec5f649f0</title>
<path fill="#8eecf5" stroke="#5f5b6a" d="M156,-365.5C156,-365.5 186,-365.5 186,-365.5 192,-365.5 198,-371.5 198,-377.5 198,-377.5 198,-389.5 198,-389.5 198,-395.5 192,-401.5 186,-401.5 186,-401.5 156,-401.5 156,-401.5 150,-401.5 144,-395.5 144,-389.5 144,-389.5 144,-377.5 144,-377.5 144,-371.5 150,-365.5 156,-365.5"/>
<text text-anchor="middle" x="171" y="-379.8" font-family="Times,serif" font-size="14.00">8.00</text>
</g>
<!-- node0x610ec5f65520&#45;&gt;node0x610ec5f649f0 -->
<g id="edge6" class="edge">
<title>node0x610ec5f65520&#45;&gt;node0x610ec5f649f0</title>
<path fill="none" stroke="#5f5b6a" d="M171,-438.31C171,-430.29 171,-420.55 171,-411.57"/>
<polygon fill="#5f5b6a" stroke="#5f5b6a" points="174.5,-411.53 171,-401.53 167.5,-411.53 174.5,-411.53"/>
</g>
<!-- node0x610ec5f64930 -->
<g id="node5" class="node">
<title>node0x610ec5f64930</title>
<path fill="#8eecf5" stroke="#5f5b6a" d="M12,-292.5C12,-292.5 42,-292.5 42,-292.5 48,-292.5 54,-298.5 54,-304.5 54,-304.5 54,-316.5 54,-316.5 54,-322.5 48,-328.5 42,-328.5 42,-328.5 12,-328.5 12,-328.5 6,-328.5 0,-322.5 0,-316.5 0,-316.5 0,-304.5 0,-304.5 0,-298.5 6,-292.5 12,-292.5"/>
<text text-anchor="middle" x="27" y="-306.8" font-family="Times,serif" font-size="14.00">7.00</text>
</g>
<!-- node0x610ec5f654f0&#45;&gt;node0x610ec5f64930 -->
<g id="edge4" class="edge">
<title>node0x610ec5f654f0&#45;&gt;node0x610ec5f64930</title>
<path fill="none" stroke="#5f5b6a" d="M81.57,-365.31C72.55,-356.42 61.39,-345.41 51.51,-335.67"/>
<polygon fill="#5f5b6a" stroke="#5f5b6a" points="53.85,-333.06 44.27,-328.53 48.93,-338.04 53.85,-333.06"/>
</g>
<!-- node0x610ec5f64990 -->
<g id="node6" class="node">
<title>node0x610ec5f64990</title>
<path fill="#8eecf5" stroke="#5f5b6a" d="M84,-292.5C84,-292.5 114,-292.5 114,-292.5 120,-292.5 126,-298.5 126,-304.5 126,-304.5 126,-316.5 126,-316.5 126,-322.5 120,-328.5 114,-328.5 114,-328.5 84,-328.5 84,-328.5 78,-328.5 72,-322.5 72,-316.5 72,-316.5 72,-304.5 72,-304.5 72,-298.5 78,-292.5 84,-292.5"/>
<text text-anchor="middle" x="99" y="-306.8" font-family="Times,serif" font-size="14.00">9.00</text>
</g>
<!-- node0x610ec5f654f0&#45;&gt;node0x610ec5f64990 -->
<g id="edge5" class="edge">
<title>node0x610ec5f654f0&#45;&gt;node0x610ec5f64990</title>
<path fill="none" stroke="#5f5b6a" d="M99,-365.31C99,-357.29 99,-347.55 99,-338.57"/>
<polygon fill="#5f5b6a" stroke="#5f5b6a" points="102.5,-338.53 99,-328.53 95.5,-338.53 102.5,-338.53"/>
</g>
<!-- node0x610ec5f65580 -->
<g id="node9" class="node">
<title>node0x610ec5f65580</title>
<path fill="#cfbaf0" stroke="#5f5b6a" d="M228,-365.5C228,-365.5 258,-365.5 258,-365.5 264,-365.5 270,-371.5 270,-377.5 270,-377.5 270,-389.5 270,-389.5 270,-395.5 264,-401.5 258,-401.5 258,-401.5 228,-401.5 228,-401.5 222,-401.5 216,-395.5 216,-389.5 216,-389.5 216,-377.5 216,-377.5 216,-371.5 222,-365.5 228,-365.5"/>
<text text-anchor="middle" x="243" y="-379.8" font-family="Times,serif" font-size="14.00">=</text>
</g>
<!-- node0x610ec5f65760&#45;&gt;node0x610ec5f65580 -->
<g id="edge8" class="edge">
<title>node0x610ec5f65760&#45;&gt;node0x610ec5f65580</title>
<path fill="none" stroke="#5f5b6a" d="M256.64,-438.31C254.59,-430.2 252.09,-420.34 249.79,-411.28"/>
<polygon fill="#5f5b6a" stroke="#5f5b6a" points="253.17,-410.36 247.32,-401.53 246.38,-412.08 253.17,-410.36"/>
</g>
<!-- node0x610ec5f65730 -->
<g id="node13" class="node">
<title>node0x610ec5f65730</title>
<path fill="#ffcfd2" stroke="#5f5b6a" d="M300,-365.5C300,-365.5 330,-365.5 330,-365.5 336,-365.5 342,-371.5 342,-377.5 342,-377.5 342,-389.5 342,-389.5 342,-395.5 336,-401.5 330,-401.5 330,-401.5 300,-401.5 300,-401.5 294,-401.5 288,-395.5 288,-389.5 288,-389.5 288,-377.5 288,-377.5 288,-371.5 294,-365.5 300,-365.5"/>
<text text-anchor="middle" x="315" y="-379.8" font-family="Times,serif" font-size="14.00">;</text>
</g>
<!-- node0x610ec5f65760&#45;&gt;node0x610ec5f65730 -->
<g id="edge12" class="edge">
<title>node0x610ec5f65760&#45;&gt;node0x610ec5f65730</title>
<path fill="none" stroke="#5f5b6a" d="M274.07,-438.31C280.64,-429.68 288.72,-419.06 295.96,-409.53"/>
<polygon fill="#5f5b6a" stroke="#5f5b6a" points="298.78,-411.61 302.05,-401.53 293.21,-407.37 298.78,-411.61"/>
</g>
<!-- node0x610ec5f64a80 -->
<g id="node10" class="node">
<title>node0x610ec5f64a80</title>
<path fill="#98f5e1" stroke="#5f5b6a" d="M156,-292.5C156,-292.5 186,-292.5 186,-292.5 192,-292.5 198,-298.5 198,-304.5 198,-304.5 198,-316.5 198,-316.5 198,-322.5 192,-328.5 186,-328.5 186,-328.5 156,-328.5 156,-328.5 150,-328.5 144,-322.5 144,-316.5 144,-316.5 144,-304.5 144,-304.5 144,-298.5 150,-292.5 156,-292.5"/>
<text text-anchor="middle" x="171" y="-306.8" font-family="Times,serif" font-size="14.00">0</text>
</g>
<!-- node0x610ec5f65580&#45;&gt;node0x610ec5f64a80 -->
<g id="edge9" class="edge">
<title>node0x610ec5f65580&#45;&gt;node0x610ec5f64a80</title>
<path fill="none" stroke="#5f5b6a" d="M225.57,-365.31C216.55,-356.42 205.39,-345.41 195.51,-335.67"/>
<polygon fill="#5f5b6a" stroke="#5f5b6a" points="197.85,-333.06 188.27,-328.53 192.93,-338.04 197.85,-333.06"/>
</g>
<!-- node0x610ec5f65550 -->
<g id="node11" class="node">
<title>node0x610ec5f65550</title>
<path fill="#cfbaf0" stroke="#5f5b6a" d="M228,-292.5C228,-292.5 258,-292.5 258,-292.5 264,-292.5 270,-298.5 270,-304.5 270,-304.5 270,-316.5 270,-316.5 270,-322.5 264,-328.5 258,-328.5 258,-328.5 228,-328.5 228,-328.5 222,-328.5 216,-322.5 216,-316.5 216,-316.5 216,-304.5 216,-304.5 216,-298.5 222,-292.5 228,-292.5"/>
<text text-anchor="middle" x="243" y="-306.8" font-family="Times,serif" font-size="14.00">cos</text>
</g>
<!-- node0x610ec5f65580&#45;&gt;node0x610ec5f65550 -->
<g id="edge10" class="edge">
<title>node0x610ec5f65580&#45;&gt;node0x610ec5f65550</title>
<path fill="none" stroke="#5f5b6a" d="M243,-365.31C243,-357.29 243,-347.55 243,-338.57"/>
<polygon fill="#5f5b6a" stroke="#5f5b6a" points="246.5,-338.53 243,-328.53 239.5,-338.53 246.5,-338.53"/>
</g>
<!-- node0x610ec5f64b40 -->
<g id="node12" class="node">
<title>node0x610ec5f64b40</title>
<path fill="#8eecf5" stroke="#5f5b6a" d="M210,-219.5C210,-219.5 240,-219.5 240,-219.5 246,-219.5 252,-225.5 252,-231.5 252,-231.5 252,-243.5 252,-243.5 252,-249.5 246,-255.5 240,-255.5 240,-255.5 210,-255.5 210,-255.5 204,-255.5 198,-249.5 198,-243.5 198,-243.5 198,-231.5 198,-231.5 198,-225.5 204,-219.5 210,-219.5"/>
<text text-anchor="middle" x="225" y="-233.8" font-family="Times,serif" font-size="14.00">9.00</text>
</g>
<!-- node0x610ec5f65550&#45;&gt;node0x610ec5f64b40 -->
<g id="edge11" class="edge">
<title>node0x610ec5f65550&#45;&gt;node0x610ec5f64b40</title>
<path fill="none" stroke="#5f5b6a" d="M238.64,-292.31C236.59,-284.2 234.09,-274.34 231.79,-265.28"/>
<polygon fill="#5f5b6a" stroke="#5f5b6a" points="235.17,-264.36 229.32,-255.53 228.38,-266.08 235.17,-264.36"/>
</g>
<!-- node0x610ec5f656a0 -->
<g id="node14" class="node">
<title>node0x610ec5f656a0</title>
<path fill="#f1c0e8" stroke="#5f5b6a" d="M300.5,-292.5C300.5,-292.5 331.5,-292.5 331.5,-292.5 337.5,-292.5 343.5,-298.5 343.5,-304.5 343.5,-304.5 343.5,-316.5 343.5,-316.5 343.5,-322.5 337.5,-328.5 331.5,-328.5 331.5,-328.5 300.5,-328.5 300.5,-328.5 294.5,-328.5 288.5,-322.5 288.5,-316.5 288.5,-316.5 288.5,-304.5 288.5,-304.5 288.5,-298.5 294.5,-292.5 300.5,-292.5"/>
<text text-anchor="middle" x="316" y="-306.8" font-family="Times,serif" font-size="14.00">while</text>
</g>
<!-- node0x610ec5f65730&#45;&gt;node0x610ec5f656a0 -->
<g id="edge13" class="edge">
<title>node0x610ec5f65730&#45;&gt;node0x610ec5f656a0</title>
<path fill="none" stroke="#5f5b6a" d="M315.24,-365.31C315.36,-357.29 315.49,-347.55 315.62,-338.57"/>
<polygon fill="#5f5b6a" stroke="#5f5b6a" points="319.12,-338.58 315.76,-328.53 312.12,-338.48 319.12,-338.58"/>
</g>
<!-- node0x610ec5f65700 -->
<g id="node25" class="node">
<title>node0x610ec5f65700</title>
<path fill="#ffcfd2" stroke="#5f5b6a" d="M409,-292.5C409,-292.5 439,-292.5 439,-292.5 445,-292.5 451,-298.5 451,-304.5 451,-304.5 451,-316.5 451,-316.5 451,-322.5 445,-328.5 439,-328.5 439,-328.5 409,-328.5 409,-328.5 403,-328.5 397,-322.5 397,-316.5 397,-316.5 397,-304.5 397,-304.5 397,-298.5 403,-292.5 409,-292.5"/>
<text text-anchor="middle" x="424" y="-306.8" font-family="Times,serif" font-size="14.00">;</text>
</g>
<!-- node0x610ec5f65730&#45;&gt;node0x610ec5f65700 -->
<g id="edge24" class="edge">
<title>node0x610ec5f65730&#45;&gt;node0x610ec5f65700</title>
<path fill="none" stroke="#5f5b6a" d="M341.11,-365.49C355.56,-356.08 373.71,-344.26 389.34,-334.07"/>
<polygon fill="#5f5b6a" stroke="#5f5b6a" points="391.26,-337 397.73,-328.61 387.44,-331.14 391.26,-337"/>
</g>
<!-- node0x610ec5f655e0 -->
<g id="node15" class="node">
<title>node0x610ec5f655e0</title>
<path fill="#cfbaf0" stroke="#5f5b6a" d="M282,-219.5C282,-219.5 312,-219.5 312,-219.5 318,-219.5 324,-225.5 324,-231.5 324,-231.5 324,-243.5 324,-243.5 324,-249.5 318,-255.5 312,-255.5 312,-255.5 282,-255.5 282,-255.5 276,-255.5 270,-249.5 270,-243.5 270,-243.5 270,-231.5 270,-231.5 270,-225.5 276,-219.5 282,-219.5"/>
<text text-anchor="middle" x="297" y="-233.8" font-family="Times,serif" font-size="14.00">&gt;=</text>
</g>
<!-- node0x610ec5f656a0&#45;&gt;node0x610ec5f655e0 -->
<g id="edge14" class="edge">
<title>node0x610ec5f656a0&#45;&gt;node0x610ec5f655e0</title>
<path fill="none" stroke="#5f5b6a" d="M311.4,-292.31C309.23,-284.2 306.59,-274.34 304.17,-265.28"/>
<polygon fill="#5f5b6a" stroke="#5f5b6a" points="307.52,-264.28 301.56,-255.53 300.76,-266.09 307.52,-264.28"/>
</g>
<!-- node0x610ec5f65670 -->
<g id="node20" class="node">
<title>node0x610ec5f65670</title>
<path fill="#ffcfd2" stroke="#5f5b6a" d="M354,-219.5C354,-219.5 384,-219.5 384,-219.5 390,-219.5 396,-225.5 396,-231.5 396,-231.5 396,-243.5 396,-243.5 396,-249.5 390,-255.5 384,-255.5 384,-255.5 354,-255.5 354,-255.5 348,-255.5 342,-249.5 342,-243.5 342,-243.5 342,-231.5 342,-231.5 342,-225.5 348,-219.5 354,-219.5"/>
<text text-anchor="middle" x="369" y="-233.8" font-family="Times,serif" font-size="14.00">;</text>
</g>
<!-- node0x610ec5f656a0&#45;&gt;node0x610ec5f65670 -->
<g id="edge19" class="edge">
<title>node0x610ec5f656a0&#45;&gt;node0x610ec5f65670</title>
<path fill="none" stroke="#5f5b6a" d="M328.83,-292.31C335.21,-283.77 343.05,-273.27 350.1,-263.82"/>
<polygon fill="#5f5b6a" stroke="#5f5b6a" points="353.11,-265.64 356.29,-255.53 347.5,-261.45 353.11,-265.64"/>
</g>
<!-- node0x610ec5f64c30 -->
<g id="node16" class="node">
<title>node0x610ec5f64c30</title>
<path fill="#98f5e1" stroke="#5f5b6a" d="M210,-146.5C210,-146.5 240,-146.5 240,-146.5 246,-146.5 252,-152.5 252,-158.5 252,-158.5 252,-170.5 252,-170.5 252,-176.5 246,-182.5 240,-182.5 240,-182.5 210,-182.5 210,-182.5 204,-182.5 198,-176.5 198,-170.5 198,-170.5 198,-158.5 198,-158.5 198,-152.5 204,-146.5 210,-146.5"/>
<text text-anchor="middle" x="225" y="-160.8" font-family="Times,serif" font-size="14.00">0</text>
</g>
<!-- node0x610ec5f655e0&#45;&gt;node0x610ec5f64c30 -->
<g id="edge15" class="edge">
<title>node0x610ec5f655e0&#45;&gt;node0x610ec5f64c30</title>
<path fill="none" stroke="#5f5b6a" d="M279.57,-219.31C270.55,-210.42 259.39,-199.41 249.51,-189.67"/>
<polygon fill="#5f5b6a" stroke="#5f5b6a" points="251.85,-187.06 242.27,-182.53 246.93,-192.04 251.85,-187.06"/>
</g>
<!-- node0x610ec5f655b0 -->
<g id="node17" class="node">
<title>node0x610ec5f655b0</title>
<path fill="#cfbaf0" stroke="#5f5b6a" d="M282,-146.5C282,-146.5 312,-146.5 312,-146.5 318,-146.5 324,-152.5 324,-158.5 324,-158.5 324,-170.5 324,-170.5 324,-176.5 318,-182.5 312,-182.5 312,-182.5 282,-182.5 282,-182.5 276,-182.5 270,-176.5 270,-170.5 270,-170.5 270,-158.5 270,-158.5 270,-152.5 276,-146.5 282,-146.5"/>
<text text-anchor="middle" x="297" y="-160.8" font-family="Times,serif" font-size="14.00">+</text>
</g>
<!-- node0x610ec5f655e0&#45;&gt;node0x610ec5f655b0 -->
<g id="edge16" class="edge">
<title>node0x610ec5f655e0&#45;&gt;node0x610ec5f655b0</title>
<path fill="none" stroke="#5f5b6a" d="M297,-219.31C297,-211.29 297,-201.55 297,-192.57"/>
<polygon fill="#5f5b6a" stroke="#5f5b6a" points="300.5,-192.53 297,-182.53 293.5,-192.53 300.5,-192.53"/>
</g>
<!-- node0x610ec5f64c90 -->
<g id="node18" class="node">
<title>node0x610ec5f64c90</title>
<path fill="#8eecf5" stroke="#5f5b6a" d="M210,-73.5C210,-73.5 240,-73.5 240,-73.5 246,-73.5 252,-79.5 252,-85.5 252,-85.5 252,-97.5 252,-97.5 252,-103.5 246,-109.5 240,-109.5 240,-109.5 210,-109.5 210,-109.5 204,-109.5 198,-103.5 198,-97.5 198,-97.5 198,-85.5 198,-85.5 198,-79.5 204,-73.5 210,-73.5"/>
<text text-anchor="middle" x="225" y="-87.8" font-family="Times,serif" font-size="14.00">7.00</text>
</g>
<!-- node0x610ec5f655b0&#45;&gt;node0x610ec5f64c90 -->
<g id="edge17" class="edge">
<title>node0x610ec5f655b0&#45;&gt;node0x610ec5f64c90</title>
<path fill="none" stroke="#5f5b6a" d="M279.57,-146.31C270.55,-137.42 259.39,-126.41 249.51,-116.67"/>
<polygon fill="#5f5b6a" stroke="#5f5b6a" points="251.85,-114.06 242.27,-109.53 246.93,-119.04 251.85,-114.06"/>
</g>
<!-- node0x610ec5f64cf0 -->
<g id="node19" class="node">
<title>node0x610ec5f64cf0</title>
<path fill="#8eecf5" stroke="#5f5b6a" d="M282,-73.5C282,-73.5 312,-73.5 312,-73.5 318,-73.5 324,-79.5 324,-85.5 324,-85.5 324,-97.5 324,-97.5 324,-103.5 318,-109.5 312,-109.5 312,-109.5 282,-109.5 282,-109.5 276,-109.5 270,-103.5 270,-97.5 270,-97.5 270,-85.5 270,-85.5 270,-79.5 276,-73.5 282,-73.5"/>
<text text-anchor="middle" x="297" y="-87.8" font-family="Times,serif" font-size="14.00">8.00</text>
</g>
<!-- node0x610ec5f655b0&#45;&gt;node0x610ec5f64cf0 -->
<g id="edge18" class="edge">
<title>node0x610ec5f655b0&#45;&gt;node0x610ec5f64cf0</title>
<path fill="none" stroke="#5f5b6a" d="M297,-146.31C297,-138.29 297,-128.55 297,-119.57"/>
<polygon fill="#5f5b6a" stroke="#5f5b6a" points="300.5,-119.53 297,-109.53 293.5,-119.53 300.5,-119.53"/>
</g>
<!-- node0x610ec5f65640 -->
<g id="node21" class="node">
<title>node0x610ec5f65640</title>
<path fill="#cfbaf0" stroke="#5f5b6a" d="M354,-146.5C354,-146.5 384,-146.5 384,-146.5 390,-146.5 396,-152.5 396,-158.5 396,-158.5 396,-170.5 396,-170.5 396,-176.5 390,-182.5 384,-182.5 384,-182.5 354,-182.5 354,-182.5 348,-182.5 342,-176.5 342,-170.5 342,-170.5 342,-158.5 342,-158.5 342,-152.5 348,-146.5 354,-146.5"/>
<text text-anchor="middle" x="369" y="-160.8" font-family="Times,serif" font-size="14.00">=</text>
</g>
<!-- node0x610ec5f65670&#45;&gt;node0x610ec5f65640 -->
<g id="edge20" class="edge">
<title>node0x610ec5f65670&#45;&gt;node0x610ec5f65640</title>
<path fill="none" stroke="#5f5b6a" d="M369,-219.31C369,-211.29 369,-201.55 369,-192.57"/>
<polygon fill="#5f5b6a" stroke="#5f5b6a" points="372.5,-192.53 369,-182.53 365.5,-192.53 372.5,-192.53"/>
</g>
<!-- node0x610ec5f64d80 -->
<g id="node22" class="node">
<title>node0x610ec5f64d80</title>
<path fill="#98f5e1" stroke="#5f5b6a" d="M354,-73.5C354,-73.5 384,-73.5 384,-73.5 390,-73.5 396,-79.5 396,-85.5 396,-85.5 396,-97.5 396,-97.5 396,-103.5 390,-109.5 384,-109.5 384,-109.5 354,-109.5 354,-109.5 348,-109.5 342,-103.5 342,-97.5 342,-97.5 342,-85.5 342,-85.5 342,-79.5 348,-73.5 354,-73.5"/>
<text text-anchor="middle" x="369" y="-87.8" font-family="Times,serif" font-size="14.00">1</text>
</g>
<!-- node0x610ec5f65640&#45;&gt;node0x610ec5f64d80 -->
<g id="edge21" class="edge">
<title>node0x610ec5f65640&#45;&gt;node0x610ec5f64d80</title>
<path fill="none" stroke="#5f5b6a" d="M369,-146.31C369,-138.29 369,-128.55 369,-119.57"/>
<polygon fill="#5f5b6a" stroke="#5f5b6a" points="372.5,-119.53 369,-109.53 365.5,-119.53 372.5,-119.53"/>
</g>
<!-- node0x610ec5f65610 -->
<g id="node23" class="node">
<title>node0x610ec5f65610</title>
<path fill="#cfbaf0" stroke="#5f5b6a" d="M426,-73.5C426,-73.5 456,-73.5 456,-73.5 462,-73.5 468,-79.5 468,-85.5 468,-85.5 468,-97.5 468,-97.5 468,-103.5 462,-109.5 456,-109.5 456,-109.5 426,-109.5 426,-109.5 420,-109.5 414,-103.5 414,-97.5 414,-97.5 414,-85.5 414,-85.5 414,-79.5 420,-73.5 426,-73.5"/>
<text text-anchor="middle" x="441" y="-87.8" font-family="Times,serif" font-size="14.00">ln</text>
</g>
<!-- node0x610ec5f65640&#45;&gt;node0x610ec5f65610 -->
<g id="edge22" class="edge">
<title>node0x610ec5f65640&#45;&gt;node0x610ec5f65610</title>
<path fill="none" stroke="#5f5b6a" d="M386.43,-146.31C395.45,-137.42 406.61,-126.41 416.49,-116.67"/>
<polygon fill="#5f5b6a" stroke="#5f5b6a" points="419.07,-119.04 423.73,-109.53 414.15,-114.06 419.07,-119.04"/>
</g>
<!-- node0x610ec5f64e40 -->
<g id="node24" class="node">
<title>node0x610ec5f64e40</title>
<path fill="#8eecf5" stroke="#5f5b6a" d="M424.5,-0.5C424.5,-0.5 457.5,-0.5 457.5,-0.5 463.5,-0.5 469.5,-6.5 469.5,-12.5 469.5,-12.5 469.5,-24.5 469.5,-24.5 469.5,-30.5 463.5,-36.5 457.5,-36.5 457.5,-36.5 424.5,-36.5 424.5,-36.5 418.5,-36.5 412.5,-30.5 412.5,-24.5 412.5,-24.5 412.5,-12.5 412.5,-12.5 412.5,-6.5 418.5,-0.5 424.5,-0.5"/>
<text text-anchor="middle" x="441" y="-14.8" font-family="Times,serif" font-size="14.00">37.00</text>
</g>
<!-- node0x610ec5f65610&#45;&gt;node0x610ec5f64e40 -->
<g id="edge23" class="edge">
<title>node0x610ec5f65610&#45;&gt;node0x610ec5f64e40</title>
<path fill="none" stroke="#5f5b6a" d="M441,-73.31C441,-65.29 441,-55.55 441,-46.57"/>
<polygon fill="#5f5b6a" stroke="#5f5b6a" points="444.5,-46.53 441,-36.53 437.5,-46.53 444.5,-46.53"/>
</g>
<!-- node0x610ec5f656d0 -->
<g id="node26" class="node">
<title>node0x610ec5f656d0</title>
<path fill="#cfbaf0" stroke="#5f5b6a" d="M426,-219.5C426,-219.5 456,-219.5 456,-219.5 462,-219.5 468,-225.5 468,-231.5 468,-231.5 468,-243.5 468,-243.5 468,-249.5 462,-255.5 456,-255.5 456,-255.5 426,-255.5 426,-255.5 420,-255.5 414,-249.5 414,-243.5 414,-243.5 414,-231.5 414,-231.5 414,-225.5 420,-219.5 426,-219.5"/>
<text text-anchor="middle" x="441" y="-233.8" font-family="Times,serif" font-size="14.00">=</text>
</g>
<!-- node0x610ec5f65700&#45;&gt;node0x610ec5f656d0 -->
<g id="edge25" class="edge">
<title>node0x610ec5f65700&#45;&gt;node0x610ec5f656d0</title>
<path fill="none" stroke="#5f5b6a" d="M428.12,-292.31C430.06,-284.2 432.42,-274.34 434.59,-265.28"/>
<polygon fill="#5f5b6a" stroke="#5f5b6a" points="438,-266.07 436.92,-255.53 431.19,-264.44 438,-266.07"/>
</g>
<!-- node0x610ec5f64f00 -->
<g id="node27" class="node">
<title>node0x610ec5f64f00</title>
<path fill="#98f5e1" stroke="#5f5b6a" d="M426,-146.5C426,-146.5 456,-146.5 456,-146.5 462,-146.5 468,-152.5 468,-158.5 468,-158.5 468,-170.5 468,-170.5 468,-176.5 462,-182.5 456,-182.5 456,-182.5 426,-182.5 426,-182.5 420,-182.5 414,-176.5 414,-170.5 414,-170.5 414,-158.5 414,-158.5 414,-152.5 420,-146.5 426,-146.5"/>
<text text-anchor="middle" x="441" y="-160.8" font-family="Times,serif" font-size="14.00">0</text>
</g>
<!-- node0x610ec5f656d0&#45;&gt;node0x610ec5f64f00 -->
<g id="edge26" class="edge">
<title>node0x610ec5f656d0&#45;&gt;node0x610ec5f64f00</title>
<path fill="none" stroke="#5f5b6a" d="M441,-219.31C441,-211.29 441,-201.55 441,-192.57"/>
<polygon fill="#5f5b6a" stroke="#5f5b6a" points="444.5,-192.53 441,-182.53 437.5,-192.53 444.5,-192.53"/>
</g>
<!-- node0x610ec5f64f60 -->
<g id="node28" class="node">
<title>node0x610ec5f64f60</title>
<path fill="#98f5e1" stroke="#5f5b6a" d="M498,-146.5C498,-146.5 528,-146.5 528,-146.5 534,-146.5 540,-152.5 540,-158.5 540,-158.5 540,-170.5 540,-170.5 540,-176.5 534,-182.5 528,-182.5 528,-182.5 498,-182.5 498,-182.5 492,-182.5 486,-176.5 486,-170.5 486,-170.5 486,-158.5 486,-158.5 486,-152.5 492,-146.5 498,-146.5"/>
<text text-anchor="middle" x="513" y="-160.8" font-family="Times,serif" font-size="14.00">1</text>
</g>
<!-- node0x610ec5f656d0&#45;&gt;node0x610ec5f64f60 -->
<g id="edge27" class="edge">
<title>node0x610ec5f656d0&#45;&gt;node0x610ec5f64f60</title>
<path fill="none" stroke="#5f5b6a" d="M458.43,-219.31C467.45,-210.42 478.61,-199.41 488.49,-189.67"/>
<polygon fill="#5f5b6a" stroke="#5f5b6a" points="491.07,-192.04 495.73,-182.53 486.15,-187.06 491.07,-192.04"/>
</g>
<!-- node0x610ec5f657c0 -->
<g id="node30" class="node">
<title>node0x610ec5f657c0</title>
<path fill="#cfbaf0" stroke="#5f5b6a" d="M372,-438.5C372,-438.5 402,-438.5 402,-438.5 408,-438.5 414,-444.5 414,-450.5 414,-450.5 414,-462.5 414,-462.5 414,-468.5 408,-474.5 402,-474.5 402,-474.5 372,-474.5 372,-474.5 366,-474.5 360,-468.5 360,-462.5 360,-462.5 360,-450.5 360,-450.5 360,-444.5 366,-438.5 372,-438.5"/>
<text text-anchor="middle" x="387" y="-452.8" font-family="Times,serif" font-size="14.00">=</text>
</g>
<!-- node0x610ec5f657f0&#45;&gt;node0x610ec5f657c0 -->
<g id="edge29" class="edge">
<title>node0x610ec5f657f0&#45;&gt;node0x610ec5f657c0</title>
<path fill="none" stroke="#5f5b6a" d="M373.36,-511.31C375.41,-503.2 377.91,-493.34 380.21,-484.28"/>
<polygon fill="#5f5b6a" stroke="#5f5b6a" points="383.62,-485.08 382.68,-474.53 376.83,-483.36 383.62,-485.08"/>
</g>
<!-- node0x610ec5f64ff0 -->
<g id="node31" class="node">
<title>node0x610ec5f64ff0</title>
<path fill="#98f5e1" stroke="#5f5b6a" d="M372,-365.5C372,-365.5 402,-365.5 402,-365.5 408,-365.5 414,-371.5 414,-377.5 414,-377.5 414,-389.5 414,-389.5 414,-395.5 408,-401.5 402,-401.5 402,-401.5 372,-401.5 372,-401.5 366,-401.5 360,-395.5 360,-389.5 360,-389.5 360,-377.5 360,-377.5 360,-371.5 366,-365.5 372,-365.5"/>
<text text-anchor="middle" x="387" y="-379.8" font-family="Times,serif" font-size="14.00">0</text>
</g>
<!-- node0x610ec5f657c0&#45;&gt;node0x610ec5f64ff0 -->
<g id="edge30" class="edge">
<title>node0x610ec5f657c0&#45;&gt;node0x610ec5f64ff0</title>
<path fill="none" stroke="#5f5b6a" d="M387,-438.31C387,-430.29 387,-420.55 387,-411.57"/>
<polygon fill="#5f5b6a" stroke="#5f5b6a" points="390.5,-411.53 387,-401.53 383.5,-411.53 390.5,-411.53"/>
</g>
<!-- node0x610ec5f65050 -->
<g id="node32" class="node">
<title>node0x610ec5f65050</title>
<path fill="#8eecf5" stroke="#5f5b6a" d="M444.5,-365.5C444.5,-365.5 477.5,-365.5 477.5,-365.5 483.5,-365.5 489.5,-371.5 489.5,-377.5 489.5,-377.5 489.5,-389.5 489.5,-389.5 489.5,-395.5 483.5,-401.5 477.5,-401.5 477.5,-401.5 444.5,-401.5 444.5,-401.5 438.5,-401.5 432.5,-395.5 432.5,-389.5 432.5,-389.5 432.5,-377.5 432.5,-377.5 432.5,-371.5 438.5,-365.5 444.5,-365.5"/>
<text text-anchor="middle" x="461" y="-379.8" font-family="Times,serif" font-size="14.00">10.00</text>
</g>
<!-- node0x610ec5f657c0&#45;&gt;node0x610ec5f65050 -->
<g id="edge31" class="edge">
<title>node0x610ec5f657c0&#45;&gt;node0x610ec5f65050</title>
<path fill="none" stroke="#5f5b6a" d="M404.91,-438.31C414.18,-429.42 425.66,-418.41 435.81,-408.67"/>
<polygon fill="#5f5b6a" stroke="#5f5b6a" points="438.46,-410.98 443.25,-401.53 433.61,-405.93 438.46,-410.98"/>
</g>
</g>
</svg>
