<?xml version="1.0" encoding="UTF-8" standalone="no"?>
<!DOCTYPE svg PUBLIC "-//W3C//DTD SVG 1.1//EN"
 "http://www.w3.org/Graphics/SVG/1.1/DTD/svg11.dtd">
<!-- Generated by graphviz version 2.43.0 (0)
 -->
<!-- Title: Tree Pages: 1 -->
<svg width="1714pt" height="1036pt"
 viewBox="0.00 0.00 1714.00 1036.00" xmlns="http://www.w3.org/2000/svg" xmlns:xlink="http://www.w3.org/1999/xlink">
<g id="graph0" class="graph" transform="scale(1 1) rotate(0) translate(4 1032)">
<title>Tree</title>
<polygon fill="#ffe7a5" stroke="transparent" points="-4,4 -4,-1032 1710,-1032 1710,4 -4,4"/>
<!-- node0x5fd56cc21fa0 -->
<g id="node1" class="node">
<title>node0x5fd56cc21fa0</title>
<path fill="#a24892" stroke="#203d98" d="M367.5,-912.5C367.5,-912.5 686.5,-912.5 686.5,-912.5 692.5,-912.5 698.5,-918.5 698.5,-924.5 698.5,-924.5 698.5,-1015.5 698.5,-1015.5 698.5,-1021.5 692.5,-1027.5 686.5,-1027.5 686.5,-1027.5 367.5,-1027.5 367.5,-1027.5 361.5,-1027.5 355.5,-1021.5 355.5,-1015.5 355.5,-1015.5 355.5,-924.5 355.5,-924.5 355.5,-918.5 361.5,-912.5 367.5,-912.5"/>
<text text-anchor="middle" x="527" y="-1012.3" font-family="Times,serif" font-size="14.00">indx: 0x5fd56cc21fa0</text>
<polyline fill="none" stroke="#203d98" points="355.5,-1004.5 698.5,-1004.5 "/>
<text text-anchor="middle" x="527" y="-989.3" font-family="Times,serif" font-size="14.00">type: 0</text>
<polyline fill="none" stroke="#203d98" points="355.5,-981.5 698.5,-981.5 "/>
<text text-anchor="middle" x="527" y="-966.3" font-family="Times,serif" font-size="14.00">value: ;</text>
<polyline fill="none" stroke="#203d98" points="355.5,-958.5 698.5,-958.5 "/>
<text text-anchor="middle" x="527" y="-943.3" font-family="Times,serif" font-size="14.00">parent: (nil)</text>
<polyline fill="none" stroke="#203d98" points="355.5,-935.5 698.5,-935.5 "/>
<text text-anchor="middle" x="437.5" y="-920.3" font-family="Times,serif" font-size="14.00">left: 0x5fd56cc21f70</text>
<polyline fill="none" stroke="#203d98" points="519.5,-912.5 519.5,-935.5 "/>
<text text-anchor="middle" x="609" y="-920.3" font-family="Times,serif" font-size="14.00">right: 0x5fd56cc22090</text>
</g>
<!-- node0x5fd56cc21f70 -->
<g id="node2" class="node">
<title>node0x5fd56cc21f70</title>
<path fill="#e07082" stroke="#203d98" d="M183.5,-760.5C183.5,-760.5 506.5,-760.5 506.5,-760.5 512.5,-760.5 518.5,-766.5 518.5,-772.5 518.5,-772.5 518.5,-863.5 518.5,-863.5 518.5,-869.5 512.5,-875.5 506.5,-875.5 506.5,-875.5 183.5,-875.5 183.5,-875.5 177.5,-875.5 171.5,-869.5 171.5,-863.5 171.5,-863.5 171.5,-772.5 171.5,-772.5 171.5,-766.5 177.5,-760.5 183.5,-760.5"/>
<text text-anchor="middle" x="345" y="-860.3" font-family="Times,serif" font-size="14.00">indx: 0x5fd56cc21f70</text>
<polyline fill="none" stroke="#203d98" points="171.5,-852.5 518.5,-852.5 "/>
<text text-anchor="middle" x="345" y="-837.3" font-family="Times,serif" font-size="14.00">type: 1</text>
<polyline fill="none" stroke="#203d98" points="171.5,-829.5 518.5,-829.5 "/>
<text text-anchor="middle" x="345" y="-814.3" font-family="Times,serif" font-size="14.00">value: =</text>
<polyline fill="none" stroke="#203d98" points="171.5,-806.5 518.5,-806.5 "/>
<text text-anchor="middle" x="345" y="-791.3" font-family="Times,serif" font-size="14.00">parent: 0x5fd56cc21fa0</text>
<polyline fill="none" stroke="#203d98" points="171.5,-783.5 518.5,-783.5 "/>
<text text-anchor="middle" x="255.5" y="-768.3" font-family="Times,serif" font-size="14.00">left: 0x5fd56cc21650</text>
<polyline fill="none" stroke="#203d98" points="339.5,-760.5 339.5,-783.5 "/>
<text text-anchor="middle" x="429" y="-768.3" font-family="Times,serif" font-size="14.00">right: 0x5fd56cc216b0</text>
</g>
<!-- node0x5fd56cc21fa0&#45;&gt;node0x5fd56cc21f70 -->
<g id="edge1" class="edge">
<title>node0x5fd56cc21fa0&#45;&gt;node0x5fd56cc21f70</title>
<path fill="none" stroke="#203d98" d="M458.19,-912.29C446.22,-902.42 433.7,-892.11 421.54,-882.08"/>
<polygon fill="#203d98" stroke="#203d98" points="423.54,-879.2 413.6,-875.54 419.09,-884.6 423.54,-879.2"/>
</g>
<!-- node0x5fd56cc22090 -->
<g id="node5" class="node">
<title>node0x5fd56cc22090</title>
<path fill="#a24892" stroke="#203d98" d="M548.5,-760.5C548.5,-760.5 871.5,-760.5 871.5,-760.5 877.5,-760.5 883.5,-766.5 883.5,-772.5 883.5,-772.5 883.5,-863.5 883.5,-863.5 883.5,-869.5 877.5,-875.5 871.5,-875.5 871.5,-875.5 548.5,-875.5 548.5,-875.5 542.5,-875.5 536.5,-869.5 536.5,-863.5 536.5,-863.5 536.5,-772.5 536.5,-772.5 536.5,-766.5 542.5,-760.5 548.5,-760.5"/>
<text text-anchor="middle" x="710" y="-860.3" font-family="Times,serif" font-size="14.00">indx: 0x5fd56cc22090</text>
<polyline fill="none" stroke="#203d98" points="536.5,-852.5 883.5,-852.5 "/>
<text text-anchor="middle" x="710" y="-837.3" font-family="Times,serif" font-size="14.00">type: 0</text>
<polyline fill="none" stroke="#203d98" points="536.5,-829.5 883.5,-829.5 "/>
<text text-anchor="middle" x="710" y="-814.3" font-family="Times,serif" font-size="14.00">value: ;</text>
<polyline fill="none" stroke="#203d98" points="536.5,-806.5 883.5,-806.5 "/>
<text text-anchor="middle" x="710" y="-791.3" font-family="Times,serif" font-size="14.00">parent: (nil)</text>
<polyline fill="none" stroke="#203d98" points="536.5,-783.5 883.5,-783.5 "/>
<text text-anchor="middle" x="620.5" y="-768.3" font-family="Times,serif" font-size="14.00">left: 0x5fd56cc22060</text>
<polyline fill="none" stroke="#203d98" points="704.5,-760.5 704.5,-783.5 "/>
<text text-anchor="middle" x="794" y="-768.3" font-family="Times,serif" font-size="14.00">right: 0x5fd56cc22180</text>
</g>
<!-- node0x5fd56cc21fa0&#45;&gt;node0x5fd56cc22090 -->
<g id="edge4" class="edge">
<title>node0x5fd56cc21fa0&#45;&gt;node0x5fd56cc22090</title>
<path fill="none" stroke="#203d98" d="M596.18,-912.29C608.22,-902.42 620.81,-892.11 633.04,-882.08"/>
<polygon fill="#203d98" stroke="#203d98" points="635.51,-884.59 641.02,-875.54 631.07,-879.17 635.51,-884.59"/>
</g>
<!-- node0x5fd56cc21650 -->
<g id="node3" class="node">
<title>node0x5fd56cc21650</title>
<path fill="#a24892" stroke="#203d98" d="M78,-608.5C78,-608.5 242,-608.5 242,-608.5 248,-608.5 254,-614.5 254,-620.5 254,-620.5 254,-711.5 254,-711.5 254,-717.5 248,-723.5 242,-723.5 242,-723.5 78,-723.5 78,-723.5 72,-723.5 66,-717.5 66,-711.5 66,-711.5 66,-620.5 66,-620.5 66,-614.5 72,-608.5 78,-608.5"/>
<text text-anchor="middle" x="160" y="-708.3" font-family="Times,serif" font-size="14.00">indx: 0x5fd56cc21650</text>
<polyline fill="none" stroke="#203d98" points="66,-700.5 254,-700.5 "/>
<text text-anchor="middle" x="160" y="-685.3" font-family="Times,serif" font-size="14.00">type: 2</text>
<polyline fill="none" stroke="#203d98" points="66,-677.5 254,-677.5 "/>
<text text-anchor="middle" x="160" y="-662.3" font-family="Times,serif" font-size="14.00">value: x</text>
<polyline fill="none" stroke="#203d98" points="66,-654.5 254,-654.5 "/>
<text text-anchor="middle" x="160" y="-639.3" font-family="Times,serif" font-size="14.00">parent: 0x5fd56cc21f70</text>
<polyline fill="none" stroke="#203d98" points="66,-631.5 254,-631.5 "/>
<text text-anchor="middle" x="110" y="-616.3" font-family="Times,serif" font-size="14.00">left: (nil)</text>
<polyline fill="none" stroke="#203d98" points="154,-608.5 154,-631.5 "/>
<text text-anchor="middle" x="204" y="-616.3" font-family="Times,serif" font-size="14.00">right: (nil)</text>
</g>
<!-- node0x5fd56cc21f70&#45;&gt;node0x5fd56cc21650 -->
<g id="edge2" class="edge">
<title>node0x5fd56cc21f70&#45;&gt;node0x5fd56cc21650</title>
<path fill="none" stroke="#203d98" d="M275.06,-760.29C262.89,-750.42 250.16,-740.11 237.8,-730.08"/>
<polygon fill="#203d98" stroke="#203d98" points="239.7,-727.12 229.73,-723.54 235.3,-732.56 239.7,-727.12"/>
</g>
<!-- node0x5fd56cc216b0 -->
<g id="node4" class="node">
<title>node0x5fd56cc216b0</title>
<path fill="#faaa82" stroke="#203d98" d="M284,-608.5C284,-608.5 448,-608.5 448,-608.5 454,-608.5 460,-614.5 460,-620.5 460,-620.5 460,-711.5 460,-711.5 460,-717.5 454,-723.5 448,-723.5 448,-723.5 284,-723.5 284,-723.5 278,-723.5 272,-717.5 272,-711.5 272,-711.5 272,-620.5 272,-620.5 272,-614.5 278,-608.5 284,-608.5"/>
<text text-anchor="middle" x="366" y="-708.3" font-family="Times,serif" font-size="14.00">indx: 0x5fd56cc216b0</text>
<polyline fill="none" stroke="#203d98" points="272,-700.5 460,-700.5 "/>
<text text-anchor="middle" x="366" y="-685.3" font-family="Times,serif" font-size="14.00">type: 3</text>
<polyline fill="none" stroke="#203d98" points="272,-677.5 460,-677.5 "/>
<text text-anchor="middle" x="366" y="-662.3" font-family="Times,serif" font-size="14.00">value: 9.00</text>
<polyline fill="none" stroke="#203d98" points="272,-654.5 460,-654.5 "/>
<text text-anchor="middle" x="366" y="-639.3" font-family="Times,serif" font-size="14.00">parent: 0x5fd56cc21f70</text>
<polyline fill="none" stroke="#203d98" points="272,-631.5 460,-631.5 "/>
<text text-anchor="middle" x="316" y="-616.3" font-family="Times,serif" font-size="14.00">left: (nil)</text>
<polyline fill="none" stroke="#203d98" points="360,-608.5 360,-631.5 "/>
<text text-anchor="middle" x="410" y="-616.3" font-family="Times,serif" font-size="14.00">right: (nil)</text>
</g>
<!-- node0x5fd56cc21f70&#45;&gt;node0x5fd56cc216b0 -->
<g id="edge3" class="edge">
<title>node0x5fd56cc21f70&#45;&gt;node0x5fd56cc216b0</title>
<path fill="none" stroke="#203d98" d="M352.94,-760.29C354.15,-751.61 355.42,-742.58 356.66,-733.71"/>
<polygon fill="#203d98" stroke="#203d98" points="360.13,-734.18 358.05,-723.79 353.2,-733.21 360.13,-734.18"/>
</g>
<!-- node0x5fd56cc22060 -->
<g id="node6" class="node">
<title>node0x5fd56cc22060</title>
<path fill="#a24892" stroke="#203d98" d="M530.5,-608.5C530.5,-608.5 849.5,-608.5 849.5,-608.5 855.5,-608.5 861.5,-614.5 861.5,-620.5 861.5,-620.5 861.5,-711.5 861.5,-711.5 861.5,-717.5 855.5,-723.5 849.5,-723.5 849.5,-723.5 530.5,-723.5 530.5,-723.5 524.5,-723.5 518.5,-717.5 518.5,-711.5 518.5,-711.5 518.5,-620.5 518.5,-620.5 518.5,-614.5 524.5,-608.5 530.5,-608.5"/>
<text text-anchor="middle" x="690" y="-708.3" font-family="Times,serif" font-size="14.00">indx: 0x5fd56cc22060</text>
<polyline fill="none" stroke="#203d98" points="518.5,-700.5 861.5,-700.5 "/>
<text text-anchor="middle" x="690" y="-685.3" font-family="Times,serif" font-size="14.00">type: 4</text>
<polyline fill="none" stroke="#203d98" points="518.5,-677.5 861.5,-677.5 "/>
<text text-anchor="middle" x="690" y="-662.3" font-family="Times,serif" font-size="14.00">value: i</text>
<polyline fill="none" stroke="#203d98" points="518.5,-654.5 861.5,-654.5 "/>
<text text-anchor="middle" x="690" y="-639.3" font-family="Times,serif" font-size="14.00">parent: 0x5fd56cc22090</text>
<polyline fill="none" stroke="#203d98" points="518.5,-631.5 861.5,-631.5 "/>
<text text-anchor="middle" x="600.5" y="-616.3" font-family="Times,serif" font-size="14.00">left: 0x5fd56cc21fd0</text>
<polyline fill="none" stroke="#203d98" points="682.5,-608.5 682.5,-631.5 "/>
<text text-anchor="middle" x="772" y="-616.3" font-family="Times,serif" font-size="14.00">right: 0x5fd56cc22030</text>
</g>
<!-- node0x5fd56cc22090&#45;&gt;node0x5fd56cc22060 -->
<g id="edge5" class="edge">
<title>node0x5fd56cc22090&#45;&gt;node0x5fd56cc22060</title>
<path fill="none" stroke="#203d98" d="M702.44,-760.29C701.28,-751.61 700.08,-742.58 698.89,-733.71"/>
<polygon fill="#203d98" stroke="#203d98" points="702.36,-733.24 697.57,-723.79 695.42,-734.16 702.36,-733.24"/>
</g>
<!-- node0x5fd56cc22180 -->
<g id="node15" class="node">
<title>node0x5fd56cc22180</title>
<path fill="#a24892" stroke="#203d98" d="M927.5,-608.5C927.5,-608.5 1160.5,-608.5 1160.5,-608.5 1166.5,-608.5 1172.5,-614.5 1172.5,-620.5 1172.5,-620.5 1172.5,-711.5 1172.5,-711.5 1172.5,-717.5 1166.5,-723.5 1160.5,-723.5 1160.5,-723.5 927.5,-723.5 927.5,-723.5 921.5,-723.5 915.5,-717.5 915.5,-711.5 915.5,-711.5 915.5,-620.5 915.5,-620.5 915.5,-614.5 921.5,-608.5 927.5,-608.5"/>
<text text-anchor="middle" x="1044" y="-708.3" font-family="Times,serif" font-size="14.00">indx: 0x5fd56cc22180</text>
<polyline fill="none" stroke="#203d98" points="915.5,-700.5 1172.5,-700.5 "/>
<text text-anchor="middle" x="1044" y="-685.3" font-family="Times,serif" font-size="14.00">type: 0</text>
<polyline fill="none" stroke="#203d98" points="915.5,-677.5 1172.5,-677.5 "/>
<text text-anchor="middle" x="1044" y="-662.3" font-family="Times,serif" font-size="14.00">value: ;</text>
<polyline fill="none" stroke="#203d98" points="915.5,-654.5 1172.5,-654.5 "/>
<text text-anchor="middle" x="1044" y="-639.3" font-family="Times,serif" font-size="14.00">parent: (nil)</text>
<polyline fill="none" stroke="#203d98" points="915.5,-631.5 1172.5,-631.5 "/>
<text text-anchor="middle" x="999.5" y="-616.3" font-family="Times,serif" font-size="14.00">left: 0x5fd56cc22150</text>
<polyline fill="none" stroke="#203d98" points="1083.5,-608.5 1083.5,-631.5 "/>
<text text-anchor="middle" x="1128" y="-616.3" font-family="Times,serif" font-size="14.00">right: (nil)</text>
</g>
<!-- node0x5fd56cc22090&#45;&gt;node0x5fd56cc22180 -->
<g id="edge14" class="edge">
<title>node0x5fd56cc22090&#45;&gt;node0x5fd56cc22180</title>
<path fill="none" stroke="#203d98" d="M836.27,-760.29C860.02,-749.62 884.95,-738.43 908.95,-727.65"/>
<polygon fill="#203d98" stroke="#203d98" points="910.42,-730.83 918.1,-723.54 907.55,-724.44 910.42,-730.83"/>
</g>
<!-- node0x5fd56cc21fd0 -->
<g id="node7" class="node">
<title>node0x5fd56cc21fd0</title>
<path fill="#e07082" stroke="#203d98" d="M138.5,-456.5C138.5,-456.5 461.5,-456.5 461.5,-456.5 467.5,-456.5 473.5,-462.5 473.5,-468.5 473.5,-468.5 473.5,-559.5 473.5,-559.5 473.5,-565.5 467.5,-571.5 461.5,-571.5 461.5,-571.5 138.5,-571.5 138.5,-571.5 132.5,-571.5 126.5,-565.5 126.5,-559.5 126.5,-559.5 126.5,-468.5 126.5,-468.5 126.5,-462.5 132.5,-456.5 138.5,-456.5"/>
<text text-anchor="middle" x="300" y="-556.3" font-family="Times,serif" font-size="14.00">indx: 0x5fd56cc21fd0</text>
<polyline fill="none" stroke="#203d98" points="126.5,-548.5 473.5,-548.5 "/>
<text text-anchor="middle" x="300" y="-533.3" font-family="Times,serif" font-size="14.00">type: 1</text>
<polyline fill="none" stroke="#203d98" points="126.5,-525.5 473.5,-525.5 "/>
<text text-anchor="middle" x="300" y="-510.3" font-family="Times,serif" font-size="14.00">value: &#45;</text>
<polyline fill="none" stroke="#203d98" points="126.5,-502.5 473.5,-502.5 "/>
<text text-anchor="middle" x="300" y="-487.3" font-family="Times,serif" font-size="14.00">parent: 0x5fd56cc22060</text>
<polyline fill="none" stroke="#203d98" points="126.5,-479.5 473.5,-479.5 "/>
<text text-anchor="middle" x="210.5" y="-464.3" font-family="Times,serif" font-size="14.00">left: 0x5fd56cc21770</text>
<polyline fill="none" stroke="#203d98" points="294.5,-456.5 294.5,-479.5 "/>
<text text-anchor="middle" x="384" y="-464.3" font-family="Times,serif" font-size="14.00">right: 0x5fd56cc217d0</text>
</g>
<!-- node0x5fd56cc22060&#45;&gt;node0x5fd56cc21fd0 -->
<g id="edge6" class="edge">
<title>node0x5fd56cc22060&#45;&gt;node0x5fd56cc21fd0</title>
<path fill="none" stroke="#203d98" d="M542.84,-608.4C514.72,-597.58 485.19,-586.23 456.79,-575.3"/>
<polygon fill="#203d98" stroke="#203d98" points="457.79,-571.94 447.2,-571.62 455.28,-578.47 457.79,-571.94"/>
</g>
<!-- node0x5fd56cc22030 -->
<g id="node10" class="node">
<title>node0x5fd56cc22030</title>
<path fill="#e07082" stroke="#203d98" d="M528.5,-456.5C528.5,-456.5 851.5,-456.5 851.5,-456.5 857.5,-456.5 863.5,-462.5 863.5,-468.5 863.5,-468.5 863.5,-559.5 863.5,-559.5 863.5,-565.5 857.5,-571.5 851.5,-571.5 851.5,-571.5 528.5,-571.5 528.5,-571.5 522.5,-571.5 516.5,-565.5 516.5,-559.5 516.5,-559.5 516.5,-468.5 516.5,-468.5 516.5,-462.5 522.5,-456.5 528.5,-456.5"/>
<text text-anchor="middle" x="690" y="-556.3" font-family="Times,serif" font-size="14.00">indx: 0x5fd56cc22030</text>
<polyline fill="none" stroke="#203d98" points="516.5,-548.5 863.5,-548.5 "/>
<text text-anchor="middle" x="690" y="-533.3" font-family="Times,serif" font-size="14.00">type: 1</text>
<polyline fill="none" stroke="#203d98" points="516.5,-525.5 863.5,-525.5 "/>
<text text-anchor="middle" x="690" y="-510.3" font-family="Times,serif" font-size="14.00">value: =</text>
<polyline fill="none" stroke="#203d98" points="516.5,-502.5 863.5,-502.5 "/>
<text text-anchor="middle" x="690" y="-487.3" font-family="Times,serif" font-size="14.00">parent: 0x5fd56cc22060</text>
<polyline fill="none" stroke="#203d98" points="516.5,-479.5 863.5,-479.5 "/>
<text text-anchor="middle" x="600.5" y="-464.3" font-family="Times,serif" font-size="14.00">left: 0x5fd56cc21830</text>
<polyline fill="none" stroke="#203d98" points="684.5,-456.5 684.5,-479.5 "/>
<text text-anchor="middle" x="774" y="-464.3" font-family="Times,serif" font-size="14.00">right: 0x5fd56cc22000</text>
</g>
<!-- node0x5fd56cc22060&#45;&gt;node0x5fd56cc22030 -->
<g id="edge9" class="edge">
<title>node0x5fd56cc22060&#45;&gt;node0x5fd56cc22030</title>
<path fill="none" stroke="#203d98" d="M690,-608.29C690,-599.7 690,-590.78 690,-582"/>
<polygon fill="#203d98" stroke="#203d98" points="693.5,-581.79 690,-571.79 686.5,-581.79 693.5,-581.79"/>
</g>
<!-- node0x5fd56cc21770 -->
<g id="node8" class="node">
<title>node0x5fd56cc21770</title>
<path fill="#faaa82" stroke="#203d98" d="M12,-304.5C12,-304.5 176,-304.5 176,-304.5 182,-304.5 188,-310.5 188,-316.5 188,-316.5 188,-407.5 188,-407.5 188,-413.5 182,-419.5 176,-419.5 176,-419.5 12,-419.5 12,-419.5 6,-419.5 0,-413.5 0,-407.5 0,-407.5 0,-316.5 0,-316.5 0,-310.5 6,-304.5 12,-304.5"/>
<text text-anchor="middle" x="94" y="-404.3" font-family="Times,serif" font-size="14.00">indx: 0x5fd56cc21770</text>
<polyline fill="none" stroke="#203d98" points="0,-396.5 188,-396.5 "/>
<text text-anchor="middle" x="94" y="-381.3" font-family="Times,serif" font-size="14.00">type: 3</text>
<polyline fill="none" stroke="#203d98" points="0,-373.5 188,-373.5 "/>
<text text-anchor="middle" x="94" y="-358.3" font-family="Times,serif" font-size="14.00">value: 7.00</text>
<polyline fill="none" stroke="#203d98" points="0,-350.5 188,-350.5 "/>
<text text-anchor="middle" x="94" y="-335.3" font-family="Times,serif" font-size="14.00">parent: 0x5fd56cc21fd0</text>
<polyline fill="none" stroke="#203d98" points="0,-327.5 188,-327.5 "/>
<text text-anchor="middle" x="44" y="-312.3" font-family="Times,serif" font-size="14.00">left: (nil)</text>
<polyline fill="none" stroke="#203d98" points="88,-304.5 88,-327.5 "/>
<text text-anchor="middle" x="138" y="-312.3" font-family="Times,serif" font-size="14.00">right: (nil)</text>
</g>
<!-- node0x5fd56cc21fd0&#45;&gt;node0x5fd56cc21770 -->
<g id="edge7" class="edge">
<title>node0x5fd56cc21fd0&#45;&gt;node0x5fd56cc21770</title>
<path fill="none" stroke="#203d98" d="M222.12,-456.29C208.31,-446.24 193.86,-435.71 179.84,-425.51"/>
<polygon fill="#203d98" stroke="#203d98" points="181.79,-422.6 171.65,-419.54 177.67,-428.26 181.79,-422.6"/>
</g>
<!-- node0x5fd56cc217d0 -->
<g id="node9" class="node">
<title>node0x5fd56cc217d0</title>
<path fill="#faaa82" stroke="#203d98" d="M218,-304.5C218,-304.5 382,-304.5 382,-304.5 388,-304.5 394,-310.5 394,-316.5 394,-316.5 394,-407.5 394,-407.5 394,-413.5 388,-419.5 382,-419.5 382,-419.5 218,-419.5 218,-419.5 212,-419.5 206,-413.5 206,-407.5 206,-407.5 206,-316.5 206,-316.5 206,-310.5 212,-304.5 218,-304.5"/>
<text text-anchor="middle" x="300" y="-404.3" font-family="Times,serif" font-size="14.00">indx: 0x5fd56cc217d0</text>
<polyline fill="none" stroke="#203d98" points="206,-396.5 394,-396.5 "/>
<text text-anchor="middle" x="300" y="-381.3" font-family="Times,serif" font-size="14.00">type: 3</text>
<polyline fill="none" stroke="#203d98" points="206,-373.5 394,-373.5 "/>
<text text-anchor="middle" x="300" y="-358.3" font-family="Times,serif" font-size="14.00">value: 8.00</text>
<polyline fill="none" stroke="#203d98" points="206,-350.5 394,-350.5 "/>
<text text-anchor="middle" x="300" y="-335.3" font-family="Times,serif" font-size="14.00">parent: 0x5fd56cc21fd0</text>
<polyline fill="none" stroke="#203d98" points="206,-327.5 394,-327.5 "/>
<text text-anchor="middle" x="250" y="-312.3" font-family="Times,serif" font-size="14.00">left: (nil)</text>
<polyline fill="none" stroke="#203d98" points="294,-304.5 294,-327.5 "/>
<text text-anchor="middle" x="344" y="-312.3" font-family="Times,serif" font-size="14.00">right: (nil)</text>
</g>
<!-- node0x5fd56cc21fd0&#45;&gt;node0x5fd56cc217d0 -->
<g id="edge8" class="edge">
<title>node0x5fd56cc21fd0&#45;&gt;node0x5fd56cc217d0</title>
<path fill="none" stroke="#203d98" d="M300,-456.29C300,-447.7 300,-438.78 300,-430"/>
<polygon fill="#203d98" stroke="#203d98" points="303.5,-429.79 300,-419.79 296.5,-429.79 303.5,-429.79"/>
</g>
<!-- node0x5fd56cc21830 -->
<g id="node11" class="node">
<title>node0x5fd56cc21830</title>
<path fill="#a24892" stroke="#203d98" d="M424.5,-304.5C424.5,-304.5 591.5,-304.5 591.5,-304.5 597.5,-304.5 603.5,-310.5 603.5,-316.5 603.5,-316.5 603.5,-407.5 603.5,-407.5 603.5,-413.5 597.5,-419.5 591.5,-419.5 591.5,-419.5 424.5,-419.5 424.5,-419.5 418.5,-419.5 412.5,-413.5 412.5,-407.5 412.5,-407.5 412.5,-316.5 412.5,-316.5 412.5,-310.5 418.5,-304.5 424.5,-304.5"/>
<text text-anchor="middle" x="508" y="-404.3" font-family="Times,serif" font-size="14.00">indx: 0x5fd56cc21830</text>
<polyline fill="none" stroke="#203d98" points="412.5,-396.5 603.5,-396.5 "/>
<text text-anchor="middle" x="508" y="-381.3" font-family="Times,serif" font-size="14.00">type: 2</text>
<polyline fill="none" stroke="#203d98" points="412.5,-373.5 603.5,-373.5 "/>
<text text-anchor="middle" x="508" y="-358.3" font-family="Times,serif" font-size="14.00">value: x</text>
<polyline fill="none" stroke="#203d98" points="412.5,-350.5 603.5,-350.5 "/>
<text text-anchor="middle" x="508" y="-335.3" font-family="Times,serif" font-size="14.00">parent: 0x5fd56cc22030</text>
<polyline fill="none" stroke="#203d98" points="412.5,-327.5 603.5,-327.5 "/>
<text text-anchor="middle" x="457.5" y="-312.3" font-family="Times,serif" font-size="14.00">left: (nil)</text>
<polyline fill="none" stroke="#203d98" points="502.5,-304.5 502.5,-327.5 "/>
<text text-anchor="middle" x="553" y="-312.3" font-family="Times,serif" font-size="14.00">right: (nil)</text>
</g>
<!-- node0x5fd56cc22030&#45;&gt;node0x5fd56cc21830 -->
<g id="edge10" class="edge">
<title>node0x5fd56cc22030&#45;&gt;node0x5fd56cc21830</title>
<path fill="none" stroke="#203d98" d="M621.19,-456.29C609.22,-446.42 596.7,-436.11 584.54,-426.08"/>
<polygon fill="#203d98" stroke="#203d98" points="586.54,-423.2 576.6,-419.54 582.09,-428.6 586.54,-423.2"/>
</g>
<!-- node0x5fd56cc22000 -->
<g id="node12" class="node">
<title>node0x5fd56cc22000</title>
<path fill="#e07082" stroke="#203d98" d="M634,-304.5C634,-304.5 954,-304.5 954,-304.5 960,-304.5 966,-310.5 966,-316.5 966,-316.5 966,-407.5 966,-407.5 966,-413.5 960,-419.5 954,-419.5 954,-419.5 634,-419.5 634,-419.5 628,-419.5 622,-413.5 622,-407.5 622,-407.5 622,-316.5 622,-316.5 622,-310.5 628,-304.5 634,-304.5"/>
<text text-anchor="middle" x="794" y="-404.3" font-family="Times,serif" font-size="14.00">indx: 0x5fd56cc22000</text>
<polyline fill="none" stroke="#203d98" points="622,-396.5 966,-396.5 "/>
<text text-anchor="middle" x="794" y="-381.3" font-family="Times,serif" font-size="14.00">type: 1</text>
<polyline fill="none" stroke="#203d98" points="622,-373.5 966,-373.5 "/>
<text text-anchor="middle" x="794" y="-358.3" font-family="Times,serif" font-size="14.00">value: &#45;</text>
<polyline fill="none" stroke="#203d98" points="622,-350.5 966,-350.5 "/>
<text text-anchor="middle" x="794" y="-335.3" font-family="Times,serif" font-size="14.00">parent: 0x5fd56cc22030</text>
<polyline fill="none" stroke="#203d98" points="622,-327.5 966,-327.5 "/>
<text text-anchor="middle" x="706" y="-312.3" font-family="Times,serif" font-size="14.00">left: 0x5fd56cc21890</text>
<polyline fill="none" stroke="#203d98" points="790,-304.5 790,-327.5 "/>
<text text-anchor="middle" x="878" y="-312.3" font-family="Times,serif" font-size="14.00">right: 0x5fd56cc218f0</text>
</g>
<!-- node0x5fd56cc22030&#45;&gt;node0x5fd56cc22000 -->
<g id="edge11" class="edge">
<title>node0x5fd56cc22030&#45;&gt;node0x5fd56cc22000</title>
<path fill="none" stroke="#203d98" d="M729.32,-456.29C735.66,-447.14 742.27,-437.61 748.74,-428.28"/>
<polygon fill="#203d98" stroke="#203d98" points="751.8,-430 754.63,-419.79 746.05,-426.01 751.8,-430"/>
</g>
<!-- node0x5fd56cc21890 -->
<g id="node13" class="node">
<title>node0x5fd56cc21890</title>
<path fill="#faaa82" stroke="#203d98" d="M605.5,-152.5C605.5,-152.5 772.5,-152.5 772.5,-152.5 778.5,-152.5 784.5,-158.5 784.5,-164.5 784.5,-164.5 784.5,-255.5 784.5,-255.5 784.5,-261.5 778.5,-267.5 772.5,-267.5 772.5,-267.5 605.5,-267.5 605.5,-267.5 599.5,-267.5 593.5,-261.5 593.5,-255.5 593.5,-255.5 593.5,-164.5 593.5,-164.5 593.5,-158.5 599.5,-152.5 605.5,-152.5"/>
<text text-anchor="middle" x="689" y="-252.3" font-family="Times,serif" font-size="14.00">indx: 0x5fd56cc21890</text>
<polyline fill="none" stroke="#203d98" points="593.5,-244.5 784.5,-244.5 "/>
<text text-anchor="middle" x="689" y="-229.3" font-family="Times,serif" font-size="14.00">type: 3</text>
<polyline fill="none" stroke="#203d98" points="593.5,-221.5 784.5,-221.5 "/>
<text text-anchor="middle" x="689" y="-206.3" font-family="Times,serif" font-size="14.00">value: 78.00</text>
<polyline fill="none" stroke="#203d98" points="593.5,-198.5 784.5,-198.5 "/>
<text text-anchor="middle" x="689" y="-183.3" font-family="Times,serif" font-size="14.00">parent: 0x5fd56cc22000</text>
<polyline fill="none" stroke="#203d98" points="593.5,-175.5 784.5,-175.5 "/>
<text text-anchor="middle" x="638.5" y="-160.3" font-family="Times,serif" font-size="14.00">left: (nil)</text>
<polyline fill="none" stroke="#203d98" points="683.5,-152.5 683.5,-175.5 "/>
<text text-anchor="middle" x="734" y="-160.3" font-family="Times,serif" font-size="14.00">right: (nil)</text>
</g>
<!-- node0x5fd56cc22000&#45;&gt;node0x5fd56cc21890 -->
<g id="edge12" class="edge">
<title>node0x5fd56cc22000&#45;&gt;node0x5fd56cc21890</title>
<path fill="none" stroke="#203d98" d="M754.3,-304.29C747.84,-295.05 741.09,-285.42 734.5,-276"/>
<polygon fill="#203d98" stroke="#203d98" points="737.35,-273.97 728.75,-267.79 731.62,-277.99 737.35,-273.97"/>
</g>
<!-- node0x5fd56cc218f0 -->
<g id="node14" class="node">
<title>node0x5fd56cc218f0</title>
<path fill="#faaa82" stroke="#203d98" d="M814.5,-152.5C814.5,-152.5 981.5,-152.5 981.5,-152.5 987.5,-152.5 993.5,-158.5 993.5,-164.5 993.5,-164.5 993.5,-255.5 993.5,-255.5 993.5,-261.5 987.5,-267.5 981.5,-267.5 981.5,-267.5 814.5,-267.5 814.5,-267.5 808.5,-267.5 802.5,-261.5 802.5,-255.5 802.5,-255.5 802.5,-164.5 802.5,-164.5 802.5,-158.5 808.5,-152.5 814.5,-152.5"/>
<text text-anchor="middle" x="898" y="-252.3" font-family="Times,serif" font-size="14.00">indx: 0x5fd56cc218f0</text>
<polyline fill="none" stroke="#203d98" points="802.5,-244.5 993.5,-244.5 "/>
<text text-anchor="middle" x="898" y="-229.3" font-family="Times,serif" font-size="14.00">type: 3</text>
<polyline fill="none" stroke="#203d98" points="802.5,-221.5 993.5,-221.5 "/>
<text text-anchor="middle" x="898" y="-206.3" font-family="Times,serif" font-size="14.00">value: 9.00</text>
<polyline fill="none" stroke="#203d98" points="802.5,-198.5 993.5,-198.5 "/>
<text text-anchor="middle" x="898" y="-183.3" font-family="Times,serif" font-size="14.00">parent: 0x5fd56cc22000</text>
<polyline fill="none" stroke="#203d98" points="802.5,-175.5 993.5,-175.5 "/>
<text text-anchor="middle" x="847.5" y="-160.3" font-family="Times,serif" font-size="14.00">left: (nil)</text>
<polyline fill="none" stroke="#203d98" points="892.5,-152.5 892.5,-175.5 "/>
<text text-anchor="middle" x="943" y="-160.3" font-family="Times,serif" font-size="14.00">right: (nil)</text>
</g>
<!-- node0x5fd56cc22000&#45;&gt;node0x5fd56cc218f0 -->
<g id="edge13" class="edge">
<title>node0x5fd56cc22000&#45;&gt;node0x5fd56cc218f0</title>
<path fill="none" stroke="#203d98" d="M833.32,-304.29C839.66,-295.14 846.27,-285.61 852.74,-276.28"/>
<polygon fill="#203d98" stroke="#203d98" points="855.8,-278 858.63,-267.79 850.05,-274.01 855.8,-278"/>
</g>
<!-- node0x5fd56cc22150 -->
<g id="node16" class="node">
<title>node0x5fd56cc22150</title>
<path fill="#e07082" stroke="#203d98" d="M918.5,-456.5C918.5,-456.5 1241.5,-456.5 1241.5,-456.5 1247.5,-456.5 1253.5,-462.5 1253.5,-468.5 1253.5,-468.5 1253.5,-559.5 1253.5,-559.5 1253.5,-565.5 1247.5,-571.5 1241.5,-571.5 1241.5,-571.5 918.5,-571.5 918.5,-571.5 912.5,-571.5 906.5,-565.5 906.5,-559.5 906.5,-559.5 906.5,-468.5 906.5,-468.5 906.5,-462.5 912.5,-456.5 918.5,-456.5"/>
<text text-anchor="middle" x="1080" y="-556.3" font-family="Times,serif" font-size="14.00">indx: 0x5fd56cc22150</text>
<polyline fill="none" stroke="#203d98" points="906.5,-548.5 1253.5,-548.5 "/>
<text text-anchor="middle" x="1080" y="-533.3" font-family="Times,serif" font-size="14.00">type: 1</text>
<polyline fill="none" stroke="#203d98" points="906.5,-525.5 1253.5,-525.5 "/>
<text text-anchor="middle" x="1080" y="-510.3" font-family="Times,serif" font-size="14.00">value: =</text>
<polyline fill="none" stroke="#203d98" points="906.5,-502.5 1253.5,-502.5 "/>
<text text-anchor="middle" x="1080" y="-487.3" font-family="Times,serif" font-size="14.00">parent: 0x5fd56cc22180</text>
<polyline fill="none" stroke="#203d98" points="906.5,-479.5 1253.5,-479.5 "/>
<text text-anchor="middle" x="990.5" y="-464.3" font-family="Times,serif" font-size="14.00">left: 0x5fd56cc21950</text>
<polyline fill="none" stroke="#203d98" points="1074.5,-456.5 1074.5,-479.5 "/>
<text text-anchor="middle" x="1164" y="-464.3" font-family="Times,serif" font-size="14.00">right: 0x5fd56cc22120</text>
</g>
<!-- node0x5fd56cc22180&#45;&gt;node0x5fd56cc22150 -->
<g id="edge15" class="edge">
<title>node0x5fd56cc22180&#45;&gt;node0x5fd56cc22150</title>
<path fill="none" stroke="#203d98" d="M1057.61,-608.29C1059.69,-599.61 1061.86,-590.58 1063.99,-581.71"/>
<polygon fill="#203d98" stroke="#203d98" points="1067.44,-582.33 1066.37,-571.79 1060.63,-580.7 1067.44,-582.33"/>
</g>
<!-- node0x5fd56cc21950 -->
<g id="node17" class="node">
<title>node0x5fd56cc21950</title>
<path fill="#a24892" stroke="#203d98" d="M996.5,-304.5C996.5,-304.5 1163.5,-304.5 1163.5,-304.5 1169.5,-304.5 1175.5,-310.5 1175.5,-316.5 1175.5,-316.5 1175.5,-407.5 1175.5,-407.5 1175.5,-413.5 1169.5,-419.5 1163.5,-419.5 1163.5,-419.5 996.5,-419.5 996.5,-419.5 990.5,-419.5 984.5,-413.5 984.5,-407.5 984.5,-407.5 984.5,-316.5 984.5,-316.5 984.5,-310.5 990.5,-304.5 996.5,-304.5"/>
<text text-anchor="middle" x="1080" y="-404.3" font-family="Times,serif" font-size="14.00">indx: 0x5fd56cc21950</text>
<polyline fill="none" stroke="#203d98" points="984.5,-396.5 1175.5,-396.5 "/>
<text text-anchor="middle" x="1080" y="-381.3" font-family="Times,serif" font-size="14.00">type: 2</text>
<polyline fill="none" stroke="#203d98" points="984.5,-373.5 1175.5,-373.5 "/>
<text text-anchor="middle" x="1080" y="-358.3" font-family="Times,serif" font-size="14.00">value: x</text>
<polyline fill="none" stroke="#203d98" points="984.5,-350.5 1175.5,-350.5 "/>
<text text-anchor="middle" x="1080" y="-335.3" font-family="Times,serif" font-size="14.00">parent: 0x5fd56cc22150</text>
<polyline fill="none" stroke="#203d98" points="984.5,-327.5 1175.5,-327.5 "/>
<text text-anchor="middle" x="1029.5" y="-312.3" font-family="Times,serif" font-size="14.00">left: (nil)</text>
<polyline fill="none" stroke="#203d98" points="1074.5,-304.5 1074.5,-327.5 "/>
<text text-anchor="middle" x="1125" y="-312.3" font-family="Times,serif" font-size="14.00">right: (nil)</text>
</g>
<!-- node0x5fd56cc22150&#45;&gt;node0x5fd56cc21950 -->
<g id="edge16" class="edge">
<title>node0x5fd56cc22150&#45;&gt;node0x5fd56cc21950</title>
<path fill="none" stroke="#203d98" d="M1080,-456.29C1080,-447.7 1080,-438.78 1080,-430"/>
<polygon fill="#203d98" stroke="#203d98" points="1083.5,-429.79 1080,-419.79 1076.5,-429.79 1083.5,-429.79"/>
</g>
<!-- node0x5fd56cc22120 -->
<g id="node18" class="node">
<title>node0x5fd56cc22120</title>
<path fill="#e07082" stroke="#203d98" d="M1206,-304.5C1206,-304.5 1526,-304.5 1526,-304.5 1532,-304.5 1538,-310.5 1538,-316.5 1538,-316.5 1538,-407.5 1538,-407.5 1538,-413.5 1532,-419.5 1526,-419.5 1526,-419.5 1206,-419.5 1206,-419.5 1200,-419.5 1194,-413.5 1194,-407.5 1194,-407.5 1194,-316.5 1194,-316.5 1194,-310.5 1200,-304.5 1206,-304.5"/>
<text text-anchor="middle" x="1366" y="-404.3" font-family="Times,serif" font-size="14.00">indx: 0x5fd56cc22120</text>
<polyline fill="none" stroke="#203d98" points="1194,-396.5 1538,-396.5 "/>
<text text-anchor="middle" x="1366" y="-381.3" font-family="Times,serif" font-size="14.00">type: 1</text>
<polyline fill="none" stroke="#203d98" points="1194,-373.5 1538,-373.5 "/>
<text text-anchor="middle" x="1366" y="-358.3" font-family="Times,serif" font-size="14.00">value: +</text>
<polyline fill="none" stroke="#203d98" points="1194,-350.5 1538,-350.5 "/>
<text text-anchor="middle" x="1366" y="-335.3" font-family="Times,serif" font-size="14.00">parent: 0x5fd56cc22150</text>
<polyline fill="none" stroke="#203d98" points="1194,-327.5 1538,-327.5 "/>
<text text-anchor="middle" x="1278" y="-312.3" font-family="Times,serif" font-size="14.00">left: 0x5fd56cc219b0</text>
<polyline fill="none" stroke="#203d98" points="1362,-304.5 1362,-327.5 "/>
<text text-anchor="middle" x="1450" y="-312.3" font-family="Times,serif" font-size="14.00">right: 0x5fd56cc220f0</text>
</g>
<!-- node0x5fd56cc22150&#45;&gt;node0x5fd56cc22120 -->
<g id="edge17" class="edge">
<title>node0x5fd56cc22150&#45;&gt;node0x5fd56cc22120</title>
<path fill="none" stroke="#203d98" d="M1188.12,-456.29C1208.1,-445.81 1229.05,-434.83 1249.27,-424.22"/>
<polygon fill="#203d98" stroke="#203d98" points="1250.97,-427.28 1258.2,-419.54 1247.72,-421.09 1250.97,-427.28"/>
</g>
<!-- node0x5fd56cc219b0 -->
<g id="node19" class="node">
<title>node0x5fd56cc219b0</title>
<path fill="#faaa82" stroke="#203d98" d="M1139.5,-152.5C1139.5,-152.5 1306.5,-152.5 1306.5,-152.5 1312.5,-152.5 1318.5,-158.5 1318.5,-164.5 1318.5,-164.5 1318.5,-255.5 1318.5,-255.5 1318.5,-261.5 1312.5,-267.5 1306.5,-267.5 1306.5,-267.5 1139.5,-267.5 1139.5,-267.5 1133.5,-267.5 1127.5,-261.5 1127.5,-255.5 1127.5,-255.5 1127.5,-164.5 1127.5,-164.5 1127.5,-158.5 1133.5,-152.5 1139.5,-152.5"/>
<text text-anchor="middle" x="1223" y="-252.3" font-family="Times,serif" font-size="14.00">indx: 0x5fd56cc219b0</text>
<polyline fill="none" stroke="#203d98" points="1127.5,-244.5 1318.5,-244.5 "/>
<text text-anchor="middle" x="1223" y="-229.3" font-family="Times,serif" font-size="14.00">type: 3</text>
<polyline fill="none" stroke="#203d98" points="1127.5,-221.5 1318.5,-221.5 "/>
<text text-anchor="middle" x="1223" y="-206.3" font-family="Times,serif" font-size="14.00">value: 5.00</text>
<polyline fill="none" stroke="#203d98" points="1127.5,-198.5 1318.5,-198.5 "/>
<text text-anchor="middle" x="1223" y="-183.3" font-family="Times,serif" font-size="14.00">parent: 0x5fd56cc22120</text>
<polyline fill="none" stroke="#203d98" points="1127.5,-175.5 1318.5,-175.5 "/>
<text text-anchor="middle" x="1172.5" y="-160.3" font-family="Times,serif" font-size="14.00">left: (nil)</text>
<polyline fill="none" stroke="#203d98" points="1217.5,-152.5 1217.5,-175.5 "/>
<text text-anchor="middle" x="1268" y="-160.3" font-family="Times,serif" font-size="14.00">right: (nil)</text>
</g>
<!-- node0x5fd56cc22120&#45;&gt;node0x5fd56cc219b0 -->
<g id="edge18" class="edge">
<title>node0x5fd56cc22120&#45;&gt;node0x5fd56cc219b0</title>
<path fill="none" stroke="#203d98" d="M1311.94,-304.29C1302.86,-294.77 1293.39,-284.83 1284.15,-275.14"/>
<polygon fill="#203d98" stroke="#203d98" points="1286.57,-272.61 1277.14,-267.79 1281.51,-277.44 1286.57,-272.61"/>
</g>
<!-- node0x5fd56cc220f0 -->
<g id="node20" class="node">
<title>node0x5fd56cc220f0</title>
<path fill="#e07082" stroke="#203d98" d="M1348.5,-152.5C1348.5,-152.5 1669.5,-152.5 1669.5,-152.5 1675.5,-152.5 1681.5,-158.5 1681.5,-164.5 1681.5,-164.5 1681.5,-255.5 1681.5,-255.5 1681.5,-261.5 1675.5,-267.5 1669.5,-267.5 1669.5,-267.5 1348.5,-267.5 1348.5,-267.5 1342.5,-267.5 1336.5,-261.5 1336.5,-255.5 1336.5,-255.5 1336.5,-164.5 1336.5,-164.5 1336.5,-158.5 1342.5,-152.5 1348.5,-152.5"/>
<text text-anchor="middle" x="1509" y="-252.3" font-family="Times,serif" font-size="14.00">indx: 0x5fd56cc220f0</text>
<polyline fill="none" stroke="#203d98" points="1336.5,-244.5 1681.5,-244.5 "/>
<text text-anchor="middle" x="1509" y="-229.3" font-family="Times,serif" font-size="14.00">type: 1</text>
<polyline fill="none" stroke="#203d98" points="1336.5,-221.5 1681.5,-221.5 "/>
<text text-anchor="middle" x="1509" y="-206.3" font-family="Times,serif" font-size="14.00">value: l</text>
<polyline fill="none" stroke="#203d98" points="1336.5,-198.5 1681.5,-198.5 "/>
<text text-anchor="middle" x="1509" y="-183.3" font-family="Times,serif" font-size="14.00">parent: 0x5fd56cc22120</text>
<polyline fill="none" stroke="#203d98" points="1336.5,-175.5 1681.5,-175.5 "/>
<text text-anchor="middle" x="1420" y="-160.3" font-family="Times,serif" font-size="14.00">left: 0x5fd56cc21aa0</text>
<polyline fill="none" stroke="#203d98" points="1503.5,-152.5 1503.5,-175.5 "/>
<text text-anchor="middle" x="1592.5" y="-160.3" font-family="Times,serif" font-size="14.00">right: 0x5fd56cc220c0</text>
</g>
<!-- node0x5fd56cc22120&#45;&gt;node0x5fd56cc220f0 -->
<g id="edge19" class="edge">
<title>node0x5fd56cc22120&#45;&gt;node0x5fd56cc220f0</title>
<path fill="none" stroke="#203d98" d="M1420.06,-304.29C1429.14,-294.77 1438.61,-284.83 1447.85,-275.14"/>
<polygon fill="#203d98" stroke="#203d98" points="1450.49,-277.44 1454.86,-267.79 1445.43,-272.61 1450.49,-277.44"/>
</g>
<!-- node0x5fd56cc21aa0 -->
<g id="node21" class="node">
<title>node0x5fd56cc21aa0</title>
<path fill="#faaa82" stroke="#203d98" d="M1324,-0.5C1324,-0.5 1488,-0.5 1488,-0.5 1494,-0.5 1500,-6.5 1500,-12.5 1500,-12.5 1500,-103.5 1500,-103.5 1500,-109.5 1494,-115.5 1488,-115.5 1488,-115.5 1324,-115.5 1324,-115.5 1318,-115.5 1312,-109.5 1312,-103.5 1312,-103.5 1312,-12.5 1312,-12.5 1312,-6.5 1318,-0.5 1324,-0.5"/>
<text text-anchor="middle" x="1406" y="-100.3" font-family="Times,serif" font-size="14.00">indx: 0x5fd56cc21aa0</text>
<polyline fill="none" stroke="#203d98" points="1312,-92.5 1500,-92.5 "/>
<text text-anchor="middle" x="1406" y="-77.3" font-family="Times,serif" font-size="14.00">type: 3</text>
<polyline fill="none" stroke="#203d98" points="1312,-69.5 1500,-69.5 "/>
<text text-anchor="middle" x="1406" y="-54.3" font-family="Times,serif" font-size="14.00">value: 9.00</text>
<polyline fill="none" stroke="#203d98" points="1312,-46.5 1500,-46.5 "/>
<text text-anchor="middle" x="1406" y="-31.3" font-family="Times,serif" font-size="14.00">parent: 0x5fd56cc220f0</text>
<polyline fill="none" stroke="#203d98" points="1312,-23.5 1500,-23.5 "/>
<text text-anchor="middle" x="1356" y="-8.3" font-family="Times,serif" font-size="14.00">left: (nil)</text>
<polyline fill="none" stroke="#203d98" points="1400,-0.5 1400,-23.5 "/>
<text text-anchor="middle" x="1450" y="-8.3" font-family="Times,serif" font-size="14.00">right: (nil)</text>
</g>
<!-- node0x5fd56cc220f0&#45;&gt;node0x5fd56cc21aa0 -->
<g id="edge20" class="edge">
<title>node0x5fd56cc220f0&#45;&gt;node0x5fd56cc21aa0</title>
<path fill="none" stroke="#203d98" d="M1470.06,-152.29C1463.78,-143.14 1457.23,-133.61 1450.83,-124.28"/>
<polygon fill="#203d98" stroke="#203d98" points="1453.54,-122.05 1444.99,-115.79 1447.77,-126.01 1453.54,-122.05"/>
</g>
<!-- node0x5fd56cc220c0 -->
<g id="node22" class="node">
<title>node0x5fd56cc220c0</title>
<path fill="#faaa82" stroke="#203d98" d="M1530,-0.5C1530,-0.5 1694,-0.5 1694,-0.5 1700,-0.5 1706,-6.5 1706,-12.5 1706,-12.5 1706,-103.5 1706,-103.5 1706,-109.5 1700,-115.5 1694,-115.5 1694,-115.5 1530,-115.5 1530,-115.5 1524,-115.5 1518,-109.5 1518,-103.5 1518,-103.5 1518,-12.5 1518,-12.5 1518,-6.5 1524,-0.5 1530,-0.5"/>
<text text-anchor="middle" x="1612" y="-100.3" font-family="Times,serif" font-size="14.00">indx: 0x5fd56cc220c0</text>
<polyline fill="none" stroke="#203d98" points="1518,-92.5 1706,-92.5 "/>
<text text-anchor="middle" x="1612" y="-77.3" font-family="Times,serif" font-size="14.00">type: 3</text>
<polyline fill="none" stroke="#203d98" points="1518,-69.5 1706,-69.5 "/>
<text text-anchor="middle" x="1612" y="-54.3" font-family="Times,serif" font-size="14.00">value: 0.00</text>
<polyline fill="none" stroke="#203d98" points="1518,-46.5 1706,-46.5 "/>
<text text-anchor="middle" x="1612" y="-31.3" font-family="Times,serif" font-size="14.00">parent: 0x5fd56cc220f0</text>
<polyline fill="none" stroke="#203d98" points="1518,-23.5 1706,-23.5 "/>
<text text-anchor="middle" x="1562" y="-8.3" font-family="Times,serif" font-size="14.00">left: (nil)</text>
<polyline fill="none" stroke="#203d98" points="1606,-0.5 1606,-23.5 "/>
<text text-anchor="middle" x="1656" y="-8.3" font-family="Times,serif" font-size="14.00">right: (nil)</text>
</g>
<!-- node0x5fd56cc220f0&#45;&gt;node0x5fd56cc220c0 -->
<g id="edge21" class="edge">
<title>node0x5fd56cc220f0&#45;&gt;node0x5fd56cc220c0</title>
<path fill="none" stroke="#203d98" d="M1547.94,-152.29C1554.22,-143.14 1560.77,-133.61 1567.17,-124.28"/>
<polygon fill="#203d98" stroke="#203d98" points="1570.23,-126.01 1573.01,-115.79 1564.46,-122.05 1570.23,-126.01"/>
</g>
</g>
</svg>
