<?xml version="1.0" encoding="UTF-8" standalone="no"?>
<!DOCTYPE svg PUBLIC "-//W3C//DTD SVG 1.1//EN"
 "http://www.w3.org/Graphics/SVG/1.1/DTD/svg11.dtd">
<!-- Generated by graphviz version 2.43.0 (0)
 -->
<!-- Title: Tree Pages: 1 -->
<svg width="1623pt" height="1036pt"
 viewBox="0.00 0.00 1623.00 1036.00" xmlns="http://www.w3.org/2000/svg" xmlns:xlink="http://www.w3.org/1999/xlink">
<g id="graph0" class="graph" transform="scale(1 1) rotate(0) translate(4 1032)">
<title>Tree</title>
<polygon fill="#fffeec" stroke="transparent" points="-4,4 -4,-1032 1619,-1032 1619,4 -4,4"/>
<!-- node0x61066f2fa0d0 -->
<g id="node1" class="node">
<title>node0x61066f2fa0d0</title>
<path fill="#ffcfd2" stroke="#5f5b6a" d="M447,-912.5C447,-912.5 767,-912.5 767,-912.5 773,-912.5 779,-918.5 779,-924.5 779,-924.5 779,-1015.5 779,-1015.5 779,-1021.5 773,-1027.5 767,-1027.5 767,-1027.5 447,-1027.5 447,-1027.5 441,-1027.5 435,-1021.5 435,-1015.5 435,-1015.5 435,-924.5 435,-924.5 435,-918.5 441,-912.5 447,-912.5"/>
<text text-anchor="middle" x="607" y="-1012.3" font-family="Times,serif" font-size="14.00">indx: 0x61066f2fa0d0</text>
<polyline fill="none" stroke="#5f5b6a" points="435,-1004.5 779,-1004.5 "/>
<text text-anchor="middle" x="607" y="-989.3" font-family="Times,serif" font-size="14.00">type: 0</text>
<polyline fill="none" stroke="#5f5b6a" points="435,-981.5 779,-981.5 "/>
<text text-anchor="middle" x="607" y="-966.3" font-family="Times,serif" font-size="14.00">value: ;</text>
<polyline fill="none" stroke="#5f5b6a" points="435,-958.5 779,-958.5 "/>
<text text-anchor="middle" x="607" y="-943.3" font-family="Times,serif" font-size="14.00">parent: (nil)</text>
<polyline fill="none" stroke="#5f5b6a" points="435,-935.5 779,-935.5 "/>
<text text-anchor="middle" x="518" y="-920.3" font-family="Times,serif" font-size="14.00">left: 0x61066f2fa0a0</text>
<polyline fill="none" stroke="#5f5b6a" points="601,-912.5 601,-935.5 "/>
<text text-anchor="middle" x="690" y="-920.3" font-family="Times,serif" font-size="14.00">right: 0x61066f2fa250</text>
</g>
<!-- node0x61066f2fa0a0 -->
<g id="node2" class="node">
<title>node0x61066f2fa0a0</title>
<path fill="#cfbaf0" stroke="#5f5b6a" d="M266.5,-760.5C266.5,-760.5 585.5,-760.5 585.5,-760.5 591.5,-760.5 597.5,-766.5 597.5,-772.5 597.5,-772.5 597.5,-863.5 597.5,-863.5 597.5,-869.5 591.5,-875.5 585.5,-875.5 585.5,-875.5 266.5,-875.5 266.5,-875.5 260.5,-875.5 254.5,-869.5 254.5,-863.5 254.5,-863.5 254.5,-772.5 254.5,-772.5 254.5,-766.5 260.5,-760.5 266.5,-760.5"/>
<text text-anchor="middle" x="426" y="-860.3" font-family="Times,serif" font-size="14.00">indx: 0x61066f2fa0a0</text>
<polyline fill="none" stroke="#5f5b6a" points="254.5,-852.5 597.5,-852.5 "/>
<text text-anchor="middle" x="426" y="-837.3" font-family="Times,serif" font-size="14.00">type: 1</text>
<polyline fill="none" stroke="#5f5b6a" points="254.5,-829.5 597.5,-829.5 "/>
<text text-anchor="middle" x="426" y="-814.3" font-family="Times,serif" font-size="14.00">value: =</text>
<polyline fill="none" stroke="#5f5b6a" points="254.5,-806.5 597.5,-806.5 "/>
<text text-anchor="middle" x="426" y="-791.3" font-family="Times,serif" font-size="14.00">parent: 0x61066f2fa0d0</text>
<polyline fill="none" stroke="#5f5b6a" points="254.5,-783.5 597.5,-783.5 "/>
<text text-anchor="middle" x="336.5" y="-768.3" font-family="Times,serif" font-size="14.00">left: 0x61066f2f96f0</text>
<polyline fill="none" stroke="#5f5b6a" points="418.5,-760.5 418.5,-783.5 "/>
<text text-anchor="middle" x="508" y="-768.3" font-family="Times,serif" font-size="14.00">right: 0x61066f2f9750</text>
</g>
<!-- node0x61066f2fa0d0&#45;&gt;node0x61066f2fa0a0 -->
<g id="edge1" class="edge">
<title>node0x61066f2fa0d0&#45;&gt;node0x61066f2fa0a0</title>
<path fill="none" stroke="#5f5b6a" d="M538.57,-912.29C526.66,-902.42 514.21,-892.11 502.12,-882.08"/>
<polygon fill="#5f5b6a" stroke="#5f5b6a" points="504.16,-879.23 494.22,-875.54 499.69,-884.62 504.16,-879.23"/>
</g>
<!-- node0x61066f2fa250 -->
<g id="node5" class="node">
<title>node0x61066f2fa250</title>
<path fill="#ffcfd2" stroke="#5f5b6a" d="M628,-760.5C628,-760.5 948,-760.5 948,-760.5 954,-760.5 960,-766.5 960,-772.5 960,-772.5 960,-863.5 960,-863.5 960,-869.5 954,-875.5 948,-875.5 948,-875.5 628,-875.5 628,-875.5 622,-875.5 616,-869.5 616,-863.5 616,-863.5 616,-772.5 616,-772.5 616,-766.5 622,-760.5 628,-760.5"/>
<text text-anchor="middle" x="788" y="-860.3" font-family="Times,serif" font-size="14.00">indx: 0x61066f2fa250</text>
<polyline fill="none" stroke="#5f5b6a" points="616,-852.5 960,-852.5 "/>
<text text-anchor="middle" x="788" y="-837.3" font-family="Times,serif" font-size="14.00">type: 0</text>
<polyline fill="none" stroke="#5f5b6a" points="616,-829.5 960,-829.5 "/>
<text text-anchor="middle" x="788" y="-814.3" font-family="Times,serif" font-size="14.00">value: ;</text>
<polyline fill="none" stroke="#5f5b6a" points="616,-806.5 960,-806.5 "/>
<text text-anchor="middle" x="788" y="-791.3" font-family="Times,serif" font-size="14.00">parent: (nil)</text>
<polyline fill="none" stroke="#5f5b6a" points="616,-783.5 960,-783.5 "/>
<text text-anchor="middle" x="699.5" y="-768.3" font-family="Times,serif" font-size="14.00">left: 0x61066f2fa220</text>
<polyline fill="none" stroke="#5f5b6a" points="783,-760.5 783,-783.5 "/>
<text text-anchor="middle" x="871.5" y="-768.3" font-family="Times,serif" font-size="14.00">right: 0x61066f2fa2e0</text>
</g>
<!-- node0x61066f2fa0d0&#45;&gt;node0x61066f2fa250 -->
<g id="edge4" class="edge">
<title>node0x61066f2fa0d0&#45;&gt;node0x61066f2fa250</title>
<path fill="none" stroke="#5f5b6a" d="M675.43,-912.29C687.34,-902.42 699.79,-892.11 711.88,-882.08"/>
<polygon fill="#5f5b6a" stroke="#5f5b6a" points="714.31,-884.62 719.78,-875.54 709.84,-879.23 714.31,-884.62"/>
</g>
<!-- node0x61066f2f96f0 -->
<g id="node3" class="node">
<title>node0x61066f2f96f0</title>
<path fill="#98f5e1" stroke="#5f5b6a" d="M156.5,-608.5C156.5,-608.5 321.5,-608.5 321.5,-608.5 327.5,-608.5 333.5,-614.5 333.5,-620.5 333.5,-620.5 333.5,-711.5 333.5,-711.5 333.5,-717.5 327.5,-723.5 321.5,-723.5 321.5,-723.5 156.5,-723.5 156.5,-723.5 150.5,-723.5 144.5,-717.5 144.5,-711.5 144.5,-711.5 144.5,-620.5 144.5,-620.5 144.5,-614.5 150.5,-608.5 156.5,-608.5"/>
<text text-anchor="middle" x="239" y="-708.3" font-family="Times,serif" font-size="14.00">indx: 0x61066f2f96f0</text>
<polyline fill="none" stroke="#5f5b6a" points="144.5,-700.5 333.5,-700.5 "/>
<text text-anchor="middle" x="239" y="-685.3" font-family="Times,serif" font-size="14.00">type: 2</text>
<polyline fill="none" stroke="#5f5b6a" points="144.5,-677.5 333.5,-677.5 "/>
<text text-anchor="middle" x="239" y="-662.3" font-family="Times,serif" font-size="14.00">value: 0</text>
<polyline fill="none" stroke="#5f5b6a" points="144.5,-654.5 333.5,-654.5 "/>
<text text-anchor="middle" x="239" y="-639.3" font-family="Times,serif" font-size="14.00">parent: 0x61066f2fa0a0</text>
<polyline fill="none" stroke="#5f5b6a" points="144.5,-631.5 333.5,-631.5 "/>
<text text-anchor="middle" x="189" y="-616.3" font-family="Times,serif" font-size="14.00">left: (nil)</text>
<polyline fill="none" stroke="#5f5b6a" points="233.5,-608.5 233.5,-631.5 "/>
<text text-anchor="middle" x="283.5" y="-616.3" font-family="Times,serif" font-size="14.00">right: (nil)</text>
</g>
<!-- node0x61066f2fa0a0&#45;&gt;node0x61066f2f96f0 -->
<g id="edge2" class="edge">
<title>node0x61066f2fa0a0&#45;&gt;node0x61066f2f96f0</title>
<path fill="none" stroke="#5f5b6a" d="M355.3,-760.29C343,-750.42 330.14,-740.11 317.64,-730.08"/>
<polygon fill="#5f5b6a" stroke="#5f5b6a" points="319.48,-727.07 309.49,-723.54 315.1,-732.53 319.48,-727.07"/>
</g>
<!-- node0x61066f2f9750 -->
<g id="node4" class="node">
<title>node0x61066f2f9750</title>
<path fill="#8eecf5" stroke="#5f5b6a" d="M363.5,-608.5C363.5,-608.5 528.5,-608.5 528.5,-608.5 534.5,-608.5 540.5,-614.5 540.5,-620.5 540.5,-620.5 540.5,-711.5 540.5,-711.5 540.5,-717.5 534.5,-723.5 528.5,-723.5 528.5,-723.5 363.5,-723.5 363.5,-723.5 357.5,-723.5 351.5,-717.5 351.5,-711.5 351.5,-711.5 351.5,-620.5 351.5,-620.5 351.5,-614.5 357.5,-608.5 363.5,-608.5"/>
<text text-anchor="middle" x="446" y="-708.3" font-family="Times,serif" font-size="14.00">indx: 0x61066f2f9750</text>
<polyline fill="none" stroke="#5f5b6a" points="351.5,-700.5 540.5,-700.5 "/>
<text text-anchor="middle" x="446" y="-685.3" font-family="Times,serif" font-size="14.00">type: 3</text>
<polyline fill="none" stroke="#5f5b6a" points="351.5,-677.5 540.5,-677.5 "/>
<text text-anchor="middle" x="446" y="-662.3" font-family="Times,serif" font-size="14.00">value: 9.00</text>
<polyline fill="none" stroke="#5f5b6a" points="351.5,-654.5 540.5,-654.5 "/>
<text text-anchor="middle" x="446" y="-639.3" font-family="Times,serif" font-size="14.00">parent: 0x61066f2fa0a0</text>
<polyline fill="none" stroke="#5f5b6a" points="351.5,-631.5 540.5,-631.5 "/>
<text text-anchor="middle" x="396" y="-616.3" font-family="Times,serif" font-size="14.00">left: (nil)</text>
<polyline fill="none" stroke="#5f5b6a" points="440.5,-608.5 440.5,-631.5 "/>
<text text-anchor="middle" x="490.5" y="-616.3" font-family="Times,serif" font-size="14.00">right: (nil)</text>
</g>
<!-- node0x61066f2fa0a0&#45;&gt;node0x61066f2f9750 -->
<g id="edge3" class="edge">
<title>node0x61066f2fa0a0&#45;&gt;node0x61066f2f9750</title>
<path fill="none" stroke="#5f5b6a" d="M433.56,-760.29C434.72,-751.61 435.92,-742.58 437.11,-733.71"/>
<polygon fill="#5f5b6a" stroke="#5f5b6a" points="440.58,-734.16 438.43,-723.79 433.64,-733.24 440.58,-734.16"/>
</g>
<!-- node0x61066f2fa220 -->
<g id="node6" class="node">
<title>node0x61066f2fa220</title>
<path fill="#f1c0e8" stroke="#5f5b6a" d="M608.5,-608.5C608.5,-608.5 929.5,-608.5 929.5,-608.5 935.5,-608.5 941.5,-614.5 941.5,-620.5 941.5,-620.5 941.5,-711.5 941.5,-711.5 941.5,-717.5 935.5,-723.5 929.5,-723.5 929.5,-723.5 608.5,-723.5 608.5,-723.5 602.5,-723.5 596.5,-717.5 596.5,-711.5 596.5,-711.5 596.5,-620.5 596.5,-620.5 596.5,-614.5 602.5,-608.5 608.5,-608.5"/>
<text text-anchor="middle" x="769" y="-708.3" font-family="Times,serif" font-size="14.00">indx: 0x61066f2fa220</text>
<polyline fill="none" stroke="#5f5b6a" points="596.5,-700.5 941.5,-700.5 "/>
<text text-anchor="middle" x="769" y="-685.3" font-family="Times,serif" font-size="14.00">type: 4</text>
<polyline fill="none" stroke="#5f5b6a" points="596.5,-677.5 941.5,-677.5 "/>
<text text-anchor="middle" x="769" y="-662.3" font-family="Times,serif" font-size="14.00">value: i</text>
<polyline fill="none" stroke="#5f5b6a" points="596.5,-654.5 941.5,-654.5 "/>
<text text-anchor="middle" x="769" y="-639.3" font-family="Times,serif" font-size="14.00">parent: 0x61066f2fa250</text>
<polyline fill="none" stroke="#5f5b6a" points="596.5,-631.5 941.5,-631.5 "/>
<text text-anchor="middle" x="680" y="-616.3" font-family="Times,serif" font-size="14.00">left: 0x61066f2fa100</text>
<polyline fill="none" stroke="#5f5b6a" points="763.5,-608.5 763.5,-631.5 "/>
<text text-anchor="middle" x="852.5" y="-616.3" font-family="Times,serif" font-size="14.00">right: 0x61066f2fa190</text>
</g>
<!-- node0x61066f2fa250&#45;&gt;node0x61066f2fa220 -->
<g id="edge5" class="edge">
<title>node0x61066f2fa250&#45;&gt;node0x61066f2fa220</title>
<path fill="none" stroke="#5f5b6a" d="M780.82,-760.29C779.72,-751.61 778.57,-742.58 777.45,-733.71"/>
<polygon fill="#5f5b6a" stroke="#5f5b6a" points="780.92,-733.27 776.19,-723.79 773.98,-734.15 780.92,-733.27"/>
</g>
<!-- node0x61066f2fa2e0 -->
<g id="node20" class="node">
<title>node0x61066f2fa2e0</title>
<path fill="#ffcfd2" stroke="#5f5b6a" d="M1045,-608.5C1045,-608.5 1277,-608.5 1277,-608.5 1283,-608.5 1289,-614.5 1289,-620.5 1289,-620.5 1289,-711.5 1289,-711.5 1289,-717.5 1283,-723.5 1277,-723.5 1277,-723.5 1045,-723.5 1045,-723.5 1039,-723.5 1033,-717.5 1033,-711.5 1033,-711.5 1033,-620.5 1033,-620.5 1033,-614.5 1039,-608.5 1045,-608.5"/>
<text text-anchor="middle" x="1161" y="-708.3" font-family="Times,serif" font-size="14.00">indx: 0x61066f2fa2e0</text>
<polyline fill="none" stroke="#5f5b6a" points="1033,-700.5 1289,-700.5 "/>
<text text-anchor="middle" x="1161" y="-685.3" font-family="Times,serif" font-size="14.00">type: 0</text>
<polyline fill="none" stroke="#5f5b6a" points="1033,-677.5 1289,-677.5 "/>
<text text-anchor="middle" x="1161" y="-662.3" font-family="Times,serif" font-size="14.00">value: ;</text>
<polyline fill="none" stroke="#5f5b6a" points="1033,-654.5 1289,-654.5 "/>
<text text-anchor="middle" x="1161" y="-639.3" font-family="Times,serif" font-size="14.00">parent: (nil)</text>
<polyline fill="none" stroke="#5f5b6a" points="1033,-631.5 1289,-631.5 "/>
<text text-anchor="middle" x="1116.5" y="-616.3" font-family="Times,serif" font-size="14.00">left: 0x61066f2fa2b0</text>
<polyline fill="none" stroke="#5f5b6a" points="1200,-608.5 1200,-631.5 "/>
<text text-anchor="middle" x="1244.5" y="-616.3" font-family="Times,serif" font-size="14.00">right: (nil)</text>
</g>
<!-- node0x61066f2fa250&#45;&gt;node0x61066f2fa2e0 -->
<g id="edge19" class="edge">
<title>node0x61066f2fa250&#45;&gt;node0x61066f2fa2e0</title>
<path fill="none" stroke="#5f5b6a" d="M928.75,-760.4C959.71,-747.95 992.46,-734.78 1023.29,-722.38"/>
<polygon fill="#5f5b6a" stroke="#5f5b6a" points="1024.83,-725.53 1032.8,-718.56 1022.21,-719.04 1024.83,-725.53"/>
</g>
<!-- node0x61066f2fa100 -->
<g id="node7" class="node">
<title>node0x61066f2fa100</title>
<path fill="#cfbaf0" stroke="#5f5b6a" d="M142,-456.5C142,-456.5 464,-456.5 464,-456.5 470,-456.5 476,-462.5 476,-468.5 476,-468.5 476,-559.5 476,-559.5 476,-565.5 470,-571.5 464,-571.5 464,-571.5 142,-571.5 142,-571.5 136,-571.5 130,-565.5 130,-559.5 130,-559.5 130,-468.5 130,-468.5 130,-462.5 136,-456.5 142,-456.5"/>
<text text-anchor="middle" x="303" y="-556.3" font-family="Times,serif" font-size="14.00">indx: 0x61066f2fa100</text>
<polyline fill="none" stroke="#5f5b6a" points="130,-548.5 476,-548.5 "/>
<text text-anchor="middle" x="303" y="-533.3" font-family="Times,serif" font-size="14.00">type: 1</text>
<polyline fill="none" stroke="#5f5b6a" points="130,-525.5 476,-525.5 "/>
<text text-anchor="middle" x="303" y="-510.3" font-family="Times,serif" font-size="14.00">value: &#45;</text>
<polyline fill="none" stroke="#5f5b6a" points="130,-502.5 476,-502.5 "/>
<text text-anchor="middle" x="303" y="-487.3" font-family="Times,serif" font-size="14.00">parent: 0x61066f2fa220</text>
<polyline fill="none" stroke="#5f5b6a" points="130,-479.5 476,-479.5 "/>
<text text-anchor="middle" x="213.5" y="-464.3" font-family="Times,serif" font-size="14.00">left: 0x61066f2f9810</text>
<polyline fill="none" stroke="#5f5b6a" points="297,-456.5 297,-479.5 "/>
<text text-anchor="middle" x="386.5" y="-464.3" font-family="Times,serif" font-size="14.00">right: 0x61066f2f9870</text>
</g>
<!-- node0x61066f2fa220&#45;&gt;node0x61066f2fa100 -->
<g id="edge6" class="edge">
<title>node0x61066f2fa220&#45;&gt;node0x61066f2fa100</title>
<path fill="none" stroke="#5f5b6a" d="M596.47,-609.47C560.43,-597.86 522.32,-585.6 485.92,-573.88"/>
<polygon fill="#5f5b6a" stroke="#5f5b6a" points="486.79,-570.48 476.2,-570.75 484.65,-577.15 486.79,-570.48"/>
</g>
<!-- node0x61066f2fa190 -->
<g id="node10" class="node">
<title>node0x61066f2fa190</title>
<path fill="#ffcfd2" stroke="#5f5b6a" d="M610.5,-456.5C610.5,-456.5 927.5,-456.5 927.5,-456.5 933.5,-456.5 939.5,-462.5 939.5,-468.5 939.5,-468.5 939.5,-559.5 939.5,-559.5 939.5,-565.5 933.5,-571.5 927.5,-571.5 927.5,-571.5 610.5,-571.5 610.5,-571.5 604.5,-571.5 598.5,-565.5 598.5,-559.5 598.5,-559.5 598.5,-468.5 598.5,-468.5 598.5,-462.5 604.5,-456.5 610.5,-456.5"/>
<text text-anchor="middle" x="769" y="-556.3" font-family="Times,serif" font-size="14.00">indx: 0x61066f2fa190</text>
<polyline fill="none" stroke="#5f5b6a" points="598.5,-548.5 939.5,-548.5 "/>
<text text-anchor="middle" x="769" y="-533.3" font-family="Times,serif" font-size="14.00">type: 0</text>
<polyline fill="none" stroke="#5f5b6a" points="598.5,-525.5 939.5,-525.5 "/>
<text text-anchor="middle" x="769" y="-510.3" font-family="Times,serif" font-size="14.00">value: ;</text>
<polyline fill="none" stroke="#5f5b6a" points="598.5,-502.5 939.5,-502.5 "/>
<text text-anchor="middle" x="769" y="-487.3" font-family="Times,serif" font-size="14.00">parent: 0x61066f2fa220</text>
<polyline fill="none" stroke="#5f5b6a" points="598.5,-479.5 939.5,-479.5 "/>
<text text-anchor="middle" x="682" y="-464.3" font-family="Times,serif" font-size="14.00">left: 0x61066f2fa160</text>
<polyline fill="none" stroke="#5f5b6a" points="765.5,-456.5 765.5,-479.5 "/>
<text text-anchor="middle" x="852.5" y="-464.3" font-family="Times,serif" font-size="14.00">right: 0x61066f2fa1f0</text>
</g>
<!-- node0x61066f2fa220&#45;&gt;node0x61066f2fa190 -->
<g id="edge9" class="edge">
<title>node0x61066f2fa220&#45;&gt;node0x61066f2fa190</title>
<path fill="none" stroke="#5f5b6a" d="M769,-608.29C769,-599.7 769,-590.78 769,-582"/>
<polygon fill="#5f5b6a" stroke="#5f5b6a" points="772.5,-581.79 769,-571.79 765.5,-581.79 772.5,-581.79"/>
</g>
<!-- node0x61066f2f9810 -->
<g id="node8" class="node">
<title>node0x61066f2f9810</title>
<path fill="#8eecf5" stroke="#5f5b6a" d="M12,-304.5C12,-304.5 178,-304.5 178,-304.5 184,-304.5 190,-310.5 190,-316.5 190,-316.5 190,-407.5 190,-407.5 190,-413.5 184,-419.5 178,-419.5 178,-419.5 12,-419.5 12,-419.5 6,-419.5 0,-413.5 0,-407.5 0,-407.5 0,-316.5 0,-316.5 0,-310.5 6,-304.5 12,-304.5"/>
<text text-anchor="middle" x="95" y="-404.3" font-family="Times,serif" font-size="14.00">indx: 0x61066f2f9810</text>
<polyline fill="none" stroke="#5f5b6a" points="0,-396.5 190,-396.5 "/>
<text text-anchor="middle" x="95" y="-381.3" font-family="Times,serif" font-size="14.00">type: 3</text>
<polyline fill="none" stroke="#5f5b6a" points="0,-373.5 190,-373.5 "/>
<text text-anchor="middle" x="95" y="-358.3" font-family="Times,serif" font-size="14.00">value: 7.00</text>
<polyline fill="none" stroke="#5f5b6a" points="0,-350.5 190,-350.5 "/>
<text text-anchor="middle" x="95" y="-335.3" font-family="Times,serif" font-size="14.00">parent: 0x61066f2fa100</text>
<polyline fill="none" stroke="#5f5b6a" points="0,-327.5 190,-327.5 "/>
<text text-anchor="middle" x="44.5" y="-312.3" font-family="Times,serif" font-size="14.00">left: (nil)</text>
<polyline fill="none" stroke="#5f5b6a" points="89,-304.5 89,-327.5 "/>
<text text-anchor="middle" x="139.5" y="-312.3" font-family="Times,serif" font-size="14.00">right: (nil)</text>
</g>
<!-- node0x61066f2fa100&#45;&gt;node0x61066f2f9810 -->
<g id="edge7" class="edge">
<title>node0x61066f2fa100&#45;&gt;node0x61066f2f9810</title>
<path fill="none" stroke="#5f5b6a" d="M224.36,-456.29C210.42,-446.24 195.83,-435.71 181.68,-425.51"/>
<polygon fill="#5f5b6a" stroke="#5f5b6a" points="183.56,-422.55 173.4,-419.54 179.47,-428.23 183.56,-422.55"/>
</g>
<!-- node0x61066f2f9870 -->
<g id="node9" class="node">
<title>node0x61066f2f9870</title>
<path fill="#8eecf5" stroke="#5f5b6a" d="M220,-304.5C220,-304.5 386,-304.5 386,-304.5 392,-304.5 398,-310.5 398,-316.5 398,-316.5 398,-407.5 398,-407.5 398,-413.5 392,-419.5 386,-419.5 386,-419.5 220,-419.5 220,-419.5 214,-419.5 208,-413.5 208,-407.5 208,-407.5 208,-316.5 208,-316.5 208,-310.5 214,-304.5 220,-304.5"/>
<text text-anchor="middle" x="303" y="-404.3" font-family="Times,serif" font-size="14.00">indx: 0x61066f2f9870</text>
<polyline fill="none" stroke="#5f5b6a" points="208,-396.5 398,-396.5 "/>
<text text-anchor="middle" x="303" y="-381.3" font-family="Times,serif" font-size="14.00">type: 3</text>
<polyline fill="none" stroke="#5f5b6a" points="208,-373.5 398,-373.5 "/>
<text text-anchor="middle" x="303" y="-358.3" font-family="Times,serif" font-size="14.00">value: 8.00</text>
<polyline fill="none" stroke="#5f5b6a" points="208,-350.5 398,-350.5 "/>
<text text-anchor="middle" x="303" y="-335.3" font-family="Times,serif" font-size="14.00">parent: 0x61066f2fa100</text>
<polyline fill="none" stroke="#5f5b6a" points="208,-327.5 398,-327.5 "/>
<text text-anchor="middle" x="252.5" y="-312.3" font-family="Times,serif" font-size="14.00">left: (nil)</text>
<polyline fill="none" stroke="#5f5b6a" points="297,-304.5 297,-327.5 "/>
<text text-anchor="middle" x="347.5" y="-312.3" font-family="Times,serif" font-size="14.00">right: (nil)</text>
</g>
<!-- node0x61066f2fa100&#45;&gt;node0x61066f2f9870 -->
<g id="edge8" class="edge">
<title>node0x61066f2fa100&#45;&gt;node0x61066f2f9870</title>
<path fill="none" stroke="#5f5b6a" d="M303,-456.29C303,-447.7 303,-438.78 303,-430"/>
<polygon fill="#5f5b6a" stroke="#5f5b6a" points="306.5,-429.79 303,-419.79 299.5,-429.79 306.5,-429.79"/>
</g>
<!-- node0x61066f2fa160 -->
<g id="node11" class="node">
<title>node0x61066f2fa160</title>
<path fill="#cfbaf0" stroke="#5f5b6a" d="M428.5,-304.5C428.5,-304.5 749.5,-304.5 749.5,-304.5 755.5,-304.5 761.5,-310.5 761.5,-316.5 761.5,-316.5 761.5,-407.5 761.5,-407.5 761.5,-413.5 755.5,-419.5 749.5,-419.5 749.5,-419.5 428.5,-419.5 428.5,-419.5 422.5,-419.5 416.5,-413.5 416.5,-407.5 416.5,-407.5 416.5,-316.5 416.5,-316.5 416.5,-310.5 422.5,-304.5 428.5,-304.5"/>
<text text-anchor="middle" x="589" y="-404.3" font-family="Times,serif" font-size="14.00">indx: 0x61066f2fa160</text>
<polyline fill="none" stroke="#5f5b6a" points="416.5,-396.5 761.5,-396.5 "/>
<text text-anchor="middle" x="589" y="-381.3" font-family="Times,serif" font-size="14.00">type: 1</text>
<polyline fill="none" stroke="#5f5b6a" points="416.5,-373.5 761.5,-373.5 "/>
<text text-anchor="middle" x="589" y="-358.3" font-family="Times,serif" font-size="14.00">value: =</text>
<polyline fill="none" stroke="#5f5b6a" points="416.5,-350.5 761.5,-350.5 "/>
<text text-anchor="middle" x="589" y="-335.3" font-family="Times,serif" font-size="14.00">parent: 0x61066f2fa190</text>
<polyline fill="none" stroke="#5f5b6a" points="416.5,-327.5 761.5,-327.5 "/>
<text text-anchor="middle" x="500" y="-312.3" font-family="Times,serif" font-size="14.00">left: 0x61066f2f9900</text>
<polyline fill="none" stroke="#5f5b6a" points="583.5,-304.5 583.5,-327.5 "/>
<text text-anchor="middle" x="672.5" y="-312.3" font-family="Times,serif" font-size="14.00">right: 0x61066f2fa130</text>
</g>
<!-- node0x61066f2fa190&#45;&gt;node0x61066f2fa160 -->
<g id="edge10" class="edge">
<title>node0x61066f2fa190&#45;&gt;node0x61066f2fa160</title>
<path fill="none" stroke="#5f5b6a" d="M700.95,-456.29C689.11,-446.42 676.73,-436.11 664.69,-426.08"/>
<polygon fill="#5f5b6a" stroke="#5f5b6a" points="666.77,-423.25 656.85,-419.54 662.29,-428.63 666.77,-423.25"/>
</g>
<!-- node0x61066f2fa1f0 -->
<g id="node16" class="node">
<title>node0x61066f2fa1f0</title>
<path fill="#ffcfd2" stroke="#5f5b6a" d="M798,-304.5C798,-304.5 1028,-304.5 1028,-304.5 1034,-304.5 1040,-310.5 1040,-316.5 1040,-316.5 1040,-407.5 1040,-407.5 1040,-413.5 1034,-419.5 1028,-419.5 1028,-419.5 798,-419.5 798,-419.5 792,-419.5 786,-413.5 786,-407.5 786,-407.5 786,-316.5 786,-316.5 786,-310.5 792,-304.5 798,-304.5"/>
<text text-anchor="middle" x="913" y="-404.3" font-family="Times,serif" font-size="14.00">indx: 0x61066f2fa1f0</text>
<polyline fill="none" stroke="#5f5b6a" points="786,-396.5 1040,-396.5 "/>
<text text-anchor="middle" x="913" y="-381.3" font-family="Times,serif" font-size="14.00">type: 0</text>
<polyline fill="none" stroke="#5f5b6a" points="786,-373.5 1040,-373.5 "/>
<text text-anchor="middle" x="913" y="-358.3" font-family="Times,serif" font-size="14.00">value: ;</text>
<polyline fill="none" stroke="#5f5b6a" points="786,-350.5 1040,-350.5 "/>
<text text-anchor="middle" x="913" y="-335.3" font-family="Times,serif" font-size="14.00">parent: (nil)</text>
<polyline fill="none" stroke="#5f5b6a" points="786,-327.5 1040,-327.5 "/>
<text text-anchor="middle" x="868.5" y="-312.3" font-family="Times,serif" font-size="14.00">left: 0x61066f2fa1c0</text>
<polyline fill="none" stroke="#5f5b6a" points="951,-304.5 951,-327.5 "/>
<text text-anchor="middle" x="995.5" y="-312.3" font-family="Times,serif" font-size="14.00">right: (nil)</text>
</g>
<!-- node0x61066f2fa190&#45;&gt;node0x61066f2fa1f0 -->
<g id="edge15" class="edge">
<title>node0x61066f2fa190&#45;&gt;node0x61066f2fa1f0</title>
<path fill="none" stroke="#5f5b6a" d="M823.44,-456.29C832.58,-446.77 842.12,-436.83 851.42,-427.14"/>
<polygon fill="#5f5b6a" stroke="#5f5b6a" points="854.08,-429.43 858.48,-419.79 849.03,-424.58 854.08,-429.43"/>
</g>
<!-- node0x61066f2f9900 -->
<g id="node12" class="node">
<title>node0x61066f2f9900</title>
<path fill="#98f5e1" stroke="#5f5b6a" d="M217,-152.5C217,-152.5 383,-152.5 383,-152.5 389,-152.5 395,-158.5 395,-164.5 395,-164.5 395,-255.5 395,-255.5 395,-261.5 389,-267.5 383,-267.5 383,-267.5 217,-267.5 217,-267.5 211,-267.5 205,-261.5 205,-255.5 205,-255.5 205,-164.5 205,-164.5 205,-158.5 211,-152.5 217,-152.5"/>
<text text-anchor="middle" x="300" y="-252.3" font-family="Times,serif" font-size="14.00">indx: 0x61066f2f9900</text>
<polyline fill="none" stroke="#5f5b6a" points="205,-244.5 395,-244.5 "/>
<text text-anchor="middle" x="300" y="-229.3" font-family="Times,serif" font-size="14.00">type: 2</text>
<polyline fill="none" stroke="#5f5b6a" points="205,-221.5 395,-221.5 "/>
<text text-anchor="middle" x="300" y="-206.3" font-family="Times,serif" font-size="14.00">value: 1</text>
<polyline fill="none" stroke="#5f5b6a" points="205,-198.5 395,-198.5 "/>
<text text-anchor="middle" x="300" y="-183.3" font-family="Times,serif" font-size="14.00">parent: 0x61066f2fa160</text>
<polyline fill="none" stroke="#5f5b6a" points="205,-175.5 395,-175.5 "/>
<text text-anchor="middle" x="249.5" y="-160.3" font-family="Times,serif" font-size="14.00">left: (nil)</text>
<polyline fill="none" stroke="#5f5b6a" points="294,-152.5 294,-175.5 "/>
<text text-anchor="middle" x="344.5" y="-160.3" font-family="Times,serif" font-size="14.00">right: (nil)</text>
</g>
<!-- node0x61066f2fa160&#45;&gt;node0x61066f2f9900 -->
<g id="edge11" class="edge">
<title>node0x61066f2fa160&#45;&gt;node0x61066f2f9900</title>
<path fill="none" stroke="#5f5b6a" d="M474.69,-304.33C451.23,-292.48 426.76,-279.95 404,-268 403.91,-267.95 403.82,-267.9 403.73,-267.86"/>
<polygon fill="#5f5b6a" stroke="#5f5b6a" points="405.62,-264.9 395.14,-263.32 402.35,-271.09 405.62,-264.9"/>
</g>
<!-- node0x61066f2fa130 -->
<g id="node13" class="node">
<title>node0x61066f2fa130</title>
<path fill="#cfbaf0" stroke="#5f5b6a" d="M425,-152.5C425,-152.5 745,-152.5 745,-152.5 751,-152.5 757,-158.5 757,-164.5 757,-164.5 757,-255.5 757,-255.5 757,-261.5 751,-267.5 745,-267.5 745,-267.5 425,-267.5 425,-267.5 419,-267.5 413,-261.5 413,-255.5 413,-255.5 413,-164.5 413,-164.5 413,-158.5 419,-152.5 425,-152.5"/>
<text text-anchor="middle" x="585" y="-252.3" font-family="Times,serif" font-size="14.00">indx: 0x61066f2fa130</text>
<polyline fill="none" stroke="#5f5b6a" points="413,-244.5 757,-244.5 "/>
<text text-anchor="middle" x="585" y="-229.3" font-family="Times,serif" font-size="14.00">type: 1</text>
<polyline fill="none" stroke="#5f5b6a" points="413,-221.5 757,-221.5 "/>
<text text-anchor="middle" x="585" y="-206.3" font-family="Times,serif" font-size="14.00">value: &#45;</text>
<polyline fill="none" stroke="#5f5b6a" points="413,-198.5 757,-198.5 "/>
<text text-anchor="middle" x="585" y="-183.3" font-family="Times,serif" font-size="14.00">parent: 0x61066f2fa160</text>
<polyline fill="none" stroke="#5f5b6a" points="413,-175.5 757,-175.5 "/>
<text text-anchor="middle" x="496.5" y="-160.3" font-family="Times,serif" font-size="14.00">left: 0x61066f2f9960</text>
<polyline fill="none" stroke="#5f5b6a" points="580,-152.5 580,-175.5 "/>
<text text-anchor="middle" x="668.5" y="-160.3" font-family="Times,serif" font-size="14.00">right: 0x61066f2f99c0</text>
</g>
<!-- node0x61066f2fa160&#45;&gt;node0x61066f2fa130 -->
<g id="edge12" class="edge">
<title>node0x61066f2fa160&#45;&gt;node0x61066f2fa130</title>
<path fill="none" stroke="#5f5b6a" d="M587.49,-304.29C587.26,-295.7 587.02,-286.78 586.79,-278"/>
<polygon fill="#5f5b6a" stroke="#5f5b6a" points="590.28,-277.69 586.51,-267.79 583.28,-277.88 590.28,-277.69"/>
</g>
<!-- node0x61066f2f9960 -->
<g id="node14" class="node">
<title>node0x61066f2f9960</title>
<path fill="#8eecf5" stroke="#5f5b6a" d="M333,-0.5C333,-0.5 499,-0.5 499,-0.5 505,-0.5 511,-6.5 511,-12.5 511,-12.5 511,-103.5 511,-103.5 511,-109.5 505,-115.5 499,-115.5 499,-115.5 333,-115.5 333,-115.5 327,-115.5 321,-109.5 321,-103.5 321,-103.5 321,-12.5 321,-12.5 321,-6.5 327,-0.5 333,-0.5"/>
<text text-anchor="middle" x="416" y="-100.3" font-family="Times,serif" font-size="14.00">indx: 0x61066f2f9960</text>
<polyline fill="none" stroke="#5f5b6a" points="321,-92.5 511,-92.5 "/>
<text text-anchor="middle" x="416" y="-77.3" font-family="Times,serif" font-size="14.00">type: 3</text>
<polyline fill="none" stroke="#5f5b6a" points="321,-69.5 511,-69.5 "/>
<text text-anchor="middle" x="416" y="-54.3" font-family="Times,serif" font-size="14.00">value: 78.00</text>
<polyline fill="none" stroke="#5f5b6a" points="321,-46.5 511,-46.5 "/>
<text text-anchor="middle" x="416" y="-31.3" font-family="Times,serif" font-size="14.00">parent: 0x61066f2fa130</text>
<polyline fill="none" stroke="#5f5b6a" points="321,-23.5 511,-23.5 "/>
<text text-anchor="middle" x="365.5" y="-8.3" font-family="Times,serif" font-size="14.00">left: (nil)</text>
<polyline fill="none" stroke="#5f5b6a" points="410,-0.5 410,-23.5 "/>
<text text-anchor="middle" x="460.5" y="-8.3" font-family="Times,serif" font-size="14.00">right: (nil)</text>
</g>
<!-- node0x61066f2fa130&#45;&gt;node0x61066f2f9960 -->
<g id="edge13" class="edge">
<title>node0x61066f2fa130&#45;&gt;node0x61066f2f9960</title>
<path fill="none" stroke="#5f5b6a" d="M521.11,-152.29C510.1,-142.52 498.59,-132.3 487.39,-122.37"/>
<polygon fill="#5f5b6a" stroke="#5f5b6a" points="489.5,-119.56 479.7,-115.54 484.86,-124.8 489.5,-119.56"/>
</g>
<!-- node0x61066f2f99c0 -->
<g id="node15" class="node">
<title>node0x61066f2f99c0</title>
<path fill="#8eecf5" stroke="#5f5b6a" d="M541,-0.5C541,-0.5 707,-0.5 707,-0.5 713,-0.5 719,-6.5 719,-12.5 719,-12.5 719,-103.5 719,-103.5 719,-109.5 713,-115.5 707,-115.5 707,-115.5 541,-115.5 541,-115.5 535,-115.5 529,-109.5 529,-103.5 529,-103.5 529,-12.5 529,-12.5 529,-6.5 535,-0.5 541,-0.5"/>
<text text-anchor="middle" x="624" y="-100.3" font-family="Times,serif" font-size="14.00">indx: 0x61066f2f99c0</text>
<polyline fill="none" stroke="#5f5b6a" points="529,-92.5 719,-92.5 "/>
<text text-anchor="middle" x="624" y="-77.3" font-family="Times,serif" font-size="14.00">type: 3</text>
<polyline fill="none" stroke="#5f5b6a" points="529,-69.5 719,-69.5 "/>
<text text-anchor="middle" x="624" y="-54.3" font-family="Times,serif" font-size="14.00">value: 9.00</text>
<polyline fill="none" stroke="#5f5b6a" points="529,-46.5 719,-46.5 "/>
<text text-anchor="middle" x="624" y="-31.3" font-family="Times,serif" font-size="14.00">parent: 0x61066f2fa130</text>
<polyline fill="none" stroke="#5f5b6a" points="529,-23.5 719,-23.5 "/>
<text text-anchor="middle" x="573.5" y="-8.3" font-family="Times,serif" font-size="14.00">left: (nil)</text>
<polyline fill="none" stroke="#5f5b6a" points="618,-0.5 618,-23.5 "/>
<text text-anchor="middle" x="668.5" y="-8.3" font-family="Times,serif" font-size="14.00">right: (nil)</text>
</g>
<!-- node0x61066f2fa130&#45;&gt;node0x61066f2f99c0 -->
<g id="edge14" class="edge">
<title>node0x61066f2fa130&#45;&gt;node0x61066f2f99c0</title>
<path fill="none" stroke="#5f5b6a" d="M599.74,-152.29C602,-143.61 604.35,-134.58 606.65,-125.71"/>
<polygon fill="#5f5b6a" stroke="#5f5b6a" points="610.11,-126.35 609.23,-115.79 603.33,-124.59 610.11,-126.35"/>
</g>
<!-- node0x61066f2fa1c0 -->
<g id="node17" class="node">
<title>node0x61066f2fa1c0</title>
<path fill="#cfbaf0" stroke="#5f5b6a" d="M787.5,-152.5C787.5,-152.5 1108.5,-152.5 1108.5,-152.5 1114.5,-152.5 1120.5,-158.5 1120.5,-164.5 1120.5,-164.5 1120.5,-255.5 1120.5,-255.5 1120.5,-261.5 1114.5,-267.5 1108.5,-267.5 1108.5,-267.5 787.5,-267.5 787.5,-267.5 781.5,-267.5 775.5,-261.5 775.5,-255.5 775.5,-255.5 775.5,-164.5 775.5,-164.5 775.5,-158.5 781.5,-152.5 787.5,-152.5"/>
<text text-anchor="middle" x="948" y="-252.3" font-family="Times,serif" font-size="14.00">indx: 0x61066f2fa1c0</text>
<polyline fill="none" stroke="#5f5b6a" points="775.5,-244.5 1120.5,-244.5 "/>
<text text-anchor="middle" x="948" y="-229.3" font-family="Times,serif" font-size="14.00">type: 1</text>
<polyline fill="none" stroke="#5f5b6a" points="775.5,-221.5 1120.5,-221.5 "/>
<text text-anchor="middle" x="948" y="-206.3" font-family="Times,serif" font-size="14.00">value: =</text>
<polyline fill="none" stroke="#5f5b6a" points="775.5,-198.5 1120.5,-198.5 "/>
<text text-anchor="middle" x="948" y="-183.3" font-family="Times,serif" font-size="14.00">parent: 0x61066f2fa1f0</text>
<polyline fill="none" stroke="#5f5b6a" points="775.5,-175.5 1120.5,-175.5 "/>
<text text-anchor="middle" x="859" y="-160.3" font-family="Times,serif" font-size="14.00">left: 0x61066f2f9a20</text>
<polyline fill="none" stroke="#5f5b6a" points="942.5,-152.5 942.5,-175.5 "/>
<text text-anchor="middle" x="1031.5" y="-160.3" font-family="Times,serif" font-size="14.00">right: 0x61066f2f9a80</text>
</g>
<!-- node0x61066f2fa1f0&#45;&gt;node0x61066f2fa1c0 -->
<g id="edge16" class="edge">
<title>node0x61066f2fa1f0&#45;&gt;node0x61066f2fa1c0</title>
<path fill="none" stroke="#5f5b6a" d="M926.23,-304.29C928.26,-295.61 930.36,-286.58 932.43,-277.71"/>
<polygon fill="#5f5b6a" stroke="#5f5b6a" points="935.89,-278.32 934.75,-267.79 929.07,-276.73 935.89,-278.32"/>
</g>
<!-- node0x61066f2f9a20 -->
<g id="node18" class="node">
<title>node0x61066f2f9a20</title>
<path fill="#98f5e1" stroke="#5f5b6a" d="M827,-0.5C827,-0.5 991,-0.5 991,-0.5 997,-0.5 1003,-6.5 1003,-12.5 1003,-12.5 1003,-103.5 1003,-103.5 1003,-109.5 997,-115.5 991,-115.5 991,-115.5 827,-115.5 827,-115.5 821,-115.5 815,-109.5 815,-103.5 815,-103.5 815,-12.5 815,-12.5 815,-6.5 821,-0.5 827,-0.5"/>
<text text-anchor="middle" x="909" y="-100.3" font-family="Times,serif" font-size="14.00">indx: 0x61066f2f9a20</text>
<polyline fill="none" stroke="#5f5b6a" points="815,-92.5 1003,-92.5 "/>
<text text-anchor="middle" x="909" y="-77.3" font-family="Times,serif" font-size="14.00">type: 2</text>
<polyline fill="none" stroke="#5f5b6a" points="815,-69.5 1003,-69.5 "/>
<text text-anchor="middle" x="909" y="-54.3" font-family="Times,serif" font-size="14.00">value: 0</text>
<polyline fill="none" stroke="#5f5b6a" points="815,-46.5 1003,-46.5 "/>
<text text-anchor="middle" x="909" y="-31.3" font-family="Times,serif" font-size="14.00">parent: 0x61066f2fa1c0</text>
<polyline fill="none" stroke="#5f5b6a" points="815,-23.5 1003,-23.5 "/>
<text text-anchor="middle" x="859" y="-8.3" font-family="Times,serif" font-size="14.00">left: (nil)</text>
<polyline fill="none" stroke="#5f5b6a" points="903,-0.5 903,-23.5 "/>
<text text-anchor="middle" x="953" y="-8.3" font-family="Times,serif" font-size="14.00">right: (nil)</text>
</g>
<!-- node0x61066f2fa1c0&#45;&gt;node0x61066f2f9a20 -->
<g id="edge17" class="edge">
<title>node0x61066f2fa1c0&#45;&gt;node0x61066f2f9a20</title>
<path fill="none" stroke="#5f5b6a" d="M933.26,-152.29C931,-143.61 928.65,-134.58 926.35,-125.71"/>
<polygon fill="#5f5b6a" stroke="#5f5b6a" points="929.67,-124.59 923.77,-115.79 922.89,-126.35 929.67,-124.59"/>
</g>
<!-- node0x61066f2f9a80 -->
<g id="node19" class="node">
<title>node0x61066f2f9a80</title>
<path fill="#98f5e1" stroke="#5f5b6a" d="M1033,-0.5C1033,-0.5 1197,-0.5 1197,-0.5 1203,-0.5 1209,-6.5 1209,-12.5 1209,-12.5 1209,-103.5 1209,-103.5 1209,-109.5 1203,-115.5 1197,-115.5 1197,-115.5 1033,-115.5 1033,-115.5 1027,-115.5 1021,-109.5 1021,-103.5 1021,-103.5 1021,-12.5 1021,-12.5 1021,-6.5 1027,-0.5 1033,-0.5"/>
<text text-anchor="middle" x="1115" y="-100.3" font-family="Times,serif" font-size="14.00">indx: 0x61066f2f9a80</text>
<polyline fill="none" stroke="#5f5b6a" points="1021,-92.5 1209,-92.5 "/>
<text text-anchor="middle" x="1115" y="-77.3" font-family="Times,serif" font-size="14.00">type: 2</text>
<polyline fill="none" stroke="#5f5b6a" points="1021,-69.5 1209,-69.5 "/>
<text text-anchor="middle" x="1115" y="-54.3" font-family="Times,serif" font-size="14.00">value: 1</text>
<polyline fill="none" stroke="#5f5b6a" points="1021,-46.5 1209,-46.5 "/>
<text text-anchor="middle" x="1115" y="-31.3" font-family="Times,serif" font-size="14.00">parent: 0x61066f2fa1c0</text>
<polyline fill="none" stroke="#5f5b6a" points="1021,-23.5 1209,-23.5 "/>
<text text-anchor="middle" x="1065" y="-8.3" font-family="Times,serif" font-size="14.00">left: (nil)</text>
<polyline fill="none" stroke="#5f5b6a" points="1109,-0.5 1109,-23.5 "/>
<text text-anchor="middle" x="1159" y="-8.3" font-family="Times,serif" font-size="14.00">right: (nil)</text>
</g>
<!-- node0x61066f2fa1c0&#45;&gt;node0x61066f2f9a80 -->
<g id="edge18" class="edge">
<title>node0x61066f2fa1c0&#45;&gt;node0x61066f2f9a80</title>
<path fill="none" stroke="#5f5b6a" d="M1011.14,-152.29C1022.02,-142.52 1033.39,-132.3 1044.45,-122.37"/>
<polygon fill="#5f5b6a" stroke="#5f5b6a" points="1046.95,-124.83 1052.05,-115.54 1042.27,-119.62 1046.95,-124.83"/>
</g>
<!-- node0x61066f2fa2b0 -->
<g id="node21" class="node">
<title>node0x61066f2fa2b0</title>
<path fill="#cfbaf0" stroke="#5f5b6a" d="M1074,-456.5C1074,-456.5 1394,-456.5 1394,-456.5 1400,-456.5 1406,-462.5 1406,-468.5 1406,-468.5 1406,-559.5 1406,-559.5 1406,-565.5 1400,-571.5 1394,-571.5 1394,-571.5 1074,-571.5 1074,-571.5 1068,-571.5 1062,-565.5 1062,-559.5 1062,-559.5 1062,-468.5 1062,-468.5 1062,-462.5 1068,-456.5 1074,-456.5"/>
<text text-anchor="middle" x="1234" y="-556.3" font-family="Times,serif" font-size="14.00">indx: 0x61066f2fa2b0</text>
<polyline fill="none" stroke="#5f5b6a" points="1062,-548.5 1406,-548.5 "/>
<text text-anchor="middle" x="1234" y="-533.3" font-family="Times,serif" font-size="14.00">type: 1</text>
<polyline fill="none" stroke="#5f5b6a" points="1062,-525.5 1406,-525.5 "/>
<text text-anchor="middle" x="1234" y="-510.3" font-family="Times,serif" font-size="14.00">value: &#45;</text>
<polyline fill="none" stroke="#5f5b6a" points="1062,-502.5 1406,-502.5 "/>
<text text-anchor="middle" x="1234" y="-487.3" font-family="Times,serif" font-size="14.00">parent: 0x61066f2fa2e0</text>
<polyline fill="none" stroke="#5f5b6a" points="1062,-479.5 1406,-479.5 "/>
<text text-anchor="middle" x="1145.5" y="-464.3" font-family="Times,serif" font-size="14.00">left: 0x61066f2fa280</text>
<polyline fill="none" stroke="#5f5b6a" points="1229,-456.5 1229,-479.5 "/>
<text text-anchor="middle" x="1317.5" y="-464.3" font-family="Times,serif" font-size="14.00">right: 0x61066f2f9c00</text>
</g>
<!-- node0x61066f2fa2e0&#45;&gt;node0x61066f2fa2b0 -->
<g id="edge20" class="edge">
<title>node0x61066f2fa2e0&#45;&gt;node0x61066f2fa2b0</title>
<path fill="none" stroke="#5f5b6a" d="M1188.6,-608.29C1192.96,-599.33 1197.5,-590 1201.95,-580.85"/>
<polygon fill="#5f5b6a" stroke="#5f5b6a" points="1205.13,-582.31 1206.36,-571.79 1198.84,-579.25 1205.13,-582.31"/>
</g>
<!-- node0x61066f2fa280 -->
<g id="node22" class="node">
<title>node0x61066f2fa280</title>
<path fill="#cfbaf0" stroke="#5f5b6a" d="M1073.5,-304.5C1073.5,-304.5 1394.5,-304.5 1394.5,-304.5 1400.5,-304.5 1406.5,-310.5 1406.5,-316.5 1406.5,-316.5 1406.5,-407.5 1406.5,-407.5 1406.5,-413.5 1400.5,-419.5 1394.5,-419.5 1394.5,-419.5 1073.5,-419.5 1073.5,-419.5 1067.5,-419.5 1061.5,-413.5 1061.5,-407.5 1061.5,-407.5 1061.5,-316.5 1061.5,-316.5 1061.5,-310.5 1067.5,-304.5 1073.5,-304.5"/>
<text text-anchor="middle" x="1234" y="-404.3" font-family="Times,serif" font-size="14.00">indx: 0x61066f2fa280</text>
<polyline fill="none" stroke="#5f5b6a" points="1061.5,-396.5 1406.5,-396.5 "/>
<text text-anchor="middle" x="1234" y="-381.3" font-family="Times,serif" font-size="14.00">type: 1</text>
<polyline fill="none" stroke="#5f5b6a" points="1061.5,-373.5 1406.5,-373.5 "/>
<text text-anchor="middle" x="1234" y="-358.3" font-family="Times,serif" font-size="14.00">value: +</text>
<polyline fill="none" stroke="#5f5b6a" points="1061.5,-350.5 1406.5,-350.5 "/>
<text text-anchor="middle" x="1234" y="-335.3" font-family="Times,serif" font-size="14.00">parent: 0x61066f2fa2b0</text>
<polyline fill="none" stroke="#5f5b6a" points="1061.5,-327.5 1406.5,-327.5 "/>
<text text-anchor="middle" x="1145" y="-312.3" font-family="Times,serif" font-size="14.00">left: 0x61066f2f9b40</text>
<polyline fill="none" stroke="#5f5b6a" points="1228.5,-304.5 1228.5,-327.5 "/>
<text text-anchor="middle" x="1317.5" y="-312.3" font-family="Times,serif" font-size="14.00">right: 0x61066f2f9ba0</text>
</g>
<!-- node0x61066f2fa2b0&#45;&gt;node0x61066f2fa280 -->
<g id="edge21" class="edge">
<title>node0x61066f2fa2b0&#45;&gt;node0x61066f2fa280</title>
<path fill="none" stroke="#5f5b6a" d="M1234,-456.29C1234,-447.7 1234,-438.78 1234,-430"/>
<polygon fill="#5f5b6a" stroke="#5f5b6a" points="1237.5,-429.79 1234,-419.79 1230.5,-429.79 1237.5,-429.79"/>
</g>
<!-- node0x61066f2f9c00 -->
<g id="node25" class="node">
<title>node0x61066f2f9c00</title>
<path fill="#8eecf5" stroke="#5f5b6a" d="M1437,-304.5C1437,-304.5 1603,-304.5 1603,-304.5 1609,-304.5 1615,-310.5 1615,-316.5 1615,-316.5 1615,-407.5 1615,-407.5 1615,-413.5 1609,-419.5 1603,-419.5 1603,-419.5 1437,-419.5 1437,-419.5 1431,-419.5 1425,-413.5 1425,-407.5 1425,-407.5 1425,-316.5 1425,-316.5 1425,-310.5 1431,-304.5 1437,-304.5"/>
<text text-anchor="middle" x="1520" y="-404.3" font-family="Times,serif" font-size="14.00">indx: 0x61066f2f9c00</text>
<polyline fill="none" stroke="#5f5b6a" points="1425,-396.5 1615,-396.5 "/>
<text text-anchor="middle" x="1520" y="-381.3" font-family="Times,serif" font-size="14.00">type: 3</text>
<polyline fill="none" stroke="#5f5b6a" points="1425,-373.5 1615,-373.5 "/>
<text text-anchor="middle" x="1520" y="-358.3" font-family="Times,serif" font-size="14.00">value: 8.00</text>
<polyline fill="none" stroke="#5f5b6a" points="1425,-350.5 1615,-350.5 "/>
<text text-anchor="middle" x="1520" y="-335.3" font-family="Times,serif" font-size="14.00">parent: 0x61066f2fa2b0</text>
<polyline fill="none" stroke="#5f5b6a" points="1425,-327.5 1615,-327.5 "/>
<text text-anchor="middle" x="1469.5" y="-312.3" font-family="Times,serif" font-size="14.00">left: (nil)</text>
<polyline fill="none" stroke="#5f5b6a" points="1514,-304.5 1514,-327.5 "/>
<text text-anchor="middle" x="1564.5" y="-312.3" font-family="Times,serif" font-size="14.00">right: (nil)</text>
</g>
<!-- node0x61066f2fa2b0&#45;&gt;node0x61066f2f9c00 -->
<g id="edge24" class="edge">
<title>node0x61066f2fa2b0&#45;&gt;node0x61066f2f9c00</title>
<path fill="none" stroke="#5f5b6a" d="M1345.92,-456.46C1369.15,-444.54 1393.42,-431.95 1416,-420 1416.09,-419.95 1416.18,-419.9 1416.27,-419.86"/>
<polygon fill="#5f5b6a" stroke="#5f5b6a" points="1417.66,-423.08 1424.84,-415.3 1414.37,-416.9 1417.66,-423.08"/>
</g>
<!-- node0x61066f2f9b40 -->
<g id="node23" class="node">
<title>node0x61066f2f9b40</title>
<path fill="#8eecf5" stroke="#5f5b6a" d="M1151,-152.5C1151,-152.5 1317,-152.5 1317,-152.5 1323,-152.5 1329,-158.5 1329,-164.5 1329,-164.5 1329,-255.5 1329,-255.5 1329,-261.5 1323,-267.5 1317,-267.5 1317,-267.5 1151,-267.5 1151,-267.5 1145,-267.5 1139,-261.5 1139,-255.5 1139,-255.5 1139,-164.5 1139,-164.5 1139,-158.5 1145,-152.5 1151,-152.5"/>
<text text-anchor="middle" x="1234" y="-252.3" font-family="Times,serif" font-size="14.00">indx: 0x61066f2f9b40</text>
<polyline fill="none" stroke="#5f5b6a" points="1139,-244.5 1329,-244.5 "/>
<text text-anchor="middle" x="1234" y="-229.3" font-family="Times,serif" font-size="14.00">type: 3</text>
<polyline fill="none" stroke="#5f5b6a" points="1139,-221.5 1329,-221.5 "/>
<text text-anchor="middle" x="1234" y="-206.3" font-family="Times,serif" font-size="14.00">value: 1.00</text>
<polyline fill="none" stroke="#5f5b6a" points="1139,-198.5 1329,-198.5 "/>
<text text-anchor="middle" x="1234" y="-183.3" font-family="Times,serif" font-size="14.00">parent: 0x61066f2fa280</text>
<polyline fill="none" stroke="#5f5b6a" points="1139,-175.5 1329,-175.5 "/>
<text text-anchor="middle" x="1183.5" y="-160.3" font-family="Times,serif" font-size="14.00">left: (nil)</text>
<polyline fill="none" stroke="#5f5b6a" points="1228,-152.5 1228,-175.5 "/>
<text text-anchor="middle" x="1278.5" y="-160.3" font-family="Times,serif" font-size="14.00">right: (nil)</text>
</g>
<!-- node0x61066f2fa280&#45;&gt;node0x61066f2f9b40 -->
<g id="edge22" class="edge">
<title>node0x61066f2fa280&#45;&gt;node0x61066f2f9b40</title>
<path fill="none" stroke="#5f5b6a" d="M1234,-304.29C1234,-295.7 1234,-286.78 1234,-278"/>
<polygon fill="#5f5b6a" stroke="#5f5b6a" points="1237.5,-277.79 1234,-267.79 1230.5,-277.79 1237.5,-277.79"/>
</g>
<!-- node0x61066f2f9ba0 -->
<g id="node24" class="node">
<title>node0x61066f2f9ba0</title>
<path fill="#8eecf5" stroke="#5f5b6a" d="M1359,-152.5C1359,-152.5 1525,-152.5 1525,-152.5 1531,-152.5 1537,-158.5 1537,-164.5 1537,-164.5 1537,-255.5 1537,-255.5 1537,-261.5 1531,-267.5 1525,-267.5 1525,-267.5 1359,-267.5 1359,-267.5 1353,-267.5 1347,-261.5 1347,-255.5 1347,-255.5 1347,-164.5 1347,-164.5 1347,-158.5 1353,-152.5 1359,-152.5"/>
<text text-anchor="middle" x="1442" y="-252.3" font-family="Times,serif" font-size="14.00">indx: 0x61066f2f9ba0</text>
<polyline fill="none" stroke="#5f5b6a" points="1347,-244.5 1537,-244.5 "/>
<text text-anchor="middle" x="1442" y="-229.3" font-family="Times,serif" font-size="14.00">type: 3</text>
<polyline fill="none" stroke="#5f5b6a" points="1347,-221.5 1537,-221.5 "/>
<text text-anchor="middle" x="1442" y="-206.3" font-family="Times,serif" font-size="14.00">value: 7.00</text>
<polyline fill="none" stroke="#5f5b6a" points="1347,-198.5 1537,-198.5 "/>
<text text-anchor="middle" x="1442" y="-183.3" font-family="Times,serif" font-size="14.00">parent: 0x61066f2fa280</text>
<polyline fill="none" stroke="#5f5b6a" points="1347,-175.5 1537,-175.5 "/>
<text text-anchor="middle" x="1391.5" y="-160.3" font-family="Times,serif" font-size="14.00">left: (nil)</text>
<polyline fill="none" stroke="#5f5b6a" points="1436,-152.5 1436,-175.5 "/>
<text text-anchor="middle" x="1486.5" y="-160.3" font-family="Times,serif" font-size="14.00">right: (nil)</text>
</g>
<!-- node0x61066f2fa280&#45;&gt;node0x61066f2f9ba0 -->
<g id="edge23" class="edge">
<title>node0x61066f2fa280&#45;&gt;node0x61066f2f9ba0</title>
<path fill="none" stroke="#5f5b6a" d="M1312.64,-304.29C1326.58,-294.24 1341.17,-283.71 1355.32,-273.51"/>
<polygon fill="#5f5b6a" stroke="#5f5b6a" points="1357.53,-276.23 1363.6,-267.54 1353.44,-270.55 1357.53,-276.23"/>
</g>
</g>
</svg>
