<?xml version="1.0" encoding="UTF-8" standalone="no"?>
<!DOCTYPE svg PUBLIC "-//W3C//DTD SVG 1.1//EN"
 "http://www.w3.org/Graphics/SVG/1.1/DTD/svg11.dtd">
<!-- Generated by graphviz version 2.43.0 (0)
 -->
<!-- Title: Tree Pages: 1 -->
<svg width="2027pt" height="1036pt"
 viewBox="0.00 0.00 2027.00 1036.00" xmlns="http://www.w3.org/2000/svg" xmlns:xlink="http://www.w3.org/1999/xlink">
<g id="graph0" class="graph" transform="scale(1 1) rotate(0) translate(4 1032)">
<title>Tree</title>
<polygon fill="#fffeec" stroke="transparent" points="-4,4 -4,-1032 2023,-1032 2023,4 -4,4"/>
<!-- node0x58f9bd2ec030 -->
<g id="node1" class="node">
<title>node0x58f9bd2ec030</title>
<path fill="#ffcfd2" stroke="#5f5b6a" d="M413.5,-912.5C413.5,-912.5 738.5,-912.5 738.5,-912.5 744.5,-912.5 750.5,-918.5 750.5,-924.5 750.5,-924.5 750.5,-1015.5 750.5,-1015.5 750.5,-1021.5 744.5,-1027.5 738.5,-1027.5 738.5,-1027.5 413.5,-1027.5 413.5,-1027.5 407.5,-1027.5 401.5,-1021.5 401.5,-1015.5 401.5,-1015.5 401.5,-924.5 401.5,-924.5 401.5,-918.5 407.5,-912.5 413.5,-912.5"/>
<text text-anchor="middle" x="576" y="-1012.3" font-family="Times,serif" font-size="14.00">indx: 0x58f9bd2ec030</text>
<polyline fill="none" stroke="#5f5b6a" points="401.5,-1004.5 750.5,-1004.5 "/>
<text text-anchor="middle" x="576" y="-989.3" font-family="Times,serif" font-size="14.00">type: 0</text>
<polyline fill="none" stroke="#5f5b6a" points="401.5,-981.5 750.5,-981.5 "/>
<text text-anchor="middle" x="576" y="-966.3" font-family="Times,serif" font-size="14.00">value: ;</text>
<polyline fill="none" stroke="#5f5b6a" points="401.5,-958.5 750.5,-958.5 "/>
<text text-anchor="middle" x="576" y="-943.3" font-family="Times,serif" font-size="14.00">parent: (nil)</text>
<polyline fill="none" stroke="#5f5b6a" points="401.5,-935.5 750.5,-935.5 "/>
<text text-anchor="middle" x="486" y="-920.3" font-family="Times,serif" font-size="14.00">left: 0x58f9bd2ec000</text>
<polyline fill="none" stroke="#5f5b6a" points="570.5,-912.5 570.5,-935.5 "/>
<text text-anchor="middle" x="660.5" y="-920.3" font-family="Times,serif" font-size="14.00">right: 0x58f9bd2ec120</text>
</g>
<!-- node0x58f9bd2ec000 -->
<g id="node2" class="node">
<title>node0x58f9bd2ec000</title>
<path fill="#cfbaf0" stroke="#5f5b6a" d="M229.5,-760.5C229.5,-760.5 556.5,-760.5 556.5,-760.5 562.5,-760.5 568.5,-766.5 568.5,-772.5 568.5,-772.5 568.5,-863.5 568.5,-863.5 568.5,-869.5 562.5,-875.5 556.5,-875.5 556.5,-875.5 229.5,-875.5 229.5,-875.5 223.5,-875.5 217.5,-869.5 217.5,-863.5 217.5,-863.5 217.5,-772.5 217.5,-772.5 217.5,-766.5 223.5,-760.5 229.5,-760.5"/>
<text text-anchor="middle" x="393" y="-860.3" font-family="Times,serif" font-size="14.00">indx: 0x58f9bd2ec000</text>
<polyline fill="none" stroke="#5f5b6a" points="217.5,-852.5 568.5,-852.5 "/>
<text text-anchor="middle" x="393" y="-837.3" font-family="Times,serif" font-size="14.00">type: 1</text>
<polyline fill="none" stroke="#5f5b6a" points="217.5,-829.5 568.5,-829.5 "/>
<text text-anchor="middle" x="393" y="-814.3" font-family="Times,serif" font-size="14.00">value: =</text>
<polyline fill="none" stroke="#5f5b6a" points="217.5,-806.5 568.5,-806.5 "/>
<text text-anchor="middle" x="393" y="-791.3" font-family="Times,serif" font-size="14.00">parent: 0x58f9bd2ec030</text>
<polyline fill="none" stroke="#5f5b6a" points="217.5,-783.5 568.5,-783.5 "/>
<text text-anchor="middle" x="302.5" y="-768.3" font-family="Times,serif" font-size="14.00">left: 0x58f9bd2eb680</text>
<polyline fill="none" stroke="#5f5b6a" points="387.5,-760.5 387.5,-783.5 "/>
<text text-anchor="middle" x="478" y="-768.3" font-family="Times,serif" font-size="14.00">right: 0x58f9bd2eb6e0</text>
</g>
<!-- node0x58f9bd2ec030&#45;&gt;node0x58f9bd2ec000 -->
<g id="edge1" class="edge">
<title>node0x58f9bd2ec030&#45;&gt;node0x58f9bd2ec000</title>
<path fill="none" stroke="#5f5b6a" d="M506.82,-912.29C494.78,-902.42 482.19,-892.11 469.96,-882.08"/>
<polygon fill="#5f5b6a" stroke="#5f5b6a" points="471.93,-879.17 461.98,-875.54 467.49,-884.59 471.93,-879.17"/>
</g>
<!-- node0x58f9bd2ec120 -->
<g id="node5" class="node">
<title>node0x58f9bd2ec120</title>
<path fill="#ffcfd2" stroke="#5f5b6a" d="M598.5,-760.5C598.5,-760.5 919.5,-760.5 919.5,-760.5 925.5,-760.5 931.5,-766.5 931.5,-772.5 931.5,-772.5 931.5,-863.5 931.5,-863.5 931.5,-869.5 925.5,-875.5 919.5,-875.5 919.5,-875.5 598.5,-875.5 598.5,-875.5 592.5,-875.5 586.5,-869.5 586.5,-863.5 586.5,-863.5 586.5,-772.5 586.5,-772.5 586.5,-766.5 592.5,-760.5 598.5,-760.5"/>
<text text-anchor="middle" x="759" y="-860.3" font-family="Times,serif" font-size="14.00">indx: 0x58f9bd2ec120</text>
<polyline fill="none" stroke="#5f5b6a" points="586.5,-852.5 931.5,-852.5 "/>
<text text-anchor="middle" x="759" y="-837.3" font-family="Times,serif" font-size="14.00">type: 0</text>
<polyline fill="none" stroke="#5f5b6a" points="586.5,-829.5 931.5,-829.5 "/>
<text text-anchor="middle" x="759" y="-814.3" font-family="Times,serif" font-size="14.00">value: ;</text>
<polyline fill="none" stroke="#5f5b6a" points="586.5,-806.5 931.5,-806.5 "/>
<text text-anchor="middle" x="759" y="-791.3" font-family="Times,serif" font-size="14.00">parent: (nil)</text>
<polyline fill="none" stroke="#5f5b6a" points="586.5,-783.5 931.5,-783.5 "/>
<text text-anchor="middle" x="669" y="-768.3" font-family="Times,serif" font-size="14.00">left: 0x58f9bd2ec0f0</text>
<polyline fill="none" stroke="#5f5b6a" points="751.5,-760.5 751.5,-783.5 "/>
<text text-anchor="middle" x="841.5" y="-768.3" font-family="Times,serif" font-size="14.00">right: 0x58f9bd2ec210</text>
</g>
<!-- node0x58f9bd2ec030&#45;&gt;node0x58f9bd2ec120 -->
<g id="edge4" class="edge">
<title>node0x58f9bd2ec030&#45;&gt;node0x58f9bd2ec120</title>
<path fill="none" stroke="#5f5b6a" d="M645.18,-912.29C657.22,-902.42 669.81,-892.11 682.04,-882.08"/>
<polygon fill="#5f5b6a" stroke="#5f5b6a" points="684.51,-884.59 690.02,-875.54 680.07,-879.17 684.51,-884.59"/>
</g>
<!-- node0x58f9bd2eb680 -->
<g id="node3" class="node">
<title>node0x58f9bd2eb680</title>
<path fill="#98f5e1" stroke="#5f5b6a" d="M119,-608.5C119,-608.5 287,-608.5 287,-608.5 293,-608.5 299,-614.5 299,-620.5 299,-620.5 299,-711.5 299,-711.5 299,-717.5 293,-723.5 287,-723.5 287,-723.5 119,-723.5 119,-723.5 113,-723.5 107,-717.5 107,-711.5 107,-711.5 107,-620.5 107,-620.5 107,-614.5 113,-608.5 119,-608.5"/>
<text text-anchor="middle" x="203" y="-708.3" font-family="Times,serif" font-size="14.00">indx: 0x58f9bd2eb680</text>
<polyline fill="none" stroke="#5f5b6a" points="107,-700.5 299,-700.5 "/>
<text text-anchor="middle" x="203" y="-685.3" font-family="Times,serif" font-size="14.00">type: 2</text>
<polyline fill="none" stroke="#5f5b6a" points="107,-677.5 299,-677.5 "/>
<text text-anchor="middle" x="203" y="-662.3" font-family="Times,serif" font-size="14.00">value: 0</text>
<polyline fill="none" stroke="#5f5b6a" points="107,-654.5 299,-654.5 "/>
<text text-anchor="middle" x="203" y="-639.3" font-family="Times,serif" font-size="14.00">parent: 0x58f9bd2ec000</text>
<polyline fill="none" stroke="#5f5b6a" points="107,-631.5 299,-631.5 "/>
<text text-anchor="middle" x="152" y="-616.3" font-family="Times,serif" font-size="14.00">left: (nil)</text>
<polyline fill="none" stroke="#5f5b6a" points="197,-608.5 197,-631.5 "/>
<text text-anchor="middle" x="248" y="-616.3" font-family="Times,serif" font-size="14.00">right: (nil)</text>
</g>
<!-- node0x58f9bd2ec000&#45;&gt;node0x58f9bd2eb680 -->
<g id="edge2" class="edge">
<title>node0x58f9bd2ec000&#45;&gt;node0x58f9bd2eb680</title>
<path fill="none" stroke="#5f5b6a" d="M321.17,-760.29C308.55,-750.33 295.35,-739.91 282.54,-729.79"/>
<polygon fill="#5f5b6a" stroke="#5f5b6a" points="284.63,-726.99 274.62,-723.54 280.3,-732.48 284.63,-726.99"/>
</g>
<!-- node0x58f9bd2eb6e0 -->
<g id="node4" class="node">
<title>node0x58f9bd2eb6e0</title>
<path fill="#8eecf5" stroke="#5f5b6a" d="M329,-608.5C329,-608.5 497,-608.5 497,-608.5 503,-608.5 509,-614.5 509,-620.5 509,-620.5 509,-711.5 509,-711.5 509,-717.5 503,-723.5 497,-723.5 497,-723.5 329,-723.5 329,-723.5 323,-723.5 317,-717.5 317,-711.5 317,-711.5 317,-620.5 317,-620.5 317,-614.5 323,-608.5 329,-608.5"/>
<text text-anchor="middle" x="413" y="-708.3" font-family="Times,serif" font-size="14.00">indx: 0x58f9bd2eb6e0</text>
<polyline fill="none" stroke="#5f5b6a" points="317,-700.5 509,-700.5 "/>
<text text-anchor="middle" x="413" y="-685.3" font-family="Times,serif" font-size="14.00">type: 3</text>
<polyline fill="none" stroke="#5f5b6a" points="317,-677.5 509,-677.5 "/>
<text text-anchor="middle" x="413" y="-662.3" font-family="Times,serif" font-size="14.00">value: 9.00</text>
<polyline fill="none" stroke="#5f5b6a" points="317,-654.5 509,-654.5 "/>
<text text-anchor="middle" x="413" y="-639.3" font-family="Times,serif" font-size="14.00">parent: 0x58f9bd2ec000</text>
<polyline fill="none" stroke="#5f5b6a" points="317,-631.5 509,-631.5 "/>
<text text-anchor="middle" x="362" y="-616.3" font-family="Times,serif" font-size="14.00">left: (nil)</text>
<polyline fill="none" stroke="#5f5b6a" points="407,-608.5 407,-631.5 "/>
<text text-anchor="middle" x="458" y="-616.3" font-family="Times,serif" font-size="14.00">right: (nil)</text>
</g>
<!-- node0x58f9bd2ec000&#45;&gt;node0x58f9bd2eb6e0 -->
<g id="edge3" class="edge">
<title>node0x58f9bd2ec000&#45;&gt;node0x58f9bd2eb6e0</title>
<path fill="none" stroke="#5f5b6a" d="M400.56,-760.29C401.72,-751.61 402.92,-742.58 404.11,-733.71"/>
<polygon fill="#5f5b6a" stroke="#5f5b6a" points="407.58,-734.16 405.43,-723.79 400.64,-733.24 407.58,-734.16"/>
</g>
<!-- node0x58f9bd2ec0f0 -->
<g id="node6" class="node">
<title>node0x58f9bd2ec0f0</title>
<path fill="#f1c0e8" stroke="#5f5b6a" d="M578,-608.5C578,-608.5 902,-608.5 902,-608.5 908,-608.5 914,-614.5 914,-620.5 914,-620.5 914,-711.5 914,-711.5 914,-717.5 908,-723.5 902,-723.5 902,-723.5 578,-723.5 578,-723.5 572,-723.5 566,-717.5 566,-711.5 566,-711.5 566,-620.5 566,-620.5 566,-614.5 572,-608.5 578,-608.5"/>
<text text-anchor="middle" x="740" y="-708.3" font-family="Times,serif" font-size="14.00">indx: 0x58f9bd2ec0f0</text>
<polyline fill="none" stroke="#5f5b6a" points="566,-700.5 914,-700.5 "/>
<text text-anchor="middle" x="740" y="-685.3" font-family="Times,serif" font-size="14.00">type: 4</text>
<polyline fill="none" stroke="#5f5b6a" points="566,-677.5 914,-677.5 "/>
<text text-anchor="middle" x="740" y="-662.3" font-family="Times,serif" font-size="14.00">value: i</text>
<polyline fill="none" stroke="#5f5b6a" points="566,-654.5 914,-654.5 "/>
<text text-anchor="middle" x="740" y="-639.3" font-family="Times,serif" font-size="14.00">parent: 0x58f9bd2ec120</text>
<polyline fill="none" stroke="#5f5b6a" points="566,-631.5 914,-631.5 "/>
<text text-anchor="middle" x="650.5" y="-616.3" font-family="Times,serif" font-size="14.00">left: 0x58f9bd2ec060</text>
<polyline fill="none" stroke="#5f5b6a" points="735,-608.5 735,-631.5 "/>
<text text-anchor="middle" x="824.5" y="-616.3" font-family="Times,serif" font-size="14.00">right: 0x58f9bd2ec0c0</text>
</g>
<!-- node0x58f9bd2ec120&#45;&gt;node0x58f9bd2ec0f0 -->
<g id="edge5" class="edge">
<title>node0x58f9bd2ec120&#45;&gt;node0x58f9bd2ec0f0</title>
<path fill="none" stroke="#5f5b6a" d="M751.82,-760.29C750.72,-751.61 749.57,-742.58 748.45,-733.71"/>
<polygon fill="#5f5b6a" stroke="#5f5b6a" points="751.92,-733.27 747.19,-723.79 744.98,-734.15 751.92,-733.27"/>
</g>
<!-- node0x58f9bd2ec210 -->
<g id="node15" class="node">
<title>node0x58f9bd2ec210</title>
<path fill="#ffcfd2" stroke="#5f5b6a" d="M1000.5,-608.5C1000.5,-608.5 1233.5,-608.5 1233.5,-608.5 1239.5,-608.5 1245.5,-614.5 1245.5,-620.5 1245.5,-620.5 1245.5,-711.5 1245.5,-711.5 1245.5,-717.5 1239.5,-723.5 1233.5,-723.5 1233.5,-723.5 1000.5,-723.5 1000.5,-723.5 994.5,-723.5 988.5,-717.5 988.5,-711.5 988.5,-711.5 988.5,-620.5 988.5,-620.5 988.5,-614.5 994.5,-608.5 1000.5,-608.5"/>
<text text-anchor="middle" x="1117" y="-708.3" font-family="Times,serif" font-size="14.00">indx: 0x58f9bd2ec210</text>
<polyline fill="none" stroke="#5f5b6a" points="988.5,-700.5 1245.5,-700.5 "/>
<text text-anchor="middle" x="1117" y="-685.3" font-family="Times,serif" font-size="14.00">type: 0</text>
<polyline fill="none" stroke="#5f5b6a" points="988.5,-677.5 1245.5,-677.5 "/>
<text text-anchor="middle" x="1117" y="-662.3" font-family="Times,serif" font-size="14.00">value: ;</text>
<polyline fill="none" stroke="#5f5b6a" points="988.5,-654.5 1245.5,-654.5 "/>
<text text-anchor="middle" x="1117" y="-639.3" font-family="Times,serif" font-size="14.00">parent: (nil)</text>
<polyline fill="none" stroke="#5f5b6a" points="988.5,-631.5 1245.5,-631.5 "/>
<text text-anchor="middle" x="1072.5" y="-616.3" font-family="Times,serif" font-size="14.00">left: 0x58f9bd2ec1e0</text>
<polyline fill="none" stroke="#5f5b6a" points="1156.5,-608.5 1156.5,-631.5 "/>
<text text-anchor="middle" x="1201" y="-616.3" font-family="Times,serif" font-size="14.00">right: (nil)</text>
</g>
<!-- node0x58f9bd2ec120&#45;&gt;node0x58f9bd2ec210 -->
<g id="edge14" class="edge">
<title>node0x58f9bd2ec120&#45;&gt;node0x58f9bd2ec210</title>
<path fill="none" stroke="#5f5b6a" d="M894.09,-760.4C921.86,-748.76 951.12,-736.5 978.99,-724.82"/>
<polygon fill="#5f5b6a" stroke="#5f5b6a" points="980.51,-727.98 988.38,-720.89 977.81,-721.53 980.51,-727.98"/>
</g>
<!-- node0x58f9bd2ec060 -->
<g id="node7" class="node">
<title>node0x58f9bd2ec060</title>
<path fill="#cfbaf0" stroke="#5f5b6a" d="M142,-456.5C142,-456.5 470,-456.5 470,-456.5 476,-456.5 482,-462.5 482,-468.5 482,-468.5 482,-559.5 482,-559.5 482,-565.5 476,-571.5 470,-571.5 470,-571.5 142,-571.5 142,-571.5 136,-571.5 130,-565.5 130,-559.5 130,-559.5 130,-468.5 130,-468.5 130,-462.5 136,-456.5 142,-456.5"/>
<text text-anchor="middle" x="306" y="-556.3" font-family="Times,serif" font-size="14.00">indx: 0x58f9bd2ec060</text>
<polyline fill="none" stroke="#5f5b6a" points="130,-548.5 482,-548.5 "/>
<text text-anchor="middle" x="306" y="-533.3" font-family="Times,serif" font-size="14.00">type: 1</text>
<polyline fill="none" stroke="#5f5b6a" points="130,-525.5 482,-525.5 "/>
<text text-anchor="middle" x="306" y="-510.3" font-family="Times,serif" font-size="14.00">value: &#45;</text>
<polyline fill="none" stroke="#5f5b6a" points="130,-502.5 482,-502.5 "/>
<text text-anchor="middle" x="306" y="-487.3" font-family="Times,serif" font-size="14.00">parent: 0x58f9bd2ec0f0</text>
<polyline fill="none" stroke="#5f5b6a" points="130,-479.5 482,-479.5 "/>
<text text-anchor="middle" x="215" y="-464.3" font-family="Times,serif" font-size="14.00">left: 0x58f9bd2eb7a0</text>
<polyline fill="none" stroke="#5f5b6a" points="300,-456.5 300,-479.5 "/>
<text text-anchor="middle" x="391" y="-464.3" font-family="Times,serif" font-size="14.00">right: 0x58f9bd2eb800</text>
</g>
<!-- node0x58f9bd2ec0f0&#45;&gt;node0x58f9bd2ec060 -->
<g id="edge6" class="edge">
<title>node0x58f9bd2ec0f0&#45;&gt;node0x58f9bd2ec060</title>
<path fill="none" stroke="#5f5b6a" d="M576.23,-608.4C544.67,-597.49 511.51,-586.03 479.65,-575.02"/>
<polygon fill="#5f5b6a" stroke="#5f5b6a" points="480.41,-571.58 469.81,-571.62 478.12,-578.19 480.41,-571.58"/>
</g>
<!-- node0x58f9bd2ec0c0 -->
<g id="node10" class="node">
<title>node0x58f9bd2ec0c0</title>
<path fill="#cfbaf0" stroke="#5f5b6a" d="M577,-456.5C577,-456.5 903,-456.5 903,-456.5 909,-456.5 915,-462.5 915,-468.5 915,-468.5 915,-559.5 915,-559.5 915,-565.5 909,-571.5 903,-571.5 903,-571.5 577,-571.5 577,-571.5 571,-571.5 565,-565.5 565,-559.5 565,-559.5 565,-468.5 565,-468.5 565,-462.5 571,-456.5 577,-456.5"/>
<text text-anchor="middle" x="740" y="-556.3" font-family="Times,serif" font-size="14.00">indx: 0x58f9bd2ec0c0</text>
<polyline fill="none" stroke="#5f5b6a" points="565,-548.5 915,-548.5 "/>
<text text-anchor="middle" x="740" y="-533.3" font-family="Times,serif" font-size="14.00">type: 1</text>
<polyline fill="none" stroke="#5f5b6a" points="565,-525.5 915,-525.5 "/>
<text text-anchor="middle" x="740" y="-510.3" font-family="Times,serif" font-size="14.00">value: =</text>
<polyline fill="none" stroke="#5f5b6a" points="565,-502.5 915,-502.5 "/>
<text text-anchor="middle" x="740" y="-487.3" font-family="Times,serif" font-size="14.00">parent: 0x58f9bd2ec0f0</text>
<polyline fill="none" stroke="#5f5b6a" points="565,-479.5 915,-479.5 "/>
<text text-anchor="middle" x="650" y="-464.3" font-family="Times,serif" font-size="14.00">left: 0x58f9bd2eb860</text>
<polyline fill="none" stroke="#5f5b6a" points="735,-456.5 735,-479.5 "/>
<text text-anchor="middle" x="825" y="-464.3" font-family="Times,serif" font-size="14.00">right: 0x58f9bd2ec090</text>
</g>
<!-- node0x58f9bd2ec0f0&#45;&gt;node0x58f9bd2ec0c0 -->
<g id="edge9" class="edge">
<title>node0x58f9bd2ec0f0&#45;&gt;node0x58f9bd2ec0c0</title>
<path fill="none" stroke="#5f5b6a" d="M740,-608.29C740,-599.7 740,-590.78 740,-582"/>
<polygon fill="#5f5b6a" stroke="#5f5b6a" points="743.5,-581.79 740,-571.79 736.5,-581.79 743.5,-581.79"/>
</g>
<!-- node0x58f9bd2eb7a0 -->
<g id="node8" class="node">
<title>node0x58f9bd2eb7a0</title>
<path fill="#8eecf5" stroke="#5f5b6a" d="M12,-304.5C12,-304.5 180,-304.5 180,-304.5 186,-304.5 192,-310.5 192,-316.5 192,-316.5 192,-407.5 192,-407.5 192,-413.5 186,-419.5 180,-419.5 180,-419.5 12,-419.5 12,-419.5 6,-419.5 0,-413.5 0,-407.5 0,-407.5 0,-316.5 0,-316.5 0,-310.5 6,-304.5 12,-304.5"/>
<text text-anchor="middle" x="96" y="-404.3" font-family="Times,serif" font-size="14.00">indx: 0x58f9bd2eb7a0</text>
<polyline fill="none" stroke="#5f5b6a" points="0,-396.5 192,-396.5 "/>
<text text-anchor="middle" x="96" y="-381.3" font-family="Times,serif" font-size="14.00">type: 3</text>
<polyline fill="none" stroke="#5f5b6a" points="0,-373.5 192,-373.5 "/>
<text text-anchor="middle" x="96" y="-358.3" font-family="Times,serif" font-size="14.00">value: 7.00</text>
<polyline fill="none" stroke="#5f5b6a" points="0,-350.5 192,-350.5 "/>
<text text-anchor="middle" x="96" y="-335.3" font-family="Times,serif" font-size="14.00">parent: 0x58f9bd2ec060</text>
<polyline fill="none" stroke="#5f5b6a" points="0,-327.5 192,-327.5 "/>
<text text-anchor="middle" x="45" y="-312.3" font-family="Times,serif" font-size="14.00">left: (nil)</text>
<polyline fill="none" stroke="#5f5b6a" points="90,-304.5 90,-327.5 "/>
<text text-anchor="middle" x="141" y="-312.3" font-family="Times,serif" font-size="14.00">right: (nil)</text>
</g>
<!-- node0x58f9bd2ec060&#45;&gt;node0x58f9bd2eb7a0 -->
<g id="edge7" class="edge">
<title>node0x58f9bd2ec060&#45;&gt;node0x58f9bd2eb7a0</title>
<path fill="none" stroke="#5f5b6a" d="M226.61,-456.29C212.53,-446.24 197.8,-435.71 183.51,-425.51"/>
<polygon fill="#5f5b6a" stroke="#5f5b6a" points="185.33,-422.5 175.16,-419.54 181.26,-428.2 185.33,-422.5"/>
</g>
<!-- node0x58f9bd2eb800 -->
<g id="node9" class="node">
<title>node0x58f9bd2eb800</title>
<path fill="#8eecf5" stroke="#5f5b6a" d="M222,-304.5C222,-304.5 390,-304.5 390,-304.5 396,-304.5 402,-310.5 402,-316.5 402,-316.5 402,-407.5 402,-407.5 402,-413.5 396,-419.5 390,-419.5 390,-419.5 222,-419.5 222,-419.5 216,-419.5 210,-413.5 210,-407.5 210,-407.5 210,-316.5 210,-316.5 210,-310.5 216,-304.5 222,-304.5"/>
<text text-anchor="middle" x="306" y="-404.3" font-family="Times,serif" font-size="14.00">indx: 0x58f9bd2eb800</text>
<polyline fill="none" stroke="#5f5b6a" points="210,-396.5 402,-396.5 "/>
<text text-anchor="middle" x="306" y="-381.3" font-family="Times,serif" font-size="14.00">type: 3</text>
<polyline fill="none" stroke="#5f5b6a" points="210,-373.5 402,-373.5 "/>
<text text-anchor="middle" x="306" y="-358.3" font-family="Times,serif" font-size="14.00">value: 8.00</text>
<polyline fill="none" stroke="#5f5b6a" points="210,-350.5 402,-350.5 "/>
<text text-anchor="middle" x="306" y="-335.3" font-family="Times,serif" font-size="14.00">parent: 0x58f9bd2ec060</text>
<polyline fill="none" stroke="#5f5b6a" points="210,-327.5 402,-327.5 "/>
<text text-anchor="middle" x="255" y="-312.3" font-family="Times,serif" font-size="14.00">left: (nil)</text>
<polyline fill="none" stroke="#5f5b6a" points="300,-304.5 300,-327.5 "/>
<text text-anchor="middle" x="351" y="-312.3" font-family="Times,serif" font-size="14.00">right: (nil)</text>
</g>
<!-- node0x58f9bd2ec060&#45;&gt;node0x58f9bd2eb800 -->
<g id="edge8" class="edge">
<title>node0x58f9bd2ec060&#45;&gt;node0x58f9bd2eb800</title>
<path fill="none" stroke="#5f5b6a" d="M306,-456.29C306,-447.7 306,-438.78 306,-430"/>
<polygon fill="#5f5b6a" stroke="#5f5b6a" points="309.5,-429.79 306,-419.79 302.5,-429.79 309.5,-429.79"/>
</g>
<!-- node0x58f9bd2eb860 -->
<g id="node11" class="node">
<title>node0x58f9bd2eb860</title>
<path fill="#98f5e1" stroke="#5f5b6a" d="M432.5,-304.5C432.5,-304.5 599.5,-304.5 599.5,-304.5 605.5,-304.5 611.5,-310.5 611.5,-316.5 611.5,-316.5 611.5,-407.5 611.5,-407.5 611.5,-413.5 605.5,-419.5 599.5,-419.5 599.5,-419.5 432.5,-419.5 432.5,-419.5 426.5,-419.5 420.5,-413.5 420.5,-407.5 420.5,-407.5 420.5,-316.5 420.5,-316.5 420.5,-310.5 426.5,-304.5 432.5,-304.5"/>
<text text-anchor="middle" x="516" y="-404.3" font-family="Times,serif" font-size="14.00">indx: 0x58f9bd2eb860</text>
<polyline fill="none" stroke="#5f5b6a" points="420.5,-396.5 611.5,-396.5 "/>
<text text-anchor="middle" x="516" y="-381.3" font-family="Times,serif" font-size="14.00">type: 2</text>
<polyline fill="none" stroke="#5f5b6a" points="420.5,-373.5 611.5,-373.5 "/>
<text text-anchor="middle" x="516" y="-358.3" font-family="Times,serif" font-size="14.00">value: 1</text>
<polyline fill="none" stroke="#5f5b6a" points="420.5,-350.5 611.5,-350.5 "/>
<text text-anchor="middle" x="516" y="-335.3" font-family="Times,serif" font-size="14.00">parent: 0x58f9bd2ec0c0</text>
<polyline fill="none" stroke="#5f5b6a" points="420.5,-327.5 611.5,-327.5 "/>
<text text-anchor="middle" x="465.5" y="-312.3" font-family="Times,serif" font-size="14.00">left: (nil)</text>
<polyline fill="none" stroke="#5f5b6a" points="510.5,-304.5 510.5,-327.5 "/>
<text text-anchor="middle" x="561" y="-312.3" font-family="Times,serif" font-size="14.00">right: (nil)</text>
</g>
<!-- node0x58f9bd2ec0c0&#45;&gt;node0x58f9bd2eb860 -->
<g id="edge10" class="edge">
<title>node0x58f9bd2ec0c0&#45;&gt;node0x58f9bd2eb860</title>
<path fill="none" stroke="#5f5b6a" d="M655.32,-456.29C640.16,-446.14 624.29,-435.52 608.92,-425.22"/>
<polygon fill="#5f5b6a" stroke="#5f5b6a" points="610.69,-422.2 600.43,-419.54 606.79,-428.01 610.69,-422.2"/>
</g>
<!-- node0x58f9bd2ec090 -->
<g id="node12" class="node">
<title>node0x58f9bd2ec090</title>
<path fill="#cfbaf0" stroke="#5f5b6a" d="M641.5,-304.5C641.5,-304.5 968.5,-304.5 968.5,-304.5 974.5,-304.5 980.5,-310.5 980.5,-316.5 980.5,-316.5 980.5,-407.5 980.5,-407.5 980.5,-413.5 974.5,-419.5 968.5,-419.5 968.5,-419.5 641.5,-419.5 641.5,-419.5 635.5,-419.5 629.5,-413.5 629.5,-407.5 629.5,-407.5 629.5,-316.5 629.5,-316.5 629.5,-310.5 635.5,-304.5 641.5,-304.5"/>
<text text-anchor="middle" x="805" y="-404.3" font-family="Times,serif" font-size="14.00">indx: 0x58f9bd2ec090</text>
<polyline fill="none" stroke="#5f5b6a" points="629.5,-396.5 980.5,-396.5 "/>
<text text-anchor="middle" x="805" y="-381.3" font-family="Times,serif" font-size="14.00">type: 1</text>
<polyline fill="none" stroke="#5f5b6a" points="629.5,-373.5 980.5,-373.5 "/>
<text text-anchor="middle" x="805" y="-358.3" font-family="Times,serif" font-size="14.00">value: &#45;</text>
<polyline fill="none" stroke="#5f5b6a" points="629.5,-350.5 980.5,-350.5 "/>
<text text-anchor="middle" x="805" y="-335.3" font-family="Times,serif" font-size="14.00">parent: 0x58f9bd2ec0c0</text>
<polyline fill="none" stroke="#5f5b6a" points="629.5,-327.5 980.5,-327.5 "/>
<text text-anchor="middle" x="714" y="-312.3" font-family="Times,serif" font-size="14.00">left: 0x58f9bd2eb8c0</text>
<polyline fill="none" stroke="#5f5b6a" points="798.5,-304.5 798.5,-327.5 "/>
<text text-anchor="middle" x="889.5" y="-312.3" font-family="Times,serif" font-size="14.00">right: 0x58f9bd2eb920</text>
</g>
<!-- node0x58f9bd2ec0c0&#45;&gt;node0x58f9bd2ec090 -->
<g id="edge11" class="edge">
<title>node0x58f9bd2ec0c0&#45;&gt;node0x58f9bd2ec090</title>
<path fill="none" stroke="#5f5b6a" d="M764.57,-456.29C768.42,-447.42 772.42,-438.19 776.34,-429.14"/>
<polygon fill="#5f5b6a" stroke="#5f5b6a" points="779.63,-430.36 780.39,-419.79 773.2,-427.57 779.63,-430.36"/>
</g>
<!-- node0x58f9bd2eb8c0 -->
<g id="node13" class="node">
<title>node0x58f9bd2eb8c0</title>
<path fill="#8eecf5" stroke="#5f5b6a" d="M524,-152.5C524,-152.5 692,-152.5 692,-152.5 698,-152.5 704,-158.5 704,-164.5 704,-164.5 704,-255.5 704,-255.5 704,-261.5 698,-267.5 692,-267.5 692,-267.5 524,-267.5 524,-267.5 518,-267.5 512,-261.5 512,-255.5 512,-255.5 512,-164.5 512,-164.5 512,-158.5 518,-152.5 524,-152.5"/>
<text text-anchor="middle" x="608" y="-252.3" font-family="Times,serif" font-size="14.00">indx: 0x58f9bd2eb8c0</text>
<polyline fill="none" stroke="#5f5b6a" points="512,-244.5 704,-244.5 "/>
<text text-anchor="middle" x="608" y="-229.3" font-family="Times,serif" font-size="14.00">type: 3</text>
<polyline fill="none" stroke="#5f5b6a" points="512,-221.5 704,-221.5 "/>
<text text-anchor="middle" x="608" y="-206.3" font-family="Times,serif" font-size="14.00">value: 78.00</text>
<polyline fill="none" stroke="#5f5b6a" points="512,-198.5 704,-198.5 "/>
<text text-anchor="middle" x="608" y="-183.3" font-family="Times,serif" font-size="14.00">parent: 0x58f9bd2ec090</text>
<polyline fill="none" stroke="#5f5b6a" points="512,-175.5 704,-175.5 "/>
<text text-anchor="middle" x="557" y="-160.3" font-family="Times,serif" font-size="14.00">left: (nil)</text>
<polyline fill="none" stroke="#5f5b6a" points="602,-152.5 602,-175.5 "/>
<text text-anchor="middle" x="653" y="-160.3" font-family="Times,serif" font-size="14.00">right: (nil)</text>
</g>
<!-- node0x58f9bd2ec090&#45;&gt;node0x58f9bd2eb8c0 -->
<g id="edge12" class="edge">
<title>node0x58f9bd2ec090&#45;&gt;node0x58f9bd2eb8c0</title>
<path fill="none" stroke="#5f5b6a" d="M730.52,-304.29C717.44,-294.33 703.75,-283.91 690.47,-273.79"/>
<polygon fill="#5f5b6a" stroke="#5f5b6a" points="692.33,-270.81 682.26,-267.54 688.09,-276.38 692.33,-270.81"/>
</g>
<!-- node0x58f9bd2eb920 -->
<g id="node14" class="node">
<title>node0x58f9bd2eb920</title>
<path fill="#8eecf5" stroke="#5f5b6a" d="M734,-152.5C734,-152.5 902,-152.5 902,-152.5 908,-152.5 914,-158.5 914,-164.5 914,-164.5 914,-255.5 914,-255.5 914,-261.5 908,-267.5 902,-267.5 902,-267.5 734,-267.5 734,-267.5 728,-267.5 722,-261.5 722,-255.5 722,-255.5 722,-164.5 722,-164.5 722,-158.5 728,-152.5 734,-152.5"/>
<text text-anchor="middle" x="818" y="-252.3" font-family="Times,serif" font-size="14.00">indx: 0x58f9bd2eb920</text>
<polyline fill="none" stroke="#5f5b6a" points="722,-244.5 914,-244.5 "/>
<text text-anchor="middle" x="818" y="-229.3" font-family="Times,serif" font-size="14.00">type: 3</text>
<polyline fill="none" stroke="#5f5b6a" points="722,-221.5 914,-221.5 "/>
<text text-anchor="middle" x="818" y="-206.3" font-family="Times,serif" font-size="14.00">value: 9.00</text>
<polyline fill="none" stroke="#5f5b6a" points="722,-198.5 914,-198.5 "/>
<text text-anchor="middle" x="818" y="-183.3" font-family="Times,serif" font-size="14.00">parent: 0x58f9bd2ec090</text>
<polyline fill="none" stroke="#5f5b6a" points="722,-175.5 914,-175.5 "/>
<text text-anchor="middle" x="767" y="-160.3" font-family="Times,serif" font-size="14.00">left: (nil)</text>
<polyline fill="none" stroke="#5f5b6a" points="812,-152.5 812,-175.5 "/>
<text text-anchor="middle" x="863" y="-160.3" font-family="Times,serif" font-size="14.00">right: (nil)</text>
</g>
<!-- node0x58f9bd2ec090&#45;&gt;node0x58f9bd2eb920 -->
<g id="edge13" class="edge">
<title>node0x58f9bd2ec090&#45;&gt;node0x58f9bd2eb920</title>
<path fill="none" stroke="#5f5b6a" d="M809.91,-304.29C810.66,-295.7 811.43,-286.78 812.19,-278"/>
<polygon fill="#5f5b6a" stroke="#5f5b6a" points="815.7,-278.05 813.08,-267.79 808.73,-277.45 815.7,-278.05"/>
</g>
<!-- node0x58f9bd2ec1e0 -->
<g id="node16" class="node">
<title>node0x58f9bd2ec1e0</title>
<path fill="#f1c0e8" stroke="#5f5b6a" d="M1011.5,-456.5C1011.5,-456.5 1336.5,-456.5 1336.5,-456.5 1342.5,-456.5 1348.5,-462.5 1348.5,-468.5 1348.5,-468.5 1348.5,-559.5 1348.5,-559.5 1348.5,-565.5 1342.5,-571.5 1336.5,-571.5 1336.5,-571.5 1011.5,-571.5 1011.5,-571.5 1005.5,-571.5 999.5,-565.5 999.5,-559.5 999.5,-559.5 999.5,-468.5 999.5,-468.5 999.5,-462.5 1005.5,-456.5 1011.5,-456.5"/>
<text text-anchor="middle" x="1174" y="-556.3" font-family="Times,serif" font-size="14.00">indx: 0x58f9bd2ec1e0</text>
<polyline fill="none" stroke="#5f5b6a" points="999.5,-548.5 1348.5,-548.5 "/>
<text text-anchor="middle" x="1174" y="-533.3" font-family="Times,serif" font-size="14.00">type: 4</text>
<polyline fill="none" stroke="#5f5b6a" points="999.5,-525.5 1348.5,-525.5 "/>
<text text-anchor="middle" x="1174" y="-510.3" font-family="Times,serif" font-size="14.00">value: w</text>
<polyline fill="none" stroke="#5f5b6a" points="999.5,-502.5 1348.5,-502.5 "/>
<text text-anchor="middle" x="1174" y="-487.3" font-family="Times,serif" font-size="14.00">parent: 0x58f9bd2ec210</text>
<polyline fill="none" stroke="#5f5b6a" points="999.5,-479.5 1348.5,-479.5 "/>
<text text-anchor="middle" x="1084" y="-464.3" font-family="Times,serif" font-size="14.00">left: 0x58f9bd2ec150</text>
<polyline fill="none" stroke="#5f5b6a" points="1168.5,-456.5 1168.5,-479.5 "/>
<text text-anchor="middle" x="1258.5" y="-464.3" font-family="Times,serif" font-size="14.00">right: 0x58f9bd2ec1b0</text>
</g>
<!-- node0x58f9bd2ec210&#45;&gt;node0x58f9bd2ec1e0 -->
<g id="edge15" class="edge">
<title>node0x58f9bd2ec210&#45;&gt;node0x58f9bd2ec1e0</title>
<path fill="none" stroke="#5f5b6a" d="M1138.55,-608.29C1141.92,-599.42 1145.43,-590.19 1148.87,-581.14"/>
<polygon fill="#5f5b6a" stroke="#5f5b6a" points="1152.14,-582.38 1152.42,-571.79 1145.6,-579.89 1152.14,-582.38"/>
</g>
<!-- node0x58f9bd2ec150 -->
<g id="node17" class="node">
<title>node0x58f9bd2ec150</title>
<path fill="#cfbaf0" stroke="#5f5b6a" d="M1010.5,-304.5C1010.5,-304.5 1337.5,-304.5 1337.5,-304.5 1343.5,-304.5 1349.5,-310.5 1349.5,-316.5 1349.5,-316.5 1349.5,-407.5 1349.5,-407.5 1349.5,-413.5 1343.5,-419.5 1337.5,-419.5 1337.5,-419.5 1010.5,-419.5 1010.5,-419.5 1004.5,-419.5 998.5,-413.5 998.5,-407.5 998.5,-407.5 998.5,-316.5 998.5,-316.5 998.5,-310.5 1004.5,-304.5 1010.5,-304.5"/>
<text text-anchor="middle" x="1174" y="-404.3" font-family="Times,serif" font-size="14.00">indx: 0x58f9bd2ec150</text>
<polyline fill="none" stroke="#5f5b6a" points="998.5,-396.5 1349.5,-396.5 "/>
<text text-anchor="middle" x="1174" y="-381.3" font-family="Times,serif" font-size="14.00">type: 1</text>
<polyline fill="none" stroke="#5f5b6a" points="998.5,-373.5 1349.5,-373.5 "/>
<text text-anchor="middle" x="1174" y="-358.3" font-family="Times,serif" font-size="14.00">value: &#45;</text>
<polyline fill="none" stroke="#5f5b6a" points="998.5,-350.5 1349.5,-350.5 "/>
<text text-anchor="middle" x="1174" y="-335.3" font-family="Times,serif" font-size="14.00">parent: 0x58f9bd2ec1e0</text>
<polyline fill="none" stroke="#5f5b6a" points="998.5,-327.5 1349.5,-327.5 "/>
<text text-anchor="middle" x="1083.5" y="-312.3" font-family="Times,serif" font-size="14.00">left: 0x58f9bd2eb9e0</text>
<polyline fill="none" stroke="#5f5b6a" points="1168.5,-304.5 1168.5,-327.5 "/>
<text text-anchor="middle" x="1259" y="-312.3" font-family="Times,serif" font-size="14.00">right: 0x58f9bd2eba40</text>
</g>
<!-- node0x58f9bd2ec1e0&#45;&gt;node0x58f9bd2ec150 -->
<g id="edge16" class="edge">
<title>node0x58f9bd2ec1e0&#45;&gt;node0x58f9bd2ec150</title>
<path fill="none" stroke="#5f5b6a" d="M1174,-456.29C1174,-447.7 1174,-438.78 1174,-430"/>
<polygon fill="#5f5b6a" stroke="#5f5b6a" points="1177.5,-429.79 1174,-419.79 1170.5,-429.79 1177.5,-429.79"/>
</g>
<!-- node0x58f9bd2ec1b0 -->
<g id="node20" class="node">
<title>node0x58f9bd2ec1b0</title>
<path fill="#cfbaf0" stroke="#5f5b6a" d="M1379.5,-304.5C1379.5,-304.5 1704.5,-304.5 1704.5,-304.5 1710.5,-304.5 1716.5,-310.5 1716.5,-316.5 1716.5,-316.5 1716.5,-407.5 1716.5,-407.5 1716.5,-413.5 1710.5,-419.5 1704.5,-419.5 1704.5,-419.5 1379.5,-419.5 1379.5,-419.5 1373.5,-419.5 1367.5,-413.5 1367.5,-407.5 1367.5,-407.5 1367.5,-316.5 1367.5,-316.5 1367.5,-310.5 1373.5,-304.5 1379.5,-304.5"/>
<text text-anchor="middle" x="1542" y="-404.3" font-family="Times,serif" font-size="14.00">indx: 0x58f9bd2ec1b0</text>
<polyline fill="none" stroke="#5f5b6a" points="1367.5,-396.5 1716.5,-396.5 "/>
<text text-anchor="middle" x="1542" y="-381.3" font-family="Times,serif" font-size="14.00">type: 1</text>
<polyline fill="none" stroke="#5f5b6a" points="1367.5,-373.5 1716.5,-373.5 "/>
<text text-anchor="middle" x="1542" y="-358.3" font-family="Times,serif" font-size="14.00">value: =</text>
<polyline fill="none" stroke="#5f5b6a" points="1367.5,-350.5 1716.5,-350.5 "/>
<text text-anchor="middle" x="1542" y="-335.3" font-family="Times,serif" font-size="14.00">parent: 0x58f9bd2ec1e0</text>
<polyline fill="none" stroke="#5f5b6a" points="1367.5,-327.5 1716.5,-327.5 "/>
<text text-anchor="middle" x="1452" y="-312.3" font-family="Times,serif" font-size="14.00">left: 0x58f9bd2ebaa0</text>
<polyline fill="none" stroke="#5f5b6a" points="1536.5,-304.5 1536.5,-327.5 "/>
<text text-anchor="middle" x="1626.5" y="-312.3" font-family="Times,serif" font-size="14.00">right: 0x58f9bd2ec180</text>
</g>
<!-- node0x58f9bd2ec1e0&#45;&gt;node0x58f9bd2ec1b0 -->
<g id="edge19" class="edge">
<title>node0x58f9bd2ec1e0&#45;&gt;node0x58f9bd2ec1b0</title>
<path fill="none" stroke="#5f5b6a" d="M1312.86,-456.4C1339.28,-445.63 1367.01,-434.33 1393.71,-423.45"/>
<polygon fill="#5f5b6a" stroke="#5f5b6a" points="1395.16,-426.63 1403.1,-419.62 1392.52,-420.15 1395.16,-426.63"/>
</g>
<!-- node0x58f9bd2eb9e0 -->
<g id="node18" class="node">
<title>node0x58f9bd2eb9e0</title>
<path fill="#8eecf5" stroke="#5f5b6a" d="M997,-152.5C997,-152.5 1165,-152.5 1165,-152.5 1171,-152.5 1177,-158.5 1177,-164.5 1177,-164.5 1177,-255.5 1177,-255.5 1177,-261.5 1171,-267.5 1165,-267.5 1165,-267.5 997,-267.5 997,-267.5 991,-267.5 985,-261.5 985,-255.5 985,-255.5 985,-164.5 985,-164.5 985,-158.5 991,-152.5 997,-152.5"/>
<text text-anchor="middle" x="1081" y="-252.3" font-family="Times,serif" font-size="14.00">indx: 0x58f9bd2eb9e0</text>
<polyline fill="none" stroke="#5f5b6a" points="985,-244.5 1177,-244.5 "/>
<text text-anchor="middle" x="1081" y="-229.3" font-family="Times,serif" font-size="14.00">type: 3</text>
<polyline fill="none" stroke="#5f5b6a" points="985,-221.5 1177,-221.5 "/>
<text text-anchor="middle" x="1081" y="-206.3" font-family="Times,serif" font-size="14.00">value: 3.00</text>
<polyline fill="none" stroke="#5f5b6a" points="985,-198.5 1177,-198.5 "/>
<text text-anchor="middle" x="1081" y="-183.3" font-family="Times,serif" font-size="14.00">parent: 0x58f9bd2ec150</text>
<polyline fill="none" stroke="#5f5b6a" points="985,-175.5 1177,-175.5 "/>
<text text-anchor="middle" x="1030" y="-160.3" font-family="Times,serif" font-size="14.00">left: (nil)</text>
<polyline fill="none" stroke="#5f5b6a" points="1075,-152.5 1075,-175.5 "/>
<text text-anchor="middle" x="1126" y="-160.3" font-family="Times,serif" font-size="14.00">right: (nil)</text>
</g>
<!-- node0x58f9bd2ec150&#45;&gt;node0x58f9bd2eb9e0 -->
<g id="edge17" class="edge">
<title>node0x58f9bd2ec150&#45;&gt;node0x58f9bd2eb9e0</title>
<path fill="none" stroke="#5f5b6a" d="M1138.84,-304.29C1133.23,-295.24 1127.38,-285.81 1121.65,-276.57"/>
<polygon fill="#5f5b6a" stroke="#5f5b6a" points="1124.45,-274.44 1116.21,-267.79 1118.5,-278.13 1124.45,-274.44"/>
</g>
<!-- node0x58f9bd2eba40 -->
<g id="node19" class="node">
<title>node0x58f9bd2eba40</title>
<path fill="#8eecf5" stroke="#5f5b6a" d="M1207,-152.5C1207,-152.5 1375,-152.5 1375,-152.5 1381,-152.5 1387,-158.5 1387,-164.5 1387,-164.5 1387,-255.5 1387,-255.5 1387,-261.5 1381,-267.5 1375,-267.5 1375,-267.5 1207,-267.5 1207,-267.5 1201,-267.5 1195,-261.5 1195,-255.5 1195,-255.5 1195,-164.5 1195,-164.5 1195,-158.5 1201,-152.5 1207,-152.5"/>
<text text-anchor="middle" x="1291" y="-252.3" font-family="Times,serif" font-size="14.00">indx: 0x58f9bd2eba40</text>
<polyline fill="none" stroke="#5f5b6a" points="1195,-244.5 1387,-244.5 "/>
<text text-anchor="middle" x="1291" y="-229.3" font-family="Times,serif" font-size="14.00">type: 3</text>
<polyline fill="none" stroke="#5f5b6a" points="1195,-221.5 1387,-221.5 "/>
<text text-anchor="middle" x="1291" y="-206.3" font-family="Times,serif" font-size="14.00">value: 0.00</text>
<polyline fill="none" stroke="#5f5b6a" points="1195,-198.5 1387,-198.5 "/>
<text text-anchor="middle" x="1291" y="-183.3" font-family="Times,serif" font-size="14.00">parent: 0x58f9bd2ec150</text>
<polyline fill="none" stroke="#5f5b6a" points="1195,-175.5 1387,-175.5 "/>
<text text-anchor="middle" x="1240" y="-160.3" font-family="Times,serif" font-size="14.00">left: (nil)</text>
<polyline fill="none" stroke="#5f5b6a" points="1285,-152.5 1285,-175.5 "/>
<text text-anchor="middle" x="1336" y="-160.3" font-family="Times,serif" font-size="14.00">right: (nil)</text>
</g>
<!-- node0x58f9bd2ec150&#45;&gt;node0x58f9bd2eba40 -->
<g id="edge18" class="edge">
<title>node0x58f9bd2ec150&#45;&gt;node0x58f9bd2eba40</title>
<path fill="none" stroke="#5f5b6a" d="M1218.23,-304.29C1225.51,-294.96 1233.11,-285.22 1240.53,-275.71"/>
<polygon fill="#5f5b6a" stroke="#5f5b6a" points="1243.31,-277.83 1246.7,-267.79 1237.79,-273.52 1243.31,-277.83"/>
</g>
<!-- node0x58f9bd2ebaa0 -->
<g id="node21" class="node">
<title>node0x58f9bd2ebaa0</title>
<path fill="#98f5e1" stroke="#5f5b6a" d="M1444,-152.5C1444,-152.5 1612,-152.5 1612,-152.5 1618,-152.5 1624,-158.5 1624,-164.5 1624,-164.5 1624,-255.5 1624,-255.5 1624,-261.5 1618,-267.5 1612,-267.5 1612,-267.5 1444,-267.5 1444,-267.5 1438,-267.5 1432,-261.5 1432,-255.5 1432,-255.5 1432,-164.5 1432,-164.5 1432,-158.5 1438,-152.5 1444,-152.5"/>
<text text-anchor="middle" x="1528" y="-252.3" font-family="Times,serif" font-size="14.00">indx: 0x58f9bd2ebaa0</text>
<polyline fill="none" stroke="#5f5b6a" points="1432,-244.5 1624,-244.5 "/>
<text text-anchor="middle" x="1528" y="-229.3" font-family="Times,serif" font-size="14.00">type: 2</text>
<polyline fill="none" stroke="#5f5b6a" points="1432,-221.5 1624,-221.5 "/>
<text text-anchor="middle" x="1528" y="-206.3" font-family="Times,serif" font-size="14.00">value: 0</text>
<polyline fill="none" stroke="#5f5b6a" points="1432,-198.5 1624,-198.5 "/>
<text text-anchor="middle" x="1528" y="-183.3" font-family="Times,serif" font-size="14.00">parent: 0x58f9bd2ec1b0</text>
<polyline fill="none" stroke="#5f5b6a" points="1432,-175.5 1624,-175.5 "/>
<text text-anchor="middle" x="1477" y="-160.3" font-family="Times,serif" font-size="14.00">left: (nil)</text>
<polyline fill="none" stroke="#5f5b6a" points="1522,-152.5 1522,-175.5 "/>
<text text-anchor="middle" x="1573" y="-160.3" font-family="Times,serif" font-size="14.00">right: (nil)</text>
</g>
<!-- node0x58f9bd2ec1b0&#45;&gt;node0x58f9bd2ebaa0 -->
<g id="edge20" class="edge">
<title>node0x58f9bd2ec1b0&#45;&gt;node0x58f9bd2ebaa0</title>
<path fill="none" stroke="#5f5b6a" d="M1536.71,-304.29C1535.91,-295.7 1535.07,-286.78 1534.25,-278"/>
<polygon fill="#5f5b6a" stroke="#5f5b6a" points="1537.71,-277.42 1533.3,-267.79 1530.74,-278.07 1537.71,-277.42"/>
</g>
<!-- node0x58f9bd2ec180 -->
<g id="node22" class="node">
<title>node0x58f9bd2ec180</title>
<path fill="#cfbaf0" stroke="#5f5b6a" d="M1654,-152.5C1654,-152.5 1982,-152.5 1982,-152.5 1988,-152.5 1994,-158.5 1994,-164.5 1994,-164.5 1994,-255.5 1994,-255.5 1994,-261.5 1988,-267.5 1982,-267.5 1982,-267.5 1654,-267.5 1654,-267.5 1648,-267.5 1642,-261.5 1642,-255.5 1642,-255.5 1642,-164.5 1642,-164.5 1642,-158.5 1648,-152.5 1654,-152.5"/>
<text text-anchor="middle" x="1818" y="-252.3" font-family="Times,serif" font-size="14.00">indx: 0x58f9bd2ec180</text>
<polyline fill="none" stroke="#5f5b6a" points="1642,-244.5 1994,-244.5 "/>
<text text-anchor="middle" x="1818" y="-229.3" font-family="Times,serif" font-size="14.00">type: 1</text>
<polyline fill="none" stroke="#5f5b6a" points="1642,-221.5 1994,-221.5 "/>
<text text-anchor="middle" x="1818" y="-206.3" font-family="Times,serif" font-size="14.00">value: +</text>
<polyline fill="none" stroke="#5f5b6a" points="1642,-198.5 1994,-198.5 "/>
<text text-anchor="middle" x="1818" y="-183.3" font-family="Times,serif" font-size="14.00">parent: 0x58f9bd2ec1b0</text>
<polyline fill="none" stroke="#5f5b6a" points="1642,-175.5 1994,-175.5 "/>
<text text-anchor="middle" x="1727" y="-160.3" font-family="Times,serif" font-size="14.00">left: 0x58f9bd2ebb00</text>
<polyline fill="none" stroke="#5f5b6a" points="1812,-152.5 1812,-175.5 "/>
<text text-anchor="middle" x="1903" y="-160.3" font-family="Times,serif" font-size="14.00">right: 0x58f9bd2ebb60</text>
</g>
<!-- node0x58f9bd2ec1b0&#45;&gt;node0x58f9bd2ec180 -->
<g id="edge21" class="edge">
<title>node0x58f9bd2ec1b0&#45;&gt;node0x58f9bd2ec180</title>
<path fill="none" stroke="#5f5b6a" d="M1646.34,-304.29C1665.54,-293.86 1685.66,-282.92 1705.09,-272.36"/>
<polygon fill="#5f5b6a" stroke="#5f5b6a" points="1706.85,-275.39 1713.97,-267.54 1703.51,-269.24 1706.85,-275.39"/>
</g>
<!-- node0x58f9bd2ebb00 -->
<g id="node23" class="node">
<title>node0x58f9bd2ebb00</title>
<path fill="#98f5e1" stroke="#5f5b6a" d="M1629,-0.5C1629,-0.5 1797,-0.5 1797,-0.5 1803,-0.5 1809,-6.5 1809,-12.5 1809,-12.5 1809,-103.5 1809,-103.5 1809,-109.5 1803,-115.5 1797,-115.5 1797,-115.5 1629,-115.5 1629,-115.5 1623,-115.5 1617,-109.5 1617,-103.5 1617,-103.5 1617,-12.5 1617,-12.5 1617,-6.5 1623,-0.5 1629,-0.5"/>
<text text-anchor="middle" x="1713" y="-100.3" font-family="Times,serif" font-size="14.00">indx: 0x58f9bd2ebb00</text>
<polyline fill="none" stroke="#5f5b6a" points="1617,-92.5 1809,-92.5 "/>
<text text-anchor="middle" x="1713" y="-77.3" font-family="Times,serif" font-size="14.00">type: 2</text>
<polyline fill="none" stroke="#5f5b6a" points="1617,-69.5 1809,-69.5 "/>
<text text-anchor="middle" x="1713" y="-54.3" font-family="Times,serif" font-size="14.00">value: 0</text>
<polyline fill="none" stroke="#5f5b6a" points="1617,-46.5 1809,-46.5 "/>
<text text-anchor="middle" x="1713" y="-31.3" font-family="Times,serif" font-size="14.00">parent: 0x58f9bd2ec180</text>
<polyline fill="none" stroke="#5f5b6a" points="1617,-23.5 1809,-23.5 "/>
<text text-anchor="middle" x="1662" y="-8.3" font-family="Times,serif" font-size="14.00">left: (nil)</text>
<polyline fill="none" stroke="#5f5b6a" points="1707,-0.5 1707,-23.5 "/>
<text text-anchor="middle" x="1758" y="-8.3" font-family="Times,serif" font-size="14.00">right: (nil)</text>
</g>
<!-- node0x58f9bd2ec180&#45;&gt;node0x58f9bd2ebb00 -->
<g id="edge22" class="edge">
<title>node0x58f9bd2ec180&#45;&gt;node0x58f9bd2ebb00</title>
<path fill="none" stroke="#5f5b6a" d="M1778.3,-152.29C1771.84,-143.05 1765.09,-133.42 1758.5,-124"/>
<polygon fill="#5f5b6a" stroke="#5f5b6a" points="1761.35,-121.97 1752.75,-115.79 1755.62,-125.99 1761.35,-121.97"/>
</g>
<!-- node0x58f9bd2ebb60 -->
<g id="node24" class="node">
<title>node0x58f9bd2ebb60</title>
<path fill="#8eecf5" stroke="#5f5b6a" d="M1839,-0.5C1839,-0.5 2007,-0.5 2007,-0.5 2013,-0.5 2019,-6.5 2019,-12.5 2019,-12.5 2019,-103.5 2019,-103.5 2019,-109.5 2013,-115.5 2007,-115.5 2007,-115.5 1839,-115.5 1839,-115.5 1833,-115.5 1827,-109.5 1827,-103.5 1827,-103.5 1827,-12.5 1827,-12.5 1827,-6.5 1833,-0.5 1839,-0.5"/>
<text text-anchor="middle" x="1923" y="-100.3" font-family="Times,serif" font-size="14.00">indx: 0x58f9bd2ebb60</text>
<polyline fill="none" stroke="#5f5b6a" points="1827,-92.5 2019,-92.5 "/>
<text text-anchor="middle" x="1923" y="-77.3" font-family="Times,serif" font-size="14.00">type: 3</text>
<polyline fill="none" stroke="#5f5b6a" points="1827,-69.5 2019,-69.5 "/>
<text text-anchor="middle" x="1923" y="-54.3" font-family="Times,serif" font-size="14.00">value: 1.00</text>
<polyline fill="none" stroke="#5f5b6a" points="1827,-46.5 2019,-46.5 "/>
<text text-anchor="middle" x="1923" y="-31.3" font-family="Times,serif" font-size="14.00">parent: 0x58f9bd2ec180</text>
<polyline fill="none" stroke="#5f5b6a" points="1827,-23.5 2019,-23.5 "/>
<text text-anchor="middle" x="1872" y="-8.3" font-family="Times,serif" font-size="14.00">left: (nil)</text>
<polyline fill="none" stroke="#5f5b6a" points="1917,-0.5 1917,-23.5 "/>
<text text-anchor="middle" x="1968" y="-8.3" font-family="Times,serif" font-size="14.00">right: (nil)</text>
</g>
<!-- node0x58f9bd2ec180&#45;&gt;node0x58f9bd2ebb60 -->
<g id="edge23" class="edge">
<title>node0x58f9bd2ec180&#45;&gt;node0x58f9bd2ebb60</title>
<path fill="none" stroke="#5f5b6a" d="M1857.7,-152.29C1864.16,-143.05 1870.91,-133.42 1877.5,-124"/>
<polygon fill="#5f5b6a" stroke="#5f5b6a" points="1880.38,-125.99 1883.25,-115.79 1874.65,-121.97 1880.38,-125.99"/>
</g>
</g>
</svg>
