<?xml version="1.0" encoding="UTF-8" standalone="no"?>
<!DOCTYPE svg PUBLIC "-//W3C//DTD SVG 1.1//EN"
 "http://www.w3.org/Graphics/SVG/1.1/DTD/svg11.dtd">
<!-- Generated by graphviz version 2.43.0 (0)
 -->
<!-- Title: Tree Pages: 1 -->
<svg width="1561pt" height="884pt"
 viewBox="0.00 0.00 1560.50 884.00" xmlns="http://www.w3.org/2000/svg" xmlns:xlink="http://www.w3.org/1999/xlink">
<g id="graph0" class="graph" transform="scale(1 1) rotate(0) translate(4 880)">
<title>Tree</title>
<polygon fill="#ffe7a5" stroke="transparent" points="-4,4 -4,-880 1556.5,-880 1556.5,4 -4,4"/>
<!-- node0x56731b568ea0 -->
<g id="node1" class="node">
<title>node0x56731b568ea0</title>
<path fill="#a24892" stroke="#203d98" d="M417.5,-760.5C417.5,-760.5 749.5,-760.5 749.5,-760.5 755.5,-760.5 761.5,-766.5 761.5,-772.5 761.5,-772.5 761.5,-863.5 761.5,-863.5 761.5,-869.5 755.5,-875.5 749.5,-875.5 749.5,-875.5 417.5,-875.5 417.5,-875.5 411.5,-875.5 405.5,-869.5 405.5,-863.5 405.5,-863.5 405.5,-772.5 405.5,-772.5 405.5,-766.5 411.5,-760.5 417.5,-760.5"/>
<text text-anchor="middle" x="583.5" y="-860.3" font-family="Times,serif" font-size="14.00">indx: 0x56731b568ea0</text>
<polyline fill="none" stroke="#203d98" points="405.5,-852.5 761.5,-852.5 "/>
<text text-anchor="middle" x="583.5" y="-837.3" font-family="Times,serif" font-size="14.00">type: 0</text>
<polyline fill="none" stroke="#203d98" points="405.5,-829.5 761.5,-829.5 "/>
<text text-anchor="middle" x="583.5" y="-814.3" font-family="Times,serif" font-size="14.00">value: ;</text>
<polyline fill="none" stroke="#203d98" points="405.5,-806.5 761.5,-806.5 "/>
<text text-anchor="middle" x="583.5" y="-791.3" font-family="Times,serif" font-size="14.00">parent: (nil)</text>
<polyline fill="none" stroke="#203d98" points="405.5,-783.5 761.5,-783.5 "/>
<text text-anchor="middle" x="492.5" y="-768.3" font-family="Times,serif" font-size="14.00">left: 0x56731b568e70</text>
<polyline fill="none" stroke="#203d98" points="579.5,-760.5 579.5,-783.5 "/>
<text text-anchor="middle" x="670.5" y="-768.3" font-family="Times,serif" font-size="14.00">right: 0x56731b568f00</text>
</g>
<!-- node0x56731b568e70 -->
<g id="node2" class="node">
<title>node0x56731b568e70</title>
<path fill="#e07082" stroke="#203d98" d="M227.5,-608.5C227.5,-608.5 563.5,-608.5 563.5,-608.5 569.5,-608.5 575.5,-614.5 575.5,-620.5 575.5,-620.5 575.5,-711.5 575.5,-711.5 575.5,-717.5 569.5,-723.5 563.5,-723.5 563.5,-723.5 227.5,-723.5 227.5,-723.5 221.5,-723.5 215.5,-717.5 215.5,-711.5 215.5,-711.5 215.5,-620.5 215.5,-620.5 215.5,-614.5 221.5,-608.5 227.5,-608.5"/>
<text text-anchor="middle" x="395.5" y="-708.3" font-family="Times,serif" font-size="14.00">indx: 0x56731b568e70</text>
<polyline fill="none" stroke="#203d98" points="215.5,-700.5 575.5,-700.5 "/>
<text text-anchor="middle" x="395.5" y="-685.3" font-family="Times,serif" font-size="14.00">type: 1</text>
<polyline fill="none" stroke="#203d98" points="215.5,-677.5 575.5,-677.5 "/>
<text text-anchor="middle" x="395.5" y="-662.3" font-family="Times,serif" font-size="14.00">value: =</text>
<polyline fill="none" stroke="#203d98" points="215.5,-654.5 575.5,-654.5 "/>
<text text-anchor="middle" x="395.5" y="-639.3" font-family="Times,serif" font-size="14.00">parent: 0x56731b568ea0</text>
<polyline fill="none" stroke="#203d98" points="215.5,-631.5 575.5,-631.5 "/>
<text text-anchor="middle" x="303" y="-616.3" font-family="Times,serif" font-size="14.00">left: 0x56731b568610</text>
<polyline fill="none" stroke="#203d98" points="390.5,-608.5 390.5,-631.5 "/>
<text text-anchor="middle" x="483" y="-616.3" font-family="Times,serif" font-size="14.00">right: 0x56731b568e40</text>
</g>
<!-- node0x56731b568ea0&#45;&gt;node0x56731b568e70 -->
<g id="edge1" class="edge">
<title>node0x56731b568ea0&#45;&gt;node0x56731b568e70</title>
<path fill="none" stroke="#203d98" d="M512.43,-760.29C499.94,-750.33 486.88,-739.91 474.2,-729.79"/>
<polygon fill="#203d98" stroke="#203d98" points="476.36,-727.04 466.36,-723.54 472,-732.51 476.36,-727.04"/>
</g>
<!-- node0x56731b568f00 -->
<g id="node9" class="node">
<title>node0x56731b568f00</title>
<path fill="#a24892" stroke="#203d98" d="M658,-608.5C658,-608.5 989,-608.5 989,-608.5 995,-608.5 1001,-614.5 1001,-620.5 1001,-620.5 1001,-711.5 1001,-711.5 1001,-717.5 995,-723.5 989,-723.5 989,-723.5 658,-723.5 658,-723.5 652,-723.5 646,-717.5 646,-711.5 646,-711.5 646,-620.5 646,-620.5 646,-614.5 652,-608.5 658,-608.5"/>
<text text-anchor="middle" x="823.5" y="-708.3" font-family="Times,serif" font-size="14.00">indx: 0x56731b568f00</text>
<polyline fill="none" stroke="#203d98" points="646,-700.5 1001,-700.5 "/>
<text text-anchor="middle" x="823.5" y="-685.3" font-family="Times,serif" font-size="14.00">type: 0</text>
<polyline fill="none" stroke="#203d98" points="646,-677.5 1001,-677.5 "/>
<text text-anchor="middle" x="823.5" y="-662.3" font-family="Times,serif" font-size="14.00">value: ;</text>
<polyline fill="none" stroke="#203d98" points="646,-654.5 1001,-654.5 "/>
<text text-anchor="middle" x="823.5" y="-639.3" font-family="Times,serif" font-size="14.00">parent: (nil)</text>
<polyline fill="none" stroke="#203d98" points="646,-631.5 1001,-631.5 "/>
<text text-anchor="middle" x="733" y="-616.3" font-family="Times,serif" font-size="14.00">left: 0x56731b568ed0</text>
<polyline fill="none" stroke="#203d98" points="820,-608.5 820,-631.5 "/>
<text text-anchor="middle" x="910.5" y="-616.3" font-family="Times,serif" font-size="14.00">right: 0x56731b568fc0</text>
</g>
<!-- node0x56731b568ea0&#45;&gt;node0x56731b568f00 -->
<g id="edge8" class="edge">
<title>node0x56731b568ea0&#45;&gt;node0x56731b568f00</title>
<path fill="none" stroke="#203d98" d="M674.23,-760.29C690.62,-750.05 707.79,-739.32 724.41,-728.93"/>
<polygon fill="#203d98" stroke="#203d98" points="726.41,-731.81 733.04,-723.54 722.7,-725.87 726.41,-731.81"/>
</g>
<!-- node0x56731b568610 -->
<g id="node3" class="node">
<title>node0x56731b568610</title>
<path fill="#a24892" stroke="#203d98" d="M12,-456.5C12,-456.5 185,-456.5 185,-456.5 191,-456.5 197,-462.5 197,-468.5 197,-468.5 197,-559.5 197,-559.5 197,-565.5 191,-571.5 185,-571.5 185,-571.5 12,-571.5 12,-571.5 6,-571.5 0,-565.5 0,-559.5 0,-559.5 0,-468.5 0,-468.5 0,-462.5 6,-456.5 12,-456.5"/>
<text text-anchor="middle" x="98.5" y="-556.3" font-family="Times,serif" font-size="14.00">indx: 0x56731b568610</text>
<polyline fill="none" stroke="#203d98" points="0,-548.5 197,-548.5 "/>
<text text-anchor="middle" x="98.5" y="-533.3" font-family="Times,serif" font-size="14.00">type: 2</text>
<polyline fill="none" stroke="#203d98" points="0,-525.5 197,-525.5 "/>
<text text-anchor="middle" x="98.5" y="-510.3" font-family="Times,serif" font-size="14.00">value: x</text>
<polyline fill="none" stroke="#203d98" points="0,-502.5 197,-502.5 "/>
<text text-anchor="middle" x="98.5" y="-487.3" font-family="Times,serif" font-size="14.00">parent: 0x56731b568e70</text>
<polyline fill="none" stroke="#203d98" points="0,-479.5 197,-479.5 "/>
<text text-anchor="middle" x="46.5" y="-464.3" font-family="Times,serif" font-size="14.00">left: (nil)</text>
<polyline fill="none" stroke="#203d98" points="93,-456.5 93,-479.5 "/>
<text text-anchor="middle" x="145" y="-464.3" font-family="Times,serif" font-size="14.00">right: (nil)</text>
</g>
<!-- node0x56731b568e70&#45;&gt;node0x56731b568610 -->
<g id="edge2" class="edge">
<title>node0x56731b568e70&#45;&gt;node0x56731b568610</title>
<path fill="none" stroke="#203d98" d="M279.3,-608.46C255.17,-596.55 229.96,-583.96 206.5,-572 206.4,-571.95 206.31,-571.9 206.21,-571.85"/>
<polygon fill="#203d98" stroke="#203d98" points="207.52,-568.59 197.03,-567.15 204.33,-574.82 207.52,-568.59"/>
</g>
<!-- node0x56731b568e40 -->
<g id="node4" class="node">
<title>node0x56731b568e40</title>
<path fill="#e07082" stroke="#203d98" d="M227.5,-456.5C227.5,-456.5 563.5,-456.5 563.5,-456.5 569.5,-456.5 575.5,-462.5 575.5,-468.5 575.5,-468.5 575.5,-559.5 575.5,-559.5 575.5,-565.5 569.5,-571.5 563.5,-571.5 563.5,-571.5 227.5,-571.5 227.5,-571.5 221.5,-571.5 215.5,-565.5 215.5,-559.5 215.5,-559.5 215.5,-468.5 215.5,-468.5 215.5,-462.5 221.5,-456.5 227.5,-456.5"/>
<text text-anchor="middle" x="395.5" y="-556.3" font-family="Times,serif" font-size="14.00">indx: 0x56731b568e40</text>
<polyline fill="none" stroke="#203d98" points="215.5,-548.5 575.5,-548.5 "/>
<text text-anchor="middle" x="395.5" y="-533.3" font-family="Times,serif" font-size="14.00">type: 1</text>
<polyline fill="none" stroke="#203d98" points="215.5,-525.5 575.5,-525.5 "/>
<text text-anchor="middle" x="395.5" y="-510.3" font-family="Times,serif" font-size="14.00">value: +</text>
<polyline fill="none" stroke="#203d98" points="215.5,-502.5 575.5,-502.5 "/>
<text text-anchor="middle" x="395.5" y="-487.3" font-family="Times,serif" font-size="14.00">parent: 0x56731b568e70</text>
<polyline fill="none" stroke="#203d98" points="215.5,-479.5 575.5,-479.5 "/>
<text text-anchor="middle" x="303" y="-464.3" font-family="Times,serif" font-size="14.00">left: 0x56731b568670</text>
<polyline fill="none" stroke="#203d98" points="390.5,-456.5 390.5,-479.5 "/>
<text text-anchor="middle" x="483" y="-464.3" font-family="Times,serif" font-size="14.00">right: 0x56731b568e10</text>
</g>
<!-- node0x56731b568e70&#45;&gt;node0x56731b568e40 -->
<g id="edge3" class="edge">
<title>node0x56731b568e70&#45;&gt;node0x56731b568e40</title>
<path fill="none" stroke="#203d98" d="M395.5,-608.29C395.5,-599.7 395.5,-590.78 395.5,-582"/>
<polygon fill="#203d98" stroke="#203d98" points="399,-581.79 395.5,-571.79 392,-581.79 399,-581.79"/>
</g>
<!-- node0x56731b568670 -->
<g id="node5" class="node">
<title>node0x56731b568670</title>
<path fill="#faaa82" stroke="#203d98" d="M12,-304.5C12,-304.5 185,-304.5 185,-304.5 191,-304.5 197,-310.5 197,-316.5 197,-316.5 197,-407.5 197,-407.5 197,-413.5 191,-419.5 185,-419.5 185,-419.5 12,-419.5 12,-419.5 6,-419.5 0,-413.5 0,-407.5 0,-407.5 0,-316.5 0,-316.5 0,-310.5 6,-304.5 12,-304.5"/>
<text text-anchor="middle" x="98.5" y="-404.3" font-family="Times,serif" font-size="14.00">indx: 0x56731b568670</text>
<polyline fill="none" stroke="#203d98" points="0,-396.5 197,-396.5 "/>
<text text-anchor="middle" x="98.5" y="-381.3" font-family="Times,serif" font-size="14.00">type: 3</text>
<polyline fill="none" stroke="#203d98" points="0,-373.5 197,-373.5 "/>
<text text-anchor="middle" x="98.5" y="-358.3" font-family="Times,serif" font-size="14.00">value: 7.00</text>
<polyline fill="none" stroke="#203d98" points="0,-350.5 197,-350.5 "/>
<text text-anchor="middle" x="98.5" y="-335.3" font-family="Times,serif" font-size="14.00">parent: 0x56731b568e40</text>
<polyline fill="none" stroke="#203d98" points="0,-327.5 197,-327.5 "/>
<text text-anchor="middle" x="46.5" y="-312.3" font-family="Times,serif" font-size="14.00">left: (nil)</text>
<polyline fill="none" stroke="#203d98" points="93,-304.5 93,-327.5 "/>
<text text-anchor="middle" x="145" y="-312.3" font-family="Times,serif" font-size="14.00">right: (nil)</text>
</g>
<!-- node0x56731b568e40&#45;&gt;node0x56731b568670 -->
<g id="edge4" class="edge">
<title>node0x56731b568e40&#45;&gt;node0x56731b568670</title>
<path fill="none" stroke="#203d98" d="M278.37,-456.45C256.56,-445.72 233.88,-434.44 206.36,-420.42"/>
<polygon fill="#203d98" stroke="#203d98" points="207.75,-417.2 197.25,-415.77 204.57,-423.43 207.75,-417.2"/>
</g>
<!-- node0x56731b568e10 -->
<g id="node6" class="node">
<title>node0x56731b568e10</title>
<path fill="#e07082" stroke="#203d98" d="M227,-304.5C227,-304.5 564,-304.5 564,-304.5 570,-304.5 576,-310.5 576,-316.5 576,-316.5 576,-407.5 576,-407.5 576,-413.5 570,-419.5 564,-419.5 564,-419.5 227,-419.5 227,-419.5 221,-419.5 215,-413.5 215,-407.5 215,-407.5 215,-316.5 215,-316.5 215,-310.5 221,-304.5 227,-304.5"/>
<text text-anchor="middle" x="395.5" y="-404.3" font-family="Times,serif" font-size="14.00">indx: 0x56731b568e10</text>
<polyline fill="none" stroke="#203d98" points="215,-396.5 576,-396.5 "/>
<text text-anchor="middle" x="395.5" y="-381.3" font-family="Times,serif" font-size="14.00">type: 1</text>
<polyline fill="none" stroke="#203d98" points="215,-373.5 576,-373.5 "/>
<text text-anchor="middle" x="395.5" y="-358.3" font-family="Times,serif" font-size="14.00">value: *</text>
<polyline fill="none" stroke="#203d98" points="215,-350.5 576,-350.5 "/>
<text text-anchor="middle" x="395.5" y="-335.3" font-family="Times,serif" font-size="14.00">parent: 0x56731b568e40</text>
<polyline fill="none" stroke="#203d98" points="215,-327.5 576,-327.5 "/>
<text text-anchor="middle" x="302.5" y="-312.3" font-family="Times,serif" font-size="14.00">left: 0x56731b5686d0</text>
<polyline fill="none" stroke="#203d98" points="390,-304.5 390,-327.5 "/>
<text text-anchor="middle" x="483" y="-312.3" font-family="Times,serif" font-size="14.00">right: 0x56731b568730</text>
</g>
<!-- node0x56731b568e40&#45;&gt;node0x56731b568e10 -->
<g id="edge5" class="edge">
<title>node0x56731b568e40&#45;&gt;node0x56731b568e10</title>
<path fill="none" stroke="#203d98" d="M395.5,-456.29C395.5,-447.7 395.5,-438.78 395.5,-430"/>
<polygon fill="#203d98" stroke="#203d98" points="399,-429.79 395.5,-419.79 392,-429.79 399,-429.79"/>
</g>
<!-- node0x56731b5686d0 -->
<g id="node7" class="node">
<title>node0x56731b5686d0</title>
<path fill="#faaa82" stroke="#203d98" d="M201,-152.5C201,-152.5 374,-152.5 374,-152.5 380,-152.5 386,-158.5 386,-164.5 386,-164.5 386,-255.5 386,-255.5 386,-261.5 380,-267.5 374,-267.5 374,-267.5 201,-267.5 201,-267.5 195,-267.5 189,-261.5 189,-255.5 189,-255.5 189,-164.5 189,-164.5 189,-158.5 195,-152.5 201,-152.5"/>
<text text-anchor="middle" x="287.5" y="-252.3" font-family="Times,serif" font-size="14.00">indx: 0x56731b5686d0</text>
<polyline fill="none" stroke="#203d98" points="189,-244.5 386,-244.5 "/>
<text text-anchor="middle" x="287.5" y="-229.3" font-family="Times,serif" font-size="14.00">type: 3</text>
<polyline fill="none" stroke="#203d98" points="189,-221.5 386,-221.5 "/>
<text text-anchor="middle" x="287.5" y="-206.3" font-family="Times,serif" font-size="14.00">value: 5.00</text>
<polyline fill="none" stroke="#203d98" points="189,-198.5 386,-198.5 "/>
<text text-anchor="middle" x="287.5" y="-183.3" font-family="Times,serif" font-size="14.00">parent: 0x56731b568e10</text>
<polyline fill="none" stroke="#203d98" points="189,-175.5 386,-175.5 "/>
<text text-anchor="middle" x="235.5" y="-160.3" font-family="Times,serif" font-size="14.00">left: (nil)</text>
<polyline fill="none" stroke="#203d98" points="282,-152.5 282,-175.5 "/>
<text text-anchor="middle" x="334" y="-160.3" font-family="Times,serif" font-size="14.00">right: (nil)</text>
</g>
<!-- node0x56731b568e10&#45;&gt;node0x56731b5686d0 -->
<g id="edge6" class="edge">
<title>node0x56731b568e10&#45;&gt;node0x56731b5686d0</title>
<path fill="none" stroke="#203d98" d="M354.67,-304.29C348.02,-295.05 341.08,-285.42 334.3,-276"/>
<polygon fill="#203d98" stroke="#203d98" points="337.07,-273.86 328.39,-267.79 331.39,-277.95 337.07,-273.86"/>
</g>
<!-- node0x56731b568730 -->
<g id="node8" class="node">
<title>node0x56731b568730</title>
<path fill="#a24892" stroke="#203d98" d="M416,-152.5C416,-152.5 589,-152.5 589,-152.5 595,-152.5 601,-158.5 601,-164.5 601,-164.5 601,-255.5 601,-255.5 601,-261.5 595,-267.5 589,-267.5 589,-267.5 416,-267.5 416,-267.5 410,-267.5 404,-261.5 404,-255.5 404,-255.5 404,-164.5 404,-164.5 404,-158.5 410,-152.5 416,-152.5"/>
<text text-anchor="middle" x="502.5" y="-252.3" font-family="Times,serif" font-size="14.00">indx: 0x56731b568730</text>
<polyline fill="none" stroke="#203d98" points="404,-244.5 601,-244.5 "/>
<text text-anchor="middle" x="502.5" y="-229.3" font-family="Times,serif" font-size="14.00">type: 2</text>
<polyline fill="none" stroke="#203d98" points="404,-221.5 601,-221.5 "/>
<text text-anchor="middle" x="502.5" y="-206.3" font-family="Times,serif" font-size="14.00">value: x</text>
<polyline fill="none" stroke="#203d98" points="404,-198.5 601,-198.5 "/>
<text text-anchor="middle" x="502.5" y="-183.3" font-family="Times,serif" font-size="14.00">parent: 0x56731b568e10</text>
<polyline fill="none" stroke="#203d98" points="404,-175.5 601,-175.5 "/>
<text text-anchor="middle" x="450.5" y="-160.3" font-family="Times,serif" font-size="14.00">left: (nil)</text>
<polyline fill="none" stroke="#203d98" points="497,-152.5 497,-175.5 "/>
<text text-anchor="middle" x="549" y="-160.3" font-family="Times,serif" font-size="14.00">right: (nil)</text>
</g>
<!-- node0x56731b568e10&#45;&gt;node0x56731b568730 -->
<g id="edge7" class="edge">
<title>node0x56731b568e10&#45;&gt;node0x56731b568730</title>
<path fill="none" stroke="#203d98" d="M435.95,-304.29C442.54,-295.05 449.42,-285.42 456.14,-276"/>
<polygon fill="#203d98" stroke="#203d98" points="459.03,-277.96 461.99,-267.79 453.33,-273.9 459.03,-277.96"/>
</g>
<!-- node0x56731b568ed0 -->
<g id="node10" class="node">
<title>node0x56731b568ed0</title>
<path fill="#e07082" stroke="#203d98" d="M657,-456.5C657,-456.5 990,-456.5 990,-456.5 996,-456.5 1002,-462.5 1002,-468.5 1002,-468.5 1002,-559.5 1002,-559.5 1002,-565.5 996,-571.5 990,-571.5 990,-571.5 657,-571.5 657,-571.5 651,-571.5 645,-565.5 645,-559.5 645,-559.5 645,-468.5 645,-468.5 645,-462.5 651,-456.5 657,-456.5"/>
<text text-anchor="middle" x="823.5" y="-556.3" font-family="Times,serif" font-size="14.00">indx: 0x56731b568ed0</text>
<polyline fill="none" stroke="#203d98" points="645,-548.5 1002,-548.5 "/>
<text text-anchor="middle" x="823.5" y="-533.3" font-family="Times,serif" font-size="14.00">type: 1</text>
<polyline fill="none" stroke="#203d98" points="645,-525.5 1002,-525.5 "/>
<text text-anchor="middle" x="823.5" y="-510.3" font-family="Times,serif" font-size="14.00">value: +</text>
<polyline fill="none" stroke="#203d98" points="645,-502.5 1002,-502.5 "/>
<text text-anchor="middle" x="823.5" y="-487.3" font-family="Times,serif" font-size="14.00">parent: 0x56731b568f00</text>
<polyline fill="none" stroke="#203d98" points="645,-479.5 1002,-479.5 "/>
<text text-anchor="middle" x="732.5" y="-464.3" font-family="Times,serif" font-size="14.00">left: 0x56731b568790</text>
<polyline fill="none" stroke="#203d98" points="820,-456.5 820,-479.5 "/>
<text text-anchor="middle" x="911" y="-464.3" font-family="Times,serif" font-size="14.00">right: 0x56731b5687f0</text>
</g>
<!-- node0x56731b568f00&#45;&gt;node0x56731b568ed0 -->
<g id="edge9" class="edge">
<title>node0x56731b568f00&#45;&gt;node0x56731b568ed0</title>
<path fill="none" stroke="#203d98" d="M823.5,-608.29C823.5,-599.7 823.5,-590.78 823.5,-582"/>
<polygon fill="#203d98" stroke="#203d98" points="827,-581.79 823.5,-571.79 820,-581.79 827,-581.79"/>
</g>
<!-- node0x56731b568fc0 -->
<g id="node13" class="node">
<title>node0x56731b568fc0</title>
<path fill="#a24892" stroke="#203d98" d="M1058.5,-456.5C1058.5,-456.5 1294.5,-456.5 1294.5,-456.5 1300.5,-456.5 1306.5,-462.5 1306.5,-468.5 1306.5,-468.5 1306.5,-559.5 1306.5,-559.5 1306.5,-565.5 1300.5,-571.5 1294.5,-571.5 1294.5,-571.5 1058.5,-571.5 1058.5,-571.5 1052.5,-571.5 1046.5,-565.5 1046.5,-559.5 1046.5,-559.5 1046.5,-468.5 1046.5,-468.5 1046.5,-462.5 1052.5,-456.5 1058.5,-456.5"/>
<text text-anchor="middle" x="1176.5" y="-556.3" font-family="Times,serif" font-size="14.00">indx: 0x56731b568fc0</text>
<polyline fill="none" stroke="#203d98" points="1046.5,-548.5 1306.5,-548.5 "/>
<text text-anchor="middle" x="1176.5" y="-533.3" font-family="Times,serif" font-size="14.00">type: 0</text>
<polyline fill="none" stroke="#203d98" points="1046.5,-525.5 1306.5,-525.5 "/>
<text text-anchor="middle" x="1176.5" y="-510.3" font-family="Times,serif" font-size="14.00">value: ;</text>
<polyline fill="none" stroke="#203d98" points="1046.5,-502.5 1306.5,-502.5 "/>
<text text-anchor="middle" x="1176.5" y="-487.3" font-family="Times,serif" font-size="14.00">parent: (nil)</text>
<polyline fill="none" stroke="#203d98" points="1046.5,-479.5 1306.5,-479.5 "/>
<text text-anchor="middle" x="1132" y="-464.3" font-family="Times,serif" font-size="14.00">left: 0x56731b568f90</text>
<polyline fill="none" stroke="#203d98" points="1217.5,-456.5 1217.5,-479.5 "/>
<text text-anchor="middle" x="1262" y="-464.3" font-family="Times,serif" font-size="14.00">right: (nil)</text>
</g>
<!-- node0x56731b568f00&#45;&gt;node0x56731b568fc0 -->
<g id="edge12" class="edge">
<title>node0x56731b568f00&#45;&gt;node0x56731b568fc0</title>
<path fill="none" stroke="#203d98" d="M956.7,-608.4C983,-597.22 1010.67,-585.47 1037.16,-574.21"/>
<polygon fill="#203d98" stroke="#203d98" points="1038.64,-577.38 1046.48,-570.25 1035.91,-570.94 1038.64,-577.38"/>
</g>
<!-- node0x56731b568790 -->
<g id="node11" class="node">
<title>node0x56731b568790</title>
<path fill="#faaa82" stroke="#203d98" d="M606,-304.5C606,-304.5 779,-304.5 779,-304.5 785,-304.5 791,-310.5 791,-316.5 791,-316.5 791,-407.5 791,-407.5 791,-413.5 785,-419.5 779,-419.5 779,-419.5 606,-419.5 606,-419.5 600,-419.5 594,-413.5 594,-407.5 594,-407.5 594,-316.5 594,-316.5 594,-310.5 600,-304.5 606,-304.5"/>
<text text-anchor="middle" x="692.5" y="-404.3" font-family="Times,serif" font-size="14.00">indx: 0x56731b568790</text>
<polyline fill="none" stroke="#203d98" points="594,-396.5 791,-396.5 "/>
<text text-anchor="middle" x="692.5" y="-381.3" font-family="Times,serif" font-size="14.00">type: 3</text>
<polyline fill="none" stroke="#203d98" points="594,-373.5 791,-373.5 "/>
<text text-anchor="middle" x="692.5" y="-358.3" font-family="Times,serif" font-size="14.00">value: 6.00</text>
<polyline fill="none" stroke="#203d98" points="594,-350.5 791,-350.5 "/>
<text text-anchor="middle" x="692.5" y="-335.3" font-family="Times,serif" font-size="14.00">parent: 0x56731b568ed0</text>
<polyline fill="none" stroke="#203d98" points="594,-327.5 791,-327.5 "/>
<text text-anchor="middle" x="640.5" y="-312.3" font-family="Times,serif" font-size="14.00">left: (nil)</text>
<polyline fill="none" stroke="#203d98" points="687,-304.5 687,-327.5 "/>
<text text-anchor="middle" x="739" y="-312.3" font-family="Times,serif" font-size="14.00">right: (nil)</text>
</g>
<!-- node0x56731b568ed0&#45;&gt;node0x56731b568790 -->
<g id="edge10" class="edge">
<title>node0x56731b568ed0&#45;&gt;node0x56731b568790</title>
<path fill="none" stroke="#203d98" d="M773.97,-456.29C765.74,-446.86 757.15,-437.03 748.77,-427.43"/>
<polygon fill="#203d98" stroke="#203d98" points="751.31,-425.02 742.1,-419.79 746.04,-429.62 751.31,-425.02"/>
</g>
<!-- node0x56731b5687f0 -->
<g id="node12" class="node">
<title>node0x56731b5687f0</title>
<path fill="#faaa82" stroke="#203d98" d="M821,-304.5C821,-304.5 994,-304.5 994,-304.5 1000,-304.5 1006,-310.5 1006,-316.5 1006,-316.5 1006,-407.5 1006,-407.5 1006,-413.5 1000,-419.5 994,-419.5 994,-419.5 821,-419.5 821,-419.5 815,-419.5 809,-413.5 809,-407.5 809,-407.5 809,-316.5 809,-316.5 809,-310.5 815,-304.5 821,-304.5"/>
<text text-anchor="middle" x="907.5" y="-404.3" font-family="Times,serif" font-size="14.00">indx: 0x56731b5687f0</text>
<polyline fill="none" stroke="#203d98" points="809,-396.5 1006,-396.5 "/>
<text text-anchor="middle" x="907.5" y="-381.3" font-family="Times,serif" font-size="14.00">type: 3</text>
<polyline fill="none" stroke="#203d98" points="809,-373.5 1006,-373.5 "/>
<text text-anchor="middle" x="907.5" y="-358.3" font-family="Times,serif" font-size="14.00">value: 7.00</text>
<polyline fill="none" stroke="#203d98" points="809,-350.5 1006,-350.5 "/>
<text text-anchor="middle" x="907.5" y="-335.3" font-family="Times,serif" font-size="14.00">parent: 0x56731b568ed0</text>
<polyline fill="none" stroke="#203d98" points="809,-327.5 1006,-327.5 "/>
<text text-anchor="middle" x="855.5" y="-312.3" font-family="Times,serif" font-size="14.00">left: (nil)</text>
<polyline fill="none" stroke="#203d98" points="902,-304.5 902,-327.5 "/>
<text text-anchor="middle" x="954" y="-312.3" font-family="Times,serif" font-size="14.00">right: (nil)</text>
</g>
<!-- node0x56731b568ed0&#45;&gt;node0x56731b5687f0 -->
<g id="edge11" class="edge">
<title>node0x56731b568ed0&#45;&gt;node0x56731b5687f0</title>
<path fill="none" stroke="#203d98" d="M855.26,-456.29C860.33,-447.24 865.61,-437.81 870.78,-428.57"/>
<polygon fill="#203d98" stroke="#203d98" points="873.87,-430.22 875.7,-419.79 867.76,-426.8 873.87,-430.22"/>
</g>
<!-- node0x56731b568f90 -->
<g id="node14" class="node">
<title>node0x56731b568f90</title>
<path fill="#e07082" stroke="#203d98" d="M1036,-304.5C1036,-304.5 1369,-304.5 1369,-304.5 1375,-304.5 1381,-310.5 1381,-316.5 1381,-316.5 1381,-407.5 1381,-407.5 1381,-413.5 1375,-419.5 1369,-419.5 1369,-419.5 1036,-419.5 1036,-419.5 1030,-419.5 1024,-413.5 1024,-407.5 1024,-407.5 1024,-316.5 1024,-316.5 1024,-310.5 1030,-304.5 1036,-304.5"/>
<text text-anchor="middle" x="1202.5" y="-404.3" font-family="Times,serif" font-size="14.00">indx: 0x56731b568f90</text>
<polyline fill="none" stroke="#203d98" points="1024,-396.5 1381,-396.5 "/>
<text text-anchor="middle" x="1202.5" y="-381.3" font-family="Times,serif" font-size="14.00">type: 1</text>
<polyline fill="none" stroke="#203d98" points="1024,-373.5 1381,-373.5 "/>
<text text-anchor="middle" x="1202.5" y="-358.3" font-family="Times,serif" font-size="14.00">value: =</text>
<polyline fill="none" stroke="#203d98" points="1024,-350.5 1381,-350.5 "/>
<text text-anchor="middle" x="1202.5" y="-335.3" font-family="Times,serif" font-size="14.00">parent: 0x56731b568fc0</text>
<polyline fill="none" stroke="#203d98" points="1024,-327.5 1381,-327.5 "/>
<text text-anchor="middle" x="1111.5" y="-312.3" font-family="Times,serif" font-size="14.00">left: 0x56731b568850</text>
<polyline fill="none" stroke="#203d98" points="1199,-304.5 1199,-327.5 "/>
<text text-anchor="middle" x="1290" y="-312.3" font-family="Times,serif" font-size="14.00">right: 0x56731b568f60</text>
</g>
<!-- node0x56731b568fc0&#45;&gt;node0x56731b568f90 -->
<g id="edge13" class="edge">
<title>node0x56731b568fc0&#45;&gt;node0x56731b568f90</title>
<path fill="none" stroke="#203d98" d="M1186.33,-456.29C1187.83,-447.61 1189.4,-438.58 1190.94,-429.71"/>
<polygon fill="#203d98" stroke="#203d98" points="1194.4,-430.24 1192.66,-419.79 1187.5,-429.04 1194.4,-430.24"/>
</g>
<!-- node0x56731b568850 -->
<g id="node15" class="node">
<title>node0x56731b568850</title>
<path fill="#a24892" stroke="#203d98" d="M970.5,-152.5C970.5,-152.5 1140.5,-152.5 1140.5,-152.5 1146.5,-152.5 1152.5,-158.5 1152.5,-164.5 1152.5,-164.5 1152.5,-255.5 1152.5,-255.5 1152.5,-261.5 1146.5,-267.5 1140.5,-267.5 1140.5,-267.5 970.5,-267.5 970.5,-267.5 964.5,-267.5 958.5,-261.5 958.5,-255.5 958.5,-255.5 958.5,-164.5 958.5,-164.5 958.5,-158.5 964.5,-152.5 970.5,-152.5"/>
<text text-anchor="middle" x="1055.5" y="-252.3" font-family="Times,serif" font-size="14.00">indx: 0x56731b568850</text>
<polyline fill="none" stroke="#203d98" points="958.5,-244.5 1152.5,-244.5 "/>
<text text-anchor="middle" x="1055.5" y="-229.3" font-family="Times,serif" font-size="14.00">type: 2</text>
<polyline fill="none" stroke="#203d98" points="958.5,-221.5 1152.5,-221.5 "/>
<text text-anchor="middle" x="1055.5" y="-206.3" font-family="Times,serif" font-size="14.00">value: x</text>
<polyline fill="none" stroke="#203d98" points="958.5,-198.5 1152.5,-198.5 "/>
<text text-anchor="middle" x="1055.5" y="-183.3" font-family="Times,serif" font-size="14.00">parent: 0x56731b568f90</text>
<polyline fill="none" stroke="#203d98" points="958.5,-175.5 1152.5,-175.5 "/>
<text text-anchor="middle" x="1004" y="-160.3" font-family="Times,serif" font-size="14.00">left: (nil)</text>
<polyline fill="none" stroke="#203d98" points="1049.5,-152.5 1049.5,-175.5 "/>
<text text-anchor="middle" x="1101" y="-160.3" font-family="Times,serif" font-size="14.00">right: (nil)</text>
</g>
<!-- node0x56731b568f90&#45;&gt;node0x56731b568850 -->
<g id="edge14" class="edge">
<title>node0x56731b568f90&#45;&gt;node0x56731b568850</title>
<path fill="none" stroke="#203d98" d="M1146.93,-304.29C1137.6,-294.77 1127.86,-284.83 1118.36,-275.14"/>
<polygon fill="#203d98" stroke="#203d98" points="1120.65,-272.48 1111.15,-267.79 1115.65,-277.38 1120.65,-272.48"/>
</g>
<!-- node0x56731b568f60 -->
<g id="node16" class="node">
<title>node0x56731b568f60</title>
<path fill="#e07082" stroke="#203d98" d="M1183,-152.5C1183,-152.5 1516,-152.5 1516,-152.5 1522,-152.5 1528,-158.5 1528,-164.5 1528,-164.5 1528,-255.5 1528,-255.5 1528,-261.5 1522,-267.5 1516,-267.5 1516,-267.5 1183,-267.5 1183,-267.5 1177,-267.5 1171,-261.5 1171,-255.5 1171,-255.5 1171,-164.5 1171,-164.5 1171,-158.5 1177,-152.5 1183,-152.5"/>
<text text-anchor="middle" x="1349.5" y="-252.3" font-family="Times,serif" font-size="14.00">indx: 0x56731b568f60</text>
<polyline fill="none" stroke="#203d98" points="1171,-244.5 1528,-244.5 "/>
<text text-anchor="middle" x="1349.5" y="-229.3" font-family="Times,serif" font-size="14.00">type: 1</text>
<polyline fill="none" stroke="#203d98" points="1171,-221.5 1528,-221.5 "/>
<text text-anchor="middle" x="1349.5" y="-206.3" font-family="Times,serif" font-size="14.00">value: c</text>
<polyline fill="none" stroke="#203d98" points="1171,-198.5 1528,-198.5 "/>
<text text-anchor="middle" x="1349.5" y="-183.3" font-family="Times,serif" font-size="14.00">parent: 0x56731b568f90</text>
<polyline fill="none" stroke="#203d98" points="1171,-175.5 1528,-175.5 "/>
<text text-anchor="middle" x="1258.5" y="-160.3" font-family="Times,serif" font-size="14.00">left: 0x56731b568940</text>
<polyline fill="none" stroke="#203d98" points="1346,-152.5 1346,-175.5 "/>
<text text-anchor="middle" x="1437" y="-160.3" font-family="Times,serif" font-size="14.00">right: 0x56731b568f30</text>
</g>
<!-- node0x56731b568f90&#45;&gt;node0x56731b568f60 -->
<g id="edge15" class="edge">
<title>node0x56731b568f90&#45;&gt;node0x56731b568f60</title>
<path fill="none" stroke="#203d98" d="M1258.07,-304.29C1267.4,-294.77 1277.14,-284.83 1286.64,-275.14"/>
<polygon fill="#203d98" stroke="#203d98" points="1289.35,-277.38 1293.85,-267.79 1284.35,-272.48 1289.35,-277.38"/>
</g>
<!-- node0x56731b568940 -->
<g id="node17" class="node">
<title>node0x56731b568940</title>
<path fill="#faaa82" stroke="#203d98" d="M1158.5,-0.5C1158.5,-0.5 1328.5,-0.5 1328.5,-0.5 1334.5,-0.5 1340.5,-6.5 1340.5,-12.5 1340.5,-12.5 1340.5,-103.5 1340.5,-103.5 1340.5,-109.5 1334.5,-115.5 1328.5,-115.5 1328.5,-115.5 1158.5,-115.5 1158.5,-115.5 1152.5,-115.5 1146.5,-109.5 1146.5,-103.5 1146.5,-103.5 1146.5,-12.5 1146.5,-12.5 1146.5,-6.5 1152.5,-0.5 1158.5,-0.5"/>
<text text-anchor="middle" x="1243.5" y="-100.3" font-family="Times,serif" font-size="14.00">indx: 0x56731b568940</text>
<polyline fill="none" stroke="#203d98" points="1146.5,-92.5 1340.5,-92.5 "/>
<text text-anchor="middle" x="1243.5" y="-77.3" font-family="Times,serif" font-size="14.00">type: 3</text>
<polyline fill="none" stroke="#203d98" points="1146.5,-69.5 1340.5,-69.5 "/>
<text text-anchor="middle" x="1243.5" y="-54.3" font-family="Times,serif" font-size="14.00">value: 5.00</text>
<polyline fill="none" stroke="#203d98" points="1146.5,-46.5 1340.5,-46.5 "/>
<text text-anchor="middle" x="1243.5" y="-31.3" font-family="Times,serif" font-size="14.00">parent: 0x56731b568f60</text>
<polyline fill="none" stroke="#203d98" points="1146.5,-23.5 1340.5,-23.5 "/>
<text text-anchor="middle" x="1192" y="-8.3" font-family="Times,serif" font-size="14.00">left: (nil)</text>
<polyline fill="none" stroke="#203d98" points="1237.5,-0.5 1237.5,-23.5 "/>
<text text-anchor="middle" x="1289" y="-8.3" font-family="Times,serif" font-size="14.00">right: (nil)</text>
</g>
<!-- node0x56731b568f60&#45;&gt;node0x56731b568940 -->
<g id="edge16" class="edge">
<title>node0x56731b568f60&#45;&gt;node0x56731b568940</title>
<path fill="none" stroke="#203d98" d="M1309.43,-152.29C1302.9,-143.05 1296.09,-133.42 1289.43,-124"/>
<polygon fill="#203d98" stroke="#203d98" points="1292.26,-121.94 1283.63,-115.79 1286.54,-125.98 1292.26,-121.94"/>
</g>
<!-- node0x56731b568f30 -->
<g id="node18" class="node">
<title>node0x56731b568f30</title>
<path fill="#faaa82" stroke="#203d98" d="M1370.5,-0.5C1370.5,-0.5 1540.5,-0.5 1540.5,-0.5 1546.5,-0.5 1552.5,-6.5 1552.5,-12.5 1552.5,-12.5 1552.5,-103.5 1552.5,-103.5 1552.5,-109.5 1546.5,-115.5 1540.5,-115.5 1540.5,-115.5 1370.5,-115.5 1370.5,-115.5 1364.5,-115.5 1358.5,-109.5 1358.5,-103.5 1358.5,-103.5 1358.5,-12.5 1358.5,-12.5 1358.5,-6.5 1364.5,-0.5 1370.5,-0.5"/>
<text text-anchor="middle" x="1455.5" y="-100.3" font-family="Times,serif" font-size="14.00">indx: 0x56731b568f30</text>
<polyline fill="none" stroke="#203d98" points="1358.5,-92.5 1552.5,-92.5 "/>
<text text-anchor="middle" x="1455.5" y="-77.3" font-family="Times,serif" font-size="14.00">type: 3</text>
<polyline fill="none" stroke="#203d98" points="1358.5,-69.5 1552.5,-69.5 "/>
<text text-anchor="middle" x="1455.5" y="-54.3" font-family="Times,serif" font-size="14.00">value: 0.00</text>
<polyline fill="none" stroke="#203d98" points="1358.5,-46.5 1552.5,-46.5 "/>
<text text-anchor="middle" x="1455.5" y="-31.3" font-family="Times,serif" font-size="14.00">parent: 0x56731b568f60</text>
<polyline fill="none" stroke="#203d98" points="1358.5,-23.5 1552.5,-23.5 "/>
<text text-anchor="middle" x="1404" y="-8.3" font-family="Times,serif" font-size="14.00">left: (nil)</text>
<polyline fill="none" stroke="#203d98" points="1449.5,-0.5 1449.5,-23.5 "/>
<text text-anchor="middle" x="1501" y="-8.3" font-family="Times,serif" font-size="14.00">right: (nil)</text>
</g>
<!-- node0x56731b568f60&#45;&gt;node0x56731b568f30 -->
<g id="edge17" class="edge">
<title>node0x56731b568f60&#45;&gt;node0x56731b568f30</title>
<path fill="none" stroke="#203d98" d="M1389.57,-152.29C1396.1,-143.05 1402.91,-133.42 1409.57,-124"/>
<polygon fill="#203d98" stroke="#203d98" points="1412.46,-125.98 1415.37,-115.79 1406.74,-121.94 1412.46,-125.98"/>
</g>
</g>
</svg>
