<?xml version="1.0" encoding="UTF-8" standalone="no"?>
<!DOCTYPE svg PUBLIC "-//W3C//DTD SVG 1.1//EN"
 "http://www.w3.org/Graphics/SVG/1.1/DTD/svg11.dtd">
<!-- Generated by graphviz version 2.43.0 (0)
 -->
<!-- Title: Tree Pages: 1 -->
<svg width="1649pt" height="884pt"
 viewBox="0.00 0.00 1648.50 884.00" xmlns="http://www.w3.org/2000/svg" xmlns:xlink="http://www.w3.org/1999/xlink">
<g id="graph0" class="graph" transform="scale(1 1) rotate(0) translate(4 880)">
<title>Tree</title>
<polygon fill="#ffe7a5" stroke="transparent" points="-4,4 -4,-880 1644.5,-880 1644.5,4 -4,4"/>
<!-- node0x5dafd09a5ea0 -->
<g id="node1" class="node">
<title>node0x5dafd09a5ea0</title>
<path fill="#a24892" stroke="#203d98" d="M660,-760.5C660,-760.5 982,-760.5 982,-760.5 988,-760.5 994,-766.5 994,-772.5 994,-772.5 994,-863.5 994,-863.5 994,-869.5 988,-875.5 982,-875.5 982,-875.5 660,-875.5 660,-875.5 654,-875.5 648,-869.5 648,-863.5 648,-863.5 648,-772.5 648,-772.5 648,-766.5 654,-760.5 660,-760.5"/>
<text text-anchor="middle" x="821" y="-860.3" font-family="Times,serif" font-size="14.00">indx: 0x5dafd09a5ea0</text>
<polyline fill="none" stroke="#203d98" points="648,-852.5 994,-852.5 "/>
<text text-anchor="middle" x="821" y="-837.3" font-family="Times,serif" font-size="14.00">type: 0</text>
<polyline fill="none" stroke="#203d98" points="648,-829.5 994,-829.5 "/>
<text text-anchor="middle" x="821" y="-814.3" font-family="Times,serif" font-size="14.00">value: ;</text>
<polyline fill="none" stroke="#203d98" points="648,-806.5 994,-806.5 "/>
<text text-anchor="middle" x="821" y="-791.3" font-family="Times,serif" font-size="14.00">parent: (nil)</text>
<polyline fill="none" stroke="#203d98" points="648,-783.5 994,-783.5 "/>
<text text-anchor="middle" x="732.5" y="-768.3" font-family="Times,serif" font-size="14.00">left: 0x5dafd09a5e70</text>
<polyline fill="none" stroke="#203d98" points="817,-760.5 817,-783.5 "/>
<text text-anchor="middle" x="905.5" y="-768.3" font-family="Times,serif" font-size="14.00">right: 0x5dafd09a5f90</text>
</g>
<!-- node0x5dafd09a5e70 -->
<g id="node2" class="node">
<title>node0x5dafd09a5e70</title>
<path fill="#a24892" stroke="#203d98" d="M498.5,-608.5C498.5,-608.5 823.5,-608.5 823.5,-608.5 829.5,-608.5 835.5,-614.5 835.5,-620.5 835.5,-620.5 835.5,-711.5 835.5,-711.5 835.5,-717.5 829.5,-723.5 823.5,-723.5 823.5,-723.5 498.5,-723.5 498.5,-723.5 492.5,-723.5 486.5,-717.5 486.5,-711.5 486.5,-711.5 486.5,-620.5 486.5,-620.5 486.5,-614.5 492.5,-608.5 498.5,-608.5"/>
<text text-anchor="middle" x="661" y="-708.3" font-family="Times,serif" font-size="14.00">indx: 0x5dafd09a5e70</text>
<polyline fill="none" stroke="#203d98" points="486.5,-700.5 835.5,-700.5 "/>
<text text-anchor="middle" x="661" y="-685.3" font-family="Times,serif" font-size="14.00">type: 4</text>
<polyline fill="none" stroke="#203d98" points="486.5,-677.5 835.5,-677.5 "/>
<text text-anchor="middle" x="661" y="-662.3" font-family="Times,serif" font-size="14.00">value: i</text>
<polyline fill="none" stroke="#203d98" points="486.5,-654.5 835.5,-654.5 "/>
<text text-anchor="middle" x="661" y="-639.3" font-family="Times,serif" font-size="14.00">parent: 0x5dafd09a5ea0</text>
<polyline fill="none" stroke="#203d98" points="486.5,-631.5 835.5,-631.5 "/>
<text text-anchor="middle" x="571" y="-616.3" font-family="Times,serif" font-size="14.00">left: 0x5dafd09a5e10</text>
<polyline fill="none" stroke="#203d98" points="655.5,-608.5 655.5,-631.5 "/>
<text text-anchor="middle" x="745.5" y="-616.3" font-family="Times,serif" font-size="14.00">right: 0x5dafd09a5e40</text>
</g>
<!-- node0x5dafd09a5ea0&#45;&gt;node0x5dafd09a5e70 -->
<g id="edge1" class="edge">
<title>node0x5dafd09a5ea0&#45;&gt;node0x5dafd09a5e70</title>
<path fill="none" stroke="#203d98" d="M760.51,-760.29C750.19,-750.61 739.4,-740.5 728.9,-730.65"/>
<polygon fill="#203d98" stroke="#203d98" points="731,-727.83 721.31,-723.54 726.21,-732.93 731,-727.83"/>
</g>
<!-- node0x5dafd09a5f90 -->
<g id="node9" class="node">
<title>node0x5dafd09a5f90</title>
<path fill="#a24892" stroke="#203d98" d="M887.5,-608.5C887.5,-608.5 1118.5,-608.5 1118.5,-608.5 1124.5,-608.5 1130.5,-614.5 1130.5,-620.5 1130.5,-620.5 1130.5,-711.5 1130.5,-711.5 1130.5,-717.5 1124.5,-723.5 1118.5,-723.5 1118.5,-723.5 887.5,-723.5 887.5,-723.5 881.5,-723.5 875.5,-717.5 875.5,-711.5 875.5,-711.5 875.5,-620.5 875.5,-620.5 875.5,-614.5 881.5,-608.5 887.5,-608.5"/>
<text text-anchor="middle" x="1003" y="-708.3" font-family="Times,serif" font-size="14.00">indx: 0x5dafd09a5f90</text>
<polyline fill="none" stroke="#203d98" points="875.5,-700.5 1130.5,-700.5 "/>
<text text-anchor="middle" x="1003" y="-685.3" font-family="Times,serif" font-size="14.00">type: 0</text>
<polyline fill="none" stroke="#203d98" points="875.5,-677.5 1130.5,-677.5 "/>
<text text-anchor="middle" x="1003" y="-662.3" font-family="Times,serif" font-size="14.00">value: ;</text>
<polyline fill="none" stroke="#203d98" points="875.5,-654.5 1130.5,-654.5 "/>
<text text-anchor="middle" x="1003" y="-639.3" font-family="Times,serif" font-size="14.00">parent: (nil)</text>
<polyline fill="none" stroke="#203d98" points="875.5,-631.5 1130.5,-631.5 "/>
<text text-anchor="middle" x="958.5" y="-616.3" font-family="Times,serif" font-size="14.00">left: 0x5dafd09a5f60</text>
<polyline fill="none" stroke="#203d98" points="1041.5,-608.5 1041.5,-631.5 "/>
<text text-anchor="middle" x="1086" y="-616.3" font-family="Times,serif" font-size="14.00">right: (nil)</text>
</g>
<!-- node0x5dafd09a5ea0&#45;&gt;node0x5dafd09a5f90 -->
<g id="edge8" class="edge">
<title>node0x5dafd09a5ea0&#45;&gt;node0x5dafd09a5f90</title>
<path fill="none" stroke="#203d98" d="M889.81,-760.29C901.78,-750.42 914.3,-740.11 926.46,-730.08"/>
<polygon fill="#203d98" stroke="#203d98" points="928.91,-732.6 934.4,-723.54 924.46,-727.2 928.91,-732.6"/>
</g>
<!-- node0x5dafd09a5e10 -->
<g id="node3" class="node">
<title>node0x5dafd09a5e10</title>
<path fill="#e07082" stroke="#203d98" d="M128.5,-456.5C128.5,-456.5 455.5,-456.5 455.5,-456.5 461.5,-456.5 467.5,-462.5 467.5,-468.5 467.5,-468.5 467.5,-559.5 467.5,-559.5 467.5,-565.5 461.5,-571.5 455.5,-571.5 455.5,-571.5 128.5,-571.5 128.5,-571.5 122.5,-571.5 116.5,-565.5 116.5,-559.5 116.5,-559.5 116.5,-468.5 116.5,-468.5 116.5,-462.5 122.5,-456.5 128.5,-456.5"/>
<text text-anchor="middle" x="292" y="-556.3" font-family="Times,serif" font-size="14.00">indx: 0x5dafd09a5e10</text>
<polyline fill="none" stroke="#203d98" points="116.5,-548.5 467.5,-548.5 "/>
<text text-anchor="middle" x="292" y="-533.3" font-family="Times,serif" font-size="14.00">type: 1</text>
<polyline fill="none" stroke="#203d98" points="116.5,-525.5 467.5,-525.5 "/>
<text text-anchor="middle" x="292" y="-510.3" font-family="Times,serif" font-size="14.00">value: +</text>
<polyline fill="none" stroke="#203d98" points="116.5,-502.5 467.5,-502.5 "/>
<text text-anchor="middle" x="292" y="-487.3" font-family="Times,serif" font-size="14.00">parent: 0x5dafd09a5e70</text>
<polyline fill="none" stroke="#203d98" points="116.5,-479.5 467.5,-479.5 "/>
<text text-anchor="middle" x="201.5" y="-464.3" font-family="Times,serif" font-size="14.00">left: 0x5dafd09a5670</text>
<polyline fill="none" stroke="#203d98" points="286.5,-456.5 286.5,-479.5 "/>
<text text-anchor="middle" x="377" y="-464.3" font-family="Times,serif" font-size="14.00">right: 0x5dafd09a56d0</text>
</g>
<!-- node0x5dafd09a5e70&#45;&gt;node0x5dafd09a5e10 -->
<g id="edge2" class="edge">
<title>node0x5dafd09a5e70&#45;&gt;node0x5dafd09a5e10</title>
<path fill="none" stroke="#203d98" d="M521.76,-608.4C495.27,-597.63 467.46,-586.33 440.7,-575.45"/>
<polygon fill="#203d98" stroke="#203d98" points="441.86,-572.14 431.28,-571.62 439.22,-578.62 441.86,-572.14"/>
</g>
<!-- node0x5dafd09a5e40 -->
<g id="node6" class="node">
<title>node0x5dafd09a5e40</title>
<path fill="#e07082" stroke="#203d98" d="M497.5,-456.5C497.5,-456.5 824.5,-456.5 824.5,-456.5 830.5,-456.5 836.5,-462.5 836.5,-468.5 836.5,-468.5 836.5,-559.5 836.5,-559.5 836.5,-565.5 830.5,-571.5 824.5,-571.5 824.5,-571.5 497.5,-571.5 497.5,-571.5 491.5,-571.5 485.5,-565.5 485.5,-559.5 485.5,-559.5 485.5,-468.5 485.5,-468.5 485.5,-462.5 491.5,-456.5 497.5,-456.5"/>
<text text-anchor="middle" x="661" y="-556.3" font-family="Times,serif" font-size="14.00">indx: 0x5dafd09a5e40</text>
<polyline fill="none" stroke="#203d98" points="485.5,-548.5 836.5,-548.5 "/>
<text text-anchor="middle" x="661" y="-533.3" font-family="Times,serif" font-size="14.00">type: 1</text>
<polyline fill="none" stroke="#203d98" points="485.5,-525.5 836.5,-525.5 "/>
<text text-anchor="middle" x="661" y="-510.3" font-family="Times,serif" font-size="14.00">value: =</text>
<polyline fill="none" stroke="#203d98" points="485.5,-502.5 836.5,-502.5 "/>
<text text-anchor="middle" x="661" y="-487.3" font-family="Times,serif" font-size="14.00">parent: 0x5dafd09a5e70</text>
<polyline fill="none" stroke="#203d98" points="485.5,-479.5 836.5,-479.5 "/>
<text text-anchor="middle" x="570.5" y="-464.3" font-family="Times,serif" font-size="14.00">left: 0x5dafd09a5730</text>
<polyline fill="none" stroke="#203d98" points="655.5,-456.5 655.5,-479.5 "/>
<text text-anchor="middle" x="746" y="-464.3" font-family="Times,serif" font-size="14.00">right: 0x5dafd09a5790</text>
</g>
<!-- node0x5dafd09a5e70&#45;&gt;node0x5dafd09a5e40 -->
<g id="edge5" class="edge">
<title>node0x5dafd09a5e70&#45;&gt;node0x5dafd09a5e40</title>
<path fill="none" stroke="#203d98" d="M661,-608.29C661,-599.7 661,-590.78 661,-582"/>
<polygon fill="#203d98" stroke="#203d98" points="664.5,-581.79 661,-571.79 657.5,-581.79 664.5,-581.79"/>
</g>
<!-- node0x5dafd09a5670 -->
<g id="node4" class="node">
<title>node0x5dafd09a5670</title>
<path fill="#faaa82" stroke="#203d98" d="M12,-304.5C12,-304.5 180,-304.5 180,-304.5 186,-304.5 192,-310.5 192,-316.5 192,-316.5 192,-407.5 192,-407.5 192,-413.5 186,-419.5 180,-419.5 180,-419.5 12,-419.5 12,-419.5 6,-419.5 0,-413.5 0,-407.5 0,-407.5 0,-316.5 0,-316.5 0,-310.5 6,-304.5 12,-304.5"/>
<text text-anchor="middle" x="96" y="-404.3" font-family="Times,serif" font-size="14.00">indx: 0x5dafd09a5670</text>
<polyline fill="none" stroke="#203d98" points="0,-396.5 192,-396.5 "/>
<text text-anchor="middle" x="96" y="-381.3" font-family="Times,serif" font-size="14.00">type: 3</text>
<polyline fill="none" stroke="#203d98" points="0,-373.5 192,-373.5 "/>
<text text-anchor="middle" x="96" y="-358.3" font-family="Times,serif" font-size="14.00">value: 5.00</text>
<polyline fill="none" stroke="#203d98" points="0,-350.5 192,-350.5 "/>
<text text-anchor="middle" x="96" y="-335.3" font-family="Times,serif" font-size="14.00">parent: 0x5dafd09a5e10</text>
<polyline fill="none" stroke="#203d98" points="0,-327.5 192,-327.5 "/>
<text text-anchor="middle" x="45" y="-312.3" font-family="Times,serif" font-size="14.00">left: (nil)</text>
<polyline fill="none" stroke="#203d98" points="90,-304.5 90,-327.5 "/>
<text text-anchor="middle" x="141" y="-312.3" font-family="Times,serif" font-size="14.00">right: (nil)</text>
</g>
<!-- node0x5dafd09a5e10&#45;&gt;node0x5dafd09a5670 -->
<g id="edge3" class="edge">
<title>node0x5dafd09a5e10&#45;&gt;node0x5dafd09a5670</title>
<path fill="none" stroke="#203d98" d="M217.9,-456.29C204.88,-446.33 191.27,-435.91 178.05,-425.79"/>
<polygon fill="#203d98" stroke="#203d98" points="179.95,-422.84 169.88,-419.54 175.69,-428.4 179.95,-422.84"/>
</g>
<!-- node0x5dafd09a56d0 -->
<g id="node5" class="node">
<title>node0x5dafd09a56d0</title>
<path fill="#faaa82" stroke="#203d98" d="M222,-304.5C222,-304.5 390,-304.5 390,-304.5 396,-304.5 402,-310.5 402,-316.5 402,-316.5 402,-407.5 402,-407.5 402,-413.5 396,-419.5 390,-419.5 390,-419.5 222,-419.5 222,-419.5 216,-419.5 210,-413.5 210,-407.5 210,-407.5 210,-316.5 210,-316.5 210,-310.5 216,-304.5 222,-304.5"/>
<text text-anchor="middle" x="306" y="-404.3" font-family="Times,serif" font-size="14.00">indx: 0x5dafd09a56d0</text>
<polyline fill="none" stroke="#203d98" points="210,-396.5 402,-396.5 "/>
<text text-anchor="middle" x="306" y="-381.3" font-family="Times,serif" font-size="14.00">type: 3</text>
<polyline fill="none" stroke="#203d98" points="210,-373.5 402,-373.5 "/>
<text text-anchor="middle" x="306" y="-358.3" font-family="Times,serif" font-size="14.00">value: 7.00</text>
<polyline fill="none" stroke="#203d98" points="210,-350.5 402,-350.5 "/>
<text text-anchor="middle" x="306" y="-335.3" font-family="Times,serif" font-size="14.00">parent: 0x5dafd09a5e10</text>
<polyline fill="none" stroke="#203d98" points="210,-327.5 402,-327.5 "/>
<text text-anchor="middle" x="255" y="-312.3" font-family="Times,serif" font-size="14.00">left: (nil)</text>
<polyline fill="none" stroke="#203d98" points="300,-304.5 300,-327.5 "/>
<text text-anchor="middle" x="351" y="-312.3" font-family="Times,serif" font-size="14.00">right: (nil)</text>
</g>
<!-- node0x5dafd09a5e10&#45;&gt;node0x5dafd09a56d0 -->
<g id="edge4" class="edge">
<title>node0x5dafd09a5e10&#45;&gt;node0x5dafd09a56d0</title>
<path fill="none" stroke="#203d98" d="M297.29,-456.29C298.09,-447.7 298.93,-438.78 299.75,-430"/>
<polygon fill="#203d98" stroke="#203d98" points="303.26,-430.07 300.7,-419.79 296.29,-429.42 303.26,-430.07"/>
</g>
<!-- node0x5dafd09a5730 -->
<g id="node7" class="node">
<title>node0x5dafd09a5730</title>
<path fill="#a24892" stroke="#203d98" d="M484,-304.5C484,-304.5 652,-304.5 652,-304.5 658,-304.5 664,-310.5 664,-316.5 664,-316.5 664,-407.5 664,-407.5 664,-413.5 658,-419.5 652,-419.5 652,-419.5 484,-419.5 484,-419.5 478,-419.5 472,-413.5 472,-407.5 472,-407.5 472,-316.5 472,-316.5 472,-310.5 478,-304.5 484,-304.5"/>
<text text-anchor="middle" x="568" y="-404.3" font-family="Times,serif" font-size="14.00">indx: 0x5dafd09a5730</text>
<polyline fill="none" stroke="#203d98" points="472,-396.5 664,-396.5 "/>
<text text-anchor="middle" x="568" y="-381.3" font-family="Times,serif" font-size="14.00">type: 2</text>
<polyline fill="none" stroke="#203d98" points="472,-373.5 664,-373.5 "/>
<text text-anchor="middle" x="568" y="-358.3" font-family="Times,serif" font-size="14.00">value: x</text>
<polyline fill="none" stroke="#203d98" points="472,-350.5 664,-350.5 "/>
<text text-anchor="middle" x="568" y="-335.3" font-family="Times,serif" font-size="14.00">parent: 0x5dafd09a5e40</text>
<polyline fill="none" stroke="#203d98" points="472,-327.5 664,-327.5 "/>
<text text-anchor="middle" x="517" y="-312.3" font-family="Times,serif" font-size="14.00">left: (nil)</text>
<polyline fill="none" stroke="#203d98" points="562,-304.5 562,-327.5 "/>
<text text-anchor="middle" x="613" y="-312.3" font-family="Times,serif" font-size="14.00">right: (nil)</text>
</g>
<!-- node0x5dafd09a5e40&#45;&gt;node0x5dafd09a5730 -->
<g id="edge6" class="edge">
<title>node0x5dafd09a5e40&#45;&gt;node0x5dafd09a5730</title>
<path fill="none" stroke="#203d98" d="M625.84,-456.29C620.23,-447.24 614.38,-437.81 608.65,-428.57"/>
<polygon fill="#203d98" stroke="#203d98" points="611.45,-426.44 603.21,-419.79 605.5,-430.13 611.45,-426.44"/>
</g>
<!-- node0x5dafd09a5790 -->
<g id="node8" class="node">
<title>node0x5dafd09a5790</title>
<path fill="#faaa82" stroke="#203d98" d="M694,-304.5C694,-304.5 862,-304.5 862,-304.5 868,-304.5 874,-310.5 874,-316.5 874,-316.5 874,-407.5 874,-407.5 874,-413.5 868,-419.5 862,-419.5 862,-419.5 694,-419.5 694,-419.5 688,-419.5 682,-413.5 682,-407.5 682,-407.5 682,-316.5 682,-316.5 682,-310.5 688,-304.5 694,-304.5"/>
<text text-anchor="middle" x="778" y="-404.3" font-family="Times,serif" font-size="14.00">indx: 0x5dafd09a5790</text>
<polyline fill="none" stroke="#203d98" points="682,-396.5 874,-396.5 "/>
<text text-anchor="middle" x="778" y="-381.3" font-family="Times,serif" font-size="14.00">type: 3</text>
<polyline fill="none" stroke="#203d98" points="682,-373.5 874,-373.5 "/>
<text text-anchor="middle" x="778" y="-358.3" font-family="Times,serif" font-size="14.00">value: 9.00</text>
<polyline fill="none" stroke="#203d98" points="682,-350.5 874,-350.5 "/>
<text text-anchor="middle" x="778" y="-335.3" font-family="Times,serif" font-size="14.00">parent: 0x5dafd09a5e40</text>
<polyline fill="none" stroke="#203d98" points="682,-327.5 874,-327.5 "/>
<text text-anchor="middle" x="727" y="-312.3" font-family="Times,serif" font-size="14.00">left: (nil)</text>
<polyline fill="none" stroke="#203d98" points="772,-304.5 772,-327.5 "/>
<text text-anchor="middle" x="823" y="-312.3" font-family="Times,serif" font-size="14.00">right: (nil)</text>
</g>
<!-- node0x5dafd09a5e40&#45;&gt;node0x5dafd09a5790 -->
<g id="edge7" class="edge">
<title>node0x5dafd09a5e40&#45;&gt;node0x5dafd09a5790</title>
<path fill="none" stroke="#203d98" d="M705.23,-456.29C712.51,-446.96 720.11,-437.22 727.53,-427.71"/>
<polygon fill="#203d98" stroke="#203d98" points="730.31,-429.83 733.7,-419.79 724.79,-425.52 730.31,-429.83"/>
</g>
<!-- node0x5dafd09a5f60 -->
<g id="node10" class="node">
<title>node0x5dafd09a5f60</title>
<path fill="#e07082" stroke="#203d98" d="M866.5,-456.5C866.5,-456.5 1185.5,-456.5 1185.5,-456.5 1191.5,-456.5 1197.5,-462.5 1197.5,-468.5 1197.5,-468.5 1197.5,-559.5 1197.5,-559.5 1197.5,-565.5 1191.5,-571.5 1185.5,-571.5 1185.5,-571.5 866.5,-571.5 866.5,-571.5 860.5,-571.5 854.5,-565.5 854.5,-559.5 854.5,-559.5 854.5,-468.5 854.5,-468.5 854.5,-462.5 860.5,-456.5 866.5,-456.5"/>
<text text-anchor="middle" x="1026" y="-556.3" font-family="Times,serif" font-size="14.00">indx: 0x5dafd09a5f60</text>
<polyline fill="none" stroke="#203d98" points="854.5,-548.5 1197.5,-548.5 "/>
<text text-anchor="middle" x="1026" y="-533.3" font-family="Times,serif" font-size="14.00">type: 1</text>
<polyline fill="none" stroke="#203d98" points="854.5,-525.5 1197.5,-525.5 "/>
<text text-anchor="middle" x="1026" y="-510.3" font-family="Times,serif" font-size="14.00">value: =</text>
<polyline fill="none" stroke="#203d98" points="854.5,-502.5 1197.5,-502.5 "/>
<text text-anchor="middle" x="1026" y="-487.3" font-family="Times,serif" font-size="14.00">parent: 0x5dafd09a5f90</text>
<polyline fill="none" stroke="#203d98" points="854.5,-479.5 1197.5,-479.5 "/>
<text text-anchor="middle" x="937.5" y="-464.3" font-family="Times,serif" font-size="14.00">left: 0x5dafd09a57f0</text>
<polyline fill="none" stroke="#203d98" points="1020.5,-456.5 1020.5,-479.5 "/>
<text text-anchor="middle" x="1109" y="-464.3" font-family="Times,serif" font-size="14.00">right: 0x5dafd09a5f30</text>
</g>
<!-- node0x5dafd09a5f90&#45;&gt;node0x5dafd09a5f60 -->
<g id="edge9" class="edge">
<title>node0x5dafd09a5f90&#45;&gt;node0x5dafd09a5f60</title>
<path fill="none" stroke="#203d98" d="M1011.7,-608.29C1013.03,-599.61 1014.41,-590.58 1015.77,-581.71"/>
<polygon fill="#203d98" stroke="#203d98" points="1019.24,-582.2 1017.29,-571.79 1012.32,-581.14 1019.24,-582.2"/>
</g>
<!-- node0x5dafd09a57f0 -->
<g id="node11" class="node">
<title>node0x5dafd09a57f0</title>
<path fill="#a24892" stroke="#203d98" d="M930.5,-304.5C930.5,-304.5 1095.5,-304.5 1095.5,-304.5 1101.5,-304.5 1107.5,-310.5 1107.5,-316.5 1107.5,-316.5 1107.5,-407.5 1107.5,-407.5 1107.5,-413.5 1101.5,-419.5 1095.5,-419.5 1095.5,-419.5 930.5,-419.5 930.5,-419.5 924.5,-419.5 918.5,-413.5 918.5,-407.5 918.5,-407.5 918.5,-316.5 918.5,-316.5 918.5,-310.5 924.5,-304.5 930.5,-304.5"/>
<text text-anchor="middle" x="1013" y="-404.3" font-family="Times,serif" font-size="14.00">indx: 0x5dafd09a57f0</text>
<polyline fill="none" stroke="#203d98" points="918.5,-396.5 1107.5,-396.5 "/>
<text text-anchor="middle" x="1013" y="-381.3" font-family="Times,serif" font-size="14.00">type: 2</text>
<polyline fill="none" stroke="#203d98" points="918.5,-373.5 1107.5,-373.5 "/>
<text text-anchor="middle" x="1013" y="-358.3" font-family="Times,serif" font-size="14.00">value: x</text>
<polyline fill="none" stroke="#203d98" points="918.5,-350.5 1107.5,-350.5 "/>
<text text-anchor="middle" x="1013" y="-335.3" font-family="Times,serif" font-size="14.00">parent: 0x5dafd09a5f60</text>
<polyline fill="none" stroke="#203d98" points="918.5,-327.5 1107.5,-327.5 "/>
<text text-anchor="middle" x="963" y="-312.3" font-family="Times,serif" font-size="14.00">left: (nil)</text>
<polyline fill="none" stroke="#203d98" points="1007.5,-304.5 1007.5,-327.5 "/>
<text text-anchor="middle" x="1057.5" y="-312.3" font-family="Times,serif" font-size="14.00">right: (nil)</text>
</g>
<!-- node0x5dafd09a5f60&#45;&gt;node0x5dafd09a57f0 -->
<g id="edge10" class="edge">
<title>node0x5dafd09a5f60&#45;&gt;node0x5dafd09a57f0</title>
<path fill="none" stroke="#203d98" d="M1021.09,-456.29C1020.34,-447.7 1019.57,-438.78 1018.81,-430"/>
<polygon fill="#203d98" stroke="#203d98" points="1022.27,-429.45 1017.92,-419.79 1015.3,-430.05 1022.27,-429.45"/>
</g>
<!-- node0x5dafd09a5f30 -->
<g id="node12" class="node">
<title>node0x5dafd09a5f30</title>
<path fill="#e07082" stroke="#203d98" d="M1137.5,-304.5C1137.5,-304.5 1460.5,-304.5 1460.5,-304.5 1466.5,-304.5 1472.5,-310.5 1472.5,-316.5 1472.5,-316.5 1472.5,-407.5 1472.5,-407.5 1472.5,-413.5 1466.5,-419.5 1460.5,-419.5 1460.5,-419.5 1137.5,-419.5 1137.5,-419.5 1131.5,-419.5 1125.5,-413.5 1125.5,-407.5 1125.5,-407.5 1125.5,-316.5 1125.5,-316.5 1125.5,-310.5 1131.5,-304.5 1137.5,-304.5"/>
<text text-anchor="middle" x="1299" y="-404.3" font-family="Times,serif" font-size="14.00">indx: 0x5dafd09a5f30</text>
<polyline fill="none" stroke="#203d98" points="1125.5,-396.5 1472.5,-396.5 "/>
<text text-anchor="middle" x="1299" y="-381.3" font-family="Times,serif" font-size="14.00">type: 1</text>
<polyline fill="none" stroke="#203d98" points="1125.5,-373.5 1472.5,-373.5 "/>
<text text-anchor="middle" x="1299" y="-358.3" font-family="Times,serif" font-size="14.00">value: +</text>
<polyline fill="none" stroke="#203d98" points="1125.5,-350.5 1472.5,-350.5 "/>
<text text-anchor="middle" x="1299" y="-335.3" font-family="Times,serif" font-size="14.00">parent: 0x5dafd09a5f60</text>
<polyline fill="none" stroke="#203d98" points="1125.5,-327.5 1472.5,-327.5 "/>
<text text-anchor="middle" x="1210.5" y="-312.3" font-family="Times,serif" font-size="14.00">left: 0x5dafd09a5850</text>
<polyline fill="none" stroke="#203d98" points="1295.5,-304.5 1295.5,-327.5 "/>
<text text-anchor="middle" x="1384" y="-312.3" font-family="Times,serif" font-size="14.00">right: 0x5dafd09a5f00</text>
</g>
<!-- node0x5dafd09a5f60&#45;&gt;node0x5dafd09a5f30 -->
<g id="edge11" class="edge">
<title>node0x5dafd09a5f60&#45;&gt;node0x5dafd09a5f30</title>
<path fill="none" stroke="#203d98" d="M1129.21,-456.29C1148.2,-445.86 1168.1,-434.92 1187.32,-424.36"/>
<polygon fill="#203d98" stroke="#203d98" points="1189.02,-427.42 1196.1,-419.54 1185.65,-421.29 1189.02,-427.42"/>
</g>
<!-- node0x5dafd09a5850 -->
<g id="node13" class="node">
<title>node0x5dafd09a5850</title>
<path fill="#faaa82" stroke="#203d98" d="M1072.5,-152.5C1072.5,-152.5 1237.5,-152.5 1237.5,-152.5 1243.5,-152.5 1249.5,-158.5 1249.5,-164.5 1249.5,-164.5 1249.5,-255.5 1249.5,-255.5 1249.5,-261.5 1243.5,-267.5 1237.5,-267.5 1237.5,-267.5 1072.5,-267.5 1072.5,-267.5 1066.5,-267.5 1060.5,-261.5 1060.5,-255.5 1060.5,-255.5 1060.5,-164.5 1060.5,-164.5 1060.5,-158.5 1066.5,-152.5 1072.5,-152.5"/>
<text text-anchor="middle" x="1155" y="-252.3" font-family="Times,serif" font-size="14.00">indx: 0x5dafd09a5850</text>
<polyline fill="none" stroke="#203d98" points="1060.5,-244.5 1249.5,-244.5 "/>
<text text-anchor="middle" x="1155" y="-229.3" font-family="Times,serif" font-size="14.00">type: 3</text>
<polyline fill="none" stroke="#203d98" points="1060.5,-221.5 1249.5,-221.5 "/>
<text text-anchor="middle" x="1155" y="-206.3" font-family="Times,serif" font-size="14.00">value: 5.00</text>
<polyline fill="none" stroke="#203d98" points="1060.5,-198.5 1249.5,-198.5 "/>
<text text-anchor="middle" x="1155" y="-183.3" font-family="Times,serif" font-size="14.00">parent: 0x5dafd09a5f30</text>
<polyline fill="none" stroke="#203d98" points="1060.5,-175.5 1249.5,-175.5 "/>
<text text-anchor="middle" x="1105" y="-160.3" font-family="Times,serif" font-size="14.00">left: (nil)</text>
<polyline fill="none" stroke="#203d98" points="1149.5,-152.5 1149.5,-175.5 "/>
<text text-anchor="middle" x="1199.5" y="-160.3" font-family="Times,serif" font-size="14.00">right: (nil)</text>
</g>
<!-- node0x5dafd09a5f30&#45;&gt;node0x5dafd09a5850 -->
<g id="edge12" class="edge">
<title>node0x5dafd09a5f30&#45;&gt;node0x5dafd09a5850</title>
<path fill="none" stroke="#203d98" d="M1244.56,-304.29C1235.42,-294.77 1225.88,-284.83 1216.58,-275.14"/>
<polygon fill="#203d98" stroke="#203d98" points="1218.97,-272.58 1209.52,-267.79 1213.92,-277.43 1218.97,-272.58"/>
</g>
<!-- node0x5dafd09a5f00 -->
<g id="node14" class="node">
<title>node0x5dafd09a5f00</title>
<path fill="#e07082" stroke="#203d98" d="M1280,-152.5C1280,-152.5 1606,-152.5 1606,-152.5 1612,-152.5 1618,-158.5 1618,-164.5 1618,-164.5 1618,-255.5 1618,-255.5 1618,-261.5 1612,-267.5 1606,-267.5 1606,-267.5 1280,-267.5 1280,-267.5 1274,-267.5 1268,-261.5 1268,-255.5 1268,-255.5 1268,-164.5 1268,-164.5 1268,-158.5 1274,-152.5 1280,-152.5"/>
<text text-anchor="middle" x="1443" y="-252.3" font-family="Times,serif" font-size="14.00">indx: 0x5dafd09a5f00</text>
<polyline fill="none" stroke="#203d98" points="1268,-244.5 1618,-244.5 "/>
<text text-anchor="middle" x="1443" y="-229.3" font-family="Times,serif" font-size="14.00">type: 1</text>
<polyline fill="none" stroke="#203d98" points="1268,-221.5 1618,-221.5 "/>
<text text-anchor="middle" x="1443" y="-206.3" font-family="Times,serif" font-size="14.00">value: l</text>
<polyline fill="none" stroke="#203d98" points="1268,-198.5 1618,-198.5 "/>
<text text-anchor="middle" x="1443" y="-183.3" font-family="Times,serif" font-size="14.00">parent: 0x5dafd09a5f30</text>
<polyline fill="none" stroke="#203d98" points="1268,-175.5 1618,-175.5 "/>
<text text-anchor="middle" x="1353" y="-160.3" font-family="Times,serif" font-size="14.00">left: 0x5dafd09a5940</text>
<polyline fill="none" stroke="#203d98" points="1438,-152.5 1438,-175.5 "/>
<text text-anchor="middle" x="1528" y="-160.3" font-family="Times,serif" font-size="14.00">right: 0x5dafd09a5ed0</text>
</g>
<!-- node0x5dafd09a5f30&#45;&gt;node0x5dafd09a5f00 -->
<g id="edge13" class="edge">
<title>node0x5dafd09a5f30&#45;&gt;node0x5dafd09a5f00</title>
<path fill="none" stroke="#203d98" d="M1353.44,-304.29C1362.58,-294.77 1372.12,-284.83 1381.42,-275.14"/>
<polygon fill="#203d98" stroke="#203d98" points="1384.08,-277.43 1388.48,-267.79 1379.03,-272.58 1384.08,-277.43"/>
</g>
<!-- node0x5dafd09a5940 -->
<g id="node15" class="node">
<title>node0x5dafd09a5940</title>
<path fill="#faaa82" stroke="#203d98" d="M1256.5,-0.5C1256.5,-0.5 1421.5,-0.5 1421.5,-0.5 1427.5,-0.5 1433.5,-6.5 1433.5,-12.5 1433.5,-12.5 1433.5,-103.5 1433.5,-103.5 1433.5,-109.5 1427.5,-115.5 1421.5,-115.5 1421.5,-115.5 1256.5,-115.5 1256.5,-115.5 1250.5,-115.5 1244.5,-109.5 1244.5,-103.5 1244.5,-103.5 1244.5,-12.5 1244.5,-12.5 1244.5,-6.5 1250.5,-0.5 1256.5,-0.5"/>
<text text-anchor="middle" x="1339" y="-100.3" font-family="Times,serif" font-size="14.00">indx: 0x5dafd09a5940</text>
<polyline fill="none" stroke="#203d98" points="1244.5,-92.5 1433.5,-92.5 "/>
<text text-anchor="middle" x="1339" y="-77.3" font-family="Times,serif" font-size="14.00">type: 3</text>
<polyline fill="none" stroke="#203d98" points="1244.5,-69.5 1433.5,-69.5 "/>
<text text-anchor="middle" x="1339" y="-54.3" font-family="Times,serif" font-size="14.00">value: 9.00</text>
<polyline fill="none" stroke="#203d98" points="1244.5,-46.5 1433.5,-46.5 "/>
<text text-anchor="middle" x="1339" y="-31.3" font-family="Times,serif" font-size="14.00">parent: 0x5dafd09a5f00</text>
<polyline fill="none" stroke="#203d98" points="1244.5,-23.5 1433.5,-23.5 "/>
<text text-anchor="middle" x="1289" y="-8.3" font-family="Times,serif" font-size="14.00">left: (nil)</text>
<polyline fill="none" stroke="#203d98" points="1333.5,-0.5 1333.5,-23.5 "/>
<text text-anchor="middle" x="1383.5" y="-8.3" font-family="Times,serif" font-size="14.00">right: (nil)</text>
</g>
<!-- node0x5dafd09a5f00&#45;&gt;node0x5dafd09a5940 -->
<g id="edge14" class="edge">
<title>node0x5dafd09a5f00&#45;&gt;node0x5dafd09a5940</title>
<path fill="none" stroke="#203d98" d="M1403.68,-152.29C1397.34,-143.14 1390.73,-133.61 1384.26,-124.28"/>
<polygon fill="#203d98" stroke="#203d98" points="1386.95,-122.01 1378.37,-115.79 1381.2,-126 1386.95,-122.01"/>
</g>
<!-- node0x5dafd09a5ed0 -->
<g id="node16" class="node">
<title>node0x5dafd09a5ed0</title>
<path fill="#faaa82" stroke="#203d98" d="M1463.5,-0.5C1463.5,-0.5 1628.5,-0.5 1628.5,-0.5 1634.5,-0.5 1640.5,-6.5 1640.5,-12.5 1640.5,-12.5 1640.5,-103.5 1640.5,-103.5 1640.5,-109.5 1634.5,-115.5 1628.5,-115.5 1628.5,-115.5 1463.5,-115.5 1463.5,-115.5 1457.5,-115.5 1451.5,-109.5 1451.5,-103.5 1451.5,-103.5 1451.5,-12.5 1451.5,-12.5 1451.5,-6.5 1457.5,-0.5 1463.5,-0.5"/>
<text text-anchor="middle" x="1546" y="-100.3" font-family="Times,serif" font-size="14.00">indx: 0x5dafd09a5ed0</text>
<polyline fill="none" stroke="#203d98" points="1451.5,-92.5 1640.5,-92.5 "/>
<text text-anchor="middle" x="1546" y="-77.3" font-family="Times,serif" font-size="14.00">type: 3</text>
<polyline fill="none" stroke="#203d98" points="1451.5,-69.5 1640.5,-69.5 "/>
<text text-anchor="middle" x="1546" y="-54.3" font-family="Times,serif" font-size="14.00">value: 0.00</text>
<polyline fill="none" stroke="#203d98" points="1451.5,-46.5 1640.5,-46.5 "/>
<text text-anchor="middle" x="1546" y="-31.3" font-family="Times,serif" font-size="14.00">parent: 0x5dafd09a5f00</text>
<polyline fill="none" stroke="#203d98" points="1451.5,-23.5 1640.5,-23.5 "/>
<text text-anchor="middle" x="1496" y="-8.3" font-family="Times,serif" font-size="14.00">left: (nil)</text>
<polyline fill="none" stroke="#203d98" points="1540.5,-0.5 1540.5,-23.5 "/>
<text text-anchor="middle" x="1590.5" y="-8.3" font-family="Times,serif" font-size="14.00">right: (nil)</text>
</g>
<!-- node0x5dafd09a5f00&#45;&gt;node0x5dafd09a5ed0 -->
<g id="edge15" class="edge">
<title>node0x5dafd09a5f00&#45;&gt;node0x5dafd09a5ed0</title>
<path fill="none" stroke="#203d98" d="M1481.94,-152.29C1488.22,-143.14 1494.77,-133.61 1501.17,-124.28"/>
<polygon fill="#203d98" stroke="#203d98" points="1504.23,-126.01 1507.01,-115.79 1498.46,-122.05 1504.23,-126.01"/>
</g>
</g>
</svg>
