<?xml version="1.0" encoding="UTF-8" standalone="no"?>
<!DOCTYPE svg PUBLIC "-//W3C//DTD SVG 1.1//EN"
 "http://www.w3.org/Graphics/SVG/1.1/DTD/svg11.dtd">
<!-- Generated by graphviz version 2.43.0 (0)
 -->
<!-- Title: Tree Pages: 1 -->
<svg width="1643pt" height="1188pt"
 viewBox="0.00 0.00 1643.00 1188.00" xmlns="http://www.w3.org/2000/svg" xmlns:xlink="http://www.w3.org/1999/xlink">
<g id="graph0" class="graph" transform="scale(1 1) rotate(0) translate(4 1184)">
<title>Tree</title>
<polygon fill="#fffeec" stroke="transparent" points="-4,4 -4,-1184 1639,-1184 1639,4 -4,4"/>
<!-- node0x58e1176ad470 -->
<g id="node1" class="node">
<title>node0x58e1176ad470</title>
<path fill="#ffcfd2" stroke="#5f5b6a" d="M792.5,-1064.5C792.5,-1064.5 1126.5,-1064.5 1126.5,-1064.5 1132.5,-1064.5 1138.5,-1070.5 1138.5,-1076.5 1138.5,-1076.5 1138.5,-1167.5 1138.5,-1167.5 1138.5,-1173.5 1132.5,-1179.5 1126.5,-1179.5 1126.5,-1179.5 792.5,-1179.5 792.5,-1179.5 786.5,-1179.5 780.5,-1173.5 780.5,-1167.5 780.5,-1167.5 780.5,-1076.5 780.5,-1076.5 780.5,-1070.5 786.5,-1064.5 792.5,-1064.5"/>
<text text-anchor="middle" x="959.5" y="-1164.3" font-family="Times,serif" font-size="14.00">indx: 0x58e1176ad470</text>
<polyline fill="none" stroke="#5f5b6a" points="780.5,-1156.5 1138.5,-1156.5 "/>
<text text-anchor="middle" x="959.5" y="-1141.3" font-family="Times,serif" font-size="14.00">type: 0</text>
<polyline fill="none" stroke="#5f5b6a" points="780.5,-1133.5 1138.5,-1133.5 "/>
<text text-anchor="middle" x="959.5" y="-1118.3" font-family="Times,serif" font-size="14.00">value: ;</text>
<polyline fill="none" stroke="#5f5b6a" points="780.5,-1110.5 1138.5,-1110.5 "/>
<text text-anchor="middle" x="959.5" y="-1095.3" font-family="Times,serif" font-size="14.00">parent: (nil)</text>
<polyline fill="none" stroke="#5f5b6a" points="780.5,-1087.5 1138.5,-1087.5 "/>
<text text-anchor="middle" x="867" y="-1072.3" font-family="Times,serif" font-size="14.00">left: 0x58e1176ad3e0</text>
<polyline fill="none" stroke="#5f5b6a" points="953.5,-1064.5 953.5,-1087.5 "/>
<text text-anchor="middle" x="1046" y="-1072.3" font-family="Times,serif" font-size="14.00">right: 0x58e1176ad440</text>
</g>
<!-- node0x58e1176ad3e0 -->
<g id="node2" class="node">
<title>node0x58e1176ad3e0</title>
<path fill="#f1c0e8" stroke="#5f5b6a" d="M628.5,-912.5C628.5,-912.5 962.5,-912.5 962.5,-912.5 968.5,-912.5 974.5,-918.5 974.5,-924.5 974.5,-924.5 974.5,-1015.5 974.5,-1015.5 974.5,-1021.5 968.5,-1027.5 962.5,-1027.5 962.5,-1027.5 628.5,-1027.5 628.5,-1027.5 622.5,-1027.5 616.5,-1021.5 616.5,-1015.5 616.5,-1015.5 616.5,-924.5 616.5,-924.5 616.5,-918.5 622.5,-912.5 628.5,-912.5"/>
<text text-anchor="middle" x="795.5" y="-1012.3" font-family="Times,serif" font-size="14.00">indx: 0x58e1176ad3e0</text>
<polyline fill="none" stroke="#5f5b6a" points="616.5,-1004.5 974.5,-1004.5 "/>
<text text-anchor="middle" x="795.5" y="-989.3" font-family="Times,serif" font-size="14.00">type: 4</text>
<polyline fill="none" stroke="#5f5b6a" points="616.5,-981.5 974.5,-981.5 "/>
<text text-anchor="middle" x="795.5" y="-966.3" font-family="Times,serif" font-size="14.00">value: i</text>
<polyline fill="none" stroke="#5f5b6a" points="616.5,-958.5 974.5,-958.5 "/>
<text text-anchor="middle" x="795.5" y="-943.3" font-family="Times,serif" font-size="14.00">parent: 0x58e1176ad470</text>
<polyline fill="none" stroke="#5f5b6a" points="616.5,-935.5 974.5,-935.5 "/>
<text text-anchor="middle" x="703" y="-920.3" font-family="Times,serif" font-size="14.00">left: 0x58e1176ad230</text>
<polyline fill="none" stroke="#5f5b6a" points="789.5,-912.5 789.5,-935.5 "/>
<text text-anchor="middle" x="882" y="-920.3" font-family="Times,serif" font-size="14.00">right: 0x58e1176ad3b0</text>
</g>
<!-- node0x58e1176ad470&#45;&gt;node0x58e1176ad3e0 -->
<g id="edge1" class="edge">
<title>node0x58e1176ad470&#45;&gt;node0x58e1176ad3e0</title>
<path fill="none" stroke="#5f5b6a" d="M897.5,-1064.29C886.81,-1054.52 875.64,-1044.3 864.78,-1034.37"/>
<polygon fill="#5f5b6a" stroke="#5f5b6a" points="867.06,-1031.71 857.32,-1027.54 862.33,-1036.87 867.06,-1031.71"/>
</g>
<!-- node0x58e1176ad440 -->
<g id="node20" class="node">
<title>node0x58e1176ad440</title>
<path fill="#ffcfd2" stroke="#5f5b6a" d="M1027.5,-912.5C1027.5,-912.5 1265.5,-912.5 1265.5,-912.5 1271.5,-912.5 1277.5,-918.5 1277.5,-924.5 1277.5,-924.5 1277.5,-1015.5 1277.5,-1015.5 1277.5,-1021.5 1271.5,-1027.5 1265.5,-1027.5 1265.5,-1027.5 1027.5,-1027.5 1027.5,-1027.5 1021.5,-1027.5 1015.5,-1021.5 1015.5,-1015.5 1015.5,-1015.5 1015.5,-924.5 1015.5,-924.5 1015.5,-918.5 1021.5,-912.5 1027.5,-912.5"/>
<text text-anchor="middle" x="1146.5" y="-1012.3" font-family="Times,serif" font-size="14.00">indx: 0x58e1176ad440</text>
<polyline fill="none" stroke="#5f5b6a" points="1015.5,-1004.5 1277.5,-1004.5 "/>
<text text-anchor="middle" x="1146.5" y="-989.3" font-family="Times,serif" font-size="14.00">type: 0</text>
<polyline fill="none" stroke="#5f5b6a" points="1015.5,-981.5 1277.5,-981.5 "/>
<text text-anchor="middle" x="1146.5" y="-966.3" font-family="Times,serif" font-size="14.00">value: ;</text>
<polyline fill="none" stroke="#5f5b6a" points="1015.5,-958.5 1277.5,-958.5 "/>
<text text-anchor="middle" x="1146.5" y="-943.3" font-family="Times,serif" font-size="14.00">parent: 0x58e1176ad470</text>
<polyline fill="none" stroke="#5f5b6a" points="1015.5,-935.5 1277.5,-935.5 "/>
<text text-anchor="middle" x="1102" y="-920.3" font-family="Times,serif" font-size="14.00">left: 0x58e1176ad410</text>
<polyline fill="none" stroke="#5f5b6a" points="1188.5,-912.5 1188.5,-935.5 "/>
<text text-anchor="middle" x="1233" y="-920.3" font-family="Times,serif" font-size="14.00">right: (nil)</text>
</g>
<!-- node0x58e1176ad470&#45;&gt;node0x58e1176ad440 -->
<g id="edge19" class="edge">
<title>node0x58e1176ad470&#45;&gt;node0x58e1176ad440</title>
<path fill="none" stroke="#5f5b6a" d="M1030.2,-1064.29C1042.5,-1054.42 1055.36,-1044.11 1067.86,-1034.08"/>
<polygon fill="#5f5b6a" stroke="#5f5b6a" points="1070.4,-1036.53 1076.01,-1027.54 1066.02,-1031.07 1070.4,-1036.53"/>
</g>
<!-- node0x58e1176ad230 -->
<g id="node3" class="node">
<title>node0x58e1176ad230</title>
<path fill="#cfbaf0" stroke="#5f5b6a" d="M148,-760.5C148,-760.5 479,-760.5 479,-760.5 485,-760.5 491,-766.5 491,-772.5 491,-772.5 491,-863.5 491,-863.5 491,-869.5 485,-875.5 479,-875.5 479,-875.5 148,-875.5 148,-875.5 142,-875.5 136,-869.5 136,-863.5 136,-863.5 136,-772.5 136,-772.5 136,-766.5 142,-760.5 148,-760.5"/>
<text text-anchor="middle" x="313.5" y="-860.3" font-family="Times,serif" font-size="14.00">indx: 0x58e1176ad230</text>
<polyline fill="none" stroke="#5f5b6a" points="136,-852.5 491,-852.5 "/>
<text text-anchor="middle" x="313.5" y="-837.3" font-family="Times,serif" font-size="14.00">type: 1</text>
<polyline fill="none" stroke="#5f5b6a" points="136,-829.5 491,-829.5 "/>
<text text-anchor="middle" x="313.5" y="-814.3" font-family="Times,serif" font-size="14.00">value: +</text>
<polyline fill="none" stroke="#5f5b6a" points="136,-806.5 491,-806.5 "/>
<text text-anchor="middle" x="313.5" y="-791.3" font-family="Times,serif" font-size="14.00">parent: 0x58e1176ad3e0</text>
<polyline fill="none" stroke="#5f5b6a" points="136,-783.5 491,-783.5 "/>
<text text-anchor="middle" x="222" y="-768.3" font-family="Times,serif" font-size="14.00">left: 0x58e1176ac850</text>
<polyline fill="none" stroke="#5f5b6a" points="308,-760.5 308,-783.5 "/>
<text text-anchor="middle" x="399.5" y="-768.3" font-family="Times,serif" font-size="14.00">right: 0x58e1176ac8b0</text>
</g>
<!-- node0x58e1176ad3e0&#45;&gt;node0x58e1176ad230 -->
<g id="edge2" class="edge">
<title>node0x58e1176ad3e0&#45;&gt;node0x58e1176ad230</title>
<path fill="none" stroke="#5f5b6a" d="M616.36,-913.25C578.72,-901.54 538.91,-889.15 500.97,-877.34"/>
<polygon fill="#5f5b6a" stroke="#5f5b6a" points="501.95,-873.98 491.36,-874.35 499.87,-880.67 501.95,-873.98"/>
</g>
<!-- node0x58e1176ad3b0 -->
<g id="node6" class="node">
<title>node0x58e1176ad3b0</title>
<path fill="#ffcfd2" stroke="#5f5b6a" d="M628.5,-760.5C628.5,-760.5 962.5,-760.5 962.5,-760.5 968.5,-760.5 974.5,-766.5 974.5,-772.5 974.5,-772.5 974.5,-863.5 974.5,-863.5 974.5,-869.5 968.5,-875.5 962.5,-875.5 962.5,-875.5 628.5,-875.5 628.5,-875.5 622.5,-875.5 616.5,-869.5 616.5,-863.5 616.5,-863.5 616.5,-772.5 616.5,-772.5 616.5,-766.5 622.5,-760.5 628.5,-760.5"/>
<text text-anchor="middle" x="795.5" y="-860.3" font-family="Times,serif" font-size="14.00">indx: 0x58e1176ad3b0</text>
<polyline fill="none" stroke="#5f5b6a" points="616.5,-852.5 974.5,-852.5 "/>
<text text-anchor="middle" x="795.5" y="-837.3" font-family="Times,serif" font-size="14.00">type: 0</text>
<polyline fill="none" stroke="#5f5b6a" points="616.5,-829.5 974.5,-829.5 "/>
<text text-anchor="middle" x="795.5" y="-814.3" font-family="Times,serif" font-size="14.00">value: ;</text>
<polyline fill="none" stroke="#5f5b6a" points="616.5,-806.5 974.5,-806.5 "/>
<text text-anchor="middle" x="795.5" y="-791.3" font-family="Times,serif" font-size="14.00">parent: 0x58e1176ad3e0</text>
<polyline fill="none" stroke="#5f5b6a" points="616.5,-783.5 974.5,-783.5 "/>
<text text-anchor="middle" x="703" y="-768.3" font-family="Times,serif" font-size="14.00">left: 0x58e1176ad260</text>
<polyline fill="none" stroke="#5f5b6a" points="789.5,-760.5 789.5,-783.5 "/>
<text text-anchor="middle" x="882" y="-768.3" font-family="Times,serif" font-size="14.00">right: 0x58e1176ad380</text>
</g>
<!-- node0x58e1176ad3e0&#45;&gt;node0x58e1176ad3b0 -->
<g id="edge5" class="edge">
<title>node0x58e1176ad3e0&#45;&gt;node0x58e1176ad3b0</title>
<path fill="none" stroke="#5f5b6a" d="M795.5,-912.29C795.5,-903.7 795.5,-894.78 795.5,-886"/>
<polygon fill="#5f5b6a" stroke="#5f5b6a" points="799,-885.79 795.5,-875.79 792,-885.79 799,-885.79"/>
</g>
<!-- node0x58e1176ac850 -->
<g id="node4" class="node">
<title>node0x58e1176ac850</title>
<path fill="#8eecf5" stroke="#5f5b6a" d="M12,-608.5C12,-608.5 185,-608.5 185,-608.5 191,-608.5 197,-614.5 197,-620.5 197,-620.5 197,-711.5 197,-711.5 197,-717.5 191,-723.5 185,-723.5 185,-723.5 12,-723.5 12,-723.5 6,-723.5 0,-717.5 0,-711.5 0,-711.5 0,-620.5 0,-620.5 0,-614.5 6,-608.5 12,-608.5"/>
<text text-anchor="middle" x="98.5" y="-708.3" font-family="Times,serif" font-size="14.00">indx: 0x58e1176ac850</text>
<polyline fill="none" stroke="#5f5b6a" points="0,-700.5 197,-700.5 "/>
<text text-anchor="middle" x="98.5" y="-685.3" font-family="Times,serif" font-size="14.00">type: 3</text>
<polyline fill="none" stroke="#5f5b6a" points="0,-677.5 197,-677.5 "/>
<text text-anchor="middle" x="98.5" y="-662.3" font-family="Times,serif" font-size="14.00">value: 5.00</text>
<polyline fill="none" stroke="#5f5b6a" points="0,-654.5 197,-654.5 "/>
<text text-anchor="middle" x="98.5" y="-639.3" font-family="Times,serif" font-size="14.00">parent: 0x58e1176ad230</text>
<polyline fill="none" stroke="#5f5b6a" points="0,-631.5 197,-631.5 "/>
<text text-anchor="middle" x="46.5" y="-616.3" font-family="Times,serif" font-size="14.00">left: (nil)</text>
<polyline fill="none" stroke="#5f5b6a" points="93,-608.5 93,-631.5 "/>
<text text-anchor="middle" x="145" y="-616.3" font-family="Times,serif" font-size="14.00">right: (nil)</text>
</g>
<!-- node0x58e1176ad230&#45;&gt;node0x58e1176ac850 -->
<g id="edge3" class="edge">
<title>node0x58e1176ad230&#45;&gt;node0x58e1176ac850</title>
<path fill="none" stroke="#5f5b6a" d="M232.22,-760.29C217.8,-750.24 202.72,-739.71 188.09,-729.51"/>
<polygon fill="#5f5b6a" stroke="#5f5b6a" points="189.74,-726.39 179.54,-723.54 185.74,-732.13 189.74,-726.39"/>
</g>
<!-- node0x58e1176ac8b0 -->
<g id="node5" class="node">
<title>node0x58e1176ac8b0</title>
<path fill="#8eecf5" stroke="#5f5b6a" d="M227,-608.5C227,-608.5 400,-608.5 400,-608.5 406,-608.5 412,-614.5 412,-620.5 412,-620.5 412,-711.5 412,-711.5 412,-717.5 406,-723.5 400,-723.5 400,-723.5 227,-723.5 227,-723.5 221,-723.5 215,-717.5 215,-711.5 215,-711.5 215,-620.5 215,-620.5 215,-614.5 221,-608.5 227,-608.5"/>
<text text-anchor="middle" x="313.5" y="-708.3" font-family="Times,serif" font-size="14.00">indx: 0x58e1176ac8b0</text>
<polyline fill="none" stroke="#5f5b6a" points="215,-700.5 412,-700.5 "/>
<text text-anchor="middle" x="313.5" y="-685.3" font-family="Times,serif" font-size="14.00">type: 3</text>
<polyline fill="none" stroke="#5f5b6a" points="215,-677.5 412,-677.5 "/>
<text text-anchor="middle" x="313.5" y="-662.3" font-family="Times,serif" font-size="14.00">value: 7.00</text>
<polyline fill="none" stroke="#5f5b6a" points="215,-654.5 412,-654.5 "/>
<text text-anchor="middle" x="313.5" y="-639.3" font-family="Times,serif" font-size="14.00">parent: 0x58e1176ad230</text>
<polyline fill="none" stroke="#5f5b6a" points="215,-631.5 412,-631.5 "/>
<text text-anchor="middle" x="261.5" y="-616.3" font-family="Times,serif" font-size="14.00">left: (nil)</text>
<polyline fill="none" stroke="#5f5b6a" points="308,-608.5 308,-631.5 "/>
<text text-anchor="middle" x="360" y="-616.3" font-family="Times,serif" font-size="14.00">right: (nil)</text>
</g>
<!-- node0x58e1176ad230&#45;&gt;node0x58e1176ac8b0 -->
<g id="edge4" class="edge">
<title>node0x58e1176ad230&#45;&gt;node0x58e1176ac8b0</title>
<path fill="none" stroke="#5f5b6a" d="M313.5,-760.29C313.5,-751.7 313.5,-742.78 313.5,-734"/>
<polygon fill="#5f5b6a" stroke="#5f5b6a" points="317,-733.79 313.5,-723.79 310,-733.79 317,-733.79"/>
</g>
<!-- node0x58e1176ad260 -->
<g id="node7" class="node">
<title>node0x58e1176ad260</title>
<path fill="#cfbaf0" stroke="#5f5b6a" d="M442.5,-608.5C442.5,-608.5 772.5,-608.5 772.5,-608.5 778.5,-608.5 784.5,-614.5 784.5,-620.5 784.5,-620.5 784.5,-711.5 784.5,-711.5 784.5,-717.5 778.5,-723.5 772.5,-723.5 772.5,-723.5 442.5,-723.5 442.5,-723.5 436.5,-723.5 430.5,-717.5 430.5,-711.5 430.5,-711.5 430.5,-620.5 430.5,-620.5 430.5,-614.5 436.5,-608.5 442.5,-608.5"/>
<text text-anchor="middle" x="607.5" y="-708.3" font-family="Times,serif" font-size="14.00">indx: 0x58e1176ad260</text>
<polyline fill="none" stroke="#5f5b6a" points="430.5,-700.5 784.5,-700.5 "/>
<text text-anchor="middle" x="607.5" y="-685.3" font-family="Times,serif" font-size="14.00">type: 1</text>
<polyline fill="none" stroke="#5f5b6a" points="430.5,-677.5 784.5,-677.5 "/>
<text text-anchor="middle" x="607.5" y="-662.3" font-family="Times,serif" font-size="14.00">value: =</text>
<polyline fill="none" stroke="#5f5b6a" points="430.5,-654.5 784.5,-654.5 "/>
<text text-anchor="middle" x="607.5" y="-639.3" font-family="Times,serif" font-size="14.00">parent: 0x58e1176ad3b0</text>
<polyline fill="none" stroke="#5f5b6a" points="430.5,-631.5 784.5,-631.5 "/>
<text text-anchor="middle" x="516.5" y="-616.3" font-family="Times,serif" font-size="14.00">left: 0x58e1176ac940</text>
<polyline fill="none" stroke="#5f5b6a" points="602.5,-608.5 602.5,-631.5 "/>
<text text-anchor="middle" x="693.5" y="-616.3" font-family="Times,serif" font-size="14.00">right: 0x58e1176ac9a0</text>
</g>
<!-- node0x58e1176ad3b0&#45;&gt;node0x58e1176ad260 -->
<g id="edge6" class="edge">
<title>node0x58e1176ad3b0&#45;&gt;node0x58e1176ad260</title>
<path fill="none" stroke="#5f5b6a" d="M724.43,-760.29C711.94,-750.33 698.88,-739.91 686.2,-729.79"/>
<polygon fill="#5f5b6a" stroke="#5f5b6a" points="688.36,-727.04 678.36,-723.54 684,-732.51 688.36,-727.04"/>
</g>
<!-- node0x58e1176ad380 -->
<g id="node10" class="node">
<title>node0x58e1176ad380</title>
<path fill="#f1c0e8" stroke="#5f5b6a" d="M814.5,-608.5C814.5,-608.5 1148.5,-608.5 1148.5,-608.5 1154.5,-608.5 1160.5,-614.5 1160.5,-620.5 1160.5,-620.5 1160.5,-711.5 1160.5,-711.5 1160.5,-717.5 1154.5,-723.5 1148.5,-723.5 1148.5,-723.5 814.5,-723.5 814.5,-723.5 808.5,-723.5 802.5,-717.5 802.5,-711.5 802.5,-711.5 802.5,-620.5 802.5,-620.5 802.5,-614.5 808.5,-608.5 814.5,-608.5"/>
<text text-anchor="middle" x="981.5" y="-708.3" font-family="Times,serif" font-size="14.00">indx: 0x58e1176ad380</text>
<polyline fill="none" stroke="#5f5b6a" points="802.5,-700.5 1160.5,-700.5 "/>
<text text-anchor="middle" x="981.5" y="-685.3" font-family="Times,serif" font-size="14.00">type: 4</text>
<polyline fill="none" stroke="#5f5b6a" points="802.5,-677.5 1160.5,-677.5 "/>
<text text-anchor="middle" x="981.5" y="-662.3" font-family="Times,serif" font-size="14.00">value: i</text>
<polyline fill="none" stroke="#5f5b6a" points="802.5,-654.5 1160.5,-654.5 "/>
<text text-anchor="middle" x="981.5" y="-639.3" font-family="Times,serif" font-size="14.00">parent: 0x58e1176ad3b0</text>
<polyline fill="none" stroke="#5f5b6a" points="802.5,-631.5 1160.5,-631.5 "/>
<text text-anchor="middle" x="889" y="-616.3" font-family="Times,serif" font-size="14.00">left: 0x58e1176ad290</text>
<polyline fill="none" stroke="#5f5b6a" points="975.5,-608.5 975.5,-631.5 "/>
<text text-anchor="middle" x="1068" y="-616.3" font-family="Times,serif" font-size="14.00">right: 0x58e1176ad350</text>
</g>
<!-- node0x58e1176ad3b0&#45;&gt;node0x58e1176ad380 -->
<g id="edge9" class="edge">
<title>node0x58e1176ad3b0&#45;&gt;node0x58e1176ad380</title>
<path fill="none" stroke="#5f5b6a" d="M865.82,-760.29C878.06,-750.42 890.85,-740.11 903.28,-730.08"/>
<polygon fill="#5f5b6a" stroke="#5f5b6a" points="905.8,-732.54 911.39,-723.54 901.41,-727.09 905.8,-732.54"/>
</g>
<!-- node0x58e1176ac940 -->
<g id="node8" class="node">
<title>node0x58e1176ac940</title>
<path fill="#98f5e1" stroke="#5f5b6a" d="M327,-456.5C327,-456.5 500,-456.5 500,-456.5 506,-456.5 512,-462.5 512,-468.5 512,-468.5 512,-559.5 512,-559.5 512,-565.5 506,-571.5 500,-571.5 500,-571.5 327,-571.5 327,-571.5 321,-571.5 315,-565.5 315,-559.5 315,-559.5 315,-468.5 315,-468.5 315,-462.5 321,-456.5 327,-456.5"/>
<text text-anchor="middle" x="413.5" y="-556.3" font-family="Times,serif" font-size="14.00">indx: 0x58e1176ac940</text>
<polyline fill="none" stroke="#5f5b6a" points="315,-548.5 512,-548.5 "/>
<text text-anchor="middle" x="413.5" y="-533.3" font-family="Times,serif" font-size="14.00">type: 2</text>
<polyline fill="none" stroke="#5f5b6a" points="315,-525.5 512,-525.5 "/>
<text text-anchor="middle" x="413.5" y="-510.3" font-family="Times,serif" font-size="14.00">value: 0</text>
<polyline fill="none" stroke="#5f5b6a" points="315,-502.5 512,-502.5 "/>
<text text-anchor="middle" x="413.5" y="-487.3" font-family="Times,serif" font-size="14.00">parent: 0x58e1176ad260</text>
<polyline fill="none" stroke="#5f5b6a" points="315,-479.5 512,-479.5 "/>
<text text-anchor="middle" x="361.5" y="-464.3" font-family="Times,serif" font-size="14.00">left: (nil)</text>
<polyline fill="none" stroke="#5f5b6a" points="408,-456.5 408,-479.5 "/>
<text text-anchor="middle" x="460" y="-464.3" font-family="Times,serif" font-size="14.00">right: (nil)</text>
</g>
<!-- node0x58e1176ad260&#45;&gt;node0x58e1176ac940 -->
<g id="edge7" class="edge">
<title>node0x58e1176ad260&#45;&gt;node0x58e1176ac940</title>
<path fill="none" stroke="#5f5b6a" d="M534.16,-608.29C521.27,-598.33 507.8,-587.91 494.71,-577.79"/>
<polygon fill="#5f5b6a" stroke="#5f5b6a" points="496.68,-574.89 486.62,-571.54 492.4,-580.43 496.68,-574.89"/>
</g>
<!-- node0x58e1176ac9a0 -->
<g id="node9" class="node">
<title>node0x58e1176ac9a0</title>
<path fill="#8eecf5" stroke="#5f5b6a" d="M542,-456.5C542,-456.5 715,-456.5 715,-456.5 721,-456.5 727,-462.5 727,-468.5 727,-468.5 727,-559.5 727,-559.5 727,-565.5 721,-571.5 715,-571.5 715,-571.5 542,-571.5 542,-571.5 536,-571.5 530,-565.5 530,-559.5 530,-559.5 530,-468.5 530,-468.5 530,-462.5 536,-456.5 542,-456.5"/>
<text text-anchor="middle" x="628.5" y="-556.3" font-family="Times,serif" font-size="14.00">indx: 0x58e1176ac9a0</text>
<polyline fill="none" stroke="#5f5b6a" points="530,-548.5 727,-548.5 "/>
<text text-anchor="middle" x="628.5" y="-533.3" font-family="Times,serif" font-size="14.00">type: 3</text>
<polyline fill="none" stroke="#5f5b6a" points="530,-525.5 727,-525.5 "/>
<text text-anchor="middle" x="628.5" y="-510.3" font-family="Times,serif" font-size="14.00">value: 9.00</text>
<polyline fill="none" stroke="#5f5b6a" points="530,-502.5 727,-502.5 "/>
<text text-anchor="middle" x="628.5" y="-487.3" font-family="Times,serif" font-size="14.00">parent: 0x58e1176ad260</text>
<polyline fill="none" stroke="#5f5b6a" points="530,-479.5 727,-479.5 "/>
<text text-anchor="middle" x="576.5" y="-464.3" font-family="Times,serif" font-size="14.00">left: (nil)</text>
<polyline fill="none" stroke="#5f5b6a" points="623,-456.5 623,-479.5 "/>
<text text-anchor="middle" x="675" y="-464.3" font-family="Times,serif" font-size="14.00">right: (nil)</text>
</g>
<!-- node0x58e1176ad260&#45;&gt;node0x58e1176ac9a0 -->
<g id="edge8" class="edge">
<title>node0x58e1176ad260&#45;&gt;node0x58e1176ac9a0</title>
<path fill="none" stroke="#5f5b6a" d="M615.44,-608.29C616.65,-599.61 617.92,-590.58 619.16,-581.71"/>
<polygon fill="#5f5b6a" stroke="#5f5b6a" points="622.63,-582.18 620.55,-571.79 615.7,-581.21 622.63,-582.18"/>
</g>
<!-- node0x58e1176ad290 -->
<g id="node11" class="node">
<title>node0x58e1176ad290</title>
<path fill="#cfbaf0" stroke="#5f5b6a" d="M797.5,-456.5C797.5,-456.5 1125.5,-456.5 1125.5,-456.5 1131.5,-456.5 1137.5,-462.5 1137.5,-468.5 1137.5,-468.5 1137.5,-559.5 1137.5,-559.5 1137.5,-565.5 1131.5,-571.5 1125.5,-571.5 1125.5,-571.5 797.5,-571.5 797.5,-571.5 791.5,-571.5 785.5,-565.5 785.5,-559.5 785.5,-559.5 785.5,-468.5 785.5,-468.5 785.5,-462.5 791.5,-456.5 797.5,-456.5"/>
<text text-anchor="middle" x="961.5" y="-556.3" font-family="Times,serif" font-size="14.00">indx: 0x58e1176ad290</text>
<polyline fill="none" stroke="#5f5b6a" points="785.5,-548.5 1137.5,-548.5 "/>
<text text-anchor="middle" x="961.5" y="-533.3" font-family="Times,serif" font-size="14.00">type: 1</text>
<polyline fill="none" stroke="#5f5b6a" points="785.5,-525.5 1137.5,-525.5 "/>
<text text-anchor="middle" x="961.5" y="-510.3" font-family="Times,serif" font-size="14.00">value: &#45;</text>
<polyline fill="none" stroke="#5f5b6a" points="785.5,-502.5 1137.5,-502.5 "/>
<text text-anchor="middle" x="961.5" y="-487.3" font-family="Times,serif" font-size="14.00">parent: 0x58e1176ad380</text>
<polyline fill="none" stroke="#5f5b6a" points="785.5,-479.5 1137.5,-479.5 "/>
<text text-anchor="middle" x="871" y="-464.3" font-family="Times,serif" font-size="14.00">left: 0x58e1176aca60</text>
<polyline fill="none" stroke="#5f5b6a" points="956.5,-456.5 956.5,-479.5 "/>
<text text-anchor="middle" x="1047" y="-464.3" font-family="Times,serif" font-size="14.00">right: 0x58e1176acac0</text>
</g>
<!-- node0x58e1176ad380&#45;&gt;node0x58e1176ad290 -->
<g id="edge10" class="edge">
<title>node0x58e1176ad380&#45;&gt;node0x58e1176ad290</title>
<path fill="none" stroke="#5f5b6a" d="M973.94,-608.29C972.78,-599.61 971.58,-590.58 970.39,-581.71"/>
<polygon fill="#5f5b6a" stroke="#5f5b6a" points="973.86,-581.24 969.07,-571.79 966.92,-582.16 973.86,-581.24"/>
</g>
<!-- node0x58e1176ad350 -->
<g id="node14" class="node">
<title>node0x58e1176ad350</title>
<path fill="#ffcfd2" stroke="#5f5b6a" d="M1167.5,-456.5C1167.5,-456.5 1405.5,-456.5 1405.5,-456.5 1411.5,-456.5 1417.5,-462.5 1417.5,-468.5 1417.5,-468.5 1417.5,-559.5 1417.5,-559.5 1417.5,-565.5 1411.5,-571.5 1405.5,-571.5 1405.5,-571.5 1167.5,-571.5 1167.5,-571.5 1161.5,-571.5 1155.5,-565.5 1155.5,-559.5 1155.5,-559.5 1155.5,-468.5 1155.5,-468.5 1155.5,-462.5 1161.5,-456.5 1167.5,-456.5"/>
<text text-anchor="middle" x="1286.5" y="-556.3" font-family="Times,serif" font-size="14.00">indx: 0x58e1176ad350</text>
<polyline fill="none" stroke="#5f5b6a" points="1155.5,-548.5 1417.5,-548.5 "/>
<text text-anchor="middle" x="1286.5" y="-533.3" font-family="Times,serif" font-size="14.00">type: 0</text>
<polyline fill="none" stroke="#5f5b6a" points="1155.5,-525.5 1417.5,-525.5 "/>
<text text-anchor="middle" x="1286.5" y="-510.3" font-family="Times,serif" font-size="14.00">value: ;</text>
<polyline fill="none" stroke="#5f5b6a" points="1155.5,-502.5 1417.5,-502.5 "/>
<text text-anchor="middle" x="1286.5" y="-487.3" font-family="Times,serif" font-size="14.00">parent: 0x58e1176ad380</text>
<polyline fill="none" stroke="#5f5b6a" points="1155.5,-479.5 1417.5,-479.5 "/>
<text text-anchor="middle" x="1242" y="-464.3" font-family="Times,serif" font-size="14.00">left: 0x58e1176ad320</text>
<polyline fill="none" stroke="#5f5b6a" points="1328.5,-456.5 1328.5,-479.5 "/>
<text text-anchor="middle" x="1373" y="-464.3" font-family="Times,serif" font-size="14.00">right: (nil)</text>
</g>
<!-- node0x58e1176ad380&#45;&gt;node0x58e1176ad350 -->
<g id="edge13" class="edge">
<title>node0x58e1176ad380&#45;&gt;node0x58e1176ad350</title>
<path fill="none" stroke="#5f5b6a" d="M1096.81,-608.29C1118.21,-597.77 1140.65,-586.73 1162.31,-576.08"/>
<polygon fill="#5f5b6a" stroke="#5f5b6a" points="1164.11,-579.09 1171.54,-571.54 1161.02,-572.81 1164.11,-579.09"/>
</g>
<!-- node0x58e1176aca60 -->
<g id="node12" class="node">
<title>node0x58e1176aca60</title>
<path fill="#8eecf5" stroke="#5f5b6a" d="M676,-304.5C676,-304.5 849,-304.5 849,-304.5 855,-304.5 861,-310.5 861,-316.5 861,-316.5 861,-407.5 861,-407.5 861,-413.5 855,-419.5 849,-419.5 849,-419.5 676,-419.5 676,-419.5 670,-419.5 664,-413.5 664,-407.5 664,-407.5 664,-316.5 664,-316.5 664,-310.5 670,-304.5 676,-304.5"/>
<text text-anchor="middle" x="762.5" y="-404.3" font-family="Times,serif" font-size="14.00">indx: 0x58e1176aca60</text>
<polyline fill="none" stroke="#5f5b6a" points="664,-396.5 861,-396.5 "/>
<text text-anchor="middle" x="762.5" y="-381.3" font-family="Times,serif" font-size="14.00">type: 3</text>
<polyline fill="none" stroke="#5f5b6a" points="664,-373.5 861,-373.5 "/>
<text text-anchor="middle" x="762.5" y="-358.3" font-family="Times,serif" font-size="14.00">value: 1000.00</text>
<polyline fill="none" stroke="#5f5b6a" points="664,-350.5 861,-350.5 "/>
<text text-anchor="middle" x="762.5" y="-335.3" font-family="Times,serif" font-size="14.00">parent: 0x58e1176ad290</text>
<polyline fill="none" stroke="#5f5b6a" points="664,-327.5 861,-327.5 "/>
<text text-anchor="middle" x="710.5" y="-312.3" font-family="Times,serif" font-size="14.00">left: (nil)</text>
<polyline fill="none" stroke="#5f5b6a" points="757,-304.5 757,-327.5 "/>
<text text-anchor="middle" x="809" y="-312.3" font-family="Times,serif" font-size="14.00">right: (nil)</text>
</g>
<!-- node0x58e1176ad290&#45;&gt;node0x58e1176aca60 -->
<g id="edge11" class="edge">
<title>node0x58e1176ad290&#45;&gt;node0x58e1176aca60</title>
<path fill="none" stroke="#5f5b6a" d="M886.27,-456.29C873.05,-446.33 859.23,-435.91 845.8,-425.79"/>
<polygon fill="#5f5b6a" stroke="#5f5b6a" points="847.6,-422.76 837.51,-419.54 843.39,-428.35 847.6,-422.76"/>
</g>
<!-- node0x58e1176acac0 -->
<g id="node13" class="node">
<title>node0x58e1176acac0</title>
<path fill="#8eecf5" stroke="#5f5b6a" d="M891,-304.5C891,-304.5 1064,-304.5 1064,-304.5 1070,-304.5 1076,-310.5 1076,-316.5 1076,-316.5 1076,-407.5 1076,-407.5 1076,-413.5 1070,-419.5 1064,-419.5 1064,-419.5 891,-419.5 891,-419.5 885,-419.5 879,-413.5 879,-407.5 879,-407.5 879,-316.5 879,-316.5 879,-310.5 885,-304.5 891,-304.5"/>
<text text-anchor="middle" x="977.5" y="-404.3" font-family="Times,serif" font-size="14.00">indx: 0x58e1176acac0</text>
<polyline fill="none" stroke="#5f5b6a" points="879,-396.5 1076,-396.5 "/>
<text text-anchor="middle" x="977.5" y="-381.3" font-family="Times,serif" font-size="14.00">type: 3</text>
<polyline fill="none" stroke="#5f5b6a" points="879,-373.5 1076,-373.5 "/>
<text text-anchor="middle" x="977.5" y="-358.3" font-family="Times,serif" font-size="14.00">value: 7.00</text>
<polyline fill="none" stroke="#5f5b6a" points="879,-350.5 1076,-350.5 "/>
<text text-anchor="middle" x="977.5" y="-335.3" font-family="Times,serif" font-size="14.00">parent: 0x58e1176ad290</text>
<polyline fill="none" stroke="#5f5b6a" points="879,-327.5 1076,-327.5 "/>
<text text-anchor="middle" x="925.5" y="-312.3" font-family="Times,serif" font-size="14.00">left: (nil)</text>
<polyline fill="none" stroke="#5f5b6a" points="972,-304.5 972,-327.5 "/>
<text text-anchor="middle" x="1024" y="-312.3" font-family="Times,serif" font-size="14.00">right: (nil)</text>
</g>
<!-- node0x58e1176ad290&#45;&gt;node0x58e1176acac0 -->
<g id="edge12" class="edge">
<title>node0x58e1176ad290&#45;&gt;node0x58e1176acac0</title>
<path fill="none" stroke="#5f5b6a" d="M967.55,-456.29C968.46,-447.7 969.42,-438.78 970.35,-430"/>
<polygon fill="#5f5b6a" stroke="#5f5b6a" points="973.86,-430.1 971.44,-419.79 966.9,-429.36 973.86,-430.1"/>
</g>
<!-- node0x58e1176ad320 -->
<g id="node15" class="node">
<title>node0x58e1176ad320</title>
<path fill="#cfbaf0" stroke="#5f5b6a" d="M1122,-304.5C1122,-304.5 1451,-304.5 1451,-304.5 1457,-304.5 1463,-310.5 1463,-316.5 1463,-316.5 1463,-407.5 1463,-407.5 1463,-413.5 1457,-419.5 1451,-419.5 1451,-419.5 1122,-419.5 1122,-419.5 1116,-419.5 1110,-413.5 1110,-407.5 1110,-407.5 1110,-316.5 1110,-316.5 1110,-310.5 1116,-304.5 1122,-304.5"/>
<text text-anchor="middle" x="1286.5" y="-404.3" font-family="Times,serif" font-size="14.00">indx: 0x58e1176ad320</text>
<polyline fill="none" stroke="#5f5b6a" points="1110,-396.5 1463,-396.5 "/>
<text text-anchor="middle" x="1286.5" y="-381.3" font-family="Times,serif" font-size="14.00">type: 1</text>
<polyline fill="none" stroke="#5f5b6a" points="1110,-373.5 1463,-373.5 "/>
<text text-anchor="middle" x="1286.5" y="-358.3" font-family="Times,serif" font-size="14.00">value: =</text>
<polyline fill="none" stroke="#5f5b6a" points="1110,-350.5 1463,-350.5 "/>
<text text-anchor="middle" x="1286.5" y="-335.3" font-family="Times,serif" font-size="14.00">parent: 0x58e1176ad350</text>
<polyline fill="none" stroke="#5f5b6a" points="1110,-327.5 1463,-327.5 "/>
<text text-anchor="middle" x="1196" y="-312.3" font-family="Times,serif" font-size="14.00">left: 0x58e1176acb50</text>
<polyline fill="none" stroke="#5f5b6a" points="1282,-304.5 1282,-327.5 "/>
<text text-anchor="middle" x="1372.5" y="-312.3" font-family="Times,serif" font-size="14.00">right: 0x58e1176ad2f0</text>
</g>
<!-- node0x58e1176ad350&#45;&gt;node0x58e1176ad320 -->
<g id="edge14" class="edge">
<title>node0x58e1176ad350&#45;&gt;node0x58e1176ad320</title>
<path fill="none" stroke="#5f5b6a" d="M1286.5,-456.29C1286.5,-447.7 1286.5,-438.78 1286.5,-430"/>
<polygon fill="#5f5b6a" stroke="#5f5b6a" points="1290,-429.79 1286.5,-419.79 1283,-429.79 1290,-429.79"/>
</g>
<!-- node0x58e1176acb50 -->
<g id="node16" class="node">
<title>node0x58e1176acb50</title>
<path fill="#98f5e1" stroke="#5f5b6a" d="M1053,-152.5C1053,-152.5 1226,-152.5 1226,-152.5 1232,-152.5 1238,-158.5 1238,-164.5 1238,-164.5 1238,-255.5 1238,-255.5 1238,-261.5 1232,-267.5 1226,-267.5 1226,-267.5 1053,-267.5 1053,-267.5 1047,-267.5 1041,-261.5 1041,-255.5 1041,-255.5 1041,-164.5 1041,-164.5 1041,-158.5 1047,-152.5 1053,-152.5"/>
<text text-anchor="middle" x="1139.5" y="-252.3" font-family="Times,serif" font-size="14.00">indx: 0x58e1176acb50</text>
<polyline fill="none" stroke="#5f5b6a" points="1041,-244.5 1238,-244.5 "/>
<text text-anchor="middle" x="1139.5" y="-229.3" font-family="Times,serif" font-size="14.00">type: 2</text>
<polyline fill="none" stroke="#5f5b6a" points="1041,-221.5 1238,-221.5 "/>
<text text-anchor="middle" x="1139.5" y="-206.3" font-family="Times,serif" font-size="14.00">value: 1</text>
<polyline fill="none" stroke="#5f5b6a" points="1041,-198.5 1238,-198.5 "/>
<text text-anchor="middle" x="1139.5" y="-183.3" font-family="Times,serif" font-size="14.00">parent: 0x58e1176ad320</text>
<polyline fill="none" stroke="#5f5b6a" points="1041,-175.5 1238,-175.5 "/>
<text text-anchor="middle" x="1087.5" y="-160.3" font-family="Times,serif" font-size="14.00">left: (nil)</text>
<polyline fill="none" stroke="#5f5b6a" points="1134,-152.5 1134,-175.5 "/>
<text text-anchor="middle" x="1186" y="-160.3" font-family="Times,serif" font-size="14.00">right: (nil)</text>
</g>
<!-- node0x58e1176ad320&#45;&gt;node0x58e1176acb50 -->
<g id="edge15" class="edge">
<title>node0x58e1176ad320&#45;&gt;node0x58e1176acb50</title>
<path fill="none" stroke="#5f5b6a" d="M1230.93,-304.29C1221.6,-294.77 1211.86,-284.83 1202.36,-275.14"/>
<polygon fill="#5f5b6a" stroke="#5f5b6a" points="1204.65,-272.48 1195.15,-267.79 1199.65,-277.38 1204.65,-272.48"/>
</g>
<!-- node0x58e1176ad2f0 -->
<g id="node17" class="node">
<title>node0x58e1176ad2f0</title>
<path fill="#cfbaf0" stroke="#5f5b6a" d="M1268,-152.5C1268,-152.5 1597,-152.5 1597,-152.5 1603,-152.5 1609,-158.5 1609,-164.5 1609,-164.5 1609,-255.5 1609,-255.5 1609,-261.5 1603,-267.5 1597,-267.5 1597,-267.5 1268,-267.5 1268,-267.5 1262,-267.5 1256,-261.5 1256,-255.5 1256,-255.5 1256,-164.5 1256,-164.5 1256,-158.5 1262,-152.5 1268,-152.5"/>
<text text-anchor="middle" x="1432.5" y="-252.3" font-family="Times,serif" font-size="14.00">indx: 0x58e1176ad2f0</text>
<polyline fill="none" stroke="#5f5b6a" points="1256,-244.5 1609,-244.5 "/>
<text text-anchor="middle" x="1432.5" y="-229.3" font-family="Times,serif" font-size="14.00">type: 1</text>
<polyline fill="none" stroke="#5f5b6a" points="1256,-221.5 1609,-221.5 "/>
<text text-anchor="middle" x="1432.5" y="-206.3" font-family="Times,serif" font-size="14.00">value: l</text>
<polyline fill="none" stroke="#5f5b6a" points="1256,-198.5 1609,-198.5 "/>
<text text-anchor="middle" x="1432.5" y="-183.3" font-family="Times,serif" font-size="14.00">parent: 0x58e1176ad320</text>
<polyline fill="none" stroke="#5f5b6a" points="1256,-175.5 1609,-175.5 "/>
<text text-anchor="middle" x="1341" y="-160.3" font-family="Times,serif" font-size="14.00">left: 0x58e1176acc40</text>
<polyline fill="none" stroke="#5f5b6a" points="1426,-152.5 1426,-175.5 "/>
<text text-anchor="middle" x="1517.5" y="-160.3" font-family="Times,serif" font-size="14.00">right: 0x58e1176ad2c0</text>
</g>
<!-- node0x58e1176ad320&#45;&gt;node0x58e1176ad2f0 -->
<g id="edge16" class="edge">
<title>node0x58e1176ad320&#45;&gt;node0x58e1176ad2f0</title>
<path fill="none" stroke="#5f5b6a" d="M1341.7,-304.29C1350.96,-294.77 1360.64,-284.83 1370.07,-275.14"/>
<polygon fill="#5f5b6a" stroke="#5f5b6a" points="1372.76,-277.4 1377.23,-267.79 1367.74,-272.51 1372.76,-277.4"/>
</g>
<!-- node0x58e1176acc40 -->
<g id="node18" class="node">
<title>node0x58e1176acc40</title>
<path fill="#8eecf5" stroke="#5f5b6a" d="M1243,-0.5C1243,-0.5 1412,-0.5 1412,-0.5 1418,-0.5 1424,-6.5 1424,-12.5 1424,-12.5 1424,-103.5 1424,-103.5 1424,-109.5 1418,-115.5 1412,-115.5 1412,-115.5 1243,-115.5 1243,-115.5 1237,-115.5 1231,-109.5 1231,-103.5 1231,-103.5 1231,-12.5 1231,-12.5 1231,-6.5 1237,-0.5 1243,-0.5"/>
<text text-anchor="middle" x="1327.5" y="-100.3" font-family="Times,serif" font-size="14.00">indx: 0x58e1176acc40</text>
<polyline fill="none" stroke="#5f5b6a" points="1231,-92.5 1424,-92.5 "/>
<text text-anchor="middle" x="1327.5" y="-77.3" font-family="Times,serif" font-size="14.00">type: 3</text>
<polyline fill="none" stroke="#5f5b6a" points="1231,-69.5 1424,-69.5 "/>
<text text-anchor="middle" x="1327.5" y="-54.3" font-family="Times,serif" font-size="14.00">value: 37.00</text>
<polyline fill="none" stroke="#5f5b6a" points="1231,-46.5 1424,-46.5 "/>
<text text-anchor="middle" x="1327.5" y="-31.3" font-family="Times,serif" font-size="14.00">parent: 0x58e1176ad2f0</text>
<polyline fill="none" stroke="#5f5b6a" points="1231,-23.5 1424,-23.5 "/>
<text text-anchor="middle" x="1276.5" y="-8.3" font-family="Times,serif" font-size="14.00">left: (nil)</text>
<polyline fill="none" stroke="#5f5b6a" points="1322,-0.5 1322,-23.5 "/>
<text text-anchor="middle" x="1373" y="-8.3" font-family="Times,serif" font-size="14.00">right: (nil)</text>
</g>
<!-- node0x58e1176ad2f0&#45;&gt;node0x58e1176acc40 -->
<g id="edge17" class="edge">
<title>node0x58e1176ad2f0&#45;&gt;node0x58e1176acc40</title>
<path fill="none" stroke="#5f5b6a" d="M1392.8,-152.29C1386.34,-143.05 1379.59,-133.42 1373,-124"/>
<polygon fill="#5f5b6a" stroke="#5f5b6a" points="1375.85,-121.97 1367.25,-115.79 1370.12,-125.99 1375.85,-121.97"/>
</g>
<!-- node0x58e1176ad2c0 -->
<g id="node19" class="node">
<title>node0x58e1176ad2c0</title>
<path fill="#8eecf5" stroke="#5f5b6a" d="M1454,-0.5C1454,-0.5 1623,-0.5 1623,-0.5 1629,-0.5 1635,-6.5 1635,-12.5 1635,-12.5 1635,-103.5 1635,-103.5 1635,-109.5 1629,-115.5 1623,-115.5 1623,-115.5 1454,-115.5 1454,-115.5 1448,-115.5 1442,-109.5 1442,-103.5 1442,-103.5 1442,-12.5 1442,-12.5 1442,-6.5 1448,-0.5 1454,-0.5"/>
<text text-anchor="middle" x="1538.5" y="-100.3" font-family="Times,serif" font-size="14.00">indx: 0x58e1176ad2c0</text>
<polyline fill="none" stroke="#5f5b6a" points="1442,-92.5 1635,-92.5 "/>
<text text-anchor="middle" x="1538.5" y="-77.3" font-family="Times,serif" font-size="14.00">type: 3</text>
<polyline fill="none" stroke="#5f5b6a" points="1442,-69.5 1635,-69.5 "/>
<text text-anchor="middle" x="1538.5" y="-54.3" font-family="Times,serif" font-size="14.00">value: 0.00</text>
<polyline fill="none" stroke="#5f5b6a" points="1442,-46.5 1635,-46.5 "/>
<text text-anchor="middle" x="1538.5" y="-31.3" font-family="Times,serif" font-size="14.00">parent: 0x58e1176ad2f0</text>
<polyline fill="none" stroke="#5f5b6a" points="1442,-23.5 1635,-23.5 "/>
<text text-anchor="middle" x="1487.5" y="-8.3" font-family="Times,serif" font-size="14.00">left: (nil)</text>
<polyline fill="none" stroke="#5f5b6a" points="1533,-0.5 1533,-23.5 "/>
<text text-anchor="middle" x="1584" y="-8.3" font-family="Times,serif" font-size="14.00">right: (nil)</text>
</g>
<!-- node0x58e1176ad2f0&#45;&gt;node0x58e1176ad2c0 -->
<g id="edge18" class="edge">
<title>node0x58e1176ad2f0&#45;&gt;node0x58e1176ad2c0</title>
<path fill="none" stroke="#5f5b6a" d="M1472.57,-152.29C1479.1,-143.05 1485.91,-133.42 1492.57,-124"/>
<polygon fill="#5f5b6a" stroke="#5f5b6a" points="1495.46,-125.98 1498.37,-115.79 1489.74,-121.94 1495.46,-125.98"/>
</g>
<!-- node0x58e1176ad410 -->
<g id="node21" class="node">
<title>node0x58e1176ad410</title>
<path fill="#cfbaf0" stroke="#5f5b6a" d="M1112,-760.5C1112,-760.5 1443,-760.5 1443,-760.5 1449,-760.5 1455,-766.5 1455,-772.5 1455,-772.5 1455,-863.5 1455,-863.5 1455,-869.5 1449,-875.5 1443,-875.5 1443,-875.5 1112,-875.5 1112,-875.5 1106,-875.5 1100,-869.5 1100,-863.5 1100,-863.5 1100,-772.5 1100,-772.5 1100,-766.5 1106,-760.5 1112,-760.5"/>
<text text-anchor="middle" x="1277.5" y="-860.3" font-family="Times,serif" font-size="14.00">indx: 0x58e1176ad410</text>
<polyline fill="none" stroke="#5f5b6a" points="1100,-852.5 1455,-852.5 "/>
<text text-anchor="middle" x="1277.5" y="-837.3" font-family="Times,serif" font-size="14.00">type: 1</text>
<polyline fill="none" stroke="#5f5b6a" points="1100,-829.5 1455,-829.5 "/>
<text text-anchor="middle" x="1277.5" y="-814.3" font-family="Times,serif" font-size="14.00">value: =</text>
<polyline fill="none" stroke="#5f5b6a" points="1100,-806.5 1455,-806.5 "/>
<text text-anchor="middle" x="1277.5" y="-791.3" font-family="Times,serif" font-size="14.00">parent: 0x58e1176ad440</text>
<polyline fill="none" stroke="#5f5b6a" points="1100,-783.5 1455,-783.5 "/>
<text text-anchor="middle" x="1186" y="-768.3" font-family="Times,serif" font-size="14.00">left: 0x58e1176acd30</text>
<polyline fill="none" stroke="#5f5b6a" points="1272,-760.5 1272,-783.5 "/>
<text text-anchor="middle" x="1363.5" y="-768.3" font-family="Times,serif" font-size="14.00">right: 0x58e1176acd90</text>
</g>
<!-- node0x58e1176ad440&#45;&gt;node0x58e1176ad410 -->
<g id="edge20" class="edge">
<title>node0x58e1176ad440&#45;&gt;node0x58e1176ad410</title>
<path fill="none" stroke="#5f5b6a" d="M1196.03,-912.29C1204.26,-902.86 1212.85,-893.03 1221.23,-883.43"/>
<polygon fill="#5f5b6a" stroke="#5f5b6a" points="1223.96,-885.62 1227.9,-875.79 1218.69,-881.02 1223.96,-885.62"/>
</g>
<!-- node0x58e1176acd30 -->
<g id="node22" class="node">
<title>node0x58e1176acd30</title>
<path fill="#98f5e1" stroke="#5f5b6a" d="M1191,-608.5C1191,-608.5 1364,-608.5 1364,-608.5 1370,-608.5 1376,-614.5 1376,-620.5 1376,-620.5 1376,-711.5 1376,-711.5 1376,-717.5 1370,-723.5 1364,-723.5 1364,-723.5 1191,-723.5 1191,-723.5 1185,-723.5 1179,-717.5 1179,-711.5 1179,-711.5 1179,-620.5 1179,-620.5 1179,-614.5 1185,-608.5 1191,-608.5"/>
<text text-anchor="middle" x="1277.5" y="-708.3" font-family="Times,serif" font-size="14.00">indx: 0x58e1176acd30</text>
<polyline fill="none" stroke="#5f5b6a" points="1179,-700.5 1376,-700.5 "/>
<text text-anchor="middle" x="1277.5" y="-685.3" font-family="Times,serif" font-size="14.00">type: 2</text>
<polyline fill="none" stroke="#5f5b6a" points="1179,-677.5 1376,-677.5 "/>
<text text-anchor="middle" x="1277.5" y="-662.3" font-family="Times,serif" font-size="14.00">value: 0</text>
<polyline fill="none" stroke="#5f5b6a" points="1179,-654.5 1376,-654.5 "/>
<text text-anchor="middle" x="1277.5" y="-639.3" font-family="Times,serif" font-size="14.00">parent: 0x58e1176ad410</text>
<polyline fill="none" stroke="#5f5b6a" points="1179,-631.5 1376,-631.5 "/>
<text text-anchor="middle" x="1225.5" y="-616.3" font-family="Times,serif" font-size="14.00">left: (nil)</text>
<polyline fill="none" stroke="#5f5b6a" points="1272,-608.5 1272,-631.5 "/>
<text text-anchor="middle" x="1324" y="-616.3" font-family="Times,serif" font-size="14.00">right: (nil)</text>
</g>
<!-- node0x58e1176ad410&#45;&gt;node0x58e1176acd30 -->
<g id="edge21" class="edge">
<title>node0x58e1176ad410&#45;&gt;node0x58e1176acd30</title>
<path fill="none" stroke="#5f5b6a" d="M1277.5,-760.29C1277.5,-751.7 1277.5,-742.78 1277.5,-734"/>
<polygon fill="#5f5b6a" stroke="#5f5b6a" points="1281,-733.79 1277.5,-723.79 1274,-733.79 1281,-733.79"/>
</g>
<!-- node0x58e1176acd90 -->
<g id="node23" class="node">
<title>node0x58e1176acd90</title>
<path fill="#8eecf5" stroke="#5f5b6a" d="M1406,-608.5C1406,-608.5 1579,-608.5 1579,-608.5 1585,-608.5 1591,-614.5 1591,-620.5 1591,-620.5 1591,-711.5 1591,-711.5 1591,-717.5 1585,-723.5 1579,-723.5 1579,-723.5 1406,-723.5 1406,-723.5 1400,-723.5 1394,-717.5 1394,-711.5 1394,-711.5 1394,-620.5 1394,-620.5 1394,-614.5 1400,-608.5 1406,-608.5"/>
<text text-anchor="middle" x="1492.5" y="-708.3" font-family="Times,serif" font-size="14.00">indx: 0x58e1176acd90</text>
<polyline fill="none" stroke="#5f5b6a" points="1394,-700.5 1591,-700.5 "/>
<text text-anchor="middle" x="1492.5" y="-685.3" font-family="Times,serif" font-size="14.00">type: 3</text>
<polyline fill="none" stroke="#5f5b6a" points="1394,-677.5 1591,-677.5 "/>
<text text-anchor="middle" x="1492.5" y="-662.3" font-family="Times,serif" font-size="14.00">value: 10.00</text>
<polyline fill="none" stroke="#5f5b6a" points="1394,-654.5 1591,-654.5 "/>
<text text-anchor="middle" x="1492.5" y="-639.3" font-family="Times,serif" font-size="14.00">parent: 0x58e1176ad410</text>
<polyline fill="none" stroke="#5f5b6a" points="1394,-631.5 1591,-631.5 "/>
<text text-anchor="middle" x="1440.5" y="-616.3" font-family="Times,serif" font-size="14.00">left: (nil)</text>
<polyline fill="none" stroke="#5f5b6a" points="1487,-608.5 1487,-631.5 "/>
<text text-anchor="middle" x="1539" y="-616.3" font-family="Times,serif" font-size="14.00">right: (nil)</text>
</g>
<!-- node0x58e1176ad410&#45;&gt;node0x58e1176acd90 -->
<g id="edge22" class="edge">
<title>node0x58e1176ad410&#45;&gt;node0x58e1176acd90</title>
<path fill="none" stroke="#5f5b6a" d="M1358.78,-760.29C1373.2,-750.24 1388.28,-739.71 1402.91,-729.51"/>
<polygon fill="#5f5b6a" stroke="#5f5b6a" points="1405.26,-732.13 1411.46,-723.54 1401.26,-726.39 1405.26,-732.13"/>
</g>
</g>
</svg>
