<?xml version="1.0" encoding="UTF-8" standalone="no"?>
<!DOCTYPE svg PUBLIC "-//W3C//DTD SVG 1.1//EN"
 "http://www.w3.org/Graphics/SVG/1.1/DTD/svg11.dtd">
<!-- Generated by graphviz version 2.43.0 (0)
 -->
<!-- Title: Tree Pages: 1 -->
<svg width="2052pt" height="1036pt"
 viewBox="0.00 0.00 2052.00 1036.00" xmlns="http://www.w3.org/2000/svg" xmlns:xlink="http://www.w3.org/1999/xlink">
<g id="graph0" class="graph" transform="scale(1 1) rotate(0) translate(4 1032)">
<title>Tree</title>
<polygon fill="#ffe7a5" stroke="transparent" points="-4,4 -4,-1032 2048,-1032 2048,4 -4,4"/>
<!-- node0x5a852299f030 -->
<g id="node1" class="node">
<title>node0x5a852299f030</title>
<path fill="#e07082" stroke="#203d98" d="M419,-912.5C419,-912.5 747,-912.5 747,-912.5 753,-912.5 759,-918.5 759,-924.5 759,-924.5 759,-1015.5 759,-1015.5 759,-1021.5 753,-1027.5 747,-1027.5 747,-1027.5 419,-1027.5 419,-1027.5 413,-1027.5 407,-1021.5 407,-1015.5 407,-1015.5 407,-924.5 407,-924.5 407,-918.5 413,-912.5 419,-912.5"/>
<text text-anchor="middle" x="583" y="-1012.3" font-family="Times,serif" font-size="14.00">indx: 0x5a852299f030</text>
<polyline fill="none" stroke="#203d98" points="407,-1004.5 759,-1004.5 "/>
<text text-anchor="middle" x="583" y="-989.3" font-family="Times,serif" font-size="14.00">type: 0</text>
<polyline fill="none" stroke="#203d98" points="407,-981.5 759,-981.5 "/>
<text text-anchor="middle" x="583" y="-966.3" font-family="Times,serif" font-size="14.00">value: ;</text>
<polyline fill="none" stroke="#203d98" points="407,-958.5 759,-958.5 "/>
<text text-anchor="middle" x="583" y="-943.3" font-family="Times,serif" font-size="14.00">parent: (nil)</text>
<polyline fill="none" stroke="#203d98" points="407,-935.5 759,-935.5 "/>
<text text-anchor="middle" x="492" y="-920.3" font-family="Times,serif" font-size="14.00">left: 0x5a852299f000</text>
<polyline fill="none" stroke="#203d98" points="577,-912.5 577,-935.5 "/>
<text text-anchor="middle" x="668" y="-920.3" font-family="Times,serif" font-size="14.00">right: 0x5a852299f120</text>
</g>
<!-- node0x5a852299f000 -->
<g id="node2" class="node">
<title>node0x5a852299f000</title>
<path fill="#e07082" stroke="#203d98" d="M231.5,-760.5C231.5,-760.5 564.5,-760.5 564.5,-760.5 570.5,-760.5 576.5,-766.5 576.5,-772.5 576.5,-772.5 576.5,-863.5 576.5,-863.5 576.5,-869.5 570.5,-875.5 564.5,-875.5 564.5,-875.5 231.5,-875.5 231.5,-875.5 225.5,-875.5 219.5,-869.5 219.5,-863.5 219.5,-863.5 219.5,-772.5 219.5,-772.5 219.5,-766.5 225.5,-760.5 231.5,-760.5"/>
<text text-anchor="middle" x="398" y="-860.3" font-family="Times,serif" font-size="14.00">indx: 0x5a852299f000</text>
<polyline fill="none" stroke="#203d98" points="219.5,-852.5 576.5,-852.5 "/>
<text text-anchor="middle" x="398" y="-837.3" font-family="Times,serif" font-size="14.00">type: 1</text>
<polyline fill="none" stroke="#203d98" points="219.5,-829.5 576.5,-829.5 "/>
<text text-anchor="middle" x="398" y="-814.3" font-family="Times,serif" font-size="14.00">value: =</text>
<polyline fill="none" stroke="#203d98" points="219.5,-806.5 576.5,-806.5 "/>
<text text-anchor="middle" x="398" y="-791.3" font-family="Times,serif" font-size="14.00">parent: 0x5a852299f030</text>
<polyline fill="none" stroke="#203d98" points="219.5,-783.5 576.5,-783.5 "/>
<text text-anchor="middle" x="306" y="-768.3" font-family="Times,serif" font-size="14.00">left: 0x5a852299e680</text>
<polyline fill="none" stroke="#203d98" points="392.5,-760.5 392.5,-783.5 "/>
<text text-anchor="middle" x="484.5" y="-768.3" font-family="Times,serif" font-size="14.00">right: 0x5a852299e6e0</text>
</g>
<!-- node0x5a852299f030&#45;&gt;node0x5a852299f000 -->
<g id="edge1" class="edge">
<title>node0x5a852299f030&#45;&gt;node0x5a852299f000</title>
<path fill="none" stroke="#203d98" d="M513.06,-912.29C500.89,-902.42 488.16,-892.11 475.8,-882.08"/>
<polygon fill="#203d98" stroke="#203d98" points="477.7,-879.12 467.73,-875.54 473.3,-884.56 477.7,-879.12"/>
</g>
<!-- node0x5a852299f120 -->
<g id="node5" class="node">
<title>node0x5a852299f120</title>
<path fill="#e07082" stroke="#203d98" d="M606.5,-760.5C606.5,-760.5 931.5,-760.5 931.5,-760.5 937.5,-760.5 943.5,-766.5 943.5,-772.5 943.5,-772.5 943.5,-863.5 943.5,-863.5 943.5,-869.5 937.5,-875.5 931.5,-875.5 931.5,-875.5 606.5,-875.5 606.5,-875.5 600.5,-875.5 594.5,-869.5 594.5,-863.5 594.5,-863.5 594.5,-772.5 594.5,-772.5 594.5,-766.5 600.5,-760.5 606.5,-760.5"/>
<text text-anchor="middle" x="769" y="-860.3" font-family="Times,serif" font-size="14.00">indx: 0x5a852299f120</text>
<polyline fill="none" stroke="#203d98" points="594.5,-852.5 943.5,-852.5 "/>
<text text-anchor="middle" x="769" y="-837.3" font-family="Times,serif" font-size="14.00">type: 0</text>
<polyline fill="none" stroke="#203d98" points="594.5,-829.5 943.5,-829.5 "/>
<text text-anchor="middle" x="769" y="-814.3" font-family="Times,serif" font-size="14.00">value: ;</text>
<polyline fill="none" stroke="#203d98" points="594.5,-806.5 943.5,-806.5 "/>
<text text-anchor="middle" x="769" y="-791.3" font-family="Times,serif" font-size="14.00">parent: (nil)</text>
<polyline fill="none" stroke="#203d98" points="594.5,-783.5 943.5,-783.5 "/>
<text text-anchor="middle" x="678" y="-768.3" font-family="Times,serif" font-size="14.00">left: 0x5a852299f0f0</text>
<polyline fill="none" stroke="#203d98" points="761.5,-760.5 761.5,-783.5 "/>
<text text-anchor="middle" x="852.5" y="-768.3" font-family="Times,serif" font-size="14.00">right: 0x5a852299f210</text>
</g>
<!-- node0x5a852299f030&#45;&gt;node0x5a852299f120 -->
<g id="edge4" class="edge">
<title>node0x5a852299f030&#45;&gt;node0x5a852299f120</title>
<path fill="none" stroke="#203d98" d="M653.32,-912.29C665.56,-902.42 678.35,-892.11 690.78,-882.08"/>
<polygon fill="#203d98" stroke="#203d98" points="693.3,-884.54 698.89,-875.54 688.91,-879.09 693.3,-884.54"/>
</g>
<!-- node0x5a852299e680 -->
<g id="node3" class="node">
<title>node0x5a852299e680</title>
<path fill="#a24892" stroke="#203d98" d="M122,-608.5C122,-608.5 292,-608.5 292,-608.5 298,-608.5 304,-614.5 304,-620.5 304,-620.5 304,-711.5 304,-711.5 304,-717.5 298,-723.5 292,-723.5 292,-723.5 122,-723.5 122,-723.5 116,-723.5 110,-717.5 110,-711.5 110,-711.5 110,-620.5 110,-620.5 110,-614.5 116,-608.5 122,-608.5"/>
<text text-anchor="middle" x="207" y="-708.3" font-family="Times,serif" font-size="14.00">indx: 0x5a852299e680</text>
<polyline fill="none" stroke="#203d98" points="110,-700.5 304,-700.5 "/>
<text text-anchor="middle" x="207" y="-685.3" font-family="Times,serif" font-size="14.00">type: 2</text>
<polyline fill="none" stroke="#203d98" points="110,-677.5 304,-677.5 "/>
<text text-anchor="middle" x="207" y="-662.3" font-family="Times,serif" font-size="14.00">value: 0</text>
<polyline fill="none" stroke="#203d98" points="110,-654.5 304,-654.5 "/>
<text text-anchor="middle" x="207" y="-639.3" font-family="Times,serif" font-size="14.00">parent: 0x5a852299f000</text>
<polyline fill="none" stroke="#203d98" points="110,-631.5 304,-631.5 "/>
<text text-anchor="middle" x="155.5" y="-616.3" font-family="Times,serif" font-size="14.00">left: (nil)</text>
<polyline fill="none" stroke="#203d98" points="201,-608.5 201,-631.5 "/>
<text text-anchor="middle" x="252.5" y="-616.3" font-family="Times,serif" font-size="14.00">right: (nil)</text>
</g>
<!-- node0x5a852299f000&#45;&gt;node0x5a852299e680 -->
<g id="edge2" class="edge">
<title>node0x5a852299f000&#45;&gt;node0x5a852299e680</title>
<path fill="none" stroke="#203d98" d="M325.79,-760.29C313.11,-750.33 299.84,-739.91 286.96,-729.79"/>
<polygon fill="#203d98" stroke="#203d98" points="289.02,-726.96 278.99,-723.54 284.7,-732.47 289.02,-726.96"/>
</g>
<!-- node0x5a852299e6e0 -->
<g id="node4" class="node">
<title>node0x5a852299e6e0</title>
<path fill="#faaa82" stroke="#203d98" d="M334,-608.5C334,-608.5 504,-608.5 504,-608.5 510,-608.5 516,-614.5 516,-620.5 516,-620.5 516,-711.5 516,-711.5 516,-717.5 510,-723.5 504,-723.5 504,-723.5 334,-723.5 334,-723.5 328,-723.5 322,-717.5 322,-711.5 322,-711.5 322,-620.5 322,-620.5 322,-614.5 328,-608.5 334,-608.5"/>
<text text-anchor="middle" x="419" y="-708.3" font-family="Times,serif" font-size="14.00">indx: 0x5a852299e6e0</text>
<polyline fill="none" stroke="#203d98" points="322,-700.5 516,-700.5 "/>
<text text-anchor="middle" x="419" y="-685.3" font-family="Times,serif" font-size="14.00">type: 3</text>
<polyline fill="none" stroke="#203d98" points="322,-677.5 516,-677.5 "/>
<text text-anchor="middle" x="419" y="-662.3" font-family="Times,serif" font-size="14.00">value: 9.00</text>
<polyline fill="none" stroke="#203d98" points="322,-654.5 516,-654.5 "/>
<text text-anchor="middle" x="419" y="-639.3" font-family="Times,serif" font-size="14.00">parent: 0x5a852299f000</text>
<polyline fill="none" stroke="#203d98" points="322,-631.5 516,-631.5 "/>
<text text-anchor="middle" x="367.5" y="-616.3" font-family="Times,serif" font-size="14.00">left: (nil)</text>
<polyline fill="none" stroke="#203d98" points="413,-608.5 413,-631.5 "/>
<text text-anchor="middle" x="464.5" y="-616.3" font-family="Times,serif" font-size="14.00">right: (nil)</text>
</g>
<!-- node0x5a852299f000&#45;&gt;node0x5a852299e6e0 -->
<g id="edge3" class="edge">
<title>node0x5a852299f000&#45;&gt;node0x5a852299e6e0</title>
<path fill="none" stroke="#203d98" d="M405.94,-760.29C407.15,-751.61 408.42,-742.58 409.66,-733.71"/>
<polygon fill="#203d98" stroke="#203d98" points="413.13,-734.18 411.05,-723.79 406.2,-733.21 413.13,-734.18"/>
</g>
<!-- node0x5a852299f0f0 -->
<g id="node6" class="node">
<title>node0x5a852299f0f0</title>
<path fill="#e07082" stroke="#203d98" d="M586,-608.5C586,-608.5 912,-608.5 912,-608.5 918,-608.5 924,-614.5 924,-620.5 924,-620.5 924,-711.5 924,-711.5 924,-717.5 918,-723.5 912,-723.5 912,-723.5 586,-723.5 586,-723.5 580,-723.5 574,-717.5 574,-711.5 574,-711.5 574,-620.5 574,-620.5 574,-614.5 580,-608.5 586,-608.5"/>
<text text-anchor="middle" x="749" y="-708.3" font-family="Times,serif" font-size="14.00">indx: 0x5a852299f0f0</text>
<polyline fill="none" stroke="#203d98" points="574,-700.5 924,-700.5 "/>
<text text-anchor="middle" x="749" y="-685.3" font-family="Times,serif" font-size="14.00">type: 4</text>
<polyline fill="none" stroke="#203d98" points="574,-677.5 924,-677.5 "/>
<text text-anchor="middle" x="749" y="-662.3" font-family="Times,serif" font-size="14.00">value: i</text>
<polyline fill="none" stroke="#203d98" points="574,-654.5 924,-654.5 "/>
<text text-anchor="middle" x="749" y="-639.3" font-family="Times,serif" font-size="14.00">parent: 0x5a852299f120</text>
<polyline fill="none" stroke="#203d98" points="574,-631.5 924,-631.5 "/>
<text text-anchor="middle" x="659" y="-616.3" font-family="Times,serif" font-size="14.00">left: 0x5a852299f060</text>
<polyline fill="none" stroke="#203d98" points="744,-608.5 744,-631.5 "/>
<text text-anchor="middle" x="834" y="-616.3" font-family="Times,serif" font-size="14.00">right: 0x5a852299f0c0</text>
</g>
<!-- node0x5a852299f120&#45;&gt;node0x5a852299f0f0 -->
<g id="edge5" class="edge">
<title>node0x5a852299f120&#45;&gt;node0x5a852299f0f0</title>
<path fill="none" stroke="#203d98" d="M761.44,-760.29C760.28,-751.61 759.08,-742.58 757.89,-733.71"/>
<polygon fill="#203d98" stroke="#203d98" points="761.36,-733.24 756.57,-723.79 754.42,-734.16 761.36,-733.24"/>
</g>
<!-- node0x5a852299f210 -->
<g id="node15" class="node">
<title>node0x5a852299f210</title>
<path fill="#e07082" stroke="#203d98" d="M1012.5,-608.5C1012.5,-608.5 1247.5,-608.5 1247.5,-608.5 1253.5,-608.5 1259.5,-614.5 1259.5,-620.5 1259.5,-620.5 1259.5,-711.5 1259.5,-711.5 1259.5,-717.5 1253.5,-723.5 1247.5,-723.5 1247.5,-723.5 1012.5,-723.5 1012.5,-723.5 1006.5,-723.5 1000.5,-717.5 1000.5,-711.5 1000.5,-711.5 1000.5,-620.5 1000.5,-620.5 1000.5,-614.5 1006.5,-608.5 1012.5,-608.5"/>
<text text-anchor="middle" x="1130" y="-708.3" font-family="Times,serif" font-size="14.00">indx: 0x5a852299f210</text>
<polyline fill="none" stroke="#203d98" points="1000.5,-700.5 1259.5,-700.5 "/>
<text text-anchor="middle" x="1130" y="-685.3" font-family="Times,serif" font-size="14.00">type: 0</text>
<polyline fill="none" stroke="#203d98" points="1000.5,-677.5 1259.5,-677.5 "/>
<text text-anchor="middle" x="1130" y="-662.3" font-family="Times,serif" font-size="14.00">value: ;</text>
<polyline fill="none" stroke="#203d98" points="1000.5,-654.5 1259.5,-654.5 "/>
<text text-anchor="middle" x="1130" y="-639.3" font-family="Times,serif" font-size="14.00">parent: (nil)</text>
<polyline fill="none" stroke="#203d98" points="1000.5,-631.5 1259.5,-631.5 "/>
<text text-anchor="middle" x="1085.5" y="-616.3" font-family="Times,serif" font-size="14.00">left: 0x5a852299f1e0</text>
<polyline fill="none" stroke="#203d98" points="1170.5,-608.5 1170.5,-631.5 "/>
<text text-anchor="middle" x="1215" y="-616.3" font-family="Times,serif" font-size="14.00">right: (nil)</text>
</g>
<!-- node0x5a852299f120&#45;&gt;node0x5a852299f210 -->
<g id="edge14" class="edge">
<title>node0x5a852299f120&#45;&gt;node0x5a852299f210</title>
<path fill="none" stroke="#203d98" d="M905.22,-760.4C933.22,-748.76 962.73,-736.5 990.83,-724.82"/>
<polygon fill="#203d98" stroke="#203d98" points="992.41,-727.96 1000.31,-720.89 989.73,-721.49 992.41,-727.96"/>
</g>
<!-- node0x5a852299f060 -->
<g id="node7" class="node">
<title>node0x5a852299f060</title>
<path fill="#e07082" stroke="#203d98" d="M142,-456.5C142,-456.5 476,-456.5 476,-456.5 482,-456.5 488,-462.5 488,-468.5 488,-468.5 488,-559.5 488,-559.5 488,-565.5 482,-571.5 476,-571.5 476,-571.5 142,-571.5 142,-571.5 136,-571.5 130,-565.5 130,-559.5 130,-559.5 130,-468.5 130,-468.5 130,-462.5 136,-456.5 142,-456.5"/>
<text text-anchor="middle" x="309" y="-556.3" font-family="Times,serif" font-size="14.00">indx: 0x5a852299f060</text>
<polyline fill="none" stroke="#203d98" points="130,-548.5 488,-548.5 "/>
<text text-anchor="middle" x="309" y="-533.3" font-family="Times,serif" font-size="14.00">type: 1</text>
<polyline fill="none" stroke="#203d98" points="130,-525.5 488,-525.5 "/>
<text text-anchor="middle" x="309" y="-510.3" font-family="Times,serif" font-size="14.00">value: &#45;</text>
<polyline fill="none" stroke="#203d98" points="130,-502.5 488,-502.5 "/>
<text text-anchor="middle" x="309" y="-487.3" font-family="Times,serif" font-size="14.00">parent: 0x5a852299f0f0</text>
<polyline fill="none" stroke="#203d98" points="130,-479.5 488,-479.5 "/>
<text text-anchor="middle" x="216.5" y="-464.3" font-family="Times,serif" font-size="14.00">left: 0x5a852299e7a0</text>
<polyline fill="none" stroke="#203d98" points="303,-456.5 303,-479.5 "/>
<text text-anchor="middle" x="395.5" y="-464.3" font-family="Times,serif" font-size="14.00">right: 0x5a852299e800</text>
</g>
<!-- node0x5a852299f0f0&#45;&gt;node0x5a852299f060 -->
<g id="edge6" class="edge">
<title>node0x5a852299f0f0&#45;&gt;node0x5a852299f060</title>
<path fill="none" stroke="#203d98" d="M582.97,-608.4C550.84,-597.44 517.06,-585.93 484.64,-574.88"/>
<polygon fill="#203d98" stroke="#203d98" points="485.67,-571.53 475.08,-571.62 483.41,-578.16 485.67,-571.53"/>
</g>
<!-- node0x5a852299f0c0 -->
<g id="node10" class="node">
<title>node0x5a852299f0c0</title>
<path fill="#e07082" stroke="#203d98" d="M583.5,-456.5C583.5,-456.5 914.5,-456.5 914.5,-456.5 920.5,-456.5 926.5,-462.5 926.5,-468.5 926.5,-468.5 926.5,-559.5 926.5,-559.5 926.5,-565.5 920.5,-571.5 914.5,-571.5 914.5,-571.5 583.5,-571.5 583.5,-571.5 577.5,-571.5 571.5,-565.5 571.5,-559.5 571.5,-559.5 571.5,-468.5 571.5,-468.5 571.5,-462.5 577.5,-456.5 583.5,-456.5"/>
<text text-anchor="middle" x="749" y="-556.3" font-family="Times,serif" font-size="14.00">indx: 0x5a852299f0c0</text>
<polyline fill="none" stroke="#203d98" points="571.5,-548.5 926.5,-548.5 "/>
<text text-anchor="middle" x="749" y="-533.3" font-family="Times,serif" font-size="14.00">type: 1</text>
<polyline fill="none" stroke="#203d98" points="571.5,-525.5 926.5,-525.5 "/>
<text text-anchor="middle" x="749" y="-510.3" font-family="Times,serif" font-size="14.00">value: =</text>
<polyline fill="none" stroke="#203d98" points="571.5,-502.5 926.5,-502.5 "/>
<text text-anchor="middle" x="749" y="-487.3" font-family="Times,serif" font-size="14.00">parent: 0x5a852299f0f0</text>
<polyline fill="none" stroke="#203d98" points="571.5,-479.5 926.5,-479.5 "/>
<text text-anchor="middle" x="658" y="-464.3" font-family="Times,serif" font-size="14.00">left: 0x5a852299e860</text>
<polyline fill="none" stroke="#203d98" points="744.5,-456.5 744.5,-479.5 "/>
<text text-anchor="middle" x="835.5" y="-464.3" font-family="Times,serif" font-size="14.00">right: 0x5a852299f090</text>
</g>
<!-- node0x5a852299f0f0&#45;&gt;node0x5a852299f0c0 -->
<g id="edge9" class="edge">
<title>node0x5a852299f0f0&#45;&gt;node0x5a852299f0c0</title>
<path fill="none" stroke="#203d98" d="M749,-608.29C749,-599.7 749,-590.78 749,-582"/>
<polygon fill="#203d98" stroke="#203d98" points="752.5,-581.79 749,-571.79 745.5,-581.79 752.5,-581.79"/>
</g>
<!-- node0x5a852299e7a0 -->
<g id="node8" class="node">
<title>node0x5a852299e7a0</title>
<path fill="#faaa82" stroke="#203d98" d="M12,-304.5C12,-304.5 182,-304.5 182,-304.5 188,-304.5 194,-310.5 194,-316.5 194,-316.5 194,-407.5 194,-407.5 194,-413.5 188,-419.5 182,-419.5 182,-419.5 12,-419.5 12,-419.5 6,-419.5 0,-413.5 0,-407.5 0,-407.5 0,-316.5 0,-316.5 0,-310.5 6,-304.5 12,-304.5"/>
<text text-anchor="middle" x="97" y="-404.3" font-family="Times,serif" font-size="14.00">indx: 0x5a852299e7a0</text>
<polyline fill="none" stroke="#203d98" points="0,-396.5 194,-396.5 "/>
<text text-anchor="middle" x="97" y="-381.3" font-family="Times,serif" font-size="14.00">type: 3</text>
<polyline fill="none" stroke="#203d98" points="0,-373.5 194,-373.5 "/>
<text text-anchor="middle" x="97" y="-358.3" font-family="Times,serif" font-size="14.00">value: 7.00</text>
<polyline fill="none" stroke="#203d98" points="0,-350.5 194,-350.5 "/>
<text text-anchor="middle" x="97" y="-335.3" font-family="Times,serif" font-size="14.00">parent: 0x5a852299f060</text>
<polyline fill="none" stroke="#203d98" points="0,-327.5 194,-327.5 "/>
<text text-anchor="middle" x="45.5" y="-312.3" font-family="Times,serif" font-size="14.00">left: (nil)</text>
<polyline fill="none" stroke="#203d98" points="91,-304.5 91,-327.5 "/>
<text text-anchor="middle" x="142.5" y="-312.3" font-family="Times,serif" font-size="14.00">right: (nil)</text>
</g>
<!-- node0x5a852299f060&#45;&gt;node0x5a852299e7a0 -->
<g id="edge7" class="edge">
<title>node0x5a852299f060&#45;&gt;node0x5a852299e7a0</title>
<path fill="none" stroke="#203d98" d="M228.85,-456.29C214.64,-446.24 199.77,-435.71 185.34,-425.51"/>
<polygon fill="#203d98" stroke="#203d98" points="187.09,-422.46 176.91,-419.54 183.05,-428.17 187.09,-422.46"/>
</g>
<!-- node0x5a852299e800 -->
<g id="node9" class="node">
<title>node0x5a852299e800</title>
<path fill="#faaa82" stroke="#203d98" d="M224,-304.5C224,-304.5 394,-304.5 394,-304.5 400,-304.5 406,-310.5 406,-316.5 406,-316.5 406,-407.5 406,-407.5 406,-413.5 400,-419.5 394,-419.5 394,-419.5 224,-419.5 224,-419.5 218,-419.5 212,-413.5 212,-407.5 212,-407.5 212,-316.5 212,-316.5 212,-310.5 218,-304.5 224,-304.5"/>
<text text-anchor="middle" x="309" y="-404.3" font-family="Times,serif" font-size="14.00">indx: 0x5a852299e800</text>
<polyline fill="none" stroke="#203d98" points="212,-396.5 406,-396.5 "/>
<text text-anchor="middle" x="309" y="-381.3" font-family="Times,serif" font-size="14.00">type: 3</text>
<polyline fill="none" stroke="#203d98" points="212,-373.5 406,-373.5 "/>
<text text-anchor="middle" x="309" y="-358.3" font-family="Times,serif" font-size="14.00">value: 8.00</text>
<polyline fill="none" stroke="#203d98" points="212,-350.5 406,-350.5 "/>
<text text-anchor="middle" x="309" y="-335.3" font-family="Times,serif" font-size="14.00">parent: 0x5a852299f060</text>
<polyline fill="none" stroke="#203d98" points="212,-327.5 406,-327.5 "/>
<text text-anchor="middle" x="257.5" y="-312.3" font-family="Times,serif" font-size="14.00">left: (nil)</text>
<polyline fill="none" stroke="#203d98" points="303,-304.5 303,-327.5 "/>
<text text-anchor="middle" x="354.5" y="-312.3" font-family="Times,serif" font-size="14.00">right: (nil)</text>
</g>
<!-- node0x5a852299f060&#45;&gt;node0x5a852299e800 -->
<g id="edge8" class="edge">
<title>node0x5a852299f060&#45;&gt;node0x5a852299e800</title>
<path fill="none" stroke="#203d98" d="M309,-456.29C309,-447.7 309,-438.78 309,-430"/>
<polygon fill="#203d98" stroke="#203d98" points="312.5,-429.79 309,-419.79 305.5,-429.79 312.5,-429.79"/>
</g>
<!-- node0x5a852299e860 -->
<g id="node11" class="node">
<title>node0x5a852299e860</title>
<path fill="#a24892" stroke="#203d98" d="M436,-304.5C436,-304.5 604,-304.5 604,-304.5 610,-304.5 616,-310.5 616,-316.5 616,-316.5 616,-407.5 616,-407.5 616,-413.5 610,-419.5 604,-419.5 604,-419.5 436,-419.5 436,-419.5 430,-419.5 424,-413.5 424,-407.5 424,-407.5 424,-316.5 424,-316.5 424,-310.5 430,-304.5 436,-304.5"/>
<text text-anchor="middle" x="520" y="-404.3" font-family="Times,serif" font-size="14.00">indx: 0x5a852299e860</text>
<polyline fill="none" stroke="#203d98" points="424,-396.5 616,-396.5 "/>
<text text-anchor="middle" x="520" y="-381.3" font-family="Times,serif" font-size="14.00">type: 2</text>
<polyline fill="none" stroke="#203d98" points="424,-373.5 616,-373.5 "/>
<text text-anchor="middle" x="520" y="-358.3" font-family="Times,serif" font-size="14.00">value: 1</text>
<polyline fill="none" stroke="#203d98" points="424,-350.5 616,-350.5 "/>
<text text-anchor="middle" x="520" y="-335.3" font-family="Times,serif" font-size="14.00">parent: 0x5a852299f0c0</text>
<polyline fill="none" stroke="#203d98" points="424,-327.5 616,-327.5 "/>
<text text-anchor="middle" x="469" y="-312.3" font-family="Times,serif" font-size="14.00">left: (nil)</text>
<polyline fill="none" stroke="#203d98" points="514,-304.5 514,-327.5 "/>
<text text-anchor="middle" x="565" y="-312.3" font-family="Times,serif" font-size="14.00">right: (nil)</text>
</g>
<!-- node0x5a852299f0c0&#45;&gt;node0x5a852299e860 -->
<g id="edge10" class="edge">
<title>node0x5a852299f0c0&#45;&gt;node0x5a852299e860</title>
<path fill="none" stroke="#203d98" d="M662.42,-456.29C646.93,-446.14 630.71,-435.52 614.99,-425.22"/>
<polygon fill="#203d98" stroke="#203d98" points="616.6,-422.09 606.32,-419.54 612.76,-427.95 616.6,-422.09"/>
</g>
<!-- node0x5a852299f090 -->
<g id="node12" class="node">
<title>node0x5a852299f090</title>
<path fill="#e07082" stroke="#203d98" d="M646.5,-304.5C646.5,-304.5 979.5,-304.5 979.5,-304.5 985.5,-304.5 991.5,-310.5 991.5,-316.5 991.5,-316.5 991.5,-407.5 991.5,-407.5 991.5,-413.5 985.5,-419.5 979.5,-419.5 979.5,-419.5 646.5,-419.5 646.5,-419.5 640.5,-419.5 634.5,-413.5 634.5,-407.5 634.5,-407.5 634.5,-316.5 634.5,-316.5 634.5,-310.5 640.5,-304.5 646.5,-304.5"/>
<text text-anchor="middle" x="813" y="-404.3" font-family="Times,serif" font-size="14.00">indx: 0x5a852299f090</text>
<polyline fill="none" stroke="#203d98" points="634.5,-396.5 991.5,-396.5 "/>
<text text-anchor="middle" x="813" y="-381.3" font-family="Times,serif" font-size="14.00">type: 1</text>
<polyline fill="none" stroke="#203d98" points="634.5,-373.5 991.5,-373.5 "/>
<text text-anchor="middle" x="813" y="-358.3" font-family="Times,serif" font-size="14.00">value: &#45;</text>
<polyline fill="none" stroke="#203d98" points="634.5,-350.5 991.5,-350.5 "/>
<text text-anchor="middle" x="813" y="-335.3" font-family="Times,serif" font-size="14.00">parent: 0x5a852299f0c0</text>
<polyline fill="none" stroke="#203d98" points="634.5,-327.5 991.5,-327.5 "/>
<text text-anchor="middle" x="720.5" y="-312.3" font-family="Times,serif" font-size="14.00">left: 0x5a852299e8c0</text>
<polyline fill="none" stroke="#203d98" points="806.5,-304.5 806.5,-327.5 "/>
<text text-anchor="middle" x="899" y="-312.3" font-family="Times,serif" font-size="14.00">right: 0x5a852299e920</text>
</g>
<!-- node0x5a852299f0c0&#45;&gt;node0x5a852299f090 -->
<g id="edge11" class="edge">
<title>node0x5a852299f0c0&#45;&gt;node0x5a852299f090</title>
<path fill="none" stroke="#203d98" d="M773.2,-456.29C776.98,-447.42 780.92,-438.19 784.78,-429.14"/>
<polygon fill="#203d98" stroke="#203d98" points="788.06,-430.36 788.77,-419.79 781.63,-427.61 788.06,-430.36"/>
</g>
<!-- node0x5a852299e8c0 -->
<g id="node13" class="node">
<title>node0x5a852299e8c0</title>
<path fill="#faaa82" stroke="#203d98" d="M530,-152.5C530,-152.5 700,-152.5 700,-152.5 706,-152.5 712,-158.5 712,-164.5 712,-164.5 712,-255.5 712,-255.5 712,-261.5 706,-267.5 700,-267.5 700,-267.5 530,-267.5 530,-267.5 524,-267.5 518,-261.5 518,-255.5 518,-255.5 518,-164.5 518,-164.5 518,-158.5 524,-152.5 530,-152.5"/>
<text text-anchor="middle" x="615" y="-252.3" font-family="Times,serif" font-size="14.00">indx: 0x5a852299e8c0</text>
<polyline fill="none" stroke="#203d98" points="518,-244.5 712,-244.5 "/>
<text text-anchor="middle" x="615" y="-229.3" font-family="Times,serif" font-size="14.00">type: 3</text>
<polyline fill="none" stroke="#203d98" points="518,-221.5 712,-221.5 "/>
<text text-anchor="middle" x="615" y="-206.3" font-family="Times,serif" font-size="14.00">value: 78.00</text>
<polyline fill="none" stroke="#203d98" points="518,-198.5 712,-198.5 "/>
<text text-anchor="middle" x="615" y="-183.3" font-family="Times,serif" font-size="14.00">parent: 0x5a852299f090</text>
<polyline fill="none" stroke="#203d98" points="518,-175.5 712,-175.5 "/>
<text text-anchor="middle" x="563.5" y="-160.3" font-family="Times,serif" font-size="14.00">left: (nil)</text>
<polyline fill="none" stroke="#203d98" points="609,-152.5 609,-175.5 "/>
<text text-anchor="middle" x="660.5" y="-160.3" font-family="Times,serif" font-size="14.00">right: (nil)</text>
</g>
<!-- node0x5a852299f090&#45;&gt;node0x5a852299e8c0 -->
<g id="edge12" class="edge">
<title>node0x5a852299f090&#45;&gt;node0x5a852299e8c0</title>
<path fill="none" stroke="#203d98" d="M738.14,-304.29C724.99,-294.33 711.24,-283.91 697.89,-273.79"/>
<polygon fill="#203d98" stroke="#203d98" points="699.72,-270.79 689.63,-267.54 695.49,-276.37 699.72,-270.79"/>
</g>
<!-- node0x5a852299e920 -->
<g id="node14" class="node">
<title>node0x5a852299e920</title>
<path fill="#faaa82" stroke="#203d98" d="M742,-152.5C742,-152.5 912,-152.5 912,-152.5 918,-152.5 924,-158.5 924,-164.5 924,-164.5 924,-255.5 924,-255.5 924,-261.5 918,-267.5 912,-267.5 912,-267.5 742,-267.5 742,-267.5 736,-267.5 730,-261.5 730,-255.5 730,-255.5 730,-164.5 730,-164.5 730,-158.5 736,-152.5 742,-152.5"/>
<text text-anchor="middle" x="827" y="-252.3" font-family="Times,serif" font-size="14.00">indx: 0x5a852299e920</text>
<polyline fill="none" stroke="#203d98" points="730,-244.5 924,-244.5 "/>
<text text-anchor="middle" x="827" y="-229.3" font-family="Times,serif" font-size="14.00">type: 3</text>
<polyline fill="none" stroke="#203d98" points="730,-221.5 924,-221.5 "/>
<text text-anchor="middle" x="827" y="-206.3" font-family="Times,serif" font-size="14.00">value: 9.00</text>
<polyline fill="none" stroke="#203d98" points="730,-198.5 924,-198.5 "/>
<text text-anchor="middle" x="827" y="-183.3" font-family="Times,serif" font-size="14.00">parent: 0x5a852299f090</text>
<polyline fill="none" stroke="#203d98" points="730,-175.5 924,-175.5 "/>
<text text-anchor="middle" x="775.5" y="-160.3" font-family="Times,serif" font-size="14.00">left: (nil)</text>
<polyline fill="none" stroke="#203d98" points="821,-152.5 821,-175.5 "/>
<text text-anchor="middle" x="872.5" y="-160.3" font-family="Times,serif" font-size="14.00">right: (nil)</text>
</g>
<!-- node0x5a852299f090&#45;&gt;node0x5a852299e920 -->
<g id="edge13" class="edge">
<title>node0x5a852299f090&#45;&gt;node0x5a852299e920</title>
<path fill="none" stroke="#203d98" d="M818.29,-304.29C819.09,-295.7 819.93,-286.78 820.75,-278"/>
<polygon fill="#203d98" stroke="#203d98" points="824.26,-278.07 821.7,-267.79 817.29,-277.42 824.26,-278.07"/>
</g>
<!-- node0x5a852299f1e0 -->
<g id="node16" class="node">
<title>node0x5a852299f1e0</title>
<path fill="#e07082" stroke="#203d98" d="M1024,-456.5C1024,-456.5 1352,-456.5 1352,-456.5 1358,-456.5 1364,-462.5 1364,-468.5 1364,-468.5 1364,-559.5 1364,-559.5 1364,-565.5 1358,-571.5 1352,-571.5 1352,-571.5 1024,-571.5 1024,-571.5 1018,-571.5 1012,-565.5 1012,-559.5 1012,-559.5 1012,-468.5 1012,-468.5 1012,-462.5 1018,-456.5 1024,-456.5"/>
<text text-anchor="middle" x="1188" y="-556.3" font-family="Times,serif" font-size="14.00">indx: 0x5a852299f1e0</text>
<polyline fill="none" stroke="#203d98" points="1012,-548.5 1364,-548.5 "/>
<text text-anchor="middle" x="1188" y="-533.3" font-family="Times,serif" font-size="14.00">type: 4</text>
<polyline fill="none" stroke="#203d98" points="1012,-525.5 1364,-525.5 "/>
<text text-anchor="middle" x="1188" y="-510.3" font-family="Times,serif" font-size="14.00">value: w</text>
<polyline fill="none" stroke="#203d98" points="1012,-502.5 1364,-502.5 "/>
<text text-anchor="middle" x="1188" y="-487.3" font-family="Times,serif" font-size="14.00">parent: 0x5a852299f210</text>
<polyline fill="none" stroke="#203d98" points="1012,-479.5 1364,-479.5 "/>
<text text-anchor="middle" x="1097" y="-464.3" font-family="Times,serif" font-size="14.00">left: 0x5a852299f150</text>
<polyline fill="none" stroke="#203d98" points="1182,-456.5 1182,-479.5 "/>
<text text-anchor="middle" x="1273" y="-464.3" font-family="Times,serif" font-size="14.00">right: 0x5a852299f1b0</text>
</g>
<!-- node0x5a852299f210&#45;&gt;node0x5a852299f1e0 -->
<g id="edge15" class="edge">
<title>node0x5a852299f210&#45;&gt;node0x5a852299f1e0</title>
<path fill="none" stroke="#203d98" d="M1151.93,-608.29C1155.36,-599.42 1158.92,-590.19 1162.43,-581.14"/>
<polygon fill="#203d98" stroke="#203d98" points="1165.7,-582.38 1166.04,-571.79 1159.17,-579.85 1165.7,-582.38"/>
</g>
<!-- node0x5a852299f150 -->
<g id="node17" class="node">
<title>node0x5a852299f150</title>
<path fill="#e07082" stroke="#203d98" d="M1021.5,-304.5C1021.5,-304.5 1354.5,-304.5 1354.5,-304.5 1360.5,-304.5 1366.5,-310.5 1366.5,-316.5 1366.5,-316.5 1366.5,-407.5 1366.5,-407.5 1366.5,-413.5 1360.5,-419.5 1354.5,-419.5 1354.5,-419.5 1021.5,-419.5 1021.5,-419.5 1015.5,-419.5 1009.5,-413.5 1009.5,-407.5 1009.5,-407.5 1009.5,-316.5 1009.5,-316.5 1009.5,-310.5 1015.5,-304.5 1021.5,-304.5"/>
<text text-anchor="middle" x="1188" y="-404.3" font-family="Times,serif" font-size="14.00">indx: 0x5a852299f150</text>
<polyline fill="none" stroke="#203d98" points="1009.5,-396.5 1366.5,-396.5 "/>
<text text-anchor="middle" x="1188" y="-381.3" font-family="Times,serif" font-size="14.00">type: 1</text>
<polyline fill="none" stroke="#203d98" points="1009.5,-373.5 1366.5,-373.5 "/>
<text text-anchor="middle" x="1188" y="-358.3" font-family="Times,serif" font-size="14.00">value: &#45;</text>
<polyline fill="none" stroke="#203d98" points="1009.5,-350.5 1366.5,-350.5 "/>
<text text-anchor="middle" x="1188" y="-335.3" font-family="Times,serif" font-size="14.00">parent: 0x5a852299f1e0</text>
<polyline fill="none" stroke="#203d98" points="1009.5,-327.5 1366.5,-327.5 "/>
<text text-anchor="middle" x="1096" y="-312.3" font-family="Times,serif" font-size="14.00">left: 0x5a852299e9e0</text>
<polyline fill="none" stroke="#203d98" points="1182.5,-304.5 1182.5,-327.5 "/>
<text text-anchor="middle" x="1274.5" y="-312.3" font-family="Times,serif" font-size="14.00">right: 0x5a852299ea40</text>
</g>
<!-- node0x5a852299f1e0&#45;&gt;node0x5a852299f150 -->
<g id="edge16" class="edge">
<title>node0x5a852299f1e0&#45;&gt;node0x5a852299f150</title>
<path fill="none" stroke="#203d98" d="M1188,-456.29C1188,-447.7 1188,-438.78 1188,-430"/>
<polygon fill="#203d98" stroke="#203d98" points="1191.5,-429.79 1188,-419.79 1184.5,-429.79 1191.5,-429.79"/>
</g>
<!-- node0x5a852299f1b0 -->
<g id="node20" class="node">
<title>node0x5a852299f1b0</title>
<path fill="#e07082" stroke="#203d98" d="M1397,-304.5C1397,-304.5 1727,-304.5 1727,-304.5 1733,-304.5 1739,-310.5 1739,-316.5 1739,-316.5 1739,-407.5 1739,-407.5 1739,-413.5 1733,-419.5 1727,-419.5 1727,-419.5 1397,-419.5 1397,-419.5 1391,-419.5 1385,-413.5 1385,-407.5 1385,-407.5 1385,-316.5 1385,-316.5 1385,-310.5 1391,-304.5 1397,-304.5"/>
<text text-anchor="middle" x="1562" y="-404.3" font-family="Times,serif" font-size="14.00">indx: 0x5a852299f1b0</text>
<polyline fill="none" stroke="#203d98" points="1385,-396.5 1739,-396.5 "/>
<text text-anchor="middle" x="1562" y="-381.3" font-family="Times,serif" font-size="14.00">type: 1</text>
<polyline fill="none" stroke="#203d98" points="1385,-373.5 1739,-373.5 "/>
<text text-anchor="middle" x="1562" y="-358.3" font-family="Times,serif" font-size="14.00">value: =</text>
<polyline fill="none" stroke="#203d98" points="1385,-350.5 1739,-350.5 "/>
<text text-anchor="middle" x="1562" y="-335.3" font-family="Times,serif" font-size="14.00">parent: 0x5a852299f1e0</text>
<polyline fill="none" stroke="#203d98" points="1385,-327.5 1739,-327.5 "/>
<text text-anchor="middle" x="1471" y="-312.3" font-family="Times,serif" font-size="14.00">left: 0x5a852299eaa0</text>
<polyline fill="none" stroke="#203d98" points="1557,-304.5 1557,-327.5 "/>
<text text-anchor="middle" x="1648" y="-312.3" font-family="Times,serif" font-size="14.00">right: 0x5a852299f180</text>
</g>
<!-- node0x5a852299f1e0&#45;&gt;node0x5a852299f1b0 -->
<g id="edge19" class="edge">
<title>node0x5a852299f1e0&#45;&gt;node0x5a852299f1b0</title>
<path fill="none" stroke="#203d98" d="M1329.13,-456.4C1355.97,-445.63 1384.16,-434.33 1411.29,-423.45"/>
<polygon fill="#203d98" stroke="#203d98" points="1412.86,-426.59 1420.84,-419.62 1410.25,-420.09 1412.86,-426.59"/>
</g>
<!-- node0x5a852299e9e0 -->
<g id="node18" class="node">
<title>node0x5a852299e9e0</title>
<path fill="#faaa82" stroke="#203d98" d="M1010,-152.5C1010,-152.5 1180,-152.5 1180,-152.5 1186,-152.5 1192,-158.5 1192,-164.5 1192,-164.5 1192,-255.5 1192,-255.5 1192,-261.5 1186,-267.5 1180,-267.5 1180,-267.5 1010,-267.5 1010,-267.5 1004,-267.5 998,-261.5 998,-255.5 998,-255.5 998,-164.5 998,-164.5 998,-158.5 1004,-152.5 1010,-152.5"/>
<text text-anchor="middle" x="1095" y="-252.3" font-family="Times,serif" font-size="14.00">indx: 0x5a852299e9e0</text>
<polyline fill="none" stroke="#203d98" points="998,-244.5 1192,-244.5 "/>
<text text-anchor="middle" x="1095" y="-229.3" font-family="Times,serif" font-size="14.00">type: 3</text>
<polyline fill="none" stroke="#203d98" points="998,-221.5 1192,-221.5 "/>
<text text-anchor="middle" x="1095" y="-206.3" font-family="Times,serif" font-size="14.00">value: 3.00</text>
<polyline fill="none" stroke="#203d98" points="998,-198.5 1192,-198.5 "/>
<text text-anchor="middle" x="1095" y="-183.3" font-family="Times,serif" font-size="14.00">parent: 0x5a852299f150</text>
<polyline fill="none" stroke="#203d98" points="998,-175.5 1192,-175.5 "/>
<text text-anchor="middle" x="1043.5" y="-160.3" font-family="Times,serif" font-size="14.00">left: (nil)</text>
<polyline fill="none" stroke="#203d98" points="1089,-152.5 1089,-175.5 "/>
<text text-anchor="middle" x="1140.5" y="-160.3" font-family="Times,serif" font-size="14.00">right: (nil)</text>
</g>
<!-- node0x5a852299f150&#45;&gt;node0x5a852299e9e0 -->
<g id="edge17" class="edge">
<title>node0x5a852299f150&#45;&gt;node0x5a852299e9e0</title>
<path fill="none" stroke="#203d98" d="M1152.84,-304.29C1147.23,-295.24 1141.38,-285.81 1135.65,-276.57"/>
<polygon fill="#203d98" stroke="#203d98" points="1138.45,-274.44 1130.21,-267.79 1132.5,-278.13 1138.45,-274.44"/>
</g>
<!-- node0x5a852299ea40 -->
<g id="node19" class="node">
<title>node0x5a852299ea40</title>
<path fill="#faaa82" stroke="#203d98" d="M1222,-152.5C1222,-152.5 1392,-152.5 1392,-152.5 1398,-152.5 1404,-158.5 1404,-164.5 1404,-164.5 1404,-255.5 1404,-255.5 1404,-261.5 1398,-267.5 1392,-267.5 1392,-267.5 1222,-267.5 1222,-267.5 1216,-267.5 1210,-261.5 1210,-255.5 1210,-255.5 1210,-164.5 1210,-164.5 1210,-158.5 1216,-152.5 1222,-152.5"/>
<text text-anchor="middle" x="1307" y="-252.3" font-family="Times,serif" font-size="14.00">indx: 0x5a852299ea40</text>
<polyline fill="none" stroke="#203d98" points="1210,-244.5 1404,-244.5 "/>
<text text-anchor="middle" x="1307" y="-229.3" font-family="Times,serif" font-size="14.00">type: 3</text>
<polyline fill="none" stroke="#203d98" points="1210,-221.5 1404,-221.5 "/>
<text text-anchor="middle" x="1307" y="-206.3" font-family="Times,serif" font-size="14.00">value: 0.00</text>
<polyline fill="none" stroke="#203d98" points="1210,-198.5 1404,-198.5 "/>
<text text-anchor="middle" x="1307" y="-183.3" font-family="Times,serif" font-size="14.00">parent: 0x5a852299f150</text>
<polyline fill="none" stroke="#203d98" points="1210,-175.5 1404,-175.5 "/>
<text text-anchor="middle" x="1255.5" y="-160.3" font-family="Times,serif" font-size="14.00">left: (nil)</text>
<polyline fill="none" stroke="#203d98" points="1301,-152.5 1301,-175.5 "/>
<text text-anchor="middle" x="1352.5" y="-160.3" font-family="Times,serif" font-size="14.00">right: (nil)</text>
</g>
<!-- node0x5a852299f150&#45;&gt;node0x5a852299ea40 -->
<g id="edge18" class="edge">
<title>node0x5a852299f150&#45;&gt;node0x5a852299ea40</title>
<path fill="none" stroke="#203d98" d="M1232.99,-304.29C1240.39,-294.96 1248.12,-285.22 1255.66,-275.71"/>
<polygon fill="#203d98" stroke="#203d98" points="1258.47,-277.8 1261.95,-267.79 1252.99,-273.45 1258.47,-277.8"/>
</g>
<!-- node0x5a852299eaa0 -->
<g id="node21" class="node">
<title>node0x5a852299eaa0</title>
<path fill="#a24892" stroke="#203d98" d="M1462,-152.5C1462,-152.5 1632,-152.5 1632,-152.5 1638,-152.5 1644,-158.5 1644,-164.5 1644,-164.5 1644,-255.5 1644,-255.5 1644,-261.5 1638,-267.5 1632,-267.5 1632,-267.5 1462,-267.5 1462,-267.5 1456,-267.5 1450,-261.5 1450,-255.5 1450,-255.5 1450,-164.5 1450,-164.5 1450,-158.5 1456,-152.5 1462,-152.5"/>
<text text-anchor="middle" x="1547" y="-252.3" font-family="Times,serif" font-size="14.00">indx: 0x5a852299eaa0</text>
<polyline fill="none" stroke="#203d98" points="1450,-244.5 1644,-244.5 "/>
<text text-anchor="middle" x="1547" y="-229.3" font-family="Times,serif" font-size="14.00">type: 2</text>
<polyline fill="none" stroke="#203d98" points="1450,-221.5 1644,-221.5 "/>
<text text-anchor="middle" x="1547" y="-206.3" font-family="Times,serif" font-size="14.00">value: 0</text>
<polyline fill="none" stroke="#203d98" points="1450,-198.5 1644,-198.5 "/>
<text text-anchor="middle" x="1547" y="-183.3" font-family="Times,serif" font-size="14.00">parent: 0x5a852299f1b0</text>
<polyline fill="none" stroke="#203d98" points="1450,-175.5 1644,-175.5 "/>
<text text-anchor="middle" x="1495.5" y="-160.3" font-family="Times,serif" font-size="14.00">left: (nil)</text>
<polyline fill="none" stroke="#203d98" points="1541,-152.5 1541,-175.5 "/>
<text text-anchor="middle" x="1592.5" y="-160.3" font-family="Times,serif" font-size="14.00">right: (nil)</text>
</g>
<!-- node0x5a852299f1b0&#45;&gt;node0x5a852299eaa0 -->
<g id="edge20" class="edge">
<title>node0x5a852299f1b0&#45;&gt;node0x5a852299eaa0</title>
<path fill="none" stroke="#203d98" d="M1556.33,-304.29C1555.47,-295.7 1554.58,-286.78 1553.7,-278"/>
<polygon fill="#203d98" stroke="#203d98" points="1557.16,-277.39 1552.68,-267.79 1550.19,-278.09 1557.16,-277.39"/>
</g>
<!-- node0x5a852299f180 -->
<g id="node22" class="node">
<title>node0x5a852299f180</title>
<path fill="#e07082" stroke="#203d98" d="M1674,-152.5C1674,-152.5 2008,-152.5 2008,-152.5 2014,-152.5 2020,-158.5 2020,-164.5 2020,-164.5 2020,-255.5 2020,-255.5 2020,-261.5 2014,-267.5 2008,-267.5 2008,-267.5 1674,-267.5 1674,-267.5 1668,-267.5 1662,-261.5 1662,-255.5 1662,-255.5 1662,-164.5 1662,-164.5 1662,-158.5 1668,-152.5 1674,-152.5"/>
<text text-anchor="middle" x="1841" y="-252.3" font-family="Times,serif" font-size="14.00">indx: 0x5a852299f180</text>
<polyline fill="none" stroke="#203d98" points="1662,-244.5 2020,-244.5 "/>
<text text-anchor="middle" x="1841" y="-229.3" font-family="Times,serif" font-size="14.00">type: 1</text>
<polyline fill="none" stroke="#203d98" points="1662,-221.5 2020,-221.5 "/>
<text text-anchor="middle" x="1841" y="-206.3" font-family="Times,serif" font-size="14.00">value: +</text>
<polyline fill="none" stroke="#203d98" points="1662,-198.5 2020,-198.5 "/>
<text text-anchor="middle" x="1841" y="-183.3" font-family="Times,serif" font-size="14.00">parent: 0x5a852299f1b0</text>
<polyline fill="none" stroke="#203d98" points="1662,-175.5 2020,-175.5 "/>
<text text-anchor="middle" x="1748.5" y="-160.3" font-family="Times,serif" font-size="14.00">left: 0x5a852299eb00</text>
<polyline fill="none" stroke="#203d98" points="1835,-152.5 1835,-175.5 "/>
<text text-anchor="middle" x="1927.5" y="-160.3" font-family="Times,serif" font-size="14.00">right: 0x5a852299eb60</text>
</g>
<!-- node0x5a852299f1b0&#45;&gt;node0x5a852299f180 -->
<g id="edge21" class="edge">
<title>node0x5a852299f1b0&#45;&gt;node0x5a852299f180</title>
<path fill="none" stroke="#203d98" d="M1667.48,-304.29C1686.88,-293.86 1707.22,-282.92 1726.86,-272.36"/>
<polygon fill="#203d98" stroke="#203d98" points="1728.69,-275.36 1735.84,-267.54 1725.37,-269.19 1728.69,-275.36"/>
</g>
<!-- node0x5a852299eb00 -->
<g id="node23" class="node">
<title>node0x5a852299eb00</title>
<path fill="#a24892" stroke="#203d98" d="M1650,-0.5C1650,-0.5 1820,-0.5 1820,-0.5 1826,-0.5 1832,-6.5 1832,-12.5 1832,-12.5 1832,-103.5 1832,-103.5 1832,-109.5 1826,-115.5 1820,-115.5 1820,-115.5 1650,-115.5 1650,-115.5 1644,-115.5 1638,-109.5 1638,-103.5 1638,-103.5 1638,-12.5 1638,-12.5 1638,-6.5 1644,-0.5 1650,-0.5"/>
<text text-anchor="middle" x="1735" y="-100.3" font-family="Times,serif" font-size="14.00">indx: 0x5a852299eb00</text>
<polyline fill="none" stroke="#203d98" points="1638,-92.5 1832,-92.5 "/>
<text text-anchor="middle" x="1735" y="-77.3" font-family="Times,serif" font-size="14.00">type: 2</text>
<polyline fill="none" stroke="#203d98" points="1638,-69.5 1832,-69.5 "/>
<text text-anchor="middle" x="1735" y="-54.3" font-family="Times,serif" font-size="14.00">value: 0</text>
<polyline fill="none" stroke="#203d98" points="1638,-46.5 1832,-46.5 "/>
<text text-anchor="middle" x="1735" y="-31.3" font-family="Times,serif" font-size="14.00">parent: 0x5a852299f180</text>
<polyline fill="none" stroke="#203d98" points="1638,-23.5 1832,-23.5 "/>
<text text-anchor="middle" x="1683.5" y="-8.3" font-family="Times,serif" font-size="14.00">left: (nil)</text>
<polyline fill="none" stroke="#203d98" points="1729,-0.5 1729,-23.5 "/>
<text text-anchor="middle" x="1780.5" y="-8.3" font-family="Times,serif" font-size="14.00">right: (nil)</text>
</g>
<!-- node0x5a852299f180&#45;&gt;node0x5a852299eb00 -->
<g id="edge22" class="edge">
<title>node0x5a852299f180&#45;&gt;node0x5a852299eb00</title>
<path fill="none" stroke="#203d98" d="M1800.93,-152.29C1794.4,-143.05 1787.59,-133.42 1780.93,-124"/>
<polygon fill="#203d98" stroke="#203d98" points="1783.76,-121.94 1775.13,-115.79 1778.04,-125.98 1783.76,-121.94"/>
</g>
<!-- node0x5a852299eb60 -->
<g id="node24" class="node">
<title>node0x5a852299eb60</title>
<path fill="#faaa82" stroke="#203d98" d="M1862,-0.5C1862,-0.5 2032,-0.5 2032,-0.5 2038,-0.5 2044,-6.5 2044,-12.5 2044,-12.5 2044,-103.5 2044,-103.5 2044,-109.5 2038,-115.5 2032,-115.5 2032,-115.5 1862,-115.5 1862,-115.5 1856,-115.5 1850,-109.5 1850,-103.5 1850,-103.5 1850,-12.5 1850,-12.5 1850,-6.5 1856,-0.5 1862,-0.5"/>
<text text-anchor="middle" x="1947" y="-100.3" font-family="Times,serif" font-size="14.00">indx: 0x5a852299eb60</text>
<polyline fill="none" stroke="#203d98" points="1850,-92.5 2044,-92.5 "/>
<text text-anchor="middle" x="1947" y="-77.3" font-family="Times,serif" font-size="14.00">type: 3</text>
<polyline fill="none" stroke="#203d98" points="1850,-69.5 2044,-69.5 "/>
<text text-anchor="middle" x="1947" y="-54.3" font-family="Times,serif" font-size="14.00">value: 1.00</text>
<polyline fill="none" stroke="#203d98" points="1850,-46.5 2044,-46.5 "/>
<text text-anchor="middle" x="1947" y="-31.3" font-family="Times,serif" font-size="14.00">parent: 0x5a852299f180</text>
<polyline fill="none" stroke="#203d98" points="1850,-23.5 2044,-23.5 "/>
<text text-anchor="middle" x="1895.5" y="-8.3" font-family="Times,serif" font-size="14.00">left: (nil)</text>
<polyline fill="none" stroke="#203d98" points="1941,-0.5 1941,-23.5 "/>
<text text-anchor="middle" x="1992.5" y="-8.3" font-family="Times,serif" font-size="14.00">right: (nil)</text>
</g>
<!-- node0x5a852299f180&#45;&gt;node0x5a852299eb60 -->
<g id="edge23" class="edge">
<title>node0x5a852299f180&#45;&gt;node0x5a852299eb60</title>
<path fill="none" stroke="#203d98" d="M1881.07,-152.29C1887.6,-143.05 1894.41,-133.42 1901.07,-124"/>
<polygon fill="#203d98" stroke="#203d98" points="1903.96,-125.98 1906.87,-115.79 1898.24,-121.94 1903.96,-125.98"/>
</g>
</g>
</svg>
