<?xml version="1.0" encoding="UTF-8" standalone="no"?>
<!DOCTYPE svg PUBLIC "-//W3C//DTD SVG 1.1//EN"
 "http://www.w3.org/Graphics/SVG/1.1/DTD/svg11.dtd">
<!-- Generated by graphviz version 2.43.0 (0)
 -->
<!-- Title: Tree Pages: 1 -->
<svg width="716pt" height="702pt"
 viewBox="0.00 0.00 716.00 702.00" xmlns="http://www.w3.org/2000/svg" xmlns:xlink="http://www.w3.org/1999/xlink">
<g id="graph0" class="graph" transform="scale(1 1) rotate(0) translate(4 698)">
<title>Tree</title>
<polygon fill="#fffeec" stroke="transparent" points="-4,4 -4,-698 712,-698 712,4 -4,4"/>
<!-- node0x6303d61acb70 -->
<g id="node1" class="node">
<title>node0x6303d61acb70</title>
<path fill="#ffcfd2" stroke="#5f5b6a" d="M411,-657.5C411,-657.5 441,-657.5 441,-657.5 447,-657.5 453,-663.5 453,-669.5 453,-669.5 453,-681.5 453,-681.5 453,-687.5 447,-693.5 441,-693.5 441,-693.5 411,-693.5 411,-693.5 405,-693.5 399,-687.5 399,-681.5 399,-681.5 399,-669.5 399,-669.5 399,-663.5 405,-657.5 411,-657.5"/>
<text text-anchor="middle" x="426" y="-671.8" font-family="Times,serif" font-size="14.00">;</text>
</g>
<!-- node0x6303d61acae0 -->
<g id="node2" class="node">
<title>node0x6303d61acae0</title>
<path fill="#f1c0e8" stroke="#5f5b6a" d="M375,-584.5C375,-584.5 405,-584.5 405,-584.5 411,-584.5 417,-590.5 417,-596.5 417,-596.5 417,-608.5 417,-608.5 417,-614.5 411,-620.5 405,-620.5 405,-620.5 375,-620.5 375,-620.5 369,-620.5 363,-614.5 363,-608.5 363,-608.5 363,-596.5 363,-596.5 363,-590.5 369,-584.5 375,-584.5"/>
<text text-anchor="middle" x="390" y="-598.8" font-family="Times,serif" font-size="14.00">if</text>
</g>
<!-- node0x6303d61acb70&#45;&gt;node0x6303d61acae0 -->
<g id="edge1" class="edge">
<title>node0x6303d61acb70&#45;&gt;node0x6303d61acae0</title>
<path fill="none" stroke="#5f5b6a" d="M417.29,-657.31C413.08,-649.03 407.95,-638.91 403.28,-629.69"/>
<polygon fill="#5f5b6a" stroke="#5f5b6a" points="406.28,-627.87 398.63,-620.53 400.04,-631.03 406.28,-627.87"/>
</g>
<!-- node0x6303d61acb40 -->
<g id="node38" class="node">
<title>node0x6303d61acb40</title>
<path fill="#ffcfd2" stroke="#5f5b6a" d="M447,-584.5C447,-584.5 477,-584.5 477,-584.5 483,-584.5 489,-590.5 489,-596.5 489,-596.5 489,-608.5 489,-608.5 489,-614.5 483,-620.5 477,-620.5 477,-620.5 447,-620.5 447,-620.5 441,-620.5 435,-614.5 435,-608.5 435,-608.5 435,-596.5 435,-596.5 435,-590.5 441,-584.5 447,-584.5"/>
<text text-anchor="middle" x="462" y="-598.8" font-family="Times,serif" font-size="14.00">;</text>
</g>
<!-- node0x6303d61acb70&#45;&gt;node0x6303d61acb40 -->
<g id="edge37" class="edge">
<title>node0x6303d61acb70&#45;&gt;node0x6303d61acb40</title>
<path fill="none" stroke="#5f5b6a" d="M434.71,-657.31C438.92,-649.03 444.05,-638.91 448.72,-629.69"/>
<polygon fill="#5f5b6a" stroke="#5f5b6a" points="451.96,-631.03 453.37,-620.53 445.72,-627.87 451.96,-631.03"/>
</g>
<!-- node0x6303d61acab0 -->
<g id="node3" class="node">
<title>node0x6303d61acab0</title>
<path fill="#ffcfd2" stroke="#5f5b6a" d="M374,-511.5C374,-511.5 406,-511.5 406,-511.5 412,-511.5 418,-517.5 418,-523.5 418,-523.5 418,-535.5 418,-535.5 418,-541.5 412,-547.5 406,-547.5 406,-547.5 374,-547.5 374,-547.5 368,-547.5 362,-541.5 362,-535.5 362,-535.5 362,-523.5 362,-523.5 362,-517.5 368,-511.5 374,-511.5"/>
<text text-anchor="middle" x="390" y="-525.8" font-family="Times,serif" font-size="14.00">no op</text>
</g>
<!-- node0x6303d61acae0&#45;&gt;node0x6303d61acab0 -->
<g id="edge2" class="edge">
<title>node0x6303d61acae0&#45;&gt;node0x6303d61acab0</title>
<path fill="none" stroke="#5f5b6a" d="M390,-584.31C390,-576.29 390,-566.55 390,-557.57"/>
<polygon fill="#5f5b6a" stroke="#5f5b6a" points="393.5,-557.53 390,-547.53 386.5,-557.53 393.5,-557.53"/>
</g>
<!-- node0x6303d61ac7e0 -->
<g id="node4" class="node">
<title>node0x6303d61ac7e0</title>
<path fill="#cfbaf0" stroke="#5f5b6a" d="M229,-438.5C229,-438.5 259,-438.5 259,-438.5 265,-438.5 271,-444.5 271,-450.5 271,-450.5 271,-462.5 271,-462.5 271,-468.5 265,-474.5 259,-474.5 259,-474.5 229,-474.5 229,-474.5 223,-474.5 217,-468.5 217,-462.5 217,-462.5 217,-450.5 217,-450.5 217,-444.5 223,-438.5 229,-438.5"/>
<text text-anchor="middle" x="244" y="-452.8" font-family="Times,serif" font-size="14.00">&amp;&amp;</text>
</g>
<!-- node0x6303d61acab0&#45;&gt;node0x6303d61ac7e0 -->
<g id="edge3" class="edge">
<title>node0x6303d61acab0&#45;&gt;node0x6303d61ac7e0</title>
<path fill="none" stroke="#5f5b6a" d="M361.85,-514.81C338.63,-503.52 305.53,-487.42 280.32,-475.16"/>
<polygon fill="#5f5b6a" stroke="#5f5b6a" points="281.6,-471.89 271.08,-470.67 278.54,-478.19 281.6,-471.89"/>
</g>
<!-- node0x6303d61aca80 -->
<g id="node13" class="node">
<title>node0x6303d61aca80</title>
<path fill="#ffcfd2" stroke="#5f5b6a" d="M376,-438.5C376,-438.5 406,-438.5 406,-438.5 412,-438.5 418,-444.5 418,-450.5 418,-450.5 418,-462.5 418,-462.5 418,-468.5 412,-474.5 406,-474.5 406,-474.5 376,-474.5 376,-474.5 370,-474.5 364,-468.5 364,-462.5 364,-462.5 364,-450.5 364,-450.5 364,-444.5 370,-438.5 376,-438.5"/>
<text text-anchor="middle" x="391" y="-452.8" font-family="Times,serif" font-size="14.00">;</text>
</g>
<!-- node0x6303d61acab0&#45;&gt;node0x6303d61aca80 -->
<g id="edge12" class="edge">
<title>node0x6303d61acab0&#45;&gt;node0x6303d61aca80</title>
<path fill="none" stroke="#5f5b6a" d="M390.24,-511.31C390.36,-503.29 390.49,-493.55 390.62,-484.57"/>
<polygon fill="#5f5b6a" stroke="#5f5b6a" points="394.12,-484.58 390.76,-474.53 387.12,-484.48 394.12,-484.58"/>
</g>
<!-- node0x6303d61ac780 -->
<g id="node5" class="node">
<title>node0x6303d61ac780</title>
<path fill="#cfbaf0" stroke="#5f5b6a" d="M120,-365.5C120,-365.5 150,-365.5 150,-365.5 156,-365.5 162,-371.5 162,-377.5 162,-377.5 162,-389.5 162,-389.5 162,-395.5 156,-401.5 150,-401.5 150,-401.5 120,-401.5 120,-401.5 114,-401.5 108,-395.5 108,-389.5 108,-389.5 108,-377.5 108,-377.5 108,-371.5 114,-365.5 120,-365.5"/>
<text text-anchor="middle" x="135" y="-379.8" font-family="Times,serif" font-size="14.00">==</text>
</g>
<!-- node0x6303d61ac7e0&#45;&gt;node0x6303d61ac780 -->
<g id="edge4" class="edge">
<title>node0x6303d61ac7e0&#45;&gt;node0x6303d61ac780</title>
<path fill="none" stroke="#5f5b6a" d="M217.89,-438.49C203.44,-429.08 185.29,-417.26 169.66,-407.07"/>
<polygon fill="#5f5b6a" stroke="#5f5b6a" points="171.56,-404.14 161.27,-401.61 167.74,-410 171.56,-404.14"/>
</g>
<!-- node0x6303d61ac7b0 -->
<g id="node10" class="node">
<title>node0x6303d61ac7b0</title>
<path fill="#cfbaf0" stroke="#5f5b6a" d="M229,-365.5C229,-365.5 259,-365.5 259,-365.5 265,-365.5 271,-371.5 271,-377.5 271,-377.5 271,-389.5 271,-389.5 271,-395.5 265,-401.5 259,-401.5 259,-401.5 229,-401.5 229,-401.5 223,-401.5 217,-395.5 217,-389.5 217,-389.5 217,-377.5 217,-377.5 217,-371.5 223,-365.5 229,-365.5"/>
<text text-anchor="middle" x="244" y="-379.8" font-family="Times,serif" font-size="14.00">&lt;</text>
</g>
<!-- node0x6303d61ac7e0&#45;&gt;node0x6303d61ac7b0 -->
<g id="edge9" class="edge">
<title>node0x6303d61ac7e0&#45;&gt;node0x6303d61ac7b0</title>
<path fill="none" stroke="#5f5b6a" d="M244,-438.31C244,-430.29 244,-420.55 244,-411.57"/>
<polygon fill="#5f5b6a" stroke="#5f5b6a" points="247.5,-411.53 244,-401.53 240.5,-411.53 247.5,-411.53"/>
</g>
<!-- node0x6303d61ac750 -->
<g id="node6" class="node">
<title>node0x6303d61ac750</title>
<path fill="#cfbaf0" stroke="#5f5b6a" d="M48,-292.5C48,-292.5 78,-292.5 78,-292.5 84,-292.5 90,-298.5 90,-304.5 90,-304.5 90,-316.5 90,-316.5 90,-322.5 84,-328.5 78,-328.5 78,-328.5 48,-328.5 48,-328.5 42,-328.5 36,-322.5 36,-316.5 36,-316.5 36,-304.5 36,-304.5 36,-298.5 42,-292.5 48,-292.5"/>
<text text-anchor="middle" x="63" y="-306.8" font-family="Times,serif" font-size="14.00">+</text>
</g>
<!-- node0x6303d61ac780&#45;&gt;node0x6303d61ac750 -->
<g id="edge5" class="edge">
<title>node0x6303d61ac780&#45;&gt;node0x6303d61ac750</title>
<path fill="none" stroke="#5f5b6a" d="M117.57,-365.31C108.55,-356.42 97.39,-345.41 87.51,-335.67"/>
<polygon fill="#5f5b6a" stroke="#5f5b6a" points="89.85,-333.06 80.27,-328.53 84.93,-338.04 89.85,-333.06"/>
</g>
<!-- node0x6303d61abad0 -->
<g id="node9" class="node">
<title>node0x6303d61abad0</title>
<path fill="#8eecf5" stroke="#5f5b6a" d="M120,-292.5C120,-292.5 150,-292.5 150,-292.5 156,-292.5 162,-298.5 162,-304.5 162,-304.5 162,-316.5 162,-316.5 162,-322.5 156,-328.5 150,-328.5 150,-328.5 120,-328.5 120,-328.5 114,-328.5 108,-322.5 108,-316.5 108,-316.5 108,-304.5 108,-304.5 108,-298.5 114,-292.5 120,-292.5"/>
<text text-anchor="middle" x="135" y="-306.8" font-family="Times,serif" font-size="14.00">8.00</text>
</g>
<!-- node0x6303d61ac780&#45;&gt;node0x6303d61abad0 -->
<g id="edge8" class="edge">
<title>node0x6303d61ac780&#45;&gt;node0x6303d61abad0</title>
<path fill="none" stroke="#5f5b6a" d="M135,-365.31C135,-357.29 135,-347.55 135,-338.57"/>
<polygon fill="#5f5b6a" stroke="#5f5b6a" points="138.5,-338.53 135,-328.53 131.5,-338.53 138.5,-338.53"/>
</g>
<!-- node0x6303d61aba10 -->
<g id="node7" class="node">
<title>node0x6303d61aba10</title>
<path fill="#8eecf5" stroke="#5f5b6a" d="M12,-219.5C12,-219.5 42,-219.5 42,-219.5 48,-219.5 54,-225.5 54,-231.5 54,-231.5 54,-243.5 54,-243.5 54,-249.5 48,-255.5 42,-255.5 42,-255.5 12,-255.5 12,-255.5 6,-255.5 0,-249.5 0,-243.5 0,-243.5 0,-231.5 0,-231.5 0,-225.5 6,-219.5 12,-219.5"/>
<text text-anchor="middle" x="27" y="-233.8" font-family="Times,serif" font-size="14.00">7.00</text>
</g>
<!-- node0x6303d61ac750&#45;&gt;node0x6303d61aba10 -->
<g id="edge6" class="edge">
<title>node0x6303d61ac750&#45;&gt;node0x6303d61aba10</title>
<path fill="none" stroke="#5f5b6a" d="M54.29,-292.31C50.08,-284.03 44.95,-273.91 40.28,-264.69"/>
<polygon fill="#5f5b6a" stroke="#5f5b6a" points="43.28,-262.87 35.63,-255.53 37.04,-266.03 43.28,-262.87"/>
</g>
<!-- node0x6303d61aba70 -->
<g id="node8" class="node">
<title>node0x6303d61aba70</title>
<path fill="#8eecf5" stroke="#5f5b6a" d="M84,-219.5C84,-219.5 114,-219.5 114,-219.5 120,-219.5 126,-225.5 126,-231.5 126,-231.5 126,-243.5 126,-243.5 126,-249.5 120,-255.5 114,-255.5 114,-255.5 84,-255.5 84,-255.5 78,-255.5 72,-249.5 72,-243.5 72,-243.5 72,-231.5 72,-231.5 72,-225.5 78,-219.5 84,-219.5"/>
<text text-anchor="middle" x="99" y="-233.8" font-family="Times,serif" font-size="14.00">9.00</text>
</g>
<!-- node0x6303d61ac750&#45;&gt;node0x6303d61aba70 -->
<g id="edge7" class="edge">
<title>node0x6303d61ac750&#45;&gt;node0x6303d61aba70</title>
<path fill="none" stroke="#5f5b6a" d="M71.71,-292.31C75.92,-284.03 81.05,-273.91 85.72,-264.69"/>
<polygon fill="#5f5b6a" stroke="#5f5b6a" points="88.96,-266.03 90.37,-255.53 82.72,-262.87 88.96,-266.03"/>
</g>
<!-- node0x6303d61abb30 -->
<g id="node11" class="node">
<title>node0x6303d61abb30</title>
<path fill="#98f5e1" stroke="#5f5b6a" d="M192,-292.5C192,-292.5 222,-292.5 222,-292.5 228,-292.5 234,-298.5 234,-304.5 234,-304.5 234,-316.5 234,-316.5 234,-322.5 228,-328.5 222,-328.5 222,-328.5 192,-328.5 192,-328.5 186,-328.5 180,-322.5 180,-316.5 180,-316.5 180,-304.5 180,-304.5 180,-298.5 186,-292.5 192,-292.5"/>
<text text-anchor="middle" x="207" y="-306.8" font-family="Times,serif" font-size="14.00">0</text>
</g>
<!-- node0x6303d61ac7b0&#45;&gt;node0x6303d61abb30 -->
<g id="edge10" class="edge">
<title>node0x6303d61ac7b0&#45;&gt;node0x6303d61abb30</title>
<path fill="none" stroke="#5f5b6a" d="M235.04,-365.31C230.68,-356.94 225.34,-346.7 220.5,-337.4"/>
<polygon fill="#5f5b6a" stroke="#5f5b6a" points="223.6,-335.78 215.87,-328.53 217.39,-339.01 223.6,-335.78"/>
</g>
<!-- node0x6303d61abb90 -->
<g id="node12" class="node">
<title>node0x6303d61abb90</title>
<path fill="#8eecf5" stroke="#5f5b6a" d="M264.5,-292.5C264.5,-292.5 297.5,-292.5 297.5,-292.5 303.5,-292.5 309.5,-298.5 309.5,-304.5 309.5,-304.5 309.5,-316.5 309.5,-316.5 309.5,-322.5 303.5,-328.5 297.5,-328.5 297.5,-328.5 264.5,-328.5 264.5,-328.5 258.5,-328.5 252.5,-322.5 252.5,-316.5 252.5,-316.5 252.5,-304.5 252.5,-304.5 252.5,-298.5 258.5,-292.5 264.5,-292.5"/>
<text text-anchor="middle" x="281" y="-306.8" font-family="Times,serif" font-size="14.00">10.00</text>
</g>
<!-- node0x6303d61ac7b0&#45;&gt;node0x6303d61abb90 -->
<g id="edge11" class="edge">
<title>node0x6303d61ac7b0&#45;&gt;node0x6303d61abb90</title>
<path fill="none" stroke="#5f5b6a" d="M252.96,-365.31C257.32,-356.94 262.66,-346.7 267.5,-337.4"/>
<polygon fill="#5f5b6a" stroke="#5f5b6a" points="270.61,-339.01 272.13,-328.53 264.4,-335.78 270.61,-339.01"/>
</g>
<!-- node0x6303d61ac840 -->
<g id="node14" class="node">
<title>node0x6303d61ac840</title>
<path fill="#cfbaf0" stroke="#5f5b6a" d="M376,-365.5C376,-365.5 406,-365.5 406,-365.5 412,-365.5 418,-371.5 418,-377.5 418,-377.5 418,-389.5 418,-389.5 418,-395.5 412,-401.5 406,-401.5 406,-401.5 376,-401.5 376,-401.5 370,-401.5 364,-395.5 364,-389.5 364,-389.5 364,-377.5 364,-377.5 364,-371.5 370,-365.5 376,-365.5"/>
<text text-anchor="middle" x="391" y="-379.8" font-family="Times,serif" font-size="14.00">=</text>
</g>
<!-- node0x6303d61aca80&#45;&gt;node0x6303d61ac840 -->
<g id="edge13" class="edge">
<title>node0x6303d61aca80&#45;&gt;node0x6303d61ac840</title>
<path fill="none" stroke="#5f5b6a" d="M391,-438.31C391,-430.29 391,-420.55 391,-411.57"/>
<polygon fill="#5f5b6a" stroke="#5f5b6a" points="394.5,-411.53 391,-401.53 387.5,-411.53 394.5,-411.53"/>
</g>
<!-- node0x6303d61aca50 -->
<g id="node18" class="node">
<title>node0x6303d61aca50</title>
<path fill="#ffcfd2" stroke="#5f5b6a" d="M521,-365.5C521,-365.5 551,-365.5 551,-365.5 557,-365.5 563,-371.5 563,-377.5 563,-377.5 563,-389.5 563,-389.5 563,-395.5 557,-401.5 551,-401.5 551,-401.5 521,-401.5 521,-401.5 515,-401.5 509,-395.5 509,-389.5 509,-389.5 509,-377.5 509,-377.5 509,-371.5 515,-365.5 521,-365.5"/>
<text text-anchor="middle" x="536" y="-379.8" font-family="Times,serif" font-size="14.00">;</text>
</g>
<!-- node0x6303d61aca80&#45;&gt;node0x6303d61aca50 -->
<g id="edge17" class="edge">
<title>node0x6303d61aca80&#45;&gt;node0x6303d61aca50</title>
<path fill="none" stroke="#5f5b6a" d="M418.27,-442.15C441.26,-430.89 474.35,-414.69 499.59,-402.33"/>
<polygon fill="#5f5b6a" stroke="#5f5b6a" points="501.41,-405.34 508.85,-397.79 498.33,-399.05 501.41,-405.34"/>
</g>
<!-- node0x6303d61abc20 -->
<g id="node15" class="node">
<title>node0x6303d61abc20</title>
<path fill="#98f5e1" stroke="#5f5b6a" d="M340,-292.5C340,-292.5 370,-292.5 370,-292.5 376,-292.5 382,-298.5 382,-304.5 382,-304.5 382,-316.5 382,-316.5 382,-322.5 376,-328.5 370,-328.5 370,-328.5 340,-328.5 340,-328.5 334,-328.5 328,-322.5 328,-316.5 328,-316.5 328,-304.5 328,-304.5 328,-298.5 334,-292.5 340,-292.5"/>
<text text-anchor="middle" x="355" y="-306.8" font-family="Times,serif" font-size="14.00">0</text>
</g>
<!-- node0x6303d61ac840&#45;&gt;node0x6303d61abc20 -->
<g id="edge14" class="edge">
<title>node0x6303d61ac840&#45;&gt;node0x6303d61abc20</title>
<path fill="none" stroke="#5f5b6a" d="M382.29,-365.31C378.08,-357.03 372.95,-346.91 368.28,-337.69"/>
<polygon fill="#5f5b6a" stroke="#5f5b6a" points="371.28,-335.87 363.63,-328.53 365.04,-339.03 371.28,-335.87"/>
</g>
<!-- node0x6303d61ac810 -->
<g id="node16" class="node">
<title>node0x6303d61ac810</title>
<path fill="#cfbaf0" stroke="#5f5b6a" d="M412,-292.5C412,-292.5 442,-292.5 442,-292.5 448,-292.5 454,-298.5 454,-304.5 454,-304.5 454,-316.5 454,-316.5 454,-322.5 448,-328.5 442,-328.5 442,-328.5 412,-328.5 412,-328.5 406,-328.5 400,-322.5 400,-316.5 400,-316.5 400,-304.5 400,-304.5 400,-298.5 406,-292.5 412,-292.5"/>
<text text-anchor="middle" x="427" y="-306.8" font-family="Times,serif" font-size="14.00">cos</text>
</g>
<!-- node0x6303d61ac840&#45;&gt;node0x6303d61ac810 -->
<g id="edge15" class="edge">
<title>node0x6303d61ac840&#45;&gt;node0x6303d61ac810</title>
<path fill="none" stroke="#5f5b6a" d="M399.71,-365.31C403.92,-357.03 409.05,-346.91 413.72,-337.69"/>
<polygon fill="#5f5b6a" stroke="#5f5b6a" points="416.96,-339.03 418.37,-328.53 410.72,-335.87 416.96,-339.03"/>
</g>
<!-- node0x6303d61abce0 -->
<g id="node17" class="node">
<title>node0x6303d61abce0</title>
<path fill="#8eecf5" stroke="#5f5b6a" d="M376,-219.5C376,-219.5 406,-219.5 406,-219.5 412,-219.5 418,-225.5 418,-231.5 418,-231.5 418,-243.5 418,-243.5 418,-249.5 412,-255.5 406,-255.5 406,-255.5 376,-255.5 376,-255.5 370,-255.5 364,-249.5 364,-243.5 364,-243.5 364,-231.5 364,-231.5 364,-225.5 370,-219.5 376,-219.5"/>
<text text-anchor="middle" x="391" y="-233.8" font-family="Times,serif" font-size="14.00">9.00</text>
</g>
<!-- node0x6303d61ac810&#45;&gt;node0x6303d61abce0 -->
<g id="edge16" class="edge">
<title>node0x6303d61ac810&#45;&gt;node0x6303d61abce0</title>
<path fill="none" stroke="#5f5b6a" d="M418.29,-292.31C414.08,-284.03 408.95,-273.91 404.28,-264.69"/>
<polygon fill="#5f5b6a" stroke="#5f5b6a" points="407.28,-262.87 399.63,-255.53 401.04,-266.03 407.28,-262.87"/>
</g>
<!-- node0x6303d61ac9c0 -->
<g id="node19" class="node">
<title>node0x6303d61ac9c0</title>
<path fill="#f1c0e8" stroke="#5f5b6a" d="M520.5,-292.5C520.5,-292.5 551.5,-292.5 551.5,-292.5 557.5,-292.5 563.5,-298.5 563.5,-304.5 563.5,-304.5 563.5,-316.5 563.5,-316.5 563.5,-322.5 557.5,-328.5 551.5,-328.5 551.5,-328.5 520.5,-328.5 520.5,-328.5 514.5,-328.5 508.5,-322.5 508.5,-316.5 508.5,-316.5 508.5,-304.5 508.5,-304.5 508.5,-298.5 514.5,-292.5 520.5,-292.5"/>
<text text-anchor="middle" x="536" y="-306.8" font-family="Times,serif" font-size="14.00">while</text>
</g>
<!-- node0x6303d61aca50&#45;&gt;node0x6303d61ac9c0 -->
<g id="edge18" class="edge">
<title>node0x6303d61aca50&#45;&gt;node0x6303d61ac9c0</title>
<path fill="none" stroke="#5f5b6a" d="M536,-365.31C536,-357.29 536,-347.55 536,-338.57"/>
<polygon fill="#5f5b6a" stroke="#5f5b6a" points="539.5,-338.53 536,-328.53 532.5,-338.53 539.5,-338.53"/>
</g>
<!-- node0x6303d61aca20 -->
<g id="node34" class="node">
<title>node0x6303d61aca20</title>
<path fill="#ffcfd2" stroke="#5f5b6a" d="M594,-292.5C594,-292.5 624,-292.5 624,-292.5 630,-292.5 636,-298.5 636,-304.5 636,-304.5 636,-316.5 636,-316.5 636,-322.5 630,-328.5 624,-328.5 624,-328.5 594,-328.5 594,-328.5 588,-328.5 582,-322.5 582,-316.5 582,-316.5 582,-304.5 582,-304.5 582,-298.5 588,-292.5 594,-292.5"/>
<text text-anchor="middle" x="609" y="-306.8" font-family="Times,serif" font-size="14.00">;</text>
</g>
<!-- node0x6303d61aca50&#45;&gt;node0x6303d61aca20 -->
<g id="edge33" class="edge">
<title>node0x6303d61aca50&#45;&gt;node0x6303d61aca20</title>
<path fill="none" stroke="#5f5b6a" d="M553.67,-365.31C562.82,-356.42 574.14,-345.41 584.15,-335.67"/>
<polygon fill="#5f5b6a" stroke="#5f5b6a" points="586.76,-338.01 591.49,-328.53 581.88,-332.99 586.76,-338.01"/>
</g>
<!-- node0x6303d61ac900 -->
<g id="node20" class="node">
<title>node0x6303d61ac900</title>
<path fill="#cfbaf0" stroke="#5f5b6a" d="M448,-219.5C448,-219.5 478,-219.5 478,-219.5 484,-219.5 490,-225.5 490,-231.5 490,-231.5 490,-243.5 490,-243.5 490,-249.5 484,-255.5 478,-255.5 478,-255.5 448,-255.5 448,-255.5 442,-255.5 436,-249.5 436,-243.5 436,-243.5 436,-231.5 436,-231.5 436,-225.5 442,-219.5 448,-219.5"/>
<text text-anchor="middle" x="463" y="-233.8" font-family="Times,serif" font-size="14.00">| |</text>
</g>
<!-- node0x6303d61ac9c0&#45;&gt;node0x6303d61ac900 -->
<g id="edge19" class="edge">
<title>node0x6303d61ac9c0&#45;&gt;node0x6303d61ac900</title>
<path fill="none" stroke="#5f5b6a" d="M518.33,-292.31C509.18,-283.42 497.86,-272.41 487.85,-262.67"/>
<polygon fill="#5f5b6a" stroke="#5f5b6a" points="490.12,-259.99 480.51,-255.53 485.24,-265.01 490.12,-259.99"/>
</g>
<!-- node0x6303d61ac990 -->
<g id="node29" class="node">
<title>node0x6303d61ac990</title>
<path fill="#ffcfd2" stroke="#5f5b6a" d="M521,-219.5C521,-219.5 551,-219.5 551,-219.5 557,-219.5 563,-225.5 563,-231.5 563,-231.5 563,-243.5 563,-243.5 563,-249.5 557,-255.5 551,-255.5 551,-255.5 521,-255.5 521,-255.5 515,-255.5 509,-249.5 509,-243.5 509,-243.5 509,-231.5 509,-231.5 509,-225.5 515,-219.5 521,-219.5"/>
<text text-anchor="middle" x="536" y="-233.8" font-family="Times,serif" font-size="14.00">;</text>
</g>
<!-- node0x6303d61ac9c0&#45;&gt;node0x6303d61ac990 -->
<g id="edge28" class="edge">
<title>node0x6303d61ac9c0&#45;&gt;node0x6303d61ac990</title>
<path fill="none" stroke="#5f5b6a" d="M536,-292.31C536,-284.29 536,-274.55 536,-265.57"/>
<polygon fill="#5f5b6a" stroke="#5f5b6a" points="539.5,-265.53 536,-255.53 532.5,-265.53 539.5,-265.53"/>
</g>
<!-- node0x6303d61ac8a0 -->
<g id="node21" class="node">
<title>node0x6303d61ac8a0</title>
<path fill="#cfbaf0" stroke="#5f5b6a" d="M302,-146.5C302,-146.5 332,-146.5 332,-146.5 338,-146.5 344,-152.5 344,-158.5 344,-158.5 344,-170.5 344,-170.5 344,-176.5 338,-182.5 332,-182.5 332,-182.5 302,-182.5 302,-182.5 296,-182.5 290,-176.5 290,-170.5 290,-170.5 290,-158.5 290,-158.5 290,-152.5 296,-146.5 302,-146.5"/>
<text text-anchor="middle" x="317" y="-160.8" font-family="Times,serif" font-size="14.00">&gt;=</text>
</g>
<!-- node0x6303d61ac900&#45;&gt;node0x6303d61ac8a0 -->
<g id="edge20" class="edge">
<title>node0x6303d61ac900&#45;&gt;node0x6303d61ac8a0</title>
<path fill="none" stroke="#5f5b6a" d="M435.88,-223.31C412.67,-212.03 379.06,-195.68 353.49,-183.25"/>
<polygon fill="#5f5b6a" stroke="#5f5b6a" points="354.99,-180.08 344.47,-178.86 351.93,-186.38 354.99,-180.08"/>
</g>
<!-- node0x6303d61ac8d0 -->
<g id="node26" class="node">
<title>node0x6303d61ac8d0</title>
<path fill="#cfbaf0" stroke="#5f5b6a" d="M448,-146.5C448,-146.5 478,-146.5 478,-146.5 484,-146.5 490,-152.5 490,-158.5 490,-158.5 490,-170.5 490,-170.5 490,-176.5 484,-182.5 478,-182.5 478,-182.5 448,-182.5 448,-182.5 442,-182.5 436,-176.5 436,-170.5 436,-170.5 436,-158.5 436,-158.5 436,-152.5 442,-146.5 448,-146.5"/>
<text text-anchor="middle" x="463" y="-160.8" font-family="Times,serif" font-size="14.00">!=</text>
</g>
<!-- node0x6303d61ac900&#45;&gt;node0x6303d61ac8d0 -->
<g id="edge25" class="edge">
<title>node0x6303d61ac900&#45;&gt;node0x6303d61ac8d0</title>
<path fill="none" stroke="#5f5b6a" d="M463,-219.31C463,-211.29 463,-201.55 463,-192.57"/>
<polygon fill="#5f5b6a" stroke="#5f5b6a" points="466.5,-192.53 463,-182.53 459.5,-192.53 466.5,-192.53"/>
</g>
<!-- node0x6303d61abdd0 -->
<g id="node22" class="node">
<title>node0x6303d61abdd0</title>
<path fill="#98f5e1" stroke="#5f5b6a" d="M230,-73.5C230,-73.5 260,-73.5 260,-73.5 266,-73.5 272,-79.5 272,-85.5 272,-85.5 272,-97.5 272,-97.5 272,-103.5 266,-109.5 260,-109.5 260,-109.5 230,-109.5 230,-109.5 224,-109.5 218,-103.5 218,-97.5 218,-97.5 218,-85.5 218,-85.5 218,-79.5 224,-73.5 230,-73.5"/>
<text text-anchor="middle" x="245" y="-87.8" font-family="Times,serif" font-size="14.00">0</text>
</g>
<!-- node0x6303d61ac8a0&#45;&gt;node0x6303d61abdd0 -->
<g id="edge21" class="edge">
<title>node0x6303d61ac8a0&#45;&gt;node0x6303d61abdd0</title>
<path fill="none" stroke="#5f5b6a" d="M299.57,-146.31C290.55,-137.42 279.39,-126.41 269.51,-116.67"/>
<polygon fill="#5f5b6a" stroke="#5f5b6a" points="271.85,-114.06 262.27,-109.53 266.93,-119.04 271.85,-114.06"/>
</g>
<!-- node0x6303d61ac870 -->
<g id="node23" class="node">
<title>node0x6303d61ac870</title>
<path fill="#cfbaf0" stroke="#5f5b6a" d="M302,-73.5C302,-73.5 332,-73.5 332,-73.5 338,-73.5 344,-79.5 344,-85.5 344,-85.5 344,-97.5 344,-97.5 344,-103.5 338,-109.5 332,-109.5 332,-109.5 302,-109.5 302,-109.5 296,-109.5 290,-103.5 290,-97.5 290,-97.5 290,-85.5 290,-85.5 290,-79.5 296,-73.5 302,-73.5"/>
<text text-anchor="middle" x="317" y="-87.8" font-family="Times,serif" font-size="14.00">+</text>
</g>
<!-- node0x6303d61ac8a0&#45;&gt;node0x6303d61ac870 -->
<g id="edge22" class="edge">
<title>node0x6303d61ac8a0&#45;&gt;node0x6303d61ac870</title>
<path fill="none" stroke="#5f5b6a" d="M317,-146.31C317,-138.29 317,-128.55 317,-119.57"/>
<polygon fill="#5f5b6a" stroke="#5f5b6a" points="320.5,-119.53 317,-109.53 313.5,-119.53 320.5,-119.53"/>
</g>
<!-- node0x6303d61abe30 -->
<g id="node24" class="node">
<title>node0x6303d61abe30</title>
<path fill="#8eecf5" stroke="#5f5b6a" d="M266,-0.5C266,-0.5 296,-0.5 296,-0.5 302,-0.5 308,-6.5 308,-12.5 308,-12.5 308,-24.5 308,-24.5 308,-30.5 302,-36.5 296,-36.5 296,-36.5 266,-36.5 266,-36.5 260,-36.5 254,-30.5 254,-24.5 254,-24.5 254,-12.5 254,-12.5 254,-6.5 260,-0.5 266,-0.5"/>
<text text-anchor="middle" x="281" y="-14.8" font-family="Times,serif" font-size="14.00">7.00</text>
</g>
<!-- node0x6303d61ac870&#45;&gt;node0x6303d61abe30 -->
<g id="edge23" class="edge">
<title>node0x6303d61ac870&#45;&gt;node0x6303d61abe30</title>
<path fill="none" stroke="#5f5b6a" d="M308.29,-73.31C304.08,-65.03 298.95,-54.91 294.28,-45.69"/>
<polygon fill="#5f5b6a" stroke="#5f5b6a" points="297.28,-43.87 289.63,-36.53 291.04,-47.03 297.28,-43.87"/>
</g>
<!-- node0x6303d61abe90 -->
<g id="node25" class="node">
<title>node0x6303d61abe90</title>
<path fill="#8eecf5" stroke="#5f5b6a" d="M338,-0.5C338,-0.5 368,-0.5 368,-0.5 374,-0.5 380,-6.5 380,-12.5 380,-12.5 380,-24.5 380,-24.5 380,-30.5 374,-36.5 368,-36.5 368,-36.5 338,-36.5 338,-36.5 332,-36.5 326,-30.5 326,-24.5 326,-24.5 326,-12.5 326,-12.5 326,-6.5 332,-0.5 338,-0.5"/>
<text text-anchor="middle" x="353" y="-14.8" font-family="Times,serif" font-size="14.00">8.00</text>
</g>
<!-- node0x6303d61ac870&#45;&gt;node0x6303d61abe90 -->
<g id="edge24" class="edge">
<title>node0x6303d61ac870&#45;&gt;node0x6303d61abe90</title>
<path fill="none" stroke="#5f5b6a" d="M325.71,-73.31C329.92,-65.03 335.05,-54.91 339.72,-45.69"/>
<polygon fill="#5f5b6a" stroke="#5f5b6a" points="342.96,-47.03 344.37,-36.53 336.72,-43.87 342.96,-47.03"/>
</g>
<!-- node0x6303d61abef0 -->
<g id="node27" class="node">
<title>node0x6303d61abef0</title>
<path fill="#98f5e1" stroke="#5f5b6a" d="M374,-73.5C374,-73.5 404,-73.5 404,-73.5 410,-73.5 416,-79.5 416,-85.5 416,-85.5 416,-97.5 416,-97.5 416,-103.5 410,-109.5 404,-109.5 404,-109.5 374,-109.5 374,-109.5 368,-109.5 362,-103.5 362,-97.5 362,-97.5 362,-85.5 362,-85.5 362,-79.5 368,-73.5 374,-73.5"/>
<text text-anchor="middle" x="389" y="-87.8" font-family="Times,serif" font-size="14.00">1</text>
</g>
<!-- node0x6303d61ac8d0&#45;&gt;node0x6303d61abef0 -->
<g id="edge26" class="edge">
<title>node0x6303d61ac8d0&#45;&gt;node0x6303d61abef0</title>
<path fill="none" stroke="#5f5b6a" d="M445.09,-146.31C435.82,-137.42 424.34,-126.41 414.19,-116.67"/>
<polygon fill="#5f5b6a" stroke="#5f5b6a" points="416.39,-113.93 406.75,-109.53 411.54,-118.98 416.39,-113.93"/>
</g>
<!-- node0x6303d61abf50 -->
<g id="node28" class="node">
<title>node0x6303d61abf50</title>
<path fill="#8eecf5" stroke="#5f5b6a" d="M446.5,-73.5C446.5,-73.5 479.5,-73.5 479.5,-73.5 485.5,-73.5 491.5,-79.5 491.5,-85.5 491.5,-85.5 491.5,-97.5 491.5,-97.5 491.5,-103.5 485.5,-109.5 479.5,-109.5 479.5,-109.5 446.5,-109.5 446.5,-109.5 440.5,-109.5 434.5,-103.5 434.5,-97.5 434.5,-97.5 434.5,-85.5 434.5,-85.5 434.5,-79.5 440.5,-73.5 446.5,-73.5"/>
<text text-anchor="middle" x="463" y="-87.8" font-family="Times,serif" font-size="14.00">78.00</text>
</g>
<!-- node0x6303d61ac8d0&#45;&gt;node0x6303d61abf50 -->
<g id="edge27" class="edge">
<title>node0x6303d61ac8d0&#45;&gt;node0x6303d61abf50</title>
<path fill="none" stroke="#5f5b6a" d="M463,-146.31C463,-138.29 463,-128.55 463,-119.57"/>
<polygon fill="#5f5b6a" stroke="#5f5b6a" points="466.5,-119.53 463,-109.53 459.5,-119.53 466.5,-119.53"/>
</g>
<!-- node0x6303d61ac960 -->
<g id="node30" class="node">
<title>node0x6303d61ac960</title>
<path fill="#cfbaf0" stroke="#5f5b6a" d="M522,-146.5C522,-146.5 552,-146.5 552,-146.5 558,-146.5 564,-152.5 564,-158.5 564,-158.5 564,-170.5 564,-170.5 564,-176.5 558,-182.5 552,-182.5 552,-182.5 522,-182.5 522,-182.5 516,-182.5 510,-176.5 510,-170.5 510,-170.5 510,-158.5 510,-158.5 510,-152.5 516,-146.5 522,-146.5"/>
<text text-anchor="middle" x="537" y="-160.8" font-family="Times,serif" font-size="14.00">=</text>
</g>
<!-- node0x6303d61ac990&#45;&gt;node0x6303d61ac960 -->
<g id="edge29" class="edge">
<title>node0x6303d61ac990&#45;&gt;node0x6303d61ac960</title>
<path fill="none" stroke="#5f5b6a" d="M536.24,-219.31C536.36,-211.29 536.49,-201.55 536.62,-192.57"/>
<polygon fill="#5f5b6a" stroke="#5f5b6a" points="540.12,-192.58 536.76,-182.53 533.12,-192.48 540.12,-192.58"/>
</g>
<!-- node0x6303d61abfe0 -->
<g id="node31" class="node">
<title>node0x6303d61abfe0</title>
<path fill="#98f5e1" stroke="#5f5b6a" d="M522,-73.5C522,-73.5 552,-73.5 552,-73.5 558,-73.5 564,-79.5 564,-85.5 564,-85.5 564,-97.5 564,-97.5 564,-103.5 558,-109.5 552,-109.5 552,-109.5 522,-109.5 522,-109.5 516,-109.5 510,-103.5 510,-97.5 510,-97.5 510,-85.5 510,-85.5 510,-79.5 516,-73.5 522,-73.5"/>
<text text-anchor="middle" x="537" y="-87.8" font-family="Times,serif" font-size="14.00">1</text>
</g>
<!-- node0x6303d61ac960&#45;&gt;node0x6303d61abfe0 -->
<g id="edge30" class="edge">
<title>node0x6303d61ac960&#45;&gt;node0x6303d61abfe0</title>
<path fill="none" stroke="#5f5b6a" d="M537,-146.31C537,-138.29 537,-128.55 537,-119.57"/>
<polygon fill="#5f5b6a" stroke="#5f5b6a" points="540.5,-119.53 537,-109.53 533.5,-119.53 540.5,-119.53"/>
</g>
<!-- node0x6303d61ac930 -->
<g id="node32" class="node">
<title>node0x6303d61ac930</title>
<path fill="#cfbaf0" stroke="#5f5b6a" d="M594,-73.5C594,-73.5 624,-73.5 624,-73.5 630,-73.5 636,-79.5 636,-85.5 636,-85.5 636,-97.5 636,-97.5 636,-103.5 630,-109.5 624,-109.5 624,-109.5 594,-109.5 594,-109.5 588,-109.5 582,-103.5 582,-97.5 582,-97.5 582,-85.5 582,-85.5 582,-79.5 588,-73.5 594,-73.5"/>
<text text-anchor="middle" x="609" y="-87.8" font-family="Times,serif" font-size="14.00">ln</text>
</g>
<!-- node0x6303d61ac960&#45;&gt;node0x6303d61ac930 -->
<g id="edge31" class="edge">
<title>node0x6303d61ac960&#45;&gt;node0x6303d61ac930</title>
<path fill="none" stroke="#5f5b6a" d="M554.43,-146.31C563.45,-137.42 574.61,-126.41 584.49,-116.67"/>
<polygon fill="#5f5b6a" stroke="#5f5b6a" points="587.07,-119.04 591.73,-109.53 582.15,-114.06 587.07,-119.04"/>
</g>
<!-- node0x6303d61ac0a0 -->
<g id="node33" class="node">
<title>node0x6303d61ac0a0</title>
<path fill="#8eecf5" stroke="#5f5b6a" d="M592.5,-0.5C592.5,-0.5 625.5,-0.5 625.5,-0.5 631.5,-0.5 637.5,-6.5 637.5,-12.5 637.5,-12.5 637.5,-24.5 637.5,-24.5 637.5,-30.5 631.5,-36.5 625.5,-36.5 625.5,-36.5 592.5,-36.5 592.5,-36.5 586.5,-36.5 580.5,-30.5 580.5,-24.5 580.5,-24.5 580.5,-12.5 580.5,-12.5 580.5,-6.5 586.5,-0.5 592.5,-0.5"/>
<text text-anchor="middle" x="609" y="-14.8" font-family="Times,serif" font-size="14.00">37.00</text>
</g>
<!-- node0x6303d61ac930&#45;&gt;node0x6303d61ac0a0 -->
<g id="edge32" class="edge">
<title>node0x6303d61ac930&#45;&gt;node0x6303d61ac0a0</title>
<path fill="none" stroke="#5f5b6a" d="M609,-73.31C609,-65.29 609,-55.55 609,-46.57"/>
<polygon fill="#5f5b6a" stroke="#5f5b6a" points="612.5,-46.53 609,-36.53 605.5,-46.53 612.5,-46.53"/>
</g>
<!-- node0x6303d61ac9f0 -->
<g id="node35" class="node">
<title>node0x6303d61ac9f0</title>
<path fill="#cfbaf0" stroke="#5f5b6a" d="M594,-219.5C594,-219.5 624,-219.5 624,-219.5 630,-219.5 636,-225.5 636,-231.5 636,-231.5 636,-243.5 636,-243.5 636,-249.5 630,-255.5 624,-255.5 624,-255.5 594,-255.5 594,-255.5 588,-255.5 582,-249.5 582,-243.5 582,-243.5 582,-231.5 582,-231.5 582,-225.5 588,-219.5 594,-219.5"/>
<text text-anchor="middle" x="609" y="-233.8" font-family="Times,serif" font-size="14.00">=</text>
</g>
<!-- node0x6303d61aca20&#45;&gt;node0x6303d61ac9f0 -->
<g id="edge34" class="edge">
<title>node0x6303d61aca20&#45;&gt;node0x6303d61ac9f0</title>
<path fill="none" stroke="#5f5b6a" d="M609,-292.31C609,-284.29 609,-274.55 609,-265.57"/>
<polygon fill="#5f5b6a" stroke="#5f5b6a" points="612.5,-265.53 609,-255.53 605.5,-265.53 612.5,-265.53"/>
</g>
<!-- node0x6303d61ac160 -->
<g id="node36" class="node">
<title>node0x6303d61ac160</title>
<path fill="#98f5e1" stroke="#5f5b6a" d="M594,-146.5C594,-146.5 624,-146.5 624,-146.5 630,-146.5 636,-152.5 636,-158.5 636,-158.5 636,-170.5 636,-170.5 636,-176.5 630,-182.5 624,-182.5 624,-182.5 594,-182.5 594,-182.5 588,-182.5 582,-176.5 582,-170.5 582,-170.5 582,-158.5 582,-158.5 582,-152.5 588,-146.5 594,-146.5"/>
<text text-anchor="middle" x="609" y="-160.8" font-family="Times,serif" font-size="14.00">0</text>
</g>
<!-- node0x6303d61ac9f0&#45;&gt;node0x6303d61ac160 -->
<g id="edge35" class="edge">
<title>node0x6303d61ac9f0&#45;&gt;node0x6303d61ac160</title>
<path fill="none" stroke="#5f5b6a" d="M609,-219.31C609,-211.29 609,-201.55 609,-192.57"/>
<polygon fill="#5f5b6a" stroke="#5f5b6a" points="612.5,-192.53 609,-182.53 605.5,-192.53 612.5,-192.53"/>
</g>
<!-- node0x6303d61ac1c0 -->
<g id="node37" class="node">
<title>node0x6303d61ac1c0</title>
<path fill="#98f5e1" stroke="#5f5b6a" d="M666,-146.5C666,-146.5 696,-146.5 696,-146.5 702,-146.5 708,-152.5 708,-158.5 708,-158.5 708,-170.5 708,-170.5 708,-176.5 702,-182.5 696,-182.5 696,-182.5 666,-182.5 666,-182.5 660,-182.5 654,-176.5 654,-170.5 654,-170.5 654,-158.5 654,-158.5 654,-152.5 660,-146.5 666,-146.5"/>
<text text-anchor="middle" x="681" y="-160.8" font-family="Times,serif" font-size="14.00">1</text>
</g>
<!-- node0x6303d61ac9f0&#45;&gt;node0x6303d61ac1c0 -->
<g id="edge36" class="edge">
<title>node0x6303d61ac9f0&#45;&gt;node0x6303d61ac1c0</title>
<path fill="none" stroke="#5f5b6a" d="M626.43,-219.31C635.45,-210.42 646.61,-199.41 656.49,-189.67"/>
<polygon fill="#5f5b6a" stroke="#5f5b6a" points="659.07,-192.04 663.73,-182.53 654.15,-187.06 659.07,-192.04"/>
</g>
<!-- node0x6303d61acb10 -->
<g id="node39" class="node">
<title>node0x6303d61acb10</title>
<path fill="#cfbaf0" stroke="#5f5b6a" d="M448,-511.5C448,-511.5 478,-511.5 478,-511.5 484,-511.5 490,-517.5 490,-523.5 490,-523.5 490,-535.5 490,-535.5 490,-541.5 484,-547.5 478,-547.5 478,-547.5 448,-547.5 448,-547.5 442,-547.5 436,-541.5 436,-535.5 436,-535.5 436,-523.5 436,-523.5 436,-517.5 442,-511.5 448,-511.5"/>
<text text-anchor="middle" x="463" y="-525.8" font-family="Times,serif" font-size="14.00">=</text>
</g>
<!-- node0x6303d61acb40&#45;&gt;node0x6303d61acb10 -->
<g id="edge38" class="edge">
<title>node0x6303d61acb40&#45;&gt;node0x6303d61acb10</title>
<path fill="none" stroke="#5f5b6a" d="M462.24,-584.31C462.36,-576.29 462.49,-566.55 462.62,-557.57"/>
<polygon fill="#5f5b6a" stroke="#5f5b6a" points="466.12,-557.58 462.76,-547.53 459.12,-557.48 466.12,-557.58"/>
</g>
<!-- node0x6303d61ac250 -->
<g id="node40" class="node">
<title>node0x6303d61ac250</title>
<path fill="#98f5e1" stroke="#5f5b6a" d="M448,-438.5C448,-438.5 478,-438.5 478,-438.5 484,-438.5 490,-444.5 490,-450.5 490,-450.5 490,-462.5 490,-462.5 490,-468.5 484,-474.5 478,-474.5 478,-474.5 448,-474.5 448,-474.5 442,-474.5 436,-468.5 436,-462.5 436,-462.5 436,-450.5 436,-450.5 436,-444.5 442,-438.5 448,-438.5"/>
<text text-anchor="middle" x="463" y="-452.8" font-family="Times,serif" font-size="14.00">0</text>
</g>
<!-- node0x6303d61acb10&#45;&gt;node0x6303d61ac250 -->
<g id="edge39" class="edge">
<title>node0x6303d61acb10&#45;&gt;node0x6303d61ac250</title>
<path fill="none" stroke="#5f5b6a" d="M463,-511.31C463,-503.29 463,-493.55 463,-484.57"/>
<polygon fill="#5f5b6a" stroke="#5f5b6a" points="466.5,-484.53 463,-474.53 459.5,-484.53 466.5,-484.53"/>
</g>
<!-- node0x6303d61ac2b0 -->
<g id="node41" class="node">
<title>node0x6303d61ac2b0</title>
<path fill="#8eecf5" stroke="#5f5b6a" d="M520.5,-438.5C520.5,-438.5 553.5,-438.5 553.5,-438.5 559.5,-438.5 565.5,-444.5 565.5,-450.5 565.5,-450.5 565.5,-462.5 565.5,-462.5 565.5,-468.5 559.5,-474.5 553.5,-474.5 553.5,-474.5 520.5,-474.5 520.5,-474.5 514.5,-474.5 508.5,-468.5 508.5,-462.5 508.5,-462.5 508.5,-450.5 508.5,-450.5 508.5,-444.5 514.5,-438.5 520.5,-438.5"/>
<text text-anchor="middle" x="537" y="-452.8" font-family="Times,serif" font-size="14.00">10.00</text>
</g>
<!-- node0x6303d61acb10&#45;&gt;node0x6303d61ac2b0 -->
<g id="edge40" class="edge">
<title>node0x6303d61acb10&#45;&gt;node0x6303d61ac2b0</title>
<path fill="none" stroke="#5f5b6a" d="M480.91,-511.31C490.18,-502.42 501.66,-491.41 511.81,-481.67"/>
<polygon fill="#5f5b6a" stroke="#5f5b6a" points="514.46,-483.98 519.25,-474.53 509.61,-478.93 514.46,-483.98"/>
</g>
</g>
</svg>
